M48
;DRILL file {Pcbnew (2011-12-28 BZR 3254)-stable} date 23.01.2012 18:02:31
;FORMAT={-:-/ absolute / metric / decimal}
FMAT,2
METRIC,TZ
T1C0.635
T2C0.813
T3C1.001
T4C1.199
T5C2.301
T6C3.048
%
G90
G05
M71
T1
X109.441Y89.040
X110.348Y53.327
X115.639Y51.295
X116.248Y34.872
X118.227Y126.162
X119.548Y49.896
X121.249Y48.829
X121.267Y41.011
X123.340Y48.717
X124.546Y38.227
X125.809Y65.357
X129.677Y69.136
X131.166Y70.129
X135.103Y45.921
X135.110Y87.940
X136.027Y53.797
X137.251Y43.419
X138.986Y97.854
X139.060Y43.579
X139.888Y83.817
X139.924Y101.554
X144.935Y39.578
X146.248Y41.265
X147.251Y54.366
X147.254Y67.521
X147.792Y41.478
X148.717Y44.928
X148.836Y65.065
X150.525Y69.337
X151.582Y68.489
X152.522Y61.570
X153.779Y43.162
X156.256Y40.521
X158.755Y38.451
X160.068Y37.529
X161.298Y39.733
X163.899Y66.739
X164.843Y39.703
X165.303Y50.325
X165.628Y104.399
X169.024Y107.180
X170.157Y65.857
X170.170Y67.701
X171.239Y43.155
X172.763Y90.830
X173.624Y75.283
X175.321Y62.301
X176.225Y39.403
X176.604Y90.399
X177.714Y37.709
X181.724Y43.025
X182.931Y62.273
X184.163Y47.341
X185.656Y52.319
X186.246Y34.773
X186.670Y102.159
X186.822Y86.368
X199.311Y105.016
X201.752Y121.821
X202.075Y97.800
T2
X97.907Y51.407
X97.907Y59.027
X97.907Y64.107
X97.907Y69.187
X97.907Y74.267
X97.907Y79.347
X97.907Y86.967
X97.907Y92.047
X97.907Y99.667
X97.907Y104.747
X97.907Y112.367
X97.907Y117.447
X102.987Y53.947
X102.987Y61.567
X102.987Y69.187
X102.987Y74.267
X102.987Y81.887
X102.987Y86.967
X102.987Y94.587
X102.987Y99.667
X102.987Y107.287
X102.987Y112.367
X102.987Y119.987
X103.746Y138.748
X105.527Y61.567
X105.527Y69.187
X105.527Y74.267
X105.527Y81.887
X105.527Y86.967
X105.527Y94.587
X105.527Y99.667
X105.527Y107.287
X105.527Y112.367
X105.527Y119.987
X106.246Y138.748
X108.067Y61.567
X108.067Y69.187
X108.067Y74.267
X108.067Y81.887
X108.067Y86.967
X108.067Y94.587
X108.067Y99.667
X108.067Y107.287
X108.067Y112.367
X108.067Y119.987
X108.745Y138.748
X110.607Y61.567
X110.607Y69.187
X110.607Y74.267
X110.607Y81.887
X110.607Y86.967
X110.607Y94.587
X110.607Y99.667
X110.607Y107.287
X110.607Y112.367
X110.607Y119.987
X113.147Y61.567
X113.147Y69.187
X113.147Y74.267
X113.147Y81.887
X113.147Y86.967
X113.147Y94.587
X113.147Y99.667
X113.147Y107.287
X113.147Y112.367
X113.147Y119.987
X114.417Y128.956
X114.417Y136.576
X115.687Y61.567
X115.687Y69.187
X115.687Y74.267
X115.687Y81.887
X115.687Y86.967
X115.687Y94.587
X115.687Y99.667
X115.687Y107.287
X115.687Y112.367
X115.687Y119.987
X118.227Y61.567
X118.227Y69.187
X118.227Y74.267
X118.227Y81.887
X118.227Y86.967
X118.227Y94.587
X118.227Y99.667
X118.227Y107.287
X118.227Y112.367
X118.227Y119.987
X118.227Y128.956
X118.227Y136.576
X120.767Y61.567
X120.767Y69.187
X120.767Y74.267
X120.767Y81.887
X120.767Y86.967
X120.767Y94.587
X122.037Y128.956
X122.037Y136.576
X123.307Y74.267
X123.307Y81.887
X123.307Y86.967
X123.307Y94.587
X124.478Y138.745
X125.847Y74.267
X125.847Y81.887
X125.847Y86.967
X125.847Y94.587
X125.847Y99.667
X125.847Y107.287
X127.018Y138.745
X128.387Y74.267
X128.387Y81.887
X128.387Y86.967
X128.387Y94.587
X128.387Y112.367
X128.387Y119.987
X129.657Y54.026
X129.657Y132.687
X130.927Y74.267
X130.927Y81.887
X130.927Y86.967
X130.927Y94.587
X130.927Y99.667
X130.927Y107.287
X130.927Y112.367
X130.927Y119.987
X133.467Y56.487
X133.467Y59.027
X133.467Y61.567
X133.467Y64.107
X133.467Y66.647
X133.467Y69.187
X133.467Y112.367
X133.467Y119.987
X134.737Y132.687
X136.007Y112.367
X136.007Y119.987
X138.547Y112.367
X138.547Y119.987
X141.087Y56.487
X141.087Y59.027
X141.087Y61.567
X141.087Y64.107
X141.087Y66.647
X141.087Y69.187
X141.087Y112.367
X141.087Y119.987
X143.627Y112.367
X143.627Y119.987
X147.437Y130.147
X147.437Y132.687
X151.247Y130.147
X151.247Y132.687
X153.787Y56.566
X153.787Y71.806
X153.787Y79.347
X153.787Y94.587
X155.057Y106.017
X155.057Y113.637
X156.327Y56.566
X156.327Y71.806
X156.327Y79.347
X156.327Y94.587
X156.327Y130.147
X157.597Y106.017
X157.597Y113.637
X158.867Y56.566
X158.867Y71.806
X158.867Y79.347
X158.867Y94.587
X161.407Y56.566
X161.407Y71.806
X161.407Y79.347
X161.407Y94.587
X163.477Y138.748
X163.947Y56.566
X163.947Y71.806
X163.947Y79.347
X163.947Y94.587
X163.947Y111.097
X163.947Y118.717
X163.947Y130.147
X166.017Y138.748
X166.487Y56.566
X166.487Y71.806
X166.487Y79.347
X166.487Y94.587
X169.027Y56.566
X169.027Y71.806
X169.027Y79.347
X169.027Y94.587
X171.567Y56.566
X171.567Y71.806
X171.567Y79.347
X171.567Y94.587
X174.107Y56.566
X174.107Y71.806
X174.107Y79.347
X174.107Y94.587
X176.647Y56.566
X176.647Y71.806
X176.647Y79.347
X176.647Y94.587
X179.187Y56.566
X179.187Y71.806
X179.187Y79.347
X179.187Y94.587
X181.727Y56.566
X181.727Y71.806
X181.727Y79.347
X181.727Y94.587
X184.267Y56.566
X184.267Y71.806
X184.267Y79.347
X184.267Y94.587
X186.807Y56.566
X186.807Y71.806
X186.807Y79.347
X186.807Y94.587
X189.347Y79.347
X189.347Y94.587
X191.887Y79.347
X191.887Y94.587
X193.157Y64.186
X193.157Y69.266
X194.427Y79.347
X194.427Y94.587
X194.975Y138.748
X195.697Y103.477
X195.697Y106.017
X195.697Y108.557
X195.697Y111.097
X195.697Y113.637
X195.697Y116.177
X195.697Y118.717
X196.967Y54.026
X196.967Y56.566
X196.967Y61.646
X196.967Y69.266
X196.967Y79.347
X196.967Y94.587
X197.515Y138.748
X198.237Y123.797
X198.237Y131.417
X199.507Y79.347
X199.507Y94.587
X202.047Y79.347
X202.047Y94.587
X203.317Y103.477
X203.317Y106.017
X203.317Y108.557
X203.317Y111.097
X203.317Y113.637
X203.317Y116.177
X203.317Y118.717
T3
X145.191Y141.247
X147.731Y141.247
X149.763Y141.247
X152.303Y141.247
T4
X171.567Y106.017
X171.567Y108.557
X171.567Y111.097
X171.567Y113.637
X171.567Y116.177
X171.567Y118.717
X171.567Y121.257
X171.567Y123.797
X171.567Y126.337
X171.567Y128.877
X171.567Y131.417
X171.567Y133.957
X186.807Y106.017
X186.807Y108.557
X186.807Y111.097
X186.807Y113.637
X186.807Y116.177
X186.807Y118.717
X186.807Y121.257
X186.807Y123.797
X186.807Y126.337
X186.807Y128.877
X186.807Y131.417
X186.807Y133.957
T5
X141.635Y143.914
X155.351Y143.914
T6
X108.748Y43.746
X108.748Y133.746
X193.746Y43.746
X193.746Y133.746
T0
M30
