%TF.GenerationSoftware,KiCad,Pcbnew,(5.1.10)-1*%
%TF.CreationDate,2024-12-04T14:35:01+01:00*%
%TF.ProjectId,BasicROM,42617369-6352-44f4-9d2e-6b696361645f,rev?*%
%TF.SameCoordinates,Original*%
%TF.FileFunction,Other,User*%
%FSLAX46Y46*%
G04 Gerber Fmt 4.6, Leading zero omitted, Abs format (unit mm)*
G04 Created by KiCad (PCBNEW (5.1.10)-1) date 2024-12-04 14:35:01*
%MOMM*%
%LPD*%
G01*
G04 APERTURE LIST*
%ADD10C,0.050000*%
G04 APERTURE END LIST*
D10*
%TO.C,U4*%
X133678000Y-113766000D02*
X133678000Y-132116000D01*
X133678000Y-132116000D02*
X144228000Y-132116000D01*
X144228000Y-132116000D02*
X144228000Y-113766000D01*
X144228000Y-113766000D02*
X133678000Y-113766000D01*
%TO.C,C7*%
X138464000Y-134854000D02*
X138464000Y-132354000D01*
X138464000Y-132354000D02*
X133864000Y-132354000D01*
X133864000Y-132354000D02*
X133864000Y-134854000D01*
X133864000Y-134854000D02*
X138464000Y-134854000D01*
%TO.C,C5*%
X156230000Y-75218000D02*
X158730000Y-75218000D01*
X158730000Y-75218000D02*
X158730000Y-70618000D01*
X158730000Y-70618000D02*
X156230000Y-70618000D01*
X156230000Y-70618000D02*
X156230000Y-75218000D01*
%TO.C,J2*%
X162251000Y-55708000D02*
X162251000Y-89188000D01*
X175251000Y-55708000D02*
X162251000Y-55708000D01*
X175251000Y-89188000D02*
X175251000Y-55708000D01*
X162251000Y-89188000D02*
X175251000Y-89188000D01*
%TO.C,C11*%
X156230000Y-75698000D02*
X156230000Y-80298000D01*
X158730000Y-75698000D02*
X156230000Y-75698000D01*
X158730000Y-80298000D02*
X158730000Y-75698000D01*
X156230000Y-80298000D02*
X158730000Y-80298000D01*
%TO.C,C10*%
X158730000Y-69590000D02*
X158730000Y-64990000D01*
X156230000Y-69590000D02*
X158730000Y-69590000D01*
X156230000Y-64990000D02*
X156230000Y-69590000D01*
X158730000Y-64990000D02*
X156230000Y-64990000D01*
%TO.C,C9*%
X158730000Y-63240000D02*
X158730000Y-58640000D01*
X156230000Y-63240000D02*
X158730000Y-63240000D01*
X156230000Y-58640000D02*
X156230000Y-63240000D01*
X158730000Y-58640000D02*
X156230000Y-58640000D01*
%TO.C,U1*%
X125852000Y-113162000D02*
X109352000Y-113162000D01*
X125852000Y-129662000D02*
X125852000Y-113162000D01*
X109352000Y-129662000D02*
X125852000Y-129662000D01*
X109352000Y-113162000D02*
X109352000Y-129662000D01*
%TO.C,C3*%
X145830000Y-66274000D02*
X145830000Y-63774000D01*
X145830000Y-63774000D02*
X141230000Y-63774000D01*
X141230000Y-63774000D02*
X141230000Y-66274000D01*
X141230000Y-66274000D02*
X145830000Y-66274000D01*
%TO.C,U3*%
X106958000Y-61696000D02*
X106958000Y-102896000D01*
X106958000Y-102896000D02*
X125158000Y-102896000D01*
X125158000Y-102896000D02*
X125158000Y-61696000D01*
X125158000Y-61696000D02*
X106958000Y-61696000D01*
%TO.C,U2*%
X127786000Y-66776000D02*
X127786000Y-102876000D01*
X127786000Y-102876000D02*
X145986000Y-102876000D01*
X145986000Y-102876000D02*
X145986000Y-66776000D01*
X145986000Y-66776000D02*
X127786000Y-66776000D01*
%TO.C,RN1*%
X157608000Y-134034000D02*
X160908000Y-134034000D01*
X160908000Y-134034000D02*
X160908000Y-120434000D01*
X160908000Y-120434000D02*
X157608000Y-120434000D01*
X157608000Y-120434000D02*
X157608000Y-134034000D01*
%TO.C,J1*%
X161268000Y-120374000D02*
X161268000Y-131574000D01*
X161268000Y-131574000D02*
X167418000Y-131574000D01*
X167418000Y-131574000D02*
X167418000Y-120374000D01*
X167418000Y-120374000D02*
X161268000Y-120374000D01*
%TO.C,D2*%
X118128000Y-142512000D02*
X118128000Y-138412000D01*
X118128000Y-138412000D02*
X112168000Y-138412000D01*
X112168000Y-138412000D02*
X112168000Y-142512000D01*
X112168000Y-142512000D02*
X118128000Y-142512000D01*
%TO.C,C8*%
X106646000Y-138196000D02*
X106646000Y-140696000D01*
X106646000Y-140696000D02*
X111246000Y-140696000D01*
X111246000Y-140696000D02*
X111246000Y-138196000D01*
X111246000Y-138196000D02*
X106646000Y-138196000D01*
%TO.C,C6*%
X100750000Y-141224000D02*
G75*
G03*
X100750000Y-141224000I-4250000J0D01*
G01*
%TO.C,C4*%
X125256000Y-61194000D02*
X125256000Y-58694000D01*
X125256000Y-58694000D02*
X120656000Y-58694000D01*
X120656000Y-58694000D02*
X120656000Y-61194000D01*
X120656000Y-61194000D02*
X125256000Y-61194000D01*
%TO.C,C2*%
X97316000Y-62972000D02*
X97316000Y-60472000D01*
X97316000Y-60472000D02*
X92716000Y-60472000D01*
X92716000Y-60472000D02*
X92716000Y-62972000D01*
X92716000Y-62972000D02*
X97316000Y-62972000D01*
%TO.C,C1*%
X134332000Y-108224000D02*
X134332000Y-110724000D01*
X134332000Y-110724000D02*
X138932000Y-110724000D01*
X138932000Y-110724000D02*
X138932000Y-108224000D01*
X138932000Y-108224000D02*
X134332000Y-108224000D01*
%TD*%
M02*
