M48
; DRILL file {KiCad (5.1.10)-1} date 12/04/24 14:34:57
; FORMAT={-:-/ absolute / inch / decimal}
; #@! TF.CreationDate,2024-12-04T14:34:57+01:00
; #@! TF.GenerationSoftware,Kicad,Pcbnew,(5.1.10)-1
; #@! TF.FileFunction,Plated,1,2,PTH
FMAT,2
INCH
T1C0.0157
T2C0.0315
T3C0.0394
T4C0.0472
T5C0.0551
T6C0.0630
%
G90
G05
T1
X3.13Y-2.37
X3.13Y-3.85
X3.75Y-5.06
X3.75Y-5.27
X3.75Y-5.49
X3.7594Y-3.3094
X3.79Y-4.64
X3.8Y-3.63
X3.82Y-2.79
X3.83Y-3.53
X3.83Y-4.68
X3.86Y-2.69
X3.86Y-3.15
X3.861Y-4.589
X3.87Y-3.79
X3.89Y-3.11
X3.89Y-3.69
X3.8915Y-3.8915
X3.9155Y-3.0545
X3.9181Y-3.8419
X3.9185Y-3.7385
X3.92Y-4.17
X3.94Y-2.24
X3.94Y-2.49
X3.96Y-2.99
X3.97Y-4.04
X3.98Y-4.45
X3.9808Y-5.0208
X3.99Y-2.27
X3.99Y-2.74
X4.0085Y-3.5015
X4.01Y-4.72
X4.05Y-3.77
X4.0543Y-3.3457
X4.06Y-2.64
X4.0861Y-2.9561
X4.09Y-3.64
X4.12Y-4.51
X4.13Y-2.54
X4.13Y-2.87
X4.13Y-3.13
X4.13Y-3.6
X4.13Y-3.89
X4.14Y-3.26
X4.1585Y-4.3715
X4.17Y-2.74
X4.18Y-3.39
X4.18Y-4.78
X4.1885Y-3.2315
X4.2443Y-5.2043
X4.27Y-5.06
X4.2708Y-4.8208
X4.339Y-4.589
X4.34Y-4.93
X4.36Y-3.19
X4.36Y-4.14
X4.3759Y-4.3341
X4.39Y-3.55
X4.3916Y-3.5984
X4.43Y-3.53
X4.43Y-4.29
X4.44Y-2.82
X4.47Y-3.44
X4.47Y-4.24
X4.47Y-5.06
X4.48Y-3.88
X4.49Y-4.37
X4.4915Y-3.0615
X4.5047Y-4.1953
X4.5057Y-3.3343
X4.5357Y-3.1343
X4.54Y-4.09
X4.58Y-2.93
X4.58Y-3.98
X4.63Y-3.09
X4.63Y-3.93
X4.66Y-2.98
X4.66Y-3.89
X4.67Y-2.36
X4.67Y-2.59
X4.68Y-4.36
X4.685Y-4.765
X4.71Y-2.88
X4.71Y-3.69
X4.71Y-3.78
X4.71Y-3.99
X4.75Y-2.54
X4.755Y-3.565
X4.77Y-3.64
X4.77Y-3.79
X4.78Y-3.49
X4.7985Y-4.3585
X4.84Y-4.19
X4.84Y-5.51
X4.85Y-5.17
X4.87Y-5.31
X4.87Y-5.48
X4.895Y-4.925
X4.9Y-5.11
X4.95Y-4.34
X4.95Y-4.58
X4.96Y-2.74
X4.96Y-4.19
X4.97Y-2.49
X4.97Y-2.69
X5.0Y-4.78
X5.01Y-4.19
X5.01Y-4.94
X5.06Y-4.54
X5.06Y-5.07
X5.0992Y-4.6208
X5.1Y-4.38
X5.11Y-4.78
X5.11Y-4.83
X5.13Y-4.22
X5.13Y-4.34
X5.1892Y-4.7208
X5.19Y-4.43
X5.2043Y-2.9457
X5.2043Y-4.1557
X5.2643Y-2.8457
X5.2643Y-4.3543
X5.3Y-2.49
X5.3Y-2.69
X5.33Y-4.43
X5.41Y-5.31
X5.4284Y-4.0716
X5.4284Y-5.1384
X5.55Y-2.79
X5.55Y-4.19
X5.6016Y-4.0684
X5.62Y-4.43
X5.8Y-3.49
X5.8Y-4.22
X5.87Y-2.69
X5.87Y-3.2
X5.99Y-5.51
X6.01Y-3.35
X6.0357Y-2.6043
X6.04Y-2.24
X6.04Y-2.7
X6.0416Y-2.4484
X6.05Y-3.2
X6.05Y-5.48
X6.19Y-2.25
X6.2Y-3.35
X6.2023Y-2.7523
X6.24Y-3.2
X6.27Y-5.31
X6.3077Y-2.7523
X6.31Y-2.44
X6.3577Y-2.5523
X6.36Y-2.42
X6.4157Y-4.6957
T2
X3.4921Y-2.522
X3.4921Y-2.6205
X3.4921Y-2.7189
X3.4921Y-2.8173
X3.4921Y-2.9157
X3.4921Y-3.0142
X3.4921Y-3.1126
X3.4921Y-3.211
X3.4921Y-3.3094
X3.4921Y-3.4079
X3.4921Y-3.5063
X3.4921Y-3.6047
X3.4921Y-3.7031
X3.4921Y-3.8016
X3.4921Y-3.9
X3.4921Y-3.9984
X3.4921Y-4.0969
X3.4921Y-4.1953
X3.4921Y-4.2937
X3.4921Y-4.3921
X3.4921Y-4.4906
X3.4921Y-4.589
X3.4921Y-4.6874
X3.4921Y-4.7858
X3.4921Y-4.8843
X3.4921Y-4.9827
X3.4921Y-5.0811
X3.4921Y-5.1795
X3.4921Y-5.278
X3.689Y-2.522
X3.689Y-2.6205
X3.689Y-2.7189
X3.689Y-2.8173
X3.689Y-2.9157
X3.689Y-3.0142
X3.689Y-3.1126
X3.689Y-3.211
X3.689Y-3.3094
X3.689Y-3.4079
X3.689Y-3.5063
X3.689Y-3.6047
X3.689Y-3.7031
X3.689Y-3.8016
X3.689Y-3.9
X3.689Y-3.9984
X3.689Y-4.0969
X3.689Y-4.1953
X3.689Y-4.2937
X3.689Y-4.3921
X3.689Y-4.4906
X3.689Y-4.589
X3.689Y-4.6874
X3.689Y-4.7858
X3.689Y-4.8843
X3.689Y-4.9827
X3.689Y-5.0811
X3.689Y-5.1795
X3.689Y-5.278
X3.6916Y-2.43
X3.75Y-5.56
X3.79Y-2.43
X3.8484Y-5.56
X4.24Y-5.49
X4.27Y-2.49
X4.27Y-2.59
X4.27Y-2.69
X4.27Y-2.79
X4.27Y-2.89
X4.27Y-2.99
X4.27Y-3.09
X4.27Y-3.19
X4.27Y-3.29
X4.27Y-3.39
X4.27Y-3.49
X4.27Y-3.59
X4.27Y-3.69
X4.27Y-3.79
X4.27Y-3.89
X4.27Y-3.99
X4.3384Y-5.49
X4.43Y-4.68
X4.43Y-4.78
X4.43Y-4.88
X4.53Y-4.58
X4.53Y-4.68
X4.53Y-4.78
X4.53Y-4.88
X4.53Y-4.98
X4.63Y-4.58
X4.63Y-4.68
X4.63Y-4.88
X4.63Y-4.98
X4.73Y-4.58
X4.73Y-4.68
X4.73Y-4.78
X4.73Y-4.88
X4.73Y-4.98
X4.7916Y-2.36
X4.83Y-4.68
X4.83Y-4.78
X4.83Y-4.88
X4.87Y-2.49
X4.87Y-2.59
X4.87Y-2.69
X4.87Y-2.79
X4.87Y-2.89
X4.87Y-2.99
X4.87Y-3.09
X4.87Y-3.19
X4.87Y-3.29
X4.87Y-3.39
X4.87Y-3.49
X4.87Y-3.59
X4.87Y-3.69
X4.87Y-3.79
X4.87Y-3.89
X4.87Y-3.99
X4.89Y-2.36
X5.09Y-2.69
X5.09Y-2.79
X5.09Y-2.89
X5.09Y-2.99
X5.09Y-3.09
X5.09Y-3.19
X5.09Y-3.29
X5.09Y-3.39
X5.09Y-3.49
X5.09Y-3.59
X5.09Y-3.69
X5.09Y-3.79
X5.09Y-3.89
X5.09Y-3.99
X5.3116Y-5.26
X5.32Y-4.54
X5.32Y-4.64
X5.32Y-4.74
X5.32Y-4.84
X5.32Y-4.94
X5.32Y-5.04
X5.32Y-5.14
X5.33Y-4.31
X5.41Y-5.26
X5.4284Y-4.31
X5.6016Y-2.56
X5.62Y-4.54
X5.62Y-4.64
X5.62Y-4.74
X5.62Y-4.84
X5.62Y-4.94
X5.62Y-5.04
X5.62Y-5.14
X5.69Y-2.69
X5.69Y-2.79
X5.69Y-2.89
X5.69Y-2.99
X5.69Y-3.09
X5.69Y-3.19
X5.69Y-3.29
X5.69Y-3.39
X5.69Y-3.49
X5.69Y-3.59
X5.69Y-3.69
X5.69Y-3.79
X5.69Y-3.89
X5.69Y-3.99
X5.7Y-2.56
X6.2Y-2.35
X6.2Y-2.4484
X6.2Y-2.6
X6.2Y-2.6984
X6.2Y-2.8216
X6.2Y-2.92
X6.2Y-3.0216
X6.2Y-3.12
X6.27Y-4.81
X6.27Y-4.91
X6.27Y-5.01
X6.27Y-5.11
X6.27Y-5.21
T3
X3.209Y-2.45
X3.209Y-2.55
X3.209Y-2.65
X3.209Y-2.75
X3.209Y-2.85
X3.209Y-2.95
X3.209Y-3.05
X3.209Y-3.15
X3.209Y-3.25
X3.209Y-3.35
X3.209Y-3.45
X3.209Y-3.55
X3.209Y-3.65
X3.209Y-3.75
X3.209Y-3.85
X3.209Y-3.95
X3.209Y-4.05
X3.209Y-4.15
X3.209Y-4.25
X3.209Y-4.35
X3.209Y-4.45
X3.209Y-4.55
X3.209Y-4.65
X3.209Y-4.75
X3.209Y-4.85
X3.209Y-4.95
X3.209Y-5.05
X3.209Y-5.15
X3.209Y-5.25
X3.409Y-2.45
X3.409Y-2.55
X3.409Y-2.65
X3.409Y-2.75
X3.409Y-2.85
X3.409Y-2.95
X3.409Y-3.05
X3.409Y-3.15
X3.409Y-3.25
X3.409Y-3.35
X3.409Y-3.45
X3.409Y-3.55
X3.409Y-3.65
X3.409Y-3.75
X3.409Y-3.85
X3.409Y-3.95
X3.409Y-4.05
X3.409Y-4.15
X3.409Y-4.25
X3.409Y-4.35
X3.409Y-4.45
X3.409Y-4.55
X3.409Y-4.65
X3.409Y-4.75
X3.409Y-4.85
X3.409Y-4.95
X3.409Y-5.05
X3.409Y-5.15
X3.409Y-5.25
X6.42Y-4.81
X6.42Y-4.91
X6.42Y-5.01
X6.42Y-5.11
X6.52Y-4.81
X6.52Y-4.91
X6.52Y-5.01
X6.52Y-5.11
T4
X4.47Y-5.53
X4.57Y-5.53
T5
X6.4863Y-2.3523
X6.4863Y-2.5523
X6.4863Y-2.7523
X6.4863Y-2.9523
X6.4863Y-3.1523
X6.4863Y-3.3523
T6
X3.109Y-2.15
X3.109Y-5.65
X3.1969Y-2.276
X3.1969Y-5.524
T0
M30
