%FSLAX45Y45*%
G04 Gerber Fmt 4.5, Leading zero omitted, Abs format (unit mm)*
G04 Created by KiCad (PCBNEW (5.1.10)-1) date 2024-12-04 14:34:58*
%MOMM*%
%LPD*%
G01*
G04 APERTURE LIST*
%TA.AperFunction,Profile*%
%ADD10C,0.050000*%
%TD*%
%ADD11C,0.200000*%
%ADD12C,0.300000*%
G04 APERTURE END LIST*
D10*
X7620000Y-14986000D02*
X7620000Y-5080000D01*
X17526000Y-5080000D02*
X17526000Y-14986000D01*
X7620000Y-5080000D02*
X17526000Y-5080000D01*
X7620000Y-14986000D02*
X17526000Y-14986000D01*
D11*
D12*
X7903928Y-15454214D02*
X7903928Y-15154214D01*
X7975357Y-15154214D01*
X8018214Y-15168500D01*
X8046786Y-15197071D01*
X8061071Y-15225643D01*
X8075357Y-15282786D01*
X8075357Y-15325643D01*
X8061071Y-15382786D01*
X8046786Y-15411357D01*
X8018214Y-15439929D01*
X7975357Y-15454214D01*
X7903928Y-15454214D01*
X8203928Y-15454214D02*
X8203928Y-15254214D01*
X8203928Y-15311357D02*
X8218214Y-15282786D01*
X8232500Y-15268500D01*
X8261071Y-15254214D01*
X8289643Y-15254214D01*
X8389643Y-15454214D02*
X8389643Y-15254214D01*
X8389643Y-15154214D02*
X8375357Y-15168500D01*
X8389643Y-15182786D01*
X8403928Y-15168500D01*
X8389643Y-15154214D01*
X8389643Y-15182786D01*
X8575357Y-15454214D02*
X8546786Y-15439929D01*
X8532500Y-15411357D01*
X8532500Y-15154214D01*
X8732500Y-15454214D02*
X8703928Y-15439929D01*
X8689643Y-15411357D01*
X8689643Y-15154214D01*
X9075357Y-15454214D02*
X9075357Y-15154214D01*
X9175357Y-15368500D01*
X9275357Y-15154214D01*
X9275357Y-15454214D01*
X9546786Y-15454214D02*
X9546786Y-15297071D01*
X9532500Y-15268500D01*
X9503928Y-15254214D01*
X9446786Y-15254214D01*
X9418214Y-15268500D01*
X9546786Y-15439929D02*
X9518214Y-15454214D01*
X9446786Y-15454214D01*
X9418214Y-15439929D01*
X9403928Y-15411357D01*
X9403928Y-15382786D01*
X9418214Y-15354214D01*
X9446786Y-15339929D01*
X9518214Y-15339929D01*
X9546786Y-15325643D01*
X9689643Y-15254214D02*
X9689643Y-15554214D01*
X9689643Y-15268500D02*
X9718214Y-15254214D01*
X9775357Y-15254214D01*
X9803928Y-15268500D01*
X9818214Y-15282786D01*
X9832500Y-15311357D01*
X9832500Y-15397071D01*
X9818214Y-15425643D01*
X9803928Y-15439929D01*
X9775357Y-15454214D01*
X9718214Y-15454214D01*
X9689643Y-15439929D01*
X9961071Y-15425643D02*
X9975357Y-15439929D01*
X9961071Y-15454214D01*
X9946786Y-15439929D01*
X9961071Y-15425643D01*
X9961071Y-15454214D01*
X9961071Y-15268500D02*
X9975357Y-15282786D01*
X9961071Y-15297071D01*
X9946786Y-15282786D01*
X9961071Y-15268500D01*
X9961071Y-15297071D01*
M02*
