%TF.GenerationSoftware,KiCad,Pcbnew,(5.1.10)-1*%
%TF.CreationDate,2024-12-04T14:35:01+01:00*%
%TF.ProjectId,BasicROM,42617369-6352-44f4-9d2e-6b696361645f,rev?*%
%TF.SameCoordinates,Original*%
%TF.FileFunction,Other,Fab,Top*%
%FSLAX46Y46*%
G04 Gerber Fmt 4.6, Leading zero omitted, Abs format (unit mm)*
G04 Created by KiCad (PCBNEW (5.1.10)-1) date 2024-12-04 14:35:01*
%MOMM*%
%LPD*%
G01*
G04 APERTURE LIST*
%ADD10C,0.100000*%
%ADD11C,0.150000*%
%ADD12C,0.090000*%
G04 APERTURE END LIST*
D10*
%TO.C,U4*%
X136763000Y-114046000D02*
X142113000Y-114046000D01*
X142113000Y-114046000D02*
X142113000Y-131826000D01*
X142113000Y-131826000D02*
X135763000Y-131826000D01*
X135763000Y-131826000D02*
X135763000Y-115046000D01*
X135763000Y-115046000D02*
X136763000Y-114046000D01*
%TO.C,C7*%
X137664000Y-134604000D02*
X137664000Y-132604000D01*
X137664000Y-132604000D02*
X134664000Y-132604000D01*
X134664000Y-132604000D02*
X134664000Y-134604000D01*
X134664000Y-134604000D02*
X137664000Y-134604000D01*
%TO.C,C5*%
X156480000Y-74418000D02*
X158480000Y-74418000D01*
X158480000Y-74418000D02*
X158480000Y-71418000D01*
X158480000Y-71418000D02*
X156480000Y-71418000D01*
X156480000Y-71418000D02*
X156480000Y-74418000D01*
%TO.C,J2*%
X164251000Y-85148000D02*
X162751000Y-86098000D01*
X162751000Y-84198000D02*
X164251000Y-85148000D01*
X162751000Y-56208000D02*
X162751000Y-88688000D01*
X174751000Y-56208000D02*
X162751000Y-56208000D01*
X174751000Y-88688000D02*
X174751000Y-56208000D01*
X162751000Y-88688000D02*
X174751000Y-88688000D01*
%TO.C,C11*%
X156480000Y-76498000D02*
X156480000Y-79498000D01*
X158480000Y-76498000D02*
X156480000Y-76498000D01*
X158480000Y-79498000D02*
X158480000Y-76498000D01*
X156480000Y-79498000D02*
X158480000Y-79498000D01*
%TO.C,C10*%
X158480000Y-68790000D02*
X158480000Y-65790000D01*
X156480000Y-68790000D02*
X158480000Y-68790000D01*
X156480000Y-65790000D02*
X156480000Y-68790000D01*
X158480000Y-65790000D02*
X156480000Y-65790000D01*
%TO.C,C9*%
X158480000Y-62440000D02*
X158480000Y-59440000D01*
X156480000Y-62440000D02*
X158480000Y-62440000D01*
X156480000Y-59440000D02*
X156480000Y-62440000D01*
X158480000Y-59440000D02*
X156480000Y-59440000D01*
%TO.C,U1*%
X117602000Y-114662000D02*
X118102000Y-113662000D01*
X117102000Y-113662000D02*
X117602000Y-114662000D01*
X122812000Y-116202000D02*
X112392000Y-116202000D01*
X122812000Y-126622000D02*
X122812000Y-116202000D01*
X112392000Y-126622000D02*
X122812000Y-126622000D01*
X112392000Y-116202000D02*
X112392000Y-126622000D01*
X125352000Y-113662000D02*
X110852000Y-113662000D01*
X125352000Y-129162000D02*
X125352000Y-113662000D01*
X109852000Y-129162000D02*
X125352000Y-129162000D01*
X109852000Y-114662000D02*
X109852000Y-129162000D01*
X110852000Y-113662000D02*
X109852000Y-114662000D01*
%TO.C,C3*%
X145030000Y-66024000D02*
X145030000Y-64024000D01*
X145030000Y-64024000D02*
X142030000Y-64024000D01*
X142030000Y-64024000D02*
X142030000Y-66024000D01*
X142030000Y-66024000D02*
X145030000Y-66024000D01*
%TO.C,U3*%
X109713000Y-61976000D02*
X123443000Y-61976000D01*
X123443000Y-61976000D02*
X123443000Y-102616000D01*
X123443000Y-102616000D02*
X108713000Y-102616000D01*
X108713000Y-102616000D02*
X108713000Y-62976000D01*
X108713000Y-62976000D02*
X109713000Y-61976000D01*
%TO.C,U2*%
X130541000Y-67056000D02*
X144271000Y-67056000D01*
X144271000Y-67056000D02*
X144271000Y-102616000D01*
X144271000Y-102616000D02*
X129541000Y-102616000D01*
X129541000Y-102616000D02*
X129541000Y-68056000D01*
X129541000Y-68056000D02*
X130541000Y-67056000D01*
%TO.C,RN1*%
X158008000Y-133624000D02*
X160508000Y-133624000D01*
X160508000Y-133624000D02*
X160508000Y-120884000D01*
X160508000Y-120884000D02*
X158008000Y-120884000D01*
X158008000Y-120884000D02*
X158008000Y-133624000D01*
X158008000Y-131064000D02*
X160508000Y-131064000D01*
%TO.C,J1*%
X163068000Y-120904000D02*
X166878000Y-120904000D01*
X166878000Y-120904000D02*
X166878000Y-131064000D01*
X166878000Y-131064000D02*
X161798000Y-131064000D01*
X161798000Y-131064000D02*
X161798000Y-122174000D01*
X161798000Y-122174000D02*
X163068000Y-120904000D01*
%TO.C,D2*%
X117878000Y-140462000D02*
G75*
G03*
X117878000Y-140462000I-1800000J0D01*
G01*
X116078000Y-140462000D02*
X113538000Y-140462000D01*
%TO.C,C8*%
X107446000Y-138446000D02*
X107446000Y-140446000D01*
X107446000Y-140446000D02*
X110446000Y-140446000D01*
X110446000Y-140446000D02*
X110446000Y-138446000D01*
X110446000Y-138446000D02*
X107446000Y-138446000D01*
%TO.C,C6*%
X100500000Y-141224000D02*
G75*
G03*
X100500000Y-141224000I-4000000J0D01*
G01*
X93073241Y-139476500D02*
X93873241Y-139476500D01*
X93473241Y-139076500D02*
X93473241Y-139876500D01*
%TO.C,C4*%
X124456000Y-60944000D02*
X124456000Y-58944000D01*
X124456000Y-58944000D02*
X121456000Y-58944000D01*
X121456000Y-58944000D02*
X121456000Y-60944000D01*
X121456000Y-60944000D02*
X124456000Y-60944000D01*
%TO.C,C2*%
X96516000Y-62722000D02*
X96516000Y-60722000D01*
X96516000Y-60722000D02*
X93516000Y-60722000D01*
X93516000Y-60722000D02*
X93516000Y-62722000D01*
X93516000Y-62722000D02*
X96516000Y-62722000D01*
%TO.C,C1*%
X135132000Y-108474000D02*
X135132000Y-110474000D01*
X135132000Y-110474000D02*
X138132000Y-110474000D01*
X138132000Y-110474000D02*
X138132000Y-108474000D01*
X138132000Y-108474000D02*
X135132000Y-108474000D01*
%TD*%
%TO.C,U4*%
D11*
X136295142Y-132338380D02*
X136961809Y-132338380D01*
X136533238Y-133338380D01*
X137771333Y-132671714D02*
X137771333Y-133338380D01*
X137533238Y-132290761D02*
X137295142Y-133005047D01*
X137914190Y-133005047D01*
X138771333Y-133338380D02*
X138295142Y-133338380D01*
X138295142Y-132338380D01*
X139057047Y-133290761D02*
X139199904Y-133338380D01*
X139438000Y-133338380D01*
X139533238Y-133290761D01*
X139580857Y-133243142D01*
X139628476Y-133147904D01*
X139628476Y-133052666D01*
X139580857Y-132957428D01*
X139533238Y-132909809D01*
X139438000Y-132862190D01*
X139247523Y-132814571D01*
X139152285Y-132766952D01*
X139104666Y-132719333D01*
X139057047Y-132624095D01*
X139057047Y-132528857D01*
X139104666Y-132433619D01*
X139152285Y-132386000D01*
X139247523Y-132338380D01*
X139485619Y-132338380D01*
X139628476Y-132386000D01*
X140247523Y-132338380D02*
X140342761Y-132338380D01*
X140438000Y-132386000D01*
X140485619Y-132433619D01*
X140533238Y-132528857D01*
X140580857Y-132719333D01*
X140580857Y-132957428D01*
X140533238Y-133147904D01*
X140485619Y-133243142D01*
X140438000Y-133290761D01*
X140342761Y-133338380D01*
X140247523Y-133338380D01*
X140152285Y-133290761D01*
X140104666Y-133243142D01*
X140057047Y-133147904D01*
X140009428Y-132957428D01*
X140009428Y-132719333D01*
X140057047Y-132528857D01*
X140104666Y-132433619D01*
X140152285Y-132386000D01*
X140247523Y-132338380D01*
X141199904Y-132338380D02*
X141295142Y-132338380D01*
X141390380Y-132386000D01*
X141438000Y-132433619D01*
X141485619Y-132528857D01*
X141533238Y-132719333D01*
X141533238Y-132957428D01*
X141485619Y-133147904D01*
X141438000Y-133243142D01*
X141390380Y-133290761D01*
X141295142Y-133338380D01*
X141199904Y-133338380D01*
X141104666Y-133290761D01*
X141057047Y-133243142D01*
X141009428Y-133147904D01*
X140961809Y-132957428D01*
X140961809Y-132719333D01*
X141009428Y-132528857D01*
X141057047Y-132433619D01*
X141104666Y-132386000D01*
X141199904Y-132338380D01*
X138176095Y-122388380D02*
X138176095Y-123197904D01*
X138223714Y-123293142D01*
X138271333Y-123340761D01*
X138366571Y-123388380D01*
X138557047Y-123388380D01*
X138652285Y-123340761D01*
X138699904Y-123293142D01*
X138747523Y-123197904D01*
X138747523Y-122388380D01*
X139652285Y-122721714D02*
X139652285Y-123388380D01*
X139414190Y-122340761D02*
X139176095Y-123055047D01*
X139795142Y-123055047D01*
%TO.C,C7*%
X134616380Y-131806380D02*
X134044952Y-131806380D01*
X134330666Y-131806380D02*
X134330666Y-130806380D01*
X134235428Y-130949238D01*
X134140190Y-131044476D01*
X134044952Y-131092095D01*
X135235428Y-130806380D02*
X135330666Y-130806380D01*
X135425904Y-130854000D01*
X135473523Y-130901619D01*
X135521142Y-130996857D01*
X135568761Y-131187333D01*
X135568761Y-131425428D01*
X135521142Y-131615904D01*
X135473523Y-131711142D01*
X135425904Y-131758761D01*
X135330666Y-131806380D01*
X135235428Y-131806380D01*
X135140190Y-131758761D01*
X135092571Y-131711142D01*
X135044952Y-131615904D01*
X134997333Y-131425428D01*
X134997333Y-131187333D01*
X135044952Y-130996857D01*
X135092571Y-130901619D01*
X135140190Y-130854000D01*
X135235428Y-130806380D01*
X136187809Y-130806380D02*
X136283047Y-130806380D01*
X136378285Y-130854000D01*
X136425904Y-130901619D01*
X136473523Y-130996857D01*
X136521142Y-131187333D01*
X136521142Y-131425428D01*
X136473523Y-131615904D01*
X136425904Y-131711142D01*
X136378285Y-131758761D01*
X136283047Y-131806380D01*
X136187809Y-131806380D01*
X136092571Y-131758761D01*
X136044952Y-131711142D01*
X135997333Y-131615904D01*
X135949714Y-131425428D01*
X135949714Y-131187333D01*
X135997333Y-130996857D01*
X136044952Y-130901619D01*
X136092571Y-130854000D01*
X136187809Y-130806380D01*
X136949714Y-131139714D02*
X136949714Y-131806380D01*
X136949714Y-131234952D02*
X136997333Y-131187333D01*
X137092571Y-131139714D01*
X137235428Y-131139714D01*
X137330666Y-131187333D01*
X137378285Y-131282571D01*
X137378285Y-131806380D01*
X138187809Y-131282571D02*
X137854476Y-131282571D01*
X137854476Y-131806380D02*
X137854476Y-130806380D01*
X138330666Y-130806380D01*
D12*
X136064000Y-133818285D02*
X136035428Y-133846857D01*
X135949714Y-133875428D01*
X135892571Y-133875428D01*
X135806857Y-133846857D01*
X135749714Y-133789714D01*
X135721142Y-133732571D01*
X135692571Y-133618285D01*
X135692571Y-133532571D01*
X135721142Y-133418285D01*
X135749714Y-133361142D01*
X135806857Y-133304000D01*
X135892571Y-133275428D01*
X135949714Y-133275428D01*
X136035428Y-133304000D01*
X136064000Y-133332571D01*
X136264000Y-133275428D02*
X136664000Y-133275428D01*
X136406857Y-133875428D01*
%TO.C,C5*%
D11*
X160182380Y-74465619D02*
X160182380Y-75037047D01*
X160182380Y-74751333D02*
X159182380Y-74751333D01*
X159325238Y-74846571D01*
X159420476Y-74941809D01*
X159468095Y-75037047D01*
X159182380Y-73846571D02*
X159182380Y-73751333D01*
X159230000Y-73656095D01*
X159277619Y-73608476D01*
X159372857Y-73560857D01*
X159563333Y-73513238D01*
X159801428Y-73513238D01*
X159991904Y-73560857D01*
X160087142Y-73608476D01*
X160134761Y-73656095D01*
X160182380Y-73751333D01*
X160182380Y-73846571D01*
X160134761Y-73941809D01*
X160087142Y-73989428D01*
X159991904Y-74037047D01*
X159801428Y-74084666D01*
X159563333Y-74084666D01*
X159372857Y-74037047D01*
X159277619Y-73989428D01*
X159230000Y-73941809D01*
X159182380Y-73846571D01*
X159182380Y-72894190D02*
X159182380Y-72798952D01*
X159230000Y-72703714D01*
X159277619Y-72656095D01*
X159372857Y-72608476D01*
X159563333Y-72560857D01*
X159801428Y-72560857D01*
X159991904Y-72608476D01*
X160087142Y-72656095D01*
X160134761Y-72703714D01*
X160182380Y-72798952D01*
X160182380Y-72894190D01*
X160134761Y-72989428D01*
X160087142Y-73037047D01*
X159991904Y-73084666D01*
X159801428Y-73132285D01*
X159563333Y-73132285D01*
X159372857Y-73084666D01*
X159277619Y-73037047D01*
X159230000Y-72989428D01*
X159182380Y-72894190D01*
X159515714Y-72132285D02*
X160182380Y-72132285D01*
X159610952Y-72132285D02*
X159563333Y-72084666D01*
X159515714Y-71989428D01*
X159515714Y-71846571D01*
X159563333Y-71751333D01*
X159658571Y-71703714D01*
X160182380Y-71703714D01*
X159658571Y-70894190D02*
X159658571Y-71227523D01*
X160182380Y-71227523D02*
X159182380Y-71227523D01*
X159182380Y-70751333D01*
D12*
X157694285Y-73018000D02*
X157722857Y-73046571D01*
X157751428Y-73132285D01*
X157751428Y-73189428D01*
X157722857Y-73275142D01*
X157665714Y-73332285D01*
X157608571Y-73360857D01*
X157494285Y-73389428D01*
X157408571Y-73389428D01*
X157294285Y-73360857D01*
X157237142Y-73332285D01*
X157180000Y-73275142D01*
X157151428Y-73189428D01*
X157151428Y-73132285D01*
X157180000Y-73046571D01*
X157208571Y-73018000D01*
X157151428Y-72475142D02*
X157151428Y-72760857D01*
X157437142Y-72789428D01*
X157408571Y-72760857D01*
X157380000Y-72703714D01*
X157380000Y-72560857D01*
X157408571Y-72503714D01*
X157437142Y-72475142D01*
X157494285Y-72446571D01*
X157637142Y-72446571D01*
X157694285Y-72475142D01*
X157722857Y-72503714D01*
X157751428Y-72560857D01*
X157751428Y-72703714D01*
X157722857Y-72760857D01*
X157694285Y-72789428D01*
%TO.C,J2*%
D11*
X176308142Y-76186095D02*
X176355761Y-76233714D01*
X176403380Y-76376571D01*
X176403380Y-76471809D01*
X176355761Y-76614666D01*
X176260523Y-76709904D01*
X176165285Y-76757523D01*
X175974809Y-76805142D01*
X175831952Y-76805142D01*
X175641476Y-76757523D01*
X175546238Y-76709904D01*
X175451000Y-76614666D01*
X175403380Y-76471809D01*
X175403380Y-76376571D01*
X175451000Y-76233714D01*
X175498619Y-76186095D01*
X176403380Y-75614666D02*
X176355761Y-75709904D01*
X176308142Y-75757523D01*
X176212904Y-75805142D01*
X175927190Y-75805142D01*
X175831952Y-75757523D01*
X175784333Y-75709904D01*
X175736714Y-75614666D01*
X175736714Y-75471809D01*
X175784333Y-75376571D01*
X175831952Y-75328952D01*
X175927190Y-75281333D01*
X176212904Y-75281333D01*
X176308142Y-75328952D01*
X176355761Y-75376571D01*
X176403380Y-75471809D01*
X176403380Y-75614666D01*
X175736714Y-74852761D02*
X176403380Y-74852761D01*
X175831952Y-74852761D02*
X175784333Y-74805142D01*
X175736714Y-74709904D01*
X175736714Y-74567047D01*
X175784333Y-74471809D01*
X175879571Y-74424190D01*
X176403380Y-74424190D01*
X175736714Y-73948000D02*
X176403380Y-73948000D01*
X175831952Y-73948000D02*
X175784333Y-73900380D01*
X175736714Y-73805142D01*
X175736714Y-73662285D01*
X175784333Y-73567047D01*
X175879571Y-73519428D01*
X176403380Y-73519428D01*
X176498619Y-73281333D02*
X176498619Y-72519428D01*
X175403380Y-72090857D02*
X175403380Y-71995619D01*
X175451000Y-71900380D01*
X175498619Y-71852761D01*
X175593857Y-71805142D01*
X175784333Y-71757523D01*
X176022428Y-71757523D01*
X176212904Y-71805142D01*
X176308142Y-71852761D01*
X176355761Y-71900380D01*
X176403380Y-71995619D01*
X176403380Y-72090857D01*
X176355761Y-72186095D01*
X176308142Y-72233714D01*
X176212904Y-72281333D01*
X176022428Y-72328952D01*
X175784333Y-72328952D01*
X175593857Y-72281333D01*
X175498619Y-72233714D01*
X175451000Y-72186095D01*
X175403380Y-72090857D01*
X176403380Y-70805142D02*
X176403380Y-71376571D01*
X176403380Y-71090857D02*
X175403380Y-71090857D01*
X175546238Y-71186095D01*
X175641476Y-71281333D01*
X175689095Y-71376571D01*
X176403380Y-70471809D02*
X175736714Y-69948000D01*
X175736714Y-70471809D02*
X176403380Y-69948000D01*
X175403380Y-69376571D02*
X175403380Y-69281333D01*
X175451000Y-69186095D01*
X175498619Y-69138476D01*
X175593857Y-69090857D01*
X175784333Y-69043238D01*
X176022428Y-69043238D01*
X176212904Y-69090857D01*
X176308142Y-69138476D01*
X176355761Y-69186095D01*
X176403380Y-69281333D01*
X176403380Y-69376571D01*
X176355761Y-69471809D01*
X176308142Y-69519428D01*
X176212904Y-69567047D01*
X176022428Y-69614666D01*
X175784333Y-69614666D01*
X175593857Y-69567047D01*
X175498619Y-69519428D01*
X175451000Y-69471809D01*
X175403380Y-69376571D01*
X175403380Y-68186095D02*
X175403380Y-68376571D01*
X175451000Y-68471809D01*
X175498619Y-68519428D01*
X175641476Y-68614666D01*
X175831952Y-68662285D01*
X176212904Y-68662285D01*
X176308142Y-68614666D01*
X176355761Y-68567047D01*
X176403380Y-68471809D01*
X176403380Y-68281333D01*
X176355761Y-68186095D01*
X176308142Y-68138476D01*
X176212904Y-68090857D01*
X175974809Y-68090857D01*
X175879571Y-68138476D01*
X175831952Y-68186095D01*
X175784333Y-68281333D01*
X175784333Y-68471809D01*
X175831952Y-68567047D01*
X175879571Y-68614666D01*
X175974809Y-68662285D01*
X162903380Y-72781333D02*
X163617666Y-72781333D01*
X163760523Y-72828952D01*
X163855761Y-72924190D01*
X163903380Y-73067047D01*
X163903380Y-73162285D01*
X162998619Y-72352761D02*
X162951000Y-72305142D01*
X162903380Y-72209904D01*
X162903380Y-71971809D01*
X162951000Y-71876571D01*
X162998619Y-71828952D01*
X163093857Y-71781333D01*
X163189095Y-71781333D01*
X163331952Y-71828952D01*
X163903380Y-72400380D01*
X163903380Y-71781333D01*
%TO.C,C11*%
X160182380Y-79545619D02*
X160182380Y-80117047D01*
X160182380Y-79831333D02*
X159182380Y-79831333D01*
X159325238Y-79926571D01*
X159420476Y-80021809D01*
X159468095Y-80117047D01*
X159182380Y-78926571D02*
X159182380Y-78831333D01*
X159230000Y-78736095D01*
X159277619Y-78688476D01*
X159372857Y-78640857D01*
X159563333Y-78593238D01*
X159801428Y-78593238D01*
X159991904Y-78640857D01*
X160087142Y-78688476D01*
X160134761Y-78736095D01*
X160182380Y-78831333D01*
X160182380Y-78926571D01*
X160134761Y-79021809D01*
X160087142Y-79069428D01*
X159991904Y-79117047D01*
X159801428Y-79164666D01*
X159563333Y-79164666D01*
X159372857Y-79117047D01*
X159277619Y-79069428D01*
X159230000Y-79021809D01*
X159182380Y-78926571D01*
X159182380Y-77974190D02*
X159182380Y-77878952D01*
X159230000Y-77783714D01*
X159277619Y-77736095D01*
X159372857Y-77688476D01*
X159563333Y-77640857D01*
X159801428Y-77640857D01*
X159991904Y-77688476D01*
X160087142Y-77736095D01*
X160134761Y-77783714D01*
X160182380Y-77878952D01*
X160182380Y-77974190D01*
X160134761Y-78069428D01*
X160087142Y-78117047D01*
X159991904Y-78164666D01*
X159801428Y-78212285D01*
X159563333Y-78212285D01*
X159372857Y-78164666D01*
X159277619Y-78117047D01*
X159230000Y-78069428D01*
X159182380Y-77974190D01*
X159515714Y-77212285D02*
X160182380Y-77212285D01*
X159610952Y-77212285D02*
X159563333Y-77164666D01*
X159515714Y-77069428D01*
X159515714Y-76926571D01*
X159563333Y-76831333D01*
X159658571Y-76783714D01*
X160182380Y-76783714D01*
X159658571Y-75974190D02*
X159658571Y-76307523D01*
X160182380Y-76307523D02*
X159182380Y-76307523D01*
X159182380Y-75831333D01*
D12*
X157694285Y-78383714D02*
X157722857Y-78412285D01*
X157751428Y-78498000D01*
X157751428Y-78555142D01*
X157722857Y-78640857D01*
X157665714Y-78698000D01*
X157608571Y-78726571D01*
X157494285Y-78755142D01*
X157408571Y-78755142D01*
X157294285Y-78726571D01*
X157237142Y-78698000D01*
X157180000Y-78640857D01*
X157151428Y-78555142D01*
X157151428Y-78498000D01*
X157180000Y-78412285D01*
X157208571Y-78383714D01*
X157751428Y-77812285D02*
X157751428Y-78155142D01*
X157751428Y-77983714D02*
X157151428Y-77983714D01*
X157237142Y-78040857D01*
X157294285Y-78098000D01*
X157322857Y-78155142D01*
X157751428Y-77240857D02*
X157751428Y-77583714D01*
X157751428Y-77412285D02*
X157151428Y-77412285D01*
X157237142Y-77469428D01*
X157294285Y-77526571D01*
X157322857Y-77583714D01*
%TO.C,C10*%
D11*
X155682380Y-68837619D02*
X155682380Y-69409047D01*
X155682380Y-69123333D02*
X154682380Y-69123333D01*
X154825238Y-69218571D01*
X154920476Y-69313809D01*
X154968095Y-69409047D01*
X154682380Y-68218571D02*
X154682380Y-68123333D01*
X154730000Y-68028095D01*
X154777619Y-67980476D01*
X154872857Y-67932857D01*
X155063333Y-67885238D01*
X155301428Y-67885238D01*
X155491904Y-67932857D01*
X155587142Y-67980476D01*
X155634761Y-68028095D01*
X155682380Y-68123333D01*
X155682380Y-68218571D01*
X155634761Y-68313809D01*
X155587142Y-68361428D01*
X155491904Y-68409047D01*
X155301428Y-68456666D01*
X155063333Y-68456666D01*
X154872857Y-68409047D01*
X154777619Y-68361428D01*
X154730000Y-68313809D01*
X154682380Y-68218571D01*
X154682380Y-67266190D02*
X154682380Y-67170952D01*
X154730000Y-67075714D01*
X154777619Y-67028095D01*
X154872857Y-66980476D01*
X155063333Y-66932857D01*
X155301428Y-66932857D01*
X155491904Y-66980476D01*
X155587142Y-67028095D01*
X155634761Y-67075714D01*
X155682380Y-67170952D01*
X155682380Y-67266190D01*
X155634761Y-67361428D01*
X155587142Y-67409047D01*
X155491904Y-67456666D01*
X155301428Y-67504285D01*
X155063333Y-67504285D01*
X154872857Y-67456666D01*
X154777619Y-67409047D01*
X154730000Y-67361428D01*
X154682380Y-67266190D01*
X155015714Y-66504285D02*
X155682380Y-66504285D01*
X155110952Y-66504285D02*
X155063333Y-66456666D01*
X155015714Y-66361428D01*
X155015714Y-66218571D01*
X155063333Y-66123333D01*
X155158571Y-66075714D01*
X155682380Y-66075714D01*
X155158571Y-65266190D02*
X155158571Y-65599523D01*
X155682380Y-65599523D02*
X154682380Y-65599523D01*
X154682380Y-65123333D01*
D12*
X157694285Y-67675714D02*
X157722857Y-67704285D01*
X157751428Y-67790000D01*
X157751428Y-67847142D01*
X157722857Y-67932857D01*
X157665714Y-67990000D01*
X157608571Y-68018571D01*
X157494285Y-68047142D01*
X157408571Y-68047142D01*
X157294285Y-68018571D01*
X157237142Y-67990000D01*
X157180000Y-67932857D01*
X157151428Y-67847142D01*
X157151428Y-67790000D01*
X157180000Y-67704285D01*
X157208571Y-67675714D01*
X157751428Y-67104285D02*
X157751428Y-67447142D01*
X157751428Y-67275714D02*
X157151428Y-67275714D01*
X157237142Y-67332857D01*
X157294285Y-67390000D01*
X157322857Y-67447142D01*
X157151428Y-66732857D02*
X157151428Y-66675714D01*
X157180000Y-66618571D01*
X157208571Y-66590000D01*
X157265714Y-66561428D01*
X157380000Y-66532857D01*
X157522857Y-66532857D01*
X157637142Y-66561428D01*
X157694285Y-66590000D01*
X157722857Y-66618571D01*
X157751428Y-66675714D01*
X157751428Y-66732857D01*
X157722857Y-66790000D01*
X157694285Y-66818571D01*
X157637142Y-66847142D01*
X157522857Y-66875714D01*
X157380000Y-66875714D01*
X157265714Y-66847142D01*
X157208571Y-66818571D01*
X157180000Y-66790000D01*
X157151428Y-66732857D01*
%TO.C,C9*%
D11*
X155682380Y-62487619D02*
X155682380Y-63059047D01*
X155682380Y-62773333D02*
X154682380Y-62773333D01*
X154825238Y-62868571D01*
X154920476Y-62963809D01*
X154968095Y-63059047D01*
X154682380Y-61868571D02*
X154682380Y-61773333D01*
X154730000Y-61678095D01*
X154777619Y-61630476D01*
X154872857Y-61582857D01*
X155063333Y-61535238D01*
X155301428Y-61535238D01*
X155491904Y-61582857D01*
X155587142Y-61630476D01*
X155634761Y-61678095D01*
X155682380Y-61773333D01*
X155682380Y-61868571D01*
X155634761Y-61963809D01*
X155587142Y-62011428D01*
X155491904Y-62059047D01*
X155301428Y-62106666D01*
X155063333Y-62106666D01*
X154872857Y-62059047D01*
X154777619Y-62011428D01*
X154730000Y-61963809D01*
X154682380Y-61868571D01*
X154682380Y-60916190D02*
X154682380Y-60820952D01*
X154730000Y-60725714D01*
X154777619Y-60678095D01*
X154872857Y-60630476D01*
X155063333Y-60582857D01*
X155301428Y-60582857D01*
X155491904Y-60630476D01*
X155587142Y-60678095D01*
X155634761Y-60725714D01*
X155682380Y-60820952D01*
X155682380Y-60916190D01*
X155634761Y-61011428D01*
X155587142Y-61059047D01*
X155491904Y-61106666D01*
X155301428Y-61154285D01*
X155063333Y-61154285D01*
X154872857Y-61106666D01*
X154777619Y-61059047D01*
X154730000Y-61011428D01*
X154682380Y-60916190D01*
X155015714Y-60154285D02*
X155682380Y-60154285D01*
X155110952Y-60154285D02*
X155063333Y-60106666D01*
X155015714Y-60011428D01*
X155015714Y-59868571D01*
X155063333Y-59773333D01*
X155158571Y-59725714D01*
X155682380Y-59725714D01*
X155158571Y-58916190D02*
X155158571Y-59249523D01*
X155682380Y-59249523D02*
X154682380Y-59249523D01*
X154682380Y-58773333D01*
D12*
X157694285Y-61040000D02*
X157722857Y-61068571D01*
X157751428Y-61154285D01*
X157751428Y-61211428D01*
X157722857Y-61297142D01*
X157665714Y-61354285D01*
X157608571Y-61382857D01*
X157494285Y-61411428D01*
X157408571Y-61411428D01*
X157294285Y-61382857D01*
X157237142Y-61354285D01*
X157180000Y-61297142D01*
X157151428Y-61211428D01*
X157151428Y-61154285D01*
X157180000Y-61068571D01*
X157208571Y-61040000D01*
X157751428Y-60754285D02*
X157751428Y-60640000D01*
X157722857Y-60582857D01*
X157694285Y-60554285D01*
X157608571Y-60497142D01*
X157494285Y-60468571D01*
X157265714Y-60468571D01*
X157208571Y-60497142D01*
X157180000Y-60525714D01*
X157151428Y-60582857D01*
X157151428Y-60697142D01*
X157180000Y-60754285D01*
X157208571Y-60782857D01*
X157265714Y-60811428D01*
X157408571Y-60811428D01*
X157465714Y-60782857D01*
X157494285Y-60754285D01*
X157522857Y-60697142D01*
X157522857Y-60582857D01*
X157494285Y-60525714D01*
X157465714Y-60497142D01*
X157408571Y-60468571D01*
%TO.C,U1*%
D11*
X115173428Y-129662000D02*
X115078190Y-129614380D01*
X114935333Y-129614380D01*
X114792476Y-129662000D01*
X114697238Y-129757238D01*
X114649619Y-129852476D01*
X114602000Y-130042952D01*
X114602000Y-130185809D01*
X114649619Y-130376285D01*
X114697238Y-130471523D01*
X114792476Y-130566761D01*
X114935333Y-130614380D01*
X115030571Y-130614380D01*
X115173428Y-130566761D01*
X115221047Y-130519142D01*
X115221047Y-130185809D01*
X115030571Y-130185809D01*
X115602000Y-130328666D02*
X116078190Y-130328666D01*
X115506761Y-130614380D02*
X115840095Y-129614380D01*
X116173428Y-130614380D01*
X116982952Y-130614380D02*
X116506761Y-130614380D01*
X116506761Y-129614380D01*
X117840095Y-130614380D02*
X117268666Y-130614380D01*
X117554380Y-130614380D02*
X117554380Y-129614380D01*
X117459142Y-129757238D01*
X117363904Y-129852476D01*
X117268666Y-129900095D01*
X118697238Y-129614380D02*
X118506761Y-129614380D01*
X118411523Y-129662000D01*
X118363904Y-129709619D01*
X118268666Y-129852476D01*
X118221047Y-130042952D01*
X118221047Y-130423904D01*
X118268666Y-130519142D01*
X118316285Y-130566761D01*
X118411523Y-130614380D01*
X118602000Y-130614380D01*
X118697238Y-130566761D01*
X118744857Y-130519142D01*
X118792476Y-130423904D01*
X118792476Y-130185809D01*
X118744857Y-130090571D01*
X118697238Y-130042952D01*
X118602000Y-129995333D01*
X118411523Y-129995333D01*
X118316285Y-130042952D01*
X118268666Y-130090571D01*
X118221047Y-130185809D01*
X119078190Y-129614380D02*
X119411523Y-130614380D01*
X119744857Y-129614380D01*
X120221047Y-130042952D02*
X120125809Y-129995333D01*
X120078190Y-129947714D01*
X120030571Y-129852476D01*
X120030571Y-129804857D01*
X120078190Y-129709619D01*
X120125809Y-129662000D01*
X120221047Y-129614380D01*
X120411523Y-129614380D01*
X120506761Y-129662000D01*
X120554380Y-129709619D01*
X120602000Y-129804857D01*
X120602000Y-129852476D01*
X120554380Y-129947714D01*
X120506761Y-129995333D01*
X120411523Y-130042952D01*
X120221047Y-130042952D01*
X120125809Y-130090571D01*
X120078190Y-130138190D01*
X120030571Y-130233428D01*
X120030571Y-130423904D01*
X120078190Y-130519142D01*
X120125809Y-130566761D01*
X120221047Y-130614380D01*
X120411523Y-130614380D01*
X120506761Y-130566761D01*
X120554380Y-130519142D01*
X120602000Y-130423904D01*
X120602000Y-130233428D01*
X120554380Y-130138190D01*
X120506761Y-130090571D01*
X120411523Y-130042952D01*
X116840095Y-120864380D02*
X116840095Y-121673904D01*
X116887714Y-121769142D01*
X116935333Y-121816761D01*
X117030571Y-121864380D01*
X117221047Y-121864380D01*
X117316285Y-121816761D01*
X117363904Y-121769142D01*
X117411523Y-121673904D01*
X117411523Y-120864380D01*
X118411523Y-121864380D02*
X117840095Y-121864380D01*
X118125809Y-121864380D02*
X118125809Y-120864380D01*
X118030571Y-121007238D01*
X117935333Y-121102476D01*
X117840095Y-121150095D01*
%TO.C,C3*%
X141982380Y-63226380D02*
X141410952Y-63226380D01*
X141696666Y-63226380D02*
X141696666Y-62226380D01*
X141601428Y-62369238D01*
X141506190Y-62464476D01*
X141410952Y-62512095D01*
X142601428Y-62226380D02*
X142696666Y-62226380D01*
X142791904Y-62274000D01*
X142839523Y-62321619D01*
X142887142Y-62416857D01*
X142934761Y-62607333D01*
X142934761Y-62845428D01*
X142887142Y-63035904D01*
X142839523Y-63131142D01*
X142791904Y-63178761D01*
X142696666Y-63226380D01*
X142601428Y-63226380D01*
X142506190Y-63178761D01*
X142458571Y-63131142D01*
X142410952Y-63035904D01*
X142363333Y-62845428D01*
X142363333Y-62607333D01*
X142410952Y-62416857D01*
X142458571Y-62321619D01*
X142506190Y-62274000D01*
X142601428Y-62226380D01*
X143553809Y-62226380D02*
X143649047Y-62226380D01*
X143744285Y-62274000D01*
X143791904Y-62321619D01*
X143839523Y-62416857D01*
X143887142Y-62607333D01*
X143887142Y-62845428D01*
X143839523Y-63035904D01*
X143791904Y-63131142D01*
X143744285Y-63178761D01*
X143649047Y-63226380D01*
X143553809Y-63226380D01*
X143458571Y-63178761D01*
X143410952Y-63131142D01*
X143363333Y-63035904D01*
X143315714Y-62845428D01*
X143315714Y-62607333D01*
X143363333Y-62416857D01*
X143410952Y-62321619D01*
X143458571Y-62274000D01*
X143553809Y-62226380D01*
X144315714Y-62559714D02*
X144315714Y-63226380D01*
X144315714Y-62654952D02*
X144363333Y-62607333D01*
X144458571Y-62559714D01*
X144601428Y-62559714D01*
X144696666Y-62607333D01*
X144744285Y-62702571D01*
X144744285Y-63226380D01*
X145553809Y-62702571D02*
X145220476Y-62702571D01*
X145220476Y-63226380D02*
X145220476Y-62226380D01*
X145696666Y-62226380D01*
D12*
X143430000Y-65238285D02*
X143401428Y-65266857D01*
X143315714Y-65295428D01*
X143258571Y-65295428D01*
X143172857Y-65266857D01*
X143115714Y-65209714D01*
X143087142Y-65152571D01*
X143058571Y-65038285D01*
X143058571Y-64952571D01*
X143087142Y-64838285D01*
X143115714Y-64781142D01*
X143172857Y-64724000D01*
X143258571Y-64695428D01*
X143315714Y-64695428D01*
X143401428Y-64724000D01*
X143430000Y-64752571D01*
X143630000Y-64695428D02*
X144001428Y-64695428D01*
X143801428Y-64924000D01*
X143887142Y-64924000D01*
X143944285Y-64952571D01*
X143972857Y-64981142D01*
X144001428Y-65038285D01*
X144001428Y-65181142D01*
X143972857Y-65238285D01*
X143944285Y-65266857D01*
X143887142Y-65295428D01*
X143715714Y-65295428D01*
X143658571Y-65266857D01*
X143630000Y-65238285D01*
%TO.C,U3*%
D11*
X108006571Y-103128380D02*
X107816095Y-103128380D01*
X107720857Y-103176000D01*
X107673238Y-103223619D01*
X107578000Y-103366476D01*
X107530380Y-103556952D01*
X107530380Y-103937904D01*
X107578000Y-104033142D01*
X107625619Y-104080761D01*
X107720857Y-104128380D01*
X107911333Y-104128380D01*
X108006571Y-104080761D01*
X108054190Y-104033142D01*
X108101809Y-103937904D01*
X108101809Y-103699809D01*
X108054190Y-103604571D01*
X108006571Y-103556952D01*
X107911333Y-103509333D01*
X107720857Y-103509333D01*
X107625619Y-103556952D01*
X107578000Y-103604571D01*
X107530380Y-103699809D01*
X108482761Y-103223619D02*
X108530380Y-103176000D01*
X108625619Y-103128380D01*
X108863714Y-103128380D01*
X108958952Y-103176000D01*
X109006571Y-103223619D01*
X109054190Y-103318857D01*
X109054190Y-103414095D01*
X109006571Y-103556952D01*
X108435142Y-104128380D01*
X109054190Y-104128380D01*
X109625619Y-103556952D02*
X109530380Y-103509333D01*
X109482761Y-103461714D01*
X109435142Y-103366476D01*
X109435142Y-103318857D01*
X109482761Y-103223619D01*
X109530380Y-103176000D01*
X109625619Y-103128380D01*
X109816095Y-103128380D01*
X109911333Y-103176000D01*
X109958952Y-103223619D01*
X110006571Y-103318857D01*
X110006571Y-103366476D01*
X109958952Y-103461714D01*
X109911333Y-103509333D01*
X109816095Y-103556952D01*
X109625619Y-103556952D01*
X109530380Y-103604571D01*
X109482761Y-103652190D01*
X109435142Y-103747428D01*
X109435142Y-103937904D01*
X109482761Y-104033142D01*
X109530380Y-104080761D01*
X109625619Y-104128380D01*
X109816095Y-104128380D01*
X109911333Y-104080761D01*
X109958952Y-104033142D01*
X110006571Y-103937904D01*
X110006571Y-103747428D01*
X109958952Y-103652190D01*
X109911333Y-103604571D01*
X109816095Y-103556952D01*
X110958952Y-104128380D02*
X110387523Y-104128380D01*
X110673238Y-104128380D02*
X110673238Y-103128380D01*
X110578000Y-103271238D01*
X110482761Y-103366476D01*
X110387523Y-103414095D01*
X111339904Y-103223619D02*
X111387523Y-103176000D01*
X111482761Y-103128380D01*
X111720857Y-103128380D01*
X111816095Y-103176000D01*
X111863714Y-103223619D01*
X111911333Y-103318857D01*
X111911333Y-103414095D01*
X111863714Y-103556952D01*
X111292285Y-104128380D01*
X111911333Y-104128380D01*
X112482761Y-103556952D02*
X112387523Y-103509333D01*
X112339904Y-103461714D01*
X112292285Y-103366476D01*
X112292285Y-103318857D01*
X112339904Y-103223619D01*
X112387523Y-103176000D01*
X112482761Y-103128380D01*
X112673238Y-103128380D01*
X112768476Y-103176000D01*
X112816095Y-103223619D01*
X112863714Y-103318857D01*
X112863714Y-103366476D01*
X112816095Y-103461714D01*
X112768476Y-103509333D01*
X112673238Y-103556952D01*
X112482761Y-103556952D01*
X112387523Y-103604571D01*
X112339904Y-103652190D01*
X112292285Y-103747428D01*
X112292285Y-103937904D01*
X112339904Y-104033142D01*
X112387523Y-104080761D01*
X112482761Y-104128380D01*
X112673238Y-104128380D01*
X112768476Y-104080761D01*
X112816095Y-104033142D01*
X112863714Y-103937904D01*
X112863714Y-103747428D01*
X112816095Y-103652190D01*
X112768476Y-103604571D01*
X112673238Y-103556952D01*
X113054190Y-104223619D02*
X113816095Y-104223619D01*
X114054190Y-104128380D02*
X114054190Y-103128380D01*
X114292285Y-103128380D01*
X114435142Y-103176000D01*
X114530380Y-103271238D01*
X114578000Y-103366476D01*
X114625619Y-103556952D01*
X114625619Y-103699809D01*
X114578000Y-103890285D01*
X114530380Y-103985523D01*
X114435142Y-104080761D01*
X114292285Y-104128380D01*
X114054190Y-104128380D01*
X115054190Y-104128380D02*
X115054190Y-103128380D01*
X115530380Y-104128380D02*
X115530380Y-103128380D01*
X115911333Y-103128380D01*
X116006571Y-103176000D01*
X116054190Y-103223619D01*
X116101809Y-103318857D01*
X116101809Y-103461714D01*
X116054190Y-103556952D01*
X116006571Y-103604571D01*
X115911333Y-103652190D01*
X115530380Y-103652190D01*
X116435142Y-103128380D02*
X117054190Y-103128380D01*
X116720857Y-103509333D01*
X116863714Y-103509333D01*
X116958952Y-103556952D01*
X117006571Y-103604571D01*
X117054190Y-103699809D01*
X117054190Y-103937904D01*
X117006571Y-104033142D01*
X116958952Y-104080761D01*
X116863714Y-104128380D01*
X116578000Y-104128380D01*
X116482761Y-104080761D01*
X116435142Y-104033142D01*
X117435142Y-103223619D02*
X117482761Y-103176000D01*
X117578000Y-103128380D01*
X117816095Y-103128380D01*
X117911333Y-103176000D01*
X117958952Y-103223619D01*
X118006571Y-103318857D01*
X118006571Y-103414095D01*
X117958952Y-103556952D01*
X117387523Y-104128380D01*
X118006571Y-104128380D01*
X118197047Y-104223619D02*
X118958952Y-104223619D01*
X119149428Y-104080761D02*
X119292285Y-104128380D01*
X119530380Y-104128380D01*
X119625619Y-104080761D01*
X119673238Y-104033142D01*
X119720857Y-103937904D01*
X119720857Y-103842666D01*
X119673238Y-103747428D01*
X119625619Y-103699809D01*
X119530380Y-103652190D01*
X119339904Y-103604571D01*
X119244666Y-103556952D01*
X119197047Y-103509333D01*
X119149428Y-103414095D01*
X119149428Y-103318857D01*
X119197047Y-103223619D01*
X119244666Y-103176000D01*
X119339904Y-103128380D01*
X119578000Y-103128380D01*
X119720857Y-103176000D01*
X120101809Y-104080761D02*
X120244666Y-104128380D01*
X120482761Y-104128380D01*
X120578000Y-104080761D01*
X120625619Y-104033142D01*
X120673238Y-103937904D01*
X120673238Y-103842666D01*
X120625619Y-103747428D01*
X120578000Y-103699809D01*
X120482761Y-103652190D01*
X120292285Y-103604571D01*
X120197047Y-103556952D01*
X120149428Y-103509333D01*
X120101809Y-103414095D01*
X120101809Y-103318857D01*
X120149428Y-103223619D01*
X120197047Y-103176000D01*
X120292285Y-103128380D01*
X120530380Y-103128380D01*
X120673238Y-103176000D01*
X121292285Y-103128380D02*
X121482761Y-103128380D01*
X121578000Y-103176000D01*
X121673238Y-103271238D01*
X121720857Y-103461714D01*
X121720857Y-103795047D01*
X121673238Y-103985523D01*
X121578000Y-104080761D01*
X121482761Y-104128380D01*
X121292285Y-104128380D01*
X121197047Y-104080761D01*
X121101809Y-103985523D01*
X121054190Y-103795047D01*
X121054190Y-103461714D01*
X121101809Y-103271238D01*
X121197047Y-103176000D01*
X121292285Y-103128380D01*
X122149428Y-104128380D02*
X122149428Y-103128380D01*
X122530380Y-103128380D01*
X122625619Y-103176000D01*
X122673238Y-103223619D01*
X122720857Y-103318857D01*
X122720857Y-103461714D01*
X122673238Y-103556952D01*
X122625619Y-103604571D01*
X122530380Y-103652190D01*
X122149428Y-103652190D01*
X123054190Y-103128380D02*
X123673238Y-103128380D01*
X123339904Y-103509333D01*
X123482761Y-103509333D01*
X123578000Y-103556952D01*
X123625619Y-103604571D01*
X123673238Y-103699809D01*
X123673238Y-103937904D01*
X123625619Y-104033142D01*
X123578000Y-104080761D01*
X123482761Y-104128380D01*
X123197047Y-104128380D01*
X123101809Y-104080761D01*
X123054190Y-104033142D01*
X124054190Y-103223619D02*
X124101809Y-103176000D01*
X124197047Y-103128380D01*
X124435142Y-103128380D01*
X124530380Y-103176000D01*
X124578000Y-103223619D01*
X124625619Y-103318857D01*
X124625619Y-103414095D01*
X124578000Y-103556952D01*
X124006571Y-104128380D01*
X124625619Y-104128380D01*
X115316095Y-81748380D02*
X115316095Y-82557904D01*
X115363714Y-82653142D01*
X115411333Y-82700761D01*
X115506571Y-82748380D01*
X115697047Y-82748380D01*
X115792285Y-82700761D01*
X115839904Y-82653142D01*
X115887523Y-82557904D01*
X115887523Y-81748380D01*
X116268476Y-81748380D02*
X116887523Y-81748380D01*
X116554190Y-82129333D01*
X116697047Y-82129333D01*
X116792285Y-82176952D01*
X116839904Y-82224571D01*
X116887523Y-82319809D01*
X116887523Y-82557904D01*
X116839904Y-82653142D01*
X116792285Y-82700761D01*
X116697047Y-82748380D01*
X116411333Y-82748380D01*
X116316095Y-82700761D01*
X116268476Y-82653142D01*
%TO.C,U2*%
X134215523Y-103223619D02*
X134263142Y-103176000D01*
X134358380Y-103128380D01*
X134596476Y-103128380D01*
X134691714Y-103176000D01*
X134739333Y-103223619D01*
X134786952Y-103318857D01*
X134786952Y-103414095D01*
X134739333Y-103556952D01*
X134167904Y-104128380D01*
X134786952Y-104128380D01*
X135120285Y-103128380D02*
X135786952Y-103128380D01*
X135358380Y-104128380D01*
X136739333Y-104033142D02*
X136691714Y-104080761D01*
X136548857Y-104128380D01*
X136453619Y-104128380D01*
X136310761Y-104080761D01*
X136215523Y-103985523D01*
X136167904Y-103890285D01*
X136120285Y-103699809D01*
X136120285Y-103556952D01*
X136167904Y-103366476D01*
X136215523Y-103271238D01*
X136310761Y-103176000D01*
X136453619Y-103128380D01*
X136548857Y-103128380D01*
X136691714Y-103176000D01*
X136739333Y-103223619D01*
X137644095Y-103128380D02*
X137167904Y-103128380D01*
X137120285Y-103604571D01*
X137167904Y-103556952D01*
X137263142Y-103509333D01*
X137501238Y-103509333D01*
X137596476Y-103556952D01*
X137644095Y-103604571D01*
X137691714Y-103699809D01*
X137691714Y-103937904D01*
X137644095Y-104033142D01*
X137596476Y-104080761D01*
X137501238Y-104128380D01*
X137263142Y-104128380D01*
X137167904Y-104080761D01*
X137120285Y-104033142D01*
X138644095Y-104128380D02*
X138072666Y-104128380D01*
X138358380Y-104128380D02*
X138358380Y-103128380D01*
X138263142Y-103271238D01*
X138167904Y-103366476D01*
X138072666Y-103414095D01*
X139025047Y-103223619D02*
X139072666Y-103176000D01*
X139167904Y-103128380D01*
X139406000Y-103128380D01*
X139501238Y-103176000D01*
X139548857Y-103223619D01*
X139596476Y-103318857D01*
X139596476Y-103414095D01*
X139548857Y-103556952D01*
X138977428Y-104128380D01*
X139596476Y-104128380D01*
X136144095Y-84288380D02*
X136144095Y-85097904D01*
X136191714Y-85193142D01*
X136239333Y-85240761D01*
X136334571Y-85288380D01*
X136525047Y-85288380D01*
X136620285Y-85240761D01*
X136667904Y-85193142D01*
X136715523Y-85097904D01*
X136715523Y-84288380D01*
X137144095Y-84383619D02*
X137191714Y-84336000D01*
X137286952Y-84288380D01*
X137525047Y-84288380D01*
X137620285Y-84336000D01*
X137667904Y-84383619D01*
X137715523Y-84478857D01*
X137715523Y-84574095D01*
X137667904Y-84716952D01*
X137096476Y-85288380D01*
X137715523Y-85288380D01*
%TO.C,RN1*%
X161443714Y-126769714D02*
X162110380Y-126769714D01*
X161062761Y-127007809D02*
X161777047Y-127245904D01*
X161777047Y-126626857D01*
X162110380Y-126245904D02*
X161110380Y-126245904D01*
X162110380Y-125674476D02*
X161538952Y-126103047D01*
X161110380Y-125674476D02*
X161681809Y-126245904D01*
X161110380Y-125341142D02*
X161110380Y-124674476D01*
X162110380Y-125103047D01*
X159710380Y-127944476D02*
X159234190Y-128277809D01*
X159710380Y-128515904D02*
X158710380Y-128515904D01*
X158710380Y-128134952D01*
X158758000Y-128039714D01*
X158805619Y-127992095D01*
X158900857Y-127944476D01*
X159043714Y-127944476D01*
X159138952Y-127992095D01*
X159186571Y-128039714D01*
X159234190Y-128134952D01*
X159234190Y-128515904D01*
X159710380Y-127515904D02*
X158710380Y-127515904D01*
X159710380Y-126944476D01*
X158710380Y-126944476D01*
X159710380Y-125944476D02*
X159710380Y-126515904D01*
X159710380Y-126230190D02*
X158710380Y-126230190D01*
X158853238Y-126325428D01*
X158948476Y-126420666D01*
X158996095Y-126515904D01*
%TO.C,J1*%
X156695142Y-132481142D02*
X156647523Y-132528761D01*
X156504666Y-132576380D01*
X156409428Y-132576380D01*
X156266571Y-132528761D01*
X156171333Y-132433523D01*
X156123714Y-132338285D01*
X156076095Y-132147809D01*
X156076095Y-132004952D01*
X156123714Y-131814476D01*
X156171333Y-131719238D01*
X156266571Y-131624000D01*
X156409428Y-131576380D01*
X156504666Y-131576380D01*
X156647523Y-131624000D01*
X156695142Y-131671619D01*
X157266571Y-132576380D02*
X157171333Y-132528761D01*
X157123714Y-132481142D01*
X157076095Y-132385904D01*
X157076095Y-132100190D01*
X157123714Y-132004952D01*
X157171333Y-131957333D01*
X157266571Y-131909714D01*
X157409428Y-131909714D01*
X157504666Y-131957333D01*
X157552285Y-132004952D01*
X157599904Y-132100190D01*
X157599904Y-132385904D01*
X157552285Y-132481142D01*
X157504666Y-132528761D01*
X157409428Y-132576380D01*
X157266571Y-132576380D01*
X158028476Y-131909714D02*
X158028476Y-132576380D01*
X158028476Y-132004952D02*
X158076095Y-131957333D01*
X158171333Y-131909714D01*
X158314190Y-131909714D01*
X158409428Y-131957333D01*
X158457047Y-132052571D01*
X158457047Y-132576380D01*
X158933238Y-131909714D02*
X158933238Y-132576380D01*
X158933238Y-132004952D02*
X158980857Y-131957333D01*
X159076095Y-131909714D01*
X159218952Y-131909714D01*
X159314190Y-131957333D01*
X159361809Y-132052571D01*
X159361809Y-132576380D01*
X159599904Y-132671619D02*
X160361809Y-132671619D01*
X160790380Y-131576380D02*
X160885619Y-131576380D01*
X160980857Y-131624000D01*
X161028476Y-131671619D01*
X161076095Y-131766857D01*
X161123714Y-131957333D01*
X161123714Y-132195428D01*
X161076095Y-132385904D01*
X161028476Y-132481142D01*
X160980857Y-132528761D01*
X160885619Y-132576380D01*
X160790380Y-132576380D01*
X160695142Y-132528761D01*
X160647523Y-132481142D01*
X160599904Y-132385904D01*
X160552285Y-132195428D01*
X160552285Y-131957333D01*
X160599904Y-131766857D01*
X160647523Y-131671619D01*
X160695142Y-131624000D01*
X160790380Y-131576380D01*
X161504666Y-131671619D02*
X161552285Y-131624000D01*
X161647523Y-131576380D01*
X161885619Y-131576380D01*
X161980857Y-131624000D01*
X162028476Y-131671619D01*
X162076095Y-131766857D01*
X162076095Y-131862095D01*
X162028476Y-132004952D01*
X161457047Y-132576380D01*
X162076095Y-132576380D01*
X162409428Y-132576380D02*
X162933238Y-131909714D01*
X162409428Y-131909714D02*
X162933238Y-132576380D01*
X163504666Y-131576380D02*
X163599904Y-131576380D01*
X163695142Y-131624000D01*
X163742761Y-131671619D01*
X163790380Y-131766857D01*
X163838000Y-131957333D01*
X163838000Y-132195428D01*
X163790380Y-132385904D01*
X163742761Y-132481142D01*
X163695142Y-132528761D01*
X163599904Y-132576380D01*
X163504666Y-132576380D01*
X163409428Y-132528761D01*
X163361809Y-132481142D01*
X163314190Y-132385904D01*
X163266571Y-132195428D01*
X163266571Y-131957333D01*
X163314190Y-131766857D01*
X163361809Y-131671619D01*
X163409428Y-131624000D01*
X163504666Y-131576380D01*
X164695142Y-131909714D02*
X164695142Y-132576380D01*
X164457047Y-131528761D02*
X164218952Y-132243047D01*
X164838000Y-132243047D01*
X164980857Y-132671619D02*
X165742761Y-132671619D01*
X166171333Y-131576380D02*
X166361809Y-131576380D01*
X166457047Y-131624000D01*
X166552285Y-131719238D01*
X166599904Y-131909714D01*
X166599904Y-132243047D01*
X166552285Y-132433523D01*
X166457047Y-132528761D01*
X166361809Y-132576380D01*
X166171333Y-132576380D01*
X166076095Y-132528761D01*
X165980857Y-132433523D01*
X165933238Y-132243047D01*
X165933238Y-131909714D01*
X165980857Y-131719238D01*
X166076095Y-131624000D01*
X166171333Y-131576380D01*
X167457047Y-132576380D02*
X167457047Y-131576380D01*
X167457047Y-132528761D02*
X167361809Y-132576380D01*
X167171333Y-132576380D01*
X167076095Y-132528761D01*
X167028476Y-132481142D01*
X166980857Y-132385904D01*
X166980857Y-132100190D01*
X167028476Y-132004952D01*
X167076095Y-131957333D01*
X167171333Y-131909714D01*
X167361809Y-131909714D01*
X167457047Y-131957333D01*
X168361809Y-132576380D02*
X168361809Y-131576380D01*
X168361809Y-132528761D02*
X168266571Y-132576380D01*
X168076095Y-132576380D01*
X167980857Y-132528761D01*
X167933238Y-132481142D01*
X167885619Y-132385904D01*
X167885619Y-132100190D01*
X167933238Y-132004952D01*
X167980857Y-131957333D01*
X168076095Y-131909714D01*
X168266571Y-131909714D01*
X168361809Y-131957333D01*
X168599904Y-132671619D02*
X169361809Y-132671619D01*
X169599904Y-132052571D02*
X169933238Y-132052571D01*
X170076095Y-132576380D02*
X169599904Y-132576380D01*
X169599904Y-131576380D01*
X170076095Y-131576380D01*
X170409428Y-131909714D02*
X170647523Y-132576380D01*
X170885619Y-131909714D01*
X171647523Y-132528761D02*
X171552285Y-132576380D01*
X171361809Y-132576380D01*
X171266571Y-132528761D01*
X171218952Y-132433523D01*
X171218952Y-132052571D01*
X171266571Y-131957333D01*
X171361809Y-131909714D01*
X171552285Y-131909714D01*
X171647523Y-131957333D01*
X171695142Y-132052571D01*
X171695142Y-132147809D01*
X171218952Y-132243047D01*
X172123714Y-131909714D02*
X172123714Y-132576380D01*
X172123714Y-132004952D02*
X172171333Y-131957333D01*
X172266571Y-131909714D01*
X172409428Y-131909714D01*
X172504666Y-131957333D01*
X172552285Y-132052571D01*
X172552285Y-132576380D01*
X163790380Y-126317333D02*
X164504666Y-126317333D01*
X164647523Y-126364952D01*
X164742761Y-126460190D01*
X164790380Y-126603047D01*
X164790380Y-126698285D01*
X164790380Y-125317333D02*
X164790380Y-125888761D01*
X164790380Y-125603047D02*
X163790380Y-125603047D01*
X163933238Y-125698285D01*
X164028476Y-125793523D01*
X164076095Y-125888761D01*
%TO.C,D2*%
X112665142Y-137105380D02*
X112093714Y-137105380D01*
X112379428Y-137105380D02*
X112379428Y-136105380D01*
X112284190Y-136248238D01*
X112188952Y-136343476D01*
X112093714Y-136391095D01*
X113093714Y-137105380D02*
X113093714Y-136105380D01*
X113665142Y-137105380D01*
X113665142Y-136105380D01*
X114569904Y-136438714D02*
X114569904Y-137105380D01*
X114331809Y-136057761D02*
X114093714Y-136772047D01*
X114712761Y-136772047D01*
X115617523Y-137105380D02*
X115046095Y-137105380D01*
X115331809Y-137105380D02*
X115331809Y-136105380D01*
X115236571Y-136248238D01*
X115141333Y-136343476D01*
X115046095Y-136391095D01*
X116474666Y-136438714D02*
X116474666Y-137105380D01*
X116236571Y-136057761D02*
X115998476Y-136772047D01*
X116617523Y-136772047D01*
X117141333Y-136533952D02*
X117046095Y-136486333D01*
X116998476Y-136438714D01*
X116950857Y-136343476D01*
X116950857Y-136295857D01*
X116998476Y-136200619D01*
X117046095Y-136153000D01*
X117141333Y-136105380D01*
X117331809Y-136105380D01*
X117427047Y-136153000D01*
X117474666Y-136200619D01*
X117522285Y-136295857D01*
X117522285Y-136343476D01*
X117474666Y-136438714D01*
X117427047Y-136486333D01*
X117331809Y-136533952D01*
X117141333Y-136533952D01*
X117046095Y-136581571D01*
X116998476Y-136629190D01*
X116950857Y-136724428D01*
X116950857Y-136914904D01*
X116998476Y-137010142D01*
X117046095Y-137057761D01*
X117141333Y-137105380D01*
X117331809Y-137105380D01*
X117427047Y-137057761D01*
X117474666Y-137010142D01*
X117522285Y-136914904D01*
X117522285Y-136724428D01*
X117474666Y-136629190D01*
X117427047Y-136581571D01*
X117331809Y-136533952D01*
X111179904Y-140628666D02*
X111656095Y-140628666D01*
X111084666Y-140914380D02*
X111418000Y-139914380D01*
X111751333Y-140914380D01*
X114069904Y-143834380D02*
X114069904Y-142834380D01*
X114308000Y-142834380D01*
X114450857Y-142882000D01*
X114546095Y-142977238D01*
X114593714Y-143072476D01*
X114641333Y-143262952D01*
X114641333Y-143405809D01*
X114593714Y-143596285D01*
X114546095Y-143691523D01*
X114450857Y-143786761D01*
X114308000Y-143834380D01*
X114069904Y-143834380D01*
X115022285Y-142929619D02*
X115069904Y-142882000D01*
X115165142Y-142834380D01*
X115403238Y-142834380D01*
X115498476Y-142882000D01*
X115546095Y-142929619D01*
X115593714Y-143024857D01*
X115593714Y-143120095D01*
X115546095Y-143262952D01*
X114974666Y-143834380D01*
X115593714Y-143834380D01*
%TO.C,C8*%
X107398380Y-142148380D02*
X106826952Y-142148380D01*
X107112666Y-142148380D02*
X107112666Y-141148380D01*
X107017428Y-141291238D01*
X106922190Y-141386476D01*
X106826952Y-141434095D01*
X108017428Y-141148380D02*
X108112666Y-141148380D01*
X108207904Y-141196000D01*
X108255523Y-141243619D01*
X108303142Y-141338857D01*
X108350761Y-141529333D01*
X108350761Y-141767428D01*
X108303142Y-141957904D01*
X108255523Y-142053142D01*
X108207904Y-142100761D01*
X108112666Y-142148380D01*
X108017428Y-142148380D01*
X107922190Y-142100761D01*
X107874571Y-142053142D01*
X107826952Y-141957904D01*
X107779333Y-141767428D01*
X107779333Y-141529333D01*
X107826952Y-141338857D01*
X107874571Y-141243619D01*
X107922190Y-141196000D01*
X108017428Y-141148380D01*
X108969809Y-141148380D02*
X109065047Y-141148380D01*
X109160285Y-141196000D01*
X109207904Y-141243619D01*
X109255523Y-141338857D01*
X109303142Y-141529333D01*
X109303142Y-141767428D01*
X109255523Y-141957904D01*
X109207904Y-142053142D01*
X109160285Y-142100761D01*
X109065047Y-142148380D01*
X108969809Y-142148380D01*
X108874571Y-142100761D01*
X108826952Y-142053142D01*
X108779333Y-141957904D01*
X108731714Y-141767428D01*
X108731714Y-141529333D01*
X108779333Y-141338857D01*
X108826952Y-141243619D01*
X108874571Y-141196000D01*
X108969809Y-141148380D01*
X109731714Y-141481714D02*
X109731714Y-142148380D01*
X109731714Y-141576952D02*
X109779333Y-141529333D01*
X109874571Y-141481714D01*
X110017428Y-141481714D01*
X110112666Y-141529333D01*
X110160285Y-141624571D01*
X110160285Y-142148380D01*
X110969809Y-141624571D02*
X110636476Y-141624571D01*
X110636476Y-142148380D02*
X110636476Y-141148380D01*
X111112666Y-141148380D01*
D12*
X108846000Y-139660285D02*
X108817428Y-139688857D01*
X108731714Y-139717428D01*
X108674571Y-139717428D01*
X108588857Y-139688857D01*
X108531714Y-139631714D01*
X108503142Y-139574571D01*
X108474571Y-139460285D01*
X108474571Y-139374571D01*
X108503142Y-139260285D01*
X108531714Y-139203142D01*
X108588857Y-139146000D01*
X108674571Y-139117428D01*
X108731714Y-139117428D01*
X108817428Y-139146000D01*
X108846000Y-139174571D01*
X109188857Y-139374571D02*
X109131714Y-139346000D01*
X109103142Y-139317428D01*
X109074571Y-139260285D01*
X109074571Y-139231714D01*
X109103142Y-139174571D01*
X109131714Y-139146000D01*
X109188857Y-139117428D01*
X109303142Y-139117428D01*
X109360285Y-139146000D01*
X109388857Y-139174571D01*
X109417428Y-139231714D01*
X109417428Y-139260285D01*
X109388857Y-139317428D01*
X109360285Y-139346000D01*
X109303142Y-139374571D01*
X109188857Y-139374571D01*
X109131714Y-139403142D01*
X109103142Y-139431714D01*
X109074571Y-139488857D01*
X109074571Y-139603142D01*
X109103142Y-139660285D01*
X109131714Y-139688857D01*
X109188857Y-139717428D01*
X109303142Y-139717428D01*
X109360285Y-139688857D01*
X109388857Y-139660285D01*
X109417428Y-139603142D01*
X109417428Y-139488857D01*
X109388857Y-139431714D01*
X109360285Y-139403142D01*
X109303142Y-139374571D01*
%TO.C,C6*%
D11*
X94880952Y-146926380D02*
X94309523Y-146926380D01*
X94595238Y-146926380D02*
X94595238Y-145926380D01*
X94500000Y-146069238D01*
X94404761Y-146164476D01*
X94309523Y-146212095D01*
X95500000Y-145926380D02*
X95595238Y-145926380D01*
X95690476Y-145974000D01*
X95738095Y-146021619D01*
X95785714Y-146116857D01*
X95833333Y-146307333D01*
X95833333Y-146545428D01*
X95785714Y-146735904D01*
X95738095Y-146831142D01*
X95690476Y-146878761D01*
X95595238Y-146926380D01*
X95500000Y-146926380D01*
X95404761Y-146878761D01*
X95357142Y-146831142D01*
X95309523Y-146735904D01*
X95261904Y-146545428D01*
X95261904Y-146307333D01*
X95309523Y-146116857D01*
X95357142Y-146021619D01*
X95404761Y-145974000D01*
X95500000Y-145926380D01*
X96452380Y-145926380D02*
X96547619Y-145926380D01*
X96642857Y-145974000D01*
X96690476Y-146021619D01*
X96738095Y-146116857D01*
X96785714Y-146307333D01*
X96785714Y-146545428D01*
X96738095Y-146735904D01*
X96690476Y-146831142D01*
X96642857Y-146878761D01*
X96547619Y-146926380D01*
X96452380Y-146926380D01*
X96357142Y-146878761D01*
X96309523Y-146831142D01*
X96261904Y-146735904D01*
X96214285Y-146545428D01*
X96214285Y-146307333D01*
X96261904Y-146116857D01*
X96309523Y-146021619D01*
X96357142Y-145974000D01*
X96452380Y-145926380D01*
X97214285Y-146259714D02*
X97214285Y-147259714D01*
X97690476Y-146783523D02*
X97738095Y-146878761D01*
X97833333Y-146926380D01*
X97214285Y-146783523D02*
X97261904Y-146878761D01*
X97357142Y-146926380D01*
X97547619Y-146926380D01*
X97642857Y-146878761D01*
X97690476Y-146783523D01*
X97690476Y-146259714D01*
X98595238Y-146402571D02*
X98261904Y-146402571D01*
X98261904Y-146926380D02*
X98261904Y-145926380D01*
X98738095Y-145926380D01*
X96333333Y-141581142D02*
X96285714Y-141628761D01*
X96142857Y-141676380D01*
X96047619Y-141676380D01*
X95904761Y-141628761D01*
X95809523Y-141533523D01*
X95761904Y-141438285D01*
X95714285Y-141247809D01*
X95714285Y-141104952D01*
X95761904Y-140914476D01*
X95809523Y-140819238D01*
X95904761Y-140724000D01*
X96047619Y-140676380D01*
X96142857Y-140676380D01*
X96285714Y-140724000D01*
X96333333Y-140771619D01*
X97190476Y-140676380D02*
X97000000Y-140676380D01*
X96904761Y-140724000D01*
X96857142Y-140771619D01*
X96761904Y-140914476D01*
X96714285Y-141104952D01*
X96714285Y-141485904D01*
X96761904Y-141581142D01*
X96809523Y-141628761D01*
X96904761Y-141676380D01*
X97095238Y-141676380D01*
X97190476Y-141628761D01*
X97238095Y-141581142D01*
X97285714Y-141485904D01*
X97285714Y-141247809D01*
X97238095Y-141152571D01*
X97190476Y-141104952D01*
X97095238Y-141057333D01*
X96904761Y-141057333D01*
X96809523Y-141104952D01*
X96761904Y-141152571D01*
X96714285Y-141247809D01*
%TO.C,C4*%
X121408380Y-58146380D02*
X120836952Y-58146380D01*
X121122666Y-58146380D02*
X121122666Y-57146380D01*
X121027428Y-57289238D01*
X120932190Y-57384476D01*
X120836952Y-57432095D01*
X122027428Y-57146380D02*
X122122666Y-57146380D01*
X122217904Y-57194000D01*
X122265523Y-57241619D01*
X122313142Y-57336857D01*
X122360761Y-57527333D01*
X122360761Y-57765428D01*
X122313142Y-57955904D01*
X122265523Y-58051142D01*
X122217904Y-58098761D01*
X122122666Y-58146380D01*
X122027428Y-58146380D01*
X121932190Y-58098761D01*
X121884571Y-58051142D01*
X121836952Y-57955904D01*
X121789333Y-57765428D01*
X121789333Y-57527333D01*
X121836952Y-57336857D01*
X121884571Y-57241619D01*
X121932190Y-57194000D01*
X122027428Y-57146380D01*
X122979809Y-57146380D02*
X123075047Y-57146380D01*
X123170285Y-57194000D01*
X123217904Y-57241619D01*
X123265523Y-57336857D01*
X123313142Y-57527333D01*
X123313142Y-57765428D01*
X123265523Y-57955904D01*
X123217904Y-58051142D01*
X123170285Y-58098761D01*
X123075047Y-58146380D01*
X122979809Y-58146380D01*
X122884571Y-58098761D01*
X122836952Y-58051142D01*
X122789333Y-57955904D01*
X122741714Y-57765428D01*
X122741714Y-57527333D01*
X122789333Y-57336857D01*
X122836952Y-57241619D01*
X122884571Y-57194000D01*
X122979809Y-57146380D01*
X123741714Y-57479714D02*
X123741714Y-58146380D01*
X123741714Y-57574952D02*
X123789333Y-57527333D01*
X123884571Y-57479714D01*
X124027428Y-57479714D01*
X124122666Y-57527333D01*
X124170285Y-57622571D01*
X124170285Y-58146380D01*
X124979809Y-57622571D02*
X124646476Y-57622571D01*
X124646476Y-58146380D02*
X124646476Y-57146380D01*
X125122666Y-57146380D01*
D12*
X122856000Y-60158285D02*
X122827428Y-60186857D01*
X122741714Y-60215428D01*
X122684571Y-60215428D01*
X122598857Y-60186857D01*
X122541714Y-60129714D01*
X122513142Y-60072571D01*
X122484571Y-59958285D01*
X122484571Y-59872571D01*
X122513142Y-59758285D01*
X122541714Y-59701142D01*
X122598857Y-59644000D01*
X122684571Y-59615428D01*
X122741714Y-59615428D01*
X122827428Y-59644000D01*
X122856000Y-59672571D01*
X123370285Y-59815428D02*
X123370285Y-60215428D01*
X123227428Y-59586857D02*
X123084571Y-60015428D01*
X123456000Y-60015428D01*
%TO.C,C2*%
D11*
X93468380Y-59924380D02*
X92896952Y-59924380D01*
X93182666Y-59924380D02*
X93182666Y-58924380D01*
X93087428Y-59067238D01*
X92992190Y-59162476D01*
X92896952Y-59210095D01*
X94087428Y-58924380D02*
X94182666Y-58924380D01*
X94277904Y-58972000D01*
X94325523Y-59019619D01*
X94373142Y-59114857D01*
X94420761Y-59305333D01*
X94420761Y-59543428D01*
X94373142Y-59733904D01*
X94325523Y-59829142D01*
X94277904Y-59876761D01*
X94182666Y-59924380D01*
X94087428Y-59924380D01*
X93992190Y-59876761D01*
X93944571Y-59829142D01*
X93896952Y-59733904D01*
X93849333Y-59543428D01*
X93849333Y-59305333D01*
X93896952Y-59114857D01*
X93944571Y-59019619D01*
X93992190Y-58972000D01*
X94087428Y-58924380D01*
X95039809Y-58924380D02*
X95135047Y-58924380D01*
X95230285Y-58972000D01*
X95277904Y-59019619D01*
X95325523Y-59114857D01*
X95373142Y-59305333D01*
X95373142Y-59543428D01*
X95325523Y-59733904D01*
X95277904Y-59829142D01*
X95230285Y-59876761D01*
X95135047Y-59924380D01*
X95039809Y-59924380D01*
X94944571Y-59876761D01*
X94896952Y-59829142D01*
X94849333Y-59733904D01*
X94801714Y-59543428D01*
X94801714Y-59305333D01*
X94849333Y-59114857D01*
X94896952Y-59019619D01*
X94944571Y-58972000D01*
X95039809Y-58924380D01*
X95801714Y-59257714D02*
X95801714Y-59924380D01*
X95801714Y-59352952D02*
X95849333Y-59305333D01*
X95944571Y-59257714D01*
X96087428Y-59257714D01*
X96182666Y-59305333D01*
X96230285Y-59400571D01*
X96230285Y-59924380D01*
X97039809Y-59400571D02*
X96706476Y-59400571D01*
X96706476Y-59924380D02*
X96706476Y-58924380D01*
X97182666Y-58924380D01*
D12*
X94916000Y-61936285D02*
X94887428Y-61964857D01*
X94801714Y-61993428D01*
X94744571Y-61993428D01*
X94658857Y-61964857D01*
X94601714Y-61907714D01*
X94573142Y-61850571D01*
X94544571Y-61736285D01*
X94544571Y-61650571D01*
X94573142Y-61536285D01*
X94601714Y-61479142D01*
X94658857Y-61422000D01*
X94744571Y-61393428D01*
X94801714Y-61393428D01*
X94887428Y-61422000D01*
X94916000Y-61450571D01*
X95144571Y-61450571D02*
X95173142Y-61422000D01*
X95230285Y-61393428D01*
X95373142Y-61393428D01*
X95430285Y-61422000D01*
X95458857Y-61450571D01*
X95487428Y-61507714D01*
X95487428Y-61564857D01*
X95458857Y-61650571D01*
X95116000Y-61993428D01*
X95487428Y-61993428D01*
%TO.C,C1*%
D11*
X135084380Y-112176380D02*
X134512952Y-112176380D01*
X134798666Y-112176380D02*
X134798666Y-111176380D01*
X134703428Y-111319238D01*
X134608190Y-111414476D01*
X134512952Y-111462095D01*
X135703428Y-111176380D02*
X135798666Y-111176380D01*
X135893904Y-111224000D01*
X135941523Y-111271619D01*
X135989142Y-111366857D01*
X136036761Y-111557333D01*
X136036761Y-111795428D01*
X135989142Y-111985904D01*
X135941523Y-112081142D01*
X135893904Y-112128761D01*
X135798666Y-112176380D01*
X135703428Y-112176380D01*
X135608190Y-112128761D01*
X135560571Y-112081142D01*
X135512952Y-111985904D01*
X135465333Y-111795428D01*
X135465333Y-111557333D01*
X135512952Y-111366857D01*
X135560571Y-111271619D01*
X135608190Y-111224000D01*
X135703428Y-111176380D01*
X136655809Y-111176380D02*
X136751047Y-111176380D01*
X136846285Y-111224000D01*
X136893904Y-111271619D01*
X136941523Y-111366857D01*
X136989142Y-111557333D01*
X136989142Y-111795428D01*
X136941523Y-111985904D01*
X136893904Y-112081142D01*
X136846285Y-112128761D01*
X136751047Y-112176380D01*
X136655809Y-112176380D01*
X136560571Y-112128761D01*
X136512952Y-112081142D01*
X136465333Y-111985904D01*
X136417714Y-111795428D01*
X136417714Y-111557333D01*
X136465333Y-111366857D01*
X136512952Y-111271619D01*
X136560571Y-111224000D01*
X136655809Y-111176380D01*
X137417714Y-111509714D02*
X137417714Y-112176380D01*
X137417714Y-111604952D02*
X137465333Y-111557333D01*
X137560571Y-111509714D01*
X137703428Y-111509714D01*
X137798666Y-111557333D01*
X137846285Y-111652571D01*
X137846285Y-112176380D01*
X138655809Y-111652571D02*
X138322476Y-111652571D01*
X138322476Y-112176380D02*
X138322476Y-111176380D01*
X138798666Y-111176380D01*
D12*
X136532000Y-109688285D02*
X136503428Y-109716857D01*
X136417714Y-109745428D01*
X136360571Y-109745428D01*
X136274857Y-109716857D01*
X136217714Y-109659714D01*
X136189142Y-109602571D01*
X136160571Y-109488285D01*
X136160571Y-109402571D01*
X136189142Y-109288285D01*
X136217714Y-109231142D01*
X136274857Y-109174000D01*
X136360571Y-109145428D01*
X136417714Y-109145428D01*
X136503428Y-109174000D01*
X136532000Y-109202571D01*
X137103428Y-109745428D02*
X136760571Y-109745428D01*
X136932000Y-109745428D02*
X136932000Y-109145428D01*
X136874857Y-109231142D01*
X136817714Y-109288285D01*
X136760571Y-109316857D01*
%TO.C,X1*%
D11*
X77652380Y-97324404D02*
X76652380Y-97324404D01*
X77652380Y-96752976D02*
X77080952Y-97181547D01*
X76652380Y-96752976D02*
X77223809Y-97324404D01*
X77652380Y-95800595D02*
X77652380Y-96372023D01*
X77652380Y-96086309D02*
X76652380Y-96086309D01*
X76795238Y-96181547D01*
X76890476Y-96276785D01*
X76938095Y-96372023D01*
X76652380Y-94895833D02*
X76652380Y-95372023D01*
X77128571Y-95419642D01*
X77080952Y-95372023D01*
X77033333Y-95276785D01*
X77033333Y-95038690D01*
X77080952Y-94943452D01*
X77128571Y-94895833D01*
X77223809Y-94848214D01*
X77461904Y-94848214D01*
X77557142Y-94895833D01*
X77604761Y-94943452D01*
X77652380Y-95038690D01*
X77652380Y-95276785D01*
X77604761Y-95372023D01*
X77557142Y-95419642D01*
X76747619Y-94467261D02*
X76700000Y-94419642D01*
X76652380Y-94324404D01*
X76652380Y-94086309D01*
X76700000Y-93991071D01*
X76747619Y-93943452D01*
X76842857Y-93895833D01*
X76938095Y-93895833D01*
X77080952Y-93943452D01*
X77652380Y-94514880D01*
X77652380Y-93895833D01*
X76652380Y-93276785D02*
X76652380Y-93181547D01*
X76700000Y-93086309D01*
X76747619Y-93038690D01*
X76842857Y-92991071D01*
X77033333Y-92943452D01*
X77271428Y-92943452D01*
X77461904Y-92991071D01*
X77557142Y-93038690D01*
X77604761Y-93086309D01*
X77652380Y-93181547D01*
X77652380Y-93276785D01*
X77604761Y-93372023D01*
X77557142Y-93419642D01*
X77461904Y-93467261D01*
X77271428Y-93514880D01*
X77033333Y-93514880D01*
X76842857Y-93467261D01*
X76747619Y-93419642D01*
X76700000Y-93372023D01*
X76652380Y-93276785D01*
X77747619Y-92752976D02*
X77747619Y-91991071D01*
X76747619Y-91800595D02*
X76700000Y-91752976D01*
X76652380Y-91657738D01*
X76652380Y-91419642D01*
X76700000Y-91324404D01*
X76747619Y-91276785D01*
X76842857Y-91229166D01*
X76938095Y-91229166D01*
X77080952Y-91276785D01*
X77652380Y-91848214D01*
X77652380Y-91229166D01*
X77652380Y-90895833D02*
X76985714Y-90372023D01*
X76985714Y-90895833D02*
X77652380Y-90372023D01*
X76747619Y-90038690D02*
X76700000Y-89991071D01*
X76652380Y-89895833D01*
X76652380Y-89657738D01*
X76700000Y-89562500D01*
X76747619Y-89514880D01*
X76842857Y-89467261D01*
X76938095Y-89467261D01*
X77080952Y-89514880D01*
X77652380Y-90086309D01*
X77652380Y-89467261D01*
X77652380Y-88991071D02*
X77652380Y-88800595D01*
X77604761Y-88705357D01*
X77557142Y-88657738D01*
X77414285Y-88562500D01*
X77223809Y-88514880D01*
X76842857Y-88514880D01*
X76747619Y-88562500D01*
X76700000Y-88610119D01*
X76652380Y-88705357D01*
X76652380Y-88895833D01*
X76700000Y-88991071D01*
X76747619Y-89038690D01*
X76842857Y-89086309D01*
X77080952Y-89086309D01*
X77176190Y-89038690D01*
X77223809Y-88991071D01*
X77271428Y-88895833D01*
X77271428Y-88705357D01*
X77223809Y-88610119D01*
X77176190Y-88562500D01*
X77080952Y-88514880D01*
X77271428Y-88086309D02*
X77271428Y-87324404D01*
X77366666Y-86895833D02*
X77366666Y-86419642D01*
X77652380Y-86991071D02*
X76652380Y-86657738D01*
X77652380Y-86324404D01*
X77557142Y-85419642D02*
X77604761Y-85467261D01*
X77652380Y-85610119D01*
X77652380Y-85705357D01*
X77604761Y-85848214D01*
X77509523Y-85943452D01*
X77414285Y-85991071D01*
X77223809Y-86038690D01*
X77080952Y-86038690D01*
X76890476Y-85991071D01*
X76795238Y-85943452D01*
X76700000Y-85848214D01*
X76652380Y-85705357D01*
X76652380Y-85610119D01*
X76700000Y-85467261D01*
X76747619Y-85419642D01*
%TD*%
M02*
