%TF.GenerationSoftware,KiCad,Pcbnew,(5.1.10)-1*%
%TF.CreationDate,2024-12-04T14:35:01+01:00*%
%TF.ProjectId,BasicROM,42617369-6352-44f4-9d2e-6b696361645f,rev?*%
%TF.SameCoordinates,Original*%
%TF.FileFunction,Soldermask,Top*%
%TF.FilePolarity,Negative*%
%FSLAX46Y46*%
G04 Gerber Fmt 4.6, Leading zero omitted, Abs format (unit mm)*
G04 Created by KiCad (PCBNEW (5.1.10)-1) date 2024-12-04 14:35:01*
%MOMM*%
%LPD*%
G01*
G04 APERTURE LIST*
%ADD10O,2.400000X1.600000*%
%ADD11R,2.400000X1.600000*%
%ADD12C,1.600000*%
%ADD13O,3.600000X2.080000*%
%ADD14C,1.422400*%
%ADD15R,1.422400X1.422400*%
%ADD16O,1.600000X1.600000*%
%ADD17R,1.600000X1.600000*%
%ADD18O,1.700000X1.700000*%
%ADD19R,1.700000X1.700000*%
%ADD20O,2.240000X2.240000*%
%ADD21R,2.240000X2.240000*%
%ADD22C,1.400000*%
%ADD23C,1.610000*%
G04 APERTURE END LIST*
D10*
%TO.C,U4*%
X142748000Y-115316000D03*
X135128000Y-130556000D03*
X142748000Y-117856000D03*
X135128000Y-128016000D03*
X142748000Y-120396000D03*
X135128000Y-125476000D03*
X142748000Y-122936000D03*
X135128000Y-122936000D03*
X142748000Y-125476000D03*
X135128000Y-120396000D03*
X142748000Y-128016000D03*
X135128000Y-117856000D03*
X142748000Y-130556000D03*
D11*
X135128000Y-115316000D03*
%TD*%
D12*
%TO.C,C7*%
X134914000Y-133604000D03*
X137414000Y-133604000D03*
%TD*%
%TO.C,C5*%
X157480000Y-71668000D03*
X157480000Y-74168000D03*
%TD*%
D13*
%TO.C,J2*%
X164751000Y-59748000D03*
X164751000Y-64828000D03*
X164751000Y-69908000D03*
X164751000Y-74988000D03*
X164751000Y-80068000D03*
G36*
G01*
X166301002Y-86188000D02*
X163200998Y-86188000D01*
G75*
G02*
X162951000Y-85938002I0J249998D01*
G01*
X162951000Y-84357998D01*
G75*
G02*
X163200998Y-84108000I249998J0D01*
G01*
X166301002Y-84108000D01*
G75*
G02*
X166551000Y-84357998I0J-249998D01*
G01*
X166551000Y-85938002D01*
G75*
G02*
X166301002Y-86188000I-249998J0D01*
G01*
G37*
%TD*%
D12*
%TO.C,C11*%
X157480000Y-76748000D03*
X157480000Y-79248000D03*
%TD*%
%TO.C,C10*%
X157480000Y-68540000D03*
X157480000Y-66040000D03*
%TD*%
%TO.C,C9*%
X157480000Y-62190000D03*
X157480000Y-59690000D03*
%TD*%
D14*
%TO.C,U1*%
X122682000Y-118872000D03*
X122682000Y-121412000D03*
X120142000Y-116332000D03*
X120142000Y-121412000D03*
X120142000Y-123952000D03*
X120142000Y-126492000D03*
X117602000Y-126492000D03*
X115062000Y-126492000D03*
X122682000Y-123952000D03*
X117602000Y-123952000D03*
X115062000Y-123952000D03*
X112522000Y-123952000D03*
X112522000Y-121412000D03*
X112522000Y-118872000D03*
X115062000Y-121412000D03*
X115062000Y-118872000D03*
X115062000Y-116332000D03*
D15*
X117602000Y-116332000D03*
D14*
X120142000Y-118872000D03*
X117602000Y-118872000D03*
%TD*%
D12*
%TO.C,C3*%
X142280000Y-65024000D03*
X144780000Y-65024000D03*
%TD*%
D10*
%TO.C,U3*%
X123698000Y-63246000D03*
X108458000Y-101346000D03*
X123698000Y-65786000D03*
X108458000Y-98806000D03*
X123698000Y-68326000D03*
X108458000Y-96266000D03*
X123698000Y-70866000D03*
X108458000Y-93726000D03*
X123698000Y-73406000D03*
X108458000Y-91186000D03*
X123698000Y-75946000D03*
X108458000Y-88646000D03*
X123698000Y-78486000D03*
X108458000Y-86106000D03*
X123698000Y-81026000D03*
X108458000Y-83566000D03*
X123698000Y-83566000D03*
X108458000Y-81026000D03*
X123698000Y-86106000D03*
X108458000Y-78486000D03*
X123698000Y-88646000D03*
X108458000Y-75946000D03*
X123698000Y-91186000D03*
X108458000Y-73406000D03*
X123698000Y-93726000D03*
X108458000Y-70866000D03*
X123698000Y-96266000D03*
X108458000Y-68326000D03*
X123698000Y-98806000D03*
X108458000Y-65786000D03*
X123698000Y-101346000D03*
D11*
X108458000Y-63246000D03*
%TD*%
D10*
%TO.C,U2*%
X144526000Y-68326000D03*
X129286000Y-101346000D03*
X144526000Y-70866000D03*
X129286000Y-98806000D03*
X144526000Y-73406000D03*
X129286000Y-96266000D03*
X144526000Y-75946000D03*
X129286000Y-93726000D03*
X144526000Y-78486000D03*
X129286000Y-91186000D03*
X144526000Y-81026000D03*
X129286000Y-88646000D03*
X144526000Y-83566000D03*
X129286000Y-86106000D03*
X144526000Y-86106000D03*
X129286000Y-83566000D03*
X144526000Y-88646000D03*
X129286000Y-81026000D03*
X144526000Y-91186000D03*
X129286000Y-78486000D03*
X144526000Y-93726000D03*
X129286000Y-75946000D03*
X144526000Y-96266000D03*
X129286000Y-73406000D03*
X144526000Y-98806000D03*
X129286000Y-70866000D03*
X144526000Y-101346000D03*
D11*
X129286000Y-68326000D03*
%TD*%
D16*
%TO.C,RN1*%
X159258000Y-122174000D03*
X159258000Y-124714000D03*
X159258000Y-127254000D03*
X159258000Y-129794000D03*
D17*
X159258000Y-132334000D03*
%TD*%
D18*
%TO.C,J1*%
X165608000Y-129794000D03*
X163068000Y-129794000D03*
X165608000Y-127254000D03*
X163068000Y-127254000D03*
X165608000Y-124714000D03*
X163068000Y-124714000D03*
X165608000Y-122174000D03*
D19*
X163068000Y-122174000D03*
%TD*%
D20*
%TO.C,D2*%
X113538000Y-140462000D03*
D21*
X116078000Y-140462000D03*
%TD*%
D12*
%TO.C,C8*%
X110196000Y-139446000D03*
X107696000Y-139446000D03*
%TD*%
%TO.C,C6*%
X97750000Y-141224000D03*
D17*
X95250000Y-141224000D03*
%TD*%
D12*
%TO.C,C4*%
X121706000Y-59944000D03*
X124206000Y-59944000D03*
%TD*%
%TO.C,C2*%
X93766000Y-61722000D03*
X96266000Y-61722000D03*
%TD*%
%TO.C,C1*%
X137882000Y-109474000D03*
X135382000Y-109474000D03*
%TD*%
D22*
%TO.C,X1*%
X81508600Y-67310000D03*
X88700000Y-134060000D03*
X88700000Y-131560000D03*
X88700000Y-129060000D03*
X88700000Y-126560000D03*
X88700000Y-124060000D03*
X88700000Y-121560000D03*
X88700000Y-119060000D03*
X88700000Y-116560000D03*
X88700000Y-114060000D03*
X88700000Y-111560000D03*
X88700000Y-109060000D03*
X88700000Y-106560000D03*
X88700000Y-104060000D03*
X88700000Y-101560000D03*
X88700000Y-99060000D03*
X88700000Y-96560000D03*
X88700000Y-94060000D03*
X88700000Y-91560000D03*
X88700000Y-89060000D03*
X88700000Y-86560000D03*
X88700000Y-84060000D03*
X88700000Y-81560000D03*
X88700000Y-79060000D03*
X88700000Y-76560000D03*
X88700000Y-74060000D03*
X88700000Y-71560000D03*
X88700000Y-69060000D03*
X88700000Y-66560000D03*
X88700000Y-64060000D03*
X93700000Y-134060000D03*
X93700000Y-131560000D03*
X93700000Y-129060000D03*
X93700000Y-126560000D03*
X93700000Y-124060000D03*
X93700000Y-121560000D03*
X93700000Y-119060000D03*
X93700000Y-116560000D03*
X93700000Y-114060000D03*
X93700000Y-111560000D03*
X93700000Y-109060000D03*
X93700000Y-106560000D03*
X93700000Y-104060000D03*
X93700000Y-101560000D03*
X93700000Y-99060000D03*
X93700000Y-96560000D03*
X93700000Y-94060000D03*
X93700000Y-91560000D03*
X93700000Y-89060000D03*
X93700000Y-86560000D03*
X93700000Y-84060000D03*
X93700000Y-81560000D03*
X93700000Y-79060000D03*
X93700000Y-76560000D03*
X93700000Y-74060000D03*
X93700000Y-71560000D03*
X93700000Y-69060000D03*
X93700000Y-66560000D03*
X93700000Y-64060000D03*
D23*
X81200000Y-57810000D03*
D22*
X86588600Y-133350000D03*
X86588600Y-130810000D03*
X86588600Y-128270000D03*
X86588600Y-125730000D03*
X86588600Y-123190000D03*
X86588600Y-120650000D03*
X86588600Y-118110000D03*
X86588600Y-115570000D03*
X86588600Y-113030000D03*
X86588600Y-110490000D03*
X86588600Y-107950000D03*
X86588600Y-105410000D03*
X86588600Y-102870000D03*
X86588600Y-100330000D03*
X86588600Y-97790000D03*
X86588600Y-95250000D03*
X86588600Y-92710000D03*
X86588600Y-90170000D03*
X86588600Y-87630000D03*
X86588600Y-85090000D03*
X86588600Y-82550000D03*
X86588600Y-80010000D03*
X86588600Y-77470000D03*
X86588600Y-74930000D03*
X86588600Y-72390000D03*
X86588600Y-69850000D03*
X86588600Y-67310000D03*
X86588600Y-64770000D03*
X86588600Y-62230000D03*
X81508600Y-133350000D03*
X81508600Y-130810000D03*
X81508600Y-128270000D03*
X81508600Y-125730000D03*
X81508600Y-123190000D03*
X81508600Y-120650000D03*
X81508600Y-118110000D03*
X81508600Y-115570000D03*
X81508600Y-113030000D03*
X81508600Y-110490000D03*
X81508600Y-107950000D03*
X81508600Y-105410000D03*
X81508600Y-102870000D03*
X81508600Y-100330000D03*
X81508600Y-97790000D03*
X81508600Y-95250000D03*
X81508600Y-92710000D03*
X81508600Y-90170000D03*
X81508600Y-87630000D03*
X81508600Y-85090000D03*
X81508600Y-82550000D03*
X81508600Y-80010000D03*
X81508600Y-77470000D03*
X81508600Y-74930000D03*
X81508600Y-72390000D03*
X81508600Y-69850000D03*
X81508600Y-64770000D03*
X81508600Y-62230000D03*
D23*
X78968600Y-143510000D03*
X78968600Y-54610000D03*
%TD*%
M02*
