%TF.GenerationSoftware,KiCad,Pcbnew,8.0.2*%
%TF.CreationDate,2024-05-13T23:51:45+02:00*%
%TF.ProjectId,M062.2,4d303632-2e32-42e6-9b69-6361645f7063,2*%
%TF.SameCoordinates,Original*%
%TF.FileFunction,Plated,1,2,PTH,Drill*%
%TF.FilePolarity,Positive*%
%FSLAX46Y46*%
G04 Gerber Fmt 4.6, Leading zero omitted, Abs format (unit mm)*
G04 Created by KiCad (PCBNEW 8.0.2) date 2024-05-13 23:51:45*
%MOMM*%
%LPD*%
G01*
G04 APERTURE LIST*
%TA.AperFunction,ViaDrill*%
%ADD10C,0.300000*%
%TD*%
%TA.AperFunction,ViaDrill*%
%ADD11C,0.500000*%
%TD*%
%TA.AperFunction,ComponentDrill*%
%ADD12C,0.800000*%
%TD*%
%TA.AperFunction,ComponentDrill*%
%ADD13C,1.000000*%
%TD*%
%TA.AperFunction,ComponentDrill*%
%ADD14C,1.100000*%
%TD*%
%TA.AperFunction,ComponentDrill*%
%ADD15C,1.200000*%
%TD*%
%TA.AperFunction,ComponentDrill*%
%ADD16C,1.300000*%
%TD*%
%TA.AperFunction,ComponentDrill*%
%ADD17C,1.400000*%
%TD*%
G04 APERTURE END LIST*
D10*
X104000000Y-62500000D03*
X105000000Y-97500000D03*
X106000000Y-108500000D03*
X106000000Y-109500000D03*
X111000000Y-64000000D03*
X111000000Y-65500000D03*
X111000000Y-91000000D03*
X111250000Y-69250000D03*
X112000000Y-63000000D03*
X112000000Y-64000000D03*
X112500000Y-110900000D03*
X113000000Y-53500000D03*
X113000000Y-99000000D03*
X114000000Y-64000000D03*
X114000000Y-111500000D03*
X115000000Y-65000000D03*
X117000000Y-50000000D03*
X117500000Y-62400000D03*
X120000000Y-53500000D03*
X121500000Y-64000000D03*
X122500000Y-64000000D03*
X123500000Y-53000000D03*
X123500000Y-54000000D03*
X123500000Y-64000000D03*
X124500000Y-64000000D03*
X125500000Y-64000000D03*
X126500000Y-76000000D03*
X127000000Y-73000000D03*
X127500000Y-90000000D03*
X127500000Y-91500000D03*
X127500000Y-94500000D03*
X128000000Y-51000000D03*
X128000000Y-52000000D03*
X128000000Y-54000000D03*
X128500000Y-108500000D03*
X129000000Y-82000000D03*
X129500000Y-54500000D03*
X130000000Y-49000000D03*
X130000000Y-65500000D03*
X132324265Y-61875735D03*
X132500000Y-59000000D03*
X133158174Y-59835190D03*
X134000000Y-58500000D03*
X134000000Y-101260000D03*
X134500000Y-89500000D03*
X134500000Y-104000000D03*
X135500000Y-61900000D03*
X136500000Y-55000000D03*
X139500000Y-57500000D03*
X140500000Y-79500000D03*
X141200000Y-108200000D03*
X141500000Y-65599999D03*
X142500000Y-97500000D03*
X142500000Y-100000000D03*
X143100000Y-61900000D03*
X144500000Y-62600000D03*
X147469937Y-52099188D03*
X147500000Y-53011026D03*
X147500000Y-55500000D03*
X147500000Y-58000000D03*
X148500000Y-58000000D03*
X148850001Y-61800000D03*
X149782843Y-111717157D03*
X149800000Y-99400000D03*
X150000000Y-49000000D03*
X150000000Y-61000000D03*
X151500000Y-62400000D03*
X151500000Y-65500000D03*
X152000000Y-56500000D03*
X152425000Y-60400000D03*
X153500000Y-62500000D03*
X153500000Y-125000000D03*
X154000000Y-59900000D03*
X154224265Y-63275735D03*
X154500000Y-49000000D03*
X154600000Y-58700000D03*
X156000000Y-72000000D03*
X156000000Y-109500000D03*
X156674265Y-63825735D03*
X157000000Y-100500000D03*
X157000000Y-162000000D03*
X158353797Y-111520608D03*
X158500000Y-49000000D03*
X158500000Y-50000000D03*
X158500000Y-63500000D03*
X158750765Y-57721475D03*
X159500000Y-50000000D03*
X159500000Y-61000000D03*
X160500000Y-49000000D03*
X161000000Y-54000000D03*
X161199995Y-61800000D03*
X162000000Y-54000000D03*
X162000000Y-57000000D03*
X162000000Y-59400000D03*
X162500000Y-49000000D03*
X163500000Y-60500000D03*
X165000000Y-49000000D03*
X166000000Y-63000000D03*
X166500000Y-151750000D03*
X166500000Y-154250000D03*
X166500000Y-157750000D03*
X166500000Y-160500000D03*
X166500000Y-162500000D03*
X166905589Y-65675172D03*
X168000000Y-64600000D03*
X170000000Y-60000000D03*
X170060000Y-52000000D03*
X170500000Y-93500000D03*
X171000000Y-51500000D03*
X171000000Y-92000000D03*
X172000000Y-52000000D03*
X172500010Y-48999990D03*
X175000004Y-49000004D03*
X176400000Y-95400000D03*
X176400000Y-98000000D03*
X177000000Y-107600000D03*
X177000000Y-111750000D03*
X177500000Y-48999996D03*
X177600000Y-99200000D03*
X178800000Y-100400000D03*
X179999990Y-49000000D03*
X180000000Y-101800000D03*
X182500000Y-146000000D03*
X182500000Y-155000000D03*
X185500000Y-106500000D03*
X189500000Y-118500000D03*
X194000000Y-89200000D03*
D11*
X186000000Y-50000000D03*
D12*
%TO.C,U8*%
X101000000Y-68000000D03*
X101000000Y-70540000D03*
X101000000Y-73080000D03*
X101000000Y-75620000D03*
X101000000Y-78160000D03*
X101000000Y-80700000D03*
X101000000Y-83240000D03*
%TO.C,U5*%
X101000000Y-90000000D03*
X101000000Y-92540000D03*
X101000000Y-95080000D03*
X101000000Y-97620000D03*
X101000000Y-100160000D03*
X101000000Y-102700000D03*
X101000000Y-105240000D03*
X101000000Y-107780000D03*
%TO.C,C2*%
X102000000Y-87000000D03*
X107000000Y-87000000D03*
%TO.C,U8*%
X108620000Y-68000000D03*
X108620000Y-70540000D03*
X108620000Y-73080000D03*
X108620000Y-75620000D03*
X108620000Y-78160000D03*
X108620000Y-80700000D03*
X108620000Y-83240000D03*
%TO.C,U5*%
X108620000Y-90000000D03*
X108620000Y-92540000D03*
X108620000Y-95080000D03*
X108620000Y-97620000D03*
X108620000Y-100160000D03*
X108620000Y-102700000D03*
X108620000Y-105240000D03*
X108620000Y-107780000D03*
%TO.C,U1*%
X116000000Y-68000000D03*
X116000000Y-70540000D03*
X116000000Y-73080000D03*
X116000000Y-75620000D03*
X116000000Y-78160000D03*
X116000000Y-80700000D03*
X116000000Y-83240000D03*
%TO.C,U3*%
X116000000Y-90000000D03*
X116000000Y-92540000D03*
X116000000Y-95080000D03*
X116000000Y-97620000D03*
X116000000Y-100160000D03*
X116000000Y-102700000D03*
X116000000Y-105240000D03*
%TO.C,C3*%
X117000000Y-87000000D03*
X122000000Y-87000000D03*
%TO.C,U1*%
X123620000Y-68000000D03*
X123620000Y-70540000D03*
X123620000Y-73080000D03*
X123620000Y-75620000D03*
X123620000Y-78160000D03*
X123620000Y-80700000D03*
X123620000Y-83240000D03*
%TO.C,U3*%
X123620000Y-90000000D03*
X123620000Y-92540000D03*
X123620000Y-95080000D03*
X123620000Y-97620000D03*
X123620000Y-100160000D03*
X123620000Y-102700000D03*
X123620000Y-105240000D03*
%TO.C,U9*%
X131000000Y-68000000D03*
X131000000Y-70540000D03*
X131000000Y-73080000D03*
X131000000Y-75620000D03*
X131000000Y-78160000D03*
X131000000Y-80700000D03*
X131000000Y-83240000D03*
%TO.C,U6*%
X131000000Y-90000000D03*
X131000000Y-92540000D03*
X131000000Y-95080000D03*
X131000000Y-97620000D03*
X131000000Y-100160000D03*
X131000000Y-102700000D03*
X131000000Y-105240000D03*
%TO.C,C4*%
X132000000Y-87000000D03*
X137000000Y-87000000D03*
%TO.C,U9*%
X138620000Y-68000000D03*
X138620000Y-70540000D03*
X138620000Y-73080000D03*
X138620000Y-75620000D03*
X138620000Y-78160000D03*
X138620000Y-80700000D03*
X138620000Y-83240000D03*
%TO.C,U6*%
X138620000Y-90000000D03*
X138620000Y-92540000D03*
X138620000Y-95080000D03*
X138620000Y-97620000D03*
X138620000Y-100160000D03*
X138620000Y-102700000D03*
X138620000Y-105240000D03*
%TO.C,R9*%
X142500000Y-116500000D03*
%TO.C,U2*%
X146000000Y-68000000D03*
X146000000Y-70540000D03*
X146000000Y-73080000D03*
X146000000Y-75620000D03*
X146000000Y-78160000D03*
X146000000Y-80700000D03*
X146000000Y-83240000D03*
%TO.C,U10*%
X146000000Y-90000000D03*
X146000000Y-92540000D03*
X146000000Y-95080000D03*
X146000000Y-97620000D03*
X146000000Y-100160000D03*
X146000000Y-102700000D03*
X146000000Y-105240000D03*
X146000000Y-107780000D03*
X146000000Y-110320000D03*
X146000000Y-112860000D03*
%TO.C,C5*%
X147000000Y-87000000D03*
X152000000Y-87000000D03*
%TO.C,U2*%
X153620000Y-68000000D03*
X153620000Y-70540000D03*
X153620000Y-73080000D03*
X153620000Y-75620000D03*
X153620000Y-78160000D03*
X153620000Y-80700000D03*
X153620000Y-83240000D03*
%TO.C,U10*%
X153620000Y-90000000D03*
X153620000Y-92540000D03*
X153620000Y-95080000D03*
X153620000Y-97620000D03*
X153620000Y-100160000D03*
X153620000Y-102700000D03*
X153620000Y-105240000D03*
X153620000Y-107780000D03*
X153620000Y-110320000D03*
X153620000Y-112860000D03*
%TO.C,R9*%
X157740000Y-116500000D03*
%TO.C,U4*%
X161000000Y-68000000D03*
X161000000Y-70540000D03*
X161000000Y-73080000D03*
X161000000Y-75620000D03*
X161000000Y-78160000D03*
X161000000Y-80700000D03*
X161000000Y-83240000D03*
%TO.C,U7*%
X161000000Y-90000000D03*
X161000000Y-92540000D03*
X161000000Y-95080000D03*
X161000000Y-97620000D03*
X161000000Y-100160000D03*
X161000000Y-102700000D03*
X161000000Y-105240000D03*
X161000000Y-107780000D03*
X161000000Y-110320000D03*
X161000000Y-112860000D03*
%TO.C,C6*%
X162000000Y-87000000D03*
X167000000Y-87000000D03*
%TO.C,U4*%
X168620000Y-68000000D03*
X168620000Y-70540000D03*
X168620000Y-73080000D03*
X168620000Y-75620000D03*
X168620000Y-78160000D03*
X168620000Y-80700000D03*
X168620000Y-83240000D03*
%TO.C,U7*%
X168620000Y-90000000D03*
X168620000Y-92540000D03*
X168620000Y-95080000D03*
X168620000Y-97620000D03*
X168620000Y-100160000D03*
X168620000Y-102700000D03*
X168620000Y-105240000D03*
X168620000Y-107780000D03*
X168620000Y-110320000D03*
X168620000Y-112860000D03*
%TO.C,R8*%
X177000000Y-64840000D03*
X177000000Y-80080000D03*
%TO.C,C7*%
X177000000Y-120500000D03*
X177000000Y-125500000D03*
%TO.C,R7*%
X181000000Y-69760000D03*
X181000000Y-85000000D03*
%TO.C,R6*%
X185000000Y-64680000D03*
X185000000Y-79920000D03*
%TO.C,R5*%
X189000000Y-69760000D03*
X189000000Y-85000000D03*
%TO.C,R4*%
X193000000Y-64680000D03*
X193000000Y-79920000D03*
%TO.C,R3*%
X197000000Y-69760000D03*
X197000000Y-85000000D03*
%TO.C,R2*%
X201000000Y-64680000D03*
X201000000Y-79920000D03*
%TO.C,R1*%
X204760000Y-69760000D03*
X204760000Y-85000000D03*
D13*
%TO.C,J1*%
X127650000Y-141875000D03*
X127650000Y-144415000D03*
X130190000Y-141875000D03*
X130190000Y-144415000D03*
X132730000Y-141875000D03*
X132730000Y-144415000D03*
X135270000Y-141875000D03*
X135270000Y-144415000D03*
%TO.C,JP2*%
X149000000Y-130000000D03*
X151540000Y-130000000D03*
%TO.C,JP4*%
X162475000Y-120350000D03*
%TO.C,JP3*%
X162475000Y-125000000D03*
%TO.C,JP1*%
X162475000Y-129650000D03*
%TO.C,U12*%
X163500000Y-151500000D03*
X163500000Y-154040000D03*
X163500000Y-156580000D03*
X163500000Y-159120000D03*
X163500000Y-161660000D03*
%TO.C,JP4*%
X165015000Y-120350000D03*
%TO.C,JP3*%
X165015000Y-125000000D03*
%TO.C,JP1*%
X165015000Y-129650000D03*
%TO.C,JP4*%
X167555000Y-120350000D03*
%TO.C,JP3*%
X167555000Y-125000000D03*
%TO.C,JP1*%
X167555000Y-129650000D03*
%TO.C,U12*%
X171120000Y-151500000D03*
X171120000Y-154040000D03*
X171120000Y-156580000D03*
X171120000Y-159120000D03*
X171120000Y-161660000D03*
%TO.C,J2*%
X175080000Y-156760000D03*
X175080000Y-159300000D03*
X177620000Y-156760000D03*
X177620000Y-159300000D03*
X180160000Y-156760000D03*
X180160000Y-159300000D03*
X182700000Y-156760000D03*
X182700000Y-159300000D03*
D14*
%TO.C,D1*%
X177000000Y-131000000D03*
X187160000Y-131000000D03*
D15*
%TO.C,C1*%
X143500000Y-56000000D03*
X168500000Y-56000000D03*
D16*
%TO.C,RV1*%
X101000000Y-115500000D03*
X101000000Y-120500000D03*
X111000000Y-118000000D03*
D17*
%TO.C,U11*%
X182760000Y-91980000D03*
X182760000Y-94520000D03*
X182760000Y-97060000D03*
X182760000Y-99600000D03*
X182760000Y-102140000D03*
X182760000Y-104680000D03*
X182760000Y-107220000D03*
X182760000Y-109760000D03*
X182760000Y-112300000D03*
X182760000Y-114840000D03*
X182760000Y-117380000D03*
X182760000Y-119920000D03*
X182760000Y-122460000D03*
X182760000Y-125000000D03*
X198000000Y-91980000D03*
X198000000Y-94520000D03*
X198000000Y-97060000D03*
X198000000Y-99600000D03*
X198000000Y-102140000D03*
X198000000Y-104680000D03*
X198000000Y-107220000D03*
X198000000Y-109760000D03*
X198000000Y-112300000D03*
X198000000Y-114840000D03*
X198000000Y-117380000D03*
X198000000Y-119920000D03*
X198000000Y-122460000D03*
X198000000Y-125000000D03*
M02*
