%TF.GenerationSoftware,KiCad,Pcbnew,8.0.2*%
%TF.CreationDate,2024-05-13T23:51:40+02:00*%
%TF.ProjectId,M062.2,4d303632-2e32-42e6-9b69-6361645f7063,2*%
%TF.SameCoordinates,Original*%
%TF.FileFunction,Soldermask,Bot*%
%TF.FilePolarity,Negative*%
%FSLAX46Y46*%
G04 Gerber Fmt 4.6, Leading zero omitted, Abs format (unit mm)*
G04 Created by KiCad (PCBNEW 8.0.2) date 2024-05-13 23:51:40*
%MOMM*%
%LPD*%
G01*
G04 APERTURE LIST*
G04 Aperture macros list*
%AMRoundRect*
0 Rectangle with rounded corners*
0 $1 Rounding radius*
0 $2 $3 $4 $5 $6 $7 $8 $9 X,Y pos of 4 corners*
0 Add a 4 corners polygon primitive as box body*
4,1,4,$2,$3,$4,$5,$6,$7,$8,$9,$2,$3,0*
0 Add four circle primitives for the rounded corners*
1,1,$1+$1,$2,$3*
1,1,$1+$1,$4,$5*
1,1,$1+$1,$6,$7*
1,1,$1+$1,$8,$9*
0 Add four rect primitives between the rounded corners*
20,1,$1+$1,$2,$3,$4,$5,0*
20,1,$1+$1,$4,$5,$6,$7,0*
20,1,$1+$1,$6,$7,$8,$9,0*
20,1,$1+$1,$8,$9,$2,$3,0*%
G04 Aperture macros list end*
%ADD10C,2.340000*%
%ADD11R,2.400000X1.600000*%
%ADD12O,2.400000X1.600000*%
%ADD13C,1.600000*%
%ADD14O,1.600000X1.600000*%
%ADD15R,2.400000X2.400000*%
%ADD16O,2.400000X2.400000*%
%ADD17RoundRect,0.150000X-0.600000X-3.100000X0.600000X-3.100000X0.600000X3.100000X-0.600000X3.100000X0*%
%ADD18R,1.700000X1.700000*%
%ADD19C,1.700000*%
%ADD20R,2.400000X2.000000*%
%ADD21O,2.400000X2.000000*%
%ADD22O,2.400000X1.900000*%
%ADD23O,1.700000X1.700000*%
%ADD24R,2.200000X2.200000*%
%ADD25O,2.200000X2.200000*%
%TA.AperFunction,Profile*%
%ADD26C,0.150000*%
%TD*%
%TA.AperFunction,Profile*%
%ADD27C,0.120000*%
%TD*%
G04 APERTURE END LIST*
D10*
%TO.C,RV1*%
X101000000Y-120500000D03*
X111000000Y-118000000D03*
X101000000Y-115500000D03*
%TD*%
D11*
%TO.C,U1*%
X116000000Y-68000000D03*
D12*
X116000000Y-70540000D03*
X116000000Y-73080000D03*
X116000000Y-75620000D03*
X116000000Y-78160000D03*
X116000000Y-80700000D03*
X116000000Y-83240000D03*
X123620000Y-83240000D03*
X123620000Y-80700000D03*
X123620000Y-78160000D03*
X123620000Y-75620000D03*
X123620000Y-73080000D03*
X123620000Y-70540000D03*
X123620000Y-68000000D03*
%TD*%
D13*
%TO.C,R6*%
X185000000Y-64680000D03*
D14*
X185000000Y-79920000D03*
%TD*%
D13*
%TO.C,R3*%
X197000000Y-85000000D03*
D14*
X197000000Y-69760000D03*
%TD*%
D15*
%TO.C,C1*%
X143500000Y-56000000D03*
D16*
X168500000Y-56000000D03*
%TD*%
D17*
%TO.C,X1*%
X186960000Y-44700000D03*
X184460000Y-44700000D03*
X179460000Y-44700000D03*
X176960000Y-44700000D03*
X174460000Y-44700000D03*
X171960000Y-44700000D03*
X169460000Y-44700000D03*
X166960000Y-44700000D03*
X164460000Y-44700000D03*
X161960000Y-44700000D03*
X159460000Y-44700000D03*
X156960000Y-44700000D03*
X154460000Y-44700000D03*
X149460000Y-44700000D03*
X146960000Y-44700000D03*
X144460000Y-44700000D03*
X141960000Y-44700000D03*
X129460000Y-44700000D03*
X124460000Y-44700000D03*
X116960000Y-44700000D03*
%TD*%
D13*
%TO.C,R9*%
X157740000Y-116500000D03*
D14*
X142500000Y-116500000D03*
%TD*%
D13*
%TO.C,R7*%
X181000000Y-85000000D03*
D14*
X181000000Y-69760000D03*
%TD*%
D18*
%TO.C,U12*%
X163500000Y-151500000D03*
D19*
X163500000Y-154040000D03*
X163500000Y-156580000D03*
X163500000Y-159120000D03*
X163500000Y-161660000D03*
X171120000Y-161660000D03*
X171120000Y-159120000D03*
X171120000Y-156580000D03*
X171120000Y-154040000D03*
X171120000Y-151500000D03*
%TD*%
D20*
%TO.C,U11*%
X198000000Y-125000000D03*
D21*
X198000000Y-122460000D03*
X198000000Y-119920000D03*
X198000000Y-117380000D03*
X198000000Y-114840000D03*
X198000000Y-112300000D03*
X198000000Y-109760000D03*
X198000000Y-107220000D03*
X198000000Y-104680000D03*
X198000000Y-102140000D03*
X198000000Y-99600000D03*
X198000000Y-97060000D03*
X198000000Y-94520000D03*
X198000000Y-91980000D03*
X182760000Y-91980000D03*
X182760000Y-94520000D03*
X182760000Y-97060000D03*
X182760000Y-99600000D03*
X182760000Y-102140000D03*
D22*
X182760000Y-104680000D03*
X182760000Y-107220000D03*
D21*
X182760000Y-109760000D03*
X182760000Y-112300000D03*
X182760000Y-114840000D03*
X182760000Y-117380000D03*
D22*
X182760000Y-119920000D03*
X182760000Y-122460000D03*
D21*
X182760000Y-125000000D03*
%TD*%
D13*
%TO.C,R1*%
X204760000Y-85000000D03*
D14*
X204760000Y-69760000D03*
%TD*%
D13*
%TO.C,R2*%
X201000000Y-64680000D03*
D14*
X201000000Y-79920000D03*
%TD*%
D11*
%TO.C,U9*%
X131000000Y-68000000D03*
D12*
X131000000Y-70540000D03*
X131000000Y-73080000D03*
X131000000Y-75620000D03*
X131000000Y-78160000D03*
X131000000Y-80700000D03*
X131000000Y-83240000D03*
X138620000Y-83240000D03*
X138620000Y-80700000D03*
X138620000Y-78160000D03*
X138620000Y-75620000D03*
X138620000Y-73080000D03*
X138620000Y-70540000D03*
X138620000Y-68000000D03*
%TD*%
D18*
%TO.C,JP4*%
X162475000Y-120350000D03*
D23*
X165015000Y-120350000D03*
X167555000Y-120350000D03*
%TD*%
D11*
%TO.C,U2*%
X146000000Y-68000000D03*
D12*
X146000000Y-70540000D03*
X146000000Y-73080000D03*
X146000000Y-75620000D03*
X146000000Y-78160000D03*
X146000000Y-80700000D03*
X146000000Y-83240000D03*
X153620000Y-83240000D03*
X153620000Y-80700000D03*
X153620000Y-78160000D03*
X153620000Y-75620000D03*
X153620000Y-73080000D03*
X153620000Y-70540000D03*
X153620000Y-68000000D03*
%TD*%
D24*
%TO.C,D1*%
X177000000Y-131000000D03*
D25*
X187160000Y-131000000D03*
%TD*%
D13*
%TO.C,C7*%
X177000000Y-125500000D03*
X177000000Y-120500000D03*
%TD*%
D11*
%TO.C,U3*%
X116000000Y-90000000D03*
D12*
X116000000Y-92540000D03*
X116000000Y-95080000D03*
X116000000Y-97620000D03*
X116000000Y-100160000D03*
X116000000Y-102700000D03*
X116000000Y-105240000D03*
X123620000Y-105240000D03*
X123620000Y-102700000D03*
X123620000Y-100160000D03*
X123620000Y-97620000D03*
X123620000Y-95080000D03*
X123620000Y-92540000D03*
X123620000Y-90000000D03*
%TD*%
D18*
%TO.C,JP2*%
X149000000Y-130000000D03*
D23*
X151540000Y-130000000D03*
%TD*%
D13*
%TO.C,C5*%
X152000000Y-87000000D03*
X147000000Y-87000000D03*
%TD*%
D18*
%TO.C,J1*%
X127650000Y-141875000D03*
D23*
X127650000Y-144415000D03*
X130190000Y-141875000D03*
X130190000Y-144415000D03*
X132730000Y-141875000D03*
X132730000Y-144415000D03*
X135270000Y-141875000D03*
X135270000Y-144415000D03*
%TD*%
D11*
%TO.C,U5*%
X101000000Y-90000000D03*
D12*
X101000000Y-92540000D03*
X101000000Y-95080000D03*
X101000000Y-97620000D03*
X101000000Y-100160000D03*
X101000000Y-102700000D03*
X101000000Y-105240000D03*
X101000000Y-107780000D03*
X108620000Y-107780000D03*
X108620000Y-105240000D03*
X108620000Y-102700000D03*
X108620000Y-100160000D03*
X108620000Y-97620000D03*
X108620000Y-95080000D03*
X108620000Y-92540000D03*
X108620000Y-90000000D03*
%TD*%
D13*
%TO.C,R4*%
X193000000Y-64680000D03*
D14*
X193000000Y-79920000D03*
%TD*%
D13*
%TO.C,C2*%
X107000000Y-87000000D03*
X102000000Y-87000000D03*
%TD*%
D11*
%TO.C,U8*%
X101000000Y-68000000D03*
D12*
X101000000Y-70540000D03*
X101000000Y-73080000D03*
X101000000Y-75620000D03*
X101000000Y-78160000D03*
X101000000Y-80700000D03*
X101000000Y-83240000D03*
X108620000Y-83240000D03*
X108620000Y-80700000D03*
X108620000Y-78160000D03*
X108620000Y-75620000D03*
X108620000Y-73080000D03*
X108620000Y-70540000D03*
X108620000Y-68000000D03*
%TD*%
D13*
%TO.C,R8*%
X177000000Y-64840000D03*
D14*
X177000000Y-80080000D03*
%TD*%
D11*
%TO.C,U7*%
X161000000Y-90000000D03*
D12*
X161000000Y-92540000D03*
X161000000Y-95080000D03*
X161000000Y-97620000D03*
X161000000Y-100160000D03*
X161000000Y-102700000D03*
X161000000Y-105240000D03*
X161000000Y-107780000D03*
X161000000Y-110320000D03*
X161000000Y-112860000D03*
X168620000Y-112860000D03*
X168620000Y-110320000D03*
X168620000Y-107780000D03*
X168620000Y-105240000D03*
X168620000Y-102700000D03*
X168620000Y-100160000D03*
X168620000Y-97620000D03*
X168620000Y-95080000D03*
X168620000Y-92540000D03*
X168620000Y-90000000D03*
%TD*%
D13*
%TO.C,R5*%
X189000000Y-85000000D03*
D14*
X189000000Y-69760000D03*
%TD*%
D13*
%TO.C,C6*%
X167000000Y-87000000D03*
X162000000Y-87000000D03*
%TD*%
%TO.C,C3*%
X122000000Y-87000000D03*
X117000000Y-87000000D03*
%TD*%
D11*
%TO.C,U4*%
X161000000Y-68000000D03*
D12*
X161000000Y-70540000D03*
X161000000Y-73080000D03*
X161000000Y-75620000D03*
X161000000Y-78160000D03*
X161000000Y-80700000D03*
X161000000Y-83240000D03*
X168620000Y-83240000D03*
X168620000Y-80700000D03*
X168620000Y-78160000D03*
X168620000Y-75620000D03*
X168620000Y-73080000D03*
X168620000Y-70540000D03*
X168620000Y-68000000D03*
%TD*%
D13*
%TO.C,C4*%
X137000000Y-87000000D03*
X132000000Y-87000000D03*
%TD*%
D11*
%TO.C,U10*%
X146000000Y-90000000D03*
D12*
X146000000Y-92540000D03*
X146000000Y-95080000D03*
X146000000Y-97620000D03*
X146000000Y-100160000D03*
X146000000Y-102700000D03*
X146000000Y-105240000D03*
X146000000Y-107780000D03*
X146000000Y-110320000D03*
X146000000Y-112860000D03*
X153620000Y-112860000D03*
X153620000Y-110320000D03*
X153620000Y-107780000D03*
X153620000Y-105240000D03*
X153620000Y-102700000D03*
X153620000Y-100160000D03*
X153620000Y-97620000D03*
X153620000Y-95080000D03*
X153620000Y-92540000D03*
X153620000Y-90000000D03*
%TD*%
D18*
%TO.C,JP1*%
X162475000Y-129650000D03*
D23*
X165015000Y-129650000D03*
X167555000Y-129650000D03*
%TD*%
D18*
%TO.C,JP3*%
X162475000Y-125000000D03*
D23*
X165015000Y-125000000D03*
X167555000Y-125000000D03*
%TD*%
D11*
%TO.C,U6*%
X131000000Y-90000000D03*
D12*
X131000000Y-92540000D03*
X131000000Y-95080000D03*
X131000000Y-97620000D03*
X131000000Y-100160000D03*
X131000000Y-102700000D03*
X131000000Y-105240000D03*
X138620000Y-105240000D03*
X138620000Y-102700000D03*
X138620000Y-100160000D03*
X138620000Y-97620000D03*
X138620000Y-95080000D03*
X138620000Y-92540000D03*
X138620000Y-90000000D03*
%TD*%
D18*
%TO.C,J2*%
X175080000Y-156760000D03*
D23*
X175080000Y-159300000D03*
X177620000Y-156760000D03*
X177620000Y-159300000D03*
X180160000Y-156760000D03*
X180160000Y-159300000D03*
X182700000Y-156760000D03*
X182700000Y-159300000D03*
%TD*%
D26*
%TO.C,X1*%
X94710000Y-51200000D02*
X94710000Y-138700000D01*
X99460000Y-138700000D02*
X94710000Y-138700000D01*
X99460000Y-138700000D02*
X99460000Y-163700000D01*
X112960000Y-154700000D02*
X112960000Y-163700000D01*
X112960000Y-154700000D02*
X138960000Y-154700000D01*
X112960000Y-163700000D02*
X99460000Y-163700000D01*
X114460000Y-41700000D02*
X114960000Y-41200000D01*
X114460000Y-51200000D02*
X94710000Y-51200000D01*
X114460000Y-51200000D02*
X114460000Y-41700000D01*
X114960000Y-41200000D02*
X188960000Y-41200000D01*
X138960000Y-154700000D02*
X138960000Y-163700000D01*
X159460000Y-147700000D02*
X159460000Y-161700000D01*
X159460000Y-161700000D02*
X161460000Y-161700000D01*
X159460000Y-162700000D02*
X159460000Y-163700000D01*
X159460000Y-162700000D02*
X161460000Y-162700000D01*
X159460000Y-163700000D02*
X138960000Y-163700000D01*
X161460000Y-149700000D02*
X161460000Y-161700000D01*
X161460000Y-162700000D02*
X161460000Y-163700000D01*
X163960000Y-147700000D02*
X159460000Y-147700000D01*
X163960000Y-147700000D02*
X163960000Y-149700000D01*
X163960000Y-149700000D02*
X161460000Y-149700000D01*
X164960000Y-147700000D02*
X164960000Y-149700000D01*
X164960000Y-147700000D02*
X181960000Y-147700000D01*
X164960000Y-149700000D02*
X181960000Y-149700000D01*
X181960000Y-149700000D02*
X181960000Y-147700000D01*
X182960000Y-147700000D02*
X187460000Y-147700000D01*
X182960000Y-149700000D02*
X182960000Y-147700000D01*
X182960000Y-149700000D02*
X185460000Y-149700000D01*
X185460000Y-149700000D02*
X185460000Y-161700000D01*
X185460000Y-161700000D02*
X187460000Y-161700000D01*
X185460000Y-162700000D02*
X185460000Y-163700000D01*
X185460000Y-162700000D02*
X187460000Y-162700000D01*
X185460000Y-163700000D02*
X161460000Y-163700000D01*
X187460000Y-147700000D02*
X187460000Y-161700000D01*
X187460000Y-162700000D02*
X187460000Y-163700000D01*
X189460000Y-41700000D02*
X188960000Y-41200000D01*
X189460000Y-41700000D02*
X189460000Y-51200000D01*
X189460000Y-51200000D02*
X209210000Y-51200000D01*
X204460000Y-138700000D02*
X204460000Y-163700000D01*
X204460000Y-163700000D02*
X187460000Y-163700000D01*
X209210000Y-51200000D02*
X209210000Y-138700000D01*
X209210000Y-138700000D02*
X204460000Y-138700000D01*
D27*
X110960000Y-58700000D02*
G75*
G02*
X108460000Y-58700000I-1250000J0D01*
G01*
X108460000Y-58700000D02*
G75*
G02*
X110960000Y-58700000I1250000J0D01*
G01*
X110960000Y-148450000D02*
G75*
G02*
X108460000Y-148450000I-1250000J0D01*
G01*
X108460000Y-148450000D02*
G75*
G02*
X110960000Y-148450000I1250000J0D01*
G01*
X195460000Y-58700000D02*
G75*
G02*
X192960000Y-58700000I-1250000J0D01*
G01*
X192960000Y-58700000D02*
G75*
G02*
X195460000Y-58700000I1250000J0D01*
G01*
X195460000Y-148450000D02*
G75*
G02*
X192960000Y-148450000I-1250000J0D01*
G01*
X192960000Y-148450000D02*
G75*
G02*
X195460000Y-148450000I1250000J0D01*
G01*
%TD*%
M02*
