%TF.GenerationSoftware,KiCad,Pcbnew,(5.1.10)-1*%
%TF.CreationDate,2022-02-03T10:32:43+01:00*%
%TF.ProjectId,IDE-Adapter,4944452d-4164-4617-9074-65722e6b6963,rev?*%
%TF.SameCoordinates,Original*%
%TF.FileFunction,Copper,L1,Top*%
%TF.FilePolarity,Positive*%
%FSLAX46Y46*%
G04 Gerber Fmt 4.6, Leading zero omitted, Abs format (unit mm)*
G04 Created by KiCad (PCBNEW (5.1.10)-1) date 2022-02-03 10:32:43*
%MOMM*%
%LPD*%
G01*
G04 APERTURE LIST*
%TA.AperFunction,ComponentPad*%
%ADD10R,1.700000X1.700000*%
%TD*%
%TA.AperFunction,ComponentPad*%
%ADD11O,1.700000X1.700000*%
%TD*%
G04 APERTURE END LIST*
D10*
%TO.P,J1,1*%
%TO.N,Net-(J1-Pad1)*%
X92710000Y-121920000D03*
D11*
%TO.P,J1,2*%
%TO.N,Net-(J1-Pad2)*%
X95250000Y-121920000D03*
%TO.P,J1,3*%
%TO.N,Net-(J1-Pad3)*%
X92710000Y-119380000D03*
%TO.P,J1,4*%
%TO.N,Net-(J1-Pad4)*%
X95250000Y-119380000D03*
%TO.P,J1,5*%
%TO.N,Net-(J1-Pad5)*%
X92710000Y-116840000D03*
%TO.P,J1,6*%
%TO.N,Net-(J1-Pad6)*%
X95250000Y-116840000D03*
%TO.P,J1,7*%
%TO.N,Net-(J1-Pad7)*%
X92710000Y-114300000D03*
%TO.P,J1,8*%
%TO.N,Net-(J1-Pad8)*%
X95250000Y-114300000D03*
%TO.P,J1,9*%
%TO.N,Net-(J1-Pad9)*%
X92710000Y-111760000D03*
%TO.P,J1,10*%
%TO.N,Net-(J1-Pad10)*%
X95250000Y-111760000D03*
%TO.P,J1,11*%
%TO.N,Net-(J1-Pad11)*%
X92710000Y-109220000D03*
%TO.P,J1,12*%
%TO.N,Net-(J1-Pad12)*%
X95250000Y-109220000D03*
%TO.P,J1,13*%
%TO.N,Net-(J1-Pad13)*%
X92710000Y-106680000D03*
%TO.P,J1,14*%
%TO.N,Net-(J1-Pad14)*%
X95250000Y-106680000D03*
%TO.P,J1,15*%
%TO.N,Net-(J1-Pad15)*%
X92710000Y-104140000D03*
%TO.P,J1,16*%
%TO.N,Net-(J1-Pad16)*%
X95250000Y-104140000D03*
%TO.P,J1,17*%
%TO.N,Net-(J1-Pad17)*%
X92710000Y-101600000D03*
%TO.P,J1,18*%
%TO.N,Net-(J1-Pad18)*%
X95250000Y-101600000D03*
%TO.P,J1,19*%
%TO.N,Net-(J1-Pad19)*%
X92710000Y-99060000D03*
%TO.P,J1,20*%
%TO.N,Net-(J1-Pad20)*%
X95250000Y-99060000D03*
%TO.P,J1,21*%
%TO.N,Net-(J1-Pad21)*%
X92710000Y-96520000D03*
%TO.P,J1,22*%
%TO.N,Net-(J1-Pad22)*%
X95250000Y-96520000D03*
%TO.P,J1,23*%
%TO.N,Net-(J1-Pad23)*%
X92710000Y-93980000D03*
%TO.P,J1,24*%
%TO.N,Net-(J1-Pad24)*%
X95250000Y-93980000D03*
%TO.P,J1,25*%
%TO.N,Net-(J1-Pad25)*%
X92710000Y-91440000D03*
%TO.P,J1,26*%
%TO.N,Net-(J1-Pad26)*%
X95250000Y-91440000D03*
%TO.P,J1,27*%
%TO.N,Net-(J1-Pad27)*%
X92710000Y-88900000D03*
%TO.P,J1,28*%
%TO.N,Net-(J1-Pad28)*%
X95250000Y-88900000D03*
%TO.P,J1,29*%
%TO.N,Net-(J1-Pad29)*%
X92710000Y-86360000D03*
%TO.P,J1,30*%
%TO.N,Net-(J1-Pad30)*%
X95250000Y-86360000D03*
%TO.P,J1,31*%
%TO.N,Net-(J1-Pad31)*%
X92710000Y-83820000D03*
%TO.P,J1,32*%
%TO.N,Net-(J1-Pad32)*%
X95250000Y-83820000D03*
%TO.P,J1,33*%
%TO.N,Net-(J1-Pad33)*%
X92710000Y-81280000D03*
%TO.P,J1,34*%
%TO.N,Net-(J1-Pad34)*%
X95250000Y-81280000D03*
%TO.P,J1,35*%
%TO.N,Net-(J1-Pad35)*%
X92710000Y-78740000D03*
%TO.P,J1,36*%
%TO.N,Net-(J1-Pad36)*%
X95250000Y-78740000D03*
%TO.P,J1,37*%
%TO.N,Net-(J1-Pad37)*%
X92710000Y-76200000D03*
%TO.P,J1,38*%
%TO.N,Net-(J1-Pad38)*%
X95250000Y-76200000D03*
%TO.P,J1,39*%
%TO.N,Net-(J1-Pad39)*%
X92710000Y-73660000D03*
%TO.P,J1,40*%
%TO.N,Net-(J1-Pad40)*%
X95250000Y-73660000D03*
%TD*%
D10*
%TO.P,J2,1*%
%TO.N,Net-(J1-Pad2)*%
X146050000Y-121920000D03*
D11*
%TO.P,J2,2*%
%TO.N,Net-(J1-Pad1)*%
X148590000Y-121920000D03*
%TO.P,J2,3*%
%TO.N,Net-(J1-Pad4)*%
X146050000Y-119380000D03*
%TO.P,J2,4*%
%TO.N,Net-(J1-Pad3)*%
X148590000Y-119380000D03*
%TO.P,J2,5*%
%TO.N,Net-(J1-Pad6)*%
X146050000Y-116840000D03*
%TO.P,J2,6*%
%TO.N,Net-(J1-Pad5)*%
X148590000Y-116840000D03*
%TO.P,J2,7*%
%TO.N,Net-(J1-Pad8)*%
X146050000Y-114300000D03*
%TO.P,J2,8*%
%TO.N,Net-(J1-Pad7)*%
X148590000Y-114300000D03*
%TO.P,J2,9*%
%TO.N,Net-(J1-Pad10)*%
X146050000Y-111760000D03*
%TO.P,J2,10*%
%TO.N,Net-(J1-Pad9)*%
X148590000Y-111760000D03*
%TO.P,J2,11*%
%TO.N,Net-(J1-Pad12)*%
X146050000Y-109220000D03*
%TO.P,J2,12*%
%TO.N,Net-(J1-Pad11)*%
X148590000Y-109220000D03*
%TO.P,J2,13*%
%TO.N,Net-(J1-Pad14)*%
X146050000Y-106680000D03*
%TO.P,J2,14*%
%TO.N,Net-(J1-Pad13)*%
X148590000Y-106680000D03*
%TO.P,J2,15*%
%TO.N,Net-(J1-Pad16)*%
X146050000Y-104140000D03*
%TO.P,J2,16*%
%TO.N,Net-(J1-Pad15)*%
X148590000Y-104140000D03*
%TO.P,J2,17*%
%TO.N,Net-(J1-Pad18)*%
X146050000Y-101600000D03*
%TO.P,J2,18*%
%TO.N,Net-(J1-Pad17)*%
X148590000Y-101600000D03*
%TO.P,J2,19*%
%TO.N,Net-(J1-Pad20)*%
X146050000Y-99060000D03*
%TO.P,J2,20*%
%TO.N,Net-(J1-Pad19)*%
X148590000Y-99060000D03*
%TO.P,J2,21*%
%TO.N,Net-(J1-Pad22)*%
X146050000Y-96520000D03*
%TO.P,J2,22*%
%TO.N,Net-(J1-Pad21)*%
X148590000Y-96520000D03*
%TO.P,J2,23*%
%TO.N,Net-(J1-Pad24)*%
X146050000Y-93980000D03*
%TO.P,J2,24*%
%TO.N,Net-(J1-Pad23)*%
X148590000Y-93980000D03*
%TO.P,J2,25*%
%TO.N,Net-(J1-Pad26)*%
X146050000Y-91440000D03*
%TO.P,J2,26*%
%TO.N,Net-(J1-Pad25)*%
X148590000Y-91440000D03*
%TO.P,J2,27*%
%TO.N,Net-(J1-Pad28)*%
X146050000Y-88900000D03*
%TO.P,J2,28*%
%TO.N,Net-(J1-Pad27)*%
X148590000Y-88900000D03*
%TO.P,J2,29*%
%TO.N,Net-(J1-Pad30)*%
X146050000Y-86360000D03*
%TO.P,J2,30*%
%TO.N,Net-(J1-Pad29)*%
X148590000Y-86360000D03*
%TO.P,J2,31*%
%TO.N,Net-(J1-Pad32)*%
X146050000Y-83820000D03*
%TO.P,J2,32*%
%TO.N,Net-(J1-Pad31)*%
X148590000Y-83820000D03*
%TO.P,J2,33*%
%TO.N,Net-(J1-Pad34)*%
X146050000Y-81280000D03*
%TO.P,J2,34*%
%TO.N,Net-(J1-Pad33)*%
X148590000Y-81280000D03*
%TO.P,J2,35*%
%TO.N,Net-(J1-Pad36)*%
X146050000Y-78740000D03*
%TO.P,J2,36*%
%TO.N,Net-(J1-Pad35)*%
X148590000Y-78740000D03*
%TO.P,J2,37*%
%TO.N,Net-(J1-Pad38)*%
X146050000Y-76200000D03*
%TO.P,J2,38*%
%TO.N,Net-(J1-Pad37)*%
X148590000Y-76200000D03*
%TO.P,J2,39*%
%TO.N,Net-(J1-Pad40)*%
X146050000Y-73660000D03*
%TO.P,J2,40*%
%TO.N,Net-(J1-Pad39)*%
X148590000Y-73660000D03*
%TD*%
M02*
