%TF.GenerationSoftware,KiCad,Pcbnew,(5.1.10)-1*%
%TF.CreationDate,2022-02-03T10:32:43+01:00*%
%TF.ProjectId,IDE-Adapter,4944452d-4164-4617-9074-65722e6b6963,rev?*%
%TF.SameCoordinates,Original*%
%TF.FileFunction,Other,Fab,Top*%
%FSLAX46Y46*%
G04 Gerber Fmt 4.6, Leading zero omitted, Abs format (unit mm)*
G04 Created by KiCad (PCBNEW (5.1.10)-1) date 2022-02-03 10:32:43*
%MOMM*%
%LPD*%
G01*
G04 APERTURE LIST*
%ADD10C,0.100000*%
%ADD11C,0.150000*%
G04 APERTURE END LIST*
D10*
%TO.C,J1*%
X96520000Y-123190000D02*
X92440000Y-123190000D01*
X92440000Y-123190000D02*
X91440000Y-122190000D01*
X91440000Y-122190000D02*
X91440000Y-72390000D01*
X91440000Y-72390000D02*
X96520000Y-72390000D01*
X96520000Y-72390000D02*
X96520000Y-123190000D01*
%TO.C,J2*%
X158620000Y-123190000D02*
X151080000Y-123190000D01*
X151080000Y-123190000D02*
X150110000Y-122220000D01*
X150110000Y-122220000D02*
X150110000Y-72390000D01*
X150110000Y-72390000D02*
X158620000Y-72390000D01*
X158620000Y-72390000D02*
X158620000Y-123190000D01*
X146050000Y-122220000D02*
X150110000Y-122220000D01*
X150110000Y-121620000D02*
X146050000Y-121620000D01*
X146050000Y-121620000D02*
X146050000Y-122220000D01*
X146050000Y-119680000D02*
X150110000Y-119680000D01*
X150110000Y-119080000D02*
X146050000Y-119080000D01*
X146050000Y-119080000D02*
X146050000Y-119680000D01*
X146050000Y-117140000D02*
X150110000Y-117140000D01*
X150110000Y-116540000D02*
X146050000Y-116540000D01*
X146050000Y-116540000D02*
X146050000Y-117140000D01*
X146050000Y-114600000D02*
X150110000Y-114600000D01*
X150110000Y-114000000D02*
X146050000Y-114000000D01*
X146050000Y-114000000D02*
X146050000Y-114600000D01*
X146050000Y-112060000D02*
X150110000Y-112060000D01*
X150110000Y-111460000D02*
X146050000Y-111460000D01*
X146050000Y-111460000D02*
X146050000Y-112060000D01*
X146050000Y-109520000D02*
X150110000Y-109520000D01*
X150110000Y-108920000D02*
X146050000Y-108920000D01*
X146050000Y-108920000D02*
X146050000Y-109520000D01*
X146050000Y-106980000D02*
X150110000Y-106980000D01*
X150110000Y-106380000D02*
X146050000Y-106380000D01*
X146050000Y-106380000D02*
X146050000Y-106980000D01*
X146050000Y-104440000D02*
X150110000Y-104440000D01*
X150110000Y-103840000D02*
X146050000Y-103840000D01*
X146050000Y-103840000D02*
X146050000Y-104440000D01*
X146050000Y-101900000D02*
X150110000Y-101900000D01*
X150110000Y-101300000D02*
X146050000Y-101300000D01*
X146050000Y-101300000D02*
X146050000Y-101900000D01*
X146050000Y-99360000D02*
X150110000Y-99360000D01*
X150110000Y-98760000D02*
X146050000Y-98760000D01*
X146050000Y-98760000D02*
X146050000Y-99360000D01*
X146050000Y-96820000D02*
X150110000Y-96820000D01*
X150110000Y-96220000D02*
X146050000Y-96220000D01*
X146050000Y-96220000D02*
X146050000Y-96820000D01*
X146050000Y-94280000D02*
X150110000Y-94280000D01*
X150110000Y-93680000D02*
X146050000Y-93680000D01*
X146050000Y-93680000D02*
X146050000Y-94280000D01*
X146050000Y-91740000D02*
X150110000Y-91740000D01*
X150110000Y-91140000D02*
X146050000Y-91140000D01*
X146050000Y-91140000D02*
X146050000Y-91740000D01*
X146050000Y-89200000D02*
X150110000Y-89200000D01*
X150110000Y-88600000D02*
X146050000Y-88600000D01*
X146050000Y-88600000D02*
X146050000Y-89200000D01*
X146050000Y-86660000D02*
X150110000Y-86660000D01*
X150110000Y-86060000D02*
X146050000Y-86060000D01*
X146050000Y-86060000D02*
X146050000Y-86660000D01*
X146050000Y-84120000D02*
X150110000Y-84120000D01*
X150110000Y-83520000D02*
X146050000Y-83520000D01*
X146050000Y-83520000D02*
X146050000Y-84120000D01*
X146050000Y-81580000D02*
X150110000Y-81580000D01*
X150110000Y-80980000D02*
X146050000Y-80980000D01*
X146050000Y-80980000D02*
X146050000Y-81580000D01*
X146050000Y-79040000D02*
X150110000Y-79040000D01*
X150110000Y-78440000D02*
X146050000Y-78440000D01*
X146050000Y-78440000D02*
X146050000Y-79040000D01*
X146050000Y-76500000D02*
X150110000Y-76500000D01*
X150110000Y-75900000D02*
X146050000Y-75900000D01*
X146050000Y-75900000D02*
X146050000Y-76500000D01*
X146050000Y-73960000D02*
X150110000Y-73960000D01*
X150110000Y-73360000D02*
X146050000Y-73360000D01*
X146050000Y-73360000D02*
X146050000Y-73960000D01*
%TD*%
%TO.C,J1*%
D11*
X86337142Y-71247142D02*
X86289523Y-71294761D01*
X86146666Y-71342380D01*
X86051428Y-71342380D01*
X85908571Y-71294761D01*
X85813333Y-71199523D01*
X85765714Y-71104285D01*
X85718095Y-70913809D01*
X85718095Y-70770952D01*
X85765714Y-70580476D01*
X85813333Y-70485238D01*
X85908571Y-70390000D01*
X86051428Y-70342380D01*
X86146666Y-70342380D01*
X86289523Y-70390000D01*
X86337142Y-70437619D01*
X86908571Y-71342380D02*
X86813333Y-71294761D01*
X86765714Y-71247142D01*
X86718095Y-71151904D01*
X86718095Y-70866190D01*
X86765714Y-70770952D01*
X86813333Y-70723333D01*
X86908571Y-70675714D01*
X87051428Y-70675714D01*
X87146666Y-70723333D01*
X87194285Y-70770952D01*
X87241904Y-70866190D01*
X87241904Y-71151904D01*
X87194285Y-71247142D01*
X87146666Y-71294761D01*
X87051428Y-71342380D01*
X86908571Y-71342380D01*
X87670476Y-70675714D02*
X87670476Y-71342380D01*
X87670476Y-70770952D02*
X87718095Y-70723333D01*
X87813333Y-70675714D01*
X87956190Y-70675714D01*
X88051428Y-70723333D01*
X88099047Y-70818571D01*
X88099047Y-71342380D01*
X88575238Y-70675714D02*
X88575238Y-71342380D01*
X88575238Y-70770952D02*
X88622857Y-70723333D01*
X88718095Y-70675714D01*
X88860952Y-70675714D01*
X88956190Y-70723333D01*
X89003809Y-70818571D01*
X89003809Y-71342380D01*
X89241904Y-71437619D02*
X90003809Y-71437619D01*
X90432380Y-70342380D02*
X90527619Y-70342380D01*
X90622857Y-70390000D01*
X90670476Y-70437619D01*
X90718095Y-70532857D01*
X90765714Y-70723333D01*
X90765714Y-70961428D01*
X90718095Y-71151904D01*
X90670476Y-71247142D01*
X90622857Y-71294761D01*
X90527619Y-71342380D01*
X90432380Y-71342380D01*
X90337142Y-71294761D01*
X90289523Y-71247142D01*
X90241904Y-71151904D01*
X90194285Y-70961428D01*
X90194285Y-70723333D01*
X90241904Y-70532857D01*
X90289523Y-70437619D01*
X90337142Y-70390000D01*
X90432380Y-70342380D01*
X91146666Y-70437619D02*
X91194285Y-70390000D01*
X91289523Y-70342380D01*
X91527619Y-70342380D01*
X91622857Y-70390000D01*
X91670476Y-70437619D01*
X91718095Y-70532857D01*
X91718095Y-70628095D01*
X91670476Y-70770952D01*
X91099047Y-71342380D01*
X91718095Y-71342380D01*
X92051428Y-71342380D02*
X92575238Y-70675714D01*
X92051428Y-70675714D02*
X92575238Y-71342380D01*
X92908571Y-70437619D02*
X92956190Y-70390000D01*
X93051428Y-70342380D01*
X93289523Y-70342380D01*
X93384761Y-70390000D01*
X93432380Y-70437619D01*
X93480000Y-70532857D01*
X93480000Y-70628095D01*
X93432380Y-70770952D01*
X92860952Y-71342380D01*
X93480000Y-71342380D01*
X94099047Y-70342380D02*
X94194285Y-70342380D01*
X94289523Y-70390000D01*
X94337142Y-70437619D01*
X94384761Y-70532857D01*
X94432380Y-70723333D01*
X94432380Y-70961428D01*
X94384761Y-71151904D01*
X94337142Y-71247142D01*
X94289523Y-71294761D01*
X94194285Y-71342380D01*
X94099047Y-71342380D01*
X94003809Y-71294761D01*
X93956190Y-71247142D01*
X93908571Y-71151904D01*
X93860952Y-70961428D01*
X93860952Y-70723333D01*
X93908571Y-70532857D01*
X93956190Y-70437619D01*
X94003809Y-70390000D01*
X94099047Y-70342380D01*
X94622857Y-71437619D02*
X95384761Y-71437619D01*
X95813333Y-70342380D02*
X96003809Y-70342380D01*
X96099047Y-70390000D01*
X96194285Y-70485238D01*
X96241904Y-70675714D01*
X96241904Y-71009047D01*
X96194285Y-71199523D01*
X96099047Y-71294761D01*
X96003809Y-71342380D01*
X95813333Y-71342380D01*
X95718095Y-71294761D01*
X95622857Y-71199523D01*
X95575238Y-71009047D01*
X95575238Y-70675714D01*
X95622857Y-70485238D01*
X95718095Y-70390000D01*
X95813333Y-70342380D01*
X97099047Y-71342380D02*
X97099047Y-70342380D01*
X97099047Y-71294761D02*
X97003809Y-71342380D01*
X96813333Y-71342380D01*
X96718095Y-71294761D01*
X96670476Y-71247142D01*
X96622857Y-71151904D01*
X96622857Y-70866190D01*
X96670476Y-70770952D01*
X96718095Y-70723333D01*
X96813333Y-70675714D01*
X97003809Y-70675714D01*
X97099047Y-70723333D01*
X98003809Y-71342380D02*
X98003809Y-70342380D01*
X98003809Y-71294761D02*
X97908571Y-71342380D01*
X97718095Y-71342380D01*
X97622857Y-71294761D01*
X97575238Y-71247142D01*
X97527619Y-71151904D01*
X97527619Y-70866190D01*
X97575238Y-70770952D01*
X97622857Y-70723333D01*
X97718095Y-70675714D01*
X97908571Y-70675714D01*
X98003809Y-70723333D01*
X98241904Y-71437619D02*
X99003809Y-71437619D01*
X99241904Y-70818571D02*
X99575238Y-70818571D01*
X99718095Y-71342380D02*
X99241904Y-71342380D01*
X99241904Y-70342380D01*
X99718095Y-70342380D01*
X100051428Y-70675714D02*
X100289523Y-71342380D01*
X100527619Y-70675714D01*
X101289523Y-71294761D02*
X101194285Y-71342380D01*
X101003809Y-71342380D01*
X100908571Y-71294761D01*
X100860952Y-71199523D01*
X100860952Y-70818571D01*
X100908571Y-70723333D01*
X101003809Y-70675714D01*
X101194285Y-70675714D01*
X101289523Y-70723333D01*
X101337142Y-70818571D01*
X101337142Y-70913809D01*
X100860952Y-71009047D01*
X101765714Y-70675714D02*
X101765714Y-71342380D01*
X101765714Y-70770952D02*
X101813333Y-70723333D01*
X101908571Y-70675714D01*
X102051428Y-70675714D01*
X102146666Y-70723333D01*
X102194285Y-70818571D01*
X102194285Y-71342380D01*
X93432380Y-98123333D02*
X94146666Y-98123333D01*
X94289523Y-98170952D01*
X94384761Y-98266190D01*
X94432380Y-98409047D01*
X94432380Y-98504285D01*
X94432380Y-97123333D02*
X94432380Y-97694761D01*
X94432380Y-97409047D02*
X93432380Y-97409047D01*
X93575238Y-97504285D01*
X93670476Y-97599523D01*
X93718095Y-97694761D01*
%TO.C,J2*%
X144057142Y-71247142D02*
X144009523Y-71294761D01*
X143866666Y-71342380D01*
X143771428Y-71342380D01*
X143628571Y-71294761D01*
X143533333Y-71199523D01*
X143485714Y-71104285D01*
X143438095Y-70913809D01*
X143438095Y-70770952D01*
X143485714Y-70580476D01*
X143533333Y-70485238D01*
X143628571Y-70390000D01*
X143771428Y-70342380D01*
X143866666Y-70342380D01*
X144009523Y-70390000D01*
X144057142Y-70437619D01*
X144628571Y-71342380D02*
X144533333Y-71294761D01*
X144485714Y-71247142D01*
X144438095Y-71151904D01*
X144438095Y-70866190D01*
X144485714Y-70770952D01*
X144533333Y-70723333D01*
X144628571Y-70675714D01*
X144771428Y-70675714D01*
X144866666Y-70723333D01*
X144914285Y-70770952D01*
X144961904Y-70866190D01*
X144961904Y-71151904D01*
X144914285Y-71247142D01*
X144866666Y-71294761D01*
X144771428Y-71342380D01*
X144628571Y-71342380D01*
X145390476Y-70675714D02*
X145390476Y-71342380D01*
X145390476Y-70770952D02*
X145438095Y-70723333D01*
X145533333Y-70675714D01*
X145676190Y-70675714D01*
X145771428Y-70723333D01*
X145819047Y-70818571D01*
X145819047Y-71342380D01*
X146295238Y-70675714D02*
X146295238Y-71342380D01*
X146295238Y-70770952D02*
X146342857Y-70723333D01*
X146438095Y-70675714D01*
X146580952Y-70675714D01*
X146676190Y-70723333D01*
X146723809Y-70818571D01*
X146723809Y-71342380D01*
X146961904Y-71437619D02*
X147723809Y-71437619D01*
X148152380Y-70342380D02*
X148247619Y-70342380D01*
X148342857Y-70390000D01*
X148390476Y-70437619D01*
X148438095Y-70532857D01*
X148485714Y-70723333D01*
X148485714Y-70961428D01*
X148438095Y-71151904D01*
X148390476Y-71247142D01*
X148342857Y-71294761D01*
X148247619Y-71342380D01*
X148152380Y-71342380D01*
X148057142Y-71294761D01*
X148009523Y-71247142D01*
X147961904Y-71151904D01*
X147914285Y-70961428D01*
X147914285Y-70723333D01*
X147961904Y-70532857D01*
X148009523Y-70437619D01*
X148057142Y-70390000D01*
X148152380Y-70342380D01*
X148866666Y-70437619D02*
X148914285Y-70390000D01*
X149009523Y-70342380D01*
X149247619Y-70342380D01*
X149342857Y-70390000D01*
X149390476Y-70437619D01*
X149438095Y-70532857D01*
X149438095Y-70628095D01*
X149390476Y-70770952D01*
X148819047Y-71342380D01*
X149438095Y-71342380D01*
X149771428Y-71342380D02*
X150295238Y-70675714D01*
X149771428Y-70675714D02*
X150295238Y-71342380D01*
X150628571Y-70437619D02*
X150676190Y-70390000D01*
X150771428Y-70342380D01*
X151009523Y-70342380D01*
X151104761Y-70390000D01*
X151152380Y-70437619D01*
X151200000Y-70532857D01*
X151200000Y-70628095D01*
X151152380Y-70770952D01*
X150580952Y-71342380D01*
X151200000Y-71342380D01*
X151819047Y-70342380D02*
X151914285Y-70342380D01*
X152009523Y-70390000D01*
X152057142Y-70437619D01*
X152104761Y-70532857D01*
X152152380Y-70723333D01*
X152152380Y-70961428D01*
X152104761Y-71151904D01*
X152057142Y-71247142D01*
X152009523Y-71294761D01*
X151914285Y-71342380D01*
X151819047Y-71342380D01*
X151723809Y-71294761D01*
X151676190Y-71247142D01*
X151628571Y-71151904D01*
X151580952Y-70961428D01*
X151580952Y-70723333D01*
X151628571Y-70532857D01*
X151676190Y-70437619D01*
X151723809Y-70390000D01*
X151819047Y-70342380D01*
X152342857Y-71437619D02*
X153104761Y-71437619D01*
X153533333Y-70342380D02*
X153723809Y-70342380D01*
X153819047Y-70390000D01*
X153914285Y-70485238D01*
X153961904Y-70675714D01*
X153961904Y-71009047D01*
X153914285Y-71199523D01*
X153819047Y-71294761D01*
X153723809Y-71342380D01*
X153533333Y-71342380D01*
X153438095Y-71294761D01*
X153342857Y-71199523D01*
X153295238Y-71009047D01*
X153295238Y-70675714D01*
X153342857Y-70485238D01*
X153438095Y-70390000D01*
X153533333Y-70342380D01*
X154819047Y-71342380D02*
X154819047Y-70342380D01*
X154819047Y-71294761D02*
X154723809Y-71342380D01*
X154533333Y-71342380D01*
X154438095Y-71294761D01*
X154390476Y-71247142D01*
X154342857Y-71151904D01*
X154342857Y-70866190D01*
X154390476Y-70770952D01*
X154438095Y-70723333D01*
X154533333Y-70675714D01*
X154723809Y-70675714D01*
X154819047Y-70723333D01*
X155723809Y-71342380D02*
X155723809Y-70342380D01*
X155723809Y-71294761D02*
X155628571Y-71342380D01*
X155438095Y-71342380D01*
X155342857Y-71294761D01*
X155295238Y-71247142D01*
X155247619Y-71151904D01*
X155247619Y-70866190D01*
X155295238Y-70770952D01*
X155342857Y-70723333D01*
X155438095Y-70675714D01*
X155628571Y-70675714D01*
X155723809Y-70723333D01*
X155961904Y-71437619D02*
X156723809Y-71437619D01*
X156961904Y-70818571D02*
X157295238Y-70818571D01*
X157438095Y-71342380D02*
X156961904Y-71342380D01*
X156961904Y-70342380D01*
X157438095Y-70342380D01*
X157771428Y-70675714D02*
X158009523Y-71342380D01*
X158247619Y-70675714D01*
X159009523Y-71294761D02*
X158914285Y-71342380D01*
X158723809Y-71342380D01*
X158628571Y-71294761D01*
X158580952Y-71199523D01*
X158580952Y-70818571D01*
X158628571Y-70723333D01*
X158723809Y-70675714D01*
X158914285Y-70675714D01*
X159009523Y-70723333D01*
X159057142Y-70818571D01*
X159057142Y-70913809D01*
X158580952Y-71009047D01*
X159485714Y-70675714D02*
X159485714Y-71342380D01*
X159485714Y-70770952D02*
X159533333Y-70723333D01*
X159628571Y-70675714D01*
X159771428Y-70675714D01*
X159866666Y-70723333D01*
X159914285Y-70818571D01*
X159914285Y-71342380D01*
X153817380Y-98123333D02*
X154531666Y-98123333D01*
X154674523Y-98170952D01*
X154769761Y-98266190D01*
X154817380Y-98409047D01*
X154817380Y-98504285D01*
X153912619Y-97694761D02*
X153865000Y-97647142D01*
X153817380Y-97551904D01*
X153817380Y-97313809D01*
X153865000Y-97218571D01*
X153912619Y-97170952D01*
X154007857Y-97123333D01*
X154103095Y-97123333D01*
X154245952Y-97170952D01*
X154817380Y-97742380D01*
X154817380Y-97123333D01*
%TD*%
M02*
