%TF.GenerationSoftware,KiCad,Pcbnew,8.0.1*%
%TF.CreationDate,2024-04-14T22:32:59+02:00*%
%TF.ProjectId,M062.2,4d303632-2e32-42e6-9b69-6361645f7063,1*%
%TF.SameCoordinates,Original*%
%TF.FileFunction,Legend,Bot*%
%TF.FilePolarity,Positive*%
%FSLAX46Y46*%
G04 Gerber Fmt 4.6, Leading zero omitted, Abs format (unit mm)*
G04 Created by KiCad (PCBNEW 8.0.1) date 2024-04-14 22:32:59*
%MOMM*%
%LPD*%
G01*
G04 APERTURE LIST*
%ADD10C,0.150000*%
%ADD11C,0.120000*%
G04 APERTURE END LIST*
D10*
X172204819Y-158596666D02*
X172919104Y-158596666D01*
X172919104Y-158596666D02*
X173061961Y-158549047D01*
X173061961Y-158549047D02*
X173157200Y-158453809D01*
X173157200Y-158453809D02*
X173204819Y-158310952D01*
X173204819Y-158310952D02*
X173204819Y-158215714D01*
X172300057Y-159025238D02*
X172252438Y-159072857D01*
X172252438Y-159072857D02*
X172204819Y-159168095D01*
X172204819Y-159168095D02*
X172204819Y-159406190D01*
X172204819Y-159406190D02*
X172252438Y-159501428D01*
X172252438Y-159501428D02*
X172300057Y-159549047D01*
X172300057Y-159549047D02*
X172395295Y-159596666D01*
X172395295Y-159596666D02*
X172490533Y-159596666D01*
X172490533Y-159596666D02*
X172633390Y-159549047D01*
X172633390Y-159549047D02*
X173204819Y-158977619D01*
X173204819Y-158977619D02*
X173204819Y-159596666D01*
D11*
%TO.C,J2*%
X173750000Y-156330000D02*
X175080000Y-156330000D01*
X173750000Y-157660000D02*
X173750000Y-156330000D01*
X173750000Y-158930000D02*
X176350000Y-158930000D01*
X173750000Y-161530000D02*
X173750000Y-158930000D01*
X176350000Y-158930000D02*
X176350000Y-156330000D01*
X184030000Y-156330000D02*
X176350000Y-156330000D01*
X184030000Y-161530000D02*
X173750000Y-161530000D01*
X184030000Y-161530000D02*
X184030000Y-156330000D01*
%TD*%
M02*
