%TF.GenerationSoftware,KiCad,Pcbnew,8.0.1*%
%TF.CreationDate,2024-04-14T22:32:59+02:00*%
%TF.ProjectId,M062.2,4d303632-2e32-42e6-9b69-6361645f7063,1*%
%TF.SameCoordinates,Original*%
%TF.FileFunction,Legend,Top*%
%TF.FilePolarity,Positive*%
%FSLAX46Y46*%
G04 Gerber Fmt 4.6, Leading zero omitted, Abs format (unit mm)*
G04 Created by KiCad (PCBNEW 8.0.1) date 2024-04-14 22:32:59*
%MOMM*%
%LPD*%
G01*
G04 APERTURE LIST*
%ADD10C,0.100000*%
%ADD11C,0.200000*%
%ADD12C,0.150000*%
%ADD13C,0.120000*%
G04 APERTURE END LIST*
D10*
X177500000Y-49500000D02*
X177500000Y-50000000D01*
X129500000Y-49500000D02*
X129500000Y-50000000D01*
X187000000Y-49500000D02*
X187000000Y-50000000D01*
X117000000Y-49500000D02*
X117000000Y-50000000D01*
X165000000Y-49500000D02*
X165000000Y-50000000D01*
X142000000Y-49500000D02*
X142000000Y-50000000D01*
D11*
X105744838Y-81392231D02*
X103744838Y-81392231D01*
X103744838Y-81392231D02*
X103744838Y-80916041D01*
X103744838Y-80916041D02*
X103840076Y-80630326D01*
X103840076Y-80630326D02*
X104030552Y-80439850D01*
X104030552Y-80439850D02*
X104221028Y-80344612D01*
X104221028Y-80344612D02*
X104601980Y-80249374D01*
X104601980Y-80249374D02*
X104887695Y-80249374D01*
X104887695Y-80249374D02*
X105268647Y-80344612D01*
X105268647Y-80344612D02*
X105459123Y-80439850D01*
X105459123Y-80439850D02*
X105649600Y-80630326D01*
X105649600Y-80630326D02*
X105744838Y-80916041D01*
X105744838Y-80916041D02*
X105744838Y-81392231D01*
X105744838Y-78439850D02*
X105744838Y-79392231D01*
X105744838Y-79392231D02*
X103744838Y-79392231D01*
X103744838Y-77392231D02*
X103744838Y-77201754D01*
X103744838Y-77201754D02*
X103840076Y-77011278D01*
X103840076Y-77011278D02*
X103935314Y-76916040D01*
X103935314Y-76916040D02*
X104125790Y-76820802D01*
X104125790Y-76820802D02*
X104506742Y-76725564D01*
X104506742Y-76725564D02*
X104982933Y-76725564D01*
X104982933Y-76725564D02*
X105363885Y-76820802D01*
X105363885Y-76820802D02*
X105554361Y-76916040D01*
X105554361Y-76916040D02*
X105649600Y-77011278D01*
X105649600Y-77011278D02*
X105744838Y-77201754D01*
X105744838Y-77201754D02*
X105744838Y-77392231D01*
X105744838Y-77392231D02*
X105649600Y-77582707D01*
X105649600Y-77582707D02*
X105554361Y-77677945D01*
X105554361Y-77677945D02*
X105363885Y-77773183D01*
X105363885Y-77773183D02*
X104982933Y-77868421D01*
X104982933Y-77868421D02*
X104506742Y-77868421D01*
X104506742Y-77868421D02*
X104125790Y-77773183D01*
X104125790Y-77773183D02*
X103935314Y-77677945D01*
X103935314Y-77677945D02*
X103840076Y-77582707D01*
X103840076Y-77582707D02*
X103744838Y-77392231D01*
X105744838Y-74820802D02*
X105744838Y-75963659D01*
X105744838Y-75392231D02*
X103744838Y-75392231D01*
X103744838Y-75392231D02*
X104030552Y-75582707D01*
X104030552Y-75582707D02*
X104221028Y-75773183D01*
X104221028Y-75773183D02*
X104316266Y-75963659D01*
X105744838Y-72916040D02*
X105744838Y-74058897D01*
X105744838Y-73487469D02*
X103744838Y-73487469D01*
X103744838Y-73487469D02*
X104030552Y-73677945D01*
X104030552Y-73677945D02*
X104221028Y-73868421D01*
X104221028Y-73868421D02*
X104316266Y-74058897D01*
X105744838Y-72058897D02*
X103744838Y-72058897D01*
X103744838Y-72058897D02*
X103744838Y-71582707D01*
X103744838Y-71582707D02*
X103840076Y-71296992D01*
X103840076Y-71296992D02*
X104030552Y-71106516D01*
X104030552Y-71106516D02*
X104221028Y-71011278D01*
X104221028Y-71011278D02*
X104601980Y-70916040D01*
X104601980Y-70916040D02*
X104887695Y-70916040D01*
X104887695Y-70916040D02*
X105268647Y-71011278D01*
X105268647Y-71011278D02*
X105459123Y-71106516D01*
X105459123Y-71106516D02*
X105649600Y-71296992D01*
X105649600Y-71296992D02*
X105744838Y-71582707D01*
X105744838Y-71582707D02*
X105744838Y-72058897D01*
X165744838Y-81392231D02*
X163744838Y-81392231D01*
X163744838Y-81392231D02*
X163744838Y-80916041D01*
X163744838Y-80916041D02*
X163840076Y-80630326D01*
X163840076Y-80630326D02*
X164030552Y-80439850D01*
X164030552Y-80439850D02*
X164221028Y-80344612D01*
X164221028Y-80344612D02*
X164601980Y-80249374D01*
X164601980Y-80249374D02*
X164887695Y-80249374D01*
X164887695Y-80249374D02*
X165268647Y-80344612D01*
X165268647Y-80344612D02*
X165459123Y-80439850D01*
X165459123Y-80439850D02*
X165649600Y-80630326D01*
X165649600Y-80630326D02*
X165744838Y-80916041D01*
X165744838Y-80916041D02*
X165744838Y-81392231D01*
X165744838Y-78439850D02*
X165744838Y-79392231D01*
X165744838Y-79392231D02*
X163744838Y-79392231D01*
X163744838Y-77392231D02*
X163744838Y-77201754D01*
X163744838Y-77201754D02*
X163840076Y-77011278D01*
X163840076Y-77011278D02*
X163935314Y-76916040D01*
X163935314Y-76916040D02*
X164125790Y-76820802D01*
X164125790Y-76820802D02*
X164506742Y-76725564D01*
X164506742Y-76725564D02*
X164982933Y-76725564D01*
X164982933Y-76725564D02*
X165363885Y-76820802D01*
X165363885Y-76820802D02*
X165554361Y-76916040D01*
X165554361Y-76916040D02*
X165649600Y-77011278D01*
X165649600Y-77011278D02*
X165744838Y-77201754D01*
X165744838Y-77201754D02*
X165744838Y-77392231D01*
X165744838Y-77392231D02*
X165649600Y-77582707D01*
X165649600Y-77582707D02*
X165554361Y-77677945D01*
X165554361Y-77677945D02*
X165363885Y-77773183D01*
X165363885Y-77773183D02*
X164982933Y-77868421D01*
X164982933Y-77868421D02*
X164506742Y-77868421D01*
X164506742Y-77868421D02*
X164125790Y-77773183D01*
X164125790Y-77773183D02*
X163935314Y-77677945D01*
X163935314Y-77677945D02*
X163840076Y-77582707D01*
X163840076Y-77582707D02*
X163744838Y-77392231D01*
X163744838Y-75487469D02*
X163744838Y-75296992D01*
X163744838Y-75296992D02*
X163840076Y-75106516D01*
X163840076Y-75106516D02*
X163935314Y-75011278D01*
X163935314Y-75011278D02*
X164125790Y-74916040D01*
X164125790Y-74916040D02*
X164506742Y-74820802D01*
X164506742Y-74820802D02*
X164982933Y-74820802D01*
X164982933Y-74820802D02*
X165363885Y-74916040D01*
X165363885Y-74916040D02*
X165554361Y-75011278D01*
X165554361Y-75011278D02*
X165649600Y-75106516D01*
X165649600Y-75106516D02*
X165744838Y-75296992D01*
X165744838Y-75296992D02*
X165744838Y-75487469D01*
X165744838Y-75487469D02*
X165649600Y-75677945D01*
X165649600Y-75677945D02*
X165554361Y-75773183D01*
X165554361Y-75773183D02*
X165363885Y-75868421D01*
X165363885Y-75868421D02*
X164982933Y-75963659D01*
X164982933Y-75963659D02*
X164506742Y-75963659D01*
X164506742Y-75963659D02*
X164125790Y-75868421D01*
X164125790Y-75868421D02*
X163935314Y-75773183D01*
X163935314Y-75773183D02*
X163840076Y-75677945D01*
X163840076Y-75677945D02*
X163744838Y-75487469D01*
X163935314Y-74058897D02*
X163840076Y-73963659D01*
X163840076Y-73963659D02*
X163744838Y-73773183D01*
X163744838Y-73773183D02*
X163744838Y-73296992D01*
X163744838Y-73296992D02*
X163840076Y-73106516D01*
X163840076Y-73106516D02*
X163935314Y-73011278D01*
X163935314Y-73011278D02*
X164125790Y-72916040D01*
X164125790Y-72916040D02*
X164316266Y-72916040D01*
X164316266Y-72916040D02*
X164601980Y-73011278D01*
X164601980Y-73011278D02*
X165744838Y-74154135D01*
X165744838Y-74154135D02*
X165744838Y-72916040D01*
X165744838Y-72058897D02*
X163744838Y-72058897D01*
X163744838Y-72058897D02*
X163744838Y-71582707D01*
X163744838Y-71582707D02*
X163840076Y-71296992D01*
X163840076Y-71296992D02*
X164030552Y-71106516D01*
X164030552Y-71106516D02*
X164221028Y-71011278D01*
X164221028Y-71011278D02*
X164601980Y-70916040D01*
X164601980Y-70916040D02*
X164887695Y-70916040D01*
X164887695Y-70916040D02*
X165268647Y-71011278D01*
X165268647Y-71011278D02*
X165459123Y-71106516D01*
X165459123Y-71106516D02*
X165649600Y-71296992D01*
X165649600Y-71296992D02*
X165744838Y-71582707D01*
X165744838Y-71582707D02*
X165744838Y-72058897D01*
X170244838Y-130582707D02*
X170244838Y-129344612D01*
X170244838Y-129344612D02*
X171006742Y-130011279D01*
X171006742Y-130011279D02*
X171006742Y-129725564D01*
X171006742Y-129725564D02*
X171101980Y-129535088D01*
X171101980Y-129535088D02*
X171197219Y-129439850D01*
X171197219Y-129439850D02*
X171387695Y-129344612D01*
X171387695Y-129344612D02*
X171863885Y-129344612D01*
X171863885Y-129344612D02*
X172054361Y-129439850D01*
X172054361Y-129439850D02*
X172149600Y-129535088D01*
X172149600Y-129535088D02*
X172244838Y-129725564D01*
X172244838Y-129725564D02*
X172244838Y-130296993D01*
X172244838Y-130296993D02*
X172149600Y-130487469D01*
X172149600Y-130487469D02*
X172054361Y-130582707D01*
X170435314Y-128582707D02*
X170340076Y-128487469D01*
X170340076Y-128487469D02*
X170244838Y-128296993D01*
X170244838Y-128296993D02*
X170244838Y-127820802D01*
X170244838Y-127820802D02*
X170340076Y-127630326D01*
X170340076Y-127630326D02*
X170435314Y-127535088D01*
X170435314Y-127535088D02*
X170625790Y-127439850D01*
X170625790Y-127439850D02*
X170816266Y-127439850D01*
X170816266Y-127439850D02*
X171101980Y-127535088D01*
X171101980Y-127535088D02*
X172244838Y-128677945D01*
X172244838Y-128677945D02*
X172244838Y-127439850D01*
X172244838Y-126582707D02*
X170244838Y-126582707D01*
X171482933Y-126392231D02*
X172244838Y-125820802D01*
X170911504Y-125820802D02*
X171673409Y-126582707D01*
X172244838Y-122296992D02*
X171292457Y-122963659D01*
X172244838Y-123439849D02*
X170244838Y-123439849D01*
X170244838Y-123439849D02*
X170244838Y-122677944D01*
X170244838Y-122677944D02*
X170340076Y-122487468D01*
X170340076Y-122487468D02*
X170435314Y-122392230D01*
X170435314Y-122392230D02*
X170625790Y-122296992D01*
X170625790Y-122296992D02*
X170911504Y-122296992D01*
X170911504Y-122296992D02*
X171101980Y-122392230D01*
X171101980Y-122392230D02*
X171197219Y-122487468D01*
X171197219Y-122487468D02*
X171292457Y-122677944D01*
X171292457Y-122677944D02*
X171292457Y-123439849D01*
X171673409Y-121535087D02*
X171673409Y-120582706D01*
X172244838Y-121725563D02*
X170244838Y-121058897D01*
X170244838Y-121058897D02*
X172244838Y-120392230D01*
X172244838Y-119725563D02*
X170244838Y-119725563D01*
X170244838Y-119725563D02*
X171673409Y-119058896D01*
X171673409Y-119058896D02*
X170244838Y-118392230D01*
X170244838Y-118392230D02*
X172244838Y-118392230D01*
X135744838Y-81392231D02*
X133744838Y-81392231D01*
X133744838Y-81392231D02*
X133744838Y-80916041D01*
X133744838Y-80916041D02*
X133840076Y-80630326D01*
X133840076Y-80630326D02*
X134030552Y-80439850D01*
X134030552Y-80439850D02*
X134221028Y-80344612D01*
X134221028Y-80344612D02*
X134601980Y-80249374D01*
X134601980Y-80249374D02*
X134887695Y-80249374D01*
X134887695Y-80249374D02*
X135268647Y-80344612D01*
X135268647Y-80344612D02*
X135459123Y-80439850D01*
X135459123Y-80439850D02*
X135649600Y-80630326D01*
X135649600Y-80630326D02*
X135744838Y-80916041D01*
X135744838Y-80916041D02*
X135744838Y-81392231D01*
X135744838Y-78439850D02*
X135744838Y-79392231D01*
X135744838Y-79392231D02*
X133744838Y-79392231D01*
X133744838Y-77392231D02*
X133744838Y-77201754D01*
X133744838Y-77201754D02*
X133840076Y-77011278D01*
X133840076Y-77011278D02*
X133935314Y-76916040D01*
X133935314Y-76916040D02*
X134125790Y-76820802D01*
X134125790Y-76820802D02*
X134506742Y-76725564D01*
X134506742Y-76725564D02*
X134982933Y-76725564D01*
X134982933Y-76725564D02*
X135363885Y-76820802D01*
X135363885Y-76820802D02*
X135554361Y-76916040D01*
X135554361Y-76916040D02*
X135649600Y-77011278D01*
X135649600Y-77011278D02*
X135744838Y-77201754D01*
X135744838Y-77201754D02*
X135744838Y-77392231D01*
X135744838Y-77392231D02*
X135649600Y-77582707D01*
X135649600Y-77582707D02*
X135554361Y-77677945D01*
X135554361Y-77677945D02*
X135363885Y-77773183D01*
X135363885Y-77773183D02*
X134982933Y-77868421D01*
X134982933Y-77868421D02*
X134506742Y-77868421D01*
X134506742Y-77868421D02*
X134125790Y-77773183D01*
X134125790Y-77773183D02*
X133935314Y-77677945D01*
X133935314Y-77677945D02*
X133840076Y-77582707D01*
X133840076Y-77582707D02*
X133744838Y-77392231D01*
X133744838Y-75487469D02*
X133744838Y-75296992D01*
X133744838Y-75296992D02*
X133840076Y-75106516D01*
X133840076Y-75106516D02*
X133935314Y-75011278D01*
X133935314Y-75011278D02*
X134125790Y-74916040D01*
X134125790Y-74916040D02*
X134506742Y-74820802D01*
X134506742Y-74820802D02*
X134982933Y-74820802D01*
X134982933Y-74820802D02*
X135363885Y-74916040D01*
X135363885Y-74916040D02*
X135554361Y-75011278D01*
X135554361Y-75011278D02*
X135649600Y-75106516D01*
X135649600Y-75106516D02*
X135744838Y-75296992D01*
X135744838Y-75296992D02*
X135744838Y-75487469D01*
X135744838Y-75487469D02*
X135649600Y-75677945D01*
X135649600Y-75677945D02*
X135554361Y-75773183D01*
X135554361Y-75773183D02*
X135363885Y-75868421D01*
X135363885Y-75868421D02*
X134982933Y-75963659D01*
X134982933Y-75963659D02*
X134506742Y-75963659D01*
X134506742Y-75963659D02*
X134125790Y-75868421D01*
X134125790Y-75868421D02*
X133935314Y-75773183D01*
X133935314Y-75773183D02*
X133840076Y-75677945D01*
X133840076Y-75677945D02*
X133744838Y-75487469D01*
X133935314Y-74058897D02*
X133840076Y-73963659D01*
X133840076Y-73963659D02*
X133744838Y-73773183D01*
X133744838Y-73773183D02*
X133744838Y-73296992D01*
X133744838Y-73296992D02*
X133840076Y-73106516D01*
X133840076Y-73106516D02*
X133935314Y-73011278D01*
X133935314Y-73011278D02*
X134125790Y-72916040D01*
X134125790Y-72916040D02*
X134316266Y-72916040D01*
X134316266Y-72916040D02*
X134601980Y-73011278D01*
X134601980Y-73011278D02*
X135744838Y-74154135D01*
X135744838Y-74154135D02*
X135744838Y-72916040D01*
X135744838Y-72058897D02*
X133744838Y-72058897D01*
X133744838Y-72058897D02*
X133744838Y-71582707D01*
X133744838Y-71582707D02*
X133840076Y-71296992D01*
X133840076Y-71296992D02*
X134030552Y-71106516D01*
X134030552Y-71106516D02*
X134221028Y-71011278D01*
X134221028Y-71011278D02*
X134601980Y-70916040D01*
X134601980Y-70916040D02*
X134887695Y-70916040D01*
X134887695Y-70916040D02*
X135268647Y-71011278D01*
X135268647Y-71011278D02*
X135459123Y-71106516D01*
X135459123Y-71106516D02*
X135649600Y-71296992D01*
X135649600Y-71296992D02*
X135744838Y-71582707D01*
X135744838Y-71582707D02*
X135744838Y-72058897D01*
D10*
X164327693Y-51372419D02*
X163756265Y-51372419D01*
X164041979Y-51372419D02*
X164041979Y-50372419D01*
X164041979Y-50372419D02*
X163946741Y-50515276D01*
X163946741Y-50515276D02*
X163851503Y-50610514D01*
X163851503Y-50610514D02*
X163756265Y-50658133D01*
X164946741Y-50372419D02*
X165041979Y-50372419D01*
X165041979Y-50372419D02*
X165137217Y-50420038D01*
X165137217Y-50420038D02*
X165184836Y-50467657D01*
X165184836Y-50467657D02*
X165232455Y-50562895D01*
X165232455Y-50562895D02*
X165280074Y-50753371D01*
X165280074Y-50753371D02*
X165280074Y-50991466D01*
X165280074Y-50991466D02*
X165232455Y-51181942D01*
X165232455Y-51181942D02*
X165184836Y-51277180D01*
X165184836Y-51277180D02*
X165137217Y-51324800D01*
X165137217Y-51324800D02*
X165041979Y-51372419D01*
X165041979Y-51372419D02*
X164946741Y-51372419D01*
X164946741Y-51372419D02*
X164851503Y-51324800D01*
X164851503Y-51324800D02*
X164803884Y-51277180D01*
X164803884Y-51277180D02*
X164756265Y-51181942D01*
X164756265Y-51181942D02*
X164708646Y-50991466D01*
X164708646Y-50991466D02*
X164708646Y-50753371D01*
X164708646Y-50753371D02*
X164756265Y-50562895D01*
X164756265Y-50562895D02*
X164803884Y-50467657D01*
X164803884Y-50467657D02*
X164851503Y-50420038D01*
X164851503Y-50420038D02*
X164946741Y-50372419D01*
X166041979Y-50848609D02*
X166184836Y-50896228D01*
X166184836Y-50896228D02*
X166232455Y-50943847D01*
X166232455Y-50943847D02*
X166280074Y-51039085D01*
X166280074Y-51039085D02*
X166280074Y-51181942D01*
X166280074Y-51181942D02*
X166232455Y-51277180D01*
X166232455Y-51277180D02*
X166184836Y-51324800D01*
X166184836Y-51324800D02*
X166089598Y-51372419D01*
X166089598Y-51372419D02*
X165708646Y-51372419D01*
X165708646Y-51372419D02*
X165708646Y-50372419D01*
X165708646Y-50372419D02*
X166041979Y-50372419D01*
X166041979Y-50372419D02*
X166137217Y-50420038D01*
X166137217Y-50420038D02*
X166184836Y-50467657D01*
X166184836Y-50467657D02*
X166232455Y-50562895D01*
X166232455Y-50562895D02*
X166232455Y-50658133D01*
X166232455Y-50658133D02*
X166184836Y-50753371D01*
X166184836Y-50753371D02*
X166137217Y-50800990D01*
X166137217Y-50800990D02*
X166041979Y-50848609D01*
X166041979Y-50848609D02*
X165708646Y-50848609D01*
X185446741Y-86800990D02*
X185351503Y-86753371D01*
X185351503Y-86753371D02*
X185303884Y-86705752D01*
X185303884Y-86705752D02*
X185256265Y-86610514D01*
X185256265Y-86610514D02*
X185256265Y-86562895D01*
X185256265Y-86562895D02*
X185303884Y-86467657D01*
X185303884Y-86467657D02*
X185351503Y-86420038D01*
X185351503Y-86420038D02*
X185446741Y-86372419D01*
X185446741Y-86372419D02*
X185637217Y-86372419D01*
X185637217Y-86372419D02*
X185732455Y-86420038D01*
X185732455Y-86420038D02*
X185780074Y-86467657D01*
X185780074Y-86467657D02*
X185827693Y-86562895D01*
X185827693Y-86562895D02*
X185827693Y-86610514D01*
X185827693Y-86610514D02*
X185780074Y-86705752D01*
X185780074Y-86705752D02*
X185732455Y-86753371D01*
X185732455Y-86753371D02*
X185637217Y-86800990D01*
X185637217Y-86800990D02*
X185446741Y-86800990D01*
X185446741Y-86800990D02*
X185351503Y-86848609D01*
X185351503Y-86848609D02*
X185303884Y-86896228D01*
X185303884Y-86896228D02*
X185256265Y-86991466D01*
X185256265Y-86991466D02*
X185256265Y-87181942D01*
X185256265Y-87181942D02*
X185303884Y-87277180D01*
X185303884Y-87277180D02*
X185351503Y-87324800D01*
X185351503Y-87324800D02*
X185446741Y-87372419D01*
X185446741Y-87372419D02*
X185637217Y-87372419D01*
X185637217Y-87372419D02*
X185732455Y-87324800D01*
X185732455Y-87324800D02*
X185780074Y-87277180D01*
X185780074Y-87277180D02*
X185827693Y-87181942D01*
X185827693Y-87181942D02*
X185827693Y-86991466D01*
X185827693Y-86991466D02*
X185780074Y-86896228D01*
X185780074Y-86896228D02*
X185732455Y-86848609D01*
X185732455Y-86848609D02*
X185637217Y-86800990D01*
X186161027Y-87372419D02*
X186684836Y-86705752D01*
X186161027Y-86705752D02*
X186684836Y-87372419D01*
X188351503Y-87372419D02*
X187780075Y-87372419D01*
X188065789Y-87372419D02*
X188065789Y-86372419D01*
X188065789Y-86372419D02*
X187970551Y-86515276D01*
X187970551Y-86515276D02*
X187875313Y-86610514D01*
X187875313Y-86610514D02*
X187780075Y-86658133D01*
X188732456Y-86467657D02*
X188780075Y-86420038D01*
X188780075Y-86420038D02*
X188875313Y-86372419D01*
X188875313Y-86372419D02*
X189113408Y-86372419D01*
X189113408Y-86372419D02*
X189208646Y-86420038D01*
X189208646Y-86420038D02*
X189256265Y-86467657D01*
X189256265Y-86467657D02*
X189303884Y-86562895D01*
X189303884Y-86562895D02*
X189303884Y-86658133D01*
X189303884Y-86658133D02*
X189256265Y-86800990D01*
X189256265Y-86800990D02*
X188684837Y-87372419D01*
X188684837Y-87372419D02*
X189303884Y-87372419D01*
X189922932Y-86372419D02*
X190018170Y-86372419D01*
X190018170Y-86372419D02*
X190113408Y-86420038D01*
X190113408Y-86420038D02*
X190161027Y-86467657D01*
X190161027Y-86467657D02*
X190208646Y-86562895D01*
X190208646Y-86562895D02*
X190256265Y-86753371D01*
X190256265Y-86753371D02*
X190256265Y-86991466D01*
X190256265Y-86991466D02*
X190208646Y-87181942D01*
X190208646Y-87181942D02*
X190161027Y-87277180D01*
X190161027Y-87277180D02*
X190113408Y-87324800D01*
X190113408Y-87324800D02*
X190018170Y-87372419D01*
X190018170Y-87372419D02*
X189922932Y-87372419D01*
X189922932Y-87372419D02*
X189827694Y-87324800D01*
X189827694Y-87324800D02*
X189780075Y-87277180D01*
X189780075Y-87277180D02*
X189732456Y-87181942D01*
X189732456Y-87181942D02*
X189684837Y-86991466D01*
X189684837Y-86991466D02*
X189684837Y-86753371D01*
X189684837Y-86753371D02*
X189732456Y-86562895D01*
X189732456Y-86562895D02*
X189780075Y-86467657D01*
X189780075Y-86467657D02*
X189827694Y-86420038D01*
X189827694Y-86420038D02*
X189922932Y-86372419D01*
X191637218Y-86372419D02*
X191827694Y-86372419D01*
X191827694Y-86372419D02*
X191922932Y-86420038D01*
X191922932Y-86420038D02*
X192018170Y-86515276D01*
X192018170Y-86515276D02*
X192065789Y-86705752D01*
X192065789Y-86705752D02*
X192065789Y-87039085D01*
X192065789Y-87039085D02*
X192018170Y-87229561D01*
X192018170Y-87229561D02*
X191922932Y-87324800D01*
X191922932Y-87324800D02*
X191827694Y-87372419D01*
X191827694Y-87372419D02*
X191637218Y-87372419D01*
X191637218Y-87372419D02*
X191541980Y-87324800D01*
X191541980Y-87324800D02*
X191446742Y-87229561D01*
X191446742Y-87229561D02*
X191399123Y-87039085D01*
X191399123Y-87039085D02*
X191399123Y-86705752D01*
X191399123Y-86705752D02*
X191446742Y-86515276D01*
X191446742Y-86515276D02*
X191541980Y-86420038D01*
X191541980Y-86420038D02*
X191637218Y-86372419D01*
X192494361Y-87372419D02*
X192494361Y-86372419D01*
X192922932Y-87372419D02*
X192922932Y-86848609D01*
X192922932Y-86848609D02*
X192875313Y-86753371D01*
X192875313Y-86753371D02*
X192780075Y-86705752D01*
X192780075Y-86705752D02*
X192637218Y-86705752D01*
X192637218Y-86705752D02*
X192541980Y-86753371D01*
X192541980Y-86753371D02*
X192494361Y-86800990D01*
X193399123Y-87372419D02*
X193399123Y-86705752D01*
X193399123Y-86800990D02*
X193446742Y-86753371D01*
X193446742Y-86753371D02*
X193541980Y-86705752D01*
X193541980Y-86705752D02*
X193684837Y-86705752D01*
X193684837Y-86705752D02*
X193780075Y-86753371D01*
X193780075Y-86753371D02*
X193827694Y-86848609D01*
X193827694Y-86848609D02*
X193827694Y-87372419D01*
X193827694Y-86848609D02*
X193875313Y-86753371D01*
X193875313Y-86753371D02*
X193970551Y-86705752D01*
X193970551Y-86705752D02*
X194113408Y-86705752D01*
X194113408Y-86705752D02*
X194208647Y-86753371D01*
X194208647Y-86753371D02*
X194256266Y-86848609D01*
X194256266Y-86848609D02*
X194256266Y-87372419D01*
D11*
X150744838Y-103392231D02*
X148744838Y-103392231D01*
X148744838Y-103392231D02*
X148744838Y-102916041D01*
X148744838Y-102916041D02*
X148840076Y-102630326D01*
X148840076Y-102630326D02*
X149030552Y-102439850D01*
X149030552Y-102439850D02*
X149221028Y-102344612D01*
X149221028Y-102344612D02*
X149601980Y-102249374D01*
X149601980Y-102249374D02*
X149887695Y-102249374D01*
X149887695Y-102249374D02*
X150268647Y-102344612D01*
X150268647Y-102344612D02*
X150459123Y-102439850D01*
X150459123Y-102439850D02*
X150649600Y-102630326D01*
X150649600Y-102630326D02*
X150744838Y-102916041D01*
X150744838Y-102916041D02*
X150744838Y-103392231D01*
X150744838Y-100439850D02*
X150744838Y-101392231D01*
X150744838Y-101392231D02*
X148744838Y-101392231D01*
X148744838Y-99963659D02*
X148744838Y-98725564D01*
X148744838Y-98725564D02*
X149506742Y-99392231D01*
X149506742Y-99392231D02*
X149506742Y-99106516D01*
X149506742Y-99106516D02*
X149601980Y-98916040D01*
X149601980Y-98916040D02*
X149697219Y-98820802D01*
X149697219Y-98820802D02*
X149887695Y-98725564D01*
X149887695Y-98725564D02*
X150363885Y-98725564D01*
X150363885Y-98725564D02*
X150554361Y-98820802D01*
X150554361Y-98820802D02*
X150649600Y-98916040D01*
X150649600Y-98916040D02*
X150744838Y-99106516D01*
X150744838Y-99106516D02*
X150744838Y-99677945D01*
X150744838Y-99677945D02*
X150649600Y-99868421D01*
X150649600Y-99868421D02*
X150554361Y-99963659D01*
X148744838Y-98058897D02*
X148744838Y-96725564D01*
X148744838Y-96725564D02*
X150744838Y-97582707D01*
X149411504Y-95106516D02*
X150744838Y-95106516D01*
X148649600Y-95582707D02*
X150078171Y-96058897D01*
X150078171Y-96058897D02*
X150078171Y-94820802D01*
X150744838Y-94058897D02*
X148744838Y-94058897D01*
X148744838Y-94058897D02*
X148744838Y-93582707D01*
X148744838Y-93582707D02*
X148840076Y-93296992D01*
X148840076Y-93296992D02*
X149030552Y-93106516D01*
X149030552Y-93106516D02*
X149221028Y-93011278D01*
X149221028Y-93011278D02*
X149601980Y-92916040D01*
X149601980Y-92916040D02*
X149887695Y-92916040D01*
X149887695Y-92916040D02*
X150268647Y-93011278D01*
X150268647Y-93011278D02*
X150459123Y-93106516D01*
X150459123Y-93106516D02*
X150649600Y-93296992D01*
X150649600Y-93296992D02*
X150744838Y-93582707D01*
X150744838Y-93582707D02*
X150744838Y-94058897D01*
D10*
X177280074Y-50372419D02*
X176803884Y-50372419D01*
X176803884Y-50372419D02*
X176756265Y-50848609D01*
X176756265Y-50848609D02*
X176803884Y-50800990D01*
X176803884Y-50800990D02*
X176899122Y-50753371D01*
X176899122Y-50753371D02*
X177137217Y-50753371D01*
X177137217Y-50753371D02*
X177232455Y-50800990D01*
X177232455Y-50800990D02*
X177280074Y-50848609D01*
X177280074Y-50848609D02*
X177327693Y-50943847D01*
X177327693Y-50943847D02*
X177327693Y-51181942D01*
X177327693Y-51181942D02*
X177280074Y-51277180D01*
X177280074Y-51277180D02*
X177232455Y-51324800D01*
X177232455Y-51324800D02*
X177137217Y-51372419D01*
X177137217Y-51372419D02*
X176899122Y-51372419D01*
X176899122Y-51372419D02*
X176803884Y-51324800D01*
X176803884Y-51324800D02*
X176756265Y-51277180D01*
X178089598Y-50848609D02*
X178232455Y-50896228D01*
X178232455Y-50896228D02*
X178280074Y-50943847D01*
X178280074Y-50943847D02*
X178327693Y-51039085D01*
X178327693Y-51039085D02*
X178327693Y-51181942D01*
X178327693Y-51181942D02*
X178280074Y-51277180D01*
X178280074Y-51277180D02*
X178232455Y-51324800D01*
X178232455Y-51324800D02*
X178137217Y-51372419D01*
X178137217Y-51372419D02*
X177756265Y-51372419D01*
X177756265Y-51372419D02*
X177756265Y-50372419D01*
X177756265Y-50372419D02*
X178089598Y-50372419D01*
X178089598Y-50372419D02*
X178184836Y-50420038D01*
X178184836Y-50420038D02*
X178232455Y-50467657D01*
X178232455Y-50467657D02*
X178280074Y-50562895D01*
X178280074Y-50562895D02*
X178280074Y-50658133D01*
X178280074Y-50658133D02*
X178232455Y-50753371D01*
X178232455Y-50753371D02*
X178184836Y-50800990D01*
X178184836Y-50800990D02*
X178089598Y-50848609D01*
X178089598Y-50848609D02*
X177756265Y-50848609D01*
D11*
X129512530Y-126209824D02*
X129798244Y-126305062D01*
X129798244Y-126305062D02*
X130274435Y-126305062D01*
X130274435Y-126305062D02*
X130464911Y-126209824D01*
X130464911Y-126209824D02*
X130560149Y-126114585D01*
X130560149Y-126114585D02*
X130655387Y-125924109D01*
X130655387Y-125924109D02*
X130655387Y-125733633D01*
X130655387Y-125733633D02*
X130560149Y-125543157D01*
X130560149Y-125543157D02*
X130464911Y-125447919D01*
X130464911Y-125447919D02*
X130274435Y-125352681D01*
X130274435Y-125352681D02*
X129893482Y-125257443D01*
X129893482Y-125257443D02*
X129703006Y-125162204D01*
X129703006Y-125162204D02*
X129607768Y-125066966D01*
X129607768Y-125066966D02*
X129512530Y-124876490D01*
X129512530Y-124876490D02*
X129512530Y-124686014D01*
X129512530Y-124686014D02*
X129607768Y-124495538D01*
X129607768Y-124495538D02*
X129703006Y-124400300D01*
X129703006Y-124400300D02*
X129893482Y-124305062D01*
X129893482Y-124305062D02*
X130369673Y-124305062D01*
X130369673Y-124305062D02*
X130655387Y-124400300D01*
X131226816Y-124971728D02*
X131988720Y-124971728D01*
X131512530Y-124305062D02*
X131512530Y-126019347D01*
X131512530Y-126019347D02*
X131607768Y-126209824D01*
X131607768Y-126209824D02*
X131798244Y-126305062D01*
X131798244Y-126305062D02*
X131988720Y-126305062D01*
X132655387Y-126305062D02*
X132655387Y-124971728D01*
X132655387Y-125352681D02*
X132750625Y-125162204D01*
X132750625Y-125162204D02*
X132845863Y-125066966D01*
X132845863Y-125066966D02*
X133036339Y-124971728D01*
X133036339Y-124971728D02*
X133226816Y-124971728D01*
X134750625Y-124971728D02*
X134750625Y-126305062D01*
X133893482Y-124971728D02*
X133893482Y-126019347D01*
X133893482Y-126019347D02*
X133988720Y-126209824D01*
X133988720Y-126209824D02*
X134179196Y-126305062D01*
X134179196Y-126305062D02*
X134464911Y-126305062D01*
X134464911Y-126305062D02*
X134655387Y-126209824D01*
X134655387Y-126209824D02*
X134750625Y-126114585D01*
X135703006Y-126305062D02*
X135703006Y-124305062D01*
X135893482Y-125543157D02*
X136464911Y-126305062D01*
X136464911Y-124971728D02*
X135703006Y-125733633D01*
X137036340Y-124971728D02*
X137798244Y-124971728D01*
X137322054Y-124305062D02*
X137322054Y-126019347D01*
X137322054Y-126019347D02*
X137417292Y-126209824D01*
X137417292Y-126209824D02*
X137607768Y-126305062D01*
X137607768Y-126305062D02*
X137798244Y-126305062D01*
X139322054Y-124971728D02*
X139322054Y-126305062D01*
X138464911Y-124971728D02*
X138464911Y-126019347D01*
X138464911Y-126019347D02*
X138560149Y-126209824D01*
X138560149Y-126209824D02*
X138750625Y-126305062D01*
X138750625Y-126305062D02*
X139036340Y-126305062D01*
X139036340Y-126305062D02*
X139226816Y-126209824D01*
X139226816Y-126209824D02*
X139322054Y-126114585D01*
X140274435Y-126305062D02*
X140274435Y-124971728D01*
X140274435Y-125352681D02*
X140369673Y-125162204D01*
X140369673Y-125162204D02*
X140464911Y-125066966D01*
X140464911Y-125066966D02*
X140655387Y-124971728D01*
X140655387Y-124971728D02*
X140845864Y-124971728D01*
X141512530Y-126305062D02*
X141512530Y-124305062D01*
X141512530Y-125066966D02*
X141703006Y-124971728D01*
X141703006Y-124971728D02*
X142083959Y-124971728D01*
X142083959Y-124971728D02*
X142274435Y-125066966D01*
X142274435Y-125066966D02*
X142369673Y-125162204D01*
X142369673Y-125162204D02*
X142464911Y-125352681D01*
X142464911Y-125352681D02*
X142464911Y-125924109D01*
X142464911Y-125924109D02*
X142369673Y-126114585D01*
X142369673Y-126114585D02*
X142274435Y-126209824D01*
X142274435Y-126209824D02*
X142083959Y-126305062D01*
X142083959Y-126305062D02*
X141703006Y-126305062D01*
X141703006Y-126305062D02*
X141512530Y-126209824D01*
X143131578Y-124971728D02*
X143607768Y-126305062D01*
X144083959Y-124971728D02*
X143607768Y-126305062D01*
X143607768Y-126305062D02*
X143417292Y-126781252D01*
X143417292Y-126781252D02*
X143322054Y-126876490D01*
X143322054Y-126876490D02*
X143131578Y-126971728D01*
X144560150Y-124971728D02*
X145322054Y-124971728D01*
X144845864Y-124305062D02*
X144845864Y-126019347D01*
X144845864Y-126019347D02*
X144941102Y-126209824D01*
X144941102Y-126209824D02*
X145131578Y-126305062D01*
X145131578Y-126305062D02*
X145322054Y-126305062D01*
X146750626Y-126209824D02*
X146560150Y-126305062D01*
X146560150Y-126305062D02*
X146179197Y-126305062D01*
X146179197Y-126305062D02*
X145988721Y-126209824D01*
X145988721Y-126209824D02*
X145893483Y-126019347D01*
X145893483Y-126019347D02*
X145893483Y-125257443D01*
X145893483Y-125257443D02*
X145988721Y-125066966D01*
X145988721Y-125066966D02*
X146179197Y-124971728D01*
X146179197Y-124971728D02*
X146560150Y-124971728D01*
X146560150Y-124971728D02*
X146750626Y-125066966D01*
X146750626Y-125066966D02*
X146845864Y-125257443D01*
X146845864Y-125257443D02*
X146845864Y-125447919D01*
X146845864Y-125447919D02*
X145893483Y-125638395D01*
X129893482Y-129524950D02*
X129703006Y-129429712D01*
X129703006Y-129429712D02*
X129607768Y-129334473D01*
X129607768Y-129334473D02*
X129512530Y-129143997D01*
X129512530Y-129143997D02*
X129512530Y-128572569D01*
X129512530Y-128572569D02*
X129607768Y-128382092D01*
X129607768Y-128382092D02*
X129703006Y-128286854D01*
X129703006Y-128286854D02*
X129893482Y-128191616D01*
X129893482Y-128191616D02*
X130179197Y-128191616D01*
X130179197Y-128191616D02*
X130369673Y-128286854D01*
X130369673Y-128286854D02*
X130464911Y-128382092D01*
X130464911Y-128382092D02*
X130560149Y-128572569D01*
X130560149Y-128572569D02*
X130560149Y-129143997D01*
X130560149Y-129143997D02*
X130464911Y-129334473D01*
X130464911Y-129334473D02*
X130369673Y-129429712D01*
X130369673Y-129429712D02*
X130179197Y-129524950D01*
X130179197Y-129524950D02*
X129893482Y-129524950D01*
X131131578Y-128191616D02*
X131893482Y-128191616D01*
X131417292Y-129524950D02*
X131417292Y-127810664D01*
X131417292Y-127810664D02*
X131512530Y-127620188D01*
X131512530Y-127620188D02*
X131703006Y-127524950D01*
X131703006Y-127524950D02*
X131893482Y-127524950D01*
X132274435Y-128191616D02*
X133036339Y-128191616D01*
X132560149Y-129524950D02*
X132560149Y-127810664D01*
X132560149Y-127810664D02*
X132655387Y-127620188D01*
X132655387Y-127620188D02*
X132845863Y-127524950D01*
X132845863Y-127524950D02*
X133036339Y-127524950D01*
X134464911Y-129429712D02*
X134274435Y-129524950D01*
X134274435Y-129524950D02*
X133893482Y-129524950D01*
X133893482Y-129524950D02*
X133703006Y-129429712D01*
X133703006Y-129429712D02*
X133607768Y-129239235D01*
X133607768Y-129239235D02*
X133607768Y-128477331D01*
X133607768Y-128477331D02*
X133703006Y-128286854D01*
X133703006Y-128286854D02*
X133893482Y-128191616D01*
X133893482Y-128191616D02*
X134274435Y-128191616D01*
X134274435Y-128191616D02*
X134464911Y-128286854D01*
X134464911Y-128286854D02*
X134560149Y-128477331D01*
X134560149Y-128477331D02*
X134560149Y-128667807D01*
X134560149Y-128667807D02*
X133607768Y-128858283D01*
X135417292Y-128191616D02*
X135417292Y-129524950D01*
X135417292Y-128382092D02*
X135512530Y-128286854D01*
X135512530Y-128286854D02*
X135703006Y-128191616D01*
X135703006Y-128191616D02*
X135988721Y-128191616D01*
X135988721Y-128191616D02*
X136179197Y-128286854D01*
X136179197Y-128286854D02*
X136274435Y-128477331D01*
X136274435Y-128477331D02*
X136274435Y-129524950D01*
X142464913Y-128477331D02*
X141798246Y-128477331D01*
X141798246Y-129524950D02*
X141798246Y-127524950D01*
X141798246Y-127524950D02*
X142750627Y-127524950D01*
X143322056Y-127524950D02*
X144560151Y-127524950D01*
X144560151Y-127524950D02*
X143893484Y-128286854D01*
X143893484Y-128286854D02*
X144179199Y-128286854D01*
X144179199Y-128286854D02*
X144369675Y-128382092D01*
X144369675Y-128382092D02*
X144464913Y-128477331D01*
X144464913Y-128477331D02*
X144560151Y-128667807D01*
X144560151Y-128667807D02*
X144560151Y-129143997D01*
X144560151Y-129143997D02*
X144464913Y-129334473D01*
X144464913Y-129334473D02*
X144369675Y-129429712D01*
X144369675Y-129429712D02*
X144179199Y-129524950D01*
X144179199Y-129524950D02*
X143607770Y-129524950D01*
X143607770Y-129524950D02*
X143417294Y-129429712D01*
X143417294Y-129429712D02*
X143322056Y-129334473D01*
X145417294Y-129524950D02*
X145417294Y-127524950D01*
X146274437Y-129524950D02*
X146274437Y-128477331D01*
X146274437Y-128477331D02*
X146179199Y-128286854D01*
X146179199Y-128286854D02*
X145988723Y-128191616D01*
X145988723Y-128191616D02*
X145703008Y-128191616D01*
X145703008Y-128191616D02*
X145512532Y-128286854D01*
X145512532Y-128286854D02*
X145417294Y-128382092D01*
X130464911Y-131411504D02*
X130464911Y-133030552D01*
X130464911Y-133030552D02*
X130369673Y-133221028D01*
X130369673Y-133221028D02*
X130274435Y-133316266D01*
X130274435Y-133316266D02*
X130083958Y-133411504D01*
X130083958Y-133411504D02*
X129798244Y-133411504D01*
X129798244Y-133411504D02*
X129607768Y-133316266D01*
X130464911Y-132649600D02*
X130274435Y-132744838D01*
X130274435Y-132744838D02*
X129893482Y-132744838D01*
X129893482Y-132744838D02*
X129703006Y-132649600D01*
X129703006Y-132649600D02*
X129607768Y-132554361D01*
X129607768Y-132554361D02*
X129512530Y-132363885D01*
X129512530Y-132363885D02*
X129512530Y-131792457D01*
X129512530Y-131792457D02*
X129607768Y-131601980D01*
X129607768Y-131601980D02*
X129703006Y-131506742D01*
X129703006Y-131506742D02*
X129893482Y-131411504D01*
X129893482Y-131411504D02*
X130274435Y-131411504D01*
X130274435Y-131411504D02*
X130464911Y-131506742D01*
X132179197Y-132649600D02*
X131988721Y-132744838D01*
X131988721Y-132744838D02*
X131607768Y-132744838D01*
X131607768Y-132744838D02*
X131417292Y-132649600D01*
X131417292Y-132649600D02*
X131322054Y-132459123D01*
X131322054Y-132459123D02*
X131322054Y-131697219D01*
X131322054Y-131697219D02*
X131417292Y-131506742D01*
X131417292Y-131506742D02*
X131607768Y-131411504D01*
X131607768Y-131411504D02*
X131988721Y-131411504D01*
X131988721Y-131411504D02*
X132179197Y-131506742D01*
X132179197Y-131506742D02*
X132274435Y-131697219D01*
X132274435Y-131697219D02*
X132274435Y-131887695D01*
X132274435Y-131887695D02*
X131322054Y-132078171D01*
X133036340Y-132649600D02*
X133226816Y-132744838D01*
X133226816Y-132744838D02*
X133607768Y-132744838D01*
X133607768Y-132744838D02*
X133798245Y-132649600D01*
X133798245Y-132649600D02*
X133893483Y-132459123D01*
X133893483Y-132459123D02*
X133893483Y-132363885D01*
X133893483Y-132363885D02*
X133798245Y-132173409D01*
X133798245Y-132173409D02*
X133607768Y-132078171D01*
X133607768Y-132078171D02*
X133322054Y-132078171D01*
X133322054Y-132078171D02*
X133131578Y-131982933D01*
X133131578Y-131982933D02*
X133036340Y-131792457D01*
X133036340Y-131792457D02*
X133036340Y-131697219D01*
X133036340Y-131697219D02*
X133131578Y-131506742D01*
X133131578Y-131506742D02*
X133322054Y-131411504D01*
X133322054Y-131411504D02*
X133607768Y-131411504D01*
X133607768Y-131411504D02*
X133798245Y-131506742D01*
X135607769Y-132649600D02*
X135417293Y-132744838D01*
X135417293Y-132744838D02*
X135036340Y-132744838D01*
X135036340Y-132744838D02*
X134845864Y-132649600D01*
X134845864Y-132649600D02*
X134750626Y-132554361D01*
X134750626Y-132554361D02*
X134655388Y-132363885D01*
X134655388Y-132363885D02*
X134655388Y-131792457D01*
X134655388Y-131792457D02*
X134750626Y-131601980D01*
X134750626Y-131601980D02*
X134845864Y-131506742D01*
X134845864Y-131506742D02*
X135036340Y-131411504D01*
X135036340Y-131411504D02*
X135417293Y-131411504D01*
X135417293Y-131411504D02*
X135607769Y-131506742D01*
X136464912Y-132744838D02*
X136464912Y-130744838D01*
X137322055Y-132744838D02*
X137322055Y-131697219D01*
X137322055Y-131697219D02*
X137226817Y-131506742D01*
X137226817Y-131506742D02*
X137036341Y-131411504D01*
X137036341Y-131411504D02*
X136750626Y-131411504D01*
X136750626Y-131411504D02*
X136560150Y-131506742D01*
X136560150Y-131506742D02*
X136464912Y-131601980D01*
X138560150Y-132744838D02*
X138369674Y-132649600D01*
X138369674Y-132649600D02*
X138274436Y-132459123D01*
X138274436Y-132459123D02*
X138274436Y-130744838D01*
X139322055Y-132554361D02*
X139417293Y-132649600D01*
X139417293Y-132649600D02*
X139322055Y-132744838D01*
X139322055Y-132744838D02*
X139226817Y-132649600D01*
X139226817Y-132649600D02*
X139322055Y-132554361D01*
X139322055Y-132554361D02*
X139322055Y-132744838D01*
X142179198Y-130744838D02*
X142369675Y-130744838D01*
X142369675Y-130744838D02*
X142560151Y-130840076D01*
X142560151Y-130840076D02*
X142655389Y-130935314D01*
X142655389Y-130935314D02*
X142750627Y-131125790D01*
X142750627Y-131125790D02*
X142845865Y-131506742D01*
X142845865Y-131506742D02*
X142845865Y-131982933D01*
X142845865Y-131982933D02*
X142750627Y-132363885D01*
X142750627Y-132363885D02*
X142655389Y-132554361D01*
X142655389Y-132554361D02*
X142560151Y-132649600D01*
X142560151Y-132649600D02*
X142369675Y-132744838D01*
X142369675Y-132744838D02*
X142179198Y-132744838D01*
X142179198Y-132744838D02*
X141988722Y-132649600D01*
X141988722Y-132649600D02*
X141893484Y-132554361D01*
X141893484Y-132554361D02*
X141798246Y-132363885D01*
X141798246Y-132363885D02*
X141703008Y-131982933D01*
X141703008Y-131982933D02*
X141703008Y-131506742D01*
X141703008Y-131506742D02*
X141798246Y-131125790D01*
X141798246Y-131125790D02*
X141893484Y-130935314D01*
X141893484Y-130935314D02*
X141988722Y-130840076D01*
X141988722Y-130840076D02*
X142179198Y-130744838D01*
X144750627Y-132744838D02*
X143607770Y-132744838D01*
X144179198Y-132744838D02*
X144179198Y-130744838D01*
X144179198Y-130744838D02*
X143988722Y-131030552D01*
X143988722Y-131030552D02*
X143798246Y-131221028D01*
X143798246Y-131221028D02*
X143607770Y-131316266D01*
X145607770Y-132744838D02*
X145607770Y-130744838D01*
X146464913Y-132744838D02*
X146464913Y-131697219D01*
X146464913Y-131697219D02*
X146369675Y-131506742D01*
X146369675Y-131506742D02*
X146179199Y-131411504D01*
X146179199Y-131411504D02*
X145893484Y-131411504D01*
X145893484Y-131411504D02*
X145703008Y-131506742D01*
X145703008Y-131506742D02*
X145607770Y-131601980D01*
X105744838Y-103392231D02*
X103744838Y-103392231D01*
X103744838Y-103392231D02*
X103744838Y-102916041D01*
X103744838Y-102916041D02*
X103840076Y-102630326D01*
X103840076Y-102630326D02*
X104030552Y-102439850D01*
X104030552Y-102439850D02*
X104221028Y-102344612D01*
X104221028Y-102344612D02*
X104601980Y-102249374D01*
X104601980Y-102249374D02*
X104887695Y-102249374D01*
X104887695Y-102249374D02*
X105268647Y-102344612D01*
X105268647Y-102344612D02*
X105459123Y-102439850D01*
X105459123Y-102439850D02*
X105649600Y-102630326D01*
X105649600Y-102630326D02*
X105744838Y-102916041D01*
X105744838Y-102916041D02*
X105744838Y-103392231D01*
X103744838Y-101582707D02*
X103744838Y-100344612D01*
X103744838Y-100344612D02*
X104506742Y-101011279D01*
X104506742Y-101011279D02*
X104506742Y-100725564D01*
X104506742Y-100725564D02*
X104601980Y-100535088D01*
X104601980Y-100535088D02*
X104697219Y-100439850D01*
X104697219Y-100439850D02*
X104887695Y-100344612D01*
X104887695Y-100344612D02*
X105363885Y-100344612D01*
X105363885Y-100344612D02*
X105554361Y-100439850D01*
X105554361Y-100439850D02*
X105649600Y-100535088D01*
X105649600Y-100535088D02*
X105744838Y-100725564D01*
X105744838Y-100725564D02*
X105744838Y-101296993D01*
X105744838Y-101296993D02*
X105649600Y-101487469D01*
X105649600Y-101487469D02*
X105554361Y-101582707D01*
X104411504Y-98630326D02*
X105744838Y-98630326D01*
X103649600Y-99106517D02*
X105078171Y-99582707D01*
X105078171Y-99582707D02*
X105078171Y-98344612D01*
X103744838Y-96630326D02*
X103744838Y-97582707D01*
X103744838Y-97582707D02*
X104697219Y-97677945D01*
X104697219Y-97677945D02*
X104601980Y-97582707D01*
X104601980Y-97582707D02*
X104506742Y-97392231D01*
X104506742Y-97392231D02*
X104506742Y-96916040D01*
X104506742Y-96916040D02*
X104601980Y-96725564D01*
X104601980Y-96725564D02*
X104697219Y-96630326D01*
X104697219Y-96630326D02*
X104887695Y-96535088D01*
X104887695Y-96535088D02*
X105363885Y-96535088D01*
X105363885Y-96535088D02*
X105554361Y-96630326D01*
X105554361Y-96630326D02*
X105649600Y-96725564D01*
X105649600Y-96725564D02*
X105744838Y-96916040D01*
X105744838Y-96916040D02*
X105744838Y-97392231D01*
X105744838Y-97392231D02*
X105649600Y-97582707D01*
X105649600Y-97582707D02*
X105554361Y-97677945D01*
X105744838Y-95677945D02*
X103744838Y-95677945D01*
X103744838Y-95677945D02*
X103744838Y-95201755D01*
X103744838Y-95201755D02*
X103840076Y-94916040D01*
X103840076Y-94916040D02*
X104030552Y-94725564D01*
X104030552Y-94725564D02*
X104221028Y-94630326D01*
X104221028Y-94630326D02*
X104601980Y-94535088D01*
X104601980Y-94535088D02*
X104887695Y-94535088D01*
X104887695Y-94535088D02*
X105268647Y-94630326D01*
X105268647Y-94630326D02*
X105459123Y-94725564D01*
X105459123Y-94725564D02*
X105649600Y-94916040D01*
X105649600Y-94916040D02*
X105744838Y-95201755D01*
X105744838Y-95201755D02*
X105744838Y-95677945D01*
D10*
X115756265Y-50467657D02*
X115803884Y-50420038D01*
X115803884Y-50420038D02*
X115899122Y-50372419D01*
X115899122Y-50372419D02*
X116137217Y-50372419D01*
X116137217Y-50372419D02*
X116232455Y-50420038D01*
X116232455Y-50420038D02*
X116280074Y-50467657D01*
X116280074Y-50467657D02*
X116327693Y-50562895D01*
X116327693Y-50562895D02*
X116327693Y-50658133D01*
X116327693Y-50658133D02*
X116280074Y-50800990D01*
X116280074Y-50800990D02*
X115708646Y-51372419D01*
X115708646Y-51372419D02*
X116327693Y-51372419D01*
X116803884Y-51372419D02*
X116994360Y-51372419D01*
X116994360Y-51372419D02*
X117089598Y-51324800D01*
X117089598Y-51324800D02*
X117137217Y-51277180D01*
X117137217Y-51277180D02*
X117232455Y-51134323D01*
X117232455Y-51134323D02*
X117280074Y-50943847D01*
X117280074Y-50943847D02*
X117280074Y-50562895D01*
X117280074Y-50562895D02*
X117232455Y-50467657D01*
X117232455Y-50467657D02*
X117184836Y-50420038D01*
X117184836Y-50420038D02*
X117089598Y-50372419D01*
X117089598Y-50372419D02*
X116899122Y-50372419D01*
X116899122Y-50372419D02*
X116803884Y-50420038D01*
X116803884Y-50420038D02*
X116756265Y-50467657D01*
X116756265Y-50467657D02*
X116708646Y-50562895D01*
X116708646Y-50562895D02*
X116708646Y-50800990D01*
X116708646Y-50800990D02*
X116756265Y-50896228D01*
X116756265Y-50896228D02*
X116803884Y-50943847D01*
X116803884Y-50943847D02*
X116899122Y-50991466D01*
X116899122Y-50991466D02*
X117089598Y-50991466D01*
X117089598Y-50991466D02*
X117184836Y-50943847D01*
X117184836Y-50943847D02*
X117232455Y-50896228D01*
X117232455Y-50896228D02*
X117280074Y-50800990D01*
X118041979Y-50848609D02*
X118184836Y-50896228D01*
X118184836Y-50896228D02*
X118232455Y-50943847D01*
X118232455Y-50943847D02*
X118280074Y-51039085D01*
X118280074Y-51039085D02*
X118280074Y-51181942D01*
X118280074Y-51181942D02*
X118232455Y-51277180D01*
X118232455Y-51277180D02*
X118184836Y-51324800D01*
X118184836Y-51324800D02*
X118089598Y-51372419D01*
X118089598Y-51372419D02*
X117708646Y-51372419D01*
X117708646Y-51372419D02*
X117708646Y-50372419D01*
X117708646Y-50372419D02*
X118041979Y-50372419D01*
X118041979Y-50372419D02*
X118137217Y-50420038D01*
X118137217Y-50420038D02*
X118184836Y-50467657D01*
X118184836Y-50467657D02*
X118232455Y-50562895D01*
X118232455Y-50562895D02*
X118232455Y-50658133D01*
X118232455Y-50658133D02*
X118184836Y-50753371D01*
X118184836Y-50753371D02*
X118137217Y-50800990D01*
X118137217Y-50800990D02*
X118041979Y-50848609D01*
X118041979Y-50848609D02*
X117708646Y-50848609D01*
X128256265Y-50467657D02*
X128303884Y-50420038D01*
X128303884Y-50420038D02*
X128399122Y-50372419D01*
X128399122Y-50372419D02*
X128637217Y-50372419D01*
X128637217Y-50372419D02*
X128732455Y-50420038D01*
X128732455Y-50420038D02*
X128780074Y-50467657D01*
X128780074Y-50467657D02*
X128827693Y-50562895D01*
X128827693Y-50562895D02*
X128827693Y-50658133D01*
X128827693Y-50658133D02*
X128780074Y-50800990D01*
X128780074Y-50800990D02*
X128208646Y-51372419D01*
X128208646Y-51372419D02*
X128827693Y-51372419D01*
X129684836Y-50705752D02*
X129684836Y-51372419D01*
X129446741Y-50324800D02*
X129208646Y-51039085D01*
X129208646Y-51039085D02*
X129827693Y-51039085D01*
X130541979Y-50848609D02*
X130684836Y-50896228D01*
X130684836Y-50896228D02*
X130732455Y-50943847D01*
X130732455Y-50943847D02*
X130780074Y-51039085D01*
X130780074Y-51039085D02*
X130780074Y-51181942D01*
X130780074Y-51181942D02*
X130732455Y-51277180D01*
X130732455Y-51277180D02*
X130684836Y-51324800D01*
X130684836Y-51324800D02*
X130589598Y-51372419D01*
X130589598Y-51372419D02*
X130208646Y-51372419D01*
X130208646Y-51372419D02*
X130208646Y-50372419D01*
X130208646Y-50372419D02*
X130541979Y-50372419D01*
X130541979Y-50372419D02*
X130637217Y-50420038D01*
X130637217Y-50420038D02*
X130684836Y-50467657D01*
X130684836Y-50467657D02*
X130732455Y-50562895D01*
X130732455Y-50562895D02*
X130732455Y-50658133D01*
X130732455Y-50658133D02*
X130684836Y-50753371D01*
X130684836Y-50753371D02*
X130637217Y-50800990D01*
X130637217Y-50800990D02*
X130541979Y-50848609D01*
X130541979Y-50848609D02*
X130208646Y-50848609D01*
X174380952Y-58262475D02*
X174476190Y-58262475D01*
X174476190Y-58262475D02*
X174571428Y-58310094D01*
X174571428Y-58310094D02*
X174619047Y-58357713D01*
X174619047Y-58357713D02*
X174666666Y-58452951D01*
X174666666Y-58452951D02*
X174714285Y-58643427D01*
X174714285Y-58643427D02*
X174714285Y-58881522D01*
X174714285Y-58881522D02*
X174666666Y-59071998D01*
X174666666Y-59071998D02*
X174619047Y-59167236D01*
X174619047Y-59167236D02*
X174571428Y-59214856D01*
X174571428Y-59214856D02*
X174476190Y-59262475D01*
X174476190Y-59262475D02*
X174380952Y-59262475D01*
X174380952Y-59262475D02*
X174285714Y-59214856D01*
X174285714Y-59214856D02*
X174238095Y-59167236D01*
X174238095Y-59167236D02*
X174190476Y-59071998D01*
X174190476Y-59071998D02*
X174142857Y-58881522D01*
X174142857Y-58881522D02*
X174142857Y-58643427D01*
X174142857Y-58643427D02*
X174190476Y-58452951D01*
X174190476Y-58452951D02*
X174238095Y-58357713D01*
X174238095Y-58357713D02*
X174285714Y-58310094D01*
X174285714Y-58310094D02*
X174380952Y-58262475D01*
X175571428Y-58595808D02*
X175571428Y-59262475D01*
X175333333Y-58214856D02*
X175095238Y-58929141D01*
X175095238Y-58929141D02*
X175714285Y-58929141D01*
X176809523Y-58214856D02*
X175952381Y-59500570D01*
X177095238Y-58357713D02*
X177142857Y-58310094D01*
X177142857Y-58310094D02*
X177238095Y-58262475D01*
X177238095Y-58262475D02*
X177476190Y-58262475D01*
X177476190Y-58262475D02*
X177571428Y-58310094D01*
X177571428Y-58310094D02*
X177619047Y-58357713D01*
X177619047Y-58357713D02*
X177666666Y-58452951D01*
X177666666Y-58452951D02*
X177666666Y-58548189D01*
X177666666Y-58548189D02*
X177619047Y-58691046D01*
X177619047Y-58691046D02*
X177047619Y-59262475D01*
X177047619Y-59262475D02*
X177666666Y-59262475D01*
X178285714Y-58262475D02*
X178380952Y-58262475D01*
X178380952Y-58262475D02*
X178476190Y-58310094D01*
X178476190Y-58310094D02*
X178523809Y-58357713D01*
X178523809Y-58357713D02*
X178571428Y-58452951D01*
X178571428Y-58452951D02*
X178619047Y-58643427D01*
X178619047Y-58643427D02*
X178619047Y-58881522D01*
X178619047Y-58881522D02*
X178571428Y-59071998D01*
X178571428Y-59071998D02*
X178523809Y-59167236D01*
X178523809Y-59167236D02*
X178476190Y-59214856D01*
X178476190Y-59214856D02*
X178380952Y-59262475D01*
X178380952Y-59262475D02*
X178285714Y-59262475D01*
X178285714Y-59262475D02*
X178190476Y-59214856D01*
X178190476Y-59214856D02*
X178142857Y-59167236D01*
X178142857Y-59167236D02*
X178095238Y-59071998D01*
X178095238Y-59071998D02*
X178047619Y-58881522D01*
X178047619Y-58881522D02*
X178047619Y-58643427D01*
X178047619Y-58643427D02*
X178095238Y-58452951D01*
X178095238Y-58452951D02*
X178142857Y-58357713D01*
X178142857Y-58357713D02*
X178190476Y-58310094D01*
X178190476Y-58310094D02*
X178285714Y-58262475D01*
X179000000Y-58357713D02*
X179047619Y-58310094D01*
X179047619Y-58310094D02*
X179142857Y-58262475D01*
X179142857Y-58262475D02*
X179380952Y-58262475D01*
X179380952Y-58262475D02*
X179476190Y-58310094D01*
X179476190Y-58310094D02*
X179523809Y-58357713D01*
X179523809Y-58357713D02*
X179571428Y-58452951D01*
X179571428Y-58452951D02*
X179571428Y-58548189D01*
X179571428Y-58548189D02*
X179523809Y-58691046D01*
X179523809Y-58691046D02*
X178952381Y-59262475D01*
X178952381Y-59262475D02*
X179571428Y-59262475D01*
X180428571Y-58595808D02*
X180428571Y-59262475D01*
X180190476Y-58214856D02*
X179952381Y-58929141D01*
X179952381Y-58929141D02*
X180571428Y-58929141D01*
X181714286Y-59262475D02*
X181714286Y-58262475D01*
X182285714Y-59262475D02*
X181857143Y-58691046D01*
X182285714Y-58262475D02*
X181714286Y-58833903D01*
X183285714Y-59167236D02*
X183238095Y-59214856D01*
X183238095Y-59214856D02*
X183095238Y-59262475D01*
X183095238Y-59262475D02*
X183000000Y-59262475D01*
X183000000Y-59262475D02*
X182857143Y-59214856D01*
X182857143Y-59214856D02*
X182761905Y-59119617D01*
X182761905Y-59119617D02*
X182714286Y-59024379D01*
X182714286Y-59024379D02*
X182666667Y-58833903D01*
X182666667Y-58833903D02*
X182666667Y-58691046D01*
X182666667Y-58691046D02*
X182714286Y-58500570D01*
X182714286Y-58500570D02*
X182761905Y-58405332D01*
X182761905Y-58405332D02*
X182857143Y-58310094D01*
X182857143Y-58310094D02*
X183000000Y-58262475D01*
X183000000Y-58262475D02*
X183095238Y-58262475D01*
X183095238Y-58262475D02*
X183238095Y-58310094D01*
X183238095Y-58310094D02*
X183285714Y-58357713D01*
X183714286Y-58881522D02*
X184476191Y-58881522D01*
X185523809Y-59167236D02*
X185476190Y-59214856D01*
X185476190Y-59214856D02*
X185333333Y-59262475D01*
X185333333Y-59262475D02*
X185238095Y-59262475D01*
X185238095Y-59262475D02*
X185095238Y-59214856D01*
X185095238Y-59214856D02*
X185000000Y-59119617D01*
X185000000Y-59119617D02*
X184952381Y-59024379D01*
X184952381Y-59024379D02*
X184904762Y-58833903D01*
X184904762Y-58833903D02*
X184904762Y-58691046D01*
X184904762Y-58691046D02*
X184952381Y-58500570D01*
X184952381Y-58500570D02*
X185000000Y-58405332D01*
X185000000Y-58405332D02*
X185095238Y-58310094D01*
X185095238Y-58310094D02*
X185238095Y-58262475D01*
X185238095Y-58262475D02*
X185333333Y-58262475D01*
X185333333Y-58262475D02*
X185476190Y-58310094D01*
X185476190Y-58310094D02*
X185523809Y-58357713D01*
X186095238Y-59262475D02*
X186000000Y-59214856D01*
X186000000Y-59214856D02*
X185952381Y-59119617D01*
X185952381Y-59119617D02*
X185952381Y-58262475D01*
X186904762Y-58595808D02*
X186904762Y-59262475D01*
X186476191Y-58595808D02*
X186476191Y-59119617D01*
X186476191Y-59119617D02*
X186523810Y-59214856D01*
X186523810Y-59214856D02*
X186619048Y-59262475D01*
X186619048Y-59262475D02*
X186761905Y-59262475D01*
X186761905Y-59262475D02*
X186857143Y-59214856D01*
X186857143Y-59214856D02*
X186904762Y-59167236D01*
X187380953Y-59262475D02*
X187380953Y-58262475D01*
X187380953Y-58643427D02*
X187476191Y-58595808D01*
X187476191Y-58595808D02*
X187666667Y-58595808D01*
X187666667Y-58595808D02*
X187761905Y-58643427D01*
X187761905Y-58643427D02*
X187809524Y-58691046D01*
X187809524Y-58691046D02*
X187857143Y-58786284D01*
X187857143Y-58786284D02*
X187857143Y-59071998D01*
X187857143Y-59071998D02*
X187809524Y-59167236D01*
X187809524Y-59167236D02*
X187761905Y-59214856D01*
X187761905Y-59214856D02*
X187666667Y-59262475D01*
X187666667Y-59262475D02*
X187476191Y-59262475D01*
X187476191Y-59262475D02*
X187380953Y-59214856D01*
X179309523Y-60872419D02*
X179309523Y-59872419D01*
X179309523Y-60253371D02*
X179404761Y-60205752D01*
X179404761Y-60205752D02*
X179595237Y-60205752D01*
X179595237Y-60205752D02*
X179690475Y-60253371D01*
X179690475Y-60253371D02*
X179738094Y-60300990D01*
X179738094Y-60300990D02*
X179785713Y-60396228D01*
X179785713Y-60396228D02*
X179785713Y-60681942D01*
X179785713Y-60681942D02*
X179738094Y-60777180D01*
X179738094Y-60777180D02*
X179690475Y-60824800D01*
X179690475Y-60824800D02*
X179595237Y-60872419D01*
X179595237Y-60872419D02*
X179404761Y-60872419D01*
X179404761Y-60872419D02*
X179309523Y-60824800D01*
X180357142Y-60872419D02*
X180261904Y-60824800D01*
X180261904Y-60824800D02*
X180214285Y-60777180D01*
X180214285Y-60777180D02*
X180166666Y-60681942D01*
X180166666Y-60681942D02*
X180166666Y-60396228D01*
X180166666Y-60396228D02*
X180214285Y-60300990D01*
X180214285Y-60300990D02*
X180261904Y-60253371D01*
X180261904Y-60253371D02*
X180357142Y-60205752D01*
X180357142Y-60205752D02*
X180499999Y-60205752D01*
X180499999Y-60205752D02*
X180595237Y-60253371D01*
X180595237Y-60253371D02*
X180642856Y-60300990D01*
X180642856Y-60300990D02*
X180690475Y-60396228D01*
X180690475Y-60396228D02*
X180690475Y-60681942D01*
X180690475Y-60681942D02*
X180642856Y-60777180D01*
X180642856Y-60777180D02*
X180595237Y-60824800D01*
X180595237Y-60824800D02*
X180499999Y-60872419D01*
X180499999Y-60872419D02*
X180357142Y-60872419D01*
X181499999Y-60824800D02*
X181404761Y-60872419D01*
X181404761Y-60872419D02*
X181214285Y-60872419D01*
X181214285Y-60872419D02*
X181119047Y-60824800D01*
X181119047Y-60824800D02*
X181071428Y-60729561D01*
X181071428Y-60729561D02*
X181071428Y-60348609D01*
X181071428Y-60348609D02*
X181119047Y-60253371D01*
X181119047Y-60253371D02*
X181214285Y-60205752D01*
X181214285Y-60205752D02*
X181404761Y-60205752D01*
X181404761Y-60205752D02*
X181499999Y-60253371D01*
X181499999Y-60253371D02*
X181547618Y-60348609D01*
X181547618Y-60348609D02*
X181547618Y-60443847D01*
X181547618Y-60443847D02*
X181071428Y-60539085D01*
X181976190Y-60872419D02*
X181976190Y-60205752D01*
X181976190Y-60396228D02*
X182023809Y-60300990D01*
X182023809Y-60300990D02*
X182071428Y-60253371D01*
X182071428Y-60253371D02*
X182166666Y-60205752D01*
X182166666Y-60205752D02*
X182261904Y-60205752D01*
X182452381Y-60205752D02*
X182833333Y-60205752D01*
X182595238Y-59872419D02*
X182595238Y-60729561D01*
X182595238Y-60729561D02*
X182642857Y-60824800D01*
X182642857Y-60824800D02*
X182738095Y-60872419D01*
X182738095Y-60872419D02*
X182833333Y-60872419D01*
D11*
X150744838Y-81392231D02*
X148744838Y-81392231D01*
X148744838Y-81392231D02*
X148744838Y-80916041D01*
X148744838Y-80916041D02*
X148840076Y-80630326D01*
X148840076Y-80630326D02*
X149030552Y-80439850D01*
X149030552Y-80439850D02*
X149221028Y-80344612D01*
X149221028Y-80344612D02*
X149601980Y-80249374D01*
X149601980Y-80249374D02*
X149887695Y-80249374D01*
X149887695Y-80249374D02*
X150268647Y-80344612D01*
X150268647Y-80344612D02*
X150459123Y-80439850D01*
X150459123Y-80439850D02*
X150649600Y-80630326D01*
X150649600Y-80630326D02*
X150744838Y-80916041D01*
X150744838Y-80916041D02*
X150744838Y-81392231D01*
X150744838Y-78439850D02*
X150744838Y-79392231D01*
X150744838Y-79392231D02*
X148744838Y-79392231D01*
X148744838Y-77392231D02*
X148744838Y-77201754D01*
X148744838Y-77201754D02*
X148840076Y-77011278D01*
X148840076Y-77011278D02*
X148935314Y-76916040D01*
X148935314Y-76916040D02*
X149125790Y-76820802D01*
X149125790Y-76820802D02*
X149506742Y-76725564D01*
X149506742Y-76725564D02*
X149982933Y-76725564D01*
X149982933Y-76725564D02*
X150363885Y-76820802D01*
X150363885Y-76820802D02*
X150554361Y-76916040D01*
X150554361Y-76916040D02*
X150649600Y-77011278D01*
X150649600Y-77011278D02*
X150744838Y-77201754D01*
X150744838Y-77201754D02*
X150744838Y-77392231D01*
X150744838Y-77392231D02*
X150649600Y-77582707D01*
X150649600Y-77582707D02*
X150554361Y-77677945D01*
X150554361Y-77677945D02*
X150363885Y-77773183D01*
X150363885Y-77773183D02*
X149982933Y-77868421D01*
X149982933Y-77868421D02*
X149506742Y-77868421D01*
X149506742Y-77868421D02*
X149125790Y-77773183D01*
X149125790Y-77773183D02*
X148935314Y-77677945D01*
X148935314Y-77677945D02*
X148840076Y-77582707D01*
X148840076Y-77582707D02*
X148744838Y-77392231D01*
X148744838Y-75487469D02*
X148744838Y-75296992D01*
X148744838Y-75296992D02*
X148840076Y-75106516D01*
X148840076Y-75106516D02*
X148935314Y-75011278D01*
X148935314Y-75011278D02*
X149125790Y-74916040D01*
X149125790Y-74916040D02*
X149506742Y-74820802D01*
X149506742Y-74820802D02*
X149982933Y-74820802D01*
X149982933Y-74820802D02*
X150363885Y-74916040D01*
X150363885Y-74916040D02*
X150554361Y-75011278D01*
X150554361Y-75011278D02*
X150649600Y-75106516D01*
X150649600Y-75106516D02*
X150744838Y-75296992D01*
X150744838Y-75296992D02*
X150744838Y-75487469D01*
X150744838Y-75487469D02*
X150649600Y-75677945D01*
X150649600Y-75677945D02*
X150554361Y-75773183D01*
X150554361Y-75773183D02*
X150363885Y-75868421D01*
X150363885Y-75868421D02*
X149982933Y-75963659D01*
X149982933Y-75963659D02*
X149506742Y-75963659D01*
X149506742Y-75963659D02*
X149125790Y-75868421D01*
X149125790Y-75868421D02*
X148935314Y-75773183D01*
X148935314Y-75773183D02*
X148840076Y-75677945D01*
X148840076Y-75677945D02*
X148744838Y-75487469D01*
X149411504Y-73106516D02*
X150744838Y-73106516D01*
X148649600Y-73582707D02*
X150078171Y-74058897D01*
X150078171Y-74058897D02*
X150078171Y-72820802D01*
X150744838Y-72058897D02*
X148744838Y-72058897D01*
X148744838Y-72058897D02*
X148744838Y-71582707D01*
X148744838Y-71582707D02*
X148840076Y-71296992D01*
X148840076Y-71296992D02*
X149030552Y-71106516D01*
X149030552Y-71106516D02*
X149221028Y-71011278D01*
X149221028Y-71011278D02*
X149601980Y-70916040D01*
X149601980Y-70916040D02*
X149887695Y-70916040D01*
X149887695Y-70916040D02*
X150268647Y-71011278D01*
X150268647Y-71011278D02*
X150459123Y-71106516D01*
X150459123Y-71106516D02*
X150649600Y-71296992D01*
X150649600Y-71296992D02*
X150744838Y-71582707D01*
X150744838Y-71582707D02*
X150744838Y-72058897D01*
X165744838Y-103392231D02*
X163744838Y-103392231D01*
X163744838Y-103392231D02*
X163744838Y-102916041D01*
X163744838Y-102916041D02*
X163840076Y-102630326D01*
X163840076Y-102630326D02*
X164030552Y-102439850D01*
X164030552Y-102439850D02*
X164221028Y-102344612D01*
X164221028Y-102344612D02*
X164601980Y-102249374D01*
X164601980Y-102249374D02*
X164887695Y-102249374D01*
X164887695Y-102249374D02*
X165268647Y-102344612D01*
X165268647Y-102344612D02*
X165459123Y-102439850D01*
X165459123Y-102439850D02*
X165649600Y-102630326D01*
X165649600Y-102630326D02*
X165744838Y-102916041D01*
X165744838Y-102916041D02*
X165744838Y-103392231D01*
X165744838Y-100439850D02*
X165744838Y-101392231D01*
X165744838Y-101392231D02*
X163744838Y-101392231D01*
X163744838Y-98820802D02*
X163744838Y-99773183D01*
X163744838Y-99773183D02*
X164697219Y-99868421D01*
X164697219Y-99868421D02*
X164601980Y-99773183D01*
X164601980Y-99773183D02*
X164506742Y-99582707D01*
X164506742Y-99582707D02*
X164506742Y-99106516D01*
X164506742Y-99106516D02*
X164601980Y-98916040D01*
X164601980Y-98916040D02*
X164697219Y-98820802D01*
X164697219Y-98820802D02*
X164887695Y-98725564D01*
X164887695Y-98725564D02*
X165363885Y-98725564D01*
X165363885Y-98725564D02*
X165554361Y-98820802D01*
X165554361Y-98820802D02*
X165649600Y-98916040D01*
X165649600Y-98916040D02*
X165744838Y-99106516D01*
X165744838Y-99106516D02*
X165744838Y-99582707D01*
X165744838Y-99582707D02*
X165649600Y-99773183D01*
X165649600Y-99773183D02*
X165554361Y-99868421D01*
X164411504Y-97011278D02*
X165744838Y-97011278D01*
X163649600Y-97487469D02*
X165078171Y-97963659D01*
X165078171Y-97963659D02*
X165078171Y-96725564D01*
X163744838Y-95582707D02*
X163744838Y-95392230D01*
X163744838Y-95392230D02*
X163840076Y-95201754D01*
X163840076Y-95201754D02*
X163935314Y-95106516D01*
X163935314Y-95106516D02*
X164125790Y-95011278D01*
X164125790Y-95011278D02*
X164506742Y-94916040D01*
X164506742Y-94916040D02*
X164982933Y-94916040D01*
X164982933Y-94916040D02*
X165363885Y-95011278D01*
X165363885Y-95011278D02*
X165554361Y-95106516D01*
X165554361Y-95106516D02*
X165649600Y-95201754D01*
X165649600Y-95201754D02*
X165744838Y-95392230D01*
X165744838Y-95392230D02*
X165744838Y-95582707D01*
X165744838Y-95582707D02*
X165649600Y-95773183D01*
X165649600Y-95773183D02*
X165554361Y-95868421D01*
X165554361Y-95868421D02*
X165363885Y-95963659D01*
X165363885Y-95963659D02*
X164982933Y-96058897D01*
X164982933Y-96058897D02*
X164506742Y-96058897D01*
X164506742Y-96058897D02*
X164125790Y-95963659D01*
X164125790Y-95963659D02*
X163935314Y-95868421D01*
X163935314Y-95868421D02*
X163840076Y-95773183D01*
X163840076Y-95773183D02*
X163744838Y-95582707D01*
X165744838Y-94058897D02*
X163744838Y-94058897D01*
X163744838Y-94058897D02*
X163744838Y-93582707D01*
X163744838Y-93582707D02*
X163840076Y-93296992D01*
X163840076Y-93296992D02*
X164030552Y-93106516D01*
X164030552Y-93106516D02*
X164221028Y-93011278D01*
X164221028Y-93011278D02*
X164601980Y-92916040D01*
X164601980Y-92916040D02*
X164887695Y-92916040D01*
X164887695Y-92916040D02*
X165268647Y-93011278D01*
X165268647Y-93011278D02*
X165459123Y-93106516D01*
X165459123Y-93106516D02*
X165649600Y-93296992D01*
X165649600Y-93296992D02*
X165744838Y-93582707D01*
X165744838Y-93582707D02*
X165744838Y-94058897D01*
X190024950Y-122749374D02*
X189072569Y-123416041D01*
X190024950Y-123892231D02*
X188024950Y-123892231D01*
X188024950Y-123892231D02*
X188024950Y-123130326D01*
X188024950Y-123130326D02*
X188120188Y-122939850D01*
X188120188Y-122939850D02*
X188215426Y-122844612D01*
X188215426Y-122844612D02*
X188405902Y-122749374D01*
X188405902Y-122749374D02*
X188691616Y-122749374D01*
X188691616Y-122749374D02*
X188882092Y-122844612D01*
X188882092Y-122844612D02*
X188977331Y-122939850D01*
X188977331Y-122939850D02*
X189072569Y-123130326D01*
X189072569Y-123130326D02*
X189072569Y-123892231D01*
X189453521Y-121987469D02*
X189453521Y-121035088D01*
X190024950Y-122177945D02*
X188024950Y-121511279D01*
X188024950Y-121511279D02*
X190024950Y-120844612D01*
X190024950Y-120177945D02*
X188024950Y-120177945D01*
X188024950Y-120177945D02*
X189453521Y-119511278D01*
X189453521Y-119511278D02*
X188024950Y-118844612D01*
X188024950Y-118844612D02*
X190024950Y-118844612D01*
X189834473Y-117892231D02*
X189929712Y-117796993D01*
X189929712Y-117796993D02*
X190024950Y-117892231D01*
X190024950Y-117892231D02*
X189929712Y-117987469D01*
X189929712Y-117987469D02*
X189834473Y-117892231D01*
X189834473Y-117892231D02*
X190024950Y-117892231D01*
X188786854Y-117892231D02*
X188882092Y-117796993D01*
X188882092Y-117796993D02*
X188977331Y-117892231D01*
X188977331Y-117892231D02*
X188882092Y-117987469D01*
X188882092Y-117987469D02*
X188786854Y-117892231D01*
X188786854Y-117892231D02*
X188977331Y-117892231D01*
X190024950Y-115416040D02*
X188024950Y-115416040D01*
X188024950Y-115416040D02*
X189453521Y-114749373D01*
X189453521Y-114749373D02*
X188024950Y-114082707D01*
X188024950Y-114082707D02*
X190024950Y-114082707D01*
X188691616Y-112273183D02*
X190024950Y-112273183D01*
X187929712Y-112749374D02*
X189358283Y-113225564D01*
X189358283Y-113225564D02*
X189358283Y-111987469D01*
X188882092Y-110939850D02*
X188786854Y-111130326D01*
X188786854Y-111130326D02*
X188691616Y-111225564D01*
X188691616Y-111225564D02*
X188501140Y-111320802D01*
X188501140Y-111320802D02*
X188405902Y-111320802D01*
X188405902Y-111320802D02*
X188215426Y-111225564D01*
X188215426Y-111225564D02*
X188120188Y-111130326D01*
X188120188Y-111130326D02*
X188024950Y-110939850D01*
X188024950Y-110939850D02*
X188024950Y-110558897D01*
X188024950Y-110558897D02*
X188120188Y-110368421D01*
X188120188Y-110368421D02*
X188215426Y-110273183D01*
X188215426Y-110273183D02*
X188405902Y-110177945D01*
X188405902Y-110177945D02*
X188501140Y-110177945D01*
X188501140Y-110177945D02*
X188691616Y-110273183D01*
X188691616Y-110273183D02*
X188786854Y-110368421D01*
X188786854Y-110368421D02*
X188882092Y-110558897D01*
X188882092Y-110558897D02*
X188882092Y-110939850D01*
X188882092Y-110939850D02*
X188977331Y-111130326D01*
X188977331Y-111130326D02*
X189072569Y-111225564D01*
X189072569Y-111225564D02*
X189263045Y-111320802D01*
X189263045Y-111320802D02*
X189643997Y-111320802D01*
X189643997Y-111320802D02*
X189834473Y-111225564D01*
X189834473Y-111225564D02*
X189929712Y-111130326D01*
X189929712Y-111130326D02*
X190024950Y-110939850D01*
X190024950Y-110939850D02*
X190024950Y-110558897D01*
X190024950Y-110558897D02*
X189929712Y-110368421D01*
X189929712Y-110368421D02*
X189834473Y-110273183D01*
X189834473Y-110273183D02*
X189643997Y-110177945D01*
X189643997Y-110177945D02*
X189263045Y-110177945D01*
X189263045Y-110177945D02*
X189072569Y-110273183D01*
X189072569Y-110273183D02*
X188977331Y-110368421D01*
X188977331Y-110368421D02*
X188882092Y-110558897D01*
X188024950Y-109511278D02*
X188024950Y-108177945D01*
X188024950Y-108177945D02*
X190024950Y-109511278D01*
X190024950Y-109511278D02*
X190024950Y-108177945D01*
X188024950Y-107606516D02*
X188024950Y-106368421D01*
X188024950Y-106368421D02*
X188786854Y-107035088D01*
X188786854Y-107035088D02*
X188786854Y-106749373D01*
X188786854Y-106749373D02*
X188882092Y-106558897D01*
X188882092Y-106558897D02*
X188977331Y-106463659D01*
X188977331Y-106463659D02*
X189167807Y-106368421D01*
X189167807Y-106368421D02*
X189643997Y-106368421D01*
X189643997Y-106368421D02*
X189834473Y-106463659D01*
X189834473Y-106463659D02*
X189929712Y-106558897D01*
X189929712Y-106558897D02*
X190024950Y-106749373D01*
X190024950Y-106749373D02*
X190024950Y-107320802D01*
X190024950Y-107320802D02*
X189929712Y-107511278D01*
X189929712Y-107511278D02*
X189834473Y-107606516D01*
X188024950Y-104558897D02*
X188024950Y-105511278D01*
X188024950Y-105511278D02*
X188977331Y-105606516D01*
X188977331Y-105606516D02*
X188882092Y-105511278D01*
X188882092Y-105511278D02*
X188786854Y-105320802D01*
X188786854Y-105320802D02*
X188786854Y-104844611D01*
X188786854Y-104844611D02*
X188882092Y-104654135D01*
X188882092Y-104654135D02*
X188977331Y-104558897D01*
X188977331Y-104558897D02*
X189167807Y-104463659D01*
X189167807Y-104463659D02*
X189643997Y-104463659D01*
X189643997Y-104463659D02*
X189834473Y-104558897D01*
X189834473Y-104558897D02*
X189929712Y-104654135D01*
X189929712Y-104654135D02*
X190024950Y-104844611D01*
X190024950Y-104844611D02*
X190024950Y-105320802D01*
X190024950Y-105320802D02*
X189929712Y-105511278D01*
X189929712Y-105511278D02*
X189834473Y-105606516D01*
X189263045Y-103606516D02*
X189263045Y-102082707D01*
X188024950Y-101320802D02*
X188024950Y-99987469D01*
X188024950Y-99987469D02*
X190024950Y-100844612D01*
X188024950Y-98844612D02*
X188024950Y-98654135D01*
X188024950Y-98654135D02*
X188120188Y-98463659D01*
X188120188Y-98463659D02*
X188215426Y-98368421D01*
X188215426Y-98368421D02*
X188405902Y-98273183D01*
X188405902Y-98273183D02*
X188786854Y-98177945D01*
X188786854Y-98177945D02*
X189263045Y-98177945D01*
X189263045Y-98177945D02*
X189643997Y-98273183D01*
X189643997Y-98273183D02*
X189834473Y-98368421D01*
X189834473Y-98368421D02*
X189929712Y-98463659D01*
X189929712Y-98463659D02*
X190024950Y-98654135D01*
X190024950Y-98654135D02*
X190024950Y-98844612D01*
X190024950Y-98844612D02*
X189929712Y-99035088D01*
X189929712Y-99035088D02*
X189834473Y-99130326D01*
X189834473Y-99130326D02*
X189643997Y-99225564D01*
X189643997Y-99225564D02*
X189263045Y-99320802D01*
X189263045Y-99320802D02*
X188786854Y-99320802D01*
X188786854Y-99320802D02*
X188405902Y-99225564D01*
X188405902Y-99225564D02*
X188215426Y-99130326D01*
X188215426Y-99130326D02*
X188120188Y-99035088D01*
X188120188Y-99035088D02*
X188024950Y-98844612D01*
X190024950Y-97320802D02*
X188024950Y-97320802D01*
X188024950Y-97320802D02*
X188024950Y-96558897D01*
X188024950Y-96558897D02*
X188120188Y-96368421D01*
X188120188Y-96368421D02*
X188215426Y-96273183D01*
X188215426Y-96273183D02*
X188405902Y-96177945D01*
X188405902Y-96177945D02*
X188691616Y-96177945D01*
X188691616Y-96177945D02*
X188882092Y-96273183D01*
X188882092Y-96273183D02*
X188977331Y-96368421D01*
X188977331Y-96368421D02*
X189072569Y-96558897D01*
X189072569Y-96558897D02*
X189072569Y-97320802D01*
X189834473Y-94177945D02*
X189929712Y-94273183D01*
X189929712Y-94273183D02*
X190024950Y-94558897D01*
X190024950Y-94558897D02*
X190024950Y-94749373D01*
X190024950Y-94749373D02*
X189929712Y-95035088D01*
X189929712Y-95035088D02*
X189739235Y-95225564D01*
X189739235Y-95225564D02*
X189548759Y-95320802D01*
X189548759Y-95320802D02*
X189167807Y-95416040D01*
X189167807Y-95416040D02*
X188882092Y-95416040D01*
X188882092Y-95416040D02*
X188501140Y-95320802D01*
X188501140Y-95320802D02*
X188310664Y-95225564D01*
X188310664Y-95225564D02*
X188120188Y-95035088D01*
X188120188Y-95035088D02*
X188024950Y-94749373D01*
X188024950Y-94749373D02*
X188024950Y-94558897D01*
X188024950Y-94558897D02*
X188120188Y-94273183D01*
X188120188Y-94273183D02*
X188215426Y-94177945D01*
X190024950Y-92273183D02*
X190024950Y-93416040D01*
X190024950Y-92844612D02*
X188024950Y-92844612D01*
X188024950Y-92844612D02*
X188310664Y-93035088D01*
X188310664Y-93035088D02*
X188501140Y-93225564D01*
X188501140Y-93225564D02*
X188596378Y-93416040D01*
X193244838Y-122749374D02*
X192292457Y-123416041D01*
X193244838Y-123892231D02*
X191244838Y-123892231D01*
X191244838Y-123892231D02*
X191244838Y-123130326D01*
X191244838Y-123130326D02*
X191340076Y-122939850D01*
X191340076Y-122939850D02*
X191435314Y-122844612D01*
X191435314Y-122844612D02*
X191625790Y-122749374D01*
X191625790Y-122749374D02*
X191911504Y-122749374D01*
X191911504Y-122749374D02*
X192101980Y-122844612D01*
X192101980Y-122844612D02*
X192197219Y-122939850D01*
X192197219Y-122939850D02*
X192292457Y-123130326D01*
X192292457Y-123130326D02*
X192292457Y-123892231D01*
X191244838Y-121511279D02*
X191244838Y-121130326D01*
X191244838Y-121130326D02*
X191340076Y-120939850D01*
X191340076Y-120939850D02*
X191530552Y-120749374D01*
X191530552Y-120749374D02*
X191911504Y-120654136D01*
X191911504Y-120654136D02*
X192578171Y-120654136D01*
X192578171Y-120654136D02*
X192959123Y-120749374D01*
X192959123Y-120749374D02*
X193149600Y-120939850D01*
X193149600Y-120939850D02*
X193244838Y-121130326D01*
X193244838Y-121130326D02*
X193244838Y-121511279D01*
X193244838Y-121511279D02*
X193149600Y-121701755D01*
X193149600Y-121701755D02*
X192959123Y-121892231D01*
X192959123Y-121892231D02*
X192578171Y-121987469D01*
X192578171Y-121987469D02*
X191911504Y-121987469D01*
X191911504Y-121987469D02*
X191530552Y-121892231D01*
X191530552Y-121892231D02*
X191340076Y-121701755D01*
X191340076Y-121701755D02*
X191244838Y-121511279D01*
X193244838Y-119796993D02*
X191244838Y-119796993D01*
X191244838Y-119796993D02*
X192673409Y-119130326D01*
X192673409Y-119130326D02*
X191244838Y-118463660D01*
X191244838Y-118463660D02*
X193244838Y-118463660D01*
X193054361Y-117511279D02*
X193149600Y-117416041D01*
X193149600Y-117416041D02*
X193244838Y-117511279D01*
X193244838Y-117511279D02*
X193149600Y-117606517D01*
X193149600Y-117606517D02*
X193054361Y-117511279D01*
X193054361Y-117511279D02*
X193244838Y-117511279D01*
X192006742Y-117511279D02*
X192101980Y-117416041D01*
X192101980Y-117416041D02*
X192197219Y-117511279D01*
X192197219Y-117511279D02*
X192101980Y-117606517D01*
X192101980Y-117606517D02*
X192006742Y-117511279D01*
X192006742Y-117511279D02*
X192197219Y-117511279D01*
X191435314Y-115130326D02*
X191340076Y-115035088D01*
X191340076Y-115035088D02*
X191244838Y-114844612D01*
X191244838Y-114844612D02*
X191244838Y-114368421D01*
X191244838Y-114368421D02*
X191340076Y-114177945D01*
X191340076Y-114177945D02*
X191435314Y-114082707D01*
X191435314Y-114082707D02*
X191625790Y-113987469D01*
X191625790Y-113987469D02*
X191816266Y-113987469D01*
X191816266Y-113987469D02*
X192101980Y-114082707D01*
X192101980Y-114082707D02*
X193244838Y-115225564D01*
X193244838Y-115225564D02*
X193244838Y-113987469D01*
X191244838Y-113320802D02*
X191244838Y-111987469D01*
X191244838Y-111987469D02*
X193244838Y-112844612D01*
X193054361Y-110082707D02*
X193149600Y-110177945D01*
X193149600Y-110177945D02*
X193244838Y-110463659D01*
X193244838Y-110463659D02*
X193244838Y-110654135D01*
X193244838Y-110654135D02*
X193149600Y-110939850D01*
X193149600Y-110939850D02*
X192959123Y-111130326D01*
X192959123Y-111130326D02*
X192768647Y-111225564D01*
X192768647Y-111225564D02*
X192387695Y-111320802D01*
X192387695Y-111320802D02*
X192101980Y-111320802D01*
X192101980Y-111320802D02*
X191721028Y-111225564D01*
X191721028Y-111225564D02*
X191530552Y-111130326D01*
X191530552Y-111130326D02*
X191340076Y-110939850D01*
X191340076Y-110939850D02*
X191244838Y-110654135D01*
X191244838Y-110654135D02*
X191244838Y-110463659D01*
X191244838Y-110463659D02*
X191340076Y-110177945D01*
X191340076Y-110177945D02*
X191435314Y-110082707D01*
X191244838Y-108273183D02*
X191244838Y-109225564D01*
X191244838Y-109225564D02*
X192197219Y-109320802D01*
X192197219Y-109320802D02*
X192101980Y-109225564D01*
X192101980Y-109225564D02*
X192006742Y-109035088D01*
X192006742Y-109035088D02*
X192006742Y-108558897D01*
X192006742Y-108558897D02*
X192101980Y-108368421D01*
X192101980Y-108368421D02*
X192197219Y-108273183D01*
X192197219Y-108273183D02*
X192387695Y-108177945D01*
X192387695Y-108177945D02*
X192863885Y-108177945D01*
X192863885Y-108177945D02*
X193054361Y-108273183D01*
X193054361Y-108273183D02*
X193149600Y-108368421D01*
X193149600Y-108368421D02*
X193244838Y-108558897D01*
X193244838Y-108558897D02*
X193244838Y-109035088D01*
X193244838Y-109035088D02*
X193149600Y-109225564D01*
X193149600Y-109225564D02*
X193054361Y-109320802D01*
X193244838Y-106273183D02*
X193244838Y-107416040D01*
X193244838Y-106844612D02*
X191244838Y-106844612D01*
X191244838Y-106844612D02*
X191530552Y-107035088D01*
X191530552Y-107035088D02*
X191721028Y-107225564D01*
X191721028Y-107225564D02*
X191816266Y-107416040D01*
X191435314Y-105511278D02*
X191340076Y-105416040D01*
X191340076Y-105416040D02*
X191244838Y-105225564D01*
X191244838Y-105225564D02*
X191244838Y-104749373D01*
X191244838Y-104749373D02*
X191340076Y-104558897D01*
X191340076Y-104558897D02*
X191435314Y-104463659D01*
X191435314Y-104463659D02*
X191625790Y-104368421D01*
X191625790Y-104368421D02*
X191816266Y-104368421D01*
X191816266Y-104368421D02*
X192101980Y-104463659D01*
X192101980Y-104463659D02*
X193244838Y-105606516D01*
X193244838Y-105606516D02*
X193244838Y-104368421D01*
D10*
X141327693Y-51372419D02*
X140756265Y-51372419D01*
X141041979Y-51372419D02*
X141041979Y-50372419D01*
X141041979Y-50372419D02*
X140946741Y-50515276D01*
X140946741Y-50515276D02*
X140851503Y-50610514D01*
X140851503Y-50610514D02*
X140756265Y-50658133D01*
X141803884Y-51372419D02*
X141994360Y-51372419D01*
X141994360Y-51372419D02*
X142089598Y-51324800D01*
X142089598Y-51324800D02*
X142137217Y-51277180D01*
X142137217Y-51277180D02*
X142232455Y-51134323D01*
X142232455Y-51134323D02*
X142280074Y-50943847D01*
X142280074Y-50943847D02*
X142280074Y-50562895D01*
X142280074Y-50562895D02*
X142232455Y-50467657D01*
X142232455Y-50467657D02*
X142184836Y-50420038D01*
X142184836Y-50420038D02*
X142089598Y-50372419D01*
X142089598Y-50372419D02*
X141899122Y-50372419D01*
X141899122Y-50372419D02*
X141803884Y-50420038D01*
X141803884Y-50420038D02*
X141756265Y-50467657D01*
X141756265Y-50467657D02*
X141708646Y-50562895D01*
X141708646Y-50562895D02*
X141708646Y-50800990D01*
X141708646Y-50800990D02*
X141756265Y-50896228D01*
X141756265Y-50896228D02*
X141803884Y-50943847D01*
X141803884Y-50943847D02*
X141899122Y-50991466D01*
X141899122Y-50991466D02*
X142089598Y-50991466D01*
X142089598Y-50991466D02*
X142184836Y-50943847D01*
X142184836Y-50943847D02*
X142232455Y-50896228D01*
X142232455Y-50896228D02*
X142280074Y-50800990D01*
X143041979Y-50848609D02*
X143184836Y-50896228D01*
X143184836Y-50896228D02*
X143232455Y-50943847D01*
X143232455Y-50943847D02*
X143280074Y-51039085D01*
X143280074Y-51039085D02*
X143280074Y-51181942D01*
X143280074Y-51181942D02*
X143232455Y-51277180D01*
X143232455Y-51277180D02*
X143184836Y-51324800D01*
X143184836Y-51324800D02*
X143089598Y-51372419D01*
X143089598Y-51372419D02*
X142708646Y-51372419D01*
X142708646Y-51372419D02*
X142708646Y-50372419D01*
X142708646Y-50372419D02*
X143041979Y-50372419D01*
X143041979Y-50372419D02*
X143137217Y-50420038D01*
X143137217Y-50420038D02*
X143184836Y-50467657D01*
X143184836Y-50467657D02*
X143232455Y-50562895D01*
X143232455Y-50562895D02*
X143232455Y-50658133D01*
X143232455Y-50658133D02*
X143184836Y-50753371D01*
X143184836Y-50753371D02*
X143137217Y-50800990D01*
X143137217Y-50800990D02*
X143041979Y-50848609D01*
X143041979Y-50848609D02*
X142708646Y-50848609D01*
D11*
X120744838Y-81392231D02*
X118744838Y-81392231D01*
X118744838Y-81392231D02*
X118744838Y-80916041D01*
X118744838Y-80916041D02*
X118840076Y-80630326D01*
X118840076Y-80630326D02*
X119030552Y-80439850D01*
X119030552Y-80439850D02*
X119221028Y-80344612D01*
X119221028Y-80344612D02*
X119601980Y-80249374D01*
X119601980Y-80249374D02*
X119887695Y-80249374D01*
X119887695Y-80249374D02*
X120268647Y-80344612D01*
X120268647Y-80344612D02*
X120459123Y-80439850D01*
X120459123Y-80439850D02*
X120649600Y-80630326D01*
X120649600Y-80630326D02*
X120744838Y-80916041D01*
X120744838Y-80916041D02*
X120744838Y-81392231D01*
X120744838Y-78439850D02*
X120744838Y-79392231D01*
X120744838Y-79392231D02*
X118744838Y-79392231D01*
X118744838Y-77392231D02*
X118744838Y-77201754D01*
X118744838Y-77201754D02*
X118840076Y-77011278D01*
X118840076Y-77011278D02*
X118935314Y-76916040D01*
X118935314Y-76916040D02*
X119125790Y-76820802D01*
X119125790Y-76820802D02*
X119506742Y-76725564D01*
X119506742Y-76725564D02*
X119982933Y-76725564D01*
X119982933Y-76725564D02*
X120363885Y-76820802D01*
X120363885Y-76820802D02*
X120554361Y-76916040D01*
X120554361Y-76916040D02*
X120649600Y-77011278D01*
X120649600Y-77011278D02*
X120744838Y-77201754D01*
X120744838Y-77201754D02*
X120744838Y-77392231D01*
X120744838Y-77392231D02*
X120649600Y-77582707D01*
X120649600Y-77582707D02*
X120554361Y-77677945D01*
X120554361Y-77677945D02*
X120363885Y-77773183D01*
X120363885Y-77773183D02*
X119982933Y-77868421D01*
X119982933Y-77868421D02*
X119506742Y-77868421D01*
X119506742Y-77868421D02*
X119125790Y-77773183D01*
X119125790Y-77773183D02*
X118935314Y-77677945D01*
X118935314Y-77677945D02*
X118840076Y-77582707D01*
X118840076Y-77582707D02*
X118744838Y-77392231D01*
X118744838Y-76058897D02*
X118744838Y-74820802D01*
X118744838Y-74820802D02*
X119506742Y-75487469D01*
X119506742Y-75487469D02*
X119506742Y-75201754D01*
X119506742Y-75201754D02*
X119601980Y-75011278D01*
X119601980Y-75011278D02*
X119697219Y-74916040D01*
X119697219Y-74916040D02*
X119887695Y-74820802D01*
X119887695Y-74820802D02*
X120363885Y-74820802D01*
X120363885Y-74820802D02*
X120554361Y-74916040D01*
X120554361Y-74916040D02*
X120649600Y-75011278D01*
X120649600Y-75011278D02*
X120744838Y-75201754D01*
X120744838Y-75201754D02*
X120744838Y-75773183D01*
X120744838Y-75773183D02*
X120649600Y-75963659D01*
X120649600Y-75963659D02*
X120554361Y-76058897D01*
X118935314Y-74058897D02*
X118840076Y-73963659D01*
X118840076Y-73963659D02*
X118744838Y-73773183D01*
X118744838Y-73773183D02*
X118744838Y-73296992D01*
X118744838Y-73296992D02*
X118840076Y-73106516D01*
X118840076Y-73106516D02*
X118935314Y-73011278D01*
X118935314Y-73011278D02*
X119125790Y-72916040D01*
X119125790Y-72916040D02*
X119316266Y-72916040D01*
X119316266Y-72916040D02*
X119601980Y-73011278D01*
X119601980Y-73011278D02*
X120744838Y-74154135D01*
X120744838Y-74154135D02*
X120744838Y-72916040D01*
X120744838Y-72058897D02*
X118744838Y-72058897D01*
X118744838Y-72058897D02*
X118744838Y-71582707D01*
X118744838Y-71582707D02*
X118840076Y-71296992D01*
X118840076Y-71296992D02*
X119030552Y-71106516D01*
X119030552Y-71106516D02*
X119221028Y-71011278D01*
X119221028Y-71011278D02*
X119601980Y-70916040D01*
X119601980Y-70916040D02*
X119887695Y-70916040D01*
X119887695Y-70916040D02*
X120268647Y-71011278D01*
X120268647Y-71011278D02*
X120459123Y-71106516D01*
X120459123Y-71106516D02*
X120649600Y-71296992D01*
X120649600Y-71296992D02*
X120744838Y-71582707D01*
X120744838Y-71582707D02*
X120744838Y-72058897D01*
X120744838Y-103392231D02*
X118744838Y-103392231D01*
X118744838Y-103392231D02*
X118744838Y-102916041D01*
X118744838Y-102916041D02*
X118840076Y-102630326D01*
X118840076Y-102630326D02*
X119030552Y-102439850D01*
X119030552Y-102439850D02*
X119221028Y-102344612D01*
X119221028Y-102344612D02*
X119601980Y-102249374D01*
X119601980Y-102249374D02*
X119887695Y-102249374D01*
X119887695Y-102249374D02*
X120268647Y-102344612D01*
X120268647Y-102344612D02*
X120459123Y-102439850D01*
X120459123Y-102439850D02*
X120649600Y-102630326D01*
X120649600Y-102630326D02*
X120744838Y-102916041D01*
X120744838Y-102916041D02*
X120744838Y-103392231D01*
X120744838Y-100439850D02*
X120744838Y-101392231D01*
X120744838Y-101392231D02*
X118744838Y-101392231D01*
X118744838Y-99392231D02*
X118744838Y-99201754D01*
X118744838Y-99201754D02*
X118840076Y-99011278D01*
X118840076Y-99011278D02*
X118935314Y-98916040D01*
X118935314Y-98916040D02*
X119125790Y-98820802D01*
X119125790Y-98820802D02*
X119506742Y-98725564D01*
X119506742Y-98725564D02*
X119982933Y-98725564D01*
X119982933Y-98725564D02*
X120363885Y-98820802D01*
X120363885Y-98820802D02*
X120554361Y-98916040D01*
X120554361Y-98916040D02*
X120649600Y-99011278D01*
X120649600Y-99011278D02*
X120744838Y-99201754D01*
X120744838Y-99201754D02*
X120744838Y-99392231D01*
X120744838Y-99392231D02*
X120649600Y-99582707D01*
X120649600Y-99582707D02*
X120554361Y-99677945D01*
X120554361Y-99677945D02*
X120363885Y-99773183D01*
X120363885Y-99773183D02*
X119982933Y-99868421D01*
X119982933Y-99868421D02*
X119506742Y-99868421D01*
X119506742Y-99868421D02*
X119125790Y-99773183D01*
X119125790Y-99773183D02*
X118935314Y-99677945D01*
X118935314Y-99677945D02*
X118840076Y-99582707D01*
X118840076Y-99582707D02*
X118744838Y-99392231D01*
X118935314Y-97963659D02*
X118840076Y-97868421D01*
X118840076Y-97868421D02*
X118744838Y-97677945D01*
X118744838Y-97677945D02*
X118744838Y-97201754D01*
X118744838Y-97201754D02*
X118840076Y-97011278D01*
X118840076Y-97011278D02*
X118935314Y-96916040D01*
X118935314Y-96916040D02*
X119125790Y-96820802D01*
X119125790Y-96820802D02*
X119316266Y-96820802D01*
X119316266Y-96820802D02*
X119601980Y-96916040D01*
X119601980Y-96916040D02*
X120744838Y-98058897D01*
X120744838Y-98058897D02*
X120744838Y-96820802D01*
X118744838Y-95582707D02*
X118744838Y-95392230D01*
X118744838Y-95392230D02*
X118840076Y-95201754D01*
X118840076Y-95201754D02*
X118935314Y-95106516D01*
X118935314Y-95106516D02*
X119125790Y-95011278D01*
X119125790Y-95011278D02*
X119506742Y-94916040D01*
X119506742Y-94916040D02*
X119982933Y-94916040D01*
X119982933Y-94916040D02*
X120363885Y-95011278D01*
X120363885Y-95011278D02*
X120554361Y-95106516D01*
X120554361Y-95106516D02*
X120649600Y-95201754D01*
X120649600Y-95201754D02*
X120744838Y-95392230D01*
X120744838Y-95392230D02*
X120744838Y-95582707D01*
X120744838Y-95582707D02*
X120649600Y-95773183D01*
X120649600Y-95773183D02*
X120554361Y-95868421D01*
X120554361Y-95868421D02*
X120363885Y-95963659D01*
X120363885Y-95963659D02*
X119982933Y-96058897D01*
X119982933Y-96058897D02*
X119506742Y-96058897D01*
X119506742Y-96058897D02*
X119125790Y-95963659D01*
X119125790Y-95963659D02*
X118935314Y-95868421D01*
X118935314Y-95868421D02*
X118840076Y-95773183D01*
X118840076Y-95773183D02*
X118744838Y-95582707D01*
X120744838Y-94058897D02*
X118744838Y-94058897D01*
X118744838Y-94058897D02*
X118744838Y-93582707D01*
X118744838Y-93582707D02*
X118840076Y-93296992D01*
X118840076Y-93296992D02*
X119030552Y-93106516D01*
X119030552Y-93106516D02*
X119221028Y-93011278D01*
X119221028Y-93011278D02*
X119601980Y-92916040D01*
X119601980Y-92916040D02*
X119887695Y-92916040D01*
X119887695Y-92916040D02*
X120268647Y-93011278D01*
X120268647Y-93011278D02*
X120459123Y-93106516D01*
X120459123Y-93106516D02*
X120649600Y-93296992D01*
X120649600Y-93296992D02*
X120744838Y-93582707D01*
X120744838Y-93582707D02*
X120744838Y-94058897D01*
X157744838Y-130035088D02*
X157744838Y-130416041D01*
X157744838Y-130416041D02*
X157840076Y-130606517D01*
X157840076Y-130606517D02*
X157935314Y-130701755D01*
X157935314Y-130701755D02*
X158221028Y-130892231D01*
X158221028Y-130892231D02*
X158601980Y-130987469D01*
X158601980Y-130987469D02*
X159363885Y-130987469D01*
X159363885Y-130987469D02*
X159554361Y-130892231D01*
X159554361Y-130892231D02*
X159649600Y-130796993D01*
X159649600Y-130796993D02*
X159744838Y-130606517D01*
X159744838Y-130606517D02*
X159744838Y-130225564D01*
X159744838Y-130225564D02*
X159649600Y-130035088D01*
X159649600Y-130035088D02*
X159554361Y-129939850D01*
X159554361Y-129939850D02*
X159363885Y-129844612D01*
X159363885Y-129844612D02*
X158887695Y-129844612D01*
X158887695Y-129844612D02*
X158697219Y-129939850D01*
X158697219Y-129939850D02*
X158601980Y-130035088D01*
X158601980Y-130035088D02*
X158506742Y-130225564D01*
X158506742Y-130225564D02*
X158506742Y-130606517D01*
X158506742Y-130606517D02*
X158601980Y-130796993D01*
X158601980Y-130796993D02*
X158697219Y-130892231D01*
X158697219Y-130892231D02*
X158887695Y-130987469D01*
X158411504Y-128130326D02*
X159744838Y-128130326D01*
X157649600Y-128606517D02*
X159078171Y-129082707D01*
X159078171Y-129082707D02*
X159078171Y-127844612D01*
X159744838Y-127082707D02*
X157744838Y-127082707D01*
X158982933Y-126892231D02*
X159744838Y-126320802D01*
X158411504Y-126320802D02*
X159173409Y-127082707D01*
X159744838Y-122796992D02*
X158792457Y-123463659D01*
X159744838Y-123939849D02*
X157744838Y-123939849D01*
X157744838Y-123939849D02*
X157744838Y-123177944D01*
X157744838Y-123177944D02*
X157840076Y-122987468D01*
X157840076Y-122987468D02*
X157935314Y-122892230D01*
X157935314Y-122892230D02*
X158125790Y-122796992D01*
X158125790Y-122796992D02*
X158411504Y-122796992D01*
X158411504Y-122796992D02*
X158601980Y-122892230D01*
X158601980Y-122892230D02*
X158697219Y-122987468D01*
X158697219Y-122987468D02*
X158792457Y-123177944D01*
X158792457Y-123177944D02*
X158792457Y-123939849D01*
X157744838Y-121558897D02*
X157744838Y-121177944D01*
X157744838Y-121177944D02*
X157840076Y-120987468D01*
X157840076Y-120987468D02*
X158030552Y-120796992D01*
X158030552Y-120796992D02*
X158411504Y-120701754D01*
X158411504Y-120701754D02*
X159078171Y-120701754D01*
X159078171Y-120701754D02*
X159459123Y-120796992D01*
X159459123Y-120796992D02*
X159649600Y-120987468D01*
X159649600Y-120987468D02*
X159744838Y-121177944D01*
X159744838Y-121177944D02*
X159744838Y-121558897D01*
X159744838Y-121558897D02*
X159649600Y-121749373D01*
X159649600Y-121749373D02*
X159459123Y-121939849D01*
X159459123Y-121939849D02*
X159078171Y-122035087D01*
X159078171Y-122035087D02*
X158411504Y-122035087D01*
X158411504Y-122035087D02*
X158030552Y-121939849D01*
X158030552Y-121939849D02*
X157840076Y-121749373D01*
X157840076Y-121749373D02*
X157744838Y-121558897D01*
X159744838Y-119844611D02*
X157744838Y-119844611D01*
X157744838Y-119844611D02*
X159173409Y-119177944D01*
X159173409Y-119177944D02*
X157744838Y-118511278D01*
X157744838Y-118511278D02*
X159744838Y-118511278D01*
X135744838Y-103392231D02*
X133744838Y-103392231D01*
X133744838Y-103392231D02*
X133744838Y-102916041D01*
X133744838Y-102916041D02*
X133840076Y-102630326D01*
X133840076Y-102630326D02*
X134030552Y-102439850D01*
X134030552Y-102439850D02*
X134221028Y-102344612D01*
X134221028Y-102344612D02*
X134601980Y-102249374D01*
X134601980Y-102249374D02*
X134887695Y-102249374D01*
X134887695Y-102249374D02*
X135268647Y-102344612D01*
X135268647Y-102344612D02*
X135459123Y-102439850D01*
X135459123Y-102439850D02*
X135649600Y-102630326D01*
X135649600Y-102630326D02*
X135744838Y-102916041D01*
X135744838Y-102916041D02*
X135744838Y-103392231D01*
X135744838Y-100439850D02*
X135744838Y-101392231D01*
X135744838Y-101392231D02*
X133744838Y-101392231D01*
X133744838Y-99392231D02*
X133744838Y-99201754D01*
X133744838Y-99201754D02*
X133840076Y-99011278D01*
X133840076Y-99011278D02*
X133935314Y-98916040D01*
X133935314Y-98916040D02*
X134125790Y-98820802D01*
X134125790Y-98820802D02*
X134506742Y-98725564D01*
X134506742Y-98725564D02*
X134982933Y-98725564D01*
X134982933Y-98725564D02*
X135363885Y-98820802D01*
X135363885Y-98820802D02*
X135554361Y-98916040D01*
X135554361Y-98916040D02*
X135649600Y-99011278D01*
X135649600Y-99011278D02*
X135744838Y-99201754D01*
X135744838Y-99201754D02*
X135744838Y-99392231D01*
X135744838Y-99392231D02*
X135649600Y-99582707D01*
X135649600Y-99582707D02*
X135554361Y-99677945D01*
X135554361Y-99677945D02*
X135363885Y-99773183D01*
X135363885Y-99773183D02*
X134982933Y-99868421D01*
X134982933Y-99868421D02*
X134506742Y-99868421D01*
X134506742Y-99868421D02*
X134125790Y-99773183D01*
X134125790Y-99773183D02*
X133935314Y-99677945D01*
X133935314Y-99677945D02*
X133840076Y-99582707D01*
X133840076Y-99582707D02*
X133744838Y-99392231D01*
X134601980Y-97582707D02*
X134506742Y-97773183D01*
X134506742Y-97773183D02*
X134411504Y-97868421D01*
X134411504Y-97868421D02*
X134221028Y-97963659D01*
X134221028Y-97963659D02*
X134125790Y-97963659D01*
X134125790Y-97963659D02*
X133935314Y-97868421D01*
X133935314Y-97868421D02*
X133840076Y-97773183D01*
X133840076Y-97773183D02*
X133744838Y-97582707D01*
X133744838Y-97582707D02*
X133744838Y-97201754D01*
X133744838Y-97201754D02*
X133840076Y-97011278D01*
X133840076Y-97011278D02*
X133935314Y-96916040D01*
X133935314Y-96916040D02*
X134125790Y-96820802D01*
X134125790Y-96820802D02*
X134221028Y-96820802D01*
X134221028Y-96820802D02*
X134411504Y-96916040D01*
X134411504Y-96916040D02*
X134506742Y-97011278D01*
X134506742Y-97011278D02*
X134601980Y-97201754D01*
X134601980Y-97201754D02*
X134601980Y-97582707D01*
X134601980Y-97582707D02*
X134697219Y-97773183D01*
X134697219Y-97773183D02*
X134792457Y-97868421D01*
X134792457Y-97868421D02*
X134982933Y-97963659D01*
X134982933Y-97963659D02*
X135363885Y-97963659D01*
X135363885Y-97963659D02*
X135554361Y-97868421D01*
X135554361Y-97868421D02*
X135649600Y-97773183D01*
X135649600Y-97773183D02*
X135744838Y-97582707D01*
X135744838Y-97582707D02*
X135744838Y-97201754D01*
X135744838Y-97201754D02*
X135649600Y-97011278D01*
X135649600Y-97011278D02*
X135554361Y-96916040D01*
X135554361Y-96916040D02*
X135363885Y-96820802D01*
X135363885Y-96820802D02*
X134982933Y-96820802D01*
X134982933Y-96820802D02*
X134792457Y-96916040D01*
X134792457Y-96916040D02*
X134697219Y-97011278D01*
X134697219Y-97011278D02*
X134601980Y-97201754D01*
X133744838Y-95106516D02*
X133744838Y-95487469D01*
X133744838Y-95487469D02*
X133840076Y-95677945D01*
X133840076Y-95677945D02*
X133935314Y-95773183D01*
X133935314Y-95773183D02*
X134221028Y-95963659D01*
X134221028Y-95963659D02*
X134601980Y-96058897D01*
X134601980Y-96058897D02*
X135363885Y-96058897D01*
X135363885Y-96058897D02*
X135554361Y-95963659D01*
X135554361Y-95963659D02*
X135649600Y-95868421D01*
X135649600Y-95868421D02*
X135744838Y-95677945D01*
X135744838Y-95677945D02*
X135744838Y-95296992D01*
X135744838Y-95296992D02*
X135649600Y-95106516D01*
X135649600Y-95106516D02*
X135554361Y-95011278D01*
X135554361Y-95011278D02*
X135363885Y-94916040D01*
X135363885Y-94916040D02*
X134887695Y-94916040D01*
X134887695Y-94916040D02*
X134697219Y-95011278D01*
X134697219Y-95011278D02*
X134601980Y-95106516D01*
X134601980Y-95106516D02*
X134506742Y-95296992D01*
X134506742Y-95296992D02*
X134506742Y-95677945D01*
X134506742Y-95677945D02*
X134601980Y-95868421D01*
X134601980Y-95868421D02*
X134697219Y-95963659D01*
X134697219Y-95963659D02*
X134887695Y-96058897D01*
X135744838Y-94058897D02*
X133744838Y-94058897D01*
X133744838Y-94058897D02*
X133744838Y-93582707D01*
X133744838Y-93582707D02*
X133840076Y-93296992D01*
X133840076Y-93296992D02*
X134030552Y-93106516D01*
X134030552Y-93106516D02*
X134221028Y-93011278D01*
X134221028Y-93011278D02*
X134601980Y-92916040D01*
X134601980Y-92916040D02*
X134887695Y-92916040D01*
X134887695Y-92916040D02*
X135268647Y-93011278D01*
X135268647Y-93011278D02*
X135459123Y-93106516D01*
X135459123Y-93106516D02*
X135649600Y-93296992D01*
X135649600Y-93296992D02*
X135744838Y-93582707D01*
X135744838Y-93582707D02*
X135744838Y-94058897D01*
D10*
X186827693Y-51372419D02*
X186256265Y-51372419D01*
X186541979Y-51372419D02*
X186541979Y-50372419D01*
X186541979Y-50372419D02*
X186446741Y-50515276D01*
X186446741Y-50515276D02*
X186351503Y-50610514D01*
X186351503Y-50610514D02*
X186256265Y-50658133D01*
X187589598Y-50848609D02*
X187732455Y-50896228D01*
X187732455Y-50896228D02*
X187780074Y-50943847D01*
X187780074Y-50943847D02*
X187827693Y-51039085D01*
X187827693Y-51039085D02*
X187827693Y-51181942D01*
X187827693Y-51181942D02*
X187780074Y-51277180D01*
X187780074Y-51277180D02*
X187732455Y-51324800D01*
X187732455Y-51324800D02*
X187637217Y-51372419D01*
X187637217Y-51372419D02*
X187256265Y-51372419D01*
X187256265Y-51372419D02*
X187256265Y-50372419D01*
X187256265Y-50372419D02*
X187589598Y-50372419D01*
X187589598Y-50372419D02*
X187684836Y-50420038D01*
X187684836Y-50420038D02*
X187732455Y-50467657D01*
X187732455Y-50467657D02*
X187780074Y-50562895D01*
X187780074Y-50562895D02*
X187780074Y-50658133D01*
X187780074Y-50658133D02*
X187732455Y-50753371D01*
X187732455Y-50753371D02*
X187684836Y-50800990D01*
X187684836Y-50800990D02*
X187589598Y-50848609D01*
X187589598Y-50848609D02*
X187256265Y-50848609D01*
D11*
X171107768Y-57244838D02*
X171107768Y-55244838D01*
X171107768Y-55244838D02*
X171774435Y-56673409D01*
X171774435Y-56673409D02*
X172441101Y-55244838D01*
X172441101Y-55244838D02*
X172441101Y-57244838D01*
X173679196Y-57244838D02*
X173488720Y-57149600D01*
X173488720Y-57149600D02*
X173393482Y-57054361D01*
X173393482Y-57054361D02*
X173298244Y-56863885D01*
X173298244Y-56863885D02*
X173298244Y-56292457D01*
X173298244Y-56292457D02*
X173393482Y-56101980D01*
X173393482Y-56101980D02*
X173488720Y-56006742D01*
X173488720Y-56006742D02*
X173679196Y-55911504D01*
X173679196Y-55911504D02*
X173964911Y-55911504D01*
X173964911Y-55911504D02*
X174155387Y-56006742D01*
X174155387Y-56006742D02*
X174250625Y-56101980D01*
X174250625Y-56101980D02*
X174345863Y-56292457D01*
X174345863Y-56292457D02*
X174345863Y-56863885D01*
X174345863Y-56863885D02*
X174250625Y-57054361D01*
X174250625Y-57054361D02*
X174155387Y-57149600D01*
X174155387Y-57149600D02*
X173964911Y-57244838D01*
X173964911Y-57244838D02*
X173679196Y-57244838D01*
X176060149Y-57244838D02*
X176060149Y-55244838D01*
X176060149Y-57149600D02*
X175869673Y-57244838D01*
X175869673Y-57244838D02*
X175488720Y-57244838D01*
X175488720Y-57244838D02*
X175298244Y-57149600D01*
X175298244Y-57149600D02*
X175203006Y-57054361D01*
X175203006Y-57054361D02*
X175107768Y-56863885D01*
X175107768Y-56863885D02*
X175107768Y-56292457D01*
X175107768Y-56292457D02*
X175203006Y-56101980D01*
X175203006Y-56101980D02*
X175298244Y-56006742D01*
X175298244Y-56006742D02*
X175488720Y-55911504D01*
X175488720Y-55911504D02*
X175869673Y-55911504D01*
X175869673Y-55911504D02*
X176060149Y-56006742D01*
X177869673Y-55911504D02*
X177869673Y-57244838D01*
X177012530Y-55911504D02*
X177012530Y-56959123D01*
X177012530Y-56959123D02*
X177107768Y-57149600D01*
X177107768Y-57149600D02*
X177298244Y-57244838D01*
X177298244Y-57244838D02*
X177583959Y-57244838D01*
X177583959Y-57244838D02*
X177774435Y-57149600D01*
X177774435Y-57149600D02*
X177869673Y-57054361D01*
X179107768Y-57244838D02*
X178917292Y-57149600D01*
X178917292Y-57149600D02*
X178822054Y-56959123D01*
X178822054Y-56959123D02*
X178822054Y-55244838D01*
X181393483Y-57244838D02*
X181393483Y-55244838D01*
X181393483Y-55244838D02*
X182060150Y-56673409D01*
X182060150Y-56673409D02*
X182726816Y-55244838D01*
X182726816Y-55244838D02*
X182726816Y-57244838D01*
X184060149Y-55244838D02*
X184250626Y-55244838D01*
X184250626Y-55244838D02*
X184441102Y-55340076D01*
X184441102Y-55340076D02*
X184536340Y-55435314D01*
X184536340Y-55435314D02*
X184631578Y-55625790D01*
X184631578Y-55625790D02*
X184726816Y-56006742D01*
X184726816Y-56006742D02*
X184726816Y-56482933D01*
X184726816Y-56482933D02*
X184631578Y-56863885D01*
X184631578Y-56863885D02*
X184536340Y-57054361D01*
X184536340Y-57054361D02*
X184441102Y-57149600D01*
X184441102Y-57149600D02*
X184250626Y-57244838D01*
X184250626Y-57244838D02*
X184060149Y-57244838D01*
X184060149Y-57244838D02*
X183869673Y-57149600D01*
X183869673Y-57149600D02*
X183774435Y-57054361D01*
X183774435Y-57054361D02*
X183679197Y-56863885D01*
X183679197Y-56863885D02*
X183583959Y-56482933D01*
X183583959Y-56482933D02*
X183583959Y-56006742D01*
X183583959Y-56006742D02*
X183679197Y-55625790D01*
X183679197Y-55625790D02*
X183774435Y-55435314D01*
X183774435Y-55435314D02*
X183869673Y-55340076D01*
X183869673Y-55340076D02*
X184060149Y-55244838D01*
X186441102Y-55244838D02*
X186060149Y-55244838D01*
X186060149Y-55244838D02*
X185869673Y-55340076D01*
X185869673Y-55340076D02*
X185774435Y-55435314D01*
X185774435Y-55435314D02*
X185583959Y-55721028D01*
X185583959Y-55721028D02*
X185488721Y-56101980D01*
X185488721Y-56101980D02*
X185488721Y-56863885D01*
X185488721Y-56863885D02*
X185583959Y-57054361D01*
X185583959Y-57054361D02*
X185679197Y-57149600D01*
X185679197Y-57149600D02*
X185869673Y-57244838D01*
X185869673Y-57244838D02*
X186250626Y-57244838D01*
X186250626Y-57244838D02*
X186441102Y-57149600D01*
X186441102Y-57149600D02*
X186536340Y-57054361D01*
X186536340Y-57054361D02*
X186631578Y-56863885D01*
X186631578Y-56863885D02*
X186631578Y-56387695D01*
X186631578Y-56387695D02*
X186536340Y-56197219D01*
X186536340Y-56197219D02*
X186441102Y-56101980D01*
X186441102Y-56101980D02*
X186250626Y-56006742D01*
X186250626Y-56006742D02*
X185869673Y-56006742D01*
X185869673Y-56006742D02*
X185679197Y-56101980D01*
X185679197Y-56101980D02*
X185583959Y-56197219D01*
X185583959Y-56197219D02*
X185488721Y-56387695D01*
X187393483Y-55435314D02*
X187488721Y-55340076D01*
X187488721Y-55340076D02*
X187679197Y-55244838D01*
X187679197Y-55244838D02*
X188155388Y-55244838D01*
X188155388Y-55244838D02*
X188345864Y-55340076D01*
X188345864Y-55340076D02*
X188441102Y-55435314D01*
X188441102Y-55435314D02*
X188536340Y-55625790D01*
X188536340Y-55625790D02*
X188536340Y-55816266D01*
X188536340Y-55816266D02*
X188441102Y-56101980D01*
X188441102Y-56101980D02*
X187298245Y-57244838D01*
X187298245Y-57244838D02*
X188536340Y-57244838D01*
X189393483Y-57054361D02*
X189488721Y-57149600D01*
X189488721Y-57149600D02*
X189393483Y-57244838D01*
X189393483Y-57244838D02*
X189298245Y-57149600D01*
X189298245Y-57149600D02*
X189393483Y-57054361D01*
X189393483Y-57054361D02*
X189393483Y-57244838D01*
X190250626Y-55435314D02*
X190345864Y-55340076D01*
X190345864Y-55340076D02*
X190536340Y-55244838D01*
X190536340Y-55244838D02*
X191012531Y-55244838D01*
X191012531Y-55244838D02*
X191203007Y-55340076D01*
X191203007Y-55340076D02*
X191298245Y-55435314D01*
X191298245Y-55435314D02*
X191393483Y-55625790D01*
X191393483Y-55625790D02*
X191393483Y-55816266D01*
X191393483Y-55816266D02*
X191298245Y-56101980D01*
X191298245Y-56101980D02*
X190155388Y-57244838D01*
X190155388Y-57244838D02*
X191393483Y-57244838D01*
D12*
X155833333Y-51239580D02*
X155785714Y-51287200D01*
X155785714Y-51287200D02*
X155642857Y-51334819D01*
X155642857Y-51334819D02*
X155547619Y-51334819D01*
X155547619Y-51334819D02*
X155404762Y-51287200D01*
X155404762Y-51287200D02*
X155309524Y-51191961D01*
X155309524Y-51191961D02*
X155261905Y-51096723D01*
X155261905Y-51096723D02*
X155214286Y-50906247D01*
X155214286Y-50906247D02*
X155214286Y-50763390D01*
X155214286Y-50763390D02*
X155261905Y-50572914D01*
X155261905Y-50572914D02*
X155309524Y-50477676D01*
X155309524Y-50477676D02*
X155404762Y-50382438D01*
X155404762Y-50382438D02*
X155547619Y-50334819D01*
X155547619Y-50334819D02*
X155642857Y-50334819D01*
X155642857Y-50334819D02*
X155785714Y-50382438D01*
X155785714Y-50382438D02*
X155833333Y-50430057D01*
X156785714Y-51334819D02*
X156214286Y-51334819D01*
X156500000Y-51334819D02*
X156500000Y-50334819D01*
X156500000Y-50334819D02*
X156404762Y-50477676D01*
X156404762Y-50477676D02*
X156309524Y-50572914D01*
X156309524Y-50572914D02*
X156214286Y-50620533D01*
X119048095Y-65124819D02*
X119048095Y-65934342D01*
X119048095Y-65934342D02*
X119095714Y-66029580D01*
X119095714Y-66029580D02*
X119143333Y-66077200D01*
X119143333Y-66077200D02*
X119238571Y-66124819D01*
X119238571Y-66124819D02*
X119429047Y-66124819D01*
X119429047Y-66124819D02*
X119524285Y-66077200D01*
X119524285Y-66077200D02*
X119571904Y-66029580D01*
X119571904Y-66029580D02*
X119619523Y-65934342D01*
X119619523Y-65934342D02*
X119619523Y-65124819D01*
X120619523Y-66124819D02*
X120048095Y-66124819D01*
X120333809Y-66124819D02*
X120333809Y-65124819D01*
X120333809Y-65124819D02*
X120238571Y-65267676D01*
X120238571Y-65267676D02*
X120143333Y-65362914D01*
X120143333Y-65362914D02*
X120048095Y-65410533D01*
X184833333Y-82454819D02*
X184500000Y-81978628D01*
X184261905Y-82454819D02*
X184261905Y-81454819D01*
X184261905Y-81454819D02*
X184642857Y-81454819D01*
X184642857Y-81454819D02*
X184738095Y-81502438D01*
X184738095Y-81502438D02*
X184785714Y-81550057D01*
X184785714Y-81550057D02*
X184833333Y-81645295D01*
X184833333Y-81645295D02*
X184833333Y-81788152D01*
X184833333Y-81788152D02*
X184785714Y-81883390D01*
X184785714Y-81883390D02*
X184738095Y-81931009D01*
X184738095Y-81931009D02*
X184642857Y-81978628D01*
X184642857Y-81978628D02*
X184261905Y-81978628D01*
X185690476Y-81454819D02*
X185500000Y-81454819D01*
X185500000Y-81454819D02*
X185404762Y-81502438D01*
X185404762Y-81502438D02*
X185357143Y-81550057D01*
X185357143Y-81550057D02*
X185261905Y-81692914D01*
X185261905Y-81692914D02*
X185214286Y-81883390D01*
X185214286Y-81883390D02*
X185214286Y-82264342D01*
X185214286Y-82264342D02*
X185261905Y-82359580D01*
X185261905Y-82359580D02*
X185309524Y-82407200D01*
X185309524Y-82407200D02*
X185404762Y-82454819D01*
X185404762Y-82454819D02*
X185595238Y-82454819D01*
X185595238Y-82454819D02*
X185690476Y-82407200D01*
X185690476Y-82407200D02*
X185738095Y-82359580D01*
X185738095Y-82359580D02*
X185785714Y-82264342D01*
X185785714Y-82264342D02*
X185785714Y-82026247D01*
X185785714Y-82026247D02*
X185738095Y-81931009D01*
X185738095Y-81931009D02*
X185690476Y-81883390D01*
X185690476Y-81883390D02*
X185595238Y-81835771D01*
X185595238Y-81835771D02*
X185404762Y-81835771D01*
X185404762Y-81835771D02*
X185309524Y-81883390D01*
X185309524Y-81883390D02*
X185261905Y-81931009D01*
X185261905Y-81931009D02*
X185214286Y-82026247D01*
X103738095Y-109954819D02*
X103738095Y-110764342D01*
X103738095Y-110764342D02*
X103785714Y-110859580D01*
X103785714Y-110859580D02*
X103833333Y-110907200D01*
X103833333Y-110907200D02*
X103928571Y-110954819D01*
X103928571Y-110954819D02*
X104119047Y-110954819D01*
X104119047Y-110954819D02*
X104214285Y-110907200D01*
X104214285Y-110907200D02*
X104261904Y-110859580D01*
X104261904Y-110859580D02*
X104309523Y-110764342D01*
X104309523Y-110764342D02*
X104309523Y-109954819D01*
X105261904Y-109954819D02*
X104785714Y-109954819D01*
X104785714Y-109954819D02*
X104738095Y-110431009D01*
X104738095Y-110431009D02*
X104785714Y-110383390D01*
X104785714Y-110383390D02*
X104880952Y-110335771D01*
X104880952Y-110335771D02*
X105119047Y-110335771D01*
X105119047Y-110335771D02*
X105214285Y-110383390D01*
X105214285Y-110383390D02*
X105261904Y-110431009D01*
X105261904Y-110431009D02*
X105309523Y-110526247D01*
X105309523Y-110526247D02*
X105309523Y-110764342D01*
X105309523Y-110764342D02*
X105261904Y-110859580D01*
X105261904Y-110859580D02*
X105214285Y-110907200D01*
X105214285Y-110907200D02*
X105119047Y-110954819D01*
X105119047Y-110954819D02*
X104880952Y-110954819D01*
X104880952Y-110954819D02*
X104785714Y-110907200D01*
X104785714Y-110907200D02*
X104738095Y-110859580D01*
X198033333Y-83654819D02*
X197700000Y-83178628D01*
X197461905Y-83654819D02*
X197461905Y-82654819D01*
X197461905Y-82654819D02*
X197842857Y-82654819D01*
X197842857Y-82654819D02*
X197938095Y-82702438D01*
X197938095Y-82702438D02*
X197985714Y-82750057D01*
X197985714Y-82750057D02*
X198033333Y-82845295D01*
X198033333Y-82845295D02*
X198033333Y-82988152D01*
X198033333Y-82988152D02*
X197985714Y-83083390D01*
X197985714Y-83083390D02*
X197938095Y-83131009D01*
X197938095Y-83131009D02*
X197842857Y-83178628D01*
X197842857Y-83178628D02*
X197461905Y-83178628D01*
X198366667Y-82654819D02*
X198985714Y-82654819D01*
X198985714Y-82654819D02*
X198652381Y-83035771D01*
X198652381Y-83035771D02*
X198795238Y-83035771D01*
X198795238Y-83035771D02*
X198890476Y-83083390D01*
X198890476Y-83083390D02*
X198938095Y-83131009D01*
X198938095Y-83131009D02*
X198985714Y-83226247D01*
X198985714Y-83226247D02*
X198985714Y-83464342D01*
X198985714Y-83464342D02*
X198938095Y-83559580D01*
X198938095Y-83559580D02*
X198890476Y-83607200D01*
X198890476Y-83607200D02*
X198795238Y-83654819D01*
X198795238Y-83654819D02*
X198509524Y-83654819D01*
X198509524Y-83654819D02*
X198414286Y-83607200D01*
X198414286Y-83607200D02*
X198366667Y-83559580D01*
X149953333Y-119674819D02*
X149620000Y-119198628D01*
X149381905Y-119674819D02*
X149381905Y-118674819D01*
X149381905Y-118674819D02*
X149762857Y-118674819D01*
X149762857Y-118674819D02*
X149858095Y-118722438D01*
X149858095Y-118722438D02*
X149905714Y-118770057D01*
X149905714Y-118770057D02*
X149953333Y-118865295D01*
X149953333Y-118865295D02*
X149953333Y-119008152D01*
X149953333Y-119008152D02*
X149905714Y-119103390D01*
X149905714Y-119103390D02*
X149858095Y-119151009D01*
X149858095Y-119151009D02*
X149762857Y-119198628D01*
X149762857Y-119198628D02*
X149381905Y-119198628D01*
X150429524Y-119674819D02*
X150620000Y-119674819D01*
X150620000Y-119674819D02*
X150715238Y-119627200D01*
X150715238Y-119627200D02*
X150762857Y-119579580D01*
X150762857Y-119579580D02*
X150858095Y-119436723D01*
X150858095Y-119436723D02*
X150905714Y-119246247D01*
X150905714Y-119246247D02*
X150905714Y-118865295D01*
X150905714Y-118865295D02*
X150858095Y-118770057D01*
X150858095Y-118770057D02*
X150810476Y-118722438D01*
X150810476Y-118722438D02*
X150715238Y-118674819D01*
X150715238Y-118674819D02*
X150524762Y-118674819D01*
X150524762Y-118674819D02*
X150429524Y-118722438D01*
X150429524Y-118722438D02*
X150381905Y-118770057D01*
X150381905Y-118770057D02*
X150334286Y-118865295D01*
X150334286Y-118865295D02*
X150334286Y-119103390D01*
X150334286Y-119103390D02*
X150381905Y-119198628D01*
X150381905Y-119198628D02*
X150429524Y-119246247D01*
X150429524Y-119246247D02*
X150524762Y-119293866D01*
X150524762Y-119293866D02*
X150715238Y-119293866D01*
X150715238Y-119293866D02*
X150810476Y-119246247D01*
X150810476Y-119246247D02*
X150858095Y-119198628D01*
X150858095Y-119198628D02*
X150905714Y-119103390D01*
X182033333Y-83654819D02*
X181700000Y-83178628D01*
X181461905Y-83654819D02*
X181461905Y-82654819D01*
X181461905Y-82654819D02*
X181842857Y-82654819D01*
X181842857Y-82654819D02*
X181938095Y-82702438D01*
X181938095Y-82702438D02*
X181985714Y-82750057D01*
X181985714Y-82750057D02*
X182033333Y-82845295D01*
X182033333Y-82845295D02*
X182033333Y-82988152D01*
X182033333Y-82988152D02*
X181985714Y-83083390D01*
X181985714Y-83083390D02*
X181938095Y-83131009D01*
X181938095Y-83131009D02*
X181842857Y-83178628D01*
X181842857Y-83178628D02*
X181461905Y-83178628D01*
X182366667Y-82654819D02*
X183033333Y-82654819D01*
X183033333Y-82654819D02*
X182604762Y-83654819D01*
X173261905Y-150954819D02*
X173261905Y-151764342D01*
X173261905Y-151764342D02*
X173309524Y-151859580D01*
X173309524Y-151859580D02*
X173357143Y-151907200D01*
X173357143Y-151907200D02*
X173452381Y-151954819D01*
X173452381Y-151954819D02*
X173642857Y-151954819D01*
X173642857Y-151954819D02*
X173738095Y-151907200D01*
X173738095Y-151907200D02*
X173785714Y-151859580D01*
X173785714Y-151859580D02*
X173833333Y-151764342D01*
X173833333Y-151764342D02*
X173833333Y-150954819D01*
X174833333Y-151954819D02*
X174261905Y-151954819D01*
X174547619Y-151954819D02*
X174547619Y-150954819D01*
X174547619Y-150954819D02*
X174452381Y-151097676D01*
X174452381Y-151097676D02*
X174357143Y-151192914D01*
X174357143Y-151192914D02*
X174261905Y-151240533D01*
X175214286Y-151050057D02*
X175261905Y-151002438D01*
X175261905Y-151002438D02*
X175357143Y-150954819D01*
X175357143Y-150954819D02*
X175595238Y-150954819D01*
X175595238Y-150954819D02*
X175690476Y-151002438D01*
X175690476Y-151002438D02*
X175738095Y-151050057D01*
X175738095Y-151050057D02*
X175785714Y-151145295D01*
X175785714Y-151145295D02*
X175785714Y-151240533D01*
X175785714Y-151240533D02*
X175738095Y-151383390D01*
X175738095Y-151383390D02*
X175166667Y-151954819D01*
X175166667Y-151954819D02*
X175785714Y-151954819D01*
X189141905Y-126784819D02*
X189141905Y-127594342D01*
X189141905Y-127594342D02*
X189189524Y-127689580D01*
X189189524Y-127689580D02*
X189237143Y-127737200D01*
X189237143Y-127737200D02*
X189332381Y-127784819D01*
X189332381Y-127784819D02*
X189522857Y-127784819D01*
X189522857Y-127784819D02*
X189618095Y-127737200D01*
X189618095Y-127737200D02*
X189665714Y-127689580D01*
X189665714Y-127689580D02*
X189713333Y-127594342D01*
X189713333Y-127594342D02*
X189713333Y-126784819D01*
X190713333Y-127784819D02*
X190141905Y-127784819D01*
X190427619Y-127784819D02*
X190427619Y-126784819D01*
X190427619Y-126784819D02*
X190332381Y-126927676D01*
X190332381Y-126927676D02*
X190237143Y-127022914D01*
X190237143Y-127022914D02*
X190141905Y-127070533D01*
X191665714Y-127784819D02*
X191094286Y-127784819D01*
X191380000Y-127784819D02*
X191380000Y-126784819D01*
X191380000Y-126784819D02*
X191284762Y-126927676D01*
X191284762Y-126927676D02*
X191189524Y-127022914D01*
X191189524Y-127022914D02*
X191094286Y-127070533D01*
X205833333Y-83654819D02*
X205500000Y-83178628D01*
X205261905Y-83654819D02*
X205261905Y-82654819D01*
X205261905Y-82654819D02*
X205642857Y-82654819D01*
X205642857Y-82654819D02*
X205738095Y-82702438D01*
X205738095Y-82702438D02*
X205785714Y-82750057D01*
X205785714Y-82750057D02*
X205833333Y-82845295D01*
X205833333Y-82845295D02*
X205833333Y-82988152D01*
X205833333Y-82988152D02*
X205785714Y-83083390D01*
X205785714Y-83083390D02*
X205738095Y-83131009D01*
X205738095Y-83131009D02*
X205642857Y-83178628D01*
X205642857Y-83178628D02*
X205261905Y-83178628D01*
X206785714Y-83654819D02*
X206214286Y-83654819D01*
X206500000Y-83654819D02*
X206500000Y-82654819D01*
X206500000Y-82654819D02*
X206404762Y-82797676D01*
X206404762Y-82797676D02*
X206309524Y-82892914D01*
X206309524Y-82892914D02*
X206214286Y-82940533D01*
X200833333Y-82454819D02*
X200500000Y-81978628D01*
X200261905Y-82454819D02*
X200261905Y-81454819D01*
X200261905Y-81454819D02*
X200642857Y-81454819D01*
X200642857Y-81454819D02*
X200738095Y-81502438D01*
X200738095Y-81502438D02*
X200785714Y-81550057D01*
X200785714Y-81550057D02*
X200833333Y-81645295D01*
X200833333Y-81645295D02*
X200833333Y-81788152D01*
X200833333Y-81788152D02*
X200785714Y-81883390D01*
X200785714Y-81883390D02*
X200738095Y-81931009D01*
X200738095Y-81931009D02*
X200642857Y-81978628D01*
X200642857Y-81978628D02*
X200261905Y-81978628D01*
X201214286Y-81550057D02*
X201261905Y-81502438D01*
X201261905Y-81502438D02*
X201357143Y-81454819D01*
X201357143Y-81454819D02*
X201595238Y-81454819D01*
X201595238Y-81454819D02*
X201690476Y-81502438D01*
X201690476Y-81502438D02*
X201738095Y-81550057D01*
X201738095Y-81550057D02*
X201785714Y-81645295D01*
X201785714Y-81645295D02*
X201785714Y-81740533D01*
X201785714Y-81740533D02*
X201738095Y-81883390D01*
X201738095Y-81883390D02*
X201166667Y-82454819D01*
X201166667Y-82454819D02*
X201785714Y-82454819D01*
X134048095Y-65124819D02*
X134048095Y-65934342D01*
X134048095Y-65934342D02*
X134095714Y-66029580D01*
X134095714Y-66029580D02*
X134143333Y-66077200D01*
X134143333Y-66077200D02*
X134238571Y-66124819D01*
X134238571Y-66124819D02*
X134429047Y-66124819D01*
X134429047Y-66124819D02*
X134524285Y-66077200D01*
X134524285Y-66077200D02*
X134571904Y-66029580D01*
X134571904Y-66029580D02*
X134619523Y-65934342D01*
X134619523Y-65934342D02*
X134619523Y-65124819D01*
X135143333Y-66124819D02*
X135333809Y-66124819D01*
X135333809Y-66124819D02*
X135429047Y-66077200D01*
X135429047Y-66077200D02*
X135476666Y-66029580D01*
X135476666Y-66029580D02*
X135571904Y-65886723D01*
X135571904Y-65886723D02*
X135619523Y-65696247D01*
X135619523Y-65696247D02*
X135619523Y-65315295D01*
X135619523Y-65315295D02*
X135571904Y-65220057D01*
X135571904Y-65220057D02*
X135524285Y-65172438D01*
X135524285Y-65172438D02*
X135429047Y-65124819D01*
X135429047Y-65124819D02*
X135238571Y-65124819D01*
X135238571Y-65124819D02*
X135143333Y-65172438D01*
X135143333Y-65172438D02*
X135095714Y-65220057D01*
X135095714Y-65220057D02*
X135048095Y-65315295D01*
X135048095Y-65315295D02*
X135048095Y-65553390D01*
X135048095Y-65553390D02*
X135095714Y-65648628D01*
X135095714Y-65648628D02*
X135143333Y-65696247D01*
X135143333Y-65696247D02*
X135238571Y-65743866D01*
X135238571Y-65743866D02*
X135429047Y-65743866D01*
X135429047Y-65743866D02*
X135524285Y-65696247D01*
X135524285Y-65696247D02*
X135571904Y-65648628D01*
X135571904Y-65648628D02*
X135619523Y-65553390D01*
X164166666Y-117454819D02*
X164166666Y-118169104D01*
X164166666Y-118169104D02*
X164119047Y-118311961D01*
X164119047Y-118311961D02*
X164023809Y-118407200D01*
X164023809Y-118407200D02*
X163880952Y-118454819D01*
X163880952Y-118454819D02*
X163785714Y-118454819D01*
X164642857Y-118454819D02*
X164642857Y-117454819D01*
X164642857Y-117454819D02*
X165023809Y-117454819D01*
X165023809Y-117454819D02*
X165119047Y-117502438D01*
X165119047Y-117502438D02*
X165166666Y-117550057D01*
X165166666Y-117550057D02*
X165214285Y-117645295D01*
X165214285Y-117645295D02*
X165214285Y-117788152D01*
X165214285Y-117788152D02*
X165166666Y-117883390D01*
X165166666Y-117883390D02*
X165119047Y-117931009D01*
X165119047Y-117931009D02*
X165023809Y-117978628D01*
X165023809Y-117978628D02*
X164642857Y-117978628D01*
X166071428Y-117788152D02*
X166071428Y-118454819D01*
X165833333Y-117407200D02*
X165595238Y-118121485D01*
X165595238Y-118121485D02*
X166214285Y-118121485D01*
X149048095Y-65124819D02*
X149048095Y-65934342D01*
X149048095Y-65934342D02*
X149095714Y-66029580D01*
X149095714Y-66029580D02*
X149143333Y-66077200D01*
X149143333Y-66077200D02*
X149238571Y-66124819D01*
X149238571Y-66124819D02*
X149429047Y-66124819D01*
X149429047Y-66124819D02*
X149524285Y-66077200D01*
X149524285Y-66077200D02*
X149571904Y-66029580D01*
X149571904Y-66029580D02*
X149619523Y-65934342D01*
X149619523Y-65934342D02*
X149619523Y-65124819D01*
X150048095Y-65220057D02*
X150095714Y-65172438D01*
X150095714Y-65172438D02*
X150190952Y-65124819D01*
X150190952Y-65124819D02*
X150429047Y-65124819D01*
X150429047Y-65124819D02*
X150524285Y-65172438D01*
X150524285Y-65172438D02*
X150571904Y-65220057D01*
X150571904Y-65220057D02*
X150619523Y-65315295D01*
X150619523Y-65315295D02*
X150619523Y-65410533D01*
X150619523Y-65410533D02*
X150571904Y-65553390D01*
X150571904Y-65553390D02*
X150000476Y-66124819D01*
X150000476Y-66124819D02*
X150619523Y-66124819D01*
X176833333Y-128159580D02*
X176785714Y-128207200D01*
X176785714Y-128207200D02*
X176642857Y-128254819D01*
X176642857Y-128254819D02*
X176547619Y-128254819D01*
X176547619Y-128254819D02*
X176404762Y-128207200D01*
X176404762Y-128207200D02*
X176309524Y-128111961D01*
X176309524Y-128111961D02*
X176261905Y-128016723D01*
X176261905Y-128016723D02*
X176214286Y-127826247D01*
X176214286Y-127826247D02*
X176214286Y-127683390D01*
X176214286Y-127683390D02*
X176261905Y-127492914D01*
X176261905Y-127492914D02*
X176309524Y-127397676D01*
X176309524Y-127397676D02*
X176404762Y-127302438D01*
X176404762Y-127302438D02*
X176547619Y-127254819D01*
X176547619Y-127254819D02*
X176642857Y-127254819D01*
X176642857Y-127254819D02*
X176785714Y-127302438D01*
X176785714Y-127302438D02*
X176833333Y-127350057D01*
X177166667Y-127254819D02*
X177833333Y-127254819D01*
X177833333Y-127254819D02*
X177404762Y-128254819D01*
X118738095Y-107454819D02*
X118738095Y-108264342D01*
X118738095Y-108264342D02*
X118785714Y-108359580D01*
X118785714Y-108359580D02*
X118833333Y-108407200D01*
X118833333Y-108407200D02*
X118928571Y-108454819D01*
X118928571Y-108454819D02*
X119119047Y-108454819D01*
X119119047Y-108454819D02*
X119214285Y-108407200D01*
X119214285Y-108407200D02*
X119261904Y-108359580D01*
X119261904Y-108359580D02*
X119309523Y-108264342D01*
X119309523Y-108264342D02*
X119309523Y-107454819D01*
X119690476Y-107454819D02*
X120309523Y-107454819D01*
X120309523Y-107454819D02*
X119976190Y-107835771D01*
X119976190Y-107835771D02*
X120119047Y-107835771D01*
X120119047Y-107835771D02*
X120214285Y-107883390D01*
X120214285Y-107883390D02*
X120261904Y-107931009D01*
X120261904Y-107931009D02*
X120309523Y-108026247D01*
X120309523Y-108026247D02*
X120309523Y-108264342D01*
X120309523Y-108264342D02*
X120261904Y-108359580D01*
X120261904Y-108359580D02*
X120214285Y-108407200D01*
X120214285Y-108407200D02*
X120119047Y-108454819D01*
X120119047Y-108454819D02*
X119833333Y-108454819D01*
X119833333Y-108454819D02*
X119738095Y-108407200D01*
X119738095Y-108407200D02*
X119690476Y-108359580D01*
X149566666Y-126954819D02*
X149566666Y-127669104D01*
X149566666Y-127669104D02*
X149519047Y-127811961D01*
X149519047Y-127811961D02*
X149423809Y-127907200D01*
X149423809Y-127907200D02*
X149280952Y-127954819D01*
X149280952Y-127954819D02*
X149185714Y-127954819D01*
X150042857Y-127954819D02*
X150042857Y-126954819D01*
X150042857Y-126954819D02*
X150423809Y-126954819D01*
X150423809Y-126954819D02*
X150519047Y-127002438D01*
X150519047Y-127002438D02*
X150566666Y-127050057D01*
X150566666Y-127050057D02*
X150614285Y-127145295D01*
X150614285Y-127145295D02*
X150614285Y-127288152D01*
X150614285Y-127288152D02*
X150566666Y-127383390D01*
X150566666Y-127383390D02*
X150519047Y-127431009D01*
X150519047Y-127431009D02*
X150423809Y-127478628D01*
X150423809Y-127478628D02*
X150042857Y-127478628D01*
X150995238Y-127050057D02*
X151042857Y-127002438D01*
X151042857Y-127002438D02*
X151138095Y-126954819D01*
X151138095Y-126954819D02*
X151376190Y-126954819D01*
X151376190Y-126954819D02*
X151471428Y-127002438D01*
X151471428Y-127002438D02*
X151519047Y-127050057D01*
X151519047Y-127050057D02*
X151566666Y-127145295D01*
X151566666Y-127145295D02*
X151566666Y-127240533D01*
X151566666Y-127240533D02*
X151519047Y-127383390D01*
X151519047Y-127383390D02*
X150947619Y-127954819D01*
X150947619Y-127954819D02*
X151566666Y-127954819D01*
X154233333Y-87359580D02*
X154185714Y-87407200D01*
X154185714Y-87407200D02*
X154042857Y-87454819D01*
X154042857Y-87454819D02*
X153947619Y-87454819D01*
X153947619Y-87454819D02*
X153804762Y-87407200D01*
X153804762Y-87407200D02*
X153709524Y-87311961D01*
X153709524Y-87311961D02*
X153661905Y-87216723D01*
X153661905Y-87216723D02*
X153614286Y-87026247D01*
X153614286Y-87026247D02*
X153614286Y-86883390D01*
X153614286Y-86883390D02*
X153661905Y-86692914D01*
X153661905Y-86692914D02*
X153709524Y-86597676D01*
X153709524Y-86597676D02*
X153804762Y-86502438D01*
X153804762Y-86502438D02*
X153947619Y-86454819D01*
X153947619Y-86454819D02*
X154042857Y-86454819D01*
X154042857Y-86454819D02*
X154185714Y-86502438D01*
X154185714Y-86502438D02*
X154233333Y-86550057D01*
X155138095Y-86454819D02*
X154661905Y-86454819D01*
X154661905Y-86454819D02*
X154614286Y-86931009D01*
X154614286Y-86931009D02*
X154661905Y-86883390D01*
X154661905Y-86883390D02*
X154757143Y-86835771D01*
X154757143Y-86835771D02*
X154995238Y-86835771D01*
X154995238Y-86835771D02*
X155090476Y-86883390D01*
X155090476Y-86883390D02*
X155138095Y-86931009D01*
X155138095Y-86931009D02*
X155185714Y-87026247D01*
X155185714Y-87026247D02*
X155185714Y-87264342D01*
X155185714Y-87264342D02*
X155138095Y-87359580D01*
X155138095Y-87359580D02*
X155090476Y-87407200D01*
X155090476Y-87407200D02*
X154995238Y-87454819D01*
X154995238Y-87454819D02*
X154757143Y-87454819D01*
X154757143Y-87454819D02*
X154661905Y-87407200D01*
X154661905Y-87407200D02*
X154614286Y-87359580D01*
X124334819Y-147858333D02*
X125049104Y-147858333D01*
X125049104Y-147858333D02*
X125191961Y-147905952D01*
X125191961Y-147905952D02*
X125287200Y-148001190D01*
X125287200Y-148001190D02*
X125334819Y-148144047D01*
X125334819Y-148144047D02*
X125334819Y-148239285D01*
X125334819Y-146858333D02*
X125334819Y-147429761D01*
X125334819Y-147144047D02*
X124334819Y-147144047D01*
X124334819Y-147144047D02*
X124477676Y-147239285D01*
X124477676Y-147239285D02*
X124572914Y-147334523D01*
X124572914Y-147334523D02*
X124620533Y-147429761D01*
X192833333Y-82454819D02*
X192500000Y-81978628D01*
X192261905Y-82454819D02*
X192261905Y-81454819D01*
X192261905Y-81454819D02*
X192642857Y-81454819D01*
X192642857Y-81454819D02*
X192738095Y-81502438D01*
X192738095Y-81502438D02*
X192785714Y-81550057D01*
X192785714Y-81550057D02*
X192833333Y-81645295D01*
X192833333Y-81645295D02*
X192833333Y-81788152D01*
X192833333Y-81788152D02*
X192785714Y-81883390D01*
X192785714Y-81883390D02*
X192738095Y-81931009D01*
X192738095Y-81931009D02*
X192642857Y-81978628D01*
X192642857Y-81978628D02*
X192261905Y-81978628D01*
X193690476Y-81788152D02*
X193690476Y-82454819D01*
X193452381Y-81407200D02*
X193214286Y-82121485D01*
X193214286Y-82121485D02*
X193833333Y-82121485D01*
X109233333Y-87359580D02*
X109185714Y-87407200D01*
X109185714Y-87407200D02*
X109042857Y-87454819D01*
X109042857Y-87454819D02*
X108947619Y-87454819D01*
X108947619Y-87454819D02*
X108804762Y-87407200D01*
X108804762Y-87407200D02*
X108709524Y-87311961D01*
X108709524Y-87311961D02*
X108661905Y-87216723D01*
X108661905Y-87216723D02*
X108614286Y-87026247D01*
X108614286Y-87026247D02*
X108614286Y-86883390D01*
X108614286Y-86883390D02*
X108661905Y-86692914D01*
X108661905Y-86692914D02*
X108709524Y-86597676D01*
X108709524Y-86597676D02*
X108804762Y-86502438D01*
X108804762Y-86502438D02*
X108947619Y-86454819D01*
X108947619Y-86454819D02*
X109042857Y-86454819D01*
X109042857Y-86454819D02*
X109185714Y-86502438D01*
X109185714Y-86502438D02*
X109233333Y-86550057D01*
X109614286Y-86550057D02*
X109661905Y-86502438D01*
X109661905Y-86502438D02*
X109757143Y-86454819D01*
X109757143Y-86454819D02*
X109995238Y-86454819D01*
X109995238Y-86454819D02*
X110090476Y-86502438D01*
X110090476Y-86502438D02*
X110138095Y-86550057D01*
X110138095Y-86550057D02*
X110185714Y-86645295D01*
X110185714Y-86645295D02*
X110185714Y-86740533D01*
X110185714Y-86740533D02*
X110138095Y-86883390D01*
X110138095Y-86883390D02*
X109566667Y-87454819D01*
X109566667Y-87454819D02*
X110185714Y-87454819D01*
X104048095Y-65124819D02*
X104048095Y-65934342D01*
X104048095Y-65934342D02*
X104095714Y-66029580D01*
X104095714Y-66029580D02*
X104143333Y-66077200D01*
X104143333Y-66077200D02*
X104238571Y-66124819D01*
X104238571Y-66124819D02*
X104429047Y-66124819D01*
X104429047Y-66124819D02*
X104524285Y-66077200D01*
X104524285Y-66077200D02*
X104571904Y-66029580D01*
X104571904Y-66029580D02*
X104619523Y-65934342D01*
X104619523Y-65934342D02*
X104619523Y-65124819D01*
X105238571Y-65553390D02*
X105143333Y-65505771D01*
X105143333Y-65505771D02*
X105095714Y-65458152D01*
X105095714Y-65458152D02*
X105048095Y-65362914D01*
X105048095Y-65362914D02*
X105048095Y-65315295D01*
X105048095Y-65315295D02*
X105095714Y-65220057D01*
X105095714Y-65220057D02*
X105143333Y-65172438D01*
X105143333Y-65172438D02*
X105238571Y-65124819D01*
X105238571Y-65124819D02*
X105429047Y-65124819D01*
X105429047Y-65124819D02*
X105524285Y-65172438D01*
X105524285Y-65172438D02*
X105571904Y-65220057D01*
X105571904Y-65220057D02*
X105619523Y-65315295D01*
X105619523Y-65315295D02*
X105619523Y-65362914D01*
X105619523Y-65362914D02*
X105571904Y-65458152D01*
X105571904Y-65458152D02*
X105524285Y-65505771D01*
X105524285Y-65505771D02*
X105429047Y-65553390D01*
X105429047Y-65553390D02*
X105238571Y-65553390D01*
X105238571Y-65553390D02*
X105143333Y-65601009D01*
X105143333Y-65601009D02*
X105095714Y-65648628D01*
X105095714Y-65648628D02*
X105048095Y-65743866D01*
X105048095Y-65743866D02*
X105048095Y-65934342D01*
X105048095Y-65934342D02*
X105095714Y-66029580D01*
X105095714Y-66029580D02*
X105143333Y-66077200D01*
X105143333Y-66077200D02*
X105238571Y-66124819D01*
X105238571Y-66124819D02*
X105429047Y-66124819D01*
X105429047Y-66124819D02*
X105524285Y-66077200D01*
X105524285Y-66077200D02*
X105571904Y-66029580D01*
X105571904Y-66029580D02*
X105619523Y-65934342D01*
X105619523Y-65934342D02*
X105619523Y-65743866D01*
X105619523Y-65743866D02*
X105571904Y-65648628D01*
X105571904Y-65648628D02*
X105524285Y-65601009D01*
X105524285Y-65601009D02*
X105429047Y-65553390D01*
X176633333Y-82454819D02*
X176300000Y-81978628D01*
X176061905Y-82454819D02*
X176061905Y-81454819D01*
X176061905Y-81454819D02*
X176442857Y-81454819D01*
X176442857Y-81454819D02*
X176538095Y-81502438D01*
X176538095Y-81502438D02*
X176585714Y-81550057D01*
X176585714Y-81550057D02*
X176633333Y-81645295D01*
X176633333Y-81645295D02*
X176633333Y-81788152D01*
X176633333Y-81788152D02*
X176585714Y-81883390D01*
X176585714Y-81883390D02*
X176538095Y-81931009D01*
X176538095Y-81931009D02*
X176442857Y-81978628D01*
X176442857Y-81978628D02*
X176061905Y-81978628D01*
X177204762Y-81883390D02*
X177109524Y-81835771D01*
X177109524Y-81835771D02*
X177061905Y-81788152D01*
X177061905Y-81788152D02*
X177014286Y-81692914D01*
X177014286Y-81692914D02*
X177014286Y-81645295D01*
X177014286Y-81645295D02*
X177061905Y-81550057D01*
X177061905Y-81550057D02*
X177109524Y-81502438D01*
X177109524Y-81502438D02*
X177204762Y-81454819D01*
X177204762Y-81454819D02*
X177395238Y-81454819D01*
X177395238Y-81454819D02*
X177490476Y-81502438D01*
X177490476Y-81502438D02*
X177538095Y-81550057D01*
X177538095Y-81550057D02*
X177585714Y-81645295D01*
X177585714Y-81645295D02*
X177585714Y-81692914D01*
X177585714Y-81692914D02*
X177538095Y-81788152D01*
X177538095Y-81788152D02*
X177490476Y-81835771D01*
X177490476Y-81835771D02*
X177395238Y-81883390D01*
X177395238Y-81883390D02*
X177204762Y-81883390D01*
X177204762Y-81883390D02*
X177109524Y-81931009D01*
X177109524Y-81931009D02*
X177061905Y-81978628D01*
X177061905Y-81978628D02*
X177014286Y-82073866D01*
X177014286Y-82073866D02*
X177014286Y-82264342D01*
X177014286Y-82264342D02*
X177061905Y-82359580D01*
X177061905Y-82359580D02*
X177109524Y-82407200D01*
X177109524Y-82407200D02*
X177204762Y-82454819D01*
X177204762Y-82454819D02*
X177395238Y-82454819D01*
X177395238Y-82454819D02*
X177490476Y-82407200D01*
X177490476Y-82407200D02*
X177538095Y-82359580D01*
X177538095Y-82359580D02*
X177585714Y-82264342D01*
X177585714Y-82264342D02*
X177585714Y-82073866D01*
X177585714Y-82073866D02*
X177538095Y-81978628D01*
X177538095Y-81978628D02*
X177490476Y-81931009D01*
X177490476Y-81931009D02*
X177395238Y-81883390D01*
X163738095Y-114954819D02*
X163738095Y-115764342D01*
X163738095Y-115764342D02*
X163785714Y-115859580D01*
X163785714Y-115859580D02*
X163833333Y-115907200D01*
X163833333Y-115907200D02*
X163928571Y-115954819D01*
X163928571Y-115954819D02*
X164119047Y-115954819D01*
X164119047Y-115954819D02*
X164214285Y-115907200D01*
X164214285Y-115907200D02*
X164261904Y-115859580D01*
X164261904Y-115859580D02*
X164309523Y-115764342D01*
X164309523Y-115764342D02*
X164309523Y-114954819D01*
X164690476Y-114954819D02*
X165357142Y-114954819D01*
X165357142Y-114954819D02*
X164928571Y-115954819D01*
X190033333Y-83654819D02*
X189700000Y-83178628D01*
X189461905Y-83654819D02*
X189461905Y-82654819D01*
X189461905Y-82654819D02*
X189842857Y-82654819D01*
X189842857Y-82654819D02*
X189938095Y-82702438D01*
X189938095Y-82702438D02*
X189985714Y-82750057D01*
X189985714Y-82750057D02*
X190033333Y-82845295D01*
X190033333Y-82845295D02*
X190033333Y-82988152D01*
X190033333Y-82988152D02*
X189985714Y-83083390D01*
X189985714Y-83083390D02*
X189938095Y-83131009D01*
X189938095Y-83131009D02*
X189842857Y-83178628D01*
X189842857Y-83178628D02*
X189461905Y-83178628D01*
X190938095Y-82654819D02*
X190461905Y-82654819D01*
X190461905Y-82654819D02*
X190414286Y-83131009D01*
X190414286Y-83131009D02*
X190461905Y-83083390D01*
X190461905Y-83083390D02*
X190557143Y-83035771D01*
X190557143Y-83035771D02*
X190795238Y-83035771D01*
X190795238Y-83035771D02*
X190890476Y-83083390D01*
X190890476Y-83083390D02*
X190938095Y-83131009D01*
X190938095Y-83131009D02*
X190985714Y-83226247D01*
X190985714Y-83226247D02*
X190985714Y-83464342D01*
X190985714Y-83464342D02*
X190938095Y-83559580D01*
X190938095Y-83559580D02*
X190890476Y-83607200D01*
X190890476Y-83607200D02*
X190795238Y-83654819D01*
X190795238Y-83654819D02*
X190557143Y-83654819D01*
X190557143Y-83654819D02*
X190461905Y-83607200D01*
X190461905Y-83607200D02*
X190414286Y-83559580D01*
X169233333Y-87359580D02*
X169185714Y-87407200D01*
X169185714Y-87407200D02*
X169042857Y-87454819D01*
X169042857Y-87454819D02*
X168947619Y-87454819D01*
X168947619Y-87454819D02*
X168804762Y-87407200D01*
X168804762Y-87407200D02*
X168709524Y-87311961D01*
X168709524Y-87311961D02*
X168661905Y-87216723D01*
X168661905Y-87216723D02*
X168614286Y-87026247D01*
X168614286Y-87026247D02*
X168614286Y-86883390D01*
X168614286Y-86883390D02*
X168661905Y-86692914D01*
X168661905Y-86692914D02*
X168709524Y-86597676D01*
X168709524Y-86597676D02*
X168804762Y-86502438D01*
X168804762Y-86502438D02*
X168947619Y-86454819D01*
X168947619Y-86454819D02*
X169042857Y-86454819D01*
X169042857Y-86454819D02*
X169185714Y-86502438D01*
X169185714Y-86502438D02*
X169233333Y-86550057D01*
X170090476Y-86454819D02*
X169900000Y-86454819D01*
X169900000Y-86454819D02*
X169804762Y-86502438D01*
X169804762Y-86502438D02*
X169757143Y-86550057D01*
X169757143Y-86550057D02*
X169661905Y-86692914D01*
X169661905Y-86692914D02*
X169614286Y-86883390D01*
X169614286Y-86883390D02*
X169614286Y-87264342D01*
X169614286Y-87264342D02*
X169661905Y-87359580D01*
X169661905Y-87359580D02*
X169709524Y-87407200D01*
X169709524Y-87407200D02*
X169804762Y-87454819D01*
X169804762Y-87454819D02*
X169995238Y-87454819D01*
X169995238Y-87454819D02*
X170090476Y-87407200D01*
X170090476Y-87407200D02*
X170138095Y-87359580D01*
X170138095Y-87359580D02*
X170185714Y-87264342D01*
X170185714Y-87264342D02*
X170185714Y-87026247D01*
X170185714Y-87026247D02*
X170138095Y-86931009D01*
X170138095Y-86931009D02*
X170090476Y-86883390D01*
X170090476Y-86883390D02*
X169995238Y-86835771D01*
X169995238Y-86835771D02*
X169804762Y-86835771D01*
X169804762Y-86835771D02*
X169709524Y-86883390D01*
X169709524Y-86883390D02*
X169661905Y-86931009D01*
X169661905Y-86931009D02*
X169614286Y-87026247D01*
X124233333Y-87359580D02*
X124185714Y-87407200D01*
X124185714Y-87407200D02*
X124042857Y-87454819D01*
X124042857Y-87454819D02*
X123947619Y-87454819D01*
X123947619Y-87454819D02*
X123804762Y-87407200D01*
X123804762Y-87407200D02*
X123709524Y-87311961D01*
X123709524Y-87311961D02*
X123661905Y-87216723D01*
X123661905Y-87216723D02*
X123614286Y-87026247D01*
X123614286Y-87026247D02*
X123614286Y-86883390D01*
X123614286Y-86883390D02*
X123661905Y-86692914D01*
X123661905Y-86692914D02*
X123709524Y-86597676D01*
X123709524Y-86597676D02*
X123804762Y-86502438D01*
X123804762Y-86502438D02*
X123947619Y-86454819D01*
X123947619Y-86454819D02*
X124042857Y-86454819D01*
X124042857Y-86454819D02*
X124185714Y-86502438D01*
X124185714Y-86502438D02*
X124233333Y-86550057D01*
X124566667Y-86454819D02*
X125185714Y-86454819D01*
X125185714Y-86454819D02*
X124852381Y-86835771D01*
X124852381Y-86835771D02*
X124995238Y-86835771D01*
X124995238Y-86835771D02*
X125090476Y-86883390D01*
X125090476Y-86883390D02*
X125138095Y-86931009D01*
X125138095Y-86931009D02*
X125185714Y-87026247D01*
X125185714Y-87026247D02*
X125185714Y-87264342D01*
X125185714Y-87264342D02*
X125138095Y-87359580D01*
X125138095Y-87359580D02*
X125090476Y-87407200D01*
X125090476Y-87407200D02*
X124995238Y-87454819D01*
X124995238Y-87454819D02*
X124709524Y-87454819D01*
X124709524Y-87454819D02*
X124614286Y-87407200D01*
X124614286Y-87407200D02*
X124566667Y-87359580D01*
X164048095Y-65124819D02*
X164048095Y-65934342D01*
X164048095Y-65934342D02*
X164095714Y-66029580D01*
X164095714Y-66029580D02*
X164143333Y-66077200D01*
X164143333Y-66077200D02*
X164238571Y-66124819D01*
X164238571Y-66124819D02*
X164429047Y-66124819D01*
X164429047Y-66124819D02*
X164524285Y-66077200D01*
X164524285Y-66077200D02*
X164571904Y-66029580D01*
X164571904Y-66029580D02*
X164619523Y-65934342D01*
X164619523Y-65934342D02*
X164619523Y-65124819D01*
X165524285Y-65458152D02*
X165524285Y-66124819D01*
X165286190Y-65077200D02*
X165048095Y-65791485D01*
X165048095Y-65791485D02*
X165667142Y-65791485D01*
X139233333Y-87359580D02*
X139185714Y-87407200D01*
X139185714Y-87407200D02*
X139042857Y-87454819D01*
X139042857Y-87454819D02*
X138947619Y-87454819D01*
X138947619Y-87454819D02*
X138804762Y-87407200D01*
X138804762Y-87407200D02*
X138709524Y-87311961D01*
X138709524Y-87311961D02*
X138661905Y-87216723D01*
X138661905Y-87216723D02*
X138614286Y-87026247D01*
X138614286Y-87026247D02*
X138614286Y-86883390D01*
X138614286Y-86883390D02*
X138661905Y-86692914D01*
X138661905Y-86692914D02*
X138709524Y-86597676D01*
X138709524Y-86597676D02*
X138804762Y-86502438D01*
X138804762Y-86502438D02*
X138947619Y-86454819D01*
X138947619Y-86454819D02*
X139042857Y-86454819D01*
X139042857Y-86454819D02*
X139185714Y-86502438D01*
X139185714Y-86502438D02*
X139233333Y-86550057D01*
X140090476Y-86788152D02*
X140090476Y-87454819D01*
X139852381Y-86407200D02*
X139614286Y-87121485D01*
X139614286Y-87121485D02*
X140233333Y-87121485D01*
X141761905Y-112454819D02*
X141761905Y-113264342D01*
X141761905Y-113264342D02*
X141809524Y-113359580D01*
X141809524Y-113359580D02*
X141857143Y-113407200D01*
X141857143Y-113407200D02*
X141952381Y-113454819D01*
X141952381Y-113454819D02*
X142142857Y-113454819D01*
X142142857Y-113454819D02*
X142238095Y-113407200D01*
X142238095Y-113407200D02*
X142285714Y-113359580D01*
X142285714Y-113359580D02*
X142333333Y-113264342D01*
X142333333Y-113264342D02*
X142333333Y-112454819D01*
X143333333Y-113454819D02*
X142761905Y-113454819D01*
X143047619Y-113454819D02*
X143047619Y-112454819D01*
X143047619Y-112454819D02*
X142952381Y-112597676D01*
X142952381Y-112597676D02*
X142857143Y-112692914D01*
X142857143Y-112692914D02*
X142761905Y-112740533D01*
X143952381Y-112454819D02*
X144047619Y-112454819D01*
X144047619Y-112454819D02*
X144142857Y-112502438D01*
X144142857Y-112502438D02*
X144190476Y-112550057D01*
X144190476Y-112550057D02*
X144238095Y-112645295D01*
X144238095Y-112645295D02*
X144285714Y-112835771D01*
X144285714Y-112835771D02*
X144285714Y-113073866D01*
X144285714Y-113073866D02*
X144238095Y-113264342D01*
X144238095Y-113264342D02*
X144190476Y-113359580D01*
X144190476Y-113359580D02*
X144142857Y-113407200D01*
X144142857Y-113407200D02*
X144047619Y-113454819D01*
X144047619Y-113454819D02*
X143952381Y-113454819D01*
X143952381Y-113454819D02*
X143857143Y-113407200D01*
X143857143Y-113407200D02*
X143809524Y-113359580D01*
X143809524Y-113359580D02*
X143761905Y-113264342D01*
X143761905Y-113264342D02*
X143714286Y-113073866D01*
X143714286Y-113073866D02*
X143714286Y-112835771D01*
X143714286Y-112835771D02*
X143761905Y-112645295D01*
X143761905Y-112645295D02*
X143809524Y-112550057D01*
X143809524Y-112550057D02*
X143857143Y-112502438D01*
X143857143Y-112502438D02*
X143952381Y-112454819D01*
X164166666Y-126954819D02*
X164166666Y-127669104D01*
X164166666Y-127669104D02*
X164119047Y-127811961D01*
X164119047Y-127811961D02*
X164023809Y-127907200D01*
X164023809Y-127907200D02*
X163880952Y-127954819D01*
X163880952Y-127954819D02*
X163785714Y-127954819D01*
X164642857Y-127954819D02*
X164642857Y-126954819D01*
X164642857Y-126954819D02*
X165023809Y-126954819D01*
X165023809Y-126954819D02*
X165119047Y-127002438D01*
X165119047Y-127002438D02*
X165166666Y-127050057D01*
X165166666Y-127050057D02*
X165214285Y-127145295D01*
X165214285Y-127145295D02*
X165214285Y-127288152D01*
X165214285Y-127288152D02*
X165166666Y-127383390D01*
X165166666Y-127383390D02*
X165119047Y-127431009D01*
X165119047Y-127431009D02*
X165023809Y-127478628D01*
X165023809Y-127478628D02*
X164642857Y-127478628D01*
X166166666Y-127954819D02*
X165595238Y-127954819D01*
X165880952Y-127954819D02*
X165880952Y-126954819D01*
X165880952Y-126954819D02*
X165785714Y-127097676D01*
X165785714Y-127097676D02*
X165690476Y-127192914D01*
X165690476Y-127192914D02*
X165595238Y-127240533D01*
X164166666Y-122254819D02*
X164166666Y-122969104D01*
X164166666Y-122969104D02*
X164119047Y-123111961D01*
X164119047Y-123111961D02*
X164023809Y-123207200D01*
X164023809Y-123207200D02*
X163880952Y-123254819D01*
X163880952Y-123254819D02*
X163785714Y-123254819D01*
X164642857Y-123254819D02*
X164642857Y-122254819D01*
X164642857Y-122254819D02*
X165023809Y-122254819D01*
X165023809Y-122254819D02*
X165119047Y-122302438D01*
X165119047Y-122302438D02*
X165166666Y-122350057D01*
X165166666Y-122350057D02*
X165214285Y-122445295D01*
X165214285Y-122445295D02*
X165214285Y-122588152D01*
X165214285Y-122588152D02*
X165166666Y-122683390D01*
X165166666Y-122683390D02*
X165119047Y-122731009D01*
X165119047Y-122731009D02*
X165023809Y-122778628D01*
X165023809Y-122778628D02*
X164642857Y-122778628D01*
X165547619Y-122254819D02*
X166166666Y-122254819D01*
X166166666Y-122254819D02*
X165833333Y-122635771D01*
X165833333Y-122635771D02*
X165976190Y-122635771D01*
X165976190Y-122635771D02*
X166071428Y-122683390D01*
X166071428Y-122683390D02*
X166119047Y-122731009D01*
X166119047Y-122731009D02*
X166166666Y-122826247D01*
X166166666Y-122826247D02*
X166166666Y-123064342D01*
X166166666Y-123064342D02*
X166119047Y-123159580D01*
X166119047Y-123159580D02*
X166071428Y-123207200D01*
X166071428Y-123207200D02*
X165976190Y-123254819D01*
X165976190Y-123254819D02*
X165690476Y-123254819D01*
X165690476Y-123254819D02*
X165595238Y-123207200D01*
X165595238Y-123207200D02*
X165547619Y-123159580D01*
X133738095Y-107454819D02*
X133738095Y-108264342D01*
X133738095Y-108264342D02*
X133785714Y-108359580D01*
X133785714Y-108359580D02*
X133833333Y-108407200D01*
X133833333Y-108407200D02*
X133928571Y-108454819D01*
X133928571Y-108454819D02*
X134119047Y-108454819D01*
X134119047Y-108454819D02*
X134214285Y-108407200D01*
X134214285Y-108407200D02*
X134261904Y-108359580D01*
X134261904Y-108359580D02*
X134309523Y-108264342D01*
X134309523Y-108264342D02*
X134309523Y-107454819D01*
X135214285Y-107454819D02*
X135023809Y-107454819D01*
X135023809Y-107454819D02*
X134928571Y-107502438D01*
X134928571Y-107502438D02*
X134880952Y-107550057D01*
X134880952Y-107550057D02*
X134785714Y-107692914D01*
X134785714Y-107692914D02*
X134738095Y-107883390D01*
X134738095Y-107883390D02*
X134738095Y-108264342D01*
X134738095Y-108264342D02*
X134785714Y-108359580D01*
X134785714Y-108359580D02*
X134833333Y-108407200D01*
X134833333Y-108407200D02*
X134928571Y-108454819D01*
X134928571Y-108454819D02*
X135119047Y-108454819D01*
X135119047Y-108454819D02*
X135214285Y-108407200D01*
X135214285Y-108407200D02*
X135261904Y-108359580D01*
X135261904Y-108359580D02*
X135309523Y-108264342D01*
X135309523Y-108264342D02*
X135309523Y-108026247D01*
X135309523Y-108026247D02*
X135261904Y-107931009D01*
X135261904Y-107931009D02*
X135214285Y-107883390D01*
X135214285Y-107883390D02*
X135119047Y-107835771D01*
X135119047Y-107835771D02*
X134928571Y-107835771D01*
X134928571Y-107835771D02*
X134833333Y-107883390D01*
X134833333Y-107883390D02*
X134785714Y-107931009D01*
X134785714Y-107931009D02*
X134738095Y-108026247D01*
D13*
%TO.C,C1*%
X144780000Y-53400000D02*
X146580000Y-53400000D01*
X144940000Y-56000000D02*
X146880000Y-56000000D01*
X145680000Y-52500000D02*
X145680000Y-54300000D01*
X146880000Y-51880000D02*
X146880000Y-60120000D01*
X146880000Y-51880000D02*
X148680000Y-51880000D01*
X146880000Y-60120000D02*
X148680000Y-60120000D01*
X148680000Y-51880000D02*
X149580000Y-52780000D01*
X148680000Y-60120000D02*
X149580000Y-59220000D01*
X149580000Y-52780000D02*
X150480000Y-51880000D01*
X149580000Y-59220000D02*
X150480000Y-60120000D01*
X150480000Y-51880000D02*
X165120000Y-51880000D01*
X150480000Y-60120000D02*
X165120000Y-60120000D01*
X165120000Y-51880000D02*
X165120000Y-60120000D01*
X167060000Y-56000000D02*
X165120000Y-56000000D01*
%TO.C,U1*%
X117560000Y-66670000D02*
X117560000Y-84570000D01*
X117560000Y-84570000D02*
X122060000Y-84570000D01*
X118810000Y-66670000D02*
X117560000Y-66670000D01*
X122060000Y-66670000D02*
X120810000Y-66670000D01*
X122060000Y-84570000D02*
X122060000Y-66670000D01*
X120810000Y-66670000D02*
G75*
G02*
X118810000Y-66670000I-1000000J0D01*
G01*
%TO.C,R6*%
X183280000Y-67680000D02*
X183280000Y-76920000D01*
X183280000Y-76920000D02*
X186720000Y-76920000D01*
X185000000Y-65720000D02*
X185000000Y-67680000D01*
X185000000Y-78880000D02*
X185000000Y-76920000D01*
X186720000Y-67680000D02*
X183280000Y-67680000D01*
X186720000Y-76920000D02*
X186720000Y-67680000D01*
%TO.C,U5*%
X102560000Y-88670000D02*
X102560000Y-109110000D01*
X102560000Y-109110000D02*
X107060000Y-109110000D01*
X103810000Y-88670000D02*
X102560000Y-88670000D01*
X107060000Y-88670000D02*
X105810000Y-88670000D01*
X107060000Y-109110000D02*
X107060000Y-88670000D01*
X105810000Y-88670000D02*
G75*
G02*
X103810000Y-88670000I-1000000J0D01*
G01*
%TO.C,R3*%
X195280000Y-72760000D02*
X195280000Y-82000000D01*
X195280000Y-82000000D02*
X198720000Y-82000000D01*
X197000000Y-70800000D02*
X197000000Y-72760000D01*
X197000000Y-83960000D02*
X197000000Y-82000000D01*
X198720000Y-72760000D02*
X195280000Y-72760000D01*
X198720000Y-82000000D02*
X198720000Y-72760000D01*
%TO.C,R9*%
X143540000Y-116500000D02*
X145500000Y-116500000D01*
X145500000Y-114780000D02*
X145500000Y-118220000D01*
X145500000Y-118220000D02*
X154740000Y-118220000D01*
X154740000Y-114780000D02*
X145500000Y-114780000D01*
X154740000Y-118220000D02*
X154740000Y-114780000D01*
X156700000Y-116500000D02*
X154740000Y-116500000D01*
%TO.C,R7*%
X179280000Y-72760000D02*
X179280000Y-82000000D01*
X179280000Y-82000000D02*
X182720000Y-82000000D01*
X181000000Y-70800000D02*
X181000000Y-72760000D01*
X181000000Y-83960000D02*
X181000000Y-82000000D01*
X182720000Y-72760000D02*
X179280000Y-72760000D01*
X182720000Y-82000000D02*
X182720000Y-72760000D01*
%TO.C,U12*%
X161840000Y-149610000D02*
X163040000Y-149610000D01*
X161840000Y-150810000D02*
X161840000Y-149610000D01*
X162200000Y-149970000D02*
X162200000Y-163190000D01*
X162200000Y-163190000D02*
X172420000Y-163190000D01*
X172420000Y-149970000D02*
X162200000Y-149970000D01*
X172420000Y-163190000D02*
X172420000Y-149970000D01*
%TO.C,U11*%
X181320000Y-90590000D02*
X181320000Y-126390000D01*
X181320000Y-126390000D02*
X199440000Y-126390000D01*
X184320000Y-90650000D02*
X184320000Y-126330000D01*
X184320000Y-126330000D02*
X189380000Y-126330000D01*
X191380000Y-126330000D02*
X196440000Y-126330000D01*
X196440000Y-90650000D02*
X184320000Y-90650000D01*
X196440000Y-126330000D02*
X196440000Y-90650000D01*
X199440000Y-90590000D02*
X181320000Y-90590000D01*
X199440000Y-126390000D02*
X199440000Y-90590000D01*
X189380000Y-126330000D02*
G75*
G02*
X191380000Y-126330000I1000000J0D01*
G01*
%TO.C,R1*%
X203040000Y-72760000D02*
X203040000Y-82000000D01*
X203040000Y-82000000D02*
X206480000Y-82000000D01*
X204760000Y-70800000D02*
X204760000Y-72760000D01*
X204760000Y-83960000D02*
X204760000Y-82000000D01*
X206480000Y-72760000D02*
X203040000Y-72760000D01*
X206480000Y-82000000D02*
X206480000Y-72760000D01*
%TO.C,R2*%
X199280000Y-67680000D02*
X199280000Y-76920000D01*
X199280000Y-76920000D02*
X202720000Y-76920000D01*
X201000000Y-65720000D02*
X201000000Y-67680000D01*
X201000000Y-78880000D02*
X201000000Y-76920000D01*
X202720000Y-67680000D02*
X199280000Y-67680000D01*
X202720000Y-76920000D02*
X202720000Y-67680000D01*
%TO.C,U9*%
X132560000Y-66670000D02*
X132560000Y-84570000D01*
X132560000Y-84570000D02*
X137060000Y-84570000D01*
X133810000Y-66670000D02*
X132560000Y-66670000D01*
X137060000Y-66670000D02*
X135810000Y-66670000D01*
X137060000Y-84570000D02*
X137060000Y-66670000D01*
X135810000Y-66670000D02*
G75*
G02*
X133810000Y-66670000I-1000000J0D01*
G01*
%TO.C,JP4*%
X161145000Y-121680000D02*
X161145000Y-120350000D01*
X162475000Y-121680000D02*
X161145000Y-121680000D01*
X163745000Y-119020000D02*
X168885000Y-119020000D01*
X163745000Y-121680000D02*
X163745000Y-119020000D01*
X163745000Y-121680000D02*
X168885000Y-121680000D01*
X168885000Y-121680000D02*
X168885000Y-119020000D01*
%TO.C,U2*%
X147560000Y-66670000D02*
X147560000Y-84570000D01*
X147560000Y-84570000D02*
X152060000Y-84570000D01*
X148810000Y-66670000D02*
X147560000Y-66670000D01*
X152060000Y-66670000D02*
X150810000Y-66670000D01*
X152060000Y-84570000D02*
X152060000Y-66670000D01*
X150810000Y-66670000D02*
G75*
G02*
X148810000Y-66670000I-1000000J0D01*
G01*
%TO.C,C7*%
X175880000Y-119380000D02*
X178120000Y-119380000D01*
X175880000Y-126620000D02*
X175880000Y-119380000D01*
X175880000Y-126620000D02*
X178120000Y-126620000D01*
X178120000Y-126620000D02*
X178120000Y-119380000D01*
%TO.C,U3*%
X117560000Y-88670000D02*
X117560000Y-106570000D01*
X117560000Y-106570000D02*
X122060000Y-106570000D01*
X118810000Y-88670000D02*
X117560000Y-88670000D01*
X122060000Y-88670000D02*
X120810000Y-88670000D01*
X122060000Y-106570000D02*
X122060000Y-88670000D01*
X120810000Y-88670000D02*
G75*
G02*
X118810000Y-88670000I-1000000J0D01*
G01*
%TO.C,JP2*%
X147670000Y-131330000D02*
X147670000Y-130000000D01*
X149000000Y-131330000D02*
X147670000Y-131330000D01*
X150270000Y-128670000D02*
X152870000Y-128670000D01*
X150270000Y-131330000D02*
X150270000Y-128670000D01*
X150270000Y-131330000D02*
X152870000Y-131330000D01*
X152870000Y-131330000D02*
X152870000Y-128670000D01*
%TO.C,C5*%
X145880000Y-88120000D02*
X145880000Y-85880000D01*
X153120000Y-85880000D02*
X145880000Y-85880000D01*
X153120000Y-88120000D02*
X145880000Y-88120000D01*
X153120000Y-88120000D02*
X153120000Y-85880000D01*
%TO.C,J1*%
X126320000Y-140765000D02*
X127650000Y-140765000D01*
X126320000Y-141875000D02*
X126320000Y-140765000D01*
X126320000Y-145875000D02*
X136600000Y-145875000D01*
X126320000Y-154505000D02*
X126320000Y-145875000D01*
X126320000Y-154505000D02*
X136600000Y-154505000D01*
X126440000Y-154505000D02*
X126440000Y-145875000D01*
X126558095Y-154505000D02*
X126558095Y-145875000D01*
X126676190Y-154505000D02*
X126676190Y-145875000D01*
X126794285Y-154505000D02*
X126794285Y-145875000D01*
X126912380Y-154505000D02*
X126912380Y-145875000D01*
X127030475Y-154505000D02*
X127030475Y-145875000D01*
X127148570Y-154505000D02*
X127148570Y-145875000D01*
X127266665Y-154505000D02*
X127266665Y-145875000D01*
X127290000Y-143365000D02*
X127290000Y-142985000D01*
X127290000Y-145875000D02*
X127290000Y-145465000D01*
X127384760Y-154505000D02*
X127384760Y-145875000D01*
X127502855Y-154505000D02*
X127502855Y-145875000D01*
X127620950Y-154505000D02*
X127620950Y-145875000D01*
X127739045Y-154505000D02*
X127739045Y-145875000D01*
X127857140Y-154505000D02*
X127857140Y-145875000D01*
X127975235Y-154505000D02*
X127975235Y-145875000D01*
X128010000Y-143365000D02*
X128010000Y-142985000D01*
X128010000Y-145875000D02*
X128010000Y-145465000D01*
X128093330Y-154505000D02*
X128093330Y-145875000D01*
X128211425Y-154505000D02*
X128211425Y-145875000D01*
X128329520Y-154505000D02*
X128329520Y-145875000D01*
X128447615Y-154505000D02*
X128447615Y-145875000D01*
X128565710Y-154505000D02*
X128565710Y-145875000D01*
X128683805Y-154505000D02*
X128683805Y-145875000D01*
X128801900Y-154505000D02*
X128801900Y-145875000D01*
X128920000Y-154505000D02*
X128920000Y-145875000D01*
X129830000Y-143365000D02*
X129830000Y-142925000D01*
X129830000Y-145875000D02*
X129830000Y-145465000D01*
X130550000Y-143365000D02*
X130550000Y-142925000D01*
X130550000Y-145875000D02*
X130550000Y-145465000D01*
X131460000Y-154505000D02*
X131460000Y-145875000D01*
X132370000Y-143365000D02*
X132370000Y-142925000D01*
X132370000Y-145875000D02*
X132370000Y-145465000D01*
X133090000Y-143365000D02*
X133090000Y-142925000D01*
X133090000Y-145875000D02*
X133090000Y-145465000D01*
X134000000Y-154505000D02*
X134000000Y-145875000D01*
X134910000Y-143365000D02*
X134910000Y-142925000D01*
X134910000Y-145875000D02*
X134910000Y-145465000D01*
X135630000Y-143365000D02*
X135630000Y-142925000D01*
X135630000Y-145875000D02*
X135630000Y-145465000D01*
X136600000Y-154505000D02*
X136600000Y-145875000D01*
%TO.C,R4*%
X191280000Y-67680000D02*
X191280000Y-76920000D01*
X191280000Y-76920000D02*
X194720000Y-76920000D01*
X193000000Y-65720000D02*
X193000000Y-67680000D01*
X193000000Y-78880000D02*
X193000000Y-76920000D01*
X194720000Y-67680000D02*
X191280000Y-67680000D01*
X194720000Y-76920000D02*
X194720000Y-67680000D01*
%TO.C,C2*%
X100880000Y-88120000D02*
X100880000Y-85880000D01*
X108120000Y-85880000D02*
X100880000Y-85880000D01*
X108120000Y-88120000D02*
X100880000Y-88120000D01*
X108120000Y-88120000D02*
X108120000Y-85880000D01*
%TO.C,U8*%
X102560000Y-66670000D02*
X102560000Y-84570000D01*
X102560000Y-84570000D02*
X107060000Y-84570000D01*
X103810000Y-66670000D02*
X102560000Y-66670000D01*
X107060000Y-66670000D02*
X105810000Y-66670000D01*
X107060000Y-84570000D02*
X107060000Y-66670000D01*
X105810000Y-66670000D02*
G75*
G02*
X103810000Y-66670000I-1000000J0D01*
G01*
%TO.C,R8*%
X175280000Y-67840000D02*
X175280000Y-77080000D01*
X175280000Y-77080000D02*
X178720000Y-77080000D01*
X177000000Y-65880000D02*
X177000000Y-67840000D01*
X177000000Y-79040000D02*
X177000000Y-77080000D01*
X178720000Y-67840000D02*
X175280000Y-67840000D01*
X178720000Y-77080000D02*
X178720000Y-67840000D01*
%TO.C,U7*%
X162560000Y-88670000D02*
X162560000Y-114190000D01*
X162560000Y-114190000D02*
X167060000Y-114190000D01*
X163810000Y-88670000D02*
X162560000Y-88670000D01*
X167060000Y-88670000D02*
X165810000Y-88670000D01*
X167060000Y-114190000D02*
X167060000Y-88670000D01*
X165810000Y-88670000D02*
G75*
G02*
X163810000Y-88670000I-1000000J0D01*
G01*
%TO.C,R5*%
X187280000Y-72760000D02*
X187280000Y-82000000D01*
X187280000Y-82000000D02*
X190720000Y-82000000D01*
X189000000Y-70800000D02*
X189000000Y-72760000D01*
X189000000Y-83960000D02*
X189000000Y-82000000D01*
X190720000Y-72760000D02*
X187280000Y-72760000D01*
X190720000Y-82000000D02*
X190720000Y-72760000D01*
%TO.C,C6*%
X160880000Y-88120000D02*
X160880000Y-85880000D01*
X168120000Y-85880000D02*
X160880000Y-85880000D01*
X168120000Y-88120000D02*
X160880000Y-88120000D01*
X168120000Y-88120000D02*
X168120000Y-85880000D01*
%TO.C,C3*%
X115880000Y-88120000D02*
X115880000Y-85880000D01*
X123120000Y-85880000D02*
X115880000Y-85880000D01*
X123120000Y-88120000D02*
X115880000Y-88120000D01*
X123120000Y-88120000D02*
X123120000Y-85880000D01*
%TO.C,U4*%
X162560000Y-66670000D02*
X162560000Y-84570000D01*
X162560000Y-84570000D02*
X167060000Y-84570000D01*
X163810000Y-66670000D02*
X162560000Y-66670000D01*
X167060000Y-66670000D02*
X165810000Y-66670000D01*
X167060000Y-84570000D02*
X167060000Y-66670000D01*
X165810000Y-66670000D02*
G75*
G02*
X163810000Y-66670000I-1000000J0D01*
G01*
%TO.C,C4*%
X130880000Y-88120000D02*
X130880000Y-85880000D01*
X138120000Y-85880000D02*
X130880000Y-85880000D01*
X138120000Y-88120000D02*
X130880000Y-88120000D01*
X138120000Y-88120000D02*
X138120000Y-85880000D01*
%TO.C,U10*%
X147560000Y-88670000D02*
X147560000Y-114190000D01*
X147560000Y-114190000D02*
X152060000Y-114190000D01*
X148810000Y-88670000D02*
X147560000Y-88670000D01*
X152060000Y-88670000D02*
X150810000Y-88670000D01*
X152060000Y-114190000D02*
X152060000Y-88670000D01*
X150810000Y-88670000D02*
G75*
G02*
X148810000Y-88670000I-1000000J0D01*
G01*
%TO.C,JP1*%
X161145000Y-130980000D02*
X161145000Y-129650000D01*
X162475000Y-130980000D02*
X161145000Y-130980000D01*
X163745000Y-128320000D02*
X168885000Y-128320000D01*
X163745000Y-130980000D02*
X163745000Y-128320000D01*
X163745000Y-130980000D02*
X168885000Y-130980000D01*
X168885000Y-130980000D02*
X168885000Y-128320000D01*
%TO.C,JP3*%
X161145000Y-126330000D02*
X161145000Y-125000000D01*
X162475000Y-126330000D02*
X161145000Y-126330000D01*
X163745000Y-123670000D02*
X168885000Y-123670000D01*
X163745000Y-126330000D02*
X163745000Y-123670000D01*
X163745000Y-126330000D02*
X168885000Y-126330000D01*
X168885000Y-126330000D02*
X168885000Y-123670000D01*
%TO.C,U6*%
X132560000Y-88670000D02*
X132560000Y-106570000D01*
X132560000Y-106570000D02*
X137060000Y-106570000D01*
X133810000Y-88670000D02*
X132560000Y-88670000D01*
X137060000Y-88670000D02*
X135810000Y-88670000D01*
X137060000Y-106570000D02*
X137060000Y-88670000D01*
X135810000Y-88670000D02*
G75*
G02*
X133810000Y-88670000I-1000000J0D01*
G01*
%TD*%
M02*
