  0
SECTION
  2
HEADER
  9
$ANGBASE
  50
0.0
  9
$ANGDIR
  70
1
  9
$MEASUREMENT
  70
1
  0
ENDSEC
  0
SECTION
  2
TABLES
  0
TABLE
  2
LTYPE
  70
4
  0
LTYPE
  5
40F
  2
CONTINUOUS
  70
0
  3
Solid line
  72
65
  73
0
  40
0.0
  0
LTYPE
  5
410
  2
DASHDOT
 70
0
  3
Dash Dot ____ _ ____ _
 72
65
 73
4
 40
2.0
 49
1.25
 49
-0.25
 49
0.25
 49
-0.25
  0
LTYPE
  5
411
  2
DASHED
 70
0
  3
Dashed __ __ __ __ __
 72
65
 73
2
 40
0.75
 49
0.5
 49
-0.25
  0
LTYPE
  5
43B
  2
DOTTED
 70
0
  3
Dotted .  .  .  .
 72
65
 73
2
 40
0.2
 49
0.0
 49
-0.2
  0
ENDTAB
  0
TABLE
  2
STYLE
  70
4
  0
STYLE
  2
KICAD
  70
0
  40
0
  41
1
  42
1
  50
0
  71
0
  3
isocp.shx
  0
STYLE
  2
KICADB
  70
0
  40
0
  41
1
  42
1
  50
0
  71
0
  3
isocp.shx
  0
STYLE
  2
KICADI
  70
0
  40
0
  41
1
  42
1
  50
15
  71
0
  3
isocp.shx
  0
STYLE
  2
KICADBI
  70
0
  40
0
  41
1
  42
1
  50
15
  71
0
  3
isocp.shx
  0
ENDTAB
  0
TABLE
  2
LAYER
  70
1
  0
LAYER
  2
BLACK
  70
0
  62
7
  6
CONTINUOUS
  0
ENDTAB
  0
ENDSEC
  0
SECTION
  2
ENTITIES
0
LINE
8
BLACK
6
CONTINUOUS
10
134.1628460000000018
20
-107.3414159999999953
11
134.3286329999999964
21
-107.3599719999999991
0
LINE
8
BLACK
6
CONTINUOUS
10
134.3286329999999964
20
-107.3599719999999991
11
134.4746879999999862
21
-107.3893999999999949
0
LINE
8
BLACK
6
CONTINUOUS
10
134.4746879999999862
20
-107.3893999999999949
11
134.6595329999999819
21
-107.4512519999999967
0
LINE
8
BLACK
6
CONTINUOUS
10
134.6595329999999819
20
-107.4512519999999967
11
134.8070819999999799
21
-107.5306779999999947
0
LINE
8
BLACK
6
CONTINUOUS
10
134.8070819999999799
20
-107.5306779999999947
11
134.9215930000000014
21
-107.6235449999999929
0
LINE
8
BLACK
6
CONTINUOUS
10
134.9215930000000014
20
-107.6235449999999929
11
135.0302470000000028
21
-107.7611309999999918
0
LINE
8
BLACK
6
CONTINUOUS
10
135.0302470000000028
20
-107.7611309999999918
11
135.0978389999999933
21
-107.9054629999999975
0
LINE
8
BLACK
6
CONTINUOUS
10
135.0978389999999933
20
-107.9054629999999975
11
135.1344670000000008
21
-108.0467429999999922
0
LINE
8
BLACK
6
CONTINUOUS
10
135.1344670000000008
20
-108.0467429999999922
11
135.1520940000000053
21
-108.2041210000000007
0
LINE
8
BLACK
6
CONTINUOUS
10
135.1520940000000053
20
-108.2041210000000007
11
134.7696100000000001
21
-108.2041210000000007
0
LINE
8
BLACK
6
CONTINUOUS
10
134.7696100000000001
20
-108.2041210000000007
11
134.7545199999999852
21
-108.0929069999999967
0
LINE
8
BLACK
6
CONTINUOUS
10
134.7545199999999852
20
-108.0929069999999967
11
134.7078779999999938
21
-107.966984999999994
0
LINE
8
BLACK
6
CONTINUOUS
10
134.7078779999999938
20
-107.966984999999994
11
134.6137619999999799
21
-107.8429609999999883
0
LINE
8
BLACK
6
CONTINUOUS
10
134.6137619999999799
20
-107.8429609999999883
11
134.488679999999988
21
-107.7526979999999952
0
LINE
8
BLACK
6
CONTINUOUS
10
134.488679999999988
20
-107.7526979999999952
11
134.3420899999999847
21
-107.6926349999999957
0
LINE
8
BLACK
6
CONTINUOUS
10
134.3420899999999847
20
-107.6926349999999957
11
134.1834529999999859
21
-107.6592100000000016
0
LINE
8
BLACK
6
CONTINUOUS
10
134.1834529999999859
20
-107.6592100000000016
11
134.0222269999999867
21
-107.6488599999999991
0
LINE
8
BLACK
6
CONTINUOUS
10
134.0222269999999867
20
-107.6488599999999991
11
133.9722289999999987
21
-107.6496859999999884
0
LINE
8
BLACK
6
CONTINUOUS
10
133.9722289999999987
20
-107.6496859999999884
11
133.806414999999987
21
-107.6654279999999915
0
LINE
8
BLACK
6
CONTINUOUS
10
133.806414999999987
20
-107.6654279999999915
11
133.6633789999999919
21
-107.6999579999999952
0
LINE
8
BLACK
6
CONTINUOUS
10
133.6633789999999919
20
-107.6999579999999952
11
133.5307740000000081
21
-107.7609080000000006
0
LINE
8
BLACK
6
CONTINUOUS
10
133.5307740000000081
20
-107.7609080000000006
11
133.422520999999989
21
-107.8547979999999882
0
LINE
8
BLACK
6
CONTINUOUS
10
133.422520999999989
20
-107.8547979999999882
11
133.3525379999999814
21
-107.9881499999999903
0
LINE
8
BLACK
6
CONTINUOUS
10
133.3525379999999814
20
-107.9881499999999903
11
133.3334619999999973
21
-108.1276239999999973
0
LINE
8
BLACK
6
CONTINUOUS
10
133.3334619999999973
20
-108.1276239999999973
11
133.3459619999999859
21
-108.2254399999999919
0
LINE
8
BLACK
6
CONTINUOUS
10
133.3459619999999859
20
-108.2254399999999919
11
133.4215639999999894
21
-108.3524879999999939
0
LINE
8
BLACK
6
CONTINUOUS
10
133.4215639999999894
20
-108.3524879999999939
11
133.544526999999988
21
-108.4300059999999917
0
LINE
8
BLACK
6
CONTINUOUS
10
133.544526999999988
20
-108.4300059999999917
11
133.6903010000000052
21
-108.4738389999999981
0
LINE
8
BLACK
6
CONTINUOUS
10
133.6903010000000052
20
-108.4738389999999981
11
134.5512569999999926
21
-108.6525509999999883
0
LINE
8
BLACK
6
CONTINUOUS
10
134.5512569999999926
20
-108.6525509999999883
11
134.6928230000000042
21
-108.6901659999999907
0
LINE
8
BLACK
6
CONTINUOUS
10
134.6928230000000042
20
-108.6901659999999907
11
134.8535819999999887
21
-108.7557860000000005
0
LINE
8
BLACK
6
CONTINUOUS
10
134.8535819999999887
20
-108.7557860000000005
11
134.9920999999999935
21
-108.8440459999999916
0
LINE
8
BLACK
6
CONTINUOUS
10
134.9920999999999935
20
-108.8440459999999916
11
135.1038309999999854
21
-108.9570609999999959
0
LINE
8
BLACK
6
CONTINUOUS
10
135.1038309999999854
20
-108.9570609999999959
11
135.1842309999999827
21
-109.0969419999999985
0
LINE
8
BLACK
6
CONTINUOUS
10
135.1842309999999827
20
-109.0969419999999985
11
135.2229379999999992
21
-109.2296109999999913
0
LINE
8
BLACK
6
CONTINUOUS
10
135.2229379999999992
20
-109.2296109999999913
11
135.2363579999999956
21
-109.3819089999999932
0
LINE
8
BLACK
6
CONTINUOUS
10
135.2363579999999956
20
-109.3819089999999932
11
135.2287759999999821
21
-109.4975449999999881
0
LINE
8
BLACK
6
CONTINUOUS
10
135.2287759999999821
20
-109.4975449999999881
11
135.1908300000000054
21
-109.6513539999999978
0
LINE
8
BLACK
6
CONTINUOUS
10
135.1908300000000054
20
-109.6513539999999978
11
135.124559000000005
21
-109.7828679999999935
0
LINE
8
BLACK
6
CONTINUOUS
10
135.124559000000005
20
-109.7828679999999935
11
135.0339749999999981
21
-109.8935259999999943
0
LINE
8
BLACK
6
CONTINUOUS
10
135.0339749999999981
20
-109.8935259999999943
11
134.9230859999999836
21
-109.9847649999999959
0
LINE
8
BLACK
6
CONTINUOUS
10
134.9230859999999836
20
-109.9847649999999959
11
134.7959029999999814
21
-110.058021999999994
0
LINE
8
BLACK
6
CONTINUOUS
10
134.7959029999999814
20
-110.058021999999994
11
134.6564359999999851
21
-110.1147359999999935
0
LINE
8
BLACK
6
CONTINUOUS
10
134.6564359999999851
20
-110.1147359999999935
11
134.5086949999999888
21
-110.15634399999999
0
LINE
8
BLACK
6
CONTINUOUS
10
134.5086949999999888
20
-110.15634399999999
11
134.3566909999999837
21
-110.1842829999999935
0
LINE
8
BLACK
6
CONTINUOUS
10
134.3566909999999837
20
-110.1842829999999935
11
134.2044329999999945
21
-110.1999929999999921
0
LINE
8
BLACK
6
CONTINUOUS
10
134.2044329999999945
20
-110.1999929999999921
11
134.0559319999999843
21
-110.2049099999999981
0
LINE
8
BLACK
6
CONTINUOUS
10
134.0559319999999843
20
-110.2049099999999981
11
133.9074659999999994
21
-110.2010870000000011
0
LINE
8
BLACK
6
CONTINUOUS
10
133.9074659999999994
20
-110.2010870000000011
11
133.7352679999999907
21
-110.1852469999999897
0
LINE
8
BLACK
6
CONTINUOUS
10
133.7352679999999907
20
-110.1852469999999897
11
133.5571929999999838
21
-110.1513549999999952
0
LINE
8
BLACK
6
CONTINUOUS
10
133.5571929999999838
20
-110.1513549999999952
11
133.4149400000000014
21
-110.1059190000000001
0
LINE
8
BLACK
6
CONTINUOUS
10
133.4149400000000014
20
-110.1059190000000001
11
133.2647910000000024
21
-110.0313079999999957
0
LINE
8
BLACK
6
CONTINUOUS
10
133.2647910000000024
20
-110.0313079999999957
11
133.1444180000000017
21
-109.9444249999999954
0
LINE
8
BLACK
6
CONTINUOUS
10
133.1444180000000017
20
-109.9444249999999954
11
133.0987069999999903
21
-109.9050099999999901
0
LINE
8
BLACK
6
CONTINUOUS
10
133.0987069999999903
20
-109.9050099999999901
11
132.988254999999981
21
-109.7840329999999938
0
LINE
8
BLACK
6
CONTINUOUS
10
132.988254999999981
20
-109.7840329999999938
11
132.9130419999999901
21
-109.6586739999999907
0
LINE
8
BLACK
6
CONTINUOUS
10
132.9130419999999901
20
-109.6586739999999907
11
132.8669249999999806
21
-109.5285679999999928
0
LINE
8
BLACK
6
CONTINUOUS
10
132.8669249999999806
20
-109.5285679999999928
11
132.8437610000000006
21
-109.3933509999999956
0
LINE
8
BLACK
6
CONTINUOUS
10
132.8437610000000006
20
-109.3933509999999956
11
132.8374039999999923
21
-109.2526560000000018
0
LINE
8
BLACK
6
CONTINUOUS
10
132.8374039999999923
20
-109.2526560000000018
11
133.2198889999999949
21
-109.2526560000000018
0
LINE
8
BLACK
6
CONTINUOUS
10
133.2198889999999949
20
-109.2526560000000018
11
133.2249860000000012
21
-109.3413379999999933
0
LINE
8
BLACK
6
CONTINUOUS
10
133.2249860000000012
20
-109.3413379999999933
11
133.2635469999999884
21
-109.495287999999988
0
LINE
8
BLACK
6
CONTINUOUS
10
133.2635469999999884
20
-109.495287999999988
11
133.3349989999999821
21
-109.6200249999999983
0
LINE
8
BLACK
6
CONTINUOUS
10
133.3349989999999821
20
-109.6200249999999983
11
133.4615550000000042
21
-109.7385419999999954
0
LINE
8
BLACK
6
CONTINUOUS
10
133.4615550000000042
20
-109.7385419999999954
11
133.6187029999999822
21
-109.8198909999999984
0
LINE
8
BLACK
6
CONTINUOUS
10
133.6187029999999822
20
-109.8198909999999984
11
133.7586849999999856
21
-109.8613749999999953
0
LINE
8
BLACK
6
CONTINUOUS
10
133.7586849999999856
20
-109.8613749999999953
11
133.9049339999999972
21
-109.8844969999999961
0
LINE
8
BLACK
6
CONTINUOUS
10
133.9049339999999972
20
-109.8844969999999961
11
134.0515359999999987
21
-109.8916679999999957
0
LINE
8
BLACK
6
CONTINUOUS
10
134.0515359999999987
20
-109.8916679999999957
11
134.1389309999999853
21
-109.8896499999999889
0
LINE
8
BLACK
6
CONTINUOUS
10
134.1389309999999853
20
-109.8896499999999889
11
134.2989120000000014
21
-109.8748319999999978
0
LINE
8
BLACK
6
CONTINUOUS
10
134.2989120000000014
20
-109.8748319999999978
11
134.4629449999999906
21
-109.840644999999995
0
LINE
8
BLACK
6
CONTINUOUS
10
134.4629449999999906
20
-109.840644999999995
11
134.6150470000000041
21
-109.7812629999999956
0
LINE
8
BLACK
6
CONTINUOUS
10
134.6150470000000041
20
-109.7812629999999956
11
134.7392350000000079
21
-109.6908609999999982
0
LINE
8
BLACK
6
CONTINUOUS
10
134.7392350000000079
20
-109.6908609999999982
11
134.8195279999999912
21
-109.563611999999992
0
LINE
8
BLACK
6
CONTINUOUS
10
134.8195279999999912
20
-109.563611999999992
11
134.841417000000007
21
-109.431367999999992
0
LINE
8
BLACK
6
CONTINUOUS
10
134.841417000000007
20
-109.431367999999992
11
134.8298639999999864
21
-109.3112289999999973
0
LINE
8
BLACK
6
CONTINUOUS
10
134.8298639999999864
20
-109.3112289999999973
11
134.7686970000000031
21
-109.1816069999999996
0
LINE
8
BLACK
6
CONTINUOUS
10
134.7686970000000031
20
-109.1816069999999996
11
134.6436280000000068
21
-109.0850719999999967
0
LINE
8
BLACK
6
CONTINUOUS
10
134.6436280000000068
20
-109.0850719999999967
11
134.5081859999999949
21
-109.0290799999999933
0
LINE
8
BLACK
6
CONTINUOUS
10
134.5081859999999949
20
-109.0290799999999933
11
134.3686380000000042
21
-108.9883759999999882
0
LINE
8
BLACK
6
CONTINUOUS
10
134.3686380000000042
20
-108.9883759999999882
11
134.1988139999999987
21
-108.948646999999994
0
LINE
8
BLACK
6
CONTINUOUS
10
134.1988139999999987
20
-108.948646999999994
11
133.5811239999999884
21
-108.8193929999999909
0
LINE
8
BLACK
6
CONTINUOUS
10
133.5811239999999884
20
-108.8193929999999909
11
133.5197110000000009
21
-108.8052809999999937
0
LINE
8
BLACK
6
CONTINUOUS
10
133.5197110000000009
20
-108.8052809999999937
11
133.3713089999999966
21
-108.7585380000000015
0
LINE
8
BLACK
6
CONTINUOUS
10
133.3713089999999966
20
-108.7585380000000015
11
133.2378989999999988
21
-108.6944629999999989
0
LINE
8
BLACK
6
CONTINUOUS
10
133.2378989999999988
20
-108.6944629999999989
11
133.1125720000000001
21
-108.6010469999999941
0
LINE
8
BLACK
6
CONTINUOUS
10
133.1125720000000001
20
-108.6010469999999941
11
133.0112100000000055
21
-108.4721899999999977
0
LINE
8
BLACK
6
CONTINUOUS
10
133.0112100000000055
20
-108.4721899999999977
11
132.9580489999999884
21
-108.3394899999999978
0
LINE
8
BLACK
6
CONTINUOUS
10
132.9580489999999884
20
-108.3394899999999978
11
132.9385209999999802
21
-108.1770839999999936
0
LINE
8
BLACK
6
CONTINUOUS
10
132.9385209999999802
20
-108.1770839999999936
11
132.953109999999981
21
-108.018777
0
LINE
8
BLACK
6
CONTINUOUS
10
132.953109999999981
20
-108.018777
11
132.9978030000000047
21
-107.8660569999999979
0
LINE
8
BLACK
6
CONTINUOUS
10
132.9978030000000047
20
-107.8660569999999979
11
133.0739930000000015
21
-107.7237089999999995
0
LINE
8
BLACK
6
CONTINUOUS
10
133.0739930000000015
20
-107.7237089999999995
11
133.183068999999989
21
-107.5965149999999966
0
LINE
8
BLACK
6
CONTINUOUS
10
133.183068999999989
20
-107.5965149999999966
11
133.3264240000000029
21
-107.4892600000000016
0
LINE
8
BLACK
6
CONTINUOUS
10
133.3264240000000029
20
-107.4892600000000016
11
133.4572709999999915
21
-107.4247799999999984
0
LINE
8
BLACK
6
CONTINUOUS
10
133.4572709999999915
20
-107.4247799999999984
11
133.6087689999999952
21
-107.3762249999999909
0
LINE
8
BLACK
6
CONTINUOUS
10
133.6087689999999952
20
-107.3762249999999909
11
133.7815049999999815
21
-107.3456119999999885
0
LINE
8
BLACK
6
CONTINUOUS
10
133.7815049999999815
20
-107.3456119999999885
11
133.9760650000000055
21
-107.3349589999999978
0
LINE
8
BLACK
6
CONTINUOUS
10
133.9760650000000055
20
-107.3349589999999978
11
134.1628460000000018
21
-107.3414159999999953
0
LINE
8
BLACK
6
CONTINUOUS
10
139.9659800000000018
20
-107.3383359999999982
11
140.1259799999999984
21
-107.3561409999999938
0
LINE
8
BLACK
6
CONTINUOUS
10
140.1259799999999984
20
-107.3561409999999938
11
140.2843540000000075
21
-107.3893739999999895
0
LINE
8
BLACK
6
CONTINUOUS
10
140.2843540000000075
20
-107.3893739999999895
11
140.4381290000000035
21
-107.4381959999999907
0
LINE
8
BLACK
6
CONTINUOUS
10
140.4381290000000035
20
-107.4381959999999907
11
140.5843349999999816
21
-107.5027659999999941
0
LINE
8
BLACK
6
CONTINUOUS
10
140.5843349999999816
20
-107.5027659999999941
11
140.7200029999999913
21
-107.583242999999996
0
LINE
8
BLACK
6
CONTINUOUS
10
140.7200029999999913
20
-107.583242999999996
11
140.8421600000000069
21
-107.6797880000000021
0
LINE
8
BLACK
6
CONTINUOUS
10
140.8421600000000069
20
-107.6797880000000021
11
140.9478379999999902
21
-107.7925609999999921
0
LINE
8
BLACK
6
CONTINUOUS
10
140.9478379999999902
20
-107.7925609999999921
11
141.0340659999999957
21
-107.9217199999999934
0
LINE
8
BLACK
6
CONTINUOUS
10
141.0340659999999957
20
-107.9217199999999934
11
141.0978729999999928
21
-108.067426999999995
0
LINE
8
BLACK
6
CONTINUOUS
10
141.0978729999999928
20
-108.067426999999995
11
141.1362880000000075
21
-108.2298399999999958
0
LINE
8
BLACK
6
CONTINUOUS
10
141.1362880000000075
20
-108.2298399999999958
11
140.7413469999999904
21
-108.2298399999999958
0
LINE
8
BLACK
6
CONTINUOUS
10
140.7413469999999904
20
-108.2298399999999958
11
140.6789369999999906
21
-108.0699829999999935
0
LINE
8
BLACK
6
CONTINUOUS
10
140.6789369999999906
20
-108.0699829999999935
11
140.5922599999999818
21
-107.9418949999999882
0
LINE
8
BLACK
6
CONTINUOUS
10
140.5922599999999818
20
-107.9418949999999882
11
140.4862459999999942
21
-107.8423540000000003
0
LINE
8
BLACK
6
CONTINUOUS
10
140.4862459999999942
20
-107.8423540000000003
11
140.3340450000000033
21
-107.7531639999999982
0
LINE
8
BLACK
6
CONTINUOUS
10
140.3340450000000033
20
-107.7531639999999982
11
140.1689559999999801
21
-107.6972489999999993
0
LINE
8
BLACK
6
CONTINUOUS
10
140.1689559999999801
20
-107.6972489999999993
11
140.0006079999999997
21
-107.6683159999999901
0
LINE
8
BLACK
6
CONTINUOUS
10
140.0006079999999997
20
-107.6683159999999901
11
139.838626000000005
21
-107.6600699999999904
0
LINE
8
BLACK
6
CONTINUOUS
10
139.838626000000005
20
-107.6600699999999904
11
139.6891520000000071
21
-107.6702719999999971
0
LINE
8
BLACK
6
CONTINUOUS
10
139.6891520000000071
20
-107.6702719999999971
11
139.5007129999999904
21
-107.7151999999999958
0
LINE
8
BLACK
6
CONTINUOUS
10
139.5007129999999904
20
-107.7151999999999958
11
139.328440999999998
21
-107.7951829999999944
0
LINE
8
BLACK
6
CONTINUOUS
10
139.328440999999998
20
-107.7951829999999944
11
139.2123109999999997
21
-107.877687999999992
0
LINE
8
BLACK
6
CONTINUOUS
10
139.2123109999999997
20
-107.877687999999992
11
139.1093060000000037
21
-107.9791139999999956
0
LINE
8
BLACK
6
CONTINUOUS
10
139.1093060000000037
20
-107.9791139999999956
11
139.0211539999999957
21
-108.0991169999999926
0
LINE
8
BLACK
6
CONTINUOUS
10
139.0211539999999957
20
-108.0991169999999926
11
138.9495839999999873
21
-108.2373559999999912
0
LINE
8
BLACK
6
CONTINUOUS
10
138.9495839999999873
20
-108.2373559999999912
11
138.8963229999999953
21
-108.3934889999999882
0
LINE
8
BLACK
6
CONTINUOUS
10
138.8963229999999953
20
-108.3934889999999882
11
138.8630990000000054
21
-108.5671719999999993
0
LINE
8
BLACK
6
CONTINUOUS
10
138.8630990000000054
20
-108.5671719999999993
11
138.8516400000000033
21
-108.7580639999999903
0
LINE
8
BLACK
6
CONTINUOUS
10
138.8516400000000033
20
-108.7580639999999903
11
138.8540989999999908
21
-108.8626249999999942
0
LINE
8
BLACK
6
CONTINUOUS
10
138.8540989999999908
20
-108.8626249999999942
11
138.867921999999993
21
-109.0183989999999881
0
LINE
8
BLACK
6
CONTINUOUS
10
138.867921999999993
20
-109.0183989999999881
11
138.8956609999999898
21
-109.1702749999999895
0
LINE
8
BLACK
6
CONTINUOUS
10
138.8956609999999898
20
-109.1702749999999895
11
138.9392909999999972
21
-109.3153089999999992
0
LINE
8
BLACK
6
CONTINUOUS
10
138.9392909999999972
20
-109.3153089999999992
11
139.0007860000000051
21
-109.4505569999999892
0
LINE
8
BLACK
6
CONTINUOUS
10
139.0007860000000051
20
-109.4505569999999892
11
139.0821200000000033
21
-109.5730739999999912
0
LINE
8
BLACK
6
CONTINUOUS
10
139.0821200000000033
20
-109.5730739999999912
11
139.1852680000000078
21
-109.679916999999989
0
LINE
8
BLACK
6
CONTINUOUS
10
139.1852680000000078
20
-109.679916999999989
11
139.3122029999999825
21
-109.7681419999999974
0
LINE
8
BLACK
6
CONTINUOUS
10
139.3122029999999825
20
-109.7681419999999974
11
139.4649009999999976
21
-109.8348049999999887
0
LINE
8
BLACK
6
CONTINUOUS
10
139.4649009999999976
20
-109.8348049999999887
11
139.6453339999999912
21
-109.8769619999999918
0
LINE
8
BLACK
6
CONTINUOUS
10
139.6453339999999912
20
-109.8769619999999918
11
139.8554780000000051
21
-109.8916679999999957
0
LINE
8
BLACK
6
CONTINUOUS
10
139.8554780000000051
20
-109.8916679999999957
11
139.8848429999999894
21
-109.8914509999999893
0
LINE
8
BLACK
6
CONTINUOUS
10
139.8848429999999894
20
-109.8914509999999893
11
140.0394819999999925
21
-109.8808080000000018
0
LINE
8
BLACK
6
CONTINUOUS
10
140.0394819999999925
20
-109.8808080000000018
11
140.198836
21
-109.8478739999999902
0
LINE
8
BLACK
6
CONTINUOUS
10
140.198836
20
-109.8478739999999902
11
140.3463840000000005
21
-109.7909949999999952
0
LINE
8
BLACK
6
CONTINUOUS
10
140.3463840000000005
20
-109.7909949999999952
11
140.4731689999999844
21
-109.7149339999999995
0
LINE
8
BLACK
6
CONTINUOUS
10
140.4731689999999844
20
-109.7149339999999995
11
140.5424549999999897
21
-109.6595389999999952
0
LINE
8
BLACK
6
CONTINUOUS
10
140.5424549999999897
20
-109.6595389999999952
11
140.652323999999993
21
-109.5402729999999991
0
LINE
8
BLACK
6
CONTINUOUS
10
140.652323999999993
20
-109.5402729999999991
11
140.7282419999999945
21
-109.4098350000000011
0
LINE
8
BLACK
6
CONTINUOUS
10
140.7282419999999945
20
-109.4098350000000011
11
140.7753969999999981
21
-109.2683809999999909
0
LINE
8
BLACK
6
CONTINUOUS
10
140.7753969999999981
20
-109.2683809999999909
11
140.7989780000000053
21
-109.116068999999996
0
LINE
8
BLACK
6
CONTINUOUS
10
140.7989780000000053
20
-109.116068999999996
11
140.8043619999999976
21
-108.9809599999999961
0
LINE
8
BLACK
6
CONTINUOUS
10
140.8043619999999976
20
-108.9809599999999961
11
139.8635380000000055
21
-108.9809599999999961
0
LINE
8
BLACK
6
CONTINUOUS
10
139.8635380000000055
20
-108.9809599999999961
11
139.8635380000000055
21
-108.6677189999999911
0
LINE
8
BLACK
6
CONTINUOUS
10
139.8635380000000055
20
-108.6677189999999911
11
141.1868460000000027
21
-108.6677189999999911
0
LINE
8
BLACK
6
CONTINUOUS
10
141.1868460000000027
20
-108.6677189999999911
11
141.1868460000000027
21
-110.1204999999999927
0
LINE
8
BLACK
6
CONTINUOUS
10
141.1868460000000027
20
-110.1204999999999927
11
140.9223309999999856
21
-110.1204999999999927
0
LINE
8
BLACK
6
CONTINUOUS
10
140.9223309999999856
20
-110.1204999999999927
11
140.8256109999999808
21
-109.7802199999999999
0
LINE
8
BLACK
6
CONTINUOUS
10
140.8256109999999808
20
-109.7802199999999999
11
140.717016000000001
21
-109.8943519999999978
0
LINE
8
BLACK
6
CONTINUOUS
10
140.717016000000001
20
-109.8943519999999978
11
140.586385000000007
21
-109.9932680000000005
0
LINE
8
BLACK
6
CONTINUOUS
10
140.586385000000007
20
-109.9932680000000005
11
140.4369030000000009
21
-110.0752799999999922
0
LINE
8
BLACK
6
CONTINUOUS
10
140.4369030000000009
20
-110.0752799999999922
11
140.2717569999999796
21
-110.1386959999999959
0
LINE
8
BLACK
6
CONTINUOUS
10
140.2717569999999796
20
-110.1386959999999959
11
140.130504000000002
21
-110.1749049999999954
0
LINE
8
BLACK
6
CONTINUOUS
10
140.130504000000002
20
-110.1749049999999954
11
139.9828959999999825
21
-110.1972639999999899
0
LINE
8
BLACK
6
CONTINUOUS
10
139.9828959999999825
20
-110.1972639999999899
11
139.8305660000000046
21
-110.2049099999999981
0
LINE
8
BLACK
6
CONTINUOUS
10
139.8305660000000046
20
-110.2049099999999981
11
139.782841999999988
21
-110.2044190000000015
0
LINE
8
BLACK
6
CONTINUOUS
10
139.782841999999988
20
-110.2044190000000015
11
139.6069080000000042
21
-110.1932690000000008
0
LINE
8
BLACK
6
CONTINUOUS
10
139.6069080000000042
20
-110.1932690000000008
11
139.4534089999999935
21
-110.169195000000002
0
LINE
8
BLACK
6
CONTINUOUS
10
139.4534089999999935
20
-110.169195000000002
11
139.2900349999999889
21
-110.1245449999999977
0
LINE
8
BLACK
6
CONTINUOUS
10
139.2900349999999889
20
-110.1245449999999977
11
139.1546830000000057
21
-110.0680419999999913
0
LINE
8
BLACK
6
CONTINUOUS
10
139.1546830000000057
20
-110.0680419999999913
11
139.023744999999991
21
-109.9911199999999951
0
LINE
8
BLACK
6
CONTINUOUS
10
139.023744999999991
20
-109.9911199999999951
11
138.9058619999999848
21
-109.8989219999999989
0
LINE
8
BLACK
6
CONTINUOUS
10
138.9058619999999848
20
-109.8989219999999989
11
138.824466000000001
21
-109.8233129999999989
0
LINE
8
BLACK
6
CONTINUOUS
10
138.824466000000001
20
-109.8233129999999989
11
138.7207099999999969
21
-109.7074839999999938
0
LINE
8
BLACK
6
CONTINUOUS
10
138.7207099999999969
20
-109.7074839999999938
11
138.6370419999999797
21
-109.5898949999999985
0
LINE
8
BLACK
6
CONTINUOUS
10
138.6370419999999797
20
-109.5898949999999985
11
138.5713039999999978
21
-109.4718280000000021
0
LINE
8
BLACK
6
CONTINUOUS
10
138.5713039999999978
20
-109.4718280000000021
11
138.5078100000000063
21
-109.3158770000000004
0
LINE
8
BLACK
6
CONTINUOUS
10
138.5078100000000063
20
-109.3158770000000004
11
138.4672339999999906
21
-109.1643899999999974
0
LINE
8
BLACK
6
CONTINUOUS
10
138.4672339999999906
20
-109.1643899999999974
11
138.4444579999999974
21
-109.0204049999999967
0
LINE
8
BLACK
6
CONTINUOUS
10
138.4444579999999974
20
-109.0204049999999967
11
138.4343649999999855
21
-108.8869589999999903
0
LINE
8
BLACK
6
CONTINUOUS
10
138.4343649999999855
20
-108.8869589999999903
11
138.4317869999999857
21
-108.7395989999999983
0
LINE
8
BLACK
6
CONTINUOUS
10
138.4317869999999857
20
-108.7395989999999983
11
138.4330929999999853
21
-108.6774329999999935
0
LINE
8
BLACK
6
CONTINUOUS
10
138.4330929999999853
20
-108.6774329999999935
11
138.4528190000000052
21
-108.4895289999999903
0
LINE
8
BLACK
6
CONTINUOUS
10
138.4528190000000052
20
-108.4895289999999903
11
138.4966169999999863
21
-108.3026939999999883
0
LINE
8
BLACK
6
CONTINUOUS
10
138.4966169999999863
20
-108.3026939999999883
11
138.5649520000000052
21
-108.1210169999999948
0
LINE
8
BLACK
6
CONTINUOUS
10
138.5649520000000052
20
-108.1210169999999948
11
138.6582870000000014
21
-107.9485849999999942
0
LINE
8
BLACK
6
CONTINUOUS
10
138.6582870000000014
20
-107.9485849999999942
11
138.7770849999999996
21
-107.789488999999989
0
LINE
8
BLACK
6
CONTINUOUS
10
138.7770849999999996
20
-107.789488999999989
11
138.9218109999999911
21
-107.6478139999999968
0
LINE
8
BLACK
6
CONTINUOUS
10
138.9218109999999911
20
-107.6478139999999968
11
139.0929280000000006
21
-107.5276509999999917
0
LINE
8
BLACK
6
CONTINUOUS
10
139.0929280000000006
20
-107.5276509999999917
11
139.2218969999999842
21
-107.461511999999999
0
LINE
8
BLACK
6
CONTINUOUS
10
139.2218969999999842
20
-107.461511999999999
11
139.362938999999983
21
-107.4079619999999977
0
LINE
8
BLACK
6
CONTINUOUS
10
139.362938999999983
20
-107.4079619999999977
11
139.5161909999999921
21
-107.3682119999999998
0
LINE
8
BLACK
6
CONTINUOUS
10
139.5161909999999921
20
-107.3682119999999998
11
139.6817900000000066
21
-107.3434740000000005
0
LINE
8
BLACK
6
CONTINUOUS
10
139.6817900000000066
20
-107.3434740000000005
11
139.8598749999999882
21
-107.3349589999999978
0
LINE
8
BLACK
6
CONTINUOUS
10
139.8598749999999882
20
-107.3349589999999978
11
139.9659800000000018
21
-107.3383359999999982
0
LINE
8
BLACK
6
CONTINUOUS
10
172.2508729999999844
20
-110.2049099999999981
11
171.9695049999999981
21
-110.2049099999999981
0
LINE
8
BLACK
6
CONTINUOUS
10
171.9695049999999981
20
-110.2049099999999981
11
173.0026519999999834
21
-107.3349589999999978
0
LINE
8
BLACK
6
CONTINUOUS
10
173.0026519999999834
20
-107.3349589999999978
11
173.2803559999999834
21
-107.3349589999999978
0
LINE
8
BLACK
6
CONTINUOUS
10
173.2803559999999834
20
-107.3349589999999978
11
172.2508729999999844
21
-110.2049099999999981
0
LINE
8
BLACK
6
CONTINUOUS
10
178.0737409999999841
20
-107.3446050000000014
11
178.2581659999999886
21
-107.3724649999999912
0
LINE
8
BLACK
6
CONTINUOUS
10
178.2581659999999886
20
-107.3724649999999912
11
178.4255489999999895
21
-107.4169259999999895
0
LINE
8
BLACK
6
CONTINUOUS
10
178.4255489999999895
20
-107.4169259999999895
11
178.5765299999999911
21
-107.4763710000000003
0
LINE
8
BLACK
6
CONTINUOUS
10
178.5765299999999911
20
-107.4763710000000003
11
178.711749999999995
21
-107.5491849999999943
0
LINE
8
BLACK
6
CONTINUOUS
10
178.711749999999995
20
-107.5491849999999943
11
178.8318500000000029
21
-107.6337539999999962
0
LINE
8
BLACK
6
CONTINUOUS
10
178.8318500000000029
20
-107.6337539999999962
11
178.937470999999988
21
-107.7284619999999933
0
LINE
8
BLACK
6
CONTINUOUS
10
178.937470999999988
20
-107.7284619999999933
11
179.0701549999999997
21
-107.8860009999999932
0
LINE
8
BLACK
6
CONTINUOUS
10
179.0701549999999997
20
-107.8860009999999932
11
179.173864999999978
21
-108.0572689999999909
0
LINE
8
BLACK
6
CONTINUOUS
10
179.173864999999978
20
-108.0572689999999909
11
179.2507640000000038
21
-108.2368129999999979
0
LINE
8
BLACK
6
CONTINUOUS
10
179.2507640000000038
20
-108.2368129999999979
11
179.3030139999999903
21
-108.4191819999999922
0
LINE
8
BLACK
6
CONTINUOUS
10
179.3030139999999903
20
-108.4191819999999922
11
179.3327789999999879
21
-108.5989259999999916
0
LINE
8
BLACK
6
CONTINUOUS
10
179.3327789999999879
20
-108.5989259999999916
11
179.3422199999999975
21
-108.7705939999999885
0
LINE
8
BLACK
6
CONTINUOUS
10
179.3422199999999975
20
-108.7705939999999885
11
179.341196999999994
21
-108.8265200000000021
0
LINE
8
BLACK
6
CONTINUOUS
10
179.341196999999994
20
-108.8265200000000021
11
179.3252219999999966
21
-109.001300999999998
0
LINE
8
BLACK
6
CONTINUOUS
10
179.3252219999999966
20
-109.001300999999998
11
179.2882029999999816
21
-109.1823459999999955
0
LINE
8
BLACK
6
CONTINUOUS
10
179.2882029999999816
20
-109.1823459999999955
11
179.2279769999999814
21
-109.3642079999999908
0
LINE
8
BLACK
6
CONTINUOUS
10
179.2279769999999814
20
-109.3642079999999908
11
179.1423810000000003
21
-109.5414370000000019
0
LINE
8
BLACK
6
CONTINUOUS
10
179.1423810000000003
20
-109.5414370000000019
11
179.0292529999999829
21
-109.7085869999999943
0
LINE
8
BLACK
6
CONTINUOUS
10
179.0292529999999829
20
-109.7085869999999943
11
178.937470999999988
21
-109.8117299999999972
0
LINE
8
BLACK
6
CONTINUOUS
10
178.937470999999988
20
-109.8117299999999972
11
178.8318500000000029
21
-109.9063579999999973
0
LINE
8
BLACK
6
CONTINUOUS
10
178.8318500000000029
20
-109.9063579999999973
11
178.711749999999995
21
-109.9908559999999937
0
LINE
8
BLACK
6
CONTINUOUS
10
178.711749999999995
20
-109.9908559999999937
11
178.5765299999999911
21
-110.0636109999999945
0
LINE
8
BLACK
6
CONTINUOUS
10
178.5765299999999911
20
-110.0636109999999945
11
178.4255489999999895
21
-110.1230079999999987
0
LINE
8
BLACK
6
CONTINUOUS
10
178.4255489999999895
20
-110.1230079999999987
11
178.2581659999999886
21
-110.1674329999999884
0
LINE
8
BLACK
6
CONTINUOUS
10
178.2581659999999886
20
-110.1674329999999884
11
178.0737409999999841
21
-110.1952719999999886
0
LINE
8
BLACK
6
CONTINUOUS
10
178.0737409999999841
20
-110.1952719999999886
11
177.8716330000000028
21
-110.2049099999999981
0
LINE
8
BLACK
6
CONTINUOUS
10
177.8716330000000028
20
-110.2049099999999981
11
177.66965399999998
21
-110.1952719999999886
0
LINE
8
BLACK
6
CONTINUOUS
10
177.66965399999998
20
-110.1952719999999886
11
177.4853420000000028
21
-110.1674329999999884
0
LINE
8
BLACK
6
CONTINUOUS
10
177.4853420000000028
20
-110.1674329999999884
11
177.3180579999999793
21
-110.1230079999999987
0
LINE
8
BLACK
6
CONTINUOUS
10
177.3180579999999793
20
-110.1230079999999987
11
177.167160999999993
21
-110.0636109999999945
0
LINE
8
BLACK
6
CONTINUOUS
10
177.167160999999993
20
-110.0636109999999945
11
177.0320119999999804
21
-109.9908559999999937
0
LINE
8
BLACK
6
CONTINUOUS
10
177.0320119999999804
20
-109.9908559999999937
11
176.9119709999999941
21
-109.9063579999999973
0
LINE
8
BLACK
6
CONTINUOUS
10
176.9119709999999941
20
-109.9063579999999973
11
176.8063980000000015
21
-109.8117299999999972
0
LINE
8
BLACK
6
CONTINUOUS
10
176.8063980000000015
20
-109.8117299999999972
11
176.673768999999993
21
-109.654326999999995
0
LINE
8
BLACK
6
CONTINUOUS
10
176.673768999999993
20
-109.654326999999995
11
176.5700959999999782
21
-109.4832119999999946
0
LINE
8
BLACK
6
CONTINUOUS
10
176.5700959999999782
20
-109.4832119999999946
11
176.4932189999999821
21
-109.3038329999999974
0
LINE
8
BLACK
6
CONTINUOUS
10
176.4932189999999821
20
-109.3038329999999974
11
176.4409799999999962
21
-109.1216379999999901
0
LINE
8
BLACK
6
CONTINUOUS
10
176.4409799999999962
20
-109.1216379999999901
11
176.4112199999999859
21
-108.9420760000000001
0
LINE
8
BLACK
6
CONTINUOUS
10
176.4112199999999859
20
-108.9420760000000001
11
176.4017800000000022
21
-108.7705939999999885
0
LINE
8
BLACK
6
CONTINUOUS
10
176.4017800000000022
20
-108.7705939999999885
11
176.4028019999999799
21
-108.7146049999999917
0
LINE
8
BLACK
6
CONTINUOUS
10
176.4028019999999799
20
-108.7146049999999917
11
176.4187759999999798
21
-108.5396399999999915
0
LINE
8
BLACK
6
CONTINUOUS
10
176.4187759999999798
20
-108.5396399999999915
11
176.4557889999999816
21
-108.3584149999999937
0
LINE
8
BLACK
6
CONTINUOUS
10
176.4557889999999816
20
-108.3584149999999937
11
176.5159999999999911
21
-108.1763819999999896
0
LINE
8
BLACK
6
CONTINUOUS
10
176.5159999999999911
20
-108.1763819999999896
11
176.6015689999999836
21
-107.9989909999999895
0
LINE
8
BLACK
6
CONTINUOUS
10
176.6015689999999836
20
-107.9989909999999895
11
176.7146549999999934
21
-107.8316939999999988
0
LINE
8
BLACK
6
CONTINUOUS
10
176.7146549999999934
20
-107.8316939999999988
11
176.8063980000000015
21
-107.7284619999999933
0
LINE
8
BLACK
6
CONTINUOUS
10
176.8063980000000015
20
-107.7284619999999933
11
176.9119709999999941
21
-107.6337539999999962
0
LINE
8
BLACK
6
CONTINUOUS
10
176.9119709999999941
20
-107.6337539999999962
11
177.0320119999999804
21
-107.5491849999999943
0
LINE
8
BLACK
6
CONTINUOUS
10
177.0320119999999804
20
-107.5491849999999943
11
177.167160999999993
21
-107.4763710000000003
0
LINE
8
BLACK
6
CONTINUOUS
10
177.167160999999993
20
-107.4763710000000003
11
177.3180579999999793
21
-107.4169259999999895
0
LINE
8
BLACK
6
CONTINUOUS
10
177.3180579999999793
20
-107.4169259999999895
11
177.4853420000000028
21
-107.3724649999999912
0
LINE
8
BLACK
6
CONTINUOUS
10
177.4853420000000028
20
-107.3724649999999912
11
177.66965399999998
21
-107.3446050000000014
0
LINE
8
BLACK
6
CONTINUOUS
10
177.66965399999998
20
-107.3446050000000014
11
177.8716330000000028
21
-107.3349589999999978
0
LINE
8
BLACK
6
CONTINUOUS
10
177.8716330000000028
20
-107.3349589999999978
11
178.0737409999999841
21
-107.3446050000000014
0
LINE
8
BLACK
6
CONTINUOUS
10
177.7518910000000005
20
-107.6654779999999931
11
177.5841399999999908
21
-107.693201000000002
0
LINE
8
BLACK
6
CONTINUOUS
10
177.5841399999999908
20
-107.693201000000002
11
177.4312180000000012
21
-107.7431720000000013
0
LINE
8
BLACK
6
CONTINUOUS
10
177.4312180000000012
20
-107.7431720000000013
11
177.2937900000000013
21
-107.8139479999999963
0
LINE
8
BLACK
6
CONTINUOUS
10
177.2937900000000013
20
-107.8139479999999963
11
177.172522999999984
21
-107.9040849999999949
0
LINE
8
BLACK
6
CONTINUOUS
10
177.172522999999984
20
-107.9040849999999949
11
177.0680839999999989
21
-108.0121379999999931
0
LINE
8
BLACK
6
CONTINUOUS
10
177.0680839999999989
20
-108.0121379999999931
11
176.9811389999999847
21
-108.1366620000000012
0
LINE
8
BLACK
6
CONTINUOUS
10
176.9811389999999847
20
-108.1366620000000012
11
176.9123549999999909
21
-108.2762149999999934
0
LINE
8
BLACK
6
CONTINUOUS
10
176.9123549999999909
20
-108.2762149999999934
11
176.8623989999999822
21
-108.4293499999999995
0
LINE
8
BLACK
6
CONTINUOUS
10
176.8623989999999822
20
-108.4293499999999995
11
176.8319359999999847
21
-108.5946249999999935
0
LINE
8
BLACK
6
CONTINUOUS
10
176.8319359999999847
20
-108.5946249999999935
11
176.8216329999999914
21
-108.7705939999999885
0
LINE
8
BLACK
6
CONTINUOUS
10
176.8216329999999914
20
-108.7705939999999885
11
176.8262289999999837
21
-108.888906999999989
0
LINE
8
BLACK
6
CONTINUOUS
10
176.8262289999999837
20
-108.888906999999989
11
176.8500449999999944
21
-109.0577600000000018
0
LINE
8
BLACK
6
CONTINUOUS
10
176.8500449999999944
20
-109.0577600000000018
11
176.8935779999999909
21
-109.2149840000000012
0
LINE
8
BLACK
6
CONTINUOUS
10
176.8935779999999909
20
-109.2149840000000012
11
176.9561599999999828
21
-109.3591329999999999
0
LINE
8
BLACK
6
CONTINUOUS
10
176.9561599999999828
20
-109.3591329999999999
11
177.0371260000000007
21
-109.48875799999999
0
LINE
8
BLACK
6
CONTINUOUS
10
177.0371260000000007
20
-109.48875799999999
11
177.1358069999999998
21
-109.6024129999999985
0
LINE
8
BLACK
6
CONTINUOUS
10
177.1358069999999998
20
-109.6024129999999985
11
177.2515389999999798
21
-109.698648999999989
0
LINE
8
BLACK
6
CONTINUOUS
10
177.2515389999999798
20
-109.698648999999989
11
177.3836539999999786
21
-109.7760189999999909
0
LINE
8
BLACK
6
CONTINUOUS
10
177.3836539999999786
20
-109.7760189999999909
11
177.531486000000001
21
-109.8330749999999938
0
LINE
8
BLACK
6
CONTINUOUS
10
177.531486000000001
20
-109.8330749999999938
11
177.6943679999999972
21
-109.8683709999999962
0
LINE
8
BLACK
6
CONTINUOUS
10
177.6943679999999972
20
-109.8683709999999962
11
177.8716330000000028
21
-109.8804579999999902
0
LINE
8
BLACK
6
CONTINUOUS
10
177.8716330000000028
20
-109.8804579999999902
11
177.9915049999999894
21
-109.8750500000000017
0
LINE
8
BLACK
6
CONTINUOUS
10
177.9915049999999894
20
-109.8750500000000017
11
178.1594189999999855
21
-109.8473299999999995
0
LINE
8
BLACK
6
CONTINUOUS
10
178.1594189999999855
20
-109.8473299999999995
11
178.3124729999999829
21
-109.7973659999999967
0
LINE
8
BLACK
6
CONTINUOUS
10
178.3124729999999829
20
-109.7973659999999967
11
178.4500029999999811
21
-109.7266070000000013
0
LINE
8
BLACK
6
CONTINUOUS
10
178.4500029999999811
20
-109.7266070000000013
11
178.5713460000000055
21
-109.6364979999999889
0
LINE
8
BLACK
6
CONTINUOUS
10
178.5713460000000055
20
-109.6364979999999889
11
178.6758399999999938
21
-109.5284889999999933
0
LINE
8
BLACK
6
CONTINUOUS
10
178.6758399999999938
20
-109.5284889999999933
11
178.7628219999999999
21
-109.4040269999999992
0
LINE
8
BLACK
6
CONTINUOUS
10
178.7628219999999999
20
-109.4040269999999992
11
178.8316279999999949
21
-109.2645579999999939
0
LINE
8
BLACK
6
CONTINUOUS
10
178.8316279999999949
20
-109.2645579999999939
11
178.8815960000000018
21
-109.1115319999999969
0
LINE
8
BLACK
6
CONTINUOUS
10
178.8815960000000018
20
-109.1115319999999969
11
178.9120629999999892
21
-108.946393999999998
0
LINE
8
BLACK
6
CONTINUOUS
10
178.9120629999999892
20
-108.946393999999998
11
178.9223659999999825
21
-108.7705939999999885
0
LINE
8
BLACK
6
CONTINUOUS
10
178.9223659999999825
20
-108.7705939999999885
11
178.9177709999999877
21
-108.6521639999999991
0
LINE
8
BLACK
6
CONTINUOUS
10
178.9177709999999877
20
-108.6521639999999991
11
178.8939509999999871
21
-108.4831640000000021
0
LINE
8
BLACK
6
CONTINUOUS
10
178.8939509999999871
20
-108.4831640000000021
11
178.8504099999999823
21
-108.3258219999999881
0
LINE
8
BLACK
6
CONTINUOUS
10
178.8504099999999823
20
-108.3258219999999881
11
178.7878089999999816
21
-108.1815809999999942
0
LINE
8
BLACK
6
CONTINUOUS
10
178.7878089999999816
20
-108.1815809999999942
11
178.7068119999999851
21
-108.0518869999999936
0
LINE
8
BLACK
6
CONTINUOUS
10
178.7068119999999851
20
-108.0518869999999936
11
178.608081999999996
21
-107.9381829999999951
0
LINE
8
BLACK
6
CONTINUOUS
10
178.608081999999996
20
-107.9381829999999951
11
178.4922819999999888
21
-107.8419139999999885
0
LINE
8
BLACK
6
CONTINUOUS
10
178.4922819999999888
20
-107.8419139999999885
11
178.3600739999999973
21
-107.7645239999999944
0
LINE
8
BLACK
6
CONTINUOUS
10
178.3600739999999973
20
-107.7645239999999944
11
178.2121209999999962
21
-107.7074569999999909
0
LINE
8
BLACK
6
CONTINUOUS
10
178.2121209999999962
20
-107.7074569999999909
11
178.0490859999999884
21
-107.672157999999996
0
LINE
8
BLACK
6
CONTINUOUS
10
178.0490859999999884
20
-107.672157999999996
11
177.8716330000000028
21
-107.6600699999999904
0
LINE
8
BLACK
6
CONTINUOUS
10
177.8716330000000028
20
-107.6600699999999904
11
177.7518910000000005
21
-107.6654779999999931
0
LINE
8
BLACK
6
CONTINUOUS
10
137.9892189999999914
20
-107.7444809999999933
11
136.1998959999999954
21
-107.7444809999999933
0
LINE
8
BLACK
6
CONTINUOUS
10
136.1998959999999954
20
-107.7444809999999933
11
136.1998959999999954
21
-108.5720979999999969
0
LINE
8
BLACK
6
CONTINUOUS
10
136.1998959999999954
20
-108.5720979999999969
11
137.8499999999999943
21
-108.5720979999999969
0
LINE
8
BLACK
6
CONTINUOUS
10
137.8499999999999943
20
-108.5720979999999969
11
137.8499999999999943
21
-108.8965499999999906
0
LINE
8
BLACK
6
CONTINUOUS
10
137.8499999999999943
20
-108.8965499999999906
11
136.1998959999999954
21
-108.8965499999999906
0
LINE
8
BLACK
6
CONTINUOUS
10
136.1998959999999954
20
-108.8965499999999906
11
136.1998959999999954
21
-109.7960470000000015
0
LINE
8
BLACK
6
CONTINUOUS
10
136.1998959999999954
20
-109.7960470000000015
11
138.0185280000000034
21
-109.7960470000000015
0
LINE
8
BLACK
6
CONTINUOUS
10
138.0185280000000034
20
-109.7960470000000015
11
138.0185280000000034
21
-110.1204999999999927
0
LINE
8
BLACK
6
CONTINUOUS
10
138.0185280000000034
20
-110.1204999999999927
11
135.7917659999999955
21
-110.1204999999999927
0
LINE
8
BLACK
6
CONTINUOUS
10
135.7917659999999955
20
-110.1204999999999927
11
135.7917659999999955
21
-107.419368999999989
0
LINE
8
BLACK
6
CONTINUOUS
10
135.7917659999999955
20
-107.419368999999989
11
137.9892189999999914
21
-107.419368999999989
0
LINE
8
BLACK
6
CONTINUOUS
10
137.9892189999999914
20
-107.419368999999989
11
137.9892189999999914
21
-107.7444809999999933
0
LINE
8
BLACK
6
CONTINUOUS
10
143.246545999999995
20
-109.7010859999999894
11
143.2546059999999954
21
-109.7010859999999894
0
LINE
8
BLACK
6
CONTINUOUS
10
143.2546059999999954
20
-109.7010859999999894
11
144.111898999999994
21
-107.419368999999989
0
LINE
8
BLACK
6
CONTINUOUS
10
144.111898999999994
20
-107.419368999999989
11
144.6914869999999951
21
-107.419368999999989
0
LINE
8
BLACK
6
CONTINUOUS
10
144.6914869999999951
20
-107.419368999999989
11
144.6914869999999951
21
-110.1204999999999927
0
LINE
8
BLACK
6
CONTINUOUS
10
144.6914869999999951
20
-110.1204999999999927
11
144.2965460000000064
21
-110.1204999999999927
0
LINE
8
BLACK
6
CONTINUOUS
10
144.2965460000000064
20
-110.1204999999999927
11
144.2965460000000064
21
-108.5259360000000015
0
LINE
8
BLACK
6
CONTINUOUS
10
144.2965460000000064
20
-108.5259360000000015
11
144.2975339999999846
21
-108.4403639999999882
0
LINE
8
BLACK
6
CONTINUOUS
10
144.2975339999999846
20
-108.4403639999999882
11
144.299824000000001
21
-108.3014459999999985
0
LINE
8
BLACK
6
CONTINUOUS
10
144.299824000000001
20
-108.3014459999999985
11
144.3020559999999932
21
-108.1567439999999891
0
LINE
8
BLACK
6
CONTINUOUS
10
144.3020559999999932
20
-108.1567439999999891
11
144.303861999999981
21
-108.0031379999999928
0
LINE
8
BLACK
6
CONTINUOUS
10
144.303861999999981
20
-108.0031379999999928
11
144.3046060000000068
21
-107.8546099999999939
0
LINE
8
BLACK
6
CONTINUOUS
10
144.3046060000000068
20
-107.8546099999999939
11
144.2965460000000064
21
-107.8546099999999939
0
LINE
8
BLACK
6
CONTINUOUS
10
144.2965460000000064
20
-107.8546099999999939
11
143.4480470000000025
21
-110.1204999999999927
0
LINE
8
BLACK
6
CONTINUOUS
10
143.4480470000000025
20
-110.1204999999999927
11
143.045045999999985
21
-110.1204999999999927
0
LINE
8
BLACK
6
CONTINUOUS
10
143.045045999999985
20
-110.1204999999999927
11
142.1965459999999837
21
-107.8579069999999973
0
LINE
8
BLACK
6
CONTINUOUS
10
142.1965459999999837
20
-107.8579069999999973
11
142.1877529999999865
21
-107.8579069999999973
0
LINE
8
BLACK
6
CONTINUOUS
10
142.1877529999999865
20
-107.8579069999999973
11
142.1879710000000046
21
-107.9298199999999923
0
LINE
8
BLACK
6
CONTINUOUS
10
142.1879710000000046
20
-107.9298199999999923
11
142.1894489999999962
21
-108.081403999999992
0
LINE
8
BLACK
6
CONTINUOUS
10
142.1894489999999962
20
-108.081403999999992
11
142.1917379999999866
21
-108.2315759999999898
0
LINE
8
BLACK
6
CONTINUOUS
10
142.1917379999999866
20
-108.2315759999999898
11
142.1945069999999873
21
-108.3861659999999887
0
LINE
8
BLACK
6
CONTINUOUS
10
142.1945069999999873
20
-108.3861659999999887
11
142.1965459999999837
21
-108.5259360000000015
0
LINE
8
BLACK
6
CONTINUOUS
10
142.1965459999999837
20
-108.5259360000000015
11
142.1965459999999837
21
-110.1204999999999927
0
LINE
8
BLACK
6
CONTINUOUS
10
142.1965459999999837
20
-110.1204999999999927
11
141.801604999999995
21
-110.1204999999999927
0
LINE
8
BLACK
6
CONTINUOUS
10
141.801604999999995
20
-110.1204999999999927
11
141.801604999999995
21
-107.419368999999989
0
LINE
8
BLACK
6
CONTINUOUS
10
141.801604999999995
20
-107.419368999999989
11
142.3855900000000076
21
-107.419368999999989
0
LINE
8
BLACK
6
CONTINUOUS
10
142.3855900000000076
20
-107.419368999999989
11
143.246545999999995
21
-109.7010859999999894
0
LINE
8
BLACK
6
CONTINUOUS
10
147.5498609999999928
20
-107.7444809999999933
11
145.7605379999999968
21
-107.7444809999999933
0
LINE
8
BLACK
6
CONTINUOUS
10
145.7605379999999968
20
-107.7444809999999933
11
145.7605379999999968
21
-108.5720979999999969
0
LINE
8
BLACK
6
CONTINUOUS
10
145.7605379999999968
20
-108.5720979999999969
11
147.4106419999999957
21
-108.5720979999999969
0
LINE
8
BLACK
6
CONTINUOUS
10
147.4106419999999957
20
-108.5720979999999969
11
147.4106419999999957
21
-108.8965499999999906
0
LINE
8
BLACK
6
CONTINUOUS
10
147.4106419999999957
20
-108.8965499999999906
11
145.7605379999999968
21
-108.8965499999999906
0
LINE
8
BLACK
6
CONTINUOUS
10
145.7605379999999968
20
-108.8965499999999906
11
145.7605379999999968
21
-109.7960470000000015
0
LINE
8
BLACK
6
CONTINUOUS
10
145.7605379999999968
20
-109.7960470000000015
11
147.5791700000000048
21
-109.7960470000000015
0
LINE
8
BLACK
6
CONTINUOUS
10
147.5791700000000048
20
-109.7960470000000015
11
147.5791700000000048
21
-110.1204999999999927
0
LINE
8
BLACK
6
CONTINUOUS
10
147.5791700000000048
20
-110.1204999999999927
11
145.3524079999999969
21
-110.1204999999999927
0
LINE
8
BLACK
6
CONTINUOUS
10
145.3524079999999969
20
-110.1204999999999927
11
145.3524079999999969
21
-107.419368999999989
0
LINE
8
BLACK
6
CONTINUOUS
10
145.3524079999999969
20
-107.419368999999989
11
147.5498609999999928
21
-107.419368999999989
0
LINE
8
BLACK
6
CONTINUOUS
10
147.5498609999999928
20
-107.419368999999989
11
147.5498609999999928
21
-107.7444809999999933
0
LINE
8
BLACK
6
CONTINUOUS
10
150.1004889999999818
20
-109.5988699999999909
11
150.109281999999979
21
-109.5988699999999909
0
LINE
8
BLACK
6
CONTINUOUS
10
150.109281999999979
20
-109.5988699999999909
11
150.109281999999979
21
-107.419368999999989
0
LINE
8
BLACK
6
CONTINUOUS
10
150.109281999999979
20
-107.419368999999989
11
150.5042219999999986
21
-107.419368999999989
0
LINE
8
BLACK
6
CONTINUOUS
10
150.5042219999999986
20
-107.419368999999989
11
150.5042219999999986
21
-110.1204999999999927
0
LINE
8
BLACK
6
CONTINUOUS
10
150.5042219999999986
20
-110.1204999999999927
11
150.0462670000000003
21
-110.1204999999999927
0
LINE
8
BLACK
6
CONTINUOUS
10
150.0462670000000003
20
-110.1204999999999927
11
148.5126659999999958
21
-107.9416579999999897
0
LINE
8
BLACK
6
CONTINUOUS
10
148.5126659999999958
20
-107.9416579999999897
11
148.5046059999999954
21
-107.9416579999999897
0
LINE
8
BLACK
6
CONTINUOUS
10
148.5046059999999954
20
-107.9416579999999897
11
148.5046059999999954
21
-110.1204999999999927
0
LINE
8
BLACK
6
CONTINUOUS
10
148.5046059999999954
20
-110.1204999999999927
11
148.1096650000000068
21
-110.1204999999999927
0
LINE
8
BLACK
6
CONTINUOUS
10
148.1096650000000068
20
-110.1204999999999927
11
148.1096650000000068
21
-107.419368999999989
0
LINE
8
BLACK
6
CONTINUOUS
10
148.1096650000000068
20
-107.419368999999989
11
148.5925340000000006
21
-107.419368999999989
0
LINE
8
BLACK
6
CONTINUOUS
10
148.5925340000000006
20
-107.419368999999989
11
150.1004889999999818
21
-109.5988699999999909
0
LINE
8
BLACK
6
CONTINUOUS
10
153.3288909999999987
20
-107.7444809999999933
11
152.3081999999999994
21
-107.7444809999999933
0
LINE
8
BLACK
6
CONTINUOUS
10
152.3081999999999994
20
-107.7444809999999933
11
152.3081999999999994
21
-110.1204999999999927
0
LINE
8
BLACK
6
CONTINUOUS
10
152.3081999999999994
20
-110.1204999999999927
11
151.9008029999999962
21
-110.1204999999999927
0
LINE
8
BLACK
6
CONTINUOUS
10
151.9008029999999962
20
-110.1204999999999927
11
151.9008029999999962
21
-107.7444809999999933
0
LINE
8
BLACK
6
CONTINUOUS
10
151.9008029999999962
20
-107.7444809999999933
11
150.8801119999999969
21
-107.7444809999999933
0
LINE
8
BLACK
6
CONTINUOUS
10
150.8801119999999969
20
-107.7444809999999933
11
150.8801119999999969
21
-107.419368999999989
0
LINE
8
BLACK
6
CONTINUOUS
10
150.8801119999999969
20
-107.419368999999989
11
153.3288909999999987
21
-107.419368999999989
0
LINE
8
BLACK
6
CONTINUOUS
10
153.3288909999999987
20
-107.419368999999989
11
153.3288909999999987
21
-107.7444809999999933
0
LINE
8
BLACK
6
CONTINUOUS
10
155.9439989999999909
20
-107.7444809999999933
11
154.1546759999999949
21
-107.7444809999999933
0
LINE
8
BLACK
6
CONTINUOUS
10
154.1546759999999949
20
-107.7444809999999933
11
154.1546759999999949
21
-108.5720979999999969
0
LINE
8
BLACK
6
CONTINUOUS
10
154.1546759999999949
20
-108.5720979999999969
11
155.8047809999999913
21
-108.5720979999999969
0
LINE
8
BLACK
6
CONTINUOUS
10
155.8047809999999913
20
-108.5720979999999969
11
155.8047809999999913
21
-108.8965499999999906
0
LINE
8
BLACK
6
CONTINUOUS
10
155.8047809999999913
20
-108.8965499999999906
11
154.1546759999999949
21
-108.8965499999999906
0
LINE
8
BLACK
6
CONTINUOUS
10
154.1546759999999949
20
-108.8965499999999906
11
154.1546759999999949
21
-109.7960470000000015
0
LINE
8
BLACK
6
CONTINUOUS
10
154.1546759999999949
20
-109.7960470000000015
11
155.9733080000000029
21
-109.7960470000000015
0
LINE
8
BLACK
6
CONTINUOUS
10
155.9733080000000029
20
-109.7960470000000015
11
155.9733080000000029
21
-110.1204999999999927
0
LINE
8
BLACK
6
CONTINUOUS
10
155.9733080000000029
20
-110.1204999999999927
11
153.746545999999995
21
-110.1204999999999927
0
LINE
8
BLACK
6
CONTINUOUS
10
153.746545999999995
20
-110.1204999999999927
11
153.746545999999995
21
-107.419368999999989
0
LINE
8
BLACK
6
CONTINUOUS
10
153.746545999999995
20
-107.419368999999989
11
155.9439989999999909
21
-107.419368999999989
0
LINE
8
BLACK
6
CONTINUOUS
10
155.9439989999999909
20
-107.419368999999989
11
155.9439989999999909
21
-107.7444809999999933
0
LINE
8
BLACK
6
CONTINUOUS
10
157.8909319999999923
20
-107.425573
11
158.0925880000000063
21
-107.4574719999999957
0
LINE
8
BLACK
6
CONTINUOUS
10
158.0925880000000063
20
-107.4574719999999957
11
158.2768010000000061
21
-107.5151959999999889
0
LINE
8
BLACK
6
CONTINUOUS
10
158.2768010000000061
20
-107.5151959999999889
11
158.4426780000000008
21
-107.5972989999999925
0
LINE
8
BLACK
6
CONTINUOUS
10
158.4426780000000008
20
-107.5972989999999925
11
158.5893299999999897
21
-107.7023319999999984
0
LINE
8
BLACK
6
CONTINUOUS
10
158.5893299999999897
20
-107.7023319999999984
11
158.7158660000000054
21
-107.8288469999999961
0
LINE
8
BLACK
6
CONTINUOUS
10
158.7158660000000054
20
-107.8288469999999961
11
158.8213930000000005
21
-107.9753979999999984
0
LINE
8
BLACK
6
CONTINUOUS
10
158.8213930000000005
20
-107.9753979999999984
11
158.9050199999999791
21
-108.1405369999999948
0
LINE
8
BLACK
6
CONTINUOUS
10
158.9050199999999791
20
-108.1405369999999948
11
158.9658579999999972
21
-108.3228159999999889
0
LINE
8
BLACK
6
CONTINUOUS
10
158.9658579999999972
20
-108.3228159999999889
11
158.9933149999999955
21
-108.4531429999999972
0
LINE
8
BLACK
6
CONTINUOUS
10
158.9933149999999955
20
-108.4531429999999972
11
159.0099819999999795
21
-108.5900159999999914
0
LINE
8
BLACK
6
CONTINUOUS
10
159.0099819999999795
20
-108.5900159999999914
11
159.0155969999999854
21
-108.7330049999999915
0
LINE
8
BLACK
6
CONTINUOUS
10
159.0155969999999854
20
-108.7330049999999915
11
159.0120550000000037
21
-108.8482419999999991
0
LINE
8
BLACK
6
CONTINUOUS
10
159.0120550000000037
20
-108.8482419999999991
11
158.9925369999999987
21
-109.0258429999999947
0
LINE
8
BLACK
6
CONTINUOUS
10
158.9925369999999987
20
-109.0258429999999947
11
158.9541969999999935
21
-109.2049169999999947
0
LINE
8
BLACK
6
CONTINUOUS
10
158.9541969999999935
20
-109.2049169999999947
11
158.8950399999999945
21
-109.3807139999999976
0
LINE
8
BLACK
6
CONTINUOUS
10
158.8950399999999945
20
-109.3807139999999976
11
158.8130689999999845
21
-109.5484819999999928
0
LINE
8
BLACK
6
CONTINUOUS
10
158.8130689999999845
20
-109.5484819999999928
11
158.7062889999999982
21
-109.7034729999999882
0
LINE
8
BLACK
6
CONTINUOUS
10
158.7062889999999982
20
-109.7034729999999882
11
158.5727039999999874
21
-109.8409350000000018
0
LINE
8
BLACK
6
CONTINUOUS
10
158.5727039999999874
20
-109.8409350000000018
11
158.4103179999999895
21
-109.9561190000000011
0
LINE
8
BLACK
6
CONTINUOUS
10
158.4103179999999895
20
-109.9561190000000011
11
158.2171339999999873
21
-110.044274999999999
0
LINE
8
BLACK
6
CONTINUOUS
10
158.2171339999999873
20
-110.044274999999999
11
158.0702499999999873
21
-110.0856840000000005
0
LINE
8
BLACK
6
CONTINUOUS
10
158.0702499999999873
20
-110.0856840000000005
11
157.9081989999999962
21
-110.1115609999999947
0
LINE
8
BLACK
6
CONTINUOUS
10
157.9081989999999962
20
-110.1115609999999947
11
157.7303909999999973
21
-110.1204999999999927
0
LINE
8
BLACK
6
CONTINUOUS
10
157.7303909999999973
20
-110.1204999999999927
11
156.5250529999999856
21
-110.1204999999999927
0
LINE
8
BLACK
6
CONTINUOUS
10
156.5250529999999856
20
-110.1204999999999927
11
156.5250529999999856
21
-109.8072579999999903
0
LINE
8
BLACK
6
CONTINUOUS
10
156.5250529999999856
20
-109.8072579999999903
11
156.5250529999999856
21
-107.419368999999989
0
LINE
8
BLACK
6
CONTINUOUS
10
156.5250529999999856
20
-107.419368999999989
11
157.7472439999999949
21
-107.419368999999989
0
LINE
8
BLACK
6
CONTINUOUS
10
157.7472439999999949
20
-107.419368999999989
11
157.8909319999999923
21
-107.425573
0
LINE
8
BLACK
6
CONTINUOUS
10
156.9324499999999887
20
-109.8072579999999903
11
157.7223309999999969
21
-109.8072579999999903
0
LINE
8
BLACK
6
CONTINUOUS
10
157.7223309999999969
20
-109.8072579999999903
11
157.7713819999999885
21
-109.8061699999999945
0
LINE
8
BLACK
6
CONTINUOUS
10
157.7713819999999885
20
-109.8061699999999945
11
157.9561809999999866
21
-109.7802609999999959
0
LINE
8
BLACK
6
CONTINUOUS
10
157.9561809999999866
20
-109.7802609999999959
11
158.1213290000000029
21
-109.7204199999999901
0
LINE
8
BLACK
6
CONTINUOUS
10
158.1213290000000029
20
-109.7204199999999901
11
158.2649549999999863
21
-109.6273959999999903
0
LINE
8
BLACK
6
CONTINUOUS
10
158.2649549999999863
20
-109.6273959999999903
11
158.3851860000000045
21
-109.501940999999988
0
LINE
8
BLACK
6
CONTINUOUS
10
158.3851860000000045
20
-109.501940999999988
11
158.458880999999991
21
-109.3870159999999885
0
LINE
8
BLACK
6
CONTINUOUS
10
158.458880999999991
20
-109.3870159999999885
11
158.5175739999999962
21
-109.2545859999999891
0
LINE
8
BLACK
6
CONTINUOUS
10
158.5175739999999962
20
-109.2545859999999891
11
158.5604749999999967
21
-109.104967000000002
0
LINE
8
BLACK
6
CONTINUOUS
10
158.5604749999999967
20
-109.104967000000002
11
158.5867949999999951
21
-108.9384749999999968
0
LINE
8
BLACK
6
CONTINUOUS
10
158.5867949999999951
20
-108.9384749999999968
11
158.5957439999999963
21
-108.7554259999999999
0
LINE
8
BLACK
6
CONTINUOUS
10
158.5957439999999963
20
-108.7554259999999999
11
158.5947259999999801
21
-108.6926749999999942
0
LINE
8
BLACK
6
CONTINUOUS
10
158.5947259999999801
20
-108.6926749999999942
11
158.5796739999999829
21
-108.5163000000000011
0
LINE
8
BLACK
6
CONTINUOUS
10
158.5796739999999829
20
-108.5163000000000011
11
158.5471699999999942
21
-108.3577609999999964
0
LINE
8
BLACK
6
CONTINUOUS
10
158.5471699999999942
20
-108.3577609999999964
11
158.4979229999999859
21
-108.2170799999999957
0
LINE
8
BLACK
6
CONTINUOUS
10
158.4979229999999859
20
-108.2170799999999957
11
158.4326369999999997
21
-108.0942809999999952
0
LINE
8
BLACK
6
CONTINUOUS
10
158.4326369999999997
20
-108.0942809999999952
11
158.3218619999999817
21
-107.9584040000000016
0
LINE
8
BLACK
6
CONTINUOUS
10
158.3218619999999817
20
-107.9584040000000016
11
158.1855060000000037
21
-107.8544100000000014
0
LINE
8
BLACK
6
CONTINUOUS
10
158.1855060000000037
20
-107.8544100000000014
11
158.0252419999999915
21
-107.782353999999998
0
LINE
8
BLACK
6
CONTINUOUS
10
158.0252419999999915
20
-107.782353999999998
11
157.8427449999999794
21
-107.742289999999997
0
LINE
8
BLACK
6
CONTINUOUS
10
157.8427449999999794
20
-107.742289999999997
11
157.6922889999999882
21
-107.7332699999999903
0
LINE
8
BLACK
6
CONTINUOUS
10
157.6922889999999882
20
-107.7332699999999903
11
156.9324499999999887
21
-107.7332699999999903
0
LINE
8
BLACK
6
CONTINUOUS
10
156.9324499999999887
20
-107.7332699999999903
11
156.9324499999999887
21
-109.8072579999999903
0
LINE
8
BLACK
6
CONTINUOUS
10
164.5717019999999877
20
-107.4212559999999996
11
164.7545159999999953
21
-107.4374830000000003
0
LINE
8
BLACK
6
CONTINUOUS
10
164.7545159999999953
20
-107.4374830000000003
11
164.9285659999999893
21
-107.4728329999999943
0
LINE
8
BLACK
6
CONTINUOUS
10
164.9285659999999893
20
-107.4728329999999943
11
165.0880579999999895
21
-107.5303279999999972
0
LINE
8
BLACK
6
CONTINUOUS
10
165.0880579999999895
20
-107.5303279999999972
11
165.2271949999999947
21
-107.6129889999999989
0
LINE
8
BLACK
6
CONTINUOUS
10
165.2271949999999947
20
-107.6129889999999989
11
165.3401819999999987
21
-107.723836999999989
0
LINE
8
BLACK
6
CONTINUOUS
10
165.3401819999999987
20
-107.723836999999989
11
165.4212220000000002
21
-107.8658959999999922
0
LINE
8
BLACK
6
CONTINUOUS
10
165.4212220000000002
20
-107.8658959999999922
11
165.4575499999999977
21
-107.9947379999999981
0
LINE
8
BLACK
6
CONTINUOUS
10
165.4575499999999977
20
-107.9947379999999981
11
165.4702029999999979
21
-108.1441109999999952
0
LINE
8
BLACK
6
CONTINUOUS
10
165.4702029999999979
20
-108.1441109999999952
11
165.4676049999999918
21
-108.2153119999999973
0
LINE
8
BLACK
6
CONTINUOUS
10
165.4676049999999918
20
-108.2153119999999973
11
165.4403329999999812
21
-108.3697820000000007
0
LINE
8
BLACK
6
CONTINUOUS
10
165.4403329999999812
20
-108.3697820000000007
11
165.3881700000000023
21
-108.4943629999999928
0
LINE
8
BLACK
6
CONTINUOUS
10
165.3881700000000023
20
-108.4943629999999928
11
165.3011479999999835
21
-108.6109739999999988
0
LINE
8
BLACK
6
CONTINUOUS
10
165.3011479999999835
20
-108.6109739999999988
11
165.1790189999999825
21
-108.7118629999999939
0
LINE
8
BLACK
6
CONTINUOUS
10
165.1790189999999825
20
-108.7118629999999939
11
165.0503489999999829
21
-108.7870799999999889
0
LINE
8
BLACK
6
CONTINUOUS
10
165.0503489999999829
20
-108.7870799999999889
11
165.1146179999999788
21
-108.8120689999999939
0
LINE
8
BLACK
6
CONTINUOUS
10
165.1146179999999788
20
-108.8120689999999939
11
165.2497919999999851
21
-108.8880359999999996
0
LINE
8
BLACK
6
CONTINUOUS
10
165.2497919999999851
20
-108.8880359999999996
11
165.3454490000000021
21
-109.0052389999999889
0
LINE
8
BLACK
6
CONTINUOUS
10
165.3454490000000021
20
-109.0052389999999889
11
165.3928999999999974
21
-109.1419039999999967
0
LINE
8
BLACK
6
CONTINUOUS
10
165.3928999999999974
20
-109.1419039999999967
11
165.4115850000000023
21
-109.297499000000002
0
LINE
8
BLACK
6
CONTINUOUS
10
165.4115850000000023
20
-109.297499000000002
11
165.4364970000000028
21
-109.7881339999999994
0
LINE
8
BLACK
6
CONTINUOUS
10
165.4364970000000028
20
-109.7881339999999994
11
165.4391059999999811
21
-109.8405439999999942
0
LINE
8
BLACK
6
CONTINUOUS
10
165.4391059999999811
20
-109.8405439999999942
11
165.4754319999999836
21
-109.9716509999999943
0
LINE
8
BLACK
6
CONTINUOUS
10
165.4754319999999836
20
-109.9716509999999943
11
165.5874389999999892
21
-110.0604889999999898
0
LINE
8
BLACK
6
CONTINUOUS
10
165.5874389999999892
20
-110.0604889999999898
11
165.5874389999999892
21
-110.1204999999999927
0
LINE
8
BLACK
6
CONTINUOUS
10
165.5874389999999892
20
-110.1204999999999927
11
165.0877189999999928
21
-110.1204999999999927
0
LINE
8
BLACK
6
CONTINUOUS
10
165.0877189999999928
20
-110.1204999999999927
11
165.0634939999999915
21
-110.0267489999999952
0
LINE
8
BLACK
6
CONTINUOUS
10
165.0634939999999915
20
-110.0267489999999952
11
165.0422629999999913
21
-109.884687999999997
0
LINE
8
BLACK
6
CONTINUOUS
10
165.0422629999999913
20
-109.884687999999997
11
165.0283259999999927
21
-109.7310930000000013
0
LINE
8
BLACK
6
CONTINUOUS
10
165.0283259999999927
20
-109.7310930000000013
11
165.0203499999999792
21
-109.587900999999988
0
LINE
8
BLACK
6
CONTINUOUS
10
165.0203499999999792
20
-109.587900999999988
11
165.0166439999999852
21
-109.4406010000000009
0
LINE
8
BLACK
6
CONTINUOUS
10
165.0166439999999852
20
-109.4406010000000009
11
165.014993000000004
21
-109.3773179999999883
0
LINE
8
BLACK
6
CONTINUOUS
10
165.014993000000004
20
-109.3773179999999883
11
164.9900480000000016
21
-109.2300120000000021
0
LINE
8
BLACK
6
CONTINUOUS
10
164.9900480000000016
20
-109.2300120000000021
11
164.9159410000000037
21
-109.0984559999999988
0
LINE
8
BLACK
6
CONTINUOUS
10
164.9159410000000037
20
-109.0984559999999988
11
164.7949089999999899
21
-109.0125149999999934
0
LINE
8
BLACK
6
CONTINUOUS
10
164.7949089999999899
20
-109.0125149999999934
11
164.6418290000000013
21
-108.968874999999997
0
LINE
8
BLACK
6
CONTINUOUS
10
164.6418290000000013
20
-108.968874999999997
11
164.4788209999999822
21
-108.9572199999999924
0
LINE
8
BLACK
6
CONTINUOUS
10
164.4788209999999822
20
-108.9572199999999924
11
163.4918360000000064
21
-108.9572199999999924
0
LINE
8
BLACK
6
CONTINUOUS
10
163.4918360000000064
20
-108.9572199999999924
11
163.4918360000000064
21
-110.1204999999999927
0
LINE
8
BLACK
6
CONTINUOUS
10
163.4918360000000064
20
-110.1204999999999927
11
163.0844390000000033
21
-110.1204999999999927
0
LINE
8
BLACK
6
CONTINUOUS
10
163.0844390000000033
20
-110.1204999999999927
11
163.0844390000000033
21
-108.6433189999999911
0
LINE
8
BLACK
6
CONTINUOUS
10
163.0844390000000033
20
-108.6433189999999911
11
163.0844390000000033
21
-107.419368999999989
0
LINE
8
BLACK
6
CONTINUOUS
10
163.0844390000000033
20
-107.419368999999989
11
164.4788209999999822
21
-107.419368999999989
0
LINE
8
BLACK
6
CONTINUOUS
10
164.4788209999999822
20
-107.419368999999989
11
164.5717019999999877
21
-107.4212559999999996
0
LINE
8
BLACK
6
CONTINUOUS
10
163.4918360000000064
20
-108.6433189999999911
11
164.4370559999999841
21
-108.6433189999999911
0
LINE
8
BLACK
6
CONTINUOUS
10
164.4370559999999841
20
-108.6433189999999911
11
164.5768149999999821
21
-108.6374390000000005
0
LINE
8
BLACK
6
CONTINUOUS
10
164.5768149999999821
20
-108.6374390000000005
11
164.7370870000000025
21
-108.6090469999999897
0
LINE
8
BLACK
6
CONTINUOUS
10
164.7370870000000025
20
-108.6090469999999897
11
164.8768469999999979
21
-108.5475739999999973
0
LINE
8
BLACK
6
CONTINUOUS
10
164.8768469999999979
20
-108.5475739999999973
11
164.9829649999999788
21
-108.4426389999999998
0
LINE
8
BLACK
6
CONTINUOUS
10
164.9829649999999788
20
-108.4426389999999998
11
165.0362289999999916
21
-108.3145049999999969
0
LINE
8
BLACK
6
CONTINUOUS
10
165.0362289999999916
20
-108.3145049999999969
11
165.0503489999999829
21
-108.1810399999999959
0
LINE
8
BLACK
6
CONTINUOUS
10
165.0503489999999829
20
-108.1810399999999959
11
165.0272249999999872
21
-108.0134589999999974
0
LINE
8
BLACK
6
CONTINUOUS
10
165.0272249999999872
20
-108.0134589999999974
11
164.9490619999999979
21
-107.8747569999999882
0
LINE
8
BLACK
6
CONTINUOUS
10
164.9490619999999979
20
-107.8747569999999882
11
164.8123510000000067
21
-107.7816289999999952
0
LINE
8
BLACK
6
CONTINUOUS
10
164.8123510000000067
20
-107.7816289999999952
11
164.6553269999999998
21
-107.7417289999999923
0
LINE
8
BLACK
6
CONTINUOUS
10
164.6553269999999998
20
-107.7417289999999923
11
164.5081299999999942
21
-107.7332699999999903
0
LINE
8
BLACK
6
CONTINUOUS
10
164.5081299999999942
20
-107.7332699999999903
11
163.4918360000000064
21
-107.7332699999999903
0
LINE
8
BLACK
6
CONTINUOUS
10
163.4918360000000064
20
-107.7332699999999903
11
163.4918360000000064
21
-108.6433189999999911
0
LINE
8
BLACK
6
CONTINUOUS
10
168.4927079999999933
20
-110.1204999999999927
11
168.047208999999981
21
-110.1204999999999927
0
LINE
8
BLACK
6
CONTINUOUS
10
168.047208999999981
20
-110.1204999999999927
11
167.7489889999999946
21
-109.318601000000001
0
LINE
8
BLACK
6
CONTINUOUS
10
167.7489889999999946
20
-109.318601000000001
11
166.5392539999999997
21
-109.318601000000001
0
LINE
8
BLACK
6
CONTINUOUS
10
166.5392539999999997
20
-109.318601000000001
11
166.2241799999999898
21
-110.1204999999999927
0
LINE
8
BLACK
6
CONTINUOUS
10
166.2241799999999898
20
-110.1204999999999927
11
165.8043270000000007
21
-110.1204999999999927
0
LINE
8
BLACK
6
CONTINUOUS
10
165.8043270000000007
20
-110.1204999999999927
11
166.2730719999999849
21
-108.9941489999999931
0
LINE
8
BLACK
6
CONTINUOUS
10
166.2730719999999849
20
-108.9941489999999931
11
166.9385910000000024
21
-107.394968999999989
0
LINE
8
BLACK
6
CONTINUOUS
10
166.9385910000000024
20
-107.394968999999989
11
167.4002099999999871
21
-107.394968999999989
0
LINE
8
BLACK
6
CONTINUOUS
10
167.4002099999999871
20
-107.394968999999989
11
168.4927079999999933
21
-110.1204999999999927
0
LINE
8
BLACK
6
CONTINUOUS
10
166.6652829999999881
20
-108.9941489999999931
11
167.6017099999999971
21
-108.9941489999999931
0
LINE
8
BLACK
6
CONTINUOUS
10
167.6017099999999971
20
-108.9941489999999931
11
167.1569439999999815
21
-107.7992149999999896
0
LINE
8
BLACK
6
CONTINUOUS
10
167.1569439999999815
20
-107.7992149999999896
11
167.1481509999999844
21
-107.7992149999999896
0
LINE
8
BLACK
6
CONTINUOUS
10
167.1481509999999844
20
-107.7992149999999896
11
166.6652829999999881
21
-108.9941489999999931
0
LINE
8
BLACK
6
CONTINUOUS
10
170.2959529999999972
20
-109.7010859999999894
11
170.3040129999999976
21
-109.7010859999999894
0
LINE
8
BLACK
6
CONTINUOUS
10
170.3040129999999976
20
-109.7010859999999894
11
171.1613049999999987
21
-107.419368999999989
0
LINE
8
BLACK
6
CONTINUOUS
10
171.1613049999999987
20
-107.419368999999989
11
171.7408939999999973
21
-107.419368999999989
0
LINE
8
BLACK
6
CONTINUOUS
10
171.7408939999999973
20
-107.419368999999989
11
171.7408939999999973
21
-110.1204999999999927
0
LINE
8
BLACK
6
CONTINUOUS
10
171.7408939999999973
20
-110.1204999999999927
11
171.3459529999999802
21
-110.1204999999999927
0
LINE
8
BLACK
6
CONTINUOUS
10
171.3459529999999802
20
-110.1204999999999927
11
171.3459529999999802
21
-108.5259360000000015
0
LINE
8
BLACK
6
CONTINUOUS
10
171.3459529999999802
20
-108.5259360000000015
11
171.3469409999999868
21
-108.4403639999999882
0
LINE
8
BLACK
6
CONTINUOUS
10
171.3469409999999868
20
-108.4403639999999882
11
171.3492310000000032
21
-108.3014459999999985
0
LINE
8
BLACK
6
CONTINUOUS
10
171.3492310000000032
20
-108.3014459999999985
11
171.3514629999999954
21
-108.1567439999999891
0
LINE
8
BLACK
6
CONTINUOUS
10
171.3514629999999954
20
-108.1567439999999891
11
171.3532689999999832
21
-108.0031379999999928
0
LINE
8
BLACK
6
CONTINUOUS
10
171.3532689999999832
20
-108.0031379999999928
11
171.3540129999999806
21
-107.8546099999999939
0
LINE
8
BLACK
6
CONTINUOUS
10
171.3540129999999806
20
-107.8546099999999939
11
171.3459529999999802
21
-107.8546099999999939
0
LINE
8
BLACK
6
CONTINUOUS
10
171.3459529999999802
20
-107.8546099999999939
11
170.4974529999999788
21
-110.1204999999999927
0
LINE
8
BLACK
6
CONTINUOUS
10
170.4974529999999788
20
-110.1204999999999927
11
170.0944529999999872
21
-110.1204999999999927
0
LINE
8
BLACK
6
CONTINUOUS
10
170.0944529999999872
20
-110.1204999999999927
11
169.2459529999999859
21
-107.8579069999999973
0
LINE
8
BLACK
6
CONTINUOUS
10
169.2459529999999859
20
-107.8579069999999973
11
169.2371599999999887
21
-107.8579069999999973
0
LINE
8
BLACK
6
CONTINUOUS
10
169.2371599999999887
20
-107.8579069999999973
11
169.2373779999999783
21
-107.9298199999999923
0
LINE
8
BLACK
6
CONTINUOUS
10
169.2373779999999783
20
-107.9298199999999923
11
169.2388559999999984
21
-108.081403999999992
0
LINE
8
BLACK
6
CONTINUOUS
10
169.2388559999999984
20
-108.081403999999992
11
169.2411449999999888
21
-108.2315759999999898
0
LINE
8
BLACK
6
CONTINUOUS
10
169.2411449999999888
20
-108.2315759999999898
11
169.2439139999999895
21
-108.3861659999999887
0
LINE
8
BLACK
6
CONTINUOUS
10
169.2439139999999895
20
-108.3861659999999887
11
169.2459529999999859
21
-108.5259360000000015
0
LINE
8
BLACK
6
CONTINUOUS
10
169.2459529999999859
20
-108.5259360000000015
11
169.2459529999999859
21
-110.1204999999999927
0
LINE
8
BLACK
6
CONTINUOUS
10
169.2459529999999859
20
-110.1204999999999927
11
168.8510119999999972
21
-110.1204999999999927
0
LINE
8
BLACK
6
CONTINUOUS
10
168.8510119999999972
20
-110.1204999999999927
11
168.8510119999999972
21
-107.419368999999989
0
LINE
8
BLACK
6
CONTINUOUS
10
168.8510119999999972
20
-107.419368999999989
11
169.4349969999999814
21
-107.419368999999989
0
LINE
8
BLACK
6
CONTINUOUS
10
169.4349969999999814
20
-107.419368999999989
11
170.2959529999999972
21
-109.7010859999999894
0
LINE
8
BLACK
6
CONTINUOUS
10
175.0643749999999841
20
-107.4212559999999996
11
175.2471879999999942
21
-107.4374830000000003
0
LINE
8
BLACK
6
CONTINUOUS
10
175.2471879999999942
20
-107.4374830000000003
11
175.4212389999999857
21
-107.4728329999999943
0
LINE
8
BLACK
6
CONTINUOUS
10
175.4212389999999857
20
-107.4728329999999943
11
175.5807309999999859
21
-107.5303279999999972
0
LINE
8
BLACK
6
CONTINUOUS
10
175.5807309999999859
20
-107.5303279999999972
11
175.7198679999999911
21
-107.6129889999999989
0
LINE
8
BLACK
6
CONTINUOUS
10
175.7198679999999911
20
-107.6129889999999989
11
175.832854999999995
21
-107.723836999999989
0
LINE
8
BLACK
6
CONTINUOUS
10
175.832854999999995
20
-107.723836999999989
11
175.9138949999999966
21
-107.8658959999999922
0
LINE
8
BLACK
6
CONTINUOUS
10
175.9138949999999966
20
-107.8658959999999922
11
175.950222999999994
21
-107.9947379999999981
0
LINE
8
BLACK
6
CONTINUOUS
10
175.950222999999994
20
-107.9947379999999981
11
175.9628759999999943
21
-108.1441109999999952
0
LINE
8
BLACK
6
CONTINUOUS
10
175.9628759999999943
20
-108.1441109999999952
11
175.9602779999999882
21
-108.2153119999999973
0
LINE
8
BLACK
6
CONTINUOUS
10
175.9602779999999882
20
-108.2153119999999973
11
175.933006000000006
21
-108.3697820000000007
0
LINE
8
BLACK
6
CONTINUOUS
10
175.933006000000006
20
-108.3697820000000007
11
175.8808429999999987
21
-108.4943629999999928
0
LINE
8
BLACK
6
CONTINUOUS
10
175.8808429999999987
20
-108.4943629999999928
11
175.7938209999999799
21
-108.6109739999999988
0
LINE
8
BLACK
6
CONTINUOUS
10
175.7938209999999799
20
-108.6109739999999988
11
175.6716919999999789
21
-108.7118629999999939
0
LINE
8
BLACK
6
CONTINUOUS
10
175.6716919999999789
20
-108.7118629999999939
11
175.5430219999999792
21
-108.7870799999999889
0
LINE
8
BLACK
6
CONTINUOUS
10
175.5430219999999792
20
-108.7870799999999889
11
175.6072900000000061
21
-108.8120689999999939
0
LINE
8
BLACK
6
CONTINUOUS
10
175.6072900000000061
20
-108.8120689999999939
11
175.7424649999999815
21
-108.8880359999999996
0
LINE
8
BLACK
6
CONTINUOUS
10
175.7424649999999815
20
-108.8880359999999996
11
175.838121000000001
21
-109.0052389999999889
0
LINE
8
BLACK
6
CONTINUOUS
10
175.838121000000001
20
-109.0052389999999889
11
175.8855729999999937
21
-109.1419039999999967
0
LINE
8
BLACK
6
CONTINUOUS
10
175.8855729999999937
20
-109.1419039999999967
11
175.9042570000000012
21
-109.297499000000002
0
LINE
8
BLACK
6
CONTINUOUS
10
175.9042570000000012
20
-109.297499000000002
11
175.9291699999999992
21
-109.7881339999999994
0
LINE
8
BLACK
6
CONTINUOUS
10
175.9291699999999992
20
-109.7881339999999994
11
175.9317790000000059
21
-109.8405439999999942
0
LINE
8
BLACK
6
CONTINUOUS
10
175.9317790000000059
20
-109.8405439999999942
11
175.96810499999998
21
-109.9716509999999943
0
LINE
8
BLACK
6
CONTINUOUS
10
175.96810499999998
20
-109.9716509999999943
11
176.0801119999999855
21
-110.0604889999999898
0
LINE
8
BLACK
6
CONTINUOUS
10
176.0801119999999855
20
-110.0604889999999898
11
176.0801119999999855
21
-110.1204999999999927
0
LINE
8
BLACK
6
CONTINUOUS
10
176.0801119999999855
20
-110.1204999999999927
11
175.5803909999999917
21
-110.1204999999999927
0
LINE
8
BLACK
6
CONTINUOUS
10
175.5803909999999917
20
-110.1204999999999927
11
175.5561659999999904
21
-110.0267489999999952
0
LINE
8
BLACK
6
CONTINUOUS
10
175.5561659999999904
20
-110.0267489999999952
11
175.5349359999999876
21
-109.884687999999997
0
LINE
8
BLACK
6
CONTINUOUS
10
175.5349359999999876
20
-109.884687999999997
11
175.5209989999999891
21
-109.7310930000000013
0
LINE
8
BLACK
6
CONTINUOUS
10
175.5209989999999891
20
-109.7310930000000013
11
175.5130219999999781
21
-109.587900999999988
0
LINE
8
BLACK
6
CONTINUOUS
10
175.5130219999999781
20
-109.587900999999988
11
175.5093169999999816
21
-109.4406010000000009
0
LINE
8
BLACK
6
CONTINUOUS
10
175.5093169999999816
20
-109.4406010000000009
11
175.5076650000000029
21
-109.3773179999999883
0
LINE
8
BLACK
6
CONTINUOUS
10
175.5076650000000029
20
-109.3773179999999883
11
175.4827200000000005
21
-109.2300120000000021
0
LINE
8
BLACK
6
CONTINUOUS
10
175.4827200000000005
20
-109.2300120000000021
11
175.408614
21
-109.0984559999999988
0
LINE
8
BLACK
6
CONTINUOUS
10
175.408614
20
-109.0984559999999988
11
175.2875819999999862
21
-109.0125149999999934
0
LINE
8
BLACK
6
CONTINUOUS
10
175.2875819999999862
20
-109.0125149999999934
11
175.1345019999999977
21
-108.968874999999997
0
LINE
8
BLACK
6
CONTINUOUS
10
175.1345019999999977
20
-108.968874999999997
11
174.9714939999999785
21
-108.9572199999999924
0
LINE
8
BLACK
6
CONTINUOUS
10
174.9714939999999785
20
-108.9572199999999924
11
173.9845080000000053
21
-108.9572199999999924
0
LINE
8
BLACK
6
CONTINUOUS
10
173.9845080000000053
20
-108.9572199999999924
11
173.9845080000000053
21
-110.1204999999999927
0
LINE
8
BLACK
6
CONTINUOUS
10
173.9845080000000053
20
-110.1204999999999927
11
173.5771110000000022
21
-110.1204999999999927
0
LINE
8
BLACK
6
CONTINUOUS
10
173.5771110000000022
20
-110.1204999999999927
11
173.5771110000000022
21
-108.6433189999999911
0
LINE
8
BLACK
6
CONTINUOUS
10
173.5771110000000022
20
-108.6433189999999911
11
173.5771110000000022
21
-107.419368999999989
0
LINE
8
BLACK
6
CONTINUOUS
10
173.5771110000000022
20
-107.419368999999989
11
174.9714939999999785
21
-107.419368999999989
0
LINE
8
BLACK
6
CONTINUOUS
10
174.9714939999999785
20
-107.419368999999989
11
175.0643749999999841
21
-107.4212559999999996
0
LINE
8
BLACK
6
CONTINUOUS
10
173.9845080000000053
20
-108.6433189999999911
11
174.929727999999983
21
-108.6433189999999911
0
LINE
8
BLACK
6
CONTINUOUS
10
174.929727999999983
20
-108.6433189999999911
11
175.069486999999981
21
-108.6374390000000005
0
LINE
8
BLACK
6
CONTINUOUS
10
175.069486999999981
20
-108.6374390000000005
11
175.2297599999999989
21
-108.6090469999999897
0
LINE
8
BLACK
6
CONTINUOUS
10
175.2297599999999989
20
-108.6090469999999897
11
175.3695199999999943
21
-108.5475739999999973
0
LINE
8
BLACK
6
CONTINUOUS
10
175.3695199999999943
20
-108.5475739999999973
11
175.4756380000000036
21
-108.4426389999999998
0
LINE
8
BLACK
6
CONTINUOUS
10
175.4756380000000036
20
-108.4426389999999998
11
175.5289009999999905
21
-108.3145049999999969
0
LINE
8
BLACK
6
CONTINUOUS
10
175.5289009999999905
20
-108.3145049999999969
11
175.5430219999999792
21
-108.1810399999999959
0
LINE
8
BLACK
6
CONTINUOUS
10
175.5430219999999792
20
-108.1810399999999959
11
175.5198979999999835
21
-108.0134589999999974
0
LINE
8
BLACK
6
CONTINUOUS
10
175.5198979999999835
20
-108.0134589999999974
11
175.4417339999999967
21
-107.8747569999999882
0
LINE
8
BLACK
6
CONTINUOUS
10
175.4417339999999967
20
-107.8747569999999882
11
175.3050240000000031
21
-107.7816289999999952
0
LINE
8
BLACK
6
CONTINUOUS
10
175.3050240000000031
20
-107.7816289999999952
11
175.1479989999999987
21
-107.7417289999999923
0
LINE
8
BLACK
6
CONTINUOUS
10
175.1479989999999987
20
-107.7417289999999923
11
175.0008029999999906
21
-107.7332699999999903
0
LINE
8
BLACK
6
CONTINUOUS
10
175.0008029999999906
20
-107.7332699999999903
11
173.9845080000000053
21
-107.7332699999999903
0
LINE
8
BLACK
6
CONTINUOUS
10
173.9845080000000053
20
-107.7332699999999903
11
173.9845080000000053
21
-108.6433189999999911
0
LINE
8
BLACK
6
CONTINUOUS
10
181.2546409999999923
20
-109.7010859999999894
11
181.2627009999999927
21
-109.7010859999999894
0
LINE
8
BLACK
6
CONTINUOUS
10
181.2627009999999927
20
-109.7010859999999894
11
182.1199929999999938
21
-107.419368999999989
0
LINE
8
BLACK
6
CONTINUOUS
10
182.1199929999999938
20
-107.419368999999989
11
182.6995819999999924
21
-107.419368999999989
0
LINE
8
BLACK
6
CONTINUOUS
10
182.6995819999999924
20
-107.419368999999989
11
182.6995819999999924
21
-110.1204999999999927
0
LINE
8
BLACK
6
CONTINUOUS
10
182.6995819999999924
20
-110.1204999999999927
11
182.3046410000000037
21
-110.1204999999999927
0
LINE
8
BLACK
6
CONTINUOUS
10
182.3046410000000037
20
-110.1204999999999927
11
182.3046410000000037
21
-108.5259360000000015
0
LINE
8
BLACK
6
CONTINUOUS
10
182.3046410000000037
20
-108.5259360000000015
11
182.3056289999999819
21
-108.4403639999999882
0
LINE
8
BLACK
6
CONTINUOUS
10
182.3056289999999819
20
-108.4403639999999882
11
182.3079189999999983
21
-108.3014459999999985
0
LINE
8
BLACK
6
CONTINUOUS
10
182.3079189999999983
20
-108.3014459999999985
11
182.3101509999999905
21
-108.1567439999999891
0
LINE
8
BLACK
6
CONTINUOUS
10
182.3101509999999905
20
-108.1567439999999891
11
182.3119569999999783
21
-108.0031379999999928
0
LINE
8
BLACK
6
CONTINUOUS
10
182.3119569999999783
20
-108.0031379999999928
11
182.3127010000000041
21
-107.8546099999999939
0
LINE
8
BLACK
6
CONTINUOUS
10
182.3127010000000041
20
-107.8546099999999939
11
182.3046410000000037
21
-107.8546099999999939
0
LINE
8
BLACK
6
CONTINUOUS
10
182.3046410000000037
20
-107.8546099999999939
11
181.4561410000000024
21
-110.1204999999999927
0
LINE
8
BLACK
6
CONTINUOUS
10
181.4561410000000024
20
-110.1204999999999927
11
181.0531409999999823
21
-110.1204999999999927
0
LINE
8
BLACK
6
CONTINUOUS
10
181.0531409999999823
20
-110.1204999999999927
11
180.204640999999981
21
-107.8579069999999973
0
LINE
8
BLACK
6
CONTINUOUS
10
180.204640999999981
20
-107.8579069999999973
11
180.1958479999999838
21
-107.8579069999999973
0
LINE
8
BLACK
6
CONTINUOUS
10
180.1958479999999838
20
-107.8579069999999973
11
180.1960660000000018
21
-107.9298199999999923
0
LINE
8
BLACK
6
CONTINUOUS
10
180.1960660000000018
20
-107.9298199999999923
11
180.1975439999999935
21
-108.081403999999992
0
LINE
8
BLACK
6
CONTINUOUS
10
180.1975439999999935
20
-108.081403999999992
11
180.1998329999999839
21
-108.2315759999999898
0
LINE
8
BLACK
6
CONTINUOUS
10
180.1998329999999839
20
-108.2315759999999898
11
180.2026019999999846
21
-108.3861659999999887
0
LINE
8
BLACK
6
CONTINUOUS
10
180.2026019999999846
20
-108.3861659999999887
11
180.204640999999981
21
-108.5259360000000015
0
LINE
8
BLACK
6
CONTINUOUS
10
180.204640999999981
20
-108.5259360000000015
11
180.204640999999981
21
-110.1204999999999927
0
LINE
8
BLACK
6
CONTINUOUS
10
180.204640999999981
20
-110.1204999999999927
11
179.8096999999999923
21
-110.1204999999999927
0
LINE
8
BLACK
6
CONTINUOUS
10
179.8096999999999923
20
-110.1204999999999927
11
179.8096999999999923
21
-107.419368999999989
0
LINE
8
BLACK
6
CONTINUOUS
10
179.8096999999999923
20
-107.419368999999989
11
180.3936850000000049
21
-107.419368999999989
0
LINE
8
BLACK
6
CONTINUOUS
10
180.3936850000000049
20
-107.419368999999989
11
181.2546409999999923
21
-109.7010859999999894
0
LINE
8
BLACK
6
CONTINUOUS
10
85.1699619999999982
20
-107.5841470000000015
11
85.3551289999999909
21
-107.6270939999999996
0
LINE
8
BLACK
6
CONTINUOUS
10
85.3551289999999909
20
-107.6270939999999996
11
85.5106129999999922
21
-107.7016890000000018
0
LINE
8
BLACK
6
CONTINUOUS
10
85.5106129999999922
20
-107.7016890000000018
11
85.6388149999999939
21
-107.8030009999999947
0
LINE
8
BLACK
6
CONTINUOUS
10
85.6388149999999939
20
-107.8030009999999947
11
85.7421349999999904
21
-107.9261029999999977
0
LINE
8
BLACK
6
CONTINUOUS
10
85.7421349999999904
20
-107.9261029999999977
11
85.8229740000000021
21
-108.0660619999999881
0
LINE
8
BLACK
6
CONTINUOUS
10
85.8229740000000021
20
-108.0660619999999881
11
85.8837309999999974
21
-108.2179509999999993
0
LINE
8
BLACK
6
CONTINUOUS
10
85.8837309999999974
20
-108.2179509999999993
11
85.9268089999999916
21
-108.3768389999999897
0
LINE
8
BLACK
6
CONTINUOUS
10
85.9268089999999916
20
-108.3768389999999897
11
85.9546059999999983
21
-108.5377979999999951
0
LINE
8
BLACK
6
CONTINUOUS
10
85.9546059999999983
20
-108.5377979999999951
11
85.9695239999999927
21
-108.6958959999999905
0
LINE
8
BLACK
6
CONTINUOUS
10
85.9695239999999927
20
-108.6958959999999905
11
85.9739629999999977
21
-108.8462049999999977
0
LINE
8
BLACK
6
CONTINUOUS
10
85.9739629999999977
20
-108.8462049999999977
11
85.9695239999999927
21
-108.996342999999996
0
LINE
8
BLACK
6
CONTINUOUS
10
85.9695239999999927
20
-108.996342999999996
11
85.9546059999999983
21
-109.1542729999999892
0
LINE
8
BLACK
6
CONTINUOUS
10
85.9546059999999983
20
-109.1542729999999892
11
85.9268089999999916
21
-109.315068999999994
0
LINE
8
BLACK
6
CONTINUOUS
10
85.9268089999999916
20
-109.315068999999994
11
85.8837309999999974
21
-109.4738040000000012
0
LINE
8
BLACK
6
CONTINUOUS
10
85.8837309999999974
20
-109.4738040000000012
11
85.8229740000000021
21
-109.625551999999999
0
LINE
8
BLACK
6
CONTINUOUS
10
85.8229740000000021
20
-109.625551999999999
11
85.7421349999999904
21
-109.7653859999999924
0
LINE
8
BLACK
6
CONTINUOUS
10
85.7421349999999904
20
-109.7653859999999924
11
85.6388149999999939
21
-109.8883790000000005
0
LINE
8
BLACK
6
CONTINUOUS
10
85.6388149999999939
20
-109.8883790000000005
11
85.5106129999999922
21
-109.9896049999999974
0
LINE
8
BLACK
6
CONTINUOUS
10
85.5106129999999922
20
-109.9896049999999974
11
85.3551289999999909
21
-110.0641369999999881
0
LINE
8
BLACK
6
CONTINUOUS
10
85.3551289999999909
20
-110.0641369999999881
11
85.1699619999999982
21
-110.1070489999999893
0
LINE
8
BLACK
6
CONTINUOUS
10
85.1699619999999982
20
-110.1070489999999893
11
85.0288409999999999
21
-110.1156569999999988
0
LINE
8
BLACK
6
CONTINUOUS
10
85.0288409999999999
20
-110.1156569999999988
11
84.8877279999999956
21
-110.1070489999999893
0
LINE
8
BLACK
6
CONTINUOUS
10
84.8877279999999956
20
-110.1070489999999893
11
84.7025979999999947
21
-110.0641369999999881
0
LINE
8
BLACK
6
CONTINUOUS
10
84.7025979999999947
20
-110.0641369999999881
11
84.5471759999999932
21
-109.9896049999999974
0
LINE
8
BLACK
6
CONTINUOUS
10
84.5471759999999932
20
-109.9896049999999974
11
84.4190540000000027
21
-109.8883790000000005
0
LINE
8
BLACK
6
CONTINUOUS
10
84.4190540000000027
20
-109.8883790000000005
11
84.3158260000000013
21
-109.7653859999999924
0
LINE
8
BLACK
6
CONTINUOUS
10
84.3158260000000013
20
-109.7653859999999924
11
84.235083000000003
21
-109.625551999999999
0
LINE
8
BLACK
6
CONTINUOUS
10
84.235083000000003
20
-109.625551999999999
11
84.1744190000000003
21
-109.4738040000000012
0
LINE
8
BLACK
6
CONTINUOUS
10
84.1744190000000003
20
-109.4738040000000012
11
84.1314259999999905
21
-109.315068999999994
0
LINE
8
BLACK
6
CONTINUOUS
10
84.1314259999999905
20
-109.315068999999994
11
84.1036969999999968
21
-109.1542729999999892
0
LINE
8
BLACK
6
CONTINUOUS
10
84.1036969999999968
20
-109.1542729999999892
11
84.0888249999999999
21
-108.996342999999996
0
LINE
8
BLACK
6
CONTINUOUS
10
84.0888249999999999
20
-108.996342999999996
11
84.0844029999999947
21
-108.8462049999999977
0
LINE
8
BLACK
6
CONTINUOUS
10
84.0844029999999947
20
-108.8462049999999977
11
84.0888249999999999
21
-108.6958959999999905
0
LINE
8
BLACK
6
CONTINUOUS
10
84.0888249999999999
20
-108.6958959999999905
11
84.1036969999999968
21
-108.5377979999999951
0
LINE
8
BLACK
6
CONTINUOUS
10
84.1036969999999968
20
-108.5377979999999951
11
84.1314259999999905
21
-108.3768389999999897
0
LINE
8
BLACK
6
CONTINUOUS
10
84.1314259999999905
20
-108.3768389999999897
11
84.1744190000000003
21
-108.2179509999999993
0
LINE
8
BLACK
6
CONTINUOUS
10
84.1744190000000003
20
-108.2179509999999993
11
84.235083000000003
21
-108.0660619999999881
0
LINE
8
BLACK
6
CONTINUOUS
10
84.235083000000003
20
-108.0660619999999881
11
84.3158260000000013
21
-107.9261029999999977
0
LINE
8
BLACK
6
CONTINUOUS
10
84.3158260000000013
20
-107.9261029999999977
11
84.4190540000000027
21
-107.8030009999999947
0
LINE
8
BLACK
6
CONTINUOUS
10
84.4190540000000027
20
-107.8030009999999947
11
84.5471759999999932
21
-107.7016890000000018
0
LINE
8
BLACK
6
CONTINUOUS
10
84.5471759999999932
20
-107.7016890000000018
11
84.7025979999999947
21
-107.6270939999999996
0
LINE
8
BLACK
6
CONTINUOUS
10
84.7025979999999947
20
-107.6270939999999996
11
84.8877279999999956
21
-107.5841470000000015
0
LINE
8
BLACK
6
CONTINUOUS
10
84.8877279999999956
20
-107.5841470000000015
11
85.0288409999999999
21
-107.5755319999999955
0
LINE
8
BLACK
6
CONTINUOUS
10
85.0288409999999999
20
-107.5755319999999955
11
85.1699619999999982
21
-107.5841470000000015
0
LINE
8
BLACK
6
CONTINUOUS
10
84.95711399999999
20
-107.8564849999999922
11
84.7995480000000015
21
-107.904451999999992
0
LINE
8
BLACK
6
CONTINUOUS
10
84.7995480000000015
20
-107.904451999999992
11
84.6724209999999999
21
-108.0030900000000003
0
LINE
8
BLACK
6
CONTINUOUS
10
84.6724209999999999
20
-108.0030900000000003
11
84.5920979999999929
21
-108.1165299999999974
0
LINE
8
BLACK
6
CONTINUOUS
10
84.5920979999999929
20
-108.1165299999999974
11
84.5303370000000029
21
-108.2590489999999903
0
LINE
8
BLACK
6
CONTINUOUS
10
84.5303370000000029
20
-108.2590489999999903
11
84.4959499999999935
21
-108.3841269999999923
0
LINE
8
BLACK
6
CONTINUOUS
10
84.4959499999999935
20
-108.3841269999999923
11
84.4716019999999901
21
-108.5240979999999951
0
LINE
8
BLACK
6
CONTINUOUS
10
84.4716019999999901
20
-108.5240979999999951
11
84.4571199999999891
21
-108.678332999999995
0
LINE
8
BLACK
6
CONTINUOUS
10
84.4571199999999891
20
-108.678332999999995
11
84.4523299999999892
21
-108.8462049999999977
0
LINE
8
BLACK
6
CONTINUOUS
10
84.4523299999999892
20
-108.8462049999999977
11
84.4544549999999958
21
-108.9594960000000015
0
LINE
8
BLACK
6
CONTINUOUS
10
84.4544549999999958
20
-108.9594960000000015
11
84.4656870000000026
21
-109.1182109999999881
0
LINE
8
BLACK
6
CONTINUOUS
10
84.4656870000000026
20
-109.1182109999999881
11
84.4867279999999994
21
-109.2628969999999953
0
LINE
8
BLACK
6
CONTINUOUS
10
84.4867279999999994
20
-109.2628969999999953
11
84.5177489999999949
21
-109.3929239999999936
0
LINE
8
BLACK
6
CONTINUOUS
10
84.5177489999999949
20
-109.3929239999999936
11
84.5749339999999989
21
-109.5424000000000007
0
LINE
8
BLACK
6
CONTINUOUS
10
84.5749339999999989
20
-109.5424000000000007
11
84.6505779999999959
21
-109.6631979999999942
0
LINE
8
BLACK
6
CONTINUOUS
10
84.6505779999999959
20
-109.6631979999999942
11
84.745088999999993
21
-109.753822999999997
0
LINE
8
BLACK
6
CONTINUOUS
10
84.745088999999993
20
-109.753822999999997
11
84.8903839999999974
21
-109.8223950000000002
0
LINE
8
BLACK
6
CONTINUOUS
10
84.8903839999999974
20
-109.8223950000000002
11
85.0288409999999999
21
-109.8396630000000016
0
LINE
8
BLACK
6
CONTINUOUS
10
85.0288409999999999
20
-109.8396630000000016
11
85.100568999999993
21
-109.8353149999999943
0
LINE
8
BLACK
6
CONTINUOUS
10
85.100568999999993
20
-109.8353149999999943
11
85.2581349999999958
21
-109.787352999999996
0
LINE
8
BLACK
6
CONTINUOUS
10
85.2581349999999958
20
-109.787352999999996
11
85.3852619999999973
21
-109.6887409999999932
0
LINE
8
BLACK
6
CONTINUOUS
10
85.3852619999999973
20
-109.6887409999999932
11
85.4655839999999927
21
-109.5753459999999961
0
LINE
8
BLACK
6
CONTINUOUS
10
85.4655839999999927
20
-109.5753459999999961
11
85.5273459999999943
21
-109.4328989999999919
0
LINE
8
BLACK
6
CONTINUOUS
10
85.5273459999999943
20
-109.4328989999999919
11
85.5617319999999921
21
-109.3078989999999919
0
LINE
8
BLACK
6
CONTINUOUS
10
85.5617319999999921
20
-109.3078989999999919
11
85.5860799999999955
21
-109.16802899999999
0
LINE
8
BLACK
6
CONTINUOUS
10
85.5860799999999955
20
-109.16802899999999
11
85.600562999999994
21
-109.0139209999999963
0
LINE
8
BLACK
6
CONTINUOUS
10
85.600562999999994
20
-109.0139209999999963
11
85.6053519999999963
21
-108.8462049999999977
0
LINE
8
BLACK
6
CONTINUOUS
10
85.6053519999999963
20
-108.8462049999999977
11
85.6032280000000014
21
-108.7328059999999965
0
LINE
8
BLACK
6
CONTINUOUS
10
85.6032280000000014
20
-108.7328059999999965
11
85.5919959999999946
21
-108.5739559999999955
0
LINE
8
BLACK
6
CONTINUOUS
10
85.5919959999999946
20
-108.5739559999999955
11
85.5709549999999979
21
-108.429159999999996
0
LINE
8
BLACK
6
CONTINUOUS
10
85.5709549999999979
20
-108.429159999999996
11
85.5399340000000024
21
-108.2990479999999991
0
LINE
8
BLACK
6
CONTINUOUS
10
85.5399340000000024
20
-108.2990479999999991
11
85.4827489999999983
21
-108.1494909999999976
0
LINE
8
BLACK
6
CONTINUOUS
10
85.4827489999999983
20
-108.1494909999999976
11
85.4071050000000014
21
-108.0286419999999907
0
LINE
8
BLACK
6
CONTINUOUS
10
85.4071050000000014
20
-108.0286419999999907
11
85.3125929999999926
21
-107.9379899999999992
0
LINE
8
BLACK
6
CONTINUOUS
10
85.3125929999999926
20
-107.9379899999999992
11
85.1672989999999999
21
-107.8694050000000004
0
LINE
8
BLACK
6
CONTINUOUS
10
85.1672989999999999
20
-107.8694050000000004
11
85.0288409999999999
21
-107.852136999999999
0
LINE
8
BLACK
6
CONTINUOUS
10
85.0288409999999999
20
-107.852136999999999
11
84.95711399999999
21
-107.8564849999999922
0
LINE
8
BLACK
6
CONTINUOUS
10
87.9535049999999927
20
-107.5831549999999908
11
88.1165129999999976
21
-107.6165379999999914
0
LINE
8
BLACK
6
CONTINUOUS
10
88.1165129999999976
20
-107.6165379999999914
11
88.2453179999999975
21
-107.6651200000000017
0
LINE
8
BLACK
6
CONTINUOUS
10
88.2453179999999975
20
-107.6651200000000017
11
88.3657350000000008
21
-107.7356259999999963
0
LINE
8
BLACK
6
CONTINUOUS
10
88.3657350000000008
20
-107.7356259999999963
11
88.4713390000000004
21
-107.8303459999999916
0
LINE
8
BLACK
6
CONTINUOUS
10
88.4713390000000004
20
-107.8303459999999916
11
88.5557009999999991
21
-107.9515710000000013
0
LINE
8
BLACK
6
CONTINUOUS
10
88.5557009999999991
20
-107.9515710000000013
11
88.6123939999999948
21
-108.1015889999999899
0
LINE
8
BLACK
6
CONTINUOUS
10
88.6123939999999948
20
-108.1015889999999899
11
88.6328889999999916
21
-108.234376999999995
0
LINE
8
BLACK
6
CONTINUOUS
10
88.6328889999999916
20
-108.234376999999995
11
88.2957359999999909
21
-108.234376999999995
0
LINE
8
BLACK
6
CONTINUOUS
10
88.2957359999999909
20
-108.234376999999995
11
88.2686439999999948
21
-108.1361449999999991
0
LINE
8
BLACK
6
CONTINUOUS
10
88.2686439999999948
20
-108.1361449999999991
11
88.2052509999999899
21
-108.0171019999999942
0
LINE
8
BLACK
6
CONTINUOUS
10
88.2052509999999899
20
-108.0171019999999942
11
88.1079149999999913
21
-107.925691999999998
0
LINE
8
BLACK
6
CONTINUOUS
10
88.1079149999999913
20
-107.925691999999998
11
87.9719529999999992
21
-107.8686269999999894
0
LINE
8
BLACK
6
CONTINUOUS
10
87.9719529999999992
20
-107.8686269999999894
11
87.821123
21
-107.852136999999999
0
LINE
8
BLACK
6
CONTINUOUS
10
87.821123
20
-107.852136999999999
11
87.6799929999999961
21
-107.8686059999999998
0
LINE
8
BLACK
6
CONTINUOUS
10
87.6799929999999961
20
-107.8686059999999998
11
87.5241979999999984
21
-107.9354839999999882
0
LINE
8
BLACK
6
CONTINUOUS
10
87.5241979999999984
20
-107.9354839999999882
11
87.4020379999999903
21
-108.0423509999999965
0
LINE
8
BLACK
6
CONTINUOUS
10
87.4020379999999903
20
-108.0423509999999965
11
87.3098329999999976
21
-108.1768280000000004
0
LINE
8
BLACK
6
CONTINUOUS
10
87.3098329999999976
20
-108.1768280000000004
11
87.2439040000000006
21
-108.3265359999999902
0
LINE
8
BLACK
6
CONTINUOUS
10
87.2439040000000006
20
-108.3265359999999902
11
87.2005729999999915
21
-108.4790950000000009
0
LINE
8
BLACK
6
CONTINUOUS
10
87.2005729999999915
20
-108.4790950000000009
11
87.1761619999999908
21
-108.6221259999999944
0
LINE
8
BLACK
6
CONTINUOUS
10
87.1761619999999908
20
-108.6221259999999944
11
87.16664999999999
21
-108.7686580000000021
0
LINE
8
BLACK
6
CONTINUOUS
10
87.16664999999999
20
-108.7686580000000021
11
87.1741729999999961
21
-108.7759849999999915
0
LINE
8
BLACK
6
CONTINUOUS
10
87.1741729999999961
20
-108.7759849999999915
11
87.1826239999999899
21
-108.7634079999999983
0
LINE
8
BLACK
6
CONTINUOUS
10
87.1826239999999899
20
-108.7634079999999983
11
87.2740799999999979
21
-108.6598049999999915
0
LINE
8
BLACK
6
CONTINUOUS
10
87.2740799999999979
20
-108.6598049999999915
11
87.3930139999999938
21
-108.575248000000002
0
LINE
8
BLACK
6
CONTINUOUS
10
87.3930139999999938
20
-108.575248000000002
11
87.5278969999999958
21
-108.5174949999999967
0
LINE
8
BLACK
6
CONTINUOUS
10
87.5278969999999958
20
-108.5174949999999967
11
87.6659629999999908
21
-108.4859110000000015
0
LINE
8
BLACK
6
CONTINUOUS
10
87.6659629999999908
20
-108.4859110000000015
11
87.8293299999999988
21
-108.4743449999999996
0
LINE
8
BLACK
6
CONTINUOUS
10
87.8293299999999988
20
-108.4743449999999996
11
87.9285249999999934
21
-108.4796019999999999
0
LINE
8
BLACK
6
CONTINUOUS
10
87.9285249999999934
20
-108.4796019999999999
11
88.0701179999999937
21
-108.5041919999999891
0
LINE
8
BLACK
6
CONTINUOUS
10
88.0701179999999937
20
-108.5041919999999891
11
88.2147140000000007
21
-108.5510790000000014
0
LINE
8
BLACK
6
CONTINUOUS
10
88.2147140000000007
20
-108.5510790000000014
11
88.3539549999999991
21
-108.6226659999999953
0
LINE
8
BLACK
6
CONTINUOUS
10
88.3539549999999991
20
-108.6226659999999953
11
88.4794809999999927
21
-108.7213589999999925
0
LINE
8
BLACK
6
CONTINUOUS
10
88.4794809999999927
20
-108.7213589999999925
11
88.5829339999999945
21
-108.8495619999999917
0
LINE
8
BLACK
6
CONTINUOUS
10
88.5829339999999945
20
-108.8495619999999917
11
88.6410099999999943
21
-108.9665260000000018
0
LINE
8
BLACK
6
CONTINUOUS
10
88.6410099999999943
20
-108.9665260000000018
11
88.6784419999999898
21
-109.102454999999992
0
LINE
8
BLACK
6
CONTINUOUS
10
88.6784419999999898
20
-109.102454999999992
11
88.6917019999999923
21
-109.2583649999999977
0
LINE
8
BLACK
6
CONTINUOUS
10
88.6917019999999923
20
-109.2583649999999977
11
88.691482999999991
21
-109.2819179999999903
0
LINE
8
BLACK
6
CONTINUOUS
10
88.691482999999991
20
-109.2819179999999903
11
88.6805930000000018
21
-109.4153139999999951
0
LINE
8
BLACK
6
CONTINUOUS
10
88.6805930000000018
20
-109.4153139999999951
11
88.6521809999999988
21
-109.5371389999999963
0
LINE
8
BLACK
6
CONTINUOUS
10
88.6521809999999988
20
-109.5371389999999963
11
88.5948309999999992
21
-109.6683479999999946
0
LINE
8
BLACK
6
CONTINUOUS
10
88.5948309999999992
20
-109.6683479999999946
11
88.5231639999999942
21
-109.7746279999999928
0
LINE
8
BLACK
6
CONTINUOUS
10
88.5231639999999942
20
-109.7746279999999928
11
88.4290929999999946
21
-109.8781309999999962
0
LINE
8
BLACK
6
CONTINUOUS
10
88.4290929999999946
20
-109.8781309999999962
11
88.4016259999999932
21
-109.9044449999999955
0
LINE
8
BLACK
6
CONTINUOUS
10
88.4016259999999932
20
-109.9044449999999955
11
88.2975229999999982
21
-109.9864740000000012
0
LINE
8
BLACK
6
CONTINUOUS
10
88.2975229999999982
20
-109.9864740000000012
11
88.1712699999999927
21
-110.0507039999999961
0
LINE
8
BLACK
6
CONTINUOUS
10
88.1712699999999927
20
-110.0507039999999961
11
88.0357199999999978
21
-110.089468999999994
0
LINE
8
BLACK
6
CONTINUOUS
10
88.0357199999999978
20
-110.089468999999994
11
87.8973319999999916
21
-110.1089399999999898
0
LINE
8
BLACK
6
CONTINUOUS
10
87.8973319999999916
20
-110.1089399999999898
11
87.7308510000000012
21
-110.1156569999999988
0
LINE
8
BLACK
6
CONTINUOUS
10
87.7308510000000012
20
-110.1156569999999988
11
87.6259299999999968
21
-110.1091249999999917
0
LINE
8
BLACK
6
CONTINUOUS
10
87.6259299999999968
20
-110.1091249999999917
11
87.4888720000000006
21
-110.0816869999999881
0
LINE
8
BLACK
6
CONTINUOUS
10
87.4888720000000006
20
-110.0816869999999881
11
87.3469549999999941
21
-110.028899999999993
0
LINE
8
BLACK
6
CONTINUOUS
10
87.3469549999999941
20
-110.028899999999993
11
87.230559999999997
21
-109.9625149999999962
0
LINE
8
BLACK
6
CONTINUOUS
10
87.230559999999997
20
-109.9625149999999962
11
87.1206379999999996
21
-109.8731760000000008
0
LINE
8
BLACK
6
CONTINUOUS
10
87.1206379999999996
20
-109.8731760000000008
11
87.0216679999999911
21
-109.7584519999999912
0
LINE
8
BLACK
6
CONTINUOUS
10
87.0216679999999911
20
-109.7584519999999912
11
86.992125999999999
21
-109.7140209999999882
0
LINE
8
BLACK
6
CONTINUOUS
10
86.992125999999999
20
-109.7140209999999882
11
86.9296559999999943
21
-109.5962189999999907
0
LINE
8
BLACK
6
CONTINUOUS
10
86.9296559999999943
20
-109.5962189999999907
11
86.8821599999999989
21
-109.4697149999999937
0
LINE
8
BLACK
6
CONTINUOUS
10
86.8821599999999989
20
-109.4697149999999937
11
86.8480249999999927
21
-109.3356419999999929
0
LINE
8
BLACK
6
CONTINUOUS
10
86.8480249999999927
20
-109.3356419999999929
11
86.8407720000000012
21
-109.2901159999999976
0
LINE
8
BLACK
6
CONTINUOUS
10
86.8407720000000012
20
-109.2901159999999976
11
86.8256389999999953
21
-109.195132000000001
0
LINE
8
BLACK
6
CONTINUOUS
10
86.8256389999999953
20
-109.195132000000001
11
86.8133899999999983
21
-109.0493159999999904
0
LINE
8
BLACK
6
CONTINUOUS
10
86.8133899999999983
20
-109.0493159999999904
11
86.8096649999999954
21
-108.899327999999997
0
LINE
8
BLACK
6
CONTINUOUS
10
86.8096649999999954
20
-108.899327999999997
11
86.8151950000000028
21
-108.741500000000002
0
LINE
8
BLACK
6
CONTINUOUS
10
86.8151950000000028
20
-108.741500000000002
11
86.8332059999999899
21
-108.5760409999999894
0
LINE
8
BLACK
6
CONTINUOUS
10
86.8332059999999899
20
-108.5760409999999894
11
86.8658269999999959
21
-108.4080089999999927
0
LINE
8
BLACK
6
CONTINUOUS
10
86.8658269999999959
20
-108.4080089999999927
11
86.9151880000000006
21
-108.2424589999999966
0
LINE
8
BLACK
6
CONTINUOUS
10
86.9151880000000006
20
-108.2424589999999966
11
86.9834199999999953
21
-108.0844479999999947
0
LINE
8
BLACK
6
CONTINUOUS
10
86.9834199999999953
20
-108.0844479999999947
11
87.0726519999999908
21
-107.9390319999999974
0
LINE
8
BLACK
6
CONTINUOUS
10
87.0726519999999908
20
-107.9390319999999974
11
87.1850149999999928
21
-107.8112670000000008
0
LINE
8
BLACK
6
CONTINUOUS
10
87.1850149999999928
20
-107.8112670000000008
11
87.3226389999999952
21
-107.7062109999999961
0
LINE
8
BLACK
6
CONTINUOUS
10
87.3226389999999952
20
-107.7062109999999961
11
87.4876529999999946
21
-107.6289189999999962
0
LINE
8
BLACK
6
CONTINUOUS
10
87.4876529999999946
20
-107.6289189999999962
11
87.6821879999999965
21
-107.5844479999999947
0
LINE
8
BLACK
6
CONTINUOUS
10
87.6821879999999965
20
-107.5844479999999947
11
87.8293299999999988
21
-107.5755319999999955
0
LINE
8
BLACK
6
CONTINUOUS
10
87.8293299999999988
20
-107.5755319999999955
11
87.9535049999999927
21
-107.5831549999999908
0
LINE
8
BLACK
6
CONTINUOUS
10
87.6141310000000004
20
-108.7682519999999897
11
87.4786929999999927
21
-108.8170909999999907
0
LINE
8
BLACK
6
CONTINUOUS
10
87.4786929999999927
20
-108.8170909999999907
11
87.3533489999999944
21
-108.9108529999999888
0
LINE
8
BLACK
6
CONTINUOUS
10
87.3533489999999944
20
-108.9108529999999888
11
87.2681089999999955
21
-109.0354629999999929
0
LINE
8
BLACK
6
CONTINUOUS
10
87.2681089999999955
20
-109.0354629999999929
11
87.2273589999999928
21
-109.1571369999999916
0
LINE
8
BLACK
6
CONTINUOUS
10
87.2273589999999928
20
-109.1571369999999916
11
87.2138379999999955
21
-109.2901159999999976
0
LINE
8
BLACK
6
CONTINUOUS
10
87.2138379999999955
20
-109.2901159999999976
11
87.2185319999999962
21
-109.3646309999999886
0
LINE
8
BLACK
6
CONTINUOUS
10
87.2185319999999962
20
-109.3646309999999886
11
87.2477109999999954
21
-109.4872659999999911
0
LINE
8
BLACK
6
CONTINUOUS
10
87.2477109999999954
20
-109.4872659999999911
11
87.3045899999999904
21
-109.6018509999999964
0
LINE
8
BLACK
6
CONTINUOUS
10
87.3045899999999904
20
-109.6018509999999964
11
87.3903260000000017
21
-109.7013419999999968
0
LINE
8
BLACK
6
CONTINUOUS
10
87.3903260000000017
20
-109.7013419999999968
11
87.5060780000000022
21
-109.7786959999999965
0
LINE
8
BLACK
6
CONTINUOUS
10
87.5060780000000022
20
-109.7786959999999965
11
87.6530039999999957
21
-109.8268690000000021
0
LINE
8
BLACK
6
CONTINUOUS
10
87.6530039999999957
20
-109.8268690000000021
11
87.793768
21
-109.8396630000000016
0
LINE
8
BLACK
6
CONTINUOUS
10
87.793768
20
-109.8396630000000016
11
87.9392619999999994
21
-109.8231219999999979
0
LINE
8
BLACK
6
CONTINUOUS
10
87.9392619999999994
20
-109.8231219999999979
11
88.0879809999999992
21
-109.7625010000000003
0
LINE
8
BLACK
6
CONTINUOUS
10
88.0879809999999992
20
-109.7625010000000003
11
88.2049990000000008
21
-109.6622819999999905
0
LINE
8
BLACK
6
CONTINUOUS
10
88.2049990000000008
20
-109.6622819999999905
11
88.2756459999999947
21
-109.5522459999999967
0
LINE
8
BLACK
6
CONTINUOUS
10
88.2756459999999947
20
-109.5522459999999967
11
88.319593999999995
21
-109.4212909999999965
0
LINE
8
BLACK
6
CONTINUOUS
10
88.319593999999995
20
-109.4212909999999965
11
88.3347169999999977
21
-109.2724089999999961
0
LINE
8
BLACK
6
CONTINUOUS
10
88.3347169999999977
20
-109.2724089999999961
11
88.3199709999999953
21
-109.1431120000000021
0
LINE
8
BLACK
6
CONTINUOUS
10
88.3199709999999953
20
-109.1431120000000021
11
88.2712810000000019
21
-109.0113529999999997
0
LINE
8
BLACK
6
CONTINUOUS
10
88.2712810000000019
20
-109.0113529999999997
11
88.1819639999999936
21
-108.8924409999999909
0
LINE
8
BLACK
6
CONTINUOUS
10
88.1819639999999936
20
-108.8924409999999909
11
88.0716789999999889
21
-108.8142079999999936
0
LINE
8
BLACK
6
CONTINUOUS
10
88.0716789999999889
20
-108.8142079999999936
11
87.9246759999999909
21
-108.7643909999999892
0
LINE
8
BLACK
6
CONTINUOUS
10
87.9246759999999909
20
-108.7643909999999892
11
87.7780389999999926
21
-108.7509499999999889
0
LINE
8
BLACK
6
CONTINUOUS
10
87.7780389999999926
20
-108.7509499999999889
11
87.6141310000000004
21
-108.7682519999999897
0
LINE
8
BLACK
6
CONTINUOUS
10
90.5526199999999903
20
-107.5763389999999902
11
90.7241939999999971
21
-107.5954319999999882
0
LINE
8
BLACK
6
CONTINUOUS
10
90.7241939999999971
20
-107.5954319999999882
11
90.8827280000000002
21
-107.6390789999999953
0
LINE
8
BLACK
6
CONTINUOUS
10
90.8827280000000002
20
-107.6390789999999953
11
91.0248139999999921
21
-107.7061789999999917
0
LINE
8
BLACK
6
CONTINUOUS
10
91.0248139999999921
20
-107.7061789999999917
11
91.1470470000000006
21
-107.795628999999991
0
LINE
8
BLACK
6
CONTINUOUS
10
91.1470470000000006
20
-107.795628999999991
11
91.2460200000000015
21
-107.9063269999999903
0
LINE
8
BLACK
6
CONTINUOUS
10
91.2460200000000015
20
-107.9063269999999903
11
91.3183289999999914
21
-108.0371719999999982
0
LINE
8
BLACK
6
CONTINUOUS
10
91.3183289999999914
20
-108.0371719999999982
11
91.3605659999999915
21
-108.1870609999999999
0
LINE
8
BLACK
6
CONTINUOUS
10
91.3605659999999915
20
-108.1870609999999999
11
91.3704599999999942
21
-108.3113129999999984
0
LINE
8
BLACK
6
CONTINUOUS
10
91.3704599999999942
20
-108.3113129999999984
11
91.3556689999999918
21
-108.4653909999999968
0
LINE
8
BLACK
6
CONTINUOUS
10
91.3556689999999918
20
-108.4653909999999968
11
91.3131640000000004
21
-108.5986039999999946
0
LINE
8
BLACK
6
CONTINUOUS
10
91.3131640000000004
20
-108.5986039999999946
11
91.2457509999999985
21
-108.7140709999999899
0
LINE
8
BLACK
6
CONTINUOUS
10
91.2457509999999985
20
-108.7140709999999899
11
91.1562349999999952
21
-108.8149109999999951
0
LINE
8
BLACK
6
CONTINUOUS
10
91.1562349999999952
20
-108.8149109999999951
11
91.0474200000000025
21
-108.9042460000000005
0
LINE
8
BLACK
6
CONTINUOUS
10
91.0474200000000025
20
-108.9042460000000005
11
90.922112999999996
21
-108.9851939999999928
0
LINE
8
BLACK
6
CONTINUOUS
10
90.922112999999996
20
-108.9851939999999928
11
90.7831169999999901
21
-109.0608759999999933
0
LINE
8
BLACK
6
CONTINUOUS
10
90.7831169999999901
20
-109.0608759999999933
11
90.6332379999999915
21
-109.1344119999999975
0
LINE
8
BLACK
6
CONTINUOUS
10
90.6332379999999915
20
-109.1344119999999975
11
90.347375999999997
21
-109.2742409999999893
0
LINE
8
BLACK
6
CONTINUOUS
10
90.347375999999997
20
-109.2742409999999893
11
90.2489789999999914
21
-109.3265540000000016
0
LINE
8
BLACK
6
CONTINUOUS
10
90.2489789999999914
20
-109.3265540000000016
11
90.1164589999999919
21
-109.4131819999999919
0
LINE
8
BLACK
6
CONTINUOUS
10
90.1164589999999919
20
-109.4131819999999919
11
90.0029269999999997
21
-109.5132339999999971
0
LINE
8
BLACK
6
CONTINUOUS
10
90.0029269999999997
20
-109.5132339999999971
11
89.9217779999999891
21
-109.619300999999993
0
LINE
8
BLACK
6
CONTINUOUS
10
89.9217779999999891
20
-109.619300999999993
11
89.872762999999992
21
-109.7474610000000013
0
LINE
8
BLACK
6
CONTINUOUS
10
89.872762999999992
20
-109.7474610000000013
11
91.3704599999999942
21
-109.7474610000000013
0
LINE
8
BLACK
6
CONTINUOUS
10
91.3704599999999942
20
-109.7474610000000013
11
91.3704599999999942
21
-110.0374999999999943
0
LINE
8
BLACK
6
CONTINUOUS
10
91.3704599999999942
20
-110.0374999999999943
11
89.4850029999999919
21
-110.0374999999999943
0
LINE
8
BLACK
6
CONTINUOUS
10
89.4850029999999919
20
-110.0374999999999943
11
89.4874980000000022
21
-109.990279000000001
0
LINE
8
BLACK
6
CONTINUOUS
10
89.4874980000000022
20
-109.990279000000001
11
89.5031790000000029
21
-109.8566989999999919
0
LINE
8
BLACK
6
CONTINUOUS
10
89.5031790000000029
20
-109.8566989999999919
11
89.5423210000000012
21
-109.6963700000000017
0
LINE
8
BLACK
6
CONTINUOUS
10
89.5423210000000012
20
-109.6963700000000017
11
89.6008889999999951
21
-109.5546609999999959
0
LINE
8
BLACK
6
CONTINUOUS
10
89.6008889999999951
20
-109.5546609999999959
11
89.6773439999999908
21
-109.4297159999999991
0
LINE
8
BLACK
6
CONTINUOUS
10
89.6773439999999908
20
-109.4297159999999991
11
89.7701489999999893
21
-109.3196839999999952
0
LINE
8
BLACK
6
CONTINUOUS
10
89.7701489999999893
20
-109.3196839999999952
11
89.8777639999999991
21
-109.2227109999999897
0
LINE
8
BLACK
6
CONTINUOUS
10
89.8777639999999991
20
-109.2227109999999897
11
89.9986499999999978
21
-109.136942999999988
0
LINE
8
BLACK
6
CONTINUOUS
10
89.9986499999999978
20
-109.136942999999988
11
90.1312700000000007
21
-109.0605279999999908
0
LINE
8
BLACK
6
CONTINUOUS
10
90.1312700000000007
20
-109.0605279999999908
11
90.496461999999994
21
-108.8718509999999924
0
LINE
8
BLACK
6
CONTINUOUS
10
90.496461999999994
20
-108.8718509999999924
11
90.6024109999999894
21
-108.8170829999999967
0
LINE
8
BLACK
6
CONTINUOUS
10
90.6024109999999894
20
-108.8170829999999967
11
90.721786999999992
21
-108.7503150000000005
0
LINE
8
BLACK
6
CONTINUOUS
10
90.721786999999992
20
-108.7503150000000005
11
90.8419349999999923
21
-108.6645019999999988
0
LINE
8
BLACK
6
CONTINUOUS
10
90.8419349999999923
20
-108.6645019999999988
11
90.9320009999999996
21
-108.5623749999999887
0
LINE
8
BLACK
6
CONTINUOUS
10
90.9320009999999996
20
-108.5623749999999887
11
90.9868199999999945
21
-108.4332369999999912
0
LINE
8
BLACK
6
CONTINUOUS
10
90.9868199999999945
20
-108.4332369999999912
11
91.0018489999999929
21
-108.297269
0
LINE
8
BLACK
6
CONTINUOUS
10
91.0018489999999929
20
-108.297269
11
90.9950059999999894
21
-108.2218680000000006
0
LINE
8
BLACK
6
CONTINUOUS
10
90.9950059999999894
20
-108.2218680000000006
11
90.9469359999999938
21
-108.0885849999999948
0
LINE
8
BLACK
6
CONTINUOUS
10
90.9469359999999938
20
-108.0885849999999948
11
90.8642150000000015
21
-107.9852259999999973
0
LINE
8
BLACK
6
CONTINUOUS
10
90.8642150000000015
20
-107.9852259999999973
11
90.7380599999999902
21
-107.904531999999989
0
LINE
8
BLACK
6
CONTINUOUS
10
90.7380599999999902
20
-107.904531999999989
11
90.5962589999999892
21
-107.8632239999999882
0
LINE
8
BLACK
6
CONTINUOUS
10
90.5962589999999892
20
-107.8632239999999882
11
90.4567969999999946
21
-107.852136999999999
0
LINE
8
BLACK
6
CONTINUOUS
10
90.4567969999999946
20
-107.852136999999999
11
90.4093840000000029
21
-107.8533889999999928
0
LINE
8
BLACK
6
CONTINUOUS
10
90.4093840000000029
20
-107.8533889999999928
11
90.2470879999999909
21
-107.8813159999999982
0
LINE
8
BLACK
6
CONTINUOUS
10
90.2470879999999909
20
-107.8813159999999982
11
90.0991109999999935
21
-107.9582070000000016
0
LINE
8
BLACK
6
CONTINUOUS
10
90.0991109999999935
20
-107.9582070000000016
11
90.0017679999999984
21
-108.0668329999999884
0
LINE
8
BLACK
6
CONTINUOUS
10
90.0017679999999984
20
-108.0668329999999884
11
89.9439599999999899
21
-108.1912200000000013
0
LINE
8
BLACK
6
CONTINUOUS
10
89.9439599999999899
20
-108.1912200000000013
11
89.9145899999999898
21
-108.3153959999999927
0
LINE
8
BLACK
6
CONTINUOUS
10
89.9145899999999898
20
-108.3153959999999927
11
89.900117999999992
21
-108.4584689999999938
0
LINE
8
BLACK
6
CONTINUOUS
10
89.900117999999992
20
-108.4584689999999938
11
89.5554429999999968
21
-108.4584689999999938
0
LINE
8
BLACK
6
CONTINUOUS
10
89.5554429999999968
20
-108.4584689999999938
11
89.5573289999999957
21
-108.3853450000000009
0
LINE
8
BLACK
6
CONTINUOUS
10
89.5573289999999957
20
-108.3853450000000009
11
89.5718669999999975
21
-108.2513139999999936
0
LINE
8
BLACK
6
CONTINUOUS
10
89.5718669999999975
20
-108.2513139999999936
11
89.6178060000000016
21
-108.0790489999999977
0
LINE
8
BLACK
6
CONTINUOUS
10
89.6178060000000016
20
-108.0790489999999977
11
89.6882650000000012
21
-107.9385049999999922
0
LINE
8
BLACK
6
CONTINUOUS
10
89.6882650000000012
20
-107.9385049999999922
11
89.7782459999999958
21
-107.8265129999999914
0
LINE
8
BLACK
6
CONTINUOUS
10
89.7782459999999958
20
-107.8265129999999914
11
89.8827519999999964
21
-107.7399020000000007
0
LINE
8
BLACK
6
CONTINUOUS
10
89.8827519999999964
20
-107.7399020000000007
11
90.0360489999999913
21
-107.658424999999994
0
LINE
8
BLACK
6
CONTINUOUS
10
90.0360489999999913
20
-107.658424999999994
11
90.1944400000000002
21
-107.6089219999999926
0
LINE
8
BLACK
6
CONTINUOUS
10
90.1944400000000002
20
-107.6089219999999926
11
90.3460789999999889
21
-107.583880999999991
0
LINE
8
BLACK
6
CONTINUOUS
10
90.3460789999999889
20
-107.583880999999991
11
90.5080880000000008
21
-107.5755319999999955
0
LINE
8
BLACK
6
CONTINUOUS
10
90.5080880000000008
20
-107.5755319999999955
11
90.5526199999999903
21
-107.5763389999999902
0
LINE
8
BLACK
6
CONTINUOUS
10
86.3275719999999893
20
-104.8964029999999923
11
86.4443749999999937
21
-104.9149769999999933
0
LINE
8
BLACK
6
CONTINUOUS
10
86.4443749999999937
20
-104.9149769999999933
11
86.550383999999994
21
-104.9446169999999938
0
LINE
8
BLACK
6
CONTINUOUS
10
86.550383999999994
20
-104.9446169999999938
11
86.6460050000000024
21
-104.9842469999999963
0
LINE
8
BLACK
6
CONTINUOUS
10
86.6460050000000024
20
-104.9842469999999963
11
86.7316440000000028
21
-105.0327899999999914
0
LINE
8
BLACK
6
CONTINUOUS
10
86.7316440000000028
20
-105.0327899999999914
11
86.8077069999999935
21
-105.0891689999999983
0
LINE
8
BLACK
6
CONTINUOUS
10
86.8077069999999935
20
-105.0891689999999983
11
86.8746009999999984
21
-105.1523079999999908
0
LINE
8
BLACK
6
CONTINUOUS
10
86.8746009999999984
20
-105.1523079999999908
11
86.9586339999999893
21
-105.2573340000000002
0
LINE
8
BLACK
6
CONTINUOUS
10
86.9586339999999893
20
-105.2573340000000002
11
87.0243169999999964
21
-105.3715119999999956
0
LINE
8
BLACK
6
CONTINUOUS
10
87.0243169999999964
20
-105.3715119999999956
11
87.0730199999999996
21
-105.4912080000000003
0
LINE
8
BLACK
6
CONTINUOUS
10
87.0730199999999996
20
-105.4912080000000003
11
87.106111999999996
21
-105.6127879999999948
0
LINE
8
BLACK
6
CONTINUOUS
10
87.106111999999996
20
-105.6127879999999948
11
87.1249619999999965
21
-105.7326169999999905
0
LINE
8
BLACK
6
CONTINUOUS
10
87.1249619999999965
20
-105.7326169999999905
11
87.1309419999999903
21
-105.847061999999994
0
LINE
8
BLACK
6
CONTINUOUS
10
87.1309419999999903
20
-105.847061999999994
11
87.1302939999999921
21
-105.8843469999999911
0
LINE
8
BLACK
6
CONTINUOUS
10
87.1302939999999921
20
-105.8843469999999911
11
87.1201769999999982
21
-106.0008669999999995
0
LINE
8
BLACK
6
CONTINUOUS
10
87.1201769999999982
20
-106.0008669999999995
11
87.0967309999999912
21
-106.1215639999999922
0
LINE
8
BLACK
6
CONTINUOUS
10
87.0967309999999912
20
-106.1215639999999922
11
87.0585880000000003
21
-106.2428049999999899
0
LINE
8
BLACK
6
CONTINUOUS
10
87.0585880000000003
20
-106.2428049999999899
11
87.004376999999991
21
-106.3609579999999966
0
LINE
8
BLACK
6
CONTINUOUS
10
87.004376999999991
20
-106.3609579999999966
11
86.9327289999999948
21
-106.4723910000000018
0
LINE
8
BLACK
6
CONTINUOUS
10
86.9327289999999948
20
-106.4723910000000018
11
86.8746009999999984
21
-106.5411529999999942
0
LINE
8
BLACK
6
CONTINUOUS
10
86.8746009999999984
20
-106.5411529999999942
11
86.8077069999999935
21
-106.6042389999999926
0
LINE
8
BLACK
6
CONTINUOUS
10
86.8077069999999935
20
-106.6042389999999926
11
86.7316440000000028
21
-106.6605709999999902
0
LINE
8
BLACK
6
CONTINUOUS
10
86.7316440000000028
20
-106.6605709999999902
11
86.6460050000000024
21
-106.7090740000000011
0
LINE
8
BLACK
6
CONTINUOUS
10
86.6460050000000024
20
-106.7090740000000011
11
86.550383999999994
21
-106.7486719999999991
0
LINE
8
BLACK
6
CONTINUOUS
10
86.550383999999994
20
-106.7486719999999991
11
86.4443749999999937
21
-106.7782879999999892
0
LINE
8
BLACK
6
CONTINUOUS
10
86.4443749999999937
20
-106.7782879999999892
11
86.3275719999999893
21
-106.7968479999999971
0
LINE
8
BLACK
6
CONTINUOUS
10
86.3275719999999893
20
-106.7968479999999971
11
86.1995699999999943
21
-106.8032729999999901
0
LINE
8
BLACK
6
CONTINUOUS
10
86.1995699999999943
20
-106.8032729999999901
11
86.0716499999999911
21
-106.7968479999999971
0
LINE
8
BLACK
6
CONTINUOUS
10
86.0716499999999911
20
-106.7968479999999971
11
85.9549189999999896
21
-106.7782879999999892
0
LINE
8
BLACK
6
CONTINUOUS
10
85.9549189999999896
20
-106.7782879999999892
11
85.8489719999999892
21
-106.7486719999999991
0
LINE
8
BLACK
6
CONTINUOUS
10
85.8489719999999892
20
-106.7486719999999991
11
85.7534039999999891
21
-106.7090740000000011
0
LINE
8
BLACK
6
CONTINUOUS
10
85.7534039999999891
20
-106.7090740000000011
11
85.6678100000000029
21
-106.6605709999999902
0
LINE
8
BLACK
6
CONTINUOUS
10
85.6678100000000029
20
-106.6605709999999902
11
85.5917839999999899
21
-106.6042389999999926
0
LINE
8
BLACK
6
CONTINUOUS
10
85.5917839999999899
20
-106.6042389999999926
11
85.5249219999999895
21
-106.5411529999999942
0
LINE
8
BLACK
6
CONTINUOUS
10
85.5249219999999895
20
-106.5411529999999942
11
85.440922999999998
21
-106.4362179999999967
0
LINE
8
BLACK
6
CONTINUOUS
10
85.440922999999998
20
-106.4362179999999967
11
85.3752629999999897
21
-106.322141000000002
0
LINE
8
BLACK
6
CONTINUOUS
10
85.3752629999999897
20
-106.322141000000002
11
85.3265749999999912
21
-106.2025549999999896
0
LINE
8
BLACK
6
CONTINUOUS
10
85.3265749999999912
20
-106.2025549999999896
11
85.2934899999999914
21
-106.0810919999999982
0
LINE
8
BLACK
6
CONTINUOUS
10
85.2934899999999914
20
-106.0810919999999982
11
85.2746420000000001
21
-105.9613839999999954
0
LINE
8
BLACK
6
CONTINUOUS
10
85.2746420000000001
20
-105.9613839999999954
11
85.2686629999999894
21
-105.847061999999994
0
LINE
8
BLACK
6
CONTINUOUS
10
85.2686629999999894
20
-105.847061999999994
11
85.2693110000000019
21
-105.8097369999999984
0
LINE
8
BLACK
6
CONTINUOUS
10
85.2693110000000019
20
-105.8097369999999984
11
85.2794269999999983
21
-105.6930929999999904
0
LINE
8
BLACK
6
CONTINUOUS
10
85.2794269999999983
20
-105.6930929999999904
11
85.3028690000000012
21
-105.5722769999999997
0
LINE
8
BLACK
6
CONTINUOUS
10
85.3028690000000012
20
-105.5722769999999997
11
85.3410030000000006
21
-105.4509209999999939
0
LINE
8
BLACK
6
CONTINUOUS
10
85.3410030000000006
20
-105.4509209999999939
11
85.395196999999996
21
-105.33265999999999
0
LINE
8
BLACK
6
CONTINUOUS
10
85.395196999999996
20
-105.33265999999999
11
85.4668169999999918
21
-105.2211289999999906
0
LINE
8
BLACK
6
CONTINUOUS
10
85.4668169999999918
20
-105.2211289999999906
11
85.5249219999999895
21
-105.1523079999999908
0
LINE
8
BLACK
6
CONTINUOUS
10
85.5249219999999895
20
-105.1523079999999908
11
85.5917839999999899
21
-105.0891689999999983
0
LINE
8
BLACK
6
CONTINUOUS
10
85.5917839999999899
20
-105.0891689999999983
11
85.6678100000000029
21
-105.0327899999999914
0
LINE
8
BLACK
6
CONTINUOUS
10
85.6678100000000029
20
-105.0327899999999914
11
85.7534039999999891
21
-104.9842469999999963
0
LINE
8
BLACK
6
CONTINUOUS
10
85.7534039999999891
20
-104.9842469999999963
11
85.8489719999999892
21
-104.9446169999999938
0
LINE
8
BLACK
6
CONTINUOUS
10
85.8489719999999892
20
-104.9446169999999938
11
85.9549189999999896
21
-104.9149769999999933
0
LINE
8
BLACK
6
CONTINUOUS
10
85.9549189999999896
20
-104.9149769999999933
11
86.0716499999999911
21
-104.8964029999999923
0
LINE
8
BLACK
6
CONTINUOUS
10
86.0716499999999911
20
-104.8964029999999923
11
86.1995699999999943
21
-104.8899720000000002
0
LINE
8
BLACK
6
CONTINUOUS
10
86.1995699999999943
20
-104.8899720000000002
11
86.3275719999999893
21
-104.8964029999999923
0
LINE
8
BLACK
6
CONTINUOUS
10
86.1237339999999989
20
-105.1103189999999898
11
86.0174909999999926
21
-105.1287999999999982
0
LINE
8
BLACK
6
CONTINUOUS
10
86.0174909999999926
20
-105.1287999999999982
11
85.9206409999999892
21
-105.162115
0
LINE
8
BLACK
6
CONTINUOUS
10
85.9206409999999892
20
-105.162115
11
85.8336029999999965
21
-105.2092990000000015
0
LINE
8
BLACK
6
CONTINUOUS
10
85.8336029999999965
20
-105.2092990000000015
11
85.7568009999999958
21
-105.2693900000000014
0
LINE
8
BLACK
6
CONTINUOUS
10
85.7568009999999958
20
-105.2693900000000014
11
85.6906559999999899
21
-105.341425000000001
0
LINE
8
BLACK
6
CONTINUOUS
10
85.6906559999999899
20
-105.341425000000001
11
85.6355909999999909
21
-105.4244410000000016
0
LINE
8
BLACK
6
CONTINUOUS
10
85.6355909999999909
20
-105.4244410000000016
11
85.5920279999999991
21
-105.517476000000002
0
LINE
8
BLACK
6
CONTINUOUS
10
85.5920279999999991
20
-105.517476000000002
11
85.5603880000000032
21
-105.6195669999999893
0
LINE
8
BLACK
6
CONTINUOUS
10
85.5603880000000032
20
-105.6195669999999893
11
85.5410949999999985
21
-105.7297499999999957
0
LINE
8
BLACK
6
CONTINUOUS
10
85.5410949999999985
20
-105.7297499999999957
11
85.5345700000000022
21
-105.847061999999994
0
LINE
8
BLACK
6
CONTINUOUS
10
85.5345700000000022
20
-105.847061999999994
11
85.5374809999999997
21
-105.9259380000000021
0
LINE
8
BLACK
6
CONTINUOUS
10
85.5374809999999997
20
-105.9259380000000021
11
85.5525650000000013
21
-106.0385069999999956
0
LINE
8
BLACK
6
CONTINUOUS
10
85.5525650000000013
20
-106.0385069999999956
11
85.5801349999999985
21
-106.1433229999999952
0
LINE
8
BLACK
6
CONTINUOUS
10
85.5801349999999985
20
-106.1433229999999952
11
85.6197710000000001
21
-106.2394219999999905
0
LINE
8
BLACK
6
CONTINUOUS
10
85.6197710000000001
20
-106.2394219999999905
11
85.6710489999999965
21
-106.325839000000002
0
LINE
8
BLACK
6
CONTINUOUS
10
85.6710489999999965
20
-106.325839000000002
11
85.7335470000000015
21
-106.401607999999996
0
LINE
8
BLACK
6
CONTINUOUS
10
85.7335470000000015
20
-106.401607999999996
11
85.8068439999999981
21
-106.4657660000000021
0
LINE
8
BLACK
6
CONTINUOUS
10
85.8068439999999981
20
-106.4657660000000021
11
85.8905170000000027
21
-106.5173459999999892
0
LINE
8
BLACK
6
CONTINUOUS
10
85.8905170000000027
20
-106.5173459999999892
11
85.9841440000000006
21
-106.555382999999992
0
LINE
8
BLACK
6
CONTINUOUS
10
85.9841440000000006
20
-106.555382999999992
11
86.087301999999994
21
-106.5789139999999975
0
LINE
8
BLACK
6
CONTINUOUS
10
86.087301999999994
20
-106.5789139999999975
11
86.1995699999999943
21
-106.5869719999999887
0
LINE
8
BLACK
6
CONTINUOUS
10
86.1995699999999943
20
-106.5869719999999887
11
86.2754889999999932
21
-106.5833659999999981
0
LINE
8
BLACK
6
CONTINUOUS
10
86.2754889999999932
20
-106.5833659999999981
11
86.3818349999999953
21
-106.5648860000000013
0
LINE
8
BLACK
6
CONTINUOUS
10
86.3818349999999953
20
-106.5648860000000013
11
86.4787689999999998
21
-106.5315769999999986
0
LINE
8
BLACK
6
CONTINUOUS
10
86.4787689999999998
20
-106.5315769999999986
11
86.5658710000000013
21
-106.4844039999999978
0
LINE
8
BLACK
6
CONTINUOUS
10
86.5658710000000013
20
-106.4844039999999978
11
86.642721999999992
21
-106.4243319999999926
0
LINE
8
BLACK
6
CONTINUOUS
10
86.642721999999992
20
-106.4243319999999926
11
86.7089009999999973
21
-106.3523259999999908
0
LINE
8
BLACK
6
CONTINUOUS
10
86.7089009999999973
20
-106.3523259999999908
11
86.7639899999999926
21
-106.2693510000000003
0
LINE
8
BLACK
6
CONTINUOUS
10
86.7639899999999926
20
-106.2693510000000003
11
86.8075669999999917
21
-106.1763720000000006
0
LINE
8
BLACK
6
CONTINUOUS
10
86.8075669999999917
20
-106.1763720000000006
11
86.8392130000000009
21
-106.0743539999999996
0
LINE
8
BLACK
6
CONTINUOUS
10
86.8392130000000009
20
-106.0743539999999996
11
86.858508999999998
21
-105.9642629999999883
0
LINE
8
BLACK
6
CONTINUOUS
10
86.858508999999998
20
-105.9642629999999883
11
86.8650339999999943
21
-105.847061999999994
0
LINE
8
BLACK
6
CONTINUOUS
10
86.8650339999999943
20
-105.847061999999994
11
86.8621239999999943
21
-105.7681089999999955
0
LINE
8
BLACK
6
CONTINUOUS
10
86.8621239999999943
20
-105.7681089999999955
11
86.8470379999999977
21
-105.6554429999999911
0
LINE
8
BLACK
6
CONTINUOUS
10
86.8470379999999977
20
-105.6554429999999911
11
86.8194620000000015
21
-105.550547999999992
0
LINE
8
BLACK
6
CONTINUOUS
10
86.8194620000000015
20
-105.550547999999992
11
86.7798149999999993
21
-105.454386999999997
0
LINE
8
BLACK
6
CONTINUOUS
10
86.7798149999999993
20
-105.454386999999997
11
86.7285169999999965
21
-105.3679240000000021
0
LINE
8
BLACK
6
CONTINUOUS
10
86.7285169999999965
20
-105.3679240000000021
11
86.6659879999999987
21
-105.292121999999992
0
LINE
8
BLACK
6
CONTINUOUS
10
86.6659879999999987
20
-105.292121999999992
11
86.592647999999997
21
-105.2279419999999988
0
LINE
8
BLACK
6
CONTINUOUS
10
86.592647999999997
20
-105.2279419999999988
11
86.5089159999999993
21
-105.1763490000000019
0
LINE
8
BLACK
6
CONTINUOUS
10
86.5089159999999993
20
-105.1763490000000019
11
86.4152119999999968
21
-105.1383039999999909
0
LINE
8
BLACK
6
CONTINUOUS
10
86.4152119999999968
20
-105.1383039999999909
11
86.3119569999999925
21
-105.1147720000000021
0
LINE
8
BLACK
6
CONTINUOUS
10
86.3119569999999925
20
-105.1147720000000021
11
86.1995699999999943
21
-105.1067129999999992
0
LINE
8
BLACK
6
CONTINUOUS
10
86.1995699999999943
20
-105.1067129999999992
11
86.1237339999999989
21
-105.1103189999999898
0
LINE
8
BLACK
6
CONTINUOUS
10
89.620166999999995
20
-106.0853460000000013
11
89.6230639999999994
21
-106.1557490000000001
0
LINE
8
BLACK
6
CONTINUOUS
10
89.6230639999999994
20
-106.1557490000000001
11
89.637644999999992
21
-106.249418999999989
0
LINE
8
BLACK
6
CONTINUOUS
10
89.637644999999992
20
-106.249418999999989
11
89.674082999999996
21
-106.3533819999999963
0
LINE
8
BLACK
6
CONTINUOUS
10
89.674082999999996
20
-106.3533819999999963
11
89.7270010000000013
21
-106.4353149999999886
0
LINE
8
BLACK
6
CONTINUOUS
10
89.7270010000000013
20
-106.4353149999999886
11
89.7931829999999991
21
-106.4972789999999918
0
LINE
8
BLACK
6
CONTINUOUS
10
89.7931829999999991
20
-106.4972789999999918
11
89.8896689999999978
21
-106.549790999999999
0
LINE
8
BLACK
6
CONTINUOUS
10
89.8896689999999978
20
-106.549790999999999
11
89.9955829999999963
21
-106.5783469999999937
0
LINE
8
BLACK
6
CONTINUOUS
10
89.9955829999999963
20
-106.5783469999999937
11
90.1046469999999999
21
-106.5869719999999887
0
LINE
8
BLACK
6
CONTINUOUS
10
90.1046469999999999
20
-106.5869719999999887
11
90.1941929999999985
21
-106.5817639999999926
0
LINE
8
BLACK
6
CONTINUOUS
10
90.1941929999999985
20
-106.5817639999999926
11
90.30471
21
-106.5582979999999935
0
LINE
8
BLACK
6
CONTINUOUS
10
90.30471
20
-106.5582979999999935
11
90.4073509999999914
21
-106.5120000000000005
0
LINE
8
BLACK
6
CONTINUOUS
10
90.4073509999999914
20
-106.5120000000000005
11
90.4792520000000025
21
-106.455648999999994
0
LINE
8
BLACK
6
CONTINUOUS
10
90.4792520000000025
20
-106.455648999999994
11
90.538330000000002
21
-106.3797589999999929
0
LINE
8
BLACK
6
CONTINUOUS
10
90.538330000000002
20
-106.3797589999999929
11
90.5811259999999976
21
-106.2821399999999983
0
LINE
8
BLACK
6
CONTINUOUS
10
90.5811259999999976
20
-106.2821399999999983
11
90.6004579999999891
21
-106.1933499999999952
0
LINE
8
BLACK
6
CONTINUOUS
10
90.6004579999999891
20
-106.1933499999999952
11
90.6072259999999972
21
-106.0901819999999987
0
LINE
8
BLACK
6
CONTINUOUS
10
90.6072259999999972
20
-106.0901819999999987
11
90.6072259999999972
21
-104.9462460000000021
0
LINE
8
BLACK
6
CONTINUOUS
10
90.6072259999999972
20
-104.9462460000000021
11
90.8652439999999899
21
-104.9462460000000021
0
LINE
8
BLACK
6
CONTINUOUS
10
90.8652439999999899
20
-104.9462460000000021
11
90.8652439999999899
21
-106.1205169999999924
0
LINE
8
BLACK
6
CONTINUOUS
10
90.8652439999999899
20
-106.1205169999999924
11
90.8587670000000003
21
-106.2230009999999965
0
LINE
8
BLACK
6
CONTINUOUS
10
90.8587670000000003
20
-106.2230009999999965
11
90.8392209999999949
21
-106.3211479999999938
0
LINE
8
BLACK
6
CONTINUOUS
10
90.8392209999999949
20
-106.3211479999999938
11
90.8064339999999959
21
-106.4137029999999982
0
LINE
8
BLACK
6
CONTINUOUS
10
90.8064339999999959
20
-106.4137029999999982
11
90.7602349999999944
21
-106.4994129999999899
0
LINE
8
BLACK
6
CONTINUOUS
10
90.7602349999999944
20
-106.4994129999999899
11
90.7004499999999894
21
-106.5770219999999995
0
LINE
8
BLACK
6
CONTINUOUS
10
90.7004499999999894
20
-106.5770219999999995
11
90.6269080000000002
21
-106.645276999999993
0
LINE
8
BLACK
6
CONTINUOUS
10
90.6269080000000002
20
-106.645276999999993
11
90.5394369999999924
21
-106.7029249999999934
0
LINE
8
BLACK
6
CONTINUOUS
10
90.5394369999999924
20
-106.7029249999999934
11
90.4378650000000022
21
-106.7487099999999884
0
LINE
8
BLACK
6
CONTINUOUS
10
90.4378650000000022
20
-106.7487099999999884
11
90.3220199999999949
21
-106.7813790000000012
0
LINE
8
BLACK
6
CONTINUOUS
10
90.3220199999999949
20
-106.7813790000000012
11
90.1917289999999952
21
-106.7996769999999884
0
LINE
8
BLACK
6
CONTINUOUS
10
90.1917289999999952
20
-106.7996769999999884
11
90.0967579999999941
21
-106.8032729999999901
0
LINE
8
BLACK
6
CONTINUOUS
10
90.0967579999999941
20
-106.8032729999999901
11
90.0038499999999999
21
-106.7996849999999966
0
LINE
8
BLACK
6
CONTINUOUS
10
90.0038499999999999
20
-106.7996849999999966
11
89.8771259999999899
21
-106.7815049999999957
0
LINE
8
BLACK
6
CONTINUOUS
10
89.8771259999999899
20
-106.7815049999999957
11
89.7652519999999896
21
-106.7492249999999956
0
LINE
8
BLACK
6
CONTINUOUS
10
89.7652519999999896
20
-106.7492249999999956
11
89.6678699999999935
21
-106.7042639999999949
0
LINE
8
BLACK
6
CONTINUOUS
10
89.6678699999999935
20
-106.7042639999999949
11
89.5846269999999976
21
-106.6480389999999971
0
LINE
8
BLACK
6
CONTINUOUS
10
89.5846269999999976
20
-106.6480389999999971
11
89.5151659999999936
21
-106.5819659999999942
0
LINE
8
BLACK
6
CONTINUOUS
10
89.5151659999999936
20
-106.5819659999999942
11
89.4591309999999993
21
-106.5074630000000013
0
LINE
8
BLACK
6
CONTINUOUS
10
89.4591309999999993
20
-106.5074630000000013
11
89.416167999999999
21
-106.4259459999999962
0
LINE
8
BLACK
6
CONTINUOUS
10
89.416167999999999
20
-106.4259459999999962
11
89.3859199999999987
21
-106.3388339999999914
0
LINE
8
BLACK
6
CONTINUOUS
10
89.3859199999999987
20
-106.3388339999999914
11
89.3680329999999969
21
-106.2475419999999957
0
LINE
8
BLACK
6
CONTINUOUS
10
89.3680329999999969
20
-106.2475419999999957
11
89.3621490000000023
21
-106.1534889999999933
0
LINE
8
BLACK
6
CONTINUOUS
10
89.3621490000000023
20
-106.1534889999999933
11
89.3621490000000023
21
-104.9462460000000021
0
LINE
8
BLACK
6
CONTINUOUS
10
89.3621490000000023
20
-104.9462460000000021
11
89.620166999999995
21
-104.9462460000000021
0
LINE
8
BLACK
6
CONTINUOUS
10
89.620166999999995
20
-104.9462460000000021
11
89.620166999999995
21
-106.0853460000000013
0
LINE
8
BLACK
6
CONTINUOUS
10
84.0597829999999959
20
-106.4673899999999946
11
84.0648879999999963
21
-106.4673899999999946
0
LINE
8
BLACK
6
CONTINUOUS
10
84.0648879999999963
20
-106.4673899999999946
11
84.6078399999999959
21
-104.9462460000000021
0
LINE
8
BLACK
6
CONTINUOUS
10
84.6078399999999959
20
-104.9462460000000021
11
84.9749119999999891
21
-104.9462460000000021
0
LINE
8
BLACK
6
CONTINUOUS
10
84.9749119999999891
20
-104.9462460000000021
11
84.9749119999999891
21
-106.7469999999999999
0
LINE
8
BLACK
6
CONTINUOUS
10
84.9749119999999891
20
-106.7469999999999999
11
84.7247830000000022
21
-106.7469999999999999
0
LINE
8
BLACK
6
CONTINUOUS
10
84.7247830000000022
20
-106.7469999999999999
11
84.7247830000000022
21
-105.6839569999999924
0
LINE
8
BLACK
6
CONTINUOUS
10
84.7247830000000022
20
-105.6839569999999924
11
84.7254089999999991
21
-105.6269089999999977
0
LINE
8
BLACK
6
CONTINUOUS
10
84.7254089999999991
20
-105.6269089999999977
11
84.7268600000000021
21
-105.5342969999999951
0
LINE
8
BLACK
6
CONTINUOUS
10
84.7268600000000021
20
-105.5342969999999951
11
84.7282730000000015
21
-105.4378289999999936
0
LINE
8
BLACK
6
CONTINUOUS
10
84.7282730000000015
20
-105.4378289999999936
11
84.729416999999998
21
-105.3354250000000008
0
LINE
8
BLACK
6
CONTINUOUS
10
84.729416999999998
20
-105.3354250000000008
11
84.7298880000000025
21
-105.2364060000000023
0
LINE
8
BLACK
6
CONTINUOUS
10
84.7298880000000025
20
-105.2364060000000023
11
84.7247830000000022
21
-105.2364060000000023
0
LINE
8
BLACK
6
CONTINUOUS
10
84.7247830000000022
20
-105.2364060000000023
11
84.1873999999999967
21
-106.7469999999999999
0
LINE
8
BLACK
6
CONTINUOUS
10
84.1873999999999967
20
-106.7469999999999999
11
83.9321659999999952
21
-106.7469999999999999
0
LINE
8
BLACK
6
CONTINUOUS
10
83.9321659999999952
20
-106.7469999999999999
11
83.3947829999999897
21
-105.2386049999999926
0
LINE
8
BLACK
6
CONTINUOUS
10
83.3947829999999897
20
-105.2386049999999926
11
83.389214999999993
21
-105.2386049999999926
0
LINE
8
BLACK
6
CONTINUOUS
10
83.389214999999993
20
-105.2386049999999926
11
83.3893520000000024
21
-105.2865460000000013
0
LINE
8
BLACK
6
CONTINUOUS
10
83.3893520000000024
20
-105.2865460000000013
11
83.3902879999999982
21
-105.3876029999999986
0
LINE
8
BLACK
6
CONTINUOUS
10
83.3902879999999982
20
-105.3876029999999986
11
83.3917379999999895
21
-105.4877169999999893
0
LINE
8
BLACK
6
CONTINUOUS
10
83.3917379999999895
20
-105.4877169999999893
11
83.3934919999999948
21
-105.5907769999999886
0
LINE
8
BLACK
6
CONTINUOUS
10
83.3934919999999948
20
-105.5907769999999886
11
83.3947829999999897
21
-105.6839569999999924
0
LINE
8
BLACK
6
CONTINUOUS
10
83.3947829999999897
20
-105.6839569999999924
11
83.3947829999999897
21
-106.7469999999999999
0
LINE
8
BLACK
6
CONTINUOUS
10
83.3947829999999897
20
-106.7469999999999999
11
83.1446540000000027
21
-106.7469999999999999
0
LINE
8
BLACK
6
CONTINUOUS
10
83.1446540000000027
20
-106.7469999999999999
11
83.1446540000000027
21
-104.9462460000000021
0
LINE
8
BLACK
6
CONTINUOUS
10
83.1446540000000027
20
-104.9462460000000021
11
83.5145109999999988
21
-104.9462460000000021
0
LINE
8
BLACK
6
CONTINUOUS
10
83.5145109999999988
20
-104.9462460000000021
11
84.0597829999999959
21
-106.4673899999999946
0
LINE
8
BLACK
6
CONTINUOUS
10
88.3134170000000012
20
-104.9503819999999905
11
88.4411319999999961
21
-104.9716480000000018
0
LINE
8
BLACK
6
CONTINUOUS
10
88.4411319999999961
20
-104.9716480000000018
11
88.5578000000000003
21
-105.0101310000000012
0
LINE
8
BLACK
6
CONTINUOUS
10
88.5578000000000003
20
-105.0101310000000012
11
88.6628559999999908
21
-105.064865999999995
0
LINE
8
BLACK
6
CONTINUOUS
10
88.6628559999999908
20
-105.064865999999995
11
88.7557359999999989
21
-105.1348879999999895
0
LINE
8
BLACK
6
CONTINUOUS
10
88.7557359999999989
20
-105.1348879999999895
11
88.8358739999999898
21
-105.2192309999999935
0
LINE
8
BLACK
6
CONTINUOUS
10
88.8358739999999898
20
-105.2192309999999935
11
88.9027079999999899
21
-105.3169319999999942
0
LINE
8
BLACK
6
CONTINUOUS
10
88.9027079999999899
20
-105.3169319999999942
11
88.9556719999999927
21
-105.4270250000000004
0
LINE
8
BLACK
6
CONTINUOUS
10
88.9556719999999927
20
-105.4270250000000004
11
88.9942029999999988
21
-105.5485439999999926
0
LINE
8
BLACK
6
CONTINUOUS
10
88.9942029999999988
20
-105.5485439999999926
11
89.0115919999999932
21
-105.635429000000002
0
LINE
8
BLACK
6
CONTINUOUS
10
89.0115919999999932
20
-105.635429000000002
11
89.0221480000000014
21
-105.7266769999999951
0
LINE
8
BLACK
6
CONTINUOUS
10
89.0221480000000014
20
-105.7266769999999951
11
89.0257039999999904
21
-105.8220029999999952
0
LINE
8
BLACK
6
CONTINUOUS
10
89.0257039999999904
20
-105.8220029999999952
11
89.0234609999999975
21
-105.8988279999999946
0
LINE
8
BLACK
6
CONTINUOUS
10
89.0234609999999975
20
-105.8988279999999946
11
89.0110990000000015
21
-106.0172290000000004
0
LINE
8
BLACK
6
CONTINUOUS
10
89.0110990000000015
20
-106.0172290000000004
11
88.9868179999999995
21
-106.136611000000002
0
LINE
8
BLACK
6
CONTINUOUS
10
88.9868179999999995
20
-106.136611000000002
11
88.949350999999993
21
-106.2538089999999897
0
LINE
8
BLACK
6
CONTINUOUS
10
88.949350999999993
20
-106.2538089999999897
11
88.8974369999999965
21
-106.3656549999999896
0
LINE
8
BLACK
6
CONTINUOUS
10
88.8974369999999965
20
-106.3656549999999896
11
88.8298089999999974
21
-106.4689819999999969
0
LINE
8
BLACK
6
CONTINUOUS
10
88.8298089999999974
20
-106.4689819999999969
11
88.745205999999996
21
-106.5606229999999925
0
LINE
8
BLACK
6
CONTINUOUS
10
88.745205999999996
20
-106.5606229999999925
11
88.642360999999994
21
-106.6374129999999951
0
LINE
8
BLACK
6
CONTINUOUS
10
88.642360999999994
20
-106.6374129999999951
11
88.5200109999999967
21
-106.6961829999999907
0
LINE
8
BLACK
6
CONTINUOUS
10
88.5200109999999967
20
-106.6961829999999907
11
88.4269850000000019
21
-106.7237889999999965
0
LINE
8
BLACK
6
CONTINUOUS
10
88.4269850000000019
20
-106.7237889999999965
11
88.3243530000000021
21
-106.7410399999999981
0
LINE
8
BLACK
6
CONTINUOUS
10
88.3243530000000021
20
-106.7410399999999981
11
88.2117409999999893
21
-106.7469999999999999
0
LINE
8
BLACK
6
CONTINUOUS
10
88.2117409999999893
20
-106.7469999999999999
11
87.4483599999999939
21
-106.7469999999999999
0
LINE
8
BLACK
6
CONTINUOUS
10
87.4483599999999939
20
-106.7469999999999999
11
87.4483599999999939
21
-106.5381719999999888
0
LINE
8
BLACK
6
CONTINUOUS
10
87.4483599999999939
20
-106.5381719999999888
11
87.4483599999999939
21
-104.9462460000000021
0
LINE
8
BLACK
6
CONTINUOUS
10
87.4483599999999939
20
-104.9462460000000021
11
88.2224140000000006
21
-104.9462460000000021
0
LINE
8
BLACK
6
CONTINUOUS
10
88.2224140000000006
20
-104.9462460000000021
11
88.3134170000000012
21
-104.9503819999999905
0
LINE
8
BLACK
6
CONTINUOUS
10
87.7063780000000008
20
-106.5381719999999888
11
88.2066359999999889
21
-106.5381719999999888
0
LINE
8
BLACK
6
CONTINUOUS
10
88.2066359999999889
20
-106.5381719999999888
11
88.2377010000000013
21
-106.5374470000000002
0
LINE
8
BLACK
6
CONTINUOUS
10
88.2377010000000013
20
-106.5374470000000002
11
88.35474099999999
21
-106.5201739999999972
0
LINE
8
BLACK
6
CONTINUOUS
10
88.35474099999999
20
-106.5201739999999972
11
88.4593349999999958
21
-106.4802799999999934
0
LINE
8
BLACK
6
CONTINUOUS
10
88.4593349999999958
20
-106.4802799999999934
11
88.5502970000000005
21
-106.4182639999999935
0
LINE
8
BLACK
6
CONTINUOUS
10
88.5502970000000005
20
-106.4182639999999935
11
88.6264439999999922
21
-106.3346269999999976
0
LINE
8
BLACK
6
CONTINUOUS
10
88.6264439999999922
20
-106.3346269999999976
11
88.6731169999999906
21
-106.2580109999999962
0
LINE
8
BLACK
6
CONTINUOUS
10
88.6731169999999906
20
-106.2580109999999962
11
88.7102900000000005
21
-106.1697240000000022
0
LINE
8
BLACK
6
CONTINUOUS
10
88.7102900000000005
20
-106.1697240000000022
11
88.7374599999999987
21
-106.0699779999999919
0
LINE
8
BLACK
6
CONTINUOUS
10
88.7374599999999987
20
-106.0699779999999919
11
88.7541299999999893
21
-105.9589829999999893
0
LINE
8
BLACK
6
CONTINUOUS
10
88.7541299999999893
20
-105.9589829999999893
11
88.7597969999999918
21
-105.8369509999999991
0
LINE
8
BLACK
6
CONTINUOUS
10
88.7597969999999918
20
-105.8369509999999991
11
88.7591529999999977
21
-105.7951169999999905
0
LINE
8
BLACK
6
CONTINUOUS
10
88.7591529999999977
20
-105.7951169999999905
11
88.7496199999999931
21
-105.6775329999999968
0
LINE
8
BLACK
6
CONTINUOUS
10
88.7496199999999931
20
-105.6775329999999968
11
88.7290339999999986
21
-105.5718399999999946
0
LINE
8
BLACK
6
CONTINUOUS
10
88.7290339999999986
20
-105.5718399999999946
11
88.6978439999999893
21
-105.4780529999999885
0
LINE
8
BLACK
6
CONTINUOUS
10
88.6978439999999893
20
-105.4780529999999885
11
88.65649599999999
21
-105.3961869999999976
0
LINE
8
BLACK
6
CONTINUOUS
10
88.65649599999999
20
-105.3961869999999976
11
88.5863389999999953
21
-105.3056019999999933
0
LINE
8
BLACK
6
CONTINUOUS
10
88.5863389999999953
20
-105.3056019999999933
11
88.4999799999999937
21
-105.2362729999999971
0
LINE
8
BLACK
6
CONTINUOUS
10
88.4999799999999937
20
-105.2362729999999971
11
88.3984799999999922
21
-105.1882359999999892
0
LINE
8
BLACK
6
CONTINUOUS
10
88.3984799999999922
20
-105.1882359999999892
11
88.282898000000003
21
-105.1615269999999924
0
LINE
8
BLACK
6
CONTINUOUS
10
88.282898000000003
20
-105.1615269999999924
11
88.1876099999999923
21
-105.1555129999999991
0
LINE
8
BLACK
6
CONTINUOUS
10
88.1876099999999923
20
-105.1555129999999991
11
87.7063780000000008
21
-105.1555129999999991
0
LINE
8
BLACK
6
CONTINUOUS
10
87.7063780000000008
20
-105.1555129999999991
11
87.7063780000000008
21
-106.5381719999999888
0
LINE
8
BLACK
6
CONTINUOUS
10
91.5316359999999918
20
-106.530698000000001
11
92.5001319999999936
21
-106.530698000000001
0
LINE
8
BLACK
6
CONTINUOUS
10
92.5001319999999936
20
-106.530698000000001
11
92.5001319999999936
21
-106.7469999999999999
0
LINE
8
BLACK
6
CONTINUOUS
10
92.5001319999999936
20
-106.7469999999999999
11
91.273617999999999
21
-106.7469999999999999
0
LINE
8
BLACK
6
CONTINUOUS
10
91.273617999999999
20
-106.7469999999999999
11
91.273617999999999
21
-104.9462460000000021
0
LINE
8
BLACK
6
CONTINUOUS
10
91.273617999999999
20
-104.9462460000000021
11
91.5316359999999918
21
-104.9462460000000021
0
LINE
8
BLACK
6
CONTINUOUS
10
91.5316359999999918
20
-104.9462460000000021
11
91.5316359999999918
21
-106.530698000000001
0
LINE
8
BLACK
6
CONTINUOUS
10
155.2949439999999868
20
-103.9624340000000018
11
155.4453029999999956
21
-103.9750629999999916
0
LINE
8
BLACK
6
CONTINUOUS
10
155.4453029999999956
20
-103.9750629999999916
11
155.625583000000006
21
-104.0140940000000001
0
LINE
8
BLACK
6
CONTINUOUS
10
155.625583000000006
20
-104.0140940000000001
11
155.7816139999999905
21
-104.0765090000000015
0
LINE
8
BLACK
6
CONTINUOUS
10
155.7816139999999905
20
-104.0765090000000015
11
155.9121250000000032
21
-104.160152999999994
0
LINE
8
BLACK
6
CONTINUOUS
10
155.9121250000000032
20
-104.160152999999994
11
156.015845999999982
21
-104.2628689999999949
0
LINE
8
BLACK
6
CONTINUOUS
10
156.015845999999982
20
-104.2628689999999949
11
156.0915059999999812
21
-104.3825029999999998
0
LINE
8
BLACK
6
CONTINUOUS
10
156.0915059999999812
20
-104.3825029999999998
11
156.137833999999998
21
-104.5168959999999885
0
LINE
8
BLACK
6
CONTINUOUS
10
156.137833999999998
20
-104.5168959999999885
11
156.1535590000000013
21
-104.6638939999999991
0
LINE
8
BLACK
6
CONTINUOUS
10
156.1535590000000013
20
-104.6638939999999991
11
156.1438650000000052
21
-104.784199000000001
0
LINE
8
BLACK
6
CONTINUOUS
10
156.1438650000000052
20
-104.784199000000001
11
156.0980409999999949
21
-104.9346800000000002
0
LINE
8
BLACK
6
CONTINUOUS
10
156.0980409999999949
20
-104.9346800000000002
11
156.0244160000000022
21
-105.0513249999999914
0
LINE
8
BLACK
6
CONTINUOUS
10
156.0244160000000022
20
-105.0513249999999914
11
155.917995999999988
21
-105.1478449999999896
0
LINE
8
BLACK
6
CONTINUOUS
10
155.917995999999988
20
-105.1478449999999896
11
155.7754709999999818
21
-105.2151989999999984
0
LINE
8
BLACK
6
CONTINUOUS
10
155.7754709999999818
20
-105.2151989999999984
11
155.7754709999999818
21
-105.2231129999999979
0
LINE
8
BLACK
6
CONTINUOUS
10
155.7754709999999818
20
-105.2231129999999979
11
155.8786429999999825
21
-105.259059999999991
0
LINE
8
BLACK
6
CONTINUOUS
10
155.8786429999999825
20
-105.259059999999991
11
156.0161310000000014
21
-105.3323460000000011
0
LINE
8
BLACK
6
CONTINUOUS
10
156.0161310000000014
20
-105.3323460000000011
11
156.1284629999999822
21
-105.4315829999999892
0
LINE
8
BLACK
6
CONTINUOUS
10
156.1284629999999822
20
-105.4315829999999892
11
156.2106569999999977
21
-105.5598239999999919
0
LINE
8
BLACK
6
CONTINUOUS
10
156.2106569999999977
20
-105.5598239999999919
11
156.2525329999999997
21
-105.691047999999995
0
LINE
8
BLACK
6
CONTINUOUS
10
156.2525329999999997
20
-105.691047999999995
11
156.2671320000000037
21
-105.8462990000000019
0
LINE
8
BLACK
6
CONTINUOUS
10
156.2671320000000037
20
-105.8462990000000019
11
156.2523149999999816
21
-106.0090999999999894
0
LINE
8
BLACK
6
CONTINUOUS
10
156.2523149999999816
20
-106.0090999999999894
11
156.2068419999999946
21
-106.1654649999999975
0
LINE
8
BLACK
6
CONTINUOUS
10
156.2068419999999946
20
-106.1654649999999975
11
156.1291879999999992
21
-106.3106849999999923
0
LINE
8
BLACK
6
CONTINUOUS
10
156.1291879999999992
20
-106.3106849999999923
11
156.0178209999999979
21
-106.4400559999999984
0
LINE
8
BLACK
6
CONTINUOUS
10
156.0178209999999979
20
-106.4400559999999984
11
155.871216000000004
21
-106.5488699999999938
0
LINE
8
BLACK
6
CONTINUOUS
10
155.871216000000004
20
-106.5488699999999938
11
155.7372159999999894
21
-106.6141590000000008
0
LINE
8
BLACK
6
CONTINUOUS
10
155.7372159999999894
20
-106.6141590000000008
11
155.5818889999999897
21
-106.6632529999999974
0
LINE
8
BLACK
6
CONTINUOUS
10
155.5818889999999897
20
-106.6632529999999974
11
155.4045909999999822
21
-106.6941649999999981
0
LINE
8
BLACK
6
CONTINUOUS
10
155.4045909999999822
20
-106.6941649999999981
11
155.2046760000000063
21
-106.7049099999999981
0
LINE
8
BLACK
6
CONTINUOUS
10
155.2046760000000063
20
-106.7049099999999981
11
155.1045299999999827
21
-106.7014489999999967
0
LINE
8
BLACK
6
CONTINUOUS
10
155.1045299999999827
20
-106.7014489999999967
11
154.9552070000000015
21
-106.6827380000000005
0
LINE
8
BLACK
6
CONTINUOUS
10
154.9552070000000015
20
-106.6827380000000005
11
154.8040249999999958
21
-106.6453559999999925
0
LINE
8
BLACK
6
CONTINUOUS
10
154.8040249999999958
20
-106.6453559999999925
11
154.6580600000000061
21
-106.5881859999999932
0
LINE
8
BLACK
6
CONTINUOUS
10
154.6580600000000061
20
-106.5881859999999932
11
154.5994129999999984
21
-106.5573660000000018
0
LINE
8
BLACK
6
CONTINUOUS
10
154.5994129999999984
20
-106.5573660000000018
11
154.475658999999979
21
-106.4660359999999883
0
LINE
8
BLACK
6
CONTINUOUS
10
154.475658999999979
20
-106.4660359999999883
11
154.3813209999999856
21
-106.3571230000000014
0
LINE
8
BLACK
6
CONTINUOUS
10
154.3813209999999856
20
-106.3571230000000014
11
154.3123400000000061
21
-106.2341419999999914
0
LINE
8
BLACK
6
CONTINUOUS
10
154.3123400000000061
20
-106.2341419999999914
11
154.2646589999999946
21
-106.1006110000000007
0
LINE
8
BLACK
6
CONTINUOUS
10
154.2646589999999946
20
-106.1006110000000007
11
154.234217000000001
21
-105.9600459999999913
0
LINE
8
BLACK
6
CONTINUOUS
10
154.234217000000001
20
-105.9600459999999913
11
154.2169580000000053
21
-105.8159639999999939
0
LINE
8
BLACK
6
CONTINUOUS
10
154.2169580000000053
20
-105.8159639999999939
11
154.599441999999982
21
-105.8159639999999939
0
LINE
8
BLACK
6
CONTINUOUS
10
154.599441999999982
20
-105.8159639999999939
11
154.6025259999999832
21
-105.8640039999999942
0
LINE
8
BLACK
6
CONTINUOUS
10
154.6025259999999832
20
-105.8640039999999942
11
154.6257750000000044
21
-106.014285000000001
0
LINE
8
BLACK
6
CONTINUOUS
10
154.6257750000000044
20
-106.014285000000001
11
154.6831809999999905
21
-106.1606349999999992
0
LINE
8
BLACK
6
CONTINUOUS
10
154.6831809999999905
20
-106.1606349999999992
11
154.7693219999999883
21
-106.2673799999999886
0
LINE
8
BLACK
6
CONTINUOUS
10
154.7693219999999883
20
-106.2673799999999886
11
154.9007309999999791
21
-106.3498439999999903
0
LINE
8
BLACK
6
CONTINUOUS
10
154.9007309999999791
20
-106.3498439999999903
11
155.0450329999999894
21
-106.3917519999999968
0
LINE
8
BLACK
6
CONTINUOUS
10
155.0450329999999894
20
-106.3917519999999968
11
155.2295890000000043
21
-106.4068359999999984
0
LINE
8
BLACK
6
CONTINUOUS
10
155.2295890000000043
20
-106.4068359999999984
11
155.3657529999999838
21
-106.3972219999999993
0
LINE
8
BLACK
6
CONTINUOUS
10
155.3657529999999838
20
-106.3972219999999993
11
155.5182910000000049
21
-106.3595359999999914
0
LINE
8
BLACK
6
CONTINUOUS
10
155.5182910000000049
20
-106.3595359999999914
11
155.6708629999999971
21
-106.2800119999999993
0
LINE
8
BLACK
6
CONTINUOUS
10
155.6708629999999971
20
-106.2800119999999993
11
155.7845539999999858
21
-106.1672080000000022
0
LINE
8
BLACK
6
CONTINUOUS
10
155.7845539999999858
20
-106.1672080000000022
11
155.8533939999999802
21
-106.025503999999998
0
LINE
8
BLACK
6
CONTINUOUS
10
155.8533939999999802
20
-106.025503999999998
11
155.8721919999999841
21
-105.8885039999999975
0
LINE
8
BLACK
6
CONTINUOUS
10
155.8721919999999841
20
-105.8885039999999975
11
155.8709309999999846
21
-105.8475229999999954
0
LINE
8
BLACK
6
CONTINUOUS
10
155.8709309999999846
20
-105.8475229999999954
11
155.8425770000000057
21
-105.7061399999999907
0
LINE
8
BLACK
6
CONTINUOUS
10
155.8425770000000057
20
-105.7061399999999907
11
155.763212999999979
21
-105.5751130000000018
0
LINE
8
BLACK
6
CONTINUOUS
10
155.763212999999979
20
-105.5751130000000018
11
155.6483209999999815
21
-105.4870599999999996
0
LINE
8
BLACK
6
CONTINUOUS
10
155.6483209999999815
20
-105.4870599999999996
11
155.512124
21
-105.4336210000000023
0
LINE
8
BLACK
6
CONTINUOUS
10
155.512124
20
-105.4336210000000023
11
155.3405879999999968
21
-105.4034089999999964
0
LINE
8
BLACK
6
CONTINUOUS
10
155.3405879999999968
20
-105.4034089999999964
11
155.1834269999999947
21
-105.3965499999999906
0
LINE
8
BLACK
6
CONTINUOUS
10
155.1834269999999947
20
-105.3965499999999906
11
155.1626629999999807
21
-105.396720000000002
0
LINE
8
BLACK
6
CONTINUOUS
10
155.1626629999999807
20
-105.396720000000002
11
155.0156319999999823
21
-105.4005059999999929
0
LINE
8
BLACK
6
CONTINUOUS
10
155.0156319999999823
20
-105.4005059999999929
11
155.0156319999999823
21
-105.1129839999999973
0
LINE
8
BLACK
6
CONTINUOUS
10
155.0156319999999823
20
-105.1129839999999973
11
155.0574349999999981
21
-105.1155389999999983
0
LINE
8
BLACK
6
CONTINUOUS
10
155.0574349999999981
20
-105.1155389999999983
11
155.2083399999999926
21
-105.1208969999999994
0
LINE
8
BLACK
6
CONTINUOUS
10
155.2083399999999926
20
-105.1208969999999994
11
155.2617520000000013
21
-105.1196599999999961
0
LINE
8
BLACK
6
CONTINUOUS
10
155.2617520000000013
20
-105.1196599999999961
11
155.4168239999999912
21
-105.0995889999999946
0
LINE
8
BLACK
6
CONTINUOUS
10
155.4168239999999912
20
-105.0995889999999946
11
155.5558989999999824
21
-105.0510009999999994
0
LINE
8
BLACK
6
CONTINUOUS
10
155.5558989999999824
20
-105.0510009999999994
11
155.6837840000000028
21
-104.9514530000000008
0
LINE
8
BLACK
6
CONTINUOUS
10
155.6837840000000028
20
-104.9514530000000008
11
155.751812000000001
21
-104.8235430000000008
0
LINE
8
BLACK
6
CONTINUOUS
10
155.751812000000001
20
-104.8235430000000008
11
155.7710749999999962
21
-104.6830190000000016
0
LINE
8
BLACK
6
CONTINUOUS
10
155.7710749999999962
20
-104.6830190000000016
11
155.7697909999999979
21
-104.6519720000000007
0
LINE
8
BLACK
6
CONTINUOUS
10
155.7697909999999979
20
-104.6519720000000007
11
155.7333119999999838
21
-104.5142620000000022
0
LINE
8
BLACK
6
CONTINUOUS
10
155.7333119999999838
20
-104.5142620000000022
11
155.6476439999999855
21
-104.3959879999999885
0
LINE
8
BLACK
6
CONTINUOUS
10
155.6476439999999855
20
-104.3959879999999885
11
155.5227129999999818
21
-104.314590999999993
0
LINE
8
BLACK
6
CONTINUOUS
10
155.5227129999999818
20
-104.314590999999993
11
155.3752929999999992
21
-104.271924999999996
0
LINE
8
BLACK
6
CONTINUOUS
10
155.3752929999999992
20
-104.271924999999996
11
155.2251919999999927
21
-104.2603079999999949
0
LINE
8
BLACK
6
CONTINUOUS
10
155.2251919999999927
20
-104.2603079999999949
11
155.0901929999999993
21
-104.2700629999999933
0
LINE
8
BLACK
6
CONTINUOUS
10
155.0901929999999993
20
-104.2700629999999933
11
154.9163589999999999
21
-104.323914000000002
0
LINE
8
BLACK
6
CONTINUOUS
10
154.9163589999999999
20
-104.323914000000002
11
154.7970770000000016
21
-104.4130490000000009
0
LINE
8
BLACK
6
CONTINUOUS
10
154.7970770000000016
20
-104.4130490000000009
11
154.7106689999999958
21
-104.5475629999999967
0
LINE
8
BLACK
6
CONTINUOUS
10
154.7106689999999958
20
-104.5475629999999967
11
154.6684419999999989
21
-104.6900890000000004
0
LINE
8
BLACK
6
CONTINUOUS
10
154.6684419999999989
20
-104.6900890000000004
11
154.6500000000000057
21
-104.8353529999999978
0
LINE
8
BLACK
6
CONTINUOUS
10
154.6500000000000057
20
-104.8353529999999978
11
154.2887649999999837
21
-104.8353529999999978
0
LINE
8
BLACK
6
CONTINUOUS
10
154.2887649999999837
20
-104.8353529999999978
11
154.293769999999995
21
-104.7232719999999944
0
LINE
8
BLACK
6
CONTINUOUS
10
154.293769999999995
20
-104.7232719999999944
11
154.3185479999999927
21
-104.5713109999999944
0
LINE
8
BLACK
6
CONTINUOUS
10
154.3185479999999927
20
-104.5713109999999944
11
154.3685669999999845
21
-104.4226189999999974
0
LINE
8
BLACK
6
CONTINUOUS
10
154.3685669999999845
20
-104.4226189999999974
11
154.448789000000005
21
-104.2839039999999926
0
LINE
8
BLACK
6
CONTINUOUS
10
154.448789000000005
20
-104.2839039999999926
11
154.5641779999999983
21
-104.1618729999999999
0
LINE
8
BLACK
6
CONTINUOUS
10
154.5641779999999983
20
-104.1618729999999999
11
154.7196969999999965
21
-104.0632349999999917
0
LINE
8
BLACK
6
CONTINUOUS
10
154.7196969999999965
20
-104.0632349999999917
11
154.8656560000000013
21
-104.0086429999999922
0
LINE
8
BLACK
6
CONTINUOUS
10
154.8656560000000013
20
-104.0086429999999922
11
155.0390739999999994
21
-103.9738129999999927
0
LINE
8
BLACK
6
CONTINUOUS
10
155.0390739999999994
20
-103.9738129999999927
11
155.2420449999999903
21
-103.9615739999999988
0
LINE
8
BLACK
6
CONTINUOUS
10
155.2420449999999903
20
-103.9615739999999988
11
155.2949439999999868
21
-103.9624340000000018
0
LINE
8
BLACK
6
CONTINUOUS
10
158.9503839999999855
20
-106.7049099999999981
11
158.6690159999999992
21
-106.7049099999999981
0
LINE
8
BLACK
6
CONTINUOUS
10
158.6690159999999992
20
-106.7049099999999981
11
159.702163999999982
21
-103.8349589999999978
0
LINE
8
BLACK
6
CONTINUOUS
10
159.702163999999982
20
-103.8349589999999978
11
159.979867999999982
21
-103.8349589999999978
0
LINE
8
BLACK
6
CONTINUOUS
10
159.979867999999982
20
-103.8349589999999978
11
158.9503839999999855
21
-106.7049099999999981
0
LINE
8
BLACK
6
CONTINUOUS
10
161.2918729999999812
20
-103.9698069999999888
11
161.4665239999999926
21
-104.0058609999999959
0
LINE
8
BLACK
6
CONTINUOUS
10
161.4665239999999926
20
-104.0058609999999959
11
161.6045289999999852
21
-104.0583290000000005
0
LINE
8
BLACK
6
CONTINUOUS
10
161.6045289999999852
20
-104.0583290000000005
11
161.7335479999999848
21
-104.1344759999999923
0
LINE
8
BLACK
6
CONTINUOUS
10
161.7335479999999848
20
-104.1344759999999923
11
161.8466949999999827
21
-104.2367739999999969
0
LINE
8
BLACK
6
CONTINUOUS
10
161.8466949999999827
20
-104.2367739999999969
11
161.9370830000000012
21
-104.3676959999999951
0
LINE
8
BLACK
6
CONTINUOUS
10
161.9370830000000012
20
-104.3676959999999951
11
161.997825000000006
21
-104.5297159999999934
0
LINE
8
BLACK
6
CONTINUOUS
10
161.997825000000006
20
-104.5297159999999934
11
162.0197839999999871
21
-104.6731269999999938
0
LINE
8
BLACK
6
CONTINUOUS
10
162.0197839999999871
20
-104.6731269999999938
11
161.6585489999999936
21
-104.6731269999999938
0
LINE
8
BLACK
6
CONTINUOUS
10
161.6585489999999936
20
-104.6731269999999938
11
161.6295219999999802
21
-104.5670369999999991
0
LINE
8
BLACK
6
CONTINUOUS
10
161.6295219999999802
20
-104.5670369999999991
11
161.561600999999996
21
-104.4384699999999953
0
LINE
8
BLACK
6
CONTINUOUS
10
161.561600999999996
20
-104.4384699999999953
11
161.4573120000000017
21
-104.3397480000000002
0
LINE
8
BLACK
6
CONTINUOUS
10
161.4573120000000017
20
-104.3397480000000002
11
161.3116389999999853
21
-104.2781169999999946
0
LINE
8
BLACK
6
CONTINUOUS
10
161.3116389999999853
20
-104.2781169999999946
11
161.1500350000000026
21
-104.2603079999999949
0
LINE
8
BLACK
6
CONTINUOUS
10
161.1500350000000026
20
-104.2603079999999949
11
160.9988239999999848
21
-104.2780939999999958
0
LINE
8
BLACK
6
CONTINUOUS
10
160.9988239999999848
20
-104.2780939999999958
11
160.8319019999999853
21
-104.3503229999999888
0
LINE
8
BLACK
6
CONTINUOUS
10
160.8319019999999853
20
-104.3503229999999888
11
160.701014999999984
21
-104.4657399999999967
0
LINE
8
BLACK
6
CONTINUOUS
10
160.701014999999984
20
-104.4657399999999967
11
160.6022240000000068
21
-104.6109739999999988
0
LINE
8
BLACK
6
CONTINUOUS
10
160.6022240000000068
20
-104.6109739999999988
11
160.5315860000000043
21
-104.7726579999999927
0
LINE
8
BLACK
6
CONTINUOUS
10
160.5315860000000043
20
-104.7726579999999927
11
160.4851599999999792
21
-104.937421999999998
0
LINE
8
BLACK
6
CONTINUOUS
10
160.4851599999999792
20
-104.937421999999998
11
160.459005999999988
21
-105.0918959999999913
0
LINE
8
BLACK
6
CONTINUOUS
10
160.459005999999988
20
-105.0918959999999913
11
160.4488139999999987
21
-105.2501509999999882
0
LINE
8
BLACK
6
CONTINUOUS
10
160.4488139999999987
20
-105.2501509999999882
11
160.4568739999999991
21
-105.2580639999999903
0
LINE
8
BLACK
6
CONTINUOUS
10
160.4568739999999991
20
-105.2580639999999903
11
160.4659289999999885
21
-105.2444809999999933
0
LINE
8
BLACK
6
CONTINUOUS
10
160.4659289999999885
20
-105.2444809999999933
11
160.563918000000001
21
-105.1325889999999958
0
LINE
8
BLACK
6
CONTINUOUS
10
160.563918000000001
20
-105.1325889999999958
11
160.6913469999999791
21
-105.0412680000000023
0
LINE
8
BLACK
6
CONTINUOUS
10
160.6913469999999791
20
-105.0412680000000023
11
160.8358639999999866
21
-104.9788939999999968
0
LINE
8
BLACK
6
CONTINUOUS
10
160.8358639999999866
20
-104.9788939999999968
11
160.983791999999994
21
-104.9447839999999985
0
LINE
8
BLACK
6
CONTINUOUS
10
160.983791999999994
20
-104.9447839999999985
11
161.1588279999999997
21
-104.9322930000000014
0
LINE
8
BLACK
6
CONTINUOUS
10
161.1588279999999997
20
-104.9322930000000014
11
161.2651089999999954
21
-104.9379699999999929
0
LINE
8
BLACK
6
CONTINUOUS
10
161.2651089999999954
20
-104.9379699999999929
11
161.4168149999999855
21
-104.9645269999999897
0
LINE
8
BLACK
6
CONTINUOUS
10
161.4168149999999855
20
-104.9645269999999897
11
161.5717400000000055
21
-105.0151649999999961
0
LINE
8
BLACK
6
CONTINUOUS
10
161.5717400000000055
20
-105.0151649999999961
11
161.7209259999999915
21
-105.0924799999999948
0
LINE
8
BLACK
6
CONTINUOUS
10
161.7209259999999915
20
-105.0924799999999948
11
161.8554189999999835
21
-105.1990679999999969
0
LINE
8
BLACK
6
CONTINUOUS
10
161.8554189999999835
20
-105.1990679999999969
11
161.9662610000000029
21
-105.3375269999999944
0
LINE
8
BLACK
6
CONTINUOUS
10
161.9662610000000029
20
-105.3375269999999944
11
162.0284849999999892
21
-105.4638479999999987
0
LINE
8
BLACK
6
CONTINUOUS
10
162.0284849999999892
20
-105.4638479999999987
11
162.0685909999999978
21
-105.6106520000000017
0
LINE
8
BLACK
6
CONTINUOUS
10
162.0685909999999978
20
-105.6106520000000017
11
162.0827989999999943
21
-105.7790339999999958
0
LINE
8
BLACK
6
CONTINUOUS
10
162.0827989999999943
20
-105.7790339999999958
11
162.0825629999999933
21
-105.8044709999999924
0
LINE
8
BLACK
6
CONTINUOUS
10
162.0825629999999933
20
-105.8044709999999924
11
162.0708960000000047
21
-105.9485399999999942
0
LINE
8
BLACK
6
CONTINUOUS
10
162.0708960000000047
20
-105.9485399999999942
11
162.0404549999999801
21
-106.0801110000000023
0
LINE
8
BLACK
6
CONTINUOUS
10
162.0404549999999801
20
-106.0801110000000023
11
161.9790069999999957
21
-106.2218159999999898
0
LINE
8
BLACK
6
CONTINUOUS
10
161.9790069999999957
20
-106.2218159999999898
11
161.9022219999999948
21
-106.3365989999999925
0
LINE
8
BLACK
6
CONTINUOUS
10
161.9022219999999948
20
-106.3365989999999925
11
161.8014309999999796
21
-106.4483819999999952
0
LINE
8
BLACK
6
CONTINUOUS
10
161.8014309999999796
20
-106.4483819999999952
11
161.7720029999999838
21
-106.4768009999999947
0
LINE
8
BLACK
6
CONTINUOUS
10
161.7720029999999838
20
-106.4768009999999947
11
161.6604639999999904
21
-106.5653919999999886
0
LINE
8
BLACK
6
CONTINUOUS
10
161.6604639999999904
20
-106.5653919999999886
11
161.5251920000000041
21
-106.63476
0
LINE
8
BLACK
6
CONTINUOUS
10
161.5251920000000041
20
-106.63476
11
161.3799609999999802
21
-106.6766259999999988
0
LINE
8
BLACK
6
CONTINUOUS
10
161.3799609999999802
20
-106.6766259999999988
11
161.2316879999999912
21
-106.6976549999999975
0
LINE
8
BLACK
6
CONTINUOUS
10
161.2316879999999912
20
-106.6976549999999975
11
161.0533149999999978
21
-106.7049099999999981
0
LINE
8
BLACK
6
CONTINUOUS
10
161.0533149999999978
20
-106.7049099999999981
11
160.9408990000000017
21
-106.6978549999999899
0
LINE
8
BLACK
6
CONTINUOUS
10
160.9408990000000017
20
-106.6978549999999899
11
160.7940519999999935
21
-106.6682220000000001
0
LINE
8
BLACK
6
CONTINUOUS
10
160.7940519999999935
20
-106.6682220000000001
11
160.641998000000001
21
-106.6112119999999948
0
LINE
8
BLACK
6
CONTINUOUS
10
160.641998000000001
20
-106.6112119999999948
11
160.5172890000000052
21
-106.5395159999999919
0
LINE
8
BLACK
6
CONTINUOUS
10
160.5172890000000052
20
-106.5395159999999919
11
160.3995160000000055
21
-106.4430299999999932
0
LINE
8
BLACK
6
CONTINUOUS
10
160.3995160000000055
20
-106.4430299999999932
11
160.2934759999999983
21
-106.3191279999999921
0
LINE
8
BLACK
6
CONTINUOUS
10
160.2934759999999983
20
-106.3191279999999921
11
160.2618239999999901
21
-106.271142999999995
0
LINE
8
BLACK
6
CONTINUOUS
10
160.2618239999999901
20
-106.271142999999995
11
160.1948919999999816
21
-106.1439159999999902
0
LINE
8
BLACK
6
CONTINUOUS
10
160.1948919999999816
20
-106.1439159999999902
11
160.1440029999999979
21
-106.0072919999999925
0
LINE
8
BLACK
6
CONTINUOUS
10
160.1440029999999979
20
-106.0072919999999925
11
160.1074299999999937
21
-105.8624930000000006
0
LINE
8
BLACK
6
CONTINUOUS
10
160.1074299999999937
20
-105.8624930000000006
11
160.0996590000000026
21
-105.8133259999999893
0
LINE
8
BLACK
6
CONTINUOUS
10
160.0996590000000026
20
-105.8133259999999893
11
160.0834449999999833
21
-105.7107419999999962
0
LINE
8
BLACK
6
CONTINUOUS
10
160.0834449999999833
20
-105.7107419999999962
11
160.070321000000007
21
-105.5532619999999895
0
LINE
8
BLACK
6
CONTINUOUS
10
160.070321000000007
20
-105.5532619999999895
11
160.0663299999999936
21
-105.3912739999999957
0
LINE
8
BLACK
6
CONTINUOUS
10
160.0663299999999936
20
-105.3912739999999957
11
160.0722549999999842
21
-105.2208199999999891
0
LINE
8
BLACK
6
CONTINUOUS
10
160.0722549999999842
20
-105.2208199999999891
11
160.0915519999999788
21
-105.0421249999999986
0
LINE
8
BLACK
6
CONTINUOUS
10
160.0915519999999788
20
-105.0421249999999986
11
160.1265029999999854
21
-104.8606499999999926
0
LINE
8
BLACK
6
CONTINUOUS
10
160.1265029999999854
20
-104.8606499999999926
11
160.1793899999999837
21
-104.6818559999999962
0
LINE
8
BLACK
6
CONTINUOUS
10
160.1793899999999837
20
-104.6818559999999962
11
160.2524959999999794
21
-104.5112039999999922
0
LINE
8
BLACK
6
CONTINUOUS
10
160.2524959999999794
20
-104.5112039999999922
11
160.348101999999983
21
-104.3541539999999941
0
LINE
8
BLACK
6
CONTINUOUS
10
160.348101999999983
20
-104.3541539999999941
11
160.4684910000000002
21
-104.2161689999999936
0
LINE
8
BLACK
6
CONTINUOUS
10
160.4684910000000002
20
-104.2161689999999936
11
160.6159449999999822
21
-104.1027079999999927
0
LINE
8
BLACK
6
CONTINUOUS
10
160.6159449999999822
20
-104.1027079999999927
11
160.792745999999994
21
-104.0192329999999998
0
LINE
8
BLACK
6
CONTINUOUS
10
160.792745999999994
20
-104.0192329999999998
11
161.0011759999999867
21
-103.9712040000000002
0
LINE
8
BLACK
6
CONTINUOUS
10
161.0011759999999867
20
-103.9712040000000002
11
161.1588279999999997
21
-103.9615739999999988
0
LINE
8
BLACK
6
CONTINUOUS
10
161.1588279999999997
20
-103.9615739999999988
11
161.2918729999999812
21
-103.9698069999999888
0
LINE
8
BLACK
6
CONTINUOUS
10
160.9282579999999996
20
-105.2497119999999882
11
160.7831449999999904
21
-105.3024580000000014
0
LINE
8
BLACK
6
CONTINUOUS
10
160.7831449999999904
20
-105.3024580000000014
11
160.6488489999999842
21
-105.4037209999999902
0
LINE
8
BLACK
6
CONTINUOUS
10
160.6488489999999842
20
-105.4037209999999902
11
160.5575199999999825
21
-105.5382999999999925
0
LINE
8
BLACK
6
CONTINUOUS
10
160.5575199999999825
20
-105.5382999999999925
11
160.5138589999999965
21
-105.6697069999999883
0
LINE
8
BLACK
6
CONTINUOUS
10
160.5138589999999965
20
-105.6697069999999883
11
160.4993719999999939
21
-105.8133259999999893
0
LINE
8
BLACK
6
CONTINUOUS
10
160.4993719999999939
20
-105.8133259999999893
11
160.5044019999999989
21
-105.8938019999999938
0
LINE
8
BLACK
6
CONTINUOUS
10
160.5044019999999989
20
-105.8938019999999938
11
160.5356649999999945
21
-106.0262469999999979
0
LINE
8
BLACK
6
CONTINUOUS
10
160.5356649999999945
20
-106.0262469999999979
11
160.5966070000000059
21
-106.149998999999994
0
LINE
8
BLACK
6
CONTINUOUS
10
160.5966070000000059
20
-106.149998999999994
11
160.6884670000000028
21
-106.2574499999999915
0
LINE
8
BLACK
6
CONTINUOUS
10
160.6884670000000028
20
-106.2574499999999915
11
160.8124870000000044
21
-106.340992
0
LINE
8
BLACK
6
CONTINUOUS
10
160.8124870000000044
20
-106.340992
11
160.9699070000000063
21
-106.3930179999999979
0
LINE
8
BLACK
6
CONTINUOUS
10
160.9699070000000063
20
-106.3930179999999979
11
161.1207259999999906
21
-106.4068359999999984
0
LINE
8
BLACK
6
CONTINUOUS
10
161.1207259999999906
20
-106.4068359999999984
11
161.2766129999999976
21
-106.3889719999999954
0
LINE
8
BLACK
6
CONTINUOUS
10
161.2766129999999976
20
-106.3889719999999954
11
161.4359539999999811
21
-106.3235009999999932
0
LINE
8
BLACK
6
CONTINUOUS
10
161.4359539999999811
20
-106.3235009999999932
11
161.5613309999999956
21
-106.2152639999999906
0
LINE
8
BLACK
6
CONTINUOUS
10
161.5613309999999956
20
-106.2152639999999906
11
161.6370239999999967
21
-106.0964259999999939
0
LINE
8
BLACK
6
CONTINUOUS
10
161.6370239999999967
20
-106.0964259999999939
11
161.6841119999999989
21
-105.9549949999999967
0
LINE
8
BLACK
6
CONTINUOUS
10
161.6841119999999989
20
-105.9549949999999967
11
161.7003139999999917
21
-105.7942019999999985
0
LINE
8
BLACK
6
CONTINUOUS
10
161.7003139999999917
20
-105.7942019999999985
11
161.6845160000000021
21
-105.6545610000000011
0
LINE
8
BLACK
6
CONTINUOUS
10
161.6845160000000021
20
-105.6545610000000011
11
161.6323469999999816
21
-105.5122609999999952
0
LINE
8
BLACK
6
CONTINUOUS
10
161.6323469999999816
20
-105.5122609999999952
11
161.5366499999999803
21
-105.3838360000000023
0
LINE
8
BLACK
6
CONTINUOUS
10
161.5366499999999803
20
-105.3838360000000023
11
161.4184879999999964
21
-105.2993449999999882
0
LINE
8
BLACK
6
CONTINUOUS
10
161.4184879999999964
20
-105.2993449999999882
11
161.2609850000000051
21
-105.2455420000000004
0
LINE
8
BLACK
6
CONTINUOUS
10
161.2609850000000051
20
-105.2455420000000004
11
161.103872999999993
21
-105.231026
0
LINE
8
BLACK
6
CONTINUOUS
10
161.103872999999993
20
-105.231026
11
160.9282579999999996
21
-105.2497119999999882
0
LINE
8
BLACK
6
CONTINUOUS
10
157.6608679999999936
20
-103.9624459999999999
11
157.8446969999999965
21
-103.9830669999999913
0
LINE
8
BLACK
6
CONTINUOUS
10
157.8446969999999965
20
-103.9830669999999913
11
158.0145550000000014
21
-104.0302059999999926
0
LINE
8
BLACK
6
CONTINUOUS
10
158.0145550000000014
20
-104.0302059999999926
11
158.1667899999999918
21
-104.1026729999999958
0
LINE
8
BLACK
6
CONTINUOUS
10
158.1667899999999918
20
-104.1026729999999958
11
158.2977539999999976
21
-104.19927899999999
0
LINE
8
BLACK
6
CONTINUOUS
10
158.2977539999999976
20
-104.19927899999999
11
158.4037969999999973
21
-104.3188329999999979
0
LINE
8
BLACK
6
CONTINUOUS
10
158.4037969999999973
20
-104.3188329999999979
11
158.481269999999995
21
-104.4601459999999946
0
LINE
8
BLACK
6
CONTINUOUS
10
158.481269999999995
20
-104.4601459999999946
11
158.5265239999999949
21
-104.6220259999999911
0
LINE
8
BLACK
6
CONTINUOUS
10
158.5265239999999949
20
-104.6220259999999911
11
158.5371250000000032
21
-104.7562179999999898
0
LINE
8
BLACK
6
CONTINUOUS
10
158.5371250000000032
20
-104.7562179999999898
11
158.5212769999999978
21
-104.9226230000000015
0
LINE
8
BLACK
6
CONTINUOUS
10
158.5212769999999978
20
-104.9226230000000015
11
158.4757359999999835
21
-105.0664919999999967
0
LINE
8
BLACK
6
CONTINUOUS
10
158.4757359999999835
20
-105.0664919999999967
11
158.403507999999988
21
-105.1911959999999908
0
LINE
8
BLACK
6
CONTINUOUS
10
158.403507999999988
20
-105.1911959999999908
11
158.3075979999999845
21
-105.3001039999999904
0
LINE
8
BLACK
6
CONTINUOUS
10
158.3075979999999845
20
-105.3001039999999904
11
158.1910110000000032
21
-105.3965859999999992
0
LINE
8
BLACK
6
CONTINUOUS
10
158.1910110000000032
20
-105.3965859999999992
11
158.0567529999999863
21
-105.4840099999999978
0
LINE
8
BLACK
6
CONTINUOUS
10
158.0567529999999863
20
-105.4840099999999978
11
157.9078289999999924
21
-105.5657459999999901
0
LINE
8
BLACK
6
CONTINUOUS
10
157.9078289999999924
20
-105.5657459999999901
11
157.7472439999999949
21
-105.6451649999999916
0
LINE
8
BLACK
6
CONTINUOUS
10
157.7472439999999949
20
-105.6451649999999916
11
157.4409629999999822
21
-105.7961799999999926
0
LINE
8
BLACK
6
CONTINUOUS
10
157.4409629999999822
20
-105.7961799999999926
11
157.3355389999999829
21
-105.8526779999999974
0
LINE
8
BLACK
6
CONTINUOUS
10
157.3355389999999829
20
-105.8526779999999974
11
157.1935529999999801
21
-105.9462369999999964
0
LINE
8
BLACK
6
CONTINUOUS
10
157.1935529999999801
20
-105.9462369999999964
11
157.0719110000000001
21
-106.0542930000000013
0
LINE
8
BLACK
6
CONTINUOUS
10
157.0719110000000001
20
-106.0542930000000013
11
156.9849649999999883
21
-106.1688449999999904
0
LINE
8
BLACK
6
CONTINUOUS
10
156.9849649999999883
20
-106.1688449999999904
11
156.9324499999999887
21
-106.3072579999999903
0
LINE
8
BLACK
6
CONTINUOUS
10
156.9324499999999887
20
-106.3072579999999903
11
158.5371250000000032
21
-106.3072579999999903
0
LINE
8
BLACK
6
CONTINUOUS
10
158.5371250000000032
20
-106.3072579999999903
11
158.5371250000000032
21
-106.6204999999999927
0
LINE
8
BLACK
6
CONTINUOUS
10
158.5371250000000032
20
-106.6204999999999927
11
156.5169929999999852
21
-106.6204999999999927
0
LINE
8
BLACK
6
CONTINUOUS
10
156.5169929999999852
20
-106.6204999999999927
11
156.5196650000000034
21
-106.5695009999999883
0
LINE
8
BLACK
6
CONTINUOUS
10
156.5196650000000034
20
-106.5695009999999883
11
156.5364669999999876
21
-106.4252350000000007
0
LINE
8
BLACK
6
CONTINUOUS
10
156.5364669999999876
20
-106.4252350000000007
11
156.5784050000000036
21
-106.2520799999999923
0
LINE
8
BLACK
6
CONTINUOUS
10
156.5784050000000036
20
-106.2520799999999923
11
156.6411559999999952
21
-106.099033999999989
0
LINE
8
BLACK
6
CONTINUOUS
10
156.6411559999999952
20
-106.099033999999989
11
156.7230729999999994
21
-105.9640939999999887
0
LINE
8
BLACK
6
CONTINUOUS
10
156.7230729999999994
20
-105.9640939999999887
11
156.8225060000000042
21
-105.8452589999999987
0
LINE
8
BLACK
6
CONTINUOUS
10
156.8225060000000042
20
-105.8452589999999987
11
156.9378079999999898
21
-105.7405279999999976
0
LINE
8
BLACK
6
CONTINUOUS
10
156.9378079999999898
20
-105.7405279999999976
11
157.0673290000000009
21
-105.6478989999999953
0
LINE
8
BLACK
6
CONTINUOUS
10
157.0673290000000009
20
-105.6478989999999953
11
157.2094209999999919
21
-105.5653700000000015
0
LINE
8
BLACK
6
CONTINUOUS
10
157.2094209999999919
20
-105.5653700000000015
11
157.6006979999999942
21
-105.3615989999999982
0
LINE
8
BLACK
6
CONTINUOUS
10
157.6006979999999942
20
-105.3615989999999982
11
157.7142149999999958
21
-105.3024499999999932
0
LINE
8
BLACK
6
CONTINUOUS
10
157.7142149999999958
20
-105.3024499999999932
11
157.8421179999999993
21
-105.2303399999999982
0
LINE
8
BLACK
6
CONTINUOUS
10
157.8421179999999993
20
-105.2303399999999982
11
157.9708479999999895
21
-105.1376619999999917
0
LINE
8
BLACK
6
CONTINUOUS
10
157.9708479999999895
20
-105.1376619999999917
11
158.0673479999999813
21
-105.027364999999989
0
LINE
8
BLACK
6
CONTINUOUS
10
158.0673479999999813
20
-105.027364999999989
11
158.1260819999999967
21
-104.8878959999999978
0
LINE
8
BLACK
6
CONTINUOUS
10
158.1260819999999967
20
-104.8878959999999978
11
158.1421849999999836
21
-104.7410509999999988
0
LINE
8
BLACK
6
CONTINUOUS
10
158.1421849999999836
20
-104.7410509999999988
11
158.1348529999999926
21
-104.6596169999999972
0
LINE
8
BLACK
6
CONTINUOUS
10
158.1348529999999926
20
-104.6596169999999972
11
158.0833489999999983
21
-104.5156709999999975
0
LINE
8
BLACK
6
CONTINUOUS
10
158.0833489999999983
20
-104.5156709999999975
11
157.9947200000000009
21
-104.404043999999999
0
LINE
8
BLACK
6
CONTINUOUS
10
157.9947200000000009
20
-104.404043999999999
11
157.8595540000000028
21
-104.3168939999999907
0
LINE
8
BLACK
6
CONTINUOUS
10
157.8595540000000028
20
-104.3168939999999907
11
157.7076239999999814
21
-104.2722819999999899
0
LINE
8
BLACK
6
CONTINUOUS
10
157.7076239999999814
20
-104.2722819999999899
11
157.5581999999999994
21
-104.2603079999999949
0
LINE
8
BLACK
6
CONTINUOUS
10
157.5581999999999994
20
-104.2603079999999949
11
157.5073999999999899
21
-104.261659999999992
0
LINE
8
BLACK
6
CONTINUOUS
10
157.5073999999999899
20
-104.261659999999992
11
157.3335119999999847
21
-104.2918219999999963
0
LINE
8
BLACK
6
CONTINUOUS
10
157.3335119999999847
20
-104.2918219999999963
11
157.1749659999999835
21
-104.3748629999999906
0
LINE
8
BLACK
6
CONTINUOUS
10
157.1749659999999835
20
-104.3748629999999906
11
157.070668999999981
21
-104.492178999999993
0
LINE
8
BLACK
6
CONTINUOUS
10
157.070668999999981
20
-104.492178999999993
11
157.0087319999999806
21
-104.6265179999999901
0
LINE
8
BLACK
6
CONTINUOUS
10
157.0087319999999806
20
-104.6265179999999901
11
156.9772649999999885
21
-104.7606269999999995
0
LINE
8
BLACK
6
CONTINUOUS
10
156.9772649999999885
20
-104.7606269999999995
11
156.9617590000000007
21
-104.9151469999999904
0
LINE
8
BLACK
6
CONTINUOUS
10
156.9617590000000007
20
-104.9151469999999904
11
156.5924640000000068
21
-104.9151469999999904
0
LINE
8
BLACK
6
CONTINUOUS
10
156.5924640000000068
20
-104.9151469999999904
11
156.5944849999999917
21
-104.8361730000000023
0
LINE
8
BLACK
6
CONTINUOUS
10
156.5944849999999917
20
-104.8361730000000023
11
156.6100610000000017
21
-104.6914189999999962
0
LINE
8
BLACK
6
CONTINUOUS
10
156.6100610000000017
20
-104.6914189999999962
11
156.6592819999999904
21
-104.5053729999999916
0
LINE
8
BLACK
6
CONTINUOUS
10
156.6592819999999904
20
-104.5053729999999916
11
156.7347739999999874
21
-104.3535859999999929
0
LINE
8
BLACK
6
CONTINUOUS
10
156.7347739999999874
20
-104.3535859999999929
11
156.8311819999999841
21
-104.2326339999999902
0
LINE
8
BLACK
6
CONTINUOUS
10
156.8311819999999841
20
-104.2326339999999902
11
156.9431519999999978
21
-104.1390940000000001
0
LINE
8
BLACK
6
CONTINUOUS
10
156.9431519999999978
20
-104.1390940000000001
11
157.1073989999999867
21
-104.0510989999999936
0
LINE
8
BLACK
6
CONTINUOUS
10
157.1073989999999867
20
-104.0510989999999936
11
157.27710399999998
21
-103.997636
0
LINE
8
BLACK
6
CONTINUOUS
10
157.27710399999998
20
-103.997636
11
157.4395739999999932
21
-103.9705909999999989
0
LINE
8
BLACK
6
CONTINUOUS
10
157.4395739999999932
20
-103.9705909999999989
11
157.6131550000000061
21
-103.9615739999999988
0
LINE
8
BLACK
6
CONTINUOUS
10
157.6131550000000061
20
-103.9615739999999988
11
157.6608679999999936
21
-103.9624459999999999
0
LINE
8
BLACK
6
CONTINUOUS
10
164.0040129999999863
20
-105.691986
11
164.4370559999999841
21
-105.691986
0
LINE
8
BLACK
6
CONTINUOUS
10
164.4370559999999841
20
-105.691986
11
164.4370559999999841
21
-105.9795089999999931
0
LINE
8
BLACK
6
CONTINUOUS
10
164.4370559999999841
20
-105.9795089999999931
11
164.0040129999999863
21
-105.9795089999999931
0
LINE
8
BLACK
6
CONTINUOUS
10
164.0040129999999863
20
-105.9795089999999931
11
164.0040129999999863
21
-106.6204999999999927
0
LINE
8
BLACK
6
CONTINUOUS
10
164.0040129999999863
20
-106.6204999999999927
11
163.6347179999999923
21
-106.6204999999999927
0
LINE
8
BLACK
6
CONTINUOUS
10
163.6347179999999923
20
-106.6204999999999927
11
163.6347179999999923
21
-105.9795089999999931
0
LINE
8
BLACK
6
CONTINUOUS
10
163.6347179999999923
20
-105.9795089999999931
11
162.3451159999999902
21
-105.9795089999999931
0
LINE
8
BLACK
6
CONTINUOUS
10
162.3451159999999902
20
-105.9795089999999931
11
162.3451159999999902
21
-105.691986
0
LINE
8
BLACK
6
CONTINUOUS
10
162.3451159999999902
20
-105.691986
11
162.3451159999999902
21
-105.6543969999999888
0
LINE
8
BLACK
6
CONTINUOUS
10
162.3451159999999902
20
-105.6543969999999888
11
163.697732000000002
21
-103.9615739999999988
0
LINE
8
BLACK
6
CONTINUOUS
10
163.697732000000002
20
-103.9615739999999988
11
164.0040129999999863
21
-103.9615739999999988
0
LINE
8
BLACK
6
CONTINUOUS
10
164.0040129999999863
20
-103.9615739999999988
11
164.0040129999999863
21
-105.691986
0
LINE
8
BLACK
6
CONTINUOUS
10
162.6851020000000005
20
-105.691986
11
163.6347179999999923
21
-105.691986
0
LINE
8
BLACK
6
CONTINUOUS
10
163.6347179999999923
20
-105.691986
11
163.6347179999999923
21
-104.4818849999999912
0
LINE
8
BLACK
6
CONTINUOUS
10
163.6347179999999923
20
-104.4818849999999912
11
163.6259249999999952
21
-104.4818849999999912
0
LINE
8
BLACK
6
CONTINUOUS
10
163.6259249999999952
20
-104.4818849999999912
11
162.6851020000000005
21
-105.691986
0
LINE
8
BLACK
6
CONTINUOUS
10
167.6324850000000026
20
-105.2290479999999917
11
169.0942780000000027
21
-103.919368999999989
0
LINE
8
BLACK
6
CONTINUOUS
10
169.0942780000000027
20
-103.919368999999989
11
169.6570140000000038
21
-103.919368999999989
0
LINE
8
BLACK
6
CONTINUOUS
10
169.6570140000000038
20
-103.919368999999989
11
168.4011169999999993
21
-105.0107679999999988
0
LINE
8
BLACK
6
CONTINUOUS
10
168.4011169999999993
20
-105.0107679999999988
11
169.6907190000000014
21
-106.6204999999999927
0
LINE
8
BLACK
6
CONTINUOUS
10
169.6907190000000014
20
-106.6204999999999927
11
169.1616889999999955
21
-106.6204999999999927
0
LINE
8
BLACK
6
CONTINUOUS
10
169.1616889999999955
20
-106.6204999999999927
11
168.1072929999999985
21
-105.2666369999999887
0
LINE
8
BLACK
6
CONTINUOUS
10
168.1072929999999985
20
-105.2666369999999887
11
167.6324850000000026
21
-105.672861999999995
0
LINE
8
BLACK
6
CONTINUOUS
10
167.6324850000000026
20
-105.672861999999995
11
167.6324850000000026
21
-106.6204999999999927
0
LINE
8
BLACK
6
CONTINUOUS
10
167.6324850000000026
20
-106.6204999999999927
11
167.2250879999999995
21
-106.6204999999999927
0
LINE
8
BLACK
6
CONTINUOUS
10
167.2250879999999995
20
-106.6204999999999927
11
167.2250879999999995
21
-103.919368999999989
0
LINE
8
BLACK
6
CONTINUOUS
10
167.2250879999999995
20
-103.919368999999989
11
167.6324850000000026
21
-103.919368999999989
0
LINE
8
BLACK
6
CONTINUOUS
10
167.6324850000000026
20
-103.919368999999989
11
167.6324850000000026
21
-105.2290479999999917
0
LINE
8
BLACK
6
CONTINUOUS
10
173.7783440000000041
20
-103.9229839999999996
11
173.9637039999999786
21
-103.9507539999999892
0
LINE
8
BLACK
6
CONTINUOUS
10
173.9637039999999786
20
-103.9507539999999892
11
174.123201999999992
21
-104.0033629999999931
0
LINE
8
BLACK
6
CONTINUOUS
10
174.123201999999992
20
-104.0033629999999931
11
174.2566300000000012
21
-104.0777479999999997
0
LINE
8
BLACK
6
CONTINUOUS
10
174.2566300000000012
20
-104.0777479999999997
11
174.3637829999999838
21
-104.1708519999999965
0
LINE
8
BLACK
6
CONTINUOUS
10
174.3637829999999838
20
-104.1708519999999965
11
174.4604609999999809
21
-104.3088889999999935
0
LINE
8
BLACK
6
CONTINUOUS
10
174.4604609999999809
20
-104.3088889999999935
11
174.5153589999999895
21
-104.4654139999999956
0
LINE
8
BLACK
6
CONTINUOUS
10
174.5153589999999895
20
-104.4654139999999956
11
174.5289259999999842
21
-104.5999269999999939
0
LINE
8
BLACK
6
CONTINUOUS
10
174.5289259999999842
20
-104.5999269999999939
11
174.5125309999999956
21
-104.7420499999999919
0
LINE
8
BLACK
6
CONTINUOUS
10
174.5125309999999956
20
-104.7420499999999919
11
174.4622719999999845
21
-104.8751460000000009
0
LINE
8
BLACK
6
CONTINUOUS
10
174.4622719999999845
20
-104.8751460000000009
11
174.3831370000000049
21
-104.9867849999999976
0
LINE
8
BLACK
6
CONTINUOUS
10
174.3831370000000049
20
-104.9867849999999976
11
174.2628890000000013
21
-105.0887089999999944
0
LINE
8
BLACK
6
CONTINUOUS
10
174.2628890000000013
20
-105.0887089999999944
11
174.1259249999999952
21
-105.1611240000000009
0
LINE
8
BLACK
6
CONTINUOUS
10
174.1259249999999952
20
-105.1611240000000009
11
174.1448330000000055
21
-105.1680259999999976
0
LINE
8
BLACK
6
CONTINUOUS
10
174.1448330000000055
20
-105.1680259999999976
11
174.2943719999999814
21
-105.2293979999999891
0
LINE
8
BLACK
6
CONTINUOUS
10
174.2943719999999814
20
-105.2293979999999891
11
174.4298100000000034
21
-105.3097279999999927
0
LINE
8
BLACK
6
CONTINUOUS
10
174.4298100000000034
20
-105.3097279999999927
11
174.5326749999999834
21
-105.4048659999999984
0
LINE
8
BLACK
6
CONTINUOUS
10
174.5326749999999834
20
-105.4048659999999984
11
174.6142309999999895
21
-105.5326239999999984
0
LINE
8
BLACK
6
CONTINUOUS
10
174.6142309999999895
20
-105.5326239999999984
11
174.6564359999999851
21
-105.6627199999999931
0
LINE
8
BLACK
6
CONTINUOUS
10
174.6564359999999851
20
-105.6627199999999931
11
174.6718079999999986
21
-105.8212389999999914
0
LINE
8
BLACK
6
CONTINUOUS
10
174.6718079999999986
20
-105.8212389999999914
11
174.6624189999999999
21
-105.9410749999999979
0
LINE
8
BLACK
6
CONTINUOUS
10
174.6624189999999999
20
-105.9410749999999979
11
174.6209749999999872
21
-106.0927849999999921
0
LINE
8
BLACK
6
CONTINUOUS
10
174.6209749999999872
20
-106.0927849999999921
11
174.546986000000004
21
-106.2320619999999991
0
LINE
8
BLACK
6
CONTINUOUS
10
174.546986000000004
20
-106.2320619999999991
11
174.4410089999999798
21
-106.3554060000000021
0
LINE
8
BLACK
6
CONTINUOUS
10
174.4410089999999798
20
-106.3554060000000021
11
174.3036029999999812
21
-106.4593169999999986
0
LINE
8
BLACK
6
CONTINUOUS
10
174.3036029999999812
20
-106.4593169999999986
11
174.1353259999999921
21
-106.5402919999999938
0
LINE
8
BLACK
6
CONTINUOUS
10
174.1353259999999921
20
-106.5402919999999938
11
173.9891949999999952
21
-106.5838669999999979
0
LINE
8
BLACK
6
CONTINUOUS
10
173.9891949999999952
20
-106.5838669999999979
11
173.8262479999999925
21
-106.6110949999999917
0
LINE
8
BLACK
6
CONTINUOUS
10
173.8262479999999925
20
-106.6110949999999917
11
173.6467209999999852
21
-106.6204999999999927
0
LINE
8
BLACK
6
CONTINUOUS
10
173.6467209999999852
20
-106.6204999999999927
11
172.3490579999999852
21
-106.6204999999999927
0
LINE
8
BLACK
6
CONTINUOUS
10
172.3490579999999852
20
-106.6204999999999927
11
172.3490579999999852
21
-106.3072579999999903
0
LINE
8
BLACK
6
CONTINUOUS
10
172.3490579999999852
20
-106.3072579999999903
11
172.3490579999999852
21
-105.0589079999999882
0
LINE
8
BLACK
6
CONTINUOUS
10
172.3490579999999852
20
-105.0589079999999882
11
172.3490579999999852
21
-103.919368999999989
0
LINE
8
BLACK
6
CONTINUOUS
10
172.3490579999999852
20
-103.919368999999989
11
173.6760299999999972
21
-103.919368999999989
0
LINE
8
BLACK
6
CONTINUOUS
10
173.6760299999999972
20
-103.919368999999989
11
173.7783440000000041
21
-103.9229839999999996
0
LINE
8
BLACK
6
CONTINUOUS
10
172.7564549999999883
20
-106.3072579999999903
11
173.6254710000000046
21
-106.3072579999999903
0
LINE
8
BLACK
6
CONTINUOUS
10
173.6254710000000046
20
-106.3072579999999903
11
173.7747320000000002
21
-106.2983949999999993
0
LINE
8
BLACK
6
CONTINUOUS
10
173.7747320000000002
20
-106.2983949999999993
11
173.9335879999999861
21
-106.2634259999999955
0
LINE
8
BLACK
6
CONTINUOUS
10
173.9335879999999861
20
-106.2634259999999955
11
174.083406999999994
21
-106.1889520000000005
0
LINE
8
BLACK
6
CONTINUOUS
10
174.083406999999994
20
-106.1889520000000005
11
174.1885130000000004
21
-106.0821409999999929
0
LINE
8
BLACK
6
CONTINUOUS
10
174.1885130000000004
20
-106.0821409999999929
11
174.2487059999999985
21
-105.9463049999999953
0
LINE
8
BLACK
6
CONTINUOUS
10
174.2487059999999985
20
-105.9463049999999953
11
174.2644109999999955
21
-105.8133259999999893
0
LINE
8
BLACK
6
CONTINUOUS
10
174.2644109999999955
20
-105.8133259999999893
11
174.2385799999999847
21
-105.6566689999999937
0
LINE
8
BLACK
6
CONTINUOUS
10
174.2385799999999847
20
-105.6566689999999937
11
174.1486449999999877
21
-105.5201099999999883
0
LINE
8
BLACK
6
CONTINUOUS
10
174.1486449999999877
20
-105.5201099999999883
11
174.010013999999984
21
-105.4311329999999884
0
LINE
8
BLACK
6
CONTINUOUS
10
174.010013999999984
20
-105.4311329999999884
11
173.8692059999999913
21
-105.3868229999999926
0
LINE
8
BLACK
6
CONTINUOUS
10
173.8692059999999913
20
-105.3868229999999926
11
173.7156129999999905
21
-105.3640669999999915
0
LINE
8
BLACK
6
CONTINUOUS
10
173.7156129999999905
20
-105.3640669999999915
11
173.5587929999999801
21
-105.3576419999999985
0
LINE
8
BLACK
6
CONTINUOUS
10
173.5587929999999801
20
-105.3576419999999985
11
172.7564549999999883
21
-105.3576419999999985
0
LINE
8
BLACK
6
CONTINUOUS
10
172.7564549999999883
20
-105.3576419999999985
11
172.7564549999999883
21
-106.3072579999999903
0
LINE
8
BLACK
6
CONTINUOUS
10
172.7564549999999883
20
-105.0589079999999882
11
173.4913819999999873
21
-105.0589079999999882
0
LINE
8
BLACK
6
CONTINUOUS
10
173.4913819999999873
20
-105.0589079999999882
11
173.5971700000000055
21
-105.0560619999999972
0
LINE
8
BLACK
6
CONTINUOUS
10
173.5971700000000055
20
-105.0560619999999972
11
173.754603000000003
21
-105.0374860000000012
0
LINE
8
BLACK
6
CONTINUOUS
10
173.754603000000003
20
-105.0374860000000012
11
173.9098730000000046
21
-104.9889719999999897
0
LINE
8
BLACK
6
CONTINUOUS
10
173.9098730000000046
20
-104.9889719999999897
11
174.0401929999999879
21
-104.8901839999999908
0
LINE
8
BLACK
6
CONTINUOUS
10
174.0401929999999879
20
-104.8901839999999908
11
174.1043179999999779
21
-104.7638869999999969
0
LINE
8
BLACK
6
CONTINUOUS
10
174.1043179999999779
20
-104.7638869999999969
11
174.1215289999999811
21
-104.625645999999989
0
LINE
8
BLACK
6
CONTINUOUS
10
174.1215289999999811
20
-104.625645999999989
11
174.1168989999999894
21
-104.5582149999999899
0
LINE
8
BLACK
6
CONTINUOUS
10
174.1168989999999894
20
-104.5582149999999899
11
174.0677499999999895
21
-104.4238909999999976
0
LINE
8
BLACK
6
CONTINUOUS
10
174.0677499999999895
20
-104.4238909999999976
11
173.959368999999981
21
-104.3235650000000021
0
LINE
8
BLACK
6
CONTINUOUS
10
173.959368999999981
20
-104.3235650000000021
11
173.8141279999999824
21
-104.2662949999999995
0
LINE
8
BLACK
6
CONTINUOUS
10
173.8141279999999824
20
-104.2662949999999995
11
173.6528869999999927
21
-104.239879000000002
0
LINE
8
BLACK
6
CONTINUOUS
10
173.6528869999999927
20
-104.239879000000002
11
173.4957780000000014
21
-104.2332699999999903
0
LINE
8
BLACK
6
CONTINUOUS
10
173.4957780000000014
20
-104.2332699999999903
11
172.7564549999999883
21
-104.2332699999999903
0
LINE
8
BLACK
6
CONTINUOUS
10
172.7564549999999883
20
-104.2332699999999903
11
172.7564549999999883
21
-105.0589079999999882
0
LINE
8
BLACK
6
CONTINUOUS
10
176.2354509999999834
20
-105.2178369999999887
11
177.1008029999999849
21
-103.919368999999989
0
LINE
8
BLACK
6
CONTINUOUS
10
177.1008029999999849
20
-103.919368999999989
11
177.5800069999999948
21
-103.919368999999989
0
LINE
8
BLACK
6
CONTINUOUS
10
177.5800069999999948
20
-103.919368999999989
11
176.4413469999999791
21
-105.5337169999999958
0
LINE
8
BLACK
6
CONTINUOUS
10
176.4413469999999791
20
-105.5337169999999958
11
176.4413469999999791
21
-106.6204999999999927
0
LINE
8
BLACK
6
CONTINUOUS
10
176.4413469999999791
20
-106.6204999999999927
11
176.0339500000000044
21
-106.6204999999999927
0
LINE
8
BLACK
6
CONTINUOUS
10
176.0339500000000044
20
-106.6204999999999927
11
176.0339500000000044
21
-105.5337169999999958
0
LINE
8
BLACK
6
CONTINUOUS
10
176.0339500000000044
20
-105.5337169999999958
11
174.8960229999999854
21
-103.919368999999989
0
LINE
8
BLACK
6
CONTINUOUS
10
174.8960229999999854
20
-103.919368999999989
11
175.3708309999999813
21
-103.919368999999989
0
LINE
8
BLACK
6
CONTINUOUS
10
175.3708309999999813
20
-103.919368999999989
11
176.2354509999999834
21
-105.2178369999999887
0
LINE
8
BLACK
6
CONTINUOUS
10
180.1438249999999925
20
-104.2444809999999933
11
179.1231339999999932
21
-104.2444809999999933
0
LINE
8
BLACK
6
CONTINUOUS
10
179.1231339999999932
20
-104.2444809999999933
11
179.1231339999999932
21
-106.6204999999999927
0
LINE
8
BLACK
6
CONTINUOUS
10
179.1231339999999932
20
-106.6204999999999927
11
178.7157369999999901
21
-106.6204999999999927
0
LINE
8
BLACK
6
CONTINUOUS
10
178.7157369999999901
20
-106.6204999999999927
11
178.7157369999999901
21
-104.2444809999999933
0
LINE
8
BLACK
6
CONTINUOUS
10
178.7157369999999901
20
-104.2444809999999933
11
177.6950459999999907
21
-104.2444809999999933
0
LINE
8
BLACK
6
CONTINUOUS
10
177.6950459999999907
20
-104.2444809999999933
11
177.6950459999999907
21
-103.919368999999989
0
LINE
8
BLACK
6
CONTINUOUS
10
177.6950459999999907
20
-103.919368999999989
11
180.1438249999999925
21
-103.919368999999989
0
LINE
8
BLACK
6
CONTINUOUS
10
180.1438249999999925
20
-103.919368999999989
11
180.1438249999999925
21
-104.2444809999999933
0
LINE
8
BLACK
6
CONTINUOUS
10
182.7589329999999848
20
-104.2444809999999933
11
180.9696099999999888
21
-104.2444809999999933
0
LINE
8
BLACK
6
CONTINUOUS
10
180.9696099999999888
20
-104.2444809999999933
11
180.9696099999999888
21
-105.0720979999999969
0
LINE
8
BLACK
6
CONTINUOUS
10
180.9696099999999888
20
-105.0720979999999969
11
182.6197139999999877
21
-105.0720979999999969
0
LINE
8
BLACK
6
CONTINUOUS
10
182.6197139999999877
20
-105.0720979999999969
11
182.6197139999999877
21
-105.3965499999999906
0
LINE
8
BLACK
6
CONTINUOUS
10
182.6197139999999877
20
-105.3965499999999906
11
180.9696099999999888
21
-105.3965499999999906
0
LINE
8
BLACK
6
CONTINUOUS
10
180.9696099999999888
20
-105.3965499999999906
11
180.9696099999999888
21
-106.2960470000000015
0
LINE
8
BLACK
6
CONTINUOUS
10
180.9696099999999888
20
-106.2960470000000015
11
182.7882419999999968
21
-106.2960470000000015
0
LINE
8
BLACK
6
CONTINUOUS
10
182.7882419999999968
20
-106.2960470000000015
11
182.7882419999999968
21
-106.6204999999999927
0
LINE
8
BLACK
6
CONTINUOUS
10
182.7882419999999968
20
-106.6204999999999927
11
180.5614799999999889
21
-106.6204999999999927
0
LINE
8
BLACK
6
CONTINUOUS
10
180.5614799999999889
20
-106.6204999999999927
11
180.5614799999999889
21
-103.919368999999989
0
LINE
8
BLACK
6
CONTINUOUS
10
180.5614799999999889
20
-103.919368999999989
11
182.7589329999999848
21
-103.919368999999989
0
LINE
8
BLACK
6
CONTINUOUS
10
182.7589329999999848
20
-103.919368999999989
11
182.7589329999999848
21
-104.2444809999999933
0
LINE
8
BLACK
6
CONTINUOUS
10
179.0794259999999838
20
-91.939241999999993
11
179.0999699999999848
21
-91.9975309999999951
0
LINE
8
BLACK
6
CONTINUOUS
10
179.0999699999999848
20
-91.9975309999999951
11
179.0999999999999943
21
-92.
0
LINE
8
BLACK
6
CONTINUOUS
10
179.0999999999999943
20
-92.
11
179.0999999999999943
21
-95.
0
LINE
8
BLACK
6
CONTINUOUS
10
179.0999999999999943
20
-95.
11
179.0809019999999805
21
-95.0587790000000012
0
LINE
8
BLACK
6
CONTINUOUS
10
179.0809019999999805
20
-95.0587790000000012
11
179.0309019999999975
21
-95.0951060000000012
0
LINE
8
BLACK
6
CONTINUOUS
10
179.0309019999999975
20
-95.0951060000000012
11
179.
21
-95.0999999999999943
0
LINE
8
BLACK
6
CONTINUOUS
10
179.
20
-95.0999999999999943
11
176.9315670000000011
21
-95.0999999999999943
0
LINE
8
BLACK
6
CONTINUOUS
10
176.9315670000000011
20
-95.0999999999999943
11
176.8727879999999857
21
-95.0809019999999947
0
LINE
8
BLACK
6
CONTINUOUS
10
176.8727879999999857
20
-95.0809019999999947
11
176.8364609999999857
21
-95.0309019999999975
0
LINE
8
BLACK
6
CONTINUOUS
10
176.8364609999999857
20
-95.0309019999999975
11
176.8364609999999857
21
-94.9690980000000025
0
LINE
8
BLACK
6
CONTINUOUS
10
176.8364609999999857
20
-94.9690980000000025
11
176.849238999999983
21
-94.9432369999999963
0
LINE
8
BLACK
6
CONTINUOUS
10
176.849238999999983
20
-94.9432369999999963
11
178.9176719999999818
21
-91.9432369999999963
0
LINE
8
BLACK
6
CONTINUOUS
10
178.9176719999999818
20
-91.9432369999999963
11
178.9667599999999936
21
-91.9056860000000029
0
LINE
8
BLACK
6
CONTINUOUS
10
178.9667599999999936
20
-91.9056860000000029
11
179.0285439999999824
21
-91.9041599999999903
0
LINE
8
BLACK
6
CONTINUOUS
10
179.0285439999999824
20
-91.9041599999999903
11
179.0794259999999838
21
-91.939241999999993
0
LINE
8
BLACK
6
CONTINUOUS
10
183.058778999999987
20
-91.9190979999999911
11
183.095105999999987
21
-91.9690980000000025
0
LINE
8
BLACK
6
CONTINUOUS
10
183.095105999999987
20
-91.9690980000000025
11
183.0999999999999943
21
-92.
0
LINE
8
BLACK
6
CONTINUOUS
10
183.0999999999999943
20
-92.
11
183.0999999999999943
21
-95.
0
LINE
8
BLACK
6
CONTINUOUS
10
183.0999999999999943
20
-95.
11
183.0809019999999805
21
-95.0587790000000012
0
LINE
8
BLACK
6
CONTINUOUS
10
183.0809019999999805
20
-95.0587790000000012
11
183.0309019999999975
21
-95.0951060000000012
0
LINE
8
BLACK
6
CONTINUOUS
10
183.0309019999999975
20
-95.0951060000000012
11
183.
21
-95.0999999999999943
0
LINE
8
BLACK
6
CONTINUOUS
10
183.
20
-95.0999999999999943
11
180.
21
-95.0999999999999943
0
LINE
8
BLACK
6
CONTINUOUS
10
180.
20
-95.0999999999999943
11
179.9412209999999845
21
-95.0809019999999947
0
LINE
8
BLACK
6
CONTINUOUS
10
179.9412209999999845
20
-95.0809019999999947
11
179.9048939999999845
21
-95.0309019999999975
0
LINE
8
BLACK
6
CONTINUOUS
10
179.9048939999999845
20
-95.0309019999999975
11
179.9048939999999845
21
-94.9690980000000025
0
LINE
8
BLACK
6
CONTINUOUS
10
179.9048939999999845
20
-94.9690980000000025
11
179.9167949999999792
21
-94.9445300000000003
0
LINE
8
BLACK
6
CONTINUOUS
10
179.9167949999999792
20
-94.9445300000000003
11
181.9167949999999792
21
-91.9445300000000003
0
LINE
8
BLACK
6
CONTINUOUS
10
181.9167949999999792
20
-91.9445300000000003
11
181.9652899999999818
21
-91.9062169999999981
0
LINE
8
BLACK
6
CONTINUOUS
10
181.9652899999999818
20
-91.9062169999999981
11
182.
21
-91.8999999999999915
0
LINE
8
BLACK
6
CONTINUOUS
10
182.
20
-91.8999999999999915
11
183.
21
-91.8999999999999915
0
LINE
8
BLACK
6
CONTINUOUS
10
183.
20
-91.8999999999999915
11
183.058778999999987
21
-91.9190979999999911
0
LINE
8
BLACK
6
CONTINUOUS
10
181.558778999999987
20
-91.9190979999999911
11
181.595105999999987
21
-91.9690980000000025
0
LINE
8
BLACK
6
CONTINUOUS
10
181.595105999999987
20
-91.9690980000000025
11
181.595105999999987
21
-92.0309019999999975
0
LINE
8
BLACK
6
CONTINUOUS
10
181.595105999999987
20
-92.0309019999999975
11
181.5823279999999897
21
-92.0567629999999895
0
LINE
8
BLACK
6
CONTINUOUS
10
181.5823279999999897
20
-92.0567629999999895
11
179.5138949999999909
21
-95.0567629999999895
0
LINE
8
BLACK
6
CONTINUOUS
10
179.5138949999999909
20
-95.0567629999999895
11
179.4648069999999791
21
-95.0943139999999971
0
LINE
8
BLACK
6
CONTINUOUS
10
179.4648069999999791
20
-95.0943139999999971
11
179.4030229999999904
21
-95.0958399999999955
0
LINE
8
BLACK
6
CONTINUOUS
10
179.4030229999999904
20
-95.0958399999999955
11
179.3521409999999889
21
-95.0607579999999928
0
LINE
8
BLACK
6
CONTINUOUS
10
179.3521409999999889
20
-95.0607579999999928
11
179.3315969999999879
21
-95.0024689999999907
0
LINE
8
BLACK
6
CONTINUOUS
10
179.3315969999999879
20
-95.0024689999999907
11
179.3315669999999784
21
-95.
0
LINE
8
BLACK
6
CONTINUOUS
10
179.3315669999999784
20
-95.
11
179.3315669999999784
21
-92.
0
LINE
8
BLACK
6
CONTINUOUS
10
179.3315669999999784
20
-92.
11
179.3506649999999922
21
-91.9412209999999988
0
LINE
8
BLACK
6
CONTINUOUS
10
179.3506649999999922
20
-91.9412209999999988
11
179.4006650000000036
21
-91.9048939999999988
0
LINE
8
BLACK
6
CONTINUOUS
10
179.4006650000000036
20
-91.9048939999999988
11
179.4315670000000011
21
-91.8999999999999915
0
LINE
8
BLACK
6
CONTINUOUS
10
179.4315670000000011
20
-91.8999999999999915
11
181.5
21
-91.8999999999999915
0
LINE
8
BLACK
6
CONTINUOUS
10
181.5
20
-91.8999999999999915
11
181.558778999999987
21
-91.9190979999999911
  0
ENDSEC
  0
EOF
