M48
; DRILL file {KiCad (5.1.10)-1} date 05/08/24 08:18:51
; FORMAT={-:-/ absolute / inch / decimal}
; #@! TF.CreationDate,2024-05-08T08:18:51+02:00
; #@! TF.GenerationSoftware,Kicad,Pcbnew,(5.1.10)-1
; #@! TF.FileFunction,Plated,1,2,PTH
FMAT,2
INCH
T1C0.0157
T2C0.0315
T3C0.0394
T4C0.0630
%
G90
G05
T1
X4.3295Y-4.2805
X4.33Y-4.61
X4.3569Y-5.3631
X4.3594Y-4.9694
X4.36Y-4.77
X4.36Y-5.12
X4.3609Y-5.6091
X4.3614Y-4.9114
X4.37Y-4.24
X4.37Y-4.48
X4.399Y-4.871
X4.4Y-5.02
X4.4Y-5.44
X4.4053Y-5.2647
X4.41Y-5.07
X4.41Y-5.2
X4.4709Y-5.5091
X4.5563Y-5.1663
X4.56Y-5.31
X4.57Y-4.57
X4.5709Y-4.4091
T2
X4.2721Y-4.182
X4.2721Y-4.2805
X4.2721Y-4.3789
X4.2721Y-4.4773
X4.2721Y-4.5757
X4.2721Y-4.6742
X4.2721Y-4.7726
X4.2721Y-4.871
X4.2721Y-4.9694
X4.2721Y-5.0679
X4.2721Y-5.1663
X4.2721Y-5.2647
X4.2721Y-5.3631
X4.469Y-4.182
X4.469Y-4.2805
X4.469Y-4.3789
X4.469Y-4.4773
X4.469Y-4.5757
X4.469Y-4.6742
X4.469Y-4.7726
X4.469Y-4.871
X4.469Y-4.9694
X4.469Y-5.0679
X4.469Y-5.1663
X4.469Y-5.2647
X4.469Y-5.3631
T3
X4.82Y-4.0553
X4.82Y-4.1553
X4.82Y-4.2553
X4.82Y-4.3553
X4.82Y-4.4553
X4.82Y-4.5553
X4.82Y-4.6553
X4.82Y-4.7553
X4.82Y-4.8553
X4.82Y-4.9553
X4.82Y-5.0553
X4.82Y-5.1553
X4.82Y-5.2553
X4.82Y-5.3553
X4.82Y-5.4553
X4.82Y-5.5553
X4.82Y-5.6553
X4.92Y-4.0553
X4.92Y-4.1553
X4.92Y-4.2553
X4.92Y-4.3553
X4.92Y-4.4553
X4.92Y-4.5553
X4.92Y-4.6553
X4.92Y-4.7553
X4.92Y-4.8553
X4.92Y-4.9553
X4.92Y-5.0553
X4.92Y-5.1553
X4.92Y-5.2553
X4.92Y-5.3553
X4.92Y-5.4553
X4.92Y-5.5553
X4.92Y-5.6553
T4
X3.889Y-3.81
X3.889Y-5.735
X3.9769Y-3.936
X3.98Y-5.585
T0
M30
