%FSLAX45Y45*%
G04 Gerber Fmt 4.5, Leading zero omitted, Abs format (unit mm)*
G04 Created by KiCad (PCBNEW (5.1.10)-1) date 2024-05-08 08:18:52*
%MOMM*%
%LPD*%
G01*
G04 APERTURE LIST*
%TA.AperFunction,Profile*%
%ADD10C,0.050000*%
%TD*%
%ADD11C,0.200000*%
%ADD12C,0.300000*%
G04 APERTURE END LIST*
D10*
X9144000Y-9271000D02*
X9144000Y-14986000D01*
X12750800Y-9271000D02*
X9144000Y-9271000D01*
X12750800Y-14986000D02*
X12750800Y-9271000D01*
X9144000Y-14986000D02*
X12750800Y-14986000D01*
D11*
D12*
X9427928Y-15454214D02*
X9427928Y-15154214D01*
X9499357Y-15154214D01*
X9542214Y-15168500D01*
X9570786Y-15197071D01*
X9585071Y-15225643D01*
X9599357Y-15282786D01*
X9599357Y-15325643D01*
X9585071Y-15382786D01*
X9570786Y-15411357D01*
X9542214Y-15439929D01*
X9499357Y-15454214D01*
X9427928Y-15454214D01*
X9727928Y-15454214D02*
X9727928Y-15254214D01*
X9727928Y-15311357D02*
X9742214Y-15282786D01*
X9756500Y-15268500D01*
X9785071Y-15254214D01*
X9813643Y-15254214D01*
X9913643Y-15454214D02*
X9913643Y-15254214D01*
X9913643Y-15154214D02*
X9899357Y-15168500D01*
X9913643Y-15182786D01*
X9927928Y-15168500D01*
X9913643Y-15154214D01*
X9913643Y-15182786D01*
X10099357Y-15454214D02*
X10070786Y-15439929D01*
X10056500Y-15411357D01*
X10056500Y-15154214D01*
X10256500Y-15454214D02*
X10227928Y-15439929D01*
X10213643Y-15411357D01*
X10213643Y-15154214D01*
X10599357Y-15454214D02*
X10599357Y-15154214D01*
X10699357Y-15368500D01*
X10799357Y-15154214D01*
X10799357Y-15454214D01*
X11070786Y-15454214D02*
X11070786Y-15297071D01*
X11056500Y-15268500D01*
X11027928Y-15254214D01*
X10970786Y-15254214D01*
X10942214Y-15268500D01*
X11070786Y-15439929D02*
X11042214Y-15454214D01*
X10970786Y-15454214D01*
X10942214Y-15439929D01*
X10927928Y-15411357D01*
X10927928Y-15382786D01*
X10942214Y-15354214D01*
X10970786Y-15339929D01*
X11042214Y-15339929D01*
X11070786Y-15325643D01*
X11213643Y-15254214D02*
X11213643Y-15554214D01*
X11213643Y-15268500D02*
X11242214Y-15254214D01*
X11299357Y-15254214D01*
X11327928Y-15268500D01*
X11342214Y-15282786D01*
X11356500Y-15311357D01*
X11356500Y-15397071D01*
X11342214Y-15425643D01*
X11327928Y-15439929D01*
X11299357Y-15454214D01*
X11242214Y-15454214D01*
X11213643Y-15439929D01*
X11485071Y-15425643D02*
X11499357Y-15439929D01*
X11485071Y-15454214D01*
X11470786Y-15439929D01*
X11485071Y-15425643D01*
X11485071Y-15454214D01*
X11485071Y-15268500D02*
X11499357Y-15282786D01*
X11485071Y-15297071D01*
X11470786Y-15282786D01*
X11485071Y-15268500D01*
X11485071Y-15297071D01*
M02*
