%TF.GenerationSoftware,KiCad,Pcbnew,(5.1.10)-1*%
%TF.CreationDate,2024-05-08T08:18:54+02:00*%
%TF.ProjectId,KC85-FDD_OUT,4b433835-2d46-4444-945f-4f55542e6b69,rev?*%
%TF.SameCoordinates,Original*%
%TF.FileFunction,OtherDrawing,Comment*%
%FSLAX46Y46*%
G04 Gerber Fmt 4.6, Leading zero omitted, Abs format (unit mm)*
G04 Created by KiCad (PCBNEW (5.1.10)-1) date 2024-05-08 08:18:54*
%MOMM*%
%LPD*%
G01*
G04 APERTURE LIST*
%ADD10C,0.150000*%
G04 APERTURE END LIST*
%TO.C,J1*%
D10*
X92933428Y-150754833D02*
X92985809Y-150597690D01*
X93038190Y-150545309D01*
X93142952Y-150492928D01*
X93300095Y-150492928D01*
X93404857Y-150545309D01*
X93457238Y-150597690D01*
X93509619Y-150702452D01*
X93509619Y-151121500D01*
X92409619Y-151121500D01*
X92409619Y-150754833D01*
X92462000Y-150650071D01*
X92514380Y-150597690D01*
X92619142Y-150545309D01*
X92723904Y-150545309D01*
X92828666Y-150597690D01*
X92881047Y-150650071D01*
X92933428Y-150754833D01*
X92933428Y-151121500D01*
X93509619Y-149864357D02*
X93457238Y-149969119D01*
X93404857Y-150021500D01*
X93300095Y-150073880D01*
X92985809Y-150073880D01*
X92881047Y-150021500D01*
X92828666Y-149969119D01*
X92776285Y-149864357D01*
X92776285Y-149707214D01*
X92828666Y-149602452D01*
X92881047Y-149550071D01*
X92985809Y-149497690D01*
X93300095Y-149497690D01*
X93404857Y-149550071D01*
X93457238Y-149602452D01*
X93509619Y-149707214D01*
X93509619Y-149864357D01*
X93509619Y-149026261D02*
X92409619Y-149026261D01*
X93509619Y-148554833D02*
X92933428Y-148554833D01*
X92828666Y-148607214D01*
X92776285Y-148711976D01*
X92776285Y-148869119D01*
X92828666Y-148973880D01*
X92881047Y-149026261D01*
X93509619Y-148031023D02*
X92776285Y-148031023D01*
X92985809Y-148031023D02*
X92881047Y-147978642D01*
X92828666Y-147926261D01*
X92776285Y-147821500D01*
X92776285Y-147716738D01*
X92776285Y-146878642D02*
X93509619Y-146878642D01*
X92776285Y-147350071D02*
X93352476Y-147350071D01*
X93457238Y-147297690D01*
X93509619Y-147192928D01*
X93509619Y-147035785D01*
X93457238Y-146931023D01*
X93404857Y-146878642D01*
X92776285Y-146354833D02*
X93509619Y-146354833D01*
X92881047Y-146354833D02*
X92828666Y-146302452D01*
X92776285Y-146197690D01*
X92776285Y-146040547D01*
X92828666Y-145935785D01*
X92933428Y-145883404D01*
X93509619Y-145883404D01*
X92776285Y-144888166D02*
X93666761Y-144888166D01*
X93771523Y-144940547D01*
X93823904Y-144992928D01*
X93876285Y-145097690D01*
X93876285Y-145254833D01*
X93823904Y-145359595D01*
X93457238Y-144888166D02*
X93509619Y-144992928D01*
X93509619Y-145202452D01*
X93457238Y-145307214D01*
X93404857Y-145359595D01*
X93300095Y-145411976D01*
X92985809Y-145411976D01*
X92881047Y-145359595D01*
X92828666Y-145307214D01*
X92776285Y-145202452D01*
X92776285Y-144992928D01*
X92828666Y-144888166D01*
X93457238Y-143945309D02*
X93509619Y-144050071D01*
X93509619Y-144259595D01*
X93457238Y-144364357D01*
X93352476Y-144416738D01*
X92933428Y-144416738D01*
X92828666Y-144364357D01*
X92776285Y-144259595D01*
X92776285Y-144050071D01*
X92828666Y-143945309D01*
X92933428Y-143892928D01*
X93038190Y-143892928D01*
X93142952Y-144416738D01*
X92776285Y-143421500D02*
X93509619Y-143421500D01*
X92881047Y-143421500D02*
X92828666Y-143369119D01*
X92776285Y-143264357D01*
X92776285Y-143107214D01*
X92828666Y-143002452D01*
X92933428Y-142950071D01*
X93509619Y-142950071D01*
X92776285Y-141588166D02*
X93509619Y-141588166D01*
X92881047Y-141588166D02*
X92828666Y-141535785D01*
X92776285Y-141431023D01*
X92776285Y-141273880D01*
X92828666Y-141169119D01*
X92933428Y-141116738D01*
X93509619Y-141116738D01*
X93509619Y-140121500D02*
X92933428Y-140121500D01*
X92828666Y-140173880D01*
X92776285Y-140278642D01*
X92776285Y-140488166D01*
X92828666Y-140592928D01*
X93457238Y-140121500D02*
X93509619Y-140226261D01*
X93509619Y-140488166D01*
X93457238Y-140592928D01*
X93352476Y-140645309D01*
X93247714Y-140645309D01*
X93142952Y-140592928D01*
X93090571Y-140488166D01*
X93090571Y-140226261D01*
X93038190Y-140121500D01*
X93457238Y-139126261D02*
X93509619Y-139231023D01*
X93509619Y-139440547D01*
X93457238Y-139545309D01*
X93404857Y-139597690D01*
X93300095Y-139650071D01*
X92985809Y-139650071D01*
X92881047Y-139597690D01*
X92828666Y-139545309D01*
X92776285Y-139440547D01*
X92776285Y-139231023D01*
X92828666Y-139126261D01*
X93509619Y-138654833D02*
X92409619Y-138654833D01*
X93509619Y-138183404D02*
X92933428Y-138183404D01*
X92828666Y-138235785D01*
X92776285Y-138340547D01*
X92776285Y-138497690D01*
X92828666Y-138602452D01*
X92881047Y-138654833D01*
X92933428Y-136454833D02*
X92985809Y-136297690D01*
X93038190Y-136245309D01*
X93142952Y-136192928D01*
X93300095Y-136192928D01*
X93404857Y-136245309D01*
X93457238Y-136297690D01*
X93509619Y-136402452D01*
X93509619Y-136821500D01*
X92409619Y-136821500D01*
X92409619Y-136454833D01*
X92462000Y-136350071D01*
X92514380Y-136297690D01*
X92619142Y-136245309D01*
X92723904Y-136245309D01*
X92828666Y-136297690D01*
X92881047Y-136350071D01*
X92933428Y-136454833D01*
X92933428Y-136821500D01*
X93457238Y-135302452D02*
X93509619Y-135407214D01*
X93509619Y-135616738D01*
X93457238Y-135721500D01*
X93352476Y-135773880D01*
X92933428Y-135773880D01*
X92828666Y-135721500D01*
X92776285Y-135616738D01*
X92776285Y-135407214D01*
X92828666Y-135302452D01*
X92933428Y-135250071D01*
X93038190Y-135250071D01*
X93142952Y-135773880D01*
X93509619Y-134307214D02*
X92409619Y-134307214D01*
X93457238Y-134307214D02*
X93509619Y-134411976D01*
X93509619Y-134621500D01*
X93457238Y-134726261D01*
X93404857Y-134778642D01*
X93300095Y-134831023D01*
X92985809Y-134831023D01*
X92881047Y-134778642D01*
X92828666Y-134726261D01*
X92776285Y-134621500D01*
X92776285Y-134411976D01*
X92828666Y-134307214D01*
X93509619Y-133311976D02*
X92933428Y-133311976D01*
X92828666Y-133364357D01*
X92776285Y-133469119D01*
X92776285Y-133678642D01*
X92828666Y-133783404D01*
X93457238Y-133311976D02*
X93509619Y-133416738D01*
X93509619Y-133678642D01*
X93457238Y-133783404D01*
X93352476Y-133835785D01*
X93247714Y-133835785D01*
X93142952Y-133783404D01*
X93090571Y-133678642D01*
X93090571Y-133416738D01*
X93038190Y-133311976D01*
X93509619Y-132788166D02*
X92776285Y-132788166D01*
X92985809Y-132788166D02*
X92881047Y-132735785D01*
X92828666Y-132683404D01*
X92776285Y-132578642D01*
X92776285Y-132473880D01*
X92776285Y-132264357D02*
X92776285Y-131845309D01*
X93509619Y-132107214D02*
X92566761Y-132107214D01*
X92462000Y-132054833D01*
X92409619Y-131950071D01*
X92409619Y-131845309D01*
X93457238Y-130221500D02*
X93509619Y-130326261D01*
X93509619Y-130535785D01*
X93457238Y-130640547D01*
X93352476Y-130692928D01*
X92933428Y-130692928D01*
X92828666Y-130640547D01*
X92776285Y-130535785D01*
X92776285Y-130326261D01*
X92828666Y-130221500D01*
X92933428Y-130169119D01*
X93038190Y-130169119D01*
X93142952Y-130692928D01*
X93509619Y-129697690D02*
X92776285Y-129697690D01*
X92985809Y-129697690D02*
X92881047Y-129645309D01*
X92828666Y-129592928D01*
X92776285Y-129488166D01*
X92776285Y-129383404D01*
X92776285Y-129121500D02*
X93509619Y-128911976D01*
X92985809Y-128702452D01*
X93509619Y-128492928D01*
X92776285Y-128283404D01*
X93457238Y-127445309D02*
X93509619Y-127550071D01*
X93509619Y-127759595D01*
X93457238Y-127864357D01*
X93352476Y-127916738D01*
X92933428Y-127916738D01*
X92828666Y-127864357D01*
X92776285Y-127759595D01*
X92776285Y-127550071D01*
X92828666Y-127445309D01*
X92933428Y-127392928D01*
X93038190Y-127392928D01*
X93142952Y-127916738D01*
X93509619Y-126921500D02*
X92776285Y-126921500D01*
X92409619Y-126921500D02*
X92462000Y-126973880D01*
X92514380Y-126921500D01*
X92462000Y-126869119D01*
X92409619Y-126921500D01*
X92514380Y-126921500D01*
X92776285Y-126554833D02*
X92776285Y-126135785D01*
X92409619Y-126397690D02*
X93352476Y-126397690D01*
X93457238Y-126345309D01*
X93509619Y-126240547D01*
X93509619Y-126135785D01*
X93457238Y-125350071D02*
X93509619Y-125454833D01*
X93509619Y-125664357D01*
X93457238Y-125769119D01*
X93352476Y-125821500D01*
X92933428Y-125821500D01*
X92828666Y-125769119D01*
X92776285Y-125664357D01*
X92776285Y-125454833D01*
X92828666Y-125350071D01*
X92933428Y-125297690D01*
X93038190Y-125297690D01*
X93142952Y-125821500D01*
X93509619Y-124826261D02*
X92776285Y-124826261D01*
X92985809Y-124826261D02*
X92881047Y-124773880D01*
X92828666Y-124721500D01*
X92776285Y-124616738D01*
X92776285Y-124511976D01*
X92776285Y-124145309D02*
X93509619Y-124145309D01*
X92881047Y-124145309D02*
X92828666Y-124092928D01*
X92776285Y-123988166D01*
X92776285Y-123831023D01*
X92828666Y-123726261D01*
X92933428Y-123673880D01*
X93509619Y-123673880D01*
X93404857Y-123150071D02*
X93457238Y-123097690D01*
X93509619Y-123150071D01*
X93457238Y-123202452D01*
X93404857Y-123150071D01*
X93509619Y-123150071D01*
X92828666Y-123150071D02*
X92881047Y-123097690D01*
X92933428Y-123150071D01*
X92881047Y-123202452D01*
X92828666Y-123150071D01*
X92933428Y-123150071D01*
X93509619Y-121788166D02*
X92409619Y-121788166D01*
X93195333Y-121421500D01*
X92409619Y-121054833D01*
X93509619Y-121054833D01*
X92514380Y-120583404D02*
X92462000Y-120531023D01*
X92409619Y-120426261D01*
X92409619Y-120164357D01*
X92462000Y-120059595D01*
X92514380Y-120007214D01*
X92619142Y-119954833D01*
X92723904Y-119954833D01*
X92881047Y-120007214D01*
X93509619Y-120635785D01*
X93509619Y-119954833D01*
X93457238Y-119431023D02*
X93509619Y-119431023D01*
X93614380Y-119483404D01*
X93666761Y-119535785D01*
X92514380Y-118173880D02*
X92462000Y-118121500D01*
X92409619Y-118016738D01*
X92409619Y-117754833D01*
X92462000Y-117650071D01*
X92514380Y-117597690D01*
X92619142Y-117545309D01*
X92723904Y-117545309D01*
X92881047Y-117597690D01*
X93509619Y-118226261D01*
X93509619Y-117545309D01*
X93404857Y-117073880D02*
X93457238Y-117021500D01*
X93509619Y-117073880D01*
X93457238Y-117126261D01*
X93404857Y-117073880D01*
X93509619Y-117073880D01*
X92409619Y-116026261D02*
X92409619Y-116550071D01*
X92933428Y-116602452D01*
X92881047Y-116550071D01*
X92828666Y-116445309D01*
X92828666Y-116183404D01*
X92881047Y-116078642D01*
X92933428Y-116026261D01*
X93038190Y-115973880D01*
X93300095Y-115973880D01*
X93404857Y-116026261D01*
X93457238Y-116078642D01*
X93509619Y-116183404D01*
X93509619Y-116445309D01*
X93457238Y-116550071D01*
X93404857Y-116602452D01*
X93509619Y-115502452D02*
X92776285Y-115502452D01*
X92881047Y-115502452D02*
X92828666Y-115450071D01*
X92776285Y-115345309D01*
X92776285Y-115188166D01*
X92828666Y-115083404D01*
X92933428Y-115031023D01*
X93509619Y-115031023D01*
X92933428Y-115031023D02*
X92828666Y-114978642D01*
X92776285Y-114873880D01*
X92776285Y-114716738D01*
X92828666Y-114611976D01*
X92933428Y-114559595D01*
X93509619Y-114559595D01*
X93509619Y-114035785D02*
X92776285Y-114035785D01*
X92881047Y-114035785D02*
X92828666Y-113983404D01*
X92776285Y-113878642D01*
X92776285Y-113721500D01*
X92828666Y-113616738D01*
X92933428Y-113564357D01*
X93509619Y-113564357D01*
X92933428Y-113564357D02*
X92828666Y-113511976D01*
X92776285Y-113407214D01*
X92776285Y-113250071D01*
X92828666Y-113145309D01*
X92933428Y-113092928D01*
X93509619Y-113092928D01*
X93457238Y-112516738D02*
X93509619Y-112516738D01*
X93614380Y-112569119D01*
X93666761Y-112621500D01*
X93509619Y-111207214D02*
X92409619Y-111207214D01*
X93195333Y-110840547D01*
X92409619Y-110473880D01*
X93509619Y-110473880D01*
X92409619Y-110054833D02*
X92409619Y-109373880D01*
X92828666Y-109740547D01*
X92828666Y-109583404D01*
X92881047Y-109478642D01*
X92933428Y-109426261D01*
X93038190Y-109373880D01*
X93300095Y-109373880D01*
X93404857Y-109426261D01*
X93457238Y-109478642D01*
X93509619Y-109583404D01*
X93509619Y-109897690D01*
X93457238Y-110002452D01*
X93404857Y-110054833D01*
X93457238Y-108850071D02*
X93509619Y-108850071D01*
X93614380Y-108902452D01*
X93666761Y-108954833D01*
X92409619Y-107645309D02*
X92409619Y-106964357D01*
X92828666Y-107331023D01*
X92828666Y-107173880D01*
X92881047Y-107069119D01*
X92933428Y-107016738D01*
X93038190Y-106964357D01*
X93300095Y-106964357D01*
X93404857Y-107016738D01*
X93457238Y-107069119D01*
X93509619Y-107173880D01*
X93509619Y-107488166D01*
X93457238Y-107592928D01*
X93404857Y-107645309D01*
X93509619Y-106492928D02*
X92776285Y-106492928D01*
X92881047Y-106492928D02*
X92828666Y-106440547D01*
X92776285Y-106335785D01*
X92776285Y-106178642D01*
X92828666Y-106073880D01*
X92933428Y-106021500D01*
X93509619Y-106021500D01*
X92933428Y-106021500D02*
X92828666Y-105969119D01*
X92776285Y-105864357D01*
X92776285Y-105707214D01*
X92828666Y-105602452D01*
X92933428Y-105550071D01*
X93509619Y-105550071D01*
X93509619Y-105026261D02*
X92776285Y-105026261D01*
X92881047Y-105026261D02*
X92828666Y-104973880D01*
X92776285Y-104869119D01*
X92776285Y-104711976D01*
X92828666Y-104607214D01*
X92933428Y-104554833D01*
X93509619Y-104554833D01*
X92933428Y-104554833D02*
X92828666Y-104502452D01*
X92776285Y-104397690D01*
X92776285Y-104240547D01*
X92828666Y-104135785D01*
X92933428Y-104083404D01*
X93509619Y-104083404D01*
%TD*%
M02*
