%TF.GenerationSoftware,KiCad,Pcbnew,(5.1.10)-1*%
%TF.CreationDate,2024-05-08T08:18:54+02:00*%
%TF.ProjectId,KC85-FDD_OUT,4b433835-2d46-4444-945f-4f55542e6b69,rev?*%
%TF.SameCoordinates,Original*%
%TF.FileFunction,Legend,Top*%
%TF.FilePolarity,Positive*%
%FSLAX46Y46*%
G04 Gerber Fmt 4.6, Leading zero omitted, Abs format (unit mm)*
G04 Created by KiCad (PCBNEW (5.1.10)-1) date 2024-05-08 08:18:54*
%MOMM*%
%LPD*%
G01*
G04 APERTURE LIST*
%ADD10C,0.120000*%
%ADD11C,0.250000*%
%ADD12C,0.100000*%
%ADD13C,0.200000*%
%ADD14C,0.150000*%
G04 APERTURE END LIST*
D10*
%TO.C,J2*%
X121097000Y-101675001D02*
X122427000Y-101675001D01*
X121097000Y-103005001D02*
X121097000Y-101675001D01*
X123697000Y-101675001D02*
X126297000Y-101675001D01*
X123697000Y-104275001D02*
X123697000Y-101675001D01*
X121097000Y-104275001D02*
X123697000Y-104275001D01*
X126297000Y-101675001D02*
X126297000Y-144975001D01*
X121097000Y-104275001D02*
X121097000Y-144975001D01*
X121097000Y-144975001D02*
X126297000Y-144975001D01*
D11*
%TO.C,J1*%
X96012000Y-139724000D02*
X96012000Y-142724000D01*
X97512000Y-141224000D02*
X94512000Y-141224000D01*
D12*
X101012000Y-140469000D02*
X101012000Y-144469000D01*
X103012000Y-141834000D02*
X99012000Y-141834000D01*
X102512000Y-141834000D02*
G75*
G03*
X102512000Y-141834000I-1500000J0D01*
G01*
X101012000Y-97974000D02*
X101012000Y-101974000D01*
X103012000Y-99974000D02*
X99012000Y-99974000D01*
X102512000Y-99974000D02*
G75*
G03*
X102512000Y-99974000I-1500000J0D01*
G01*
D13*
X91512000Y-102224000D02*
X98512000Y-102224000D01*
X91567000Y-141224000D02*
X91512000Y-102224000D01*
X106512000Y-145034000D02*
X98512000Y-145034000D01*
X106512000Y-97224000D02*
X106512000Y-145034000D01*
X98512000Y-97224000D02*
X106512000Y-97224000D01*
X98512000Y-97224000D02*
X98512000Y-145034000D01*
D12*
X100280600Y-145669000D02*
G75*
G03*
X100280600Y-145669000I-1500000J0D01*
G01*
X100685600Y-145669000D02*
X96875600Y-145669000D01*
X98780600Y-143764000D02*
X98780600Y-147574000D01*
X100672900Y-96786700D02*
X96862900Y-96786700D01*
X98767900Y-94881700D02*
X98767900Y-98691700D01*
X100267900Y-96786700D02*
G75*
G03*
X100267900Y-96786700I-1500000J0D01*
G01*
D13*
X101092000Y-94234000D02*
X96012000Y-94234000D01*
X96012000Y-99314000D02*
X88392000Y-99314000D01*
X96012000Y-94234000D02*
X96012000Y-99314000D01*
X96012000Y-148209000D02*
X101092000Y-148209000D01*
X96012000Y-145034000D02*
X96012000Y-148209000D01*
X88392000Y-145034000D02*
X96012000Y-145034000D01*
X88392000Y-99314000D02*
X88392000Y-145034000D01*
X101092000Y-148209000D02*
X101092000Y-94234000D01*
D10*
X91567000Y-141224000D02*
X96012000Y-141224000D01*
X96012000Y-145034000D02*
X96012000Y-141859000D01*
X96012000Y-141859000D02*
X96012000Y-141224000D01*
X96012000Y-141224000D02*
X92202000Y-141224000D01*
X92202000Y-141224000D02*
X91567000Y-141224000D01*
%TO.C,J2*%
D14*
X123363666Y-100127381D02*
X123363666Y-100841667D01*
X123316047Y-100984524D01*
X123220809Y-101079762D01*
X123077952Y-101127381D01*
X122982714Y-101127381D01*
X123792238Y-100222620D02*
X123839857Y-100175001D01*
X123935095Y-100127381D01*
X124173190Y-100127381D01*
X124268428Y-100175001D01*
X124316047Y-100222620D01*
X124363666Y-100317858D01*
X124363666Y-100413096D01*
X124316047Y-100555953D01*
X123744619Y-101127381D01*
X124363666Y-101127381D01*
%TO.C,J1*%
X96464380Y-143911976D02*
X97178666Y-143911976D01*
X97321523Y-143959595D01*
X97416761Y-144054833D01*
X97464380Y-144197690D01*
X97464380Y-144292928D01*
X97464380Y-142911976D02*
X97464380Y-143483404D01*
X97464380Y-143197690D02*
X96464380Y-143197690D01*
X96607238Y-143292928D01*
X96702476Y-143388166D01*
X96750095Y-143483404D01*
%TD*%
M02*
