%TF.GenerationSoftware,KiCad,Pcbnew,(5.1.10)-1*%
%TF.CreationDate,2024-05-08T08:23:43+02:00*%
%TF.ProjectId,M003,4d303033-2e6b-4696-9361-645f70636258,rev?*%
%TF.SameCoordinates,Original*%
%TF.FileFunction,Legend,Top*%
%TF.FilePolarity,Positive*%
%FSLAX46Y46*%
G04 Gerber Fmt 4.6, Leading zero omitted, Abs format (unit mm)*
G04 Created by KiCad (PCBNEW (5.1.10)-1) date 2024-05-08 08:23:43*
%MOMM*%
%LPD*%
G01*
G04 APERTURE LIST*
%ADD10C,0.120000*%
%ADD11C,0.150000*%
G04 APERTURE END LIST*
D10*
%TO.C,U8*%
X132782000Y-98080000D02*
X132782000Y-99330000D01*
X150682000Y-98080000D02*
X132782000Y-98080000D01*
X150682000Y-102580000D02*
X150682000Y-98080000D01*
X132782000Y-102580000D02*
X150682000Y-102580000D01*
X132782000Y-101330000D02*
X132782000Y-102580000D01*
X132782000Y-99330000D02*
G75*
G02*
X132782000Y-101330000I0J-1000000D01*
G01*
%TO.C,J10*%
X165802000Y-113732000D02*
X167132000Y-113732000D01*
X165802000Y-115062000D02*
X165802000Y-113732000D01*
X165802000Y-116332000D02*
X168462000Y-116332000D01*
X168462000Y-116332000D02*
X168462000Y-124012000D01*
X165802000Y-116332000D02*
X165802000Y-124012000D01*
X165802000Y-124012000D02*
X168462000Y-124012000D01*
%TO.C,J9*%
X168850000Y-113732000D02*
X170180000Y-113732000D01*
X168850000Y-115062000D02*
X168850000Y-113732000D01*
X168850000Y-116332000D02*
X171510000Y-116332000D01*
X171510000Y-116332000D02*
X171510000Y-124012000D01*
X168850000Y-116332000D02*
X168850000Y-124012000D01*
X168850000Y-124012000D02*
X171510000Y-124012000D01*
%TO.C,J8*%
X174946000Y-113732000D02*
X176276000Y-113732000D01*
X174946000Y-115062000D02*
X174946000Y-113732000D01*
X174946000Y-116332000D02*
X177606000Y-116332000D01*
X177606000Y-116332000D02*
X177606000Y-124012000D01*
X174946000Y-116332000D02*
X174946000Y-124012000D01*
X174946000Y-124012000D02*
X177606000Y-124012000D01*
%TO.C,J7*%
X171898000Y-113732000D02*
X173228000Y-113732000D01*
X171898000Y-115062000D02*
X171898000Y-113732000D01*
X171898000Y-116332000D02*
X174558000Y-116332000D01*
X174558000Y-116332000D02*
X174558000Y-124012000D01*
X171898000Y-116332000D02*
X171898000Y-124012000D01*
X171898000Y-124012000D02*
X174558000Y-124012000D01*
%TO.C,J6*%
X121352000Y-113224000D02*
X122682000Y-113224000D01*
X121352000Y-114554000D02*
X121352000Y-113224000D01*
X121352000Y-115824000D02*
X124012000Y-115824000D01*
X124012000Y-115824000D02*
X124012000Y-123504000D01*
X121352000Y-115824000D02*
X121352000Y-123504000D01*
X121352000Y-123504000D02*
X124012000Y-123504000D01*
%TO.C,J5*%
X124400000Y-113224000D02*
X125730000Y-113224000D01*
X124400000Y-114554000D02*
X124400000Y-113224000D01*
X124400000Y-115824000D02*
X127060000Y-115824000D01*
X127060000Y-115824000D02*
X127060000Y-123504000D01*
X124400000Y-115824000D02*
X124400000Y-123504000D01*
X124400000Y-123504000D02*
X127060000Y-123504000D01*
%TO.C,J4*%
X130496000Y-113224000D02*
X131826000Y-113224000D01*
X130496000Y-114554000D02*
X130496000Y-113224000D01*
X130496000Y-115824000D02*
X133156000Y-115824000D01*
X133156000Y-115824000D02*
X133156000Y-123504000D01*
X130496000Y-115824000D02*
X130496000Y-123504000D01*
X130496000Y-123504000D02*
X133156000Y-123504000D01*
%TO.C,J3*%
X127448000Y-113224000D02*
X128778000Y-113224000D01*
X127448000Y-114554000D02*
X127448000Y-113224000D01*
X127448000Y-115824000D02*
X130108000Y-115824000D01*
X130108000Y-115824000D02*
X130108000Y-123504000D01*
X127448000Y-115824000D02*
X127448000Y-123504000D01*
X127448000Y-123504000D02*
X130108000Y-123504000D01*
%TO.C,U15*%
X101616000Y-60646000D02*
X100366000Y-60646000D01*
X100366000Y-60646000D02*
X100366000Y-78546000D01*
X100366000Y-78546000D02*
X104866000Y-78546000D01*
X104866000Y-78546000D02*
X104866000Y-60646000D01*
X104866000Y-60646000D02*
X103616000Y-60646000D01*
X103616000Y-60646000D02*
G75*
G02*
X101616000Y-60646000I-1000000J0D01*
G01*
%TO.C,U14*%
X101870000Y-39818000D02*
X100620000Y-39818000D01*
X100620000Y-39818000D02*
X100620000Y-57718000D01*
X100620000Y-57718000D02*
X105120000Y-57718000D01*
X105120000Y-57718000D02*
X105120000Y-39818000D01*
X105120000Y-39818000D02*
X103870000Y-39818000D01*
X103870000Y-39818000D02*
G75*
G02*
X101870000Y-39818000I-1000000J0D01*
G01*
%TO.C,R6*%
X109374000Y-132810000D02*
X112114000Y-132810000D01*
X112114000Y-132810000D02*
X112114000Y-126270000D01*
X112114000Y-126270000D02*
X109374000Y-126270000D01*
X109374000Y-126270000D02*
X109374000Y-132810000D01*
X110744000Y-133580000D02*
X110744000Y-132810000D01*
X110744000Y-125500000D02*
X110744000Y-126270000D01*
%TO.C,R5*%
X185134000Y-50392000D02*
X185134000Y-47652000D01*
X185134000Y-47652000D02*
X178594000Y-47652000D01*
X178594000Y-47652000D02*
X178594000Y-50392000D01*
X178594000Y-50392000D02*
X185134000Y-50392000D01*
X185904000Y-49022000D02*
X185134000Y-49022000D01*
X177824000Y-49022000D02*
X178594000Y-49022000D01*
%TO.C,C20*%
X204024000Y-86006000D02*
X200384000Y-86006000D01*
X204024000Y-83666000D02*
X200384000Y-83666000D01*
X204024000Y-86006000D02*
X204024000Y-85761000D01*
X204024000Y-83911000D02*
X204024000Y-83666000D01*
X200384000Y-86006000D02*
X200384000Y-85761000D01*
X200384000Y-83911000D02*
X200384000Y-83666000D01*
%TO.C,C19*%
X152808000Y-101284000D02*
X152808000Y-104924000D01*
X150468000Y-101284000D02*
X150468000Y-104924000D01*
X152808000Y-101284000D02*
X152563000Y-101284000D01*
X150713000Y-101284000D02*
X150468000Y-101284000D01*
X152808000Y-104924000D02*
X152563000Y-104924000D01*
X150713000Y-104924000D02*
X150468000Y-104924000D01*
%TO.C,C18*%
X204278000Y-64924000D02*
X200638000Y-64924000D01*
X204278000Y-62584000D02*
X200638000Y-62584000D01*
X204278000Y-64924000D02*
X204278000Y-64679000D01*
X204278000Y-62829000D02*
X204278000Y-62584000D01*
X200638000Y-64924000D02*
X200638000Y-64679000D01*
X200638000Y-62829000D02*
X200638000Y-62584000D01*
%TO.C,C17*%
X173382000Y-101030000D02*
X173382000Y-104670000D01*
X171042000Y-101030000D02*
X171042000Y-104670000D01*
X173382000Y-101030000D02*
X173137000Y-101030000D01*
X171287000Y-101030000D02*
X171042000Y-101030000D01*
X173382000Y-104670000D02*
X173137000Y-104670000D01*
X171287000Y-104670000D02*
X171042000Y-104670000D01*
%TO.C,C16*%
X101916000Y-105056000D02*
X98276000Y-105056000D01*
X101916000Y-102716000D02*
X98276000Y-102716000D01*
X101916000Y-105056000D02*
X101916000Y-104811000D01*
X101916000Y-102961000D02*
X101916000Y-102716000D01*
X98276000Y-105056000D02*
X98276000Y-104811000D01*
X98276000Y-102961000D02*
X98276000Y-102716000D01*
%TO.C,C15*%
X147474000Y-68518000D02*
X147474000Y-72158000D01*
X145134000Y-68518000D02*
X145134000Y-72158000D01*
X147474000Y-68518000D02*
X147229000Y-68518000D01*
X145379000Y-68518000D02*
X145134000Y-68518000D01*
X147474000Y-72158000D02*
X147229000Y-72158000D01*
X145379000Y-72158000D02*
X145134000Y-72158000D01*
%TO.C,C14*%
X147474000Y-84266000D02*
X147474000Y-87906000D01*
X145134000Y-84266000D02*
X145134000Y-87906000D01*
X147474000Y-84266000D02*
X147229000Y-84266000D01*
X145379000Y-84266000D02*
X145134000Y-84266000D01*
X147474000Y-87906000D02*
X147229000Y-87906000D01*
X145379000Y-87906000D02*
X145134000Y-87906000D01*
%TO.C,C13*%
X102170000Y-60352000D02*
X98530000Y-60352000D01*
X102170000Y-58012000D02*
X98530000Y-58012000D01*
X102170000Y-60352000D02*
X102170000Y-60107000D01*
X102170000Y-58257000D02*
X102170000Y-58012000D01*
X98530000Y-60352000D02*
X98530000Y-60107000D01*
X98530000Y-58257000D02*
X98530000Y-58012000D01*
%TO.C,C4*%
X101662000Y-80672000D02*
X98022000Y-80672000D01*
X101662000Y-78332000D02*
X98022000Y-78332000D01*
X101662000Y-80672000D02*
X101662000Y-80427000D01*
X101662000Y-78577000D02*
X101662000Y-78332000D01*
X98022000Y-80672000D02*
X98022000Y-80427000D01*
X98022000Y-78577000D02*
X98022000Y-78332000D01*
%TO.C,C1*%
X147728000Y-52262000D02*
X147728000Y-55902000D01*
X145388000Y-52262000D02*
X145388000Y-55902000D01*
X147728000Y-52262000D02*
X147483000Y-52262000D01*
X145633000Y-52262000D02*
X145388000Y-52262000D01*
X147728000Y-55902000D02*
X147483000Y-55902000D01*
X145633000Y-55902000D02*
X145388000Y-55902000D01*
%TO.C,U13*%
X119574000Y-81316000D02*
X119574000Y-82566000D01*
X145094000Y-81316000D02*
X119574000Y-81316000D01*
X145094000Y-85816000D02*
X145094000Y-81316000D01*
X119574000Y-85816000D02*
X145094000Y-85816000D01*
X119574000Y-84566000D02*
X119574000Y-85816000D01*
X119574000Y-82566000D02*
G75*
G02*
X119574000Y-84566000I0J-1000000D01*
G01*
%TO.C,U12*%
X201894000Y-86554000D02*
X200644000Y-86554000D01*
X201894000Y-104454000D02*
X201894000Y-86554000D01*
X197394000Y-104454000D02*
X201894000Y-104454000D01*
X197394000Y-86554000D02*
X197394000Y-104454000D01*
X198644000Y-86554000D02*
X197394000Y-86554000D01*
X200644000Y-86554000D02*
G75*
G02*
X198644000Y-86554000I-1000000J0D01*
G01*
%TO.C,U11*%
X202148000Y-64964000D02*
X200898000Y-64964000D01*
X202148000Y-82864000D02*
X202148000Y-64964000D01*
X197648000Y-82864000D02*
X202148000Y-82864000D01*
X197648000Y-64964000D02*
X197648000Y-82864000D01*
X198898000Y-64964000D02*
X197648000Y-64964000D01*
X200898000Y-64964000D02*
G75*
G02*
X198898000Y-64964000I-1000000J0D01*
G01*
%TO.C,U10*%
X112970000Y-98588000D02*
X112970000Y-99838000D01*
X130870000Y-98588000D02*
X112970000Y-98588000D01*
X130870000Y-103088000D02*
X130870000Y-98588000D01*
X112970000Y-103088000D02*
X130870000Y-103088000D01*
X112970000Y-101838000D02*
X112970000Y-103088000D01*
X112970000Y-99838000D02*
G75*
G02*
X112970000Y-101838000I0J-1000000D01*
G01*
%TO.C,U9*%
X119574000Y-65314000D02*
X119574000Y-66564000D01*
X145094000Y-65314000D02*
X119574000Y-65314000D01*
X145094000Y-69814000D02*
X145094000Y-65314000D01*
X119574000Y-69814000D02*
X145094000Y-69814000D01*
X119574000Y-68564000D02*
X119574000Y-69814000D01*
X119574000Y-66564000D02*
G75*
G02*
X119574000Y-68564000I0J-1000000D01*
G01*
%TO.C,R4*%
X169188000Y-90424000D02*
X169958000Y-90424000D01*
X177268000Y-90424000D02*
X176498000Y-90424000D01*
X169958000Y-91794000D02*
X176498000Y-91794000D01*
X169958000Y-89054000D02*
X169958000Y-91794000D01*
X176498000Y-89054000D02*
X169958000Y-89054000D01*
X176498000Y-91794000D02*
X176498000Y-89054000D01*
%TO.C,R3*%
X169188000Y-93218000D02*
X169958000Y-93218000D01*
X177268000Y-93218000D02*
X176498000Y-93218000D01*
X169958000Y-94588000D02*
X176498000Y-94588000D01*
X169958000Y-91848000D02*
X169958000Y-94588000D01*
X176498000Y-91848000D02*
X169958000Y-91848000D01*
X176498000Y-94588000D02*
X176498000Y-91848000D01*
%TO.C,R2*%
X187428000Y-100838000D02*
X186658000Y-100838000D01*
X179348000Y-100838000D02*
X180118000Y-100838000D01*
X186658000Y-99468000D02*
X180118000Y-99468000D01*
X186658000Y-102208000D02*
X186658000Y-99468000D01*
X180118000Y-102208000D02*
X186658000Y-102208000D01*
X180118000Y-99468000D02*
X180118000Y-102208000D01*
%TO.C,C12*%
X162397000Y-76730000D02*
X162152000Y-76730000D01*
X164492000Y-76730000D02*
X164247000Y-76730000D01*
X162397000Y-73090000D02*
X162152000Y-73090000D01*
X164492000Y-73090000D02*
X164247000Y-73090000D01*
X162152000Y-73090000D02*
X162152000Y-76730000D01*
X164492000Y-73090000D02*
X164492000Y-76730000D01*
%TO.C,C11*%
X192695000Y-90148000D02*
X192940000Y-90148000D01*
X190600000Y-90148000D02*
X190845000Y-90148000D01*
X192695000Y-93788000D02*
X192940000Y-93788000D01*
X190600000Y-93788000D02*
X190845000Y-93788000D01*
X192940000Y-93788000D02*
X192940000Y-90148000D01*
X190600000Y-93788000D02*
X190600000Y-90148000D01*
%TO.C,U5*%
X105120000Y-81982000D02*
X103870000Y-81982000D01*
X105120000Y-102422000D02*
X105120000Y-81982000D01*
X100620000Y-102422000D02*
X105120000Y-102422000D01*
X100620000Y-81982000D02*
X100620000Y-102422000D01*
X101870000Y-81982000D02*
X100620000Y-81982000D01*
X103870000Y-81982000D02*
G75*
G02*
X101870000Y-81982000I-1000000J0D01*
G01*
%TO.C,U4*%
X119828000Y-49312000D02*
X119828000Y-50562000D01*
X145348000Y-49312000D02*
X119828000Y-49312000D01*
X145348000Y-53812000D02*
X145348000Y-49312000D01*
X119828000Y-53812000D02*
X145348000Y-53812000D01*
X119828000Y-52562000D02*
X119828000Y-53812000D01*
X119828000Y-50562000D02*
G75*
G02*
X119828000Y-52562000I0J-1000000D01*
G01*
%TO.C,U3*%
X152848000Y-98080000D02*
X152848000Y-99330000D01*
X170748000Y-98080000D02*
X152848000Y-98080000D01*
X170748000Y-102580000D02*
X170748000Y-98080000D01*
X152848000Y-102580000D02*
X170748000Y-102580000D01*
X152848000Y-101330000D02*
X152848000Y-102580000D01*
X152848000Y-99330000D02*
G75*
G02*
X152848000Y-101330000I0J-1000000D01*
G01*
%TO.C,U2*%
X101032000Y-110780000D02*
X101032000Y-112030000D01*
X118932000Y-110780000D02*
X101032000Y-110780000D01*
X118932000Y-115280000D02*
X118932000Y-110780000D01*
X101032000Y-115280000D02*
X118932000Y-115280000D01*
X101032000Y-114030000D02*
X101032000Y-115280000D01*
X101032000Y-112030000D02*
G75*
G02*
X101032000Y-114030000I0J-1000000D01*
G01*
%TO.C,U1*%
X174438000Y-98334000D02*
X174438000Y-99584000D01*
X192338000Y-98334000D02*
X174438000Y-98334000D01*
X192338000Y-102834000D02*
X192338000Y-98334000D01*
X174438000Y-102834000D02*
X192338000Y-102834000D01*
X174438000Y-101584000D02*
X174438000Y-102834000D01*
X174438000Y-99584000D02*
G75*
G02*
X174438000Y-101584000I0J-1000000D01*
G01*
%TO.C,R1*%
X185904000Y-52070000D02*
X185134000Y-52070000D01*
X177824000Y-52070000D02*
X178594000Y-52070000D01*
X185134000Y-50700000D02*
X178594000Y-50700000D01*
X185134000Y-53440000D02*
X185134000Y-50700000D01*
X178594000Y-53440000D02*
X185134000Y-53440000D01*
X178594000Y-50700000D02*
X178594000Y-53440000D01*
%TO.C,J2*%
X133858000Y-124170675D02*
X133608000Y-123737662D01*
X134108000Y-123737662D02*
X133858000Y-124170675D01*
X133608000Y-123737662D02*
X134108000Y-123737662D01*
X143803000Y-124632000D02*
X143803000Y-136972000D01*
X112833000Y-124632000D02*
X143803000Y-124632000D01*
X112833000Y-136972000D02*
X112833000Y-124632000D01*
%TO.C,J1*%
X178816000Y-124424675D02*
X178566000Y-123991662D01*
X179066000Y-123991662D02*
X178816000Y-124424675D01*
X178566000Y-123991662D02*
X179066000Y-123991662D01*
X188761000Y-124886000D02*
X188761000Y-137226000D01*
X157791000Y-124886000D02*
X188761000Y-124886000D01*
X157791000Y-137226000D02*
X157791000Y-124886000D01*
%TO.C,IC2*%
X151832000Y-69378000D02*
X151832000Y-74438000D01*
X187512000Y-69378000D02*
X151832000Y-69378000D01*
X187512000Y-81498000D02*
X187512000Y-69378000D01*
X151832000Y-81498000D02*
X187512000Y-81498000D01*
X151832000Y-76438000D02*
X151832000Y-81498000D01*
X151832000Y-74438000D02*
G75*
G02*
X151832000Y-76438000I0J-1000000D01*
G01*
%TO.C,IC1*%
X151832000Y-43978000D02*
X151832000Y-49038000D01*
X202752000Y-43978000D02*
X151832000Y-43978000D01*
X202752000Y-56098000D02*
X202752000Y-43978000D01*
X151832000Y-56098000D02*
X202752000Y-56098000D01*
X151832000Y-51038000D02*
X151832000Y-56098000D01*
X151832000Y-49038000D02*
G75*
G02*
X151832000Y-51038000I0J-1000000D01*
G01*
%TO.C,D1*%
X102850000Y-125709000D02*
X102850000Y-128799000D01*
X107910000Y-127254000D02*
G75*
G03*
X107910000Y-127254000I-2500000J0D01*
G01*
X108400000Y-127253538D02*
G75*
G02*
X102850000Y-128798830I-2990000J-462D01*
G01*
X108400000Y-127254462D02*
G75*
G03*
X102850000Y-125709170I-2990000J462D01*
G01*
%TO.C,C2*%
X102847211Y-35062000D02*
X102847211Y-34312000D01*
X103222211Y-34687000D02*
X102472211Y-34687000D01*
X95239000Y-32953000D02*
X95239000Y-32071000D01*
X95279000Y-33205000D02*
X95279000Y-31819000D01*
X95319000Y-33389000D02*
X95319000Y-31635000D01*
X95359000Y-33540000D02*
X95359000Y-31484000D01*
X95399000Y-33670000D02*
X95399000Y-31354000D01*
X95439000Y-33787000D02*
X95439000Y-31237000D01*
X95479000Y-33893000D02*
X95479000Y-31131000D01*
X95519000Y-33990000D02*
X95519000Y-31034000D01*
X95559000Y-34081000D02*
X95559000Y-30943000D01*
X95599000Y-34166000D02*
X95599000Y-30858000D01*
X95639000Y-34245000D02*
X95639000Y-30779000D01*
X95679000Y-34321000D02*
X95679000Y-30703000D01*
X95719000Y-34393000D02*
X95719000Y-30631000D01*
X95759000Y-34461000D02*
X95759000Y-30563000D01*
X95799000Y-34526000D02*
X95799000Y-30498000D01*
X95839000Y-34589000D02*
X95839000Y-30435000D01*
X95879000Y-34649000D02*
X95879000Y-30375000D01*
X95919000Y-34707000D02*
X95919000Y-30317000D01*
X95959000Y-34762000D02*
X95959000Y-30262000D01*
X95999000Y-34816000D02*
X95999000Y-30208000D01*
X96039000Y-34867000D02*
X96039000Y-30157000D01*
X96079000Y-34917000D02*
X96079000Y-30107000D01*
X96119000Y-34966000D02*
X96119000Y-30058000D01*
X96159000Y-35012000D02*
X96159000Y-30012000D01*
X96199000Y-35058000D02*
X96199000Y-29966000D01*
X96239000Y-35101000D02*
X96239000Y-29923000D01*
X96279000Y-35144000D02*
X96279000Y-29880000D01*
X96319000Y-35185000D02*
X96319000Y-29839000D01*
X96359000Y-35225000D02*
X96359000Y-29799000D01*
X96399000Y-35264000D02*
X96399000Y-29760000D01*
X96439000Y-35302000D02*
X96439000Y-29722000D01*
X96479000Y-35339000D02*
X96479000Y-29685000D01*
X96519000Y-35375000D02*
X96519000Y-29649000D01*
X96559000Y-35410000D02*
X96559000Y-29614000D01*
X96599000Y-35443000D02*
X96599000Y-29581000D01*
X96639000Y-35476000D02*
X96639000Y-29548000D01*
X96679000Y-35508000D02*
X96679000Y-29516000D01*
X96719000Y-35540000D02*
X96719000Y-29484000D01*
X96759000Y-35570000D02*
X96759000Y-29454000D01*
X96799000Y-31472000D02*
X96799000Y-29424000D01*
X96799000Y-35600000D02*
X96799000Y-33552000D01*
X96839000Y-31472000D02*
X96839000Y-29396000D01*
X96839000Y-35628000D02*
X96839000Y-33552000D01*
X96879000Y-31472000D02*
X96879000Y-29368000D01*
X96879000Y-35656000D02*
X96879000Y-33552000D01*
X96919000Y-31472000D02*
X96919000Y-29340000D01*
X96919000Y-35684000D02*
X96919000Y-33552000D01*
X96959000Y-31472000D02*
X96959000Y-29314000D01*
X96959000Y-35710000D02*
X96959000Y-33552000D01*
X96999000Y-31472000D02*
X96999000Y-29288000D01*
X96999000Y-35736000D02*
X96999000Y-33552000D01*
X97039000Y-31472000D02*
X97039000Y-29263000D01*
X97039000Y-35761000D02*
X97039000Y-33552000D01*
X97079000Y-31472000D02*
X97079000Y-29238000D01*
X97079000Y-35786000D02*
X97079000Y-33552000D01*
X97119000Y-31472000D02*
X97119000Y-29215000D01*
X97119000Y-35809000D02*
X97119000Y-33552000D01*
X97159000Y-31472000D02*
X97159000Y-29191000D01*
X97159000Y-35833000D02*
X97159000Y-33552000D01*
X97199000Y-31472000D02*
X97199000Y-29169000D01*
X97199000Y-35855000D02*
X97199000Y-33552000D01*
X97239000Y-31472000D02*
X97239000Y-29147000D01*
X97239000Y-35877000D02*
X97239000Y-33552000D01*
X97279000Y-31472000D02*
X97279000Y-29126000D01*
X97279000Y-35898000D02*
X97279000Y-33552000D01*
X97319000Y-31472000D02*
X97319000Y-29105000D01*
X97319000Y-35919000D02*
X97319000Y-33552000D01*
X97359000Y-31472000D02*
X97359000Y-29085000D01*
X97359000Y-35939000D02*
X97359000Y-33552000D01*
X97399000Y-31472000D02*
X97399000Y-29065000D01*
X97399000Y-35959000D02*
X97399000Y-33552000D01*
X97439000Y-31472000D02*
X97439000Y-29046000D01*
X97439000Y-35978000D02*
X97439000Y-33552000D01*
X97479000Y-31472000D02*
X97479000Y-29028000D01*
X97479000Y-35996000D02*
X97479000Y-33552000D01*
X97519000Y-31472000D02*
X97519000Y-29010000D01*
X97519000Y-36014000D02*
X97519000Y-33552000D01*
X97559000Y-31472000D02*
X97559000Y-28992000D01*
X97559000Y-36032000D02*
X97559000Y-33552000D01*
X97599000Y-31472000D02*
X97599000Y-28976000D01*
X97599000Y-36048000D02*
X97599000Y-33552000D01*
X97639000Y-31472000D02*
X97639000Y-28959000D01*
X97639000Y-36065000D02*
X97639000Y-33552000D01*
X97679000Y-31472000D02*
X97679000Y-28944000D01*
X97679000Y-36080000D02*
X97679000Y-33552000D01*
X97719000Y-31472000D02*
X97719000Y-28928000D01*
X97719000Y-36096000D02*
X97719000Y-33552000D01*
X97759000Y-31472000D02*
X97759000Y-28914000D01*
X97759000Y-36110000D02*
X97759000Y-33552000D01*
X97799000Y-31472000D02*
X97799000Y-28899000D01*
X97799000Y-36125000D02*
X97799000Y-33552000D01*
X97839000Y-31472000D02*
X97839000Y-28886000D01*
X97839000Y-36138000D02*
X97839000Y-33552000D01*
X97879000Y-31472000D02*
X97879000Y-28872000D01*
X97879000Y-36152000D02*
X97879000Y-33552000D01*
X97919000Y-31472000D02*
X97919000Y-28859000D01*
X97919000Y-36165000D02*
X97919000Y-33552000D01*
X97959000Y-31472000D02*
X97959000Y-28847000D01*
X97959000Y-36177000D02*
X97959000Y-33552000D01*
X97999000Y-31472000D02*
X97999000Y-28835000D01*
X97999000Y-36189000D02*
X97999000Y-33552000D01*
X98039000Y-31472000D02*
X98039000Y-28824000D01*
X98039000Y-36200000D02*
X98039000Y-33552000D01*
X98079000Y-31472000D02*
X98079000Y-28813000D01*
X98079000Y-36211000D02*
X98079000Y-33552000D01*
X98119000Y-31472000D02*
X98119000Y-28802000D01*
X98119000Y-36222000D02*
X98119000Y-33552000D01*
X98159000Y-31472000D02*
X98159000Y-28792000D01*
X98159000Y-36232000D02*
X98159000Y-33552000D01*
X98199000Y-31472000D02*
X98199000Y-28783000D01*
X98199000Y-36241000D02*
X98199000Y-33552000D01*
X98239000Y-31472000D02*
X98239000Y-28774000D01*
X98239000Y-36250000D02*
X98239000Y-33552000D01*
X98279000Y-31472000D02*
X98279000Y-28765000D01*
X98279000Y-36259000D02*
X98279000Y-33552000D01*
X98319000Y-31472000D02*
X98319000Y-28757000D01*
X98319000Y-36267000D02*
X98319000Y-33552000D01*
X98359000Y-31472000D02*
X98359000Y-28749000D01*
X98359000Y-36275000D02*
X98359000Y-33552000D01*
X98400000Y-31472000D02*
X98400000Y-28742000D01*
X98400000Y-36282000D02*
X98400000Y-33552000D01*
X98440000Y-31472000D02*
X98440000Y-28735000D01*
X98440000Y-36289000D02*
X98440000Y-33552000D01*
X98480000Y-31472000D02*
X98480000Y-28728000D01*
X98480000Y-36296000D02*
X98480000Y-33552000D01*
X98520000Y-31472000D02*
X98520000Y-28722000D01*
X98520000Y-36302000D02*
X98520000Y-33552000D01*
X98560000Y-31472000D02*
X98560000Y-28717000D01*
X98560000Y-36307000D02*
X98560000Y-33552000D01*
X98600000Y-31472000D02*
X98600000Y-28711000D01*
X98600000Y-36313000D02*
X98600000Y-33552000D01*
X98640000Y-31472000D02*
X98640000Y-28707000D01*
X98640000Y-36317000D02*
X98640000Y-33552000D01*
X98680000Y-31472000D02*
X98680000Y-28702000D01*
X98680000Y-36322000D02*
X98680000Y-33552000D01*
X98720000Y-31472000D02*
X98720000Y-28698000D01*
X98720000Y-36326000D02*
X98720000Y-33552000D01*
X98760000Y-31472000D02*
X98760000Y-28695000D01*
X98760000Y-36329000D02*
X98760000Y-33552000D01*
X98800000Y-31472000D02*
X98800000Y-28692000D01*
X98800000Y-36332000D02*
X98800000Y-33552000D01*
X98840000Y-31472000D02*
X98840000Y-28689000D01*
X98840000Y-36335000D02*
X98840000Y-33552000D01*
X98880000Y-36337000D02*
X98880000Y-28687000D01*
X98920000Y-36339000D02*
X98920000Y-28685000D01*
X98960000Y-36341000D02*
X98960000Y-28683000D01*
X99000000Y-36342000D02*
X99000000Y-28682000D01*
X99040000Y-36342000D02*
X99040000Y-28682000D01*
X99080000Y-36342000D02*
X99080000Y-28682000D01*
X102950000Y-32512000D02*
G75*
G03*
X102950000Y-32512000I-3870000J0D01*
G01*
%TO.C,U8*%
D11*
X131234380Y-101091904D02*
X132043904Y-101091904D01*
X132139142Y-101044285D01*
X132186761Y-100996666D01*
X132234380Y-100901428D01*
X132234380Y-100710952D01*
X132186761Y-100615714D01*
X132139142Y-100568095D01*
X132043904Y-100520476D01*
X131234380Y-100520476D01*
X131662952Y-99901428D02*
X131615333Y-99996666D01*
X131567714Y-100044285D01*
X131472476Y-100091904D01*
X131424857Y-100091904D01*
X131329619Y-100044285D01*
X131282000Y-99996666D01*
X131234380Y-99901428D01*
X131234380Y-99710952D01*
X131282000Y-99615714D01*
X131329619Y-99568095D01*
X131424857Y-99520476D01*
X131472476Y-99520476D01*
X131567714Y-99568095D01*
X131615333Y-99615714D01*
X131662952Y-99710952D01*
X131662952Y-99901428D01*
X131710571Y-99996666D01*
X131758190Y-100044285D01*
X131853428Y-100091904D01*
X132043904Y-100091904D01*
X132139142Y-100044285D01*
X132186761Y-99996666D01*
X132234380Y-99901428D01*
X132234380Y-99710952D01*
X132186761Y-99615714D01*
X132139142Y-99568095D01*
X132043904Y-99520476D01*
X131853428Y-99520476D01*
X131758190Y-99568095D01*
X131710571Y-99615714D01*
X131662952Y-99710952D01*
%TO.C,C9*%
X148677333Y-136261142D02*
X148629714Y-136308761D01*
X148486857Y-136356380D01*
X148391619Y-136356380D01*
X148248761Y-136308761D01*
X148153523Y-136213523D01*
X148105904Y-136118285D01*
X148058285Y-135927809D01*
X148058285Y-135784952D01*
X148105904Y-135594476D01*
X148153523Y-135499238D01*
X148248761Y-135404000D01*
X148391619Y-135356380D01*
X148486857Y-135356380D01*
X148629714Y-135404000D01*
X148677333Y-135451619D01*
X149153523Y-136356380D02*
X149344000Y-136356380D01*
X149439238Y-136308761D01*
X149486857Y-136261142D01*
X149582095Y-136118285D01*
X149629714Y-135927809D01*
X149629714Y-135546857D01*
X149582095Y-135451619D01*
X149534476Y-135404000D01*
X149439238Y-135356380D01*
X149248761Y-135356380D01*
X149153523Y-135404000D01*
X149105904Y-135451619D01*
X149058285Y-135546857D01*
X149058285Y-135784952D01*
X149105904Y-135880190D01*
X149153523Y-135927809D01*
X149248761Y-135975428D01*
X149439238Y-135975428D01*
X149534476Y-135927809D01*
X149582095Y-135880190D01*
X149629714Y-135784952D01*
%TO.C,J10*%
X166322476Y-112184380D02*
X166322476Y-112898666D01*
X166274857Y-113041523D01*
X166179619Y-113136761D01*
X166036761Y-113184380D01*
X165941523Y-113184380D01*
X167322476Y-113184380D02*
X166751047Y-113184380D01*
X167036761Y-113184380D02*
X167036761Y-112184380D01*
X166941523Y-112327238D01*
X166846285Y-112422476D01*
X166751047Y-112470095D01*
X167941523Y-112184380D02*
X168036761Y-112184380D01*
X168132000Y-112232000D01*
X168179619Y-112279619D01*
X168227238Y-112374857D01*
X168274857Y-112565333D01*
X168274857Y-112803428D01*
X168227238Y-112993904D01*
X168179619Y-113089142D01*
X168132000Y-113136761D01*
X168036761Y-113184380D01*
X167941523Y-113184380D01*
X167846285Y-113136761D01*
X167798666Y-113089142D01*
X167751047Y-112993904D01*
X167703428Y-112803428D01*
X167703428Y-112565333D01*
X167751047Y-112374857D01*
X167798666Y-112279619D01*
X167846285Y-112232000D01*
X167941523Y-112184380D01*
%TO.C,J9*%
X169846666Y-112184380D02*
X169846666Y-112898666D01*
X169799047Y-113041523D01*
X169703809Y-113136761D01*
X169560952Y-113184380D01*
X169465714Y-113184380D01*
X170370476Y-113184380D02*
X170560952Y-113184380D01*
X170656190Y-113136761D01*
X170703809Y-113089142D01*
X170799047Y-112946285D01*
X170846666Y-112755809D01*
X170846666Y-112374857D01*
X170799047Y-112279619D01*
X170751428Y-112232000D01*
X170656190Y-112184380D01*
X170465714Y-112184380D01*
X170370476Y-112232000D01*
X170322857Y-112279619D01*
X170275238Y-112374857D01*
X170275238Y-112612952D01*
X170322857Y-112708190D01*
X170370476Y-112755809D01*
X170465714Y-112803428D01*
X170656190Y-112803428D01*
X170751428Y-112755809D01*
X170799047Y-112708190D01*
X170846666Y-112612952D01*
%TO.C,J8*%
X175942666Y-112184380D02*
X175942666Y-112898666D01*
X175895047Y-113041523D01*
X175799809Y-113136761D01*
X175656952Y-113184380D01*
X175561714Y-113184380D01*
X176561714Y-112612952D02*
X176466476Y-112565333D01*
X176418857Y-112517714D01*
X176371238Y-112422476D01*
X176371238Y-112374857D01*
X176418857Y-112279619D01*
X176466476Y-112232000D01*
X176561714Y-112184380D01*
X176752190Y-112184380D01*
X176847428Y-112232000D01*
X176895047Y-112279619D01*
X176942666Y-112374857D01*
X176942666Y-112422476D01*
X176895047Y-112517714D01*
X176847428Y-112565333D01*
X176752190Y-112612952D01*
X176561714Y-112612952D01*
X176466476Y-112660571D01*
X176418857Y-112708190D01*
X176371238Y-112803428D01*
X176371238Y-112993904D01*
X176418857Y-113089142D01*
X176466476Y-113136761D01*
X176561714Y-113184380D01*
X176752190Y-113184380D01*
X176847428Y-113136761D01*
X176895047Y-113089142D01*
X176942666Y-112993904D01*
X176942666Y-112803428D01*
X176895047Y-112708190D01*
X176847428Y-112660571D01*
X176752190Y-112612952D01*
%TO.C,J7*%
X172894666Y-112184380D02*
X172894666Y-112898666D01*
X172847047Y-113041523D01*
X172751809Y-113136761D01*
X172608952Y-113184380D01*
X172513714Y-113184380D01*
X173275619Y-112184380D02*
X173942285Y-112184380D01*
X173513714Y-113184380D01*
%TO.C,J6*%
X122348666Y-111676380D02*
X122348666Y-112390666D01*
X122301047Y-112533523D01*
X122205809Y-112628761D01*
X122062952Y-112676380D01*
X121967714Y-112676380D01*
X123253428Y-111676380D02*
X123062952Y-111676380D01*
X122967714Y-111724000D01*
X122920095Y-111771619D01*
X122824857Y-111914476D01*
X122777238Y-112104952D01*
X122777238Y-112485904D01*
X122824857Y-112581142D01*
X122872476Y-112628761D01*
X122967714Y-112676380D01*
X123158190Y-112676380D01*
X123253428Y-112628761D01*
X123301047Y-112581142D01*
X123348666Y-112485904D01*
X123348666Y-112247809D01*
X123301047Y-112152571D01*
X123253428Y-112104952D01*
X123158190Y-112057333D01*
X122967714Y-112057333D01*
X122872476Y-112104952D01*
X122824857Y-112152571D01*
X122777238Y-112247809D01*
%TO.C,J5*%
X125396666Y-111676380D02*
X125396666Y-112390666D01*
X125349047Y-112533523D01*
X125253809Y-112628761D01*
X125110952Y-112676380D01*
X125015714Y-112676380D01*
X126349047Y-111676380D02*
X125872857Y-111676380D01*
X125825238Y-112152571D01*
X125872857Y-112104952D01*
X125968095Y-112057333D01*
X126206190Y-112057333D01*
X126301428Y-112104952D01*
X126349047Y-112152571D01*
X126396666Y-112247809D01*
X126396666Y-112485904D01*
X126349047Y-112581142D01*
X126301428Y-112628761D01*
X126206190Y-112676380D01*
X125968095Y-112676380D01*
X125872857Y-112628761D01*
X125825238Y-112581142D01*
%TO.C,J4*%
X131492666Y-111676380D02*
X131492666Y-112390666D01*
X131445047Y-112533523D01*
X131349809Y-112628761D01*
X131206952Y-112676380D01*
X131111714Y-112676380D01*
X132397428Y-112009714D02*
X132397428Y-112676380D01*
X132159333Y-111628761D02*
X131921238Y-112343047D01*
X132540285Y-112343047D01*
%TO.C,J3*%
X128444666Y-111676380D02*
X128444666Y-112390666D01*
X128397047Y-112533523D01*
X128301809Y-112628761D01*
X128158952Y-112676380D01*
X128063714Y-112676380D01*
X128825619Y-111676380D02*
X129444666Y-111676380D01*
X129111333Y-112057333D01*
X129254190Y-112057333D01*
X129349428Y-112104952D01*
X129397047Y-112152571D01*
X129444666Y-112247809D01*
X129444666Y-112485904D01*
X129397047Y-112581142D01*
X129349428Y-112628761D01*
X129254190Y-112676380D01*
X128968476Y-112676380D01*
X128873238Y-112628761D01*
X128825619Y-112581142D01*
%TO.C,U15*%
X101377904Y-59098380D02*
X101377904Y-59907904D01*
X101425523Y-60003142D01*
X101473142Y-60050761D01*
X101568380Y-60098380D01*
X101758857Y-60098380D01*
X101854095Y-60050761D01*
X101901714Y-60003142D01*
X101949333Y-59907904D01*
X101949333Y-59098380D01*
X102949333Y-60098380D02*
X102377904Y-60098380D01*
X102663619Y-60098380D02*
X102663619Y-59098380D01*
X102568380Y-59241238D01*
X102473142Y-59336476D01*
X102377904Y-59384095D01*
X103854095Y-59098380D02*
X103377904Y-59098380D01*
X103330285Y-59574571D01*
X103377904Y-59526952D01*
X103473142Y-59479333D01*
X103711238Y-59479333D01*
X103806476Y-59526952D01*
X103854095Y-59574571D01*
X103901714Y-59669809D01*
X103901714Y-59907904D01*
X103854095Y-60003142D01*
X103806476Y-60050761D01*
X103711238Y-60098380D01*
X103473142Y-60098380D01*
X103377904Y-60050761D01*
X103330285Y-60003142D01*
%TO.C,U14*%
X101631904Y-38270380D02*
X101631904Y-39079904D01*
X101679523Y-39175142D01*
X101727142Y-39222761D01*
X101822380Y-39270380D01*
X102012857Y-39270380D01*
X102108095Y-39222761D01*
X102155714Y-39175142D01*
X102203333Y-39079904D01*
X102203333Y-38270380D01*
X103203333Y-39270380D02*
X102631904Y-39270380D01*
X102917619Y-39270380D02*
X102917619Y-38270380D01*
X102822380Y-38413238D01*
X102727142Y-38508476D01*
X102631904Y-38556095D01*
X104060476Y-38603714D02*
X104060476Y-39270380D01*
X103822380Y-38222761D02*
X103584285Y-38937047D01*
X104203333Y-38937047D01*
%TO.C,R6*%
X108826380Y-129706666D02*
X108350190Y-130040000D01*
X108826380Y-130278095D02*
X107826380Y-130278095D01*
X107826380Y-129897142D01*
X107874000Y-129801904D01*
X107921619Y-129754285D01*
X108016857Y-129706666D01*
X108159714Y-129706666D01*
X108254952Y-129754285D01*
X108302571Y-129801904D01*
X108350190Y-129897142D01*
X108350190Y-130278095D01*
X107826380Y-128849523D02*
X107826380Y-129040000D01*
X107874000Y-129135238D01*
X107921619Y-129182857D01*
X108064476Y-129278095D01*
X108254952Y-129325714D01*
X108635904Y-129325714D01*
X108731142Y-129278095D01*
X108778761Y-129230476D01*
X108826380Y-129135238D01*
X108826380Y-128944761D01*
X108778761Y-128849523D01*
X108731142Y-128801904D01*
X108635904Y-128754285D01*
X108397809Y-128754285D01*
X108302571Y-128801904D01*
X108254952Y-128849523D01*
X108207333Y-128944761D01*
X108207333Y-129135238D01*
X108254952Y-129230476D01*
X108302571Y-129278095D01*
X108397809Y-129325714D01*
%TO.C,R5*%
X181697333Y-51844380D02*
X181364000Y-51368190D01*
X181125904Y-51844380D02*
X181125904Y-50844380D01*
X181506857Y-50844380D01*
X181602095Y-50892000D01*
X181649714Y-50939619D01*
X181697333Y-51034857D01*
X181697333Y-51177714D01*
X181649714Y-51272952D01*
X181602095Y-51320571D01*
X181506857Y-51368190D01*
X181125904Y-51368190D01*
X182602095Y-50844380D02*
X182125904Y-50844380D01*
X182078285Y-51320571D01*
X182125904Y-51272952D01*
X182221142Y-51225333D01*
X182459238Y-51225333D01*
X182554476Y-51272952D01*
X182602095Y-51320571D01*
X182649714Y-51415809D01*
X182649714Y-51653904D01*
X182602095Y-51749142D01*
X182554476Y-51796761D01*
X182459238Y-51844380D01*
X182221142Y-51844380D01*
X182125904Y-51796761D01*
X182078285Y-51749142D01*
%TO.C,C20*%
X201561142Y-87493142D02*
X201513523Y-87540761D01*
X201370666Y-87588380D01*
X201275428Y-87588380D01*
X201132571Y-87540761D01*
X201037333Y-87445523D01*
X200989714Y-87350285D01*
X200942095Y-87159809D01*
X200942095Y-87016952D01*
X200989714Y-86826476D01*
X201037333Y-86731238D01*
X201132571Y-86636000D01*
X201275428Y-86588380D01*
X201370666Y-86588380D01*
X201513523Y-86636000D01*
X201561142Y-86683619D01*
X201942095Y-86683619D02*
X201989714Y-86636000D01*
X202084952Y-86588380D01*
X202323047Y-86588380D01*
X202418285Y-86636000D01*
X202465904Y-86683619D01*
X202513523Y-86778857D01*
X202513523Y-86874095D01*
X202465904Y-87016952D01*
X201894476Y-87588380D01*
X202513523Y-87588380D01*
X203132571Y-86588380D02*
X203227809Y-86588380D01*
X203323047Y-86636000D01*
X203370666Y-86683619D01*
X203418285Y-86778857D01*
X203465904Y-86969333D01*
X203465904Y-87207428D01*
X203418285Y-87397904D01*
X203370666Y-87493142D01*
X203323047Y-87540761D01*
X203227809Y-87588380D01*
X203132571Y-87588380D01*
X203037333Y-87540761D01*
X202989714Y-87493142D01*
X202942095Y-87397904D01*
X202894476Y-87207428D01*
X202894476Y-86969333D01*
X202942095Y-86778857D01*
X202989714Y-86683619D01*
X203037333Y-86636000D01*
X203132571Y-86588380D01*
%TO.C,C19*%
X154295142Y-103746857D02*
X154342761Y-103794476D01*
X154390380Y-103937333D01*
X154390380Y-104032571D01*
X154342761Y-104175428D01*
X154247523Y-104270666D01*
X154152285Y-104318285D01*
X153961809Y-104365904D01*
X153818952Y-104365904D01*
X153628476Y-104318285D01*
X153533238Y-104270666D01*
X153438000Y-104175428D01*
X153390380Y-104032571D01*
X153390380Y-103937333D01*
X153438000Y-103794476D01*
X153485619Y-103746857D01*
X154390380Y-102794476D02*
X154390380Y-103365904D01*
X154390380Y-103080190D02*
X153390380Y-103080190D01*
X153533238Y-103175428D01*
X153628476Y-103270666D01*
X153676095Y-103365904D01*
X154390380Y-102318285D02*
X154390380Y-102127809D01*
X154342761Y-102032571D01*
X154295142Y-101984952D01*
X154152285Y-101889714D01*
X153961809Y-101842095D01*
X153580857Y-101842095D01*
X153485619Y-101889714D01*
X153438000Y-101937333D01*
X153390380Y-102032571D01*
X153390380Y-102223047D01*
X153438000Y-102318285D01*
X153485619Y-102365904D01*
X153580857Y-102413523D01*
X153818952Y-102413523D01*
X153914190Y-102365904D01*
X153961809Y-102318285D01*
X154009428Y-102223047D01*
X154009428Y-102032571D01*
X153961809Y-101937333D01*
X153914190Y-101889714D01*
X153818952Y-101842095D01*
%TO.C,C18*%
X201815142Y-66411142D02*
X201767523Y-66458761D01*
X201624666Y-66506380D01*
X201529428Y-66506380D01*
X201386571Y-66458761D01*
X201291333Y-66363523D01*
X201243714Y-66268285D01*
X201196095Y-66077809D01*
X201196095Y-65934952D01*
X201243714Y-65744476D01*
X201291333Y-65649238D01*
X201386571Y-65554000D01*
X201529428Y-65506380D01*
X201624666Y-65506380D01*
X201767523Y-65554000D01*
X201815142Y-65601619D01*
X202767523Y-66506380D02*
X202196095Y-66506380D01*
X202481809Y-66506380D02*
X202481809Y-65506380D01*
X202386571Y-65649238D01*
X202291333Y-65744476D01*
X202196095Y-65792095D01*
X203338952Y-65934952D02*
X203243714Y-65887333D01*
X203196095Y-65839714D01*
X203148476Y-65744476D01*
X203148476Y-65696857D01*
X203196095Y-65601619D01*
X203243714Y-65554000D01*
X203338952Y-65506380D01*
X203529428Y-65506380D01*
X203624666Y-65554000D01*
X203672285Y-65601619D01*
X203719904Y-65696857D01*
X203719904Y-65744476D01*
X203672285Y-65839714D01*
X203624666Y-65887333D01*
X203529428Y-65934952D01*
X203338952Y-65934952D01*
X203243714Y-65982571D01*
X203196095Y-66030190D01*
X203148476Y-66125428D01*
X203148476Y-66315904D01*
X203196095Y-66411142D01*
X203243714Y-66458761D01*
X203338952Y-66506380D01*
X203529428Y-66506380D01*
X203624666Y-66458761D01*
X203672285Y-66411142D01*
X203719904Y-66315904D01*
X203719904Y-66125428D01*
X203672285Y-66030190D01*
X203624666Y-65982571D01*
X203529428Y-65934952D01*
%TO.C,C17*%
X174869142Y-103492857D02*
X174916761Y-103540476D01*
X174964380Y-103683333D01*
X174964380Y-103778571D01*
X174916761Y-103921428D01*
X174821523Y-104016666D01*
X174726285Y-104064285D01*
X174535809Y-104111904D01*
X174392952Y-104111904D01*
X174202476Y-104064285D01*
X174107238Y-104016666D01*
X174012000Y-103921428D01*
X173964380Y-103778571D01*
X173964380Y-103683333D01*
X174012000Y-103540476D01*
X174059619Y-103492857D01*
X174964380Y-102540476D02*
X174964380Y-103111904D01*
X174964380Y-102826190D02*
X173964380Y-102826190D01*
X174107238Y-102921428D01*
X174202476Y-103016666D01*
X174250095Y-103111904D01*
X173964380Y-102207142D02*
X173964380Y-101540476D01*
X174964380Y-101969047D01*
%TO.C,C16*%
X99453142Y-106543142D02*
X99405523Y-106590761D01*
X99262666Y-106638380D01*
X99167428Y-106638380D01*
X99024571Y-106590761D01*
X98929333Y-106495523D01*
X98881714Y-106400285D01*
X98834095Y-106209809D01*
X98834095Y-106066952D01*
X98881714Y-105876476D01*
X98929333Y-105781238D01*
X99024571Y-105686000D01*
X99167428Y-105638380D01*
X99262666Y-105638380D01*
X99405523Y-105686000D01*
X99453142Y-105733619D01*
X100405523Y-106638380D02*
X99834095Y-106638380D01*
X100119809Y-106638380D02*
X100119809Y-105638380D01*
X100024571Y-105781238D01*
X99929333Y-105876476D01*
X99834095Y-105924095D01*
X101262666Y-105638380D02*
X101072190Y-105638380D01*
X100976952Y-105686000D01*
X100929333Y-105733619D01*
X100834095Y-105876476D01*
X100786476Y-106066952D01*
X100786476Y-106447904D01*
X100834095Y-106543142D01*
X100881714Y-106590761D01*
X100976952Y-106638380D01*
X101167428Y-106638380D01*
X101262666Y-106590761D01*
X101310285Y-106543142D01*
X101357904Y-106447904D01*
X101357904Y-106209809D01*
X101310285Y-106114571D01*
X101262666Y-106066952D01*
X101167428Y-106019333D01*
X100976952Y-106019333D01*
X100881714Y-106066952D01*
X100834095Y-106114571D01*
X100786476Y-106209809D01*
%TO.C,C15*%
X148961142Y-70980857D02*
X149008761Y-71028476D01*
X149056380Y-71171333D01*
X149056380Y-71266571D01*
X149008761Y-71409428D01*
X148913523Y-71504666D01*
X148818285Y-71552285D01*
X148627809Y-71599904D01*
X148484952Y-71599904D01*
X148294476Y-71552285D01*
X148199238Y-71504666D01*
X148104000Y-71409428D01*
X148056380Y-71266571D01*
X148056380Y-71171333D01*
X148104000Y-71028476D01*
X148151619Y-70980857D01*
X149056380Y-70028476D02*
X149056380Y-70599904D01*
X149056380Y-70314190D02*
X148056380Y-70314190D01*
X148199238Y-70409428D01*
X148294476Y-70504666D01*
X148342095Y-70599904D01*
X148056380Y-69123714D02*
X148056380Y-69599904D01*
X148532571Y-69647523D01*
X148484952Y-69599904D01*
X148437333Y-69504666D01*
X148437333Y-69266571D01*
X148484952Y-69171333D01*
X148532571Y-69123714D01*
X148627809Y-69076095D01*
X148865904Y-69076095D01*
X148961142Y-69123714D01*
X149008761Y-69171333D01*
X149056380Y-69266571D01*
X149056380Y-69504666D01*
X149008761Y-69599904D01*
X148961142Y-69647523D01*
%TO.C,C14*%
X148961142Y-86728857D02*
X149008761Y-86776476D01*
X149056380Y-86919333D01*
X149056380Y-87014571D01*
X149008761Y-87157428D01*
X148913523Y-87252666D01*
X148818285Y-87300285D01*
X148627809Y-87347904D01*
X148484952Y-87347904D01*
X148294476Y-87300285D01*
X148199238Y-87252666D01*
X148104000Y-87157428D01*
X148056380Y-87014571D01*
X148056380Y-86919333D01*
X148104000Y-86776476D01*
X148151619Y-86728857D01*
X149056380Y-85776476D02*
X149056380Y-86347904D01*
X149056380Y-86062190D02*
X148056380Y-86062190D01*
X148199238Y-86157428D01*
X148294476Y-86252666D01*
X148342095Y-86347904D01*
X148389714Y-84919333D02*
X149056380Y-84919333D01*
X148008761Y-85157428D02*
X148723047Y-85395523D01*
X148723047Y-84776476D01*
%TO.C,C13*%
X99707142Y-61839142D02*
X99659523Y-61886761D01*
X99516666Y-61934380D01*
X99421428Y-61934380D01*
X99278571Y-61886761D01*
X99183333Y-61791523D01*
X99135714Y-61696285D01*
X99088095Y-61505809D01*
X99088095Y-61362952D01*
X99135714Y-61172476D01*
X99183333Y-61077238D01*
X99278571Y-60982000D01*
X99421428Y-60934380D01*
X99516666Y-60934380D01*
X99659523Y-60982000D01*
X99707142Y-61029619D01*
X100659523Y-61934380D02*
X100088095Y-61934380D01*
X100373809Y-61934380D02*
X100373809Y-60934380D01*
X100278571Y-61077238D01*
X100183333Y-61172476D01*
X100088095Y-61220095D01*
X100992857Y-60934380D02*
X101611904Y-60934380D01*
X101278571Y-61315333D01*
X101421428Y-61315333D01*
X101516666Y-61362952D01*
X101564285Y-61410571D01*
X101611904Y-61505809D01*
X101611904Y-61743904D01*
X101564285Y-61839142D01*
X101516666Y-61886761D01*
X101421428Y-61934380D01*
X101135714Y-61934380D01*
X101040476Y-61886761D01*
X100992857Y-61839142D01*
%TO.C,C4*%
X99675333Y-82159142D02*
X99627714Y-82206761D01*
X99484857Y-82254380D01*
X99389619Y-82254380D01*
X99246761Y-82206761D01*
X99151523Y-82111523D01*
X99103904Y-82016285D01*
X99056285Y-81825809D01*
X99056285Y-81682952D01*
X99103904Y-81492476D01*
X99151523Y-81397238D01*
X99246761Y-81302000D01*
X99389619Y-81254380D01*
X99484857Y-81254380D01*
X99627714Y-81302000D01*
X99675333Y-81349619D01*
X100532476Y-81587714D02*
X100532476Y-82254380D01*
X100294380Y-81206761D02*
X100056285Y-81921047D01*
X100675333Y-81921047D01*
%TO.C,C1*%
X149215142Y-54248666D02*
X149262761Y-54296285D01*
X149310380Y-54439142D01*
X149310380Y-54534380D01*
X149262761Y-54677238D01*
X149167523Y-54772476D01*
X149072285Y-54820095D01*
X148881809Y-54867714D01*
X148738952Y-54867714D01*
X148548476Y-54820095D01*
X148453238Y-54772476D01*
X148358000Y-54677238D01*
X148310380Y-54534380D01*
X148310380Y-54439142D01*
X148358000Y-54296285D01*
X148405619Y-54248666D01*
X149310380Y-53296285D02*
X149310380Y-53867714D01*
X149310380Y-53582000D02*
X148310380Y-53582000D01*
X148453238Y-53677238D01*
X148548476Y-53772476D01*
X148596095Y-53867714D01*
%TO.C,U13*%
X118026380Y-84804095D02*
X118835904Y-84804095D01*
X118931142Y-84756476D01*
X118978761Y-84708857D01*
X119026380Y-84613619D01*
X119026380Y-84423142D01*
X118978761Y-84327904D01*
X118931142Y-84280285D01*
X118835904Y-84232666D01*
X118026380Y-84232666D01*
X119026380Y-83232666D02*
X119026380Y-83804095D01*
X119026380Y-83518380D02*
X118026380Y-83518380D01*
X118169238Y-83613619D01*
X118264476Y-83708857D01*
X118312095Y-83804095D01*
X118026380Y-82899333D02*
X118026380Y-82280285D01*
X118407333Y-82613619D01*
X118407333Y-82470761D01*
X118454952Y-82375523D01*
X118502571Y-82327904D01*
X118597809Y-82280285D01*
X118835904Y-82280285D01*
X118931142Y-82327904D01*
X118978761Y-82375523D01*
X119026380Y-82470761D01*
X119026380Y-82756476D01*
X118978761Y-82851714D01*
X118931142Y-82899333D01*
%TO.C,U12*%
X198405904Y-85006380D02*
X198405904Y-85815904D01*
X198453523Y-85911142D01*
X198501142Y-85958761D01*
X198596380Y-86006380D01*
X198786857Y-86006380D01*
X198882095Y-85958761D01*
X198929714Y-85911142D01*
X198977333Y-85815904D01*
X198977333Y-85006380D01*
X199977333Y-86006380D02*
X199405904Y-86006380D01*
X199691619Y-86006380D02*
X199691619Y-85006380D01*
X199596380Y-85149238D01*
X199501142Y-85244476D01*
X199405904Y-85292095D01*
X200358285Y-85101619D02*
X200405904Y-85054000D01*
X200501142Y-85006380D01*
X200739238Y-85006380D01*
X200834476Y-85054000D01*
X200882095Y-85101619D01*
X200929714Y-85196857D01*
X200929714Y-85292095D01*
X200882095Y-85434952D01*
X200310666Y-86006380D01*
X200929714Y-86006380D01*
%TO.C,U11*%
X198659904Y-63416380D02*
X198659904Y-64225904D01*
X198707523Y-64321142D01*
X198755142Y-64368761D01*
X198850380Y-64416380D01*
X199040857Y-64416380D01*
X199136095Y-64368761D01*
X199183714Y-64321142D01*
X199231333Y-64225904D01*
X199231333Y-63416380D01*
X200231333Y-64416380D02*
X199659904Y-64416380D01*
X199945619Y-64416380D02*
X199945619Y-63416380D01*
X199850380Y-63559238D01*
X199755142Y-63654476D01*
X199659904Y-63702095D01*
X201183714Y-64416380D02*
X200612285Y-64416380D01*
X200898000Y-64416380D02*
X200898000Y-63416380D01*
X200802761Y-63559238D01*
X200707523Y-63654476D01*
X200612285Y-63702095D01*
%TO.C,U10*%
X111422380Y-102076095D02*
X112231904Y-102076095D01*
X112327142Y-102028476D01*
X112374761Y-101980857D01*
X112422380Y-101885619D01*
X112422380Y-101695142D01*
X112374761Y-101599904D01*
X112327142Y-101552285D01*
X112231904Y-101504666D01*
X111422380Y-101504666D01*
X112422380Y-100504666D02*
X112422380Y-101076095D01*
X112422380Y-100790380D02*
X111422380Y-100790380D01*
X111565238Y-100885619D01*
X111660476Y-100980857D01*
X111708095Y-101076095D01*
X111422380Y-99885619D02*
X111422380Y-99790380D01*
X111470000Y-99695142D01*
X111517619Y-99647523D01*
X111612857Y-99599904D01*
X111803333Y-99552285D01*
X112041428Y-99552285D01*
X112231904Y-99599904D01*
X112327142Y-99647523D01*
X112374761Y-99695142D01*
X112422380Y-99790380D01*
X112422380Y-99885619D01*
X112374761Y-99980857D01*
X112327142Y-100028476D01*
X112231904Y-100076095D01*
X112041428Y-100123714D01*
X111803333Y-100123714D01*
X111612857Y-100076095D01*
X111517619Y-100028476D01*
X111470000Y-99980857D01*
X111422380Y-99885619D01*
%TO.C,U9*%
X118026380Y-68325904D02*
X118835904Y-68325904D01*
X118931142Y-68278285D01*
X118978761Y-68230666D01*
X119026380Y-68135428D01*
X119026380Y-67944952D01*
X118978761Y-67849714D01*
X118931142Y-67802095D01*
X118835904Y-67754476D01*
X118026380Y-67754476D01*
X119026380Y-67230666D02*
X119026380Y-67040190D01*
X118978761Y-66944952D01*
X118931142Y-66897333D01*
X118788285Y-66802095D01*
X118597809Y-66754476D01*
X118216857Y-66754476D01*
X118121619Y-66802095D01*
X118074000Y-66849714D01*
X118026380Y-66944952D01*
X118026380Y-67135428D01*
X118074000Y-67230666D01*
X118121619Y-67278285D01*
X118216857Y-67325904D01*
X118454952Y-67325904D01*
X118550190Y-67278285D01*
X118597809Y-67230666D01*
X118645428Y-67135428D01*
X118645428Y-66944952D01*
X118597809Y-66849714D01*
X118550190Y-66802095D01*
X118454952Y-66754476D01*
%TO.C,R4*%
X173061333Y-93246380D02*
X172728000Y-92770190D01*
X172489904Y-93246380D02*
X172489904Y-92246380D01*
X172870857Y-92246380D01*
X172966095Y-92294000D01*
X173013714Y-92341619D01*
X173061333Y-92436857D01*
X173061333Y-92579714D01*
X173013714Y-92674952D01*
X172966095Y-92722571D01*
X172870857Y-92770190D01*
X172489904Y-92770190D01*
X173918476Y-92579714D02*
X173918476Y-93246380D01*
X173680380Y-92198761D02*
X173442285Y-92913047D01*
X174061333Y-92913047D01*
%TO.C,R3*%
X173061333Y-96040380D02*
X172728000Y-95564190D01*
X172489904Y-96040380D02*
X172489904Y-95040380D01*
X172870857Y-95040380D01*
X172966095Y-95088000D01*
X173013714Y-95135619D01*
X173061333Y-95230857D01*
X173061333Y-95373714D01*
X173013714Y-95468952D01*
X172966095Y-95516571D01*
X172870857Y-95564190D01*
X172489904Y-95564190D01*
X173394666Y-95040380D02*
X174013714Y-95040380D01*
X173680380Y-95421333D01*
X173823238Y-95421333D01*
X173918476Y-95468952D01*
X173966095Y-95516571D01*
X174013714Y-95611809D01*
X174013714Y-95849904D01*
X173966095Y-95945142D01*
X173918476Y-95992761D01*
X173823238Y-96040380D01*
X173537523Y-96040380D01*
X173442285Y-95992761D01*
X173394666Y-95945142D01*
%TO.C,R2*%
X183221333Y-98920380D02*
X182888000Y-98444190D01*
X182649904Y-98920380D02*
X182649904Y-97920380D01*
X183030857Y-97920380D01*
X183126095Y-97968000D01*
X183173714Y-98015619D01*
X183221333Y-98110857D01*
X183221333Y-98253714D01*
X183173714Y-98348952D01*
X183126095Y-98396571D01*
X183030857Y-98444190D01*
X182649904Y-98444190D01*
X183602285Y-98015619D02*
X183649904Y-97968000D01*
X183745142Y-97920380D01*
X183983238Y-97920380D01*
X184078476Y-97968000D01*
X184126095Y-98015619D01*
X184173714Y-98110857D01*
X184173714Y-98206095D01*
X184126095Y-98348952D01*
X183554666Y-98920380D01*
X184173714Y-98920380D01*
%TO.C,C12*%
X165979142Y-75552857D02*
X166026761Y-75600476D01*
X166074380Y-75743333D01*
X166074380Y-75838571D01*
X166026761Y-75981428D01*
X165931523Y-76076666D01*
X165836285Y-76124285D01*
X165645809Y-76171904D01*
X165502952Y-76171904D01*
X165312476Y-76124285D01*
X165217238Y-76076666D01*
X165122000Y-75981428D01*
X165074380Y-75838571D01*
X165074380Y-75743333D01*
X165122000Y-75600476D01*
X165169619Y-75552857D01*
X166074380Y-74600476D02*
X166074380Y-75171904D01*
X166074380Y-74886190D02*
X165074380Y-74886190D01*
X165217238Y-74981428D01*
X165312476Y-75076666D01*
X165360095Y-75171904D01*
X165169619Y-74219523D02*
X165122000Y-74171904D01*
X165074380Y-74076666D01*
X165074380Y-73838571D01*
X165122000Y-73743333D01*
X165169619Y-73695714D01*
X165264857Y-73648095D01*
X165360095Y-73648095D01*
X165502952Y-73695714D01*
X166074380Y-74267142D01*
X166074380Y-73648095D01*
%TO.C,C11*%
X189827142Y-92610857D02*
X189874761Y-92658476D01*
X189922380Y-92801333D01*
X189922380Y-92896571D01*
X189874761Y-93039428D01*
X189779523Y-93134666D01*
X189684285Y-93182285D01*
X189493809Y-93229904D01*
X189350952Y-93229904D01*
X189160476Y-93182285D01*
X189065238Y-93134666D01*
X188970000Y-93039428D01*
X188922380Y-92896571D01*
X188922380Y-92801333D01*
X188970000Y-92658476D01*
X189017619Y-92610857D01*
X189922380Y-91658476D02*
X189922380Y-92229904D01*
X189922380Y-91944190D02*
X188922380Y-91944190D01*
X189065238Y-92039428D01*
X189160476Y-92134666D01*
X189208095Y-92229904D01*
X189922380Y-90706095D02*
X189922380Y-91277523D01*
X189922380Y-90991809D02*
X188922380Y-90991809D01*
X189065238Y-91087047D01*
X189160476Y-91182285D01*
X189208095Y-91277523D01*
%TO.C,U5*%
X102108095Y-80434380D02*
X102108095Y-81243904D01*
X102155714Y-81339142D01*
X102203333Y-81386761D01*
X102298571Y-81434380D01*
X102489047Y-81434380D01*
X102584285Y-81386761D01*
X102631904Y-81339142D01*
X102679523Y-81243904D01*
X102679523Y-80434380D01*
X103631904Y-80434380D02*
X103155714Y-80434380D01*
X103108095Y-80910571D01*
X103155714Y-80862952D01*
X103250952Y-80815333D01*
X103489047Y-80815333D01*
X103584285Y-80862952D01*
X103631904Y-80910571D01*
X103679523Y-81005809D01*
X103679523Y-81243904D01*
X103631904Y-81339142D01*
X103584285Y-81386761D01*
X103489047Y-81434380D01*
X103250952Y-81434380D01*
X103155714Y-81386761D01*
X103108095Y-81339142D01*
%TO.C,U4*%
X118280380Y-52323904D02*
X119089904Y-52323904D01*
X119185142Y-52276285D01*
X119232761Y-52228666D01*
X119280380Y-52133428D01*
X119280380Y-51942952D01*
X119232761Y-51847714D01*
X119185142Y-51800095D01*
X119089904Y-51752476D01*
X118280380Y-51752476D01*
X118613714Y-50847714D02*
X119280380Y-50847714D01*
X118232761Y-51085809D02*
X118947047Y-51323904D01*
X118947047Y-50704857D01*
%TO.C,U3*%
X151300380Y-101091904D02*
X152109904Y-101091904D01*
X152205142Y-101044285D01*
X152252761Y-100996666D01*
X152300380Y-100901428D01*
X152300380Y-100710952D01*
X152252761Y-100615714D01*
X152205142Y-100568095D01*
X152109904Y-100520476D01*
X151300380Y-100520476D01*
X151300380Y-100139523D02*
X151300380Y-99520476D01*
X151681333Y-99853809D01*
X151681333Y-99710952D01*
X151728952Y-99615714D01*
X151776571Y-99568095D01*
X151871809Y-99520476D01*
X152109904Y-99520476D01*
X152205142Y-99568095D01*
X152252761Y-99615714D01*
X152300380Y-99710952D01*
X152300380Y-99996666D01*
X152252761Y-100091904D01*
X152205142Y-100139523D01*
%TO.C,U2*%
X99484380Y-113791904D02*
X100293904Y-113791904D01*
X100389142Y-113744285D01*
X100436761Y-113696666D01*
X100484380Y-113601428D01*
X100484380Y-113410952D01*
X100436761Y-113315714D01*
X100389142Y-113268095D01*
X100293904Y-113220476D01*
X99484380Y-113220476D01*
X99579619Y-112791904D02*
X99532000Y-112744285D01*
X99484380Y-112649047D01*
X99484380Y-112410952D01*
X99532000Y-112315714D01*
X99579619Y-112268095D01*
X99674857Y-112220476D01*
X99770095Y-112220476D01*
X99912952Y-112268095D01*
X100484380Y-112839523D01*
X100484380Y-112220476D01*
%TO.C,U1*%
X172890380Y-101345904D02*
X173699904Y-101345904D01*
X173795142Y-101298285D01*
X173842761Y-101250666D01*
X173890380Y-101155428D01*
X173890380Y-100964952D01*
X173842761Y-100869714D01*
X173795142Y-100822095D01*
X173699904Y-100774476D01*
X172890380Y-100774476D01*
X173890380Y-99774476D02*
X173890380Y-100345904D01*
X173890380Y-100060190D02*
X172890380Y-100060190D01*
X173033238Y-100155428D01*
X173128476Y-100250666D01*
X173176095Y-100345904D01*
%TO.C,R1*%
X181697333Y-50152380D02*
X181364000Y-49676190D01*
X181125904Y-50152380D02*
X181125904Y-49152380D01*
X181506857Y-49152380D01*
X181602095Y-49200000D01*
X181649714Y-49247619D01*
X181697333Y-49342857D01*
X181697333Y-49485714D01*
X181649714Y-49580952D01*
X181602095Y-49628571D01*
X181506857Y-49676190D01*
X181125904Y-49676190D01*
X182649714Y-50152380D02*
X182078285Y-50152380D01*
X182364000Y-50152380D02*
X182364000Y-49152380D01*
X182268761Y-49295238D01*
X182173523Y-49390476D01*
X182078285Y-49438095D01*
%TO.C,J2*%
X127984666Y-123144380D02*
X127984666Y-123858666D01*
X127937047Y-124001523D01*
X127841809Y-124096761D01*
X127698952Y-124144380D01*
X127603714Y-124144380D01*
X128413238Y-123239619D02*
X128460857Y-123192000D01*
X128556095Y-123144380D01*
X128794190Y-123144380D01*
X128889428Y-123192000D01*
X128937047Y-123239619D01*
X128984666Y-123334857D01*
X128984666Y-123430095D01*
X128937047Y-123572952D01*
X128365619Y-124144380D01*
X128984666Y-124144380D01*
%TO.C,J1*%
X172942666Y-123398380D02*
X172942666Y-124112666D01*
X172895047Y-124255523D01*
X172799809Y-124350761D01*
X172656952Y-124398380D01*
X172561714Y-124398380D01*
X173942666Y-124398380D02*
X173371238Y-124398380D01*
X173656952Y-124398380D02*
X173656952Y-123398380D01*
X173561714Y-123541238D01*
X173466476Y-123636476D01*
X173371238Y-123684095D01*
%TO.C,IC2*%
X151284380Y-76414190D02*
X150284380Y-76414190D01*
X151189142Y-75366571D02*
X151236761Y-75414190D01*
X151284380Y-75557047D01*
X151284380Y-75652285D01*
X151236761Y-75795142D01*
X151141523Y-75890380D01*
X151046285Y-75938000D01*
X150855809Y-75985619D01*
X150712952Y-75985619D01*
X150522476Y-75938000D01*
X150427238Y-75890380D01*
X150332000Y-75795142D01*
X150284380Y-75652285D01*
X150284380Y-75557047D01*
X150332000Y-75414190D01*
X150379619Y-75366571D01*
X150379619Y-74985619D02*
X150332000Y-74938000D01*
X150284380Y-74842761D01*
X150284380Y-74604666D01*
X150332000Y-74509428D01*
X150379619Y-74461809D01*
X150474857Y-74414190D01*
X150570095Y-74414190D01*
X150712952Y-74461809D01*
X151284380Y-75033238D01*
X151284380Y-74414190D01*
%TO.C,IC1*%
X151284380Y-51014190D02*
X150284380Y-51014190D01*
X151189142Y-49966571D02*
X151236761Y-50014190D01*
X151284380Y-50157047D01*
X151284380Y-50252285D01*
X151236761Y-50395142D01*
X151141523Y-50490380D01*
X151046285Y-50538000D01*
X150855809Y-50585619D01*
X150712952Y-50585619D01*
X150522476Y-50538000D01*
X150427238Y-50490380D01*
X150332000Y-50395142D01*
X150284380Y-50252285D01*
X150284380Y-50157047D01*
X150332000Y-50014190D01*
X150379619Y-49966571D01*
X151284380Y-49014190D02*
X151284380Y-49585619D01*
X151284380Y-49299904D02*
X150284380Y-49299904D01*
X150427238Y-49395142D01*
X150522476Y-49490380D01*
X150570095Y-49585619D01*
%TO.C,D1*%
X104671904Y-123746380D02*
X104671904Y-122746380D01*
X104910000Y-122746380D01*
X105052857Y-122794000D01*
X105148095Y-122889238D01*
X105195714Y-122984476D01*
X105243333Y-123174952D01*
X105243333Y-123317809D01*
X105195714Y-123508285D01*
X105148095Y-123603523D01*
X105052857Y-123698761D01*
X104910000Y-123746380D01*
X104671904Y-123746380D01*
X106195714Y-123746380D02*
X105624285Y-123746380D01*
X105910000Y-123746380D02*
X105910000Y-122746380D01*
X105814761Y-122889238D01*
X105719523Y-122984476D01*
X105624285Y-123032095D01*
%TO.C,C2*%
X98913333Y-37869142D02*
X98865714Y-37916761D01*
X98722857Y-37964380D01*
X98627619Y-37964380D01*
X98484761Y-37916761D01*
X98389523Y-37821523D01*
X98341904Y-37726285D01*
X98294285Y-37535809D01*
X98294285Y-37392952D01*
X98341904Y-37202476D01*
X98389523Y-37107238D01*
X98484761Y-37012000D01*
X98627619Y-36964380D01*
X98722857Y-36964380D01*
X98865714Y-37012000D01*
X98913333Y-37059619D01*
X99294285Y-37059619D02*
X99341904Y-37012000D01*
X99437142Y-36964380D01*
X99675238Y-36964380D01*
X99770476Y-37012000D01*
X99818095Y-37059619D01*
X99865714Y-37154857D01*
X99865714Y-37250095D01*
X99818095Y-37392952D01*
X99246666Y-37964380D01*
X99865714Y-37964380D01*
%TD*%
M02*
