%TF.GenerationSoftware,KiCad,Pcbnew,(5.1.10)-1*%
%TF.CreationDate,2024-05-08T08:23:43+02:00*%
%TF.ProjectId,M003,4d303033-2e6b-4696-9361-645f70636258,rev?*%
%TF.SameCoordinates,Original*%
%TF.FileFunction,Soldermask,Bot*%
%TF.FilePolarity,Negative*%
%FSLAX46Y46*%
G04 Gerber Fmt 4.6, Leading zero omitted, Abs format (unit mm)*
G04 Created by KiCad (PCBNEW (5.1.10)-1) date 2024-05-08 08:23:43*
%MOMM*%
%LPD*%
G01*
G04 APERTURE LIST*
%ADD10O,1.700000X2.500000*%
%ADD11O,1.800000X1.800000*%
%ADD12O,2.500000X1.700000*%
%ADD13O,1.700000X1.700000*%
%ADD14C,1.700000*%
%ADD15C,4.100000*%
%ADD16C,1.900000*%
G04 APERTURE END LIST*
D10*
%TO.C,U8*%
X134112000Y-96520000D03*
X149352000Y-104140000D03*
X136652000Y-96520000D03*
X146812000Y-104140000D03*
X139192000Y-96520000D03*
X144272000Y-104140000D03*
X141732000Y-96520000D03*
X141732000Y-104140000D03*
X144272000Y-96520000D03*
X139192000Y-104140000D03*
X146812000Y-96520000D03*
X136652000Y-104140000D03*
X149352000Y-96520000D03*
G36*
G01*
X134912000Y-105390000D02*
X133312000Y-105390000D01*
G75*
G02*
X133262000Y-105340000I0J50000D01*
G01*
X133262000Y-102940000D01*
G75*
G02*
X133312000Y-102890000I50000J0D01*
G01*
X134912000Y-102890000D01*
G75*
G02*
X134962000Y-102940000I0J-50000D01*
G01*
X134962000Y-105340000D01*
G75*
G02*
X134912000Y-105390000I-50000J0D01*
G01*
G37*
%TD*%
%TO.C,IC3*%
G36*
G01*
X157740000Y-111820500D02*
X157740000Y-109895500D01*
G75*
G02*
X157790000Y-109845500I50000J0D01*
G01*
X158440000Y-109845500D01*
G75*
G02*
X158490000Y-109895500I0J-50000D01*
G01*
X158490000Y-111820500D01*
G75*
G02*
X158440000Y-111870500I-50000J0D01*
G01*
X157790000Y-111870500D01*
G75*
G02*
X157740000Y-111820500I0J50000D01*
G01*
G37*
G36*
G01*
X156470000Y-111820500D02*
X156470000Y-109895500D01*
G75*
G02*
X156520000Y-109845500I50000J0D01*
G01*
X157170000Y-109845500D01*
G75*
G02*
X157220000Y-109895500I0J-50000D01*
G01*
X157220000Y-111820500D01*
G75*
G02*
X157170000Y-111870500I-50000J0D01*
G01*
X156520000Y-111870500D01*
G75*
G02*
X156470000Y-111820500I0J50000D01*
G01*
G37*
G36*
G01*
X155200000Y-111820500D02*
X155200000Y-109895500D01*
G75*
G02*
X155250000Y-109845500I50000J0D01*
G01*
X155900000Y-109845500D01*
G75*
G02*
X155950000Y-109895500I0J-50000D01*
G01*
X155950000Y-111820500D01*
G75*
G02*
X155900000Y-111870500I-50000J0D01*
G01*
X155250000Y-111870500D01*
G75*
G02*
X155200000Y-111820500I0J50000D01*
G01*
G37*
G36*
G01*
X153930000Y-111820500D02*
X153930000Y-109895500D01*
G75*
G02*
X153980000Y-109845500I50000J0D01*
G01*
X154630000Y-109845500D01*
G75*
G02*
X154680000Y-109895500I0J-50000D01*
G01*
X154680000Y-111820500D01*
G75*
G02*
X154630000Y-111870500I-50000J0D01*
G01*
X153980000Y-111870500D01*
G75*
G02*
X153930000Y-111820500I0J50000D01*
G01*
G37*
G36*
G01*
X152660000Y-111820500D02*
X152660000Y-109895500D01*
G75*
G02*
X152710000Y-109845500I50000J0D01*
G01*
X153360000Y-109845500D01*
G75*
G02*
X153410000Y-109895500I0J-50000D01*
G01*
X153410000Y-111820500D01*
G75*
G02*
X153360000Y-111870500I-50000J0D01*
G01*
X152710000Y-111870500D01*
G75*
G02*
X152660000Y-111820500I0J50000D01*
G01*
G37*
G36*
G01*
X151390000Y-111820500D02*
X151390000Y-109895500D01*
G75*
G02*
X151440000Y-109845500I50000J0D01*
G01*
X152090000Y-109845500D01*
G75*
G02*
X152140000Y-109895500I0J-50000D01*
G01*
X152140000Y-111820500D01*
G75*
G02*
X152090000Y-111870500I-50000J0D01*
G01*
X151440000Y-111870500D01*
G75*
G02*
X151390000Y-111820500I0J50000D01*
G01*
G37*
G36*
G01*
X150120000Y-111820500D02*
X150120000Y-109895500D01*
G75*
G02*
X150170000Y-109845500I50000J0D01*
G01*
X150820000Y-109845500D01*
G75*
G02*
X150870000Y-109895500I0J-50000D01*
G01*
X150870000Y-111820500D01*
G75*
G02*
X150820000Y-111870500I-50000J0D01*
G01*
X150170000Y-111870500D01*
G75*
G02*
X150120000Y-111820500I0J50000D01*
G01*
G37*
G36*
G01*
X148850000Y-111820500D02*
X148850000Y-109895500D01*
G75*
G02*
X148900000Y-109845500I50000J0D01*
G01*
X149550000Y-109845500D01*
G75*
G02*
X149600000Y-109895500I0J-50000D01*
G01*
X149600000Y-111820500D01*
G75*
G02*
X149550000Y-111870500I-50000J0D01*
G01*
X148900000Y-111870500D01*
G75*
G02*
X148850000Y-111820500I0J50000D01*
G01*
G37*
G36*
G01*
X147580000Y-111820500D02*
X147580000Y-109895500D01*
G75*
G02*
X147630000Y-109845500I50000J0D01*
G01*
X148280000Y-109845500D01*
G75*
G02*
X148330000Y-109895500I0J-50000D01*
G01*
X148330000Y-111820500D01*
G75*
G02*
X148280000Y-111870500I-50000J0D01*
G01*
X147630000Y-111870500D01*
G75*
G02*
X147580000Y-111820500I0J50000D01*
G01*
G37*
G36*
G01*
X146310000Y-111820500D02*
X146310000Y-109895500D01*
G75*
G02*
X146360000Y-109845500I50000J0D01*
G01*
X147010000Y-109845500D01*
G75*
G02*
X147060000Y-109895500I0J-50000D01*
G01*
X147060000Y-111820500D01*
G75*
G02*
X147010000Y-111870500I-50000J0D01*
G01*
X146360000Y-111870500D01*
G75*
G02*
X146310000Y-111820500I0J50000D01*
G01*
G37*
G36*
G01*
X145040000Y-111820500D02*
X145040000Y-109895500D01*
G75*
G02*
X145090000Y-109845500I50000J0D01*
G01*
X145740000Y-109845500D01*
G75*
G02*
X145790000Y-109895500I0J-50000D01*
G01*
X145790000Y-111820500D01*
G75*
G02*
X145740000Y-111870500I-50000J0D01*
G01*
X145090000Y-111870500D01*
G75*
G02*
X145040000Y-111820500I0J50000D01*
G01*
G37*
G36*
G01*
X143770000Y-111820500D02*
X143770000Y-109895500D01*
G75*
G02*
X143820000Y-109845500I50000J0D01*
G01*
X144470000Y-109845500D01*
G75*
G02*
X144520000Y-109895500I0J-50000D01*
G01*
X144520000Y-111820500D01*
G75*
G02*
X144470000Y-111870500I-50000J0D01*
G01*
X143820000Y-111870500D01*
G75*
G02*
X143770000Y-111820500I0J50000D01*
G01*
G37*
G36*
G01*
X143770000Y-121244500D02*
X143770000Y-119319500D01*
G75*
G02*
X143820000Y-119269500I50000J0D01*
G01*
X144470000Y-119269500D01*
G75*
G02*
X144520000Y-119319500I0J-50000D01*
G01*
X144520000Y-121244500D01*
G75*
G02*
X144470000Y-121294500I-50000J0D01*
G01*
X143820000Y-121294500D01*
G75*
G02*
X143770000Y-121244500I0J50000D01*
G01*
G37*
G36*
G01*
X145040000Y-121244500D02*
X145040000Y-119319500D01*
G75*
G02*
X145090000Y-119269500I50000J0D01*
G01*
X145740000Y-119269500D01*
G75*
G02*
X145790000Y-119319500I0J-50000D01*
G01*
X145790000Y-121244500D01*
G75*
G02*
X145740000Y-121294500I-50000J0D01*
G01*
X145090000Y-121294500D01*
G75*
G02*
X145040000Y-121244500I0J50000D01*
G01*
G37*
G36*
G01*
X146310000Y-121244500D02*
X146310000Y-119319500D01*
G75*
G02*
X146360000Y-119269500I50000J0D01*
G01*
X147010000Y-119269500D01*
G75*
G02*
X147060000Y-119319500I0J-50000D01*
G01*
X147060000Y-121244500D01*
G75*
G02*
X147010000Y-121294500I-50000J0D01*
G01*
X146360000Y-121294500D01*
G75*
G02*
X146310000Y-121244500I0J50000D01*
G01*
G37*
G36*
G01*
X147580000Y-121244500D02*
X147580000Y-119319500D01*
G75*
G02*
X147630000Y-119269500I50000J0D01*
G01*
X148280000Y-119269500D01*
G75*
G02*
X148330000Y-119319500I0J-50000D01*
G01*
X148330000Y-121244500D01*
G75*
G02*
X148280000Y-121294500I-50000J0D01*
G01*
X147630000Y-121294500D01*
G75*
G02*
X147580000Y-121244500I0J50000D01*
G01*
G37*
G36*
G01*
X148850000Y-121244500D02*
X148850000Y-119319500D01*
G75*
G02*
X148900000Y-119269500I50000J0D01*
G01*
X149550000Y-119269500D01*
G75*
G02*
X149600000Y-119319500I0J-50000D01*
G01*
X149600000Y-121244500D01*
G75*
G02*
X149550000Y-121294500I-50000J0D01*
G01*
X148900000Y-121294500D01*
G75*
G02*
X148850000Y-121244500I0J50000D01*
G01*
G37*
G36*
G01*
X150120000Y-121244500D02*
X150120000Y-119319500D01*
G75*
G02*
X150170000Y-119269500I50000J0D01*
G01*
X150820000Y-119269500D01*
G75*
G02*
X150870000Y-119319500I0J-50000D01*
G01*
X150870000Y-121244500D01*
G75*
G02*
X150820000Y-121294500I-50000J0D01*
G01*
X150170000Y-121294500D01*
G75*
G02*
X150120000Y-121244500I0J50000D01*
G01*
G37*
G36*
G01*
X151390000Y-121244500D02*
X151390000Y-119319500D01*
G75*
G02*
X151440000Y-119269500I50000J0D01*
G01*
X152090000Y-119269500D01*
G75*
G02*
X152140000Y-119319500I0J-50000D01*
G01*
X152140000Y-121244500D01*
G75*
G02*
X152090000Y-121294500I-50000J0D01*
G01*
X151440000Y-121294500D01*
G75*
G02*
X151390000Y-121244500I0J50000D01*
G01*
G37*
G36*
G01*
X152660000Y-121244500D02*
X152660000Y-119319500D01*
G75*
G02*
X152710000Y-119269500I50000J0D01*
G01*
X153360000Y-119269500D01*
G75*
G02*
X153410000Y-119319500I0J-50000D01*
G01*
X153410000Y-121244500D01*
G75*
G02*
X153360000Y-121294500I-50000J0D01*
G01*
X152710000Y-121294500D01*
G75*
G02*
X152660000Y-121244500I0J50000D01*
G01*
G37*
G36*
G01*
X153930000Y-121244500D02*
X153930000Y-119319500D01*
G75*
G02*
X153980000Y-119269500I50000J0D01*
G01*
X154630000Y-119269500D01*
G75*
G02*
X154680000Y-119319500I0J-50000D01*
G01*
X154680000Y-121244500D01*
G75*
G02*
X154630000Y-121294500I-50000J0D01*
G01*
X153980000Y-121294500D01*
G75*
G02*
X153930000Y-121244500I0J50000D01*
G01*
G37*
G36*
G01*
X155200000Y-121244500D02*
X155200000Y-119319500D01*
G75*
G02*
X155250000Y-119269500I50000J0D01*
G01*
X155900000Y-119269500D01*
G75*
G02*
X155950000Y-119319500I0J-50000D01*
G01*
X155950000Y-121244500D01*
G75*
G02*
X155900000Y-121294500I-50000J0D01*
G01*
X155250000Y-121294500D01*
G75*
G02*
X155200000Y-121244500I0J50000D01*
G01*
G37*
G36*
G01*
X156470000Y-121244500D02*
X156470000Y-119319500D01*
G75*
G02*
X156520000Y-119269500I50000J0D01*
G01*
X157170000Y-119269500D01*
G75*
G02*
X157220000Y-119319500I0J-50000D01*
G01*
X157220000Y-121244500D01*
G75*
G02*
X157170000Y-121294500I-50000J0D01*
G01*
X156520000Y-121294500D01*
G75*
G02*
X156470000Y-121244500I0J50000D01*
G01*
G37*
G36*
G01*
X157740000Y-121244500D02*
X157740000Y-119319500D01*
G75*
G02*
X157790000Y-119269500I50000J0D01*
G01*
X158440000Y-119269500D01*
G75*
G02*
X158490000Y-119319500I0J-50000D01*
G01*
X158490000Y-121244500D01*
G75*
G02*
X158440000Y-121294500I-50000J0D01*
G01*
X157790000Y-121294500D01*
G75*
G02*
X157740000Y-121244500I0J50000D01*
G01*
G37*
%TD*%
%TO.C,C21*%
G36*
G01*
X145454000Y-124347738D02*
X145454000Y-126604262D01*
G75*
G02*
X145182262Y-126876000I-271738J0D01*
G01*
X144475738Y-126876000D01*
G75*
G02*
X144204000Y-126604262I0J271738D01*
G01*
X144204000Y-124347738D01*
G75*
G02*
X144475738Y-124076000I271738J0D01*
G01*
X145182262Y-124076000D01*
G75*
G02*
X145454000Y-124347738I0J-271738D01*
G01*
G37*
G36*
G01*
X148404000Y-124347738D02*
X148404000Y-126604262D01*
G75*
G02*
X148132262Y-126876000I-271738J0D01*
G01*
X147425738Y-126876000D01*
G75*
G02*
X147154000Y-126604262I0J271738D01*
G01*
X147154000Y-124347738D01*
G75*
G02*
X147425738Y-124076000I271738J0D01*
G01*
X148132262Y-124076000D01*
G75*
G02*
X148404000Y-124347738I0J-271738D01*
G01*
G37*
%TD*%
%TO.C,C10*%
G36*
G01*
X163488000Y-132475738D02*
X163488000Y-134732262D01*
G75*
G02*
X163216262Y-135004000I-271738J0D01*
G01*
X162509738Y-135004000D01*
G75*
G02*
X162238000Y-134732262I0J271738D01*
G01*
X162238000Y-132475738D01*
G75*
G02*
X162509738Y-132204000I271738J0D01*
G01*
X163216262Y-132204000D01*
G75*
G02*
X163488000Y-132475738I0J-271738D01*
G01*
G37*
G36*
G01*
X166438000Y-132475738D02*
X166438000Y-134732262D01*
G75*
G02*
X166166262Y-135004000I-271738J0D01*
G01*
X165459738Y-135004000D01*
G75*
G02*
X165188000Y-134732262I0J271738D01*
G01*
X165188000Y-132475738D01*
G75*
G02*
X165459738Y-132204000I271738J0D01*
G01*
X166166262Y-132204000D01*
G75*
G02*
X166438000Y-132475738I0J-271738D01*
G01*
G37*
%TD*%
%TO.C,C9*%
G36*
G01*
X149694000Y-134732262D02*
X149694000Y-132475738D01*
G75*
G02*
X149965738Y-132204000I271738J0D01*
G01*
X150672262Y-132204000D01*
G75*
G02*
X150944000Y-132475738I0J-271738D01*
G01*
X150944000Y-134732262D01*
G75*
G02*
X150672262Y-135004000I-271738J0D01*
G01*
X149965738Y-135004000D01*
G75*
G02*
X149694000Y-134732262I0J271738D01*
G01*
G37*
G36*
G01*
X146744000Y-134732262D02*
X146744000Y-132475738D01*
G75*
G02*
X147015738Y-132204000I271738J0D01*
G01*
X147722262Y-132204000D01*
G75*
G02*
X147994000Y-132475738I0J-271738D01*
G01*
X147994000Y-134732262D01*
G75*
G02*
X147722262Y-135004000I-271738J0D01*
G01*
X147015738Y-135004000D01*
G75*
G02*
X146744000Y-134732262I0J271738D01*
G01*
G37*
%TD*%
%TO.C,C3*%
G36*
G01*
X141844262Y-108878000D02*
X139587738Y-108878000D01*
G75*
G02*
X139316000Y-108606262I0J271738D01*
G01*
X139316000Y-107899738D01*
G75*
G02*
X139587738Y-107628000I271738J0D01*
G01*
X141844262Y-107628000D01*
G75*
G02*
X142116000Y-107899738I0J-271738D01*
G01*
X142116000Y-108606262D01*
G75*
G02*
X141844262Y-108878000I-271738J0D01*
G01*
G37*
G36*
G01*
X141844262Y-111828000D02*
X139587738Y-111828000D01*
G75*
G02*
X139316000Y-111556262I0J271738D01*
G01*
X139316000Y-110849738D01*
G75*
G02*
X139587738Y-110578000I271738J0D01*
G01*
X141844262Y-110578000D01*
G75*
G02*
X142116000Y-110849738I0J-271738D01*
G01*
X142116000Y-111556262D01*
G75*
G02*
X141844262Y-111828000I-271738J0D01*
G01*
G37*
%TD*%
%TO.C,XM1*%
G36*
G01*
X149476000Y-21278000D02*
X149476000Y-14998000D01*
G75*
G02*
X149636000Y-14838000I160000J0D01*
G01*
X150916000Y-14838000D01*
G75*
G02*
X151076000Y-14998000I0J-160000D01*
G01*
X151076000Y-21278000D01*
G75*
G02*
X150916000Y-21438000I-160000J0D01*
G01*
X149636000Y-21438000D01*
G75*
G02*
X149476000Y-21278000I0J160000D01*
G01*
G37*
G36*
G01*
X136976000Y-21278000D02*
X136976000Y-14998000D01*
G75*
G02*
X137136000Y-14838000I160000J0D01*
G01*
X138416000Y-14838000D01*
G75*
G02*
X138576000Y-14998000I0J-160000D01*
G01*
X138576000Y-21278000D01*
G75*
G02*
X138416000Y-21438000I-160000J0D01*
G01*
X137136000Y-21438000D01*
G75*
G02*
X136976000Y-21278000I0J160000D01*
G01*
G37*
G36*
G01*
X131976000Y-21278000D02*
X131976000Y-14998000D01*
G75*
G02*
X132136000Y-14838000I160000J0D01*
G01*
X133416000Y-14838000D01*
G75*
G02*
X133576000Y-14998000I0J-160000D01*
G01*
X133576000Y-21278000D01*
G75*
G02*
X133416000Y-21438000I-160000J0D01*
G01*
X132136000Y-21438000D01*
G75*
G02*
X131976000Y-21278000I0J160000D01*
G01*
G37*
G36*
G01*
X129476000Y-21278000D02*
X129476000Y-14998000D01*
G75*
G02*
X129636000Y-14838000I160000J0D01*
G01*
X130916000Y-14838000D01*
G75*
G02*
X131076000Y-14998000I0J-160000D01*
G01*
X131076000Y-21278000D01*
G75*
G02*
X130916000Y-21438000I-160000J0D01*
G01*
X129636000Y-21438000D01*
G75*
G02*
X129476000Y-21278000I0J160000D01*
G01*
G37*
G36*
G01*
X124476000Y-21278000D02*
X124476000Y-14998000D01*
G75*
G02*
X124636000Y-14838000I160000J0D01*
G01*
X125916000Y-14838000D01*
G75*
G02*
X126076000Y-14998000I0J-160000D01*
G01*
X126076000Y-21278000D01*
G75*
G02*
X125916000Y-21438000I-160000J0D01*
G01*
X124636000Y-21438000D01*
G75*
G02*
X124476000Y-21278000I0J160000D01*
G01*
G37*
G36*
G01*
X119476000Y-21278000D02*
X119476000Y-14998000D01*
G75*
G02*
X119636000Y-14838000I160000J0D01*
G01*
X120916000Y-14838000D01*
G75*
G02*
X121076000Y-14998000I0J-160000D01*
G01*
X121076000Y-21278000D01*
G75*
G02*
X120916000Y-21438000I-160000J0D01*
G01*
X119636000Y-21438000D01*
G75*
G02*
X119476000Y-21278000I0J160000D01*
G01*
G37*
G36*
G01*
X116976000Y-21278000D02*
X116976000Y-14998000D01*
G75*
G02*
X117136000Y-14838000I160000J0D01*
G01*
X118416000Y-14838000D01*
G75*
G02*
X118576000Y-14998000I0J-160000D01*
G01*
X118576000Y-21278000D01*
G75*
G02*
X118416000Y-21438000I-160000J0D01*
G01*
X117136000Y-21438000D01*
G75*
G02*
X116976000Y-21278000I0J160000D01*
G01*
G37*
G36*
G01*
X161976000Y-21278000D02*
X161976000Y-14998000D01*
G75*
G02*
X162136000Y-14838000I160000J0D01*
G01*
X163416000Y-14838000D01*
G75*
G02*
X163576000Y-14998000I0J-160000D01*
G01*
X163576000Y-21278000D01*
G75*
G02*
X163416000Y-21438000I-160000J0D01*
G01*
X162136000Y-21438000D01*
G75*
G02*
X161976000Y-21278000I0J160000D01*
G01*
G37*
G36*
G01*
X159476000Y-21278000D02*
X159476000Y-14998000D01*
G75*
G02*
X159636000Y-14838000I160000J0D01*
G01*
X160916000Y-14838000D01*
G75*
G02*
X161076000Y-14998000I0J-160000D01*
G01*
X161076000Y-21278000D01*
G75*
G02*
X160916000Y-21438000I-160000J0D01*
G01*
X159636000Y-21438000D01*
G75*
G02*
X159476000Y-21278000I0J160000D01*
G01*
G37*
G36*
G01*
X156976000Y-21278000D02*
X156976000Y-14998000D01*
G75*
G02*
X157136000Y-14838000I160000J0D01*
G01*
X158416000Y-14838000D01*
G75*
G02*
X158576000Y-14998000I0J-160000D01*
G01*
X158576000Y-21278000D01*
G75*
G02*
X158416000Y-21438000I-160000J0D01*
G01*
X157136000Y-21438000D01*
G75*
G02*
X156976000Y-21278000I0J160000D01*
G01*
G37*
G36*
G01*
X154476000Y-21278000D02*
X154476000Y-14998000D01*
G75*
G02*
X154636000Y-14838000I160000J0D01*
G01*
X155916000Y-14838000D01*
G75*
G02*
X156076000Y-14998000I0J-160000D01*
G01*
X156076000Y-21278000D01*
G75*
G02*
X155916000Y-21438000I-160000J0D01*
G01*
X154636000Y-21438000D01*
G75*
G02*
X154476000Y-21278000I0J160000D01*
G01*
G37*
G36*
G01*
X151976000Y-21278000D02*
X151976000Y-14998000D01*
G75*
G02*
X152136000Y-14838000I160000J0D01*
G01*
X153416000Y-14838000D01*
G75*
G02*
X153576000Y-14998000I0J-160000D01*
G01*
X153576000Y-21278000D01*
G75*
G02*
X153416000Y-21438000I-160000J0D01*
G01*
X152136000Y-21438000D01*
G75*
G02*
X151976000Y-21278000I0J160000D01*
G01*
G37*
G36*
G01*
X146976000Y-21278000D02*
X146976000Y-14998000D01*
G75*
G02*
X147136000Y-14838000I160000J0D01*
G01*
X148416000Y-14838000D01*
G75*
G02*
X148576000Y-14998000I0J-160000D01*
G01*
X148576000Y-21278000D01*
G75*
G02*
X148416000Y-21438000I-160000J0D01*
G01*
X147136000Y-21438000D01*
G75*
G02*
X146976000Y-21278000I0J160000D01*
G01*
G37*
G36*
G01*
X144476000Y-21278000D02*
X144476000Y-14998000D01*
G75*
G02*
X144636000Y-14838000I160000J0D01*
G01*
X145916000Y-14838000D01*
G75*
G02*
X146076000Y-14998000I0J-160000D01*
G01*
X146076000Y-21278000D01*
G75*
G02*
X145916000Y-21438000I-160000J0D01*
G01*
X144636000Y-21438000D01*
G75*
G02*
X144476000Y-21278000I0J160000D01*
G01*
G37*
G36*
G01*
X141976000Y-21278000D02*
X141976000Y-14998000D01*
G75*
G02*
X142136000Y-14838000I160000J0D01*
G01*
X143416000Y-14838000D01*
G75*
G02*
X143576000Y-14998000I0J-160000D01*
G01*
X143576000Y-21278000D01*
G75*
G02*
X143416000Y-21438000I-160000J0D01*
G01*
X142136000Y-21438000D01*
G75*
G02*
X141976000Y-21278000I0J160000D01*
G01*
G37*
G36*
G01*
X139476000Y-21278000D02*
X139476000Y-14998000D01*
G75*
G02*
X139636000Y-14838000I160000J0D01*
G01*
X140916000Y-14838000D01*
G75*
G02*
X141076000Y-14998000I0J-160000D01*
G01*
X141076000Y-21278000D01*
G75*
G02*
X140916000Y-21438000I-160000J0D01*
G01*
X139636000Y-21438000D01*
G75*
G02*
X139476000Y-21278000I0J160000D01*
G01*
G37*
G36*
G01*
X184476000Y-21278000D02*
X184476000Y-14998000D01*
G75*
G02*
X184636000Y-14838000I160000J0D01*
G01*
X185916000Y-14838000D01*
G75*
G02*
X186076000Y-14998000I0J-160000D01*
G01*
X186076000Y-21278000D01*
G75*
G02*
X185916000Y-21438000I-160000J0D01*
G01*
X184636000Y-21438000D01*
G75*
G02*
X184476000Y-21278000I0J160000D01*
G01*
G37*
G36*
G01*
X134476000Y-21278000D02*
X134476000Y-14998000D01*
G75*
G02*
X134636000Y-14838000I160000J0D01*
G01*
X135916000Y-14838000D01*
G75*
G02*
X136076000Y-14998000I0J-160000D01*
G01*
X136076000Y-21278000D01*
G75*
G02*
X135916000Y-21438000I-160000J0D01*
G01*
X134636000Y-21438000D01*
G75*
G02*
X134476000Y-21278000I0J160000D01*
G01*
G37*
G36*
G01*
X126976000Y-21278000D02*
X126976000Y-14998000D01*
G75*
G02*
X127136000Y-14838000I160000J0D01*
G01*
X128416000Y-14838000D01*
G75*
G02*
X128576000Y-14998000I0J-160000D01*
G01*
X128576000Y-21278000D01*
G75*
G02*
X128416000Y-21438000I-160000J0D01*
G01*
X127136000Y-21438000D01*
G75*
G02*
X126976000Y-21278000I0J160000D01*
G01*
G37*
G36*
G01*
X121976000Y-21278000D02*
X121976000Y-14998000D01*
G75*
G02*
X122136000Y-14838000I160000J0D01*
G01*
X123416000Y-14838000D01*
G75*
G02*
X123576000Y-14998000I0J-160000D01*
G01*
X123576000Y-21278000D01*
G75*
G02*
X123416000Y-21438000I-160000J0D01*
G01*
X122136000Y-21438000D01*
G75*
G02*
X121976000Y-21278000I0J160000D01*
G01*
G37*
G36*
G01*
X114476000Y-21278000D02*
X114476000Y-14998000D01*
G75*
G02*
X114636000Y-14838000I160000J0D01*
G01*
X115916000Y-14838000D01*
G75*
G02*
X116076000Y-14998000I0J-160000D01*
G01*
X116076000Y-21278000D01*
G75*
G02*
X115916000Y-21438000I-160000J0D01*
G01*
X114636000Y-21438000D01*
G75*
G02*
X114476000Y-21278000I0J160000D01*
G01*
G37*
G36*
G01*
X181976000Y-21278000D02*
X181976000Y-14998000D01*
G75*
G02*
X182136000Y-14838000I160000J0D01*
G01*
X183416000Y-14838000D01*
G75*
G02*
X183576000Y-14998000I0J-160000D01*
G01*
X183576000Y-21278000D01*
G75*
G02*
X183416000Y-21438000I-160000J0D01*
G01*
X182136000Y-21438000D01*
G75*
G02*
X181976000Y-21278000I0J160000D01*
G01*
G37*
G36*
G01*
X176976000Y-21278000D02*
X176976000Y-14998000D01*
G75*
G02*
X177136000Y-14838000I160000J0D01*
G01*
X178416000Y-14838000D01*
G75*
G02*
X178576000Y-14998000I0J-160000D01*
G01*
X178576000Y-21278000D01*
G75*
G02*
X178416000Y-21438000I-160000J0D01*
G01*
X177136000Y-21438000D01*
G75*
G02*
X176976000Y-21278000I0J160000D01*
G01*
G37*
G36*
G01*
X174476000Y-21278000D02*
X174476000Y-14998000D01*
G75*
G02*
X174636000Y-14838000I160000J0D01*
G01*
X175916000Y-14838000D01*
G75*
G02*
X176076000Y-14998000I0J-160000D01*
G01*
X176076000Y-21278000D01*
G75*
G02*
X175916000Y-21438000I-160000J0D01*
G01*
X174636000Y-21438000D01*
G75*
G02*
X174476000Y-21278000I0J160000D01*
G01*
G37*
G36*
G01*
X171976000Y-21278000D02*
X171976000Y-14998000D01*
G75*
G02*
X172136000Y-14838000I160000J0D01*
G01*
X173416000Y-14838000D01*
G75*
G02*
X173576000Y-14998000I0J-160000D01*
G01*
X173576000Y-21278000D01*
G75*
G02*
X173416000Y-21438000I-160000J0D01*
G01*
X172136000Y-21438000D01*
G75*
G02*
X171976000Y-21278000I0J160000D01*
G01*
G37*
G36*
G01*
X169476000Y-21278000D02*
X169476000Y-14998000D01*
G75*
G02*
X169636000Y-14838000I160000J0D01*
G01*
X170916000Y-14838000D01*
G75*
G02*
X171076000Y-14998000I0J-160000D01*
G01*
X171076000Y-21278000D01*
G75*
G02*
X170916000Y-21438000I-160000J0D01*
G01*
X169636000Y-21438000D01*
G75*
G02*
X169476000Y-21278000I0J160000D01*
G01*
G37*
G36*
G01*
X166976000Y-21278000D02*
X166976000Y-14998000D01*
G75*
G02*
X167136000Y-14838000I160000J0D01*
G01*
X168416000Y-14838000D01*
G75*
G02*
X168576000Y-14998000I0J-160000D01*
G01*
X168576000Y-21278000D01*
G75*
G02*
X168416000Y-21438000I-160000J0D01*
G01*
X167136000Y-21438000D01*
G75*
G02*
X166976000Y-21278000I0J160000D01*
G01*
G37*
G36*
G01*
X164476000Y-21278000D02*
X164476000Y-14998000D01*
G75*
G02*
X164636000Y-14838000I160000J0D01*
G01*
X165916000Y-14838000D01*
G75*
G02*
X166076000Y-14998000I0J-160000D01*
G01*
X166076000Y-21278000D01*
G75*
G02*
X165916000Y-21438000I-160000J0D01*
G01*
X164636000Y-21438000D01*
G75*
G02*
X164476000Y-21278000I0J160000D01*
G01*
G37*
%TD*%
D11*
%TO.C,J10*%
X167132000Y-122682000D03*
X167132000Y-120142000D03*
X167132000Y-117602000D03*
G36*
G01*
X166232000Y-115912000D02*
X166232000Y-114212000D01*
G75*
G02*
X166282000Y-114162000I50000J0D01*
G01*
X167982000Y-114162000D01*
G75*
G02*
X168032000Y-114212000I0J-50000D01*
G01*
X168032000Y-115912000D01*
G75*
G02*
X167982000Y-115962000I-50000J0D01*
G01*
X166282000Y-115962000D01*
G75*
G02*
X166232000Y-115912000I0J50000D01*
G01*
G37*
%TD*%
%TO.C,J9*%
X170180000Y-122682000D03*
X170180000Y-120142000D03*
X170180000Y-117602000D03*
G36*
G01*
X169280000Y-115912000D02*
X169280000Y-114212000D01*
G75*
G02*
X169330000Y-114162000I50000J0D01*
G01*
X171030000Y-114162000D01*
G75*
G02*
X171080000Y-114212000I0J-50000D01*
G01*
X171080000Y-115912000D01*
G75*
G02*
X171030000Y-115962000I-50000J0D01*
G01*
X169330000Y-115962000D01*
G75*
G02*
X169280000Y-115912000I0J50000D01*
G01*
G37*
%TD*%
%TO.C,J8*%
X176276000Y-122682000D03*
X176276000Y-120142000D03*
X176276000Y-117602000D03*
G36*
G01*
X175376000Y-115912000D02*
X175376000Y-114212000D01*
G75*
G02*
X175426000Y-114162000I50000J0D01*
G01*
X177126000Y-114162000D01*
G75*
G02*
X177176000Y-114212000I0J-50000D01*
G01*
X177176000Y-115912000D01*
G75*
G02*
X177126000Y-115962000I-50000J0D01*
G01*
X175426000Y-115962000D01*
G75*
G02*
X175376000Y-115912000I0J50000D01*
G01*
G37*
%TD*%
%TO.C,J7*%
X173228000Y-122682000D03*
X173228000Y-120142000D03*
X173228000Y-117602000D03*
G36*
G01*
X172328000Y-115912000D02*
X172328000Y-114212000D01*
G75*
G02*
X172378000Y-114162000I50000J0D01*
G01*
X174078000Y-114162000D01*
G75*
G02*
X174128000Y-114212000I0J-50000D01*
G01*
X174128000Y-115912000D01*
G75*
G02*
X174078000Y-115962000I-50000J0D01*
G01*
X172378000Y-115962000D01*
G75*
G02*
X172328000Y-115912000I0J50000D01*
G01*
G37*
%TD*%
%TO.C,J6*%
X122682000Y-122174000D03*
X122682000Y-119634000D03*
X122682000Y-117094000D03*
G36*
G01*
X121782000Y-115404000D02*
X121782000Y-113704000D01*
G75*
G02*
X121832000Y-113654000I50000J0D01*
G01*
X123532000Y-113654000D01*
G75*
G02*
X123582000Y-113704000I0J-50000D01*
G01*
X123582000Y-115404000D01*
G75*
G02*
X123532000Y-115454000I-50000J0D01*
G01*
X121832000Y-115454000D01*
G75*
G02*
X121782000Y-115404000I0J50000D01*
G01*
G37*
%TD*%
%TO.C,J5*%
X125730000Y-122174000D03*
X125730000Y-119634000D03*
X125730000Y-117094000D03*
G36*
G01*
X124830000Y-115404000D02*
X124830000Y-113704000D01*
G75*
G02*
X124880000Y-113654000I50000J0D01*
G01*
X126580000Y-113654000D01*
G75*
G02*
X126630000Y-113704000I0J-50000D01*
G01*
X126630000Y-115404000D01*
G75*
G02*
X126580000Y-115454000I-50000J0D01*
G01*
X124880000Y-115454000D01*
G75*
G02*
X124830000Y-115404000I0J50000D01*
G01*
G37*
%TD*%
%TO.C,J4*%
X131826000Y-122174000D03*
X131826000Y-119634000D03*
X131826000Y-117094000D03*
G36*
G01*
X130926000Y-115404000D02*
X130926000Y-113704000D01*
G75*
G02*
X130976000Y-113654000I50000J0D01*
G01*
X132676000Y-113654000D01*
G75*
G02*
X132726000Y-113704000I0J-50000D01*
G01*
X132726000Y-115404000D01*
G75*
G02*
X132676000Y-115454000I-50000J0D01*
G01*
X130976000Y-115454000D01*
G75*
G02*
X130926000Y-115404000I0J50000D01*
G01*
G37*
%TD*%
%TO.C,J3*%
X128778000Y-122174000D03*
X128778000Y-119634000D03*
X128778000Y-117094000D03*
G36*
G01*
X127878000Y-115404000D02*
X127878000Y-113704000D01*
G75*
G02*
X127928000Y-113654000I50000J0D01*
G01*
X129628000Y-113654000D01*
G75*
G02*
X129678000Y-113704000I0J-50000D01*
G01*
X129678000Y-115404000D01*
G75*
G02*
X129628000Y-115454000I-50000J0D01*
G01*
X127928000Y-115454000D01*
G75*
G02*
X127878000Y-115404000I0J50000D01*
G01*
G37*
%TD*%
D12*
%TO.C,U15*%
X106426000Y-61976000D03*
X98806000Y-77216000D03*
X106426000Y-64516000D03*
X98806000Y-74676000D03*
X106426000Y-67056000D03*
X98806000Y-72136000D03*
X106426000Y-69596000D03*
X98806000Y-69596000D03*
X106426000Y-72136000D03*
X98806000Y-67056000D03*
X106426000Y-74676000D03*
X98806000Y-64516000D03*
X106426000Y-77216000D03*
G36*
G01*
X97556000Y-62776000D02*
X97556000Y-61176000D01*
G75*
G02*
X97606000Y-61126000I50000J0D01*
G01*
X100006000Y-61126000D01*
G75*
G02*
X100056000Y-61176000I0J-50000D01*
G01*
X100056000Y-62776000D01*
G75*
G02*
X100006000Y-62826000I-50000J0D01*
G01*
X97606000Y-62826000D01*
G75*
G02*
X97556000Y-62776000I0J50000D01*
G01*
G37*
%TD*%
%TO.C,U14*%
X106680000Y-41148000D03*
X99060000Y-56388000D03*
X106680000Y-43688000D03*
X99060000Y-53848000D03*
X106680000Y-46228000D03*
X99060000Y-51308000D03*
X106680000Y-48768000D03*
X99060000Y-48768000D03*
X106680000Y-51308000D03*
X99060000Y-46228000D03*
X106680000Y-53848000D03*
X99060000Y-43688000D03*
X106680000Y-56388000D03*
G36*
G01*
X97810000Y-41948000D02*
X97810000Y-40348000D01*
G75*
G02*
X97860000Y-40298000I50000J0D01*
G01*
X100260000Y-40298000D01*
G75*
G02*
X100310000Y-40348000I0J-50000D01*
G01*
X100310000Y-41948000D01*
G75*
G02*
X100260000Y-41998000I-50000J0D01*
G01*
X97860000Y-41998000D01*
G75*
G02*
X97810000Y-41948000I0J50000D01*
G01*
G37*
%TD*%
D13*
%TO.C,R6*%
X110744000Y-124460000D03*
D14*
X110744000Y-134620000D03*
%TD*%
D13*
%TO.C,R5*%
X176784000Y-49022000D03*
D14*
X186944000Y-49022000D03*
%TD*%
%TO.C,C20*%
X200954000Y-84836000D03*
X203454000Y-84836000D03*
%TD*%
%TO.C,C19*%
X151638000Y-104354000D03*
X151638000Y-101854000D03*
%TD*%
%TO.C,C18*%
X201208000Y-63754000D03*
X203708000Y-63754000D03*
%TD*%
%TO.C,C17*%
X172212000Y-104100000D03*
X172212000Y-101600000D03*
%TD*%
%TO.C,C16*%
X98846000Y-103886000D03*
X101346000Y-103886000D03*
%TD*%
%TO.C,C15*%
X146304000Y-71588000D03*
X146304000Y-69088000D03*
%TD*%
%TO.C,C14*%
X146304000Y-87336000D03*
X146304000Y-84836000D03*
%TD*%
%TO.C,C13*%
X99100000Y-59182000D03*
X101600000Y-59182000D03*
%TD*%
%TO.C,C4*%
X98592000Y-79502000D03*
X101092000Y-79502000D03*
%TD*%
%TO.C,C1*%
X146558000Y-55332000D03*
X146558000Y-52832000D03*
%TD*%
D10*
%TO.C,U13*%
X120904000Y-79756000D03*
X143764000Y-87376000D03*
X123444000Y-79756000D03*
X141224000Y-87376000D03*
X125984000Y-79756000D03*
X138684000Y-87376000D03*
X128524000Y-79756000D03*
X136144000Y-87376000D03*
X131064000Y-79756000D03*
X133604000Y-87376000D03*
X133604000Y-79756000D03*
X131064000Y-87376000D03*
X136144000Y-79756000D03*
X128524000Y-87376000D03*
X138684000Y-79756000D03*
X125984000Y-87376000D03*
X141224000Y-79756000D03*
X123444000Y-87376000D03*
X143764000Y-79756000D03*
G36*
G01*
X121704000Y-88626000D02*
X120104000Y-88626000D01*
G75*
G02*
X120054000Y-88576000I0J50000D01*
G01*
X120054000Y-86176000D01*
G75*
G02*
X120104000Y-86126000I50000J0D01*
G01*
X121704000Y-86126000D01*
G75*
G02*
X121754000Y-86176000I0J-50000D01*
G01*
X121754000Y-88576000D01*
G75*
G02*
X121704000Y-88626000I-50000J0D01*
G01*
G37*
%TD*%
D12*
%TO.C,U12*%
X203454000Y-87884000D03*
X195834000Y-103124000D03*
X203454000Y-90424000D03*
X195834000Y-100584000D03*
X203454000Y-92964000D03*
X195834000Y-98044000D03*
X203454000Y-95504000D03*
X195834000Y-95504000D03*
X203454000Y-98044000D03*
X195834000Y-92964000D03*
X203454000Y-100584000D03*
X195834000Y-90424000D03*
X203454000Y-103124000D03*
G36*
G01*
X194584000Y-88684000D02*
X194584000Y-87084000D01*
G75*
G02*
X194634000Y-87034000I50000J0D01*
G01*
X197034000Y-87034000D01*
G75*
G02*
X197084000Y-87084000I0J-50000D01*
G01*
X197084000Y-88684000D01*
G75*
G02*
X197034000Y-88734000I-50000J0D01*
G01*
X194634000Y-88734000D01*
G75*
G02*
X194584000Y-88684000I0J50000D01*
G01*
G37*
%TD*%
%TO.C,U11*%
X203708000Y-66294000D03*
X196088000Y-81534000D03*
X203708000Y-68834000D03*
X196088000Y-78994000D03*
X203708000Y-71374000D03*
X196088000Y-76454000D03*
X203708000Y-73914000D03*
X196088000Y-73914000D03*
X203708000Y-76454000D03*
X196088000Y-71374000D03*
X203708000Y-78994000D03*
X196088000Y-68834000D03*
X203708000Y-81534000D03*
G36*
G01*
X194838000Y-67094000D02*
X194838000Y-65494000D01*
G75*
G02*
X194888000Y-65444000I50000J0D01*
G01*
X197288000Y-65444000D01*
G75*
G02*
X197338000Y-65494000I0J-50000D01*
G01*
X197338000Y-67094000D01*
G75*
G02*
X197288000Y-67144000I-50000J0D01*
G01*
X194888000Y-67144000D01*
G75*
G02*
X194838000Y-67094000I0J50000D01*
G01*
G37*
%TD*%
D10*
%TO.C,U10*%
X114300000Y-97028000D03*
X129540000Y-104648000D03*
X116840000Y-97028000D03*
X127000000Y-104648000D03*
X119380000Y-97028000D03*
X124460000Y-104648000D03*
X121920000Y-97028000D03*
X121920000Y-104648000D03*
X124460000Y-97028000D03*
X119380000Y-104648000D03*
X127000000Y-97028000D03*
X116840000Y-104648000D03*
X129540000Y-97028000D03*
G36*
G01*
X115100000Y-105898000D02*
X113500000Y-105898000D01*
G75*
G02*
X113450000Y-105848000I0J50000D01*
G01*
X113450000Y-103448000D01*
G75*
G02*
X113500000Y-103398000I50000J0D01*
G01*
X115100000Y-103398000D01*
G75*
G02*
X115150000Y-103448000I0J-50000D01*
G01*
X115150000Y-105848000D01*
G75*
G02*
X115100000Y-105898000I-50000J0D01*
G01*
G37*
%TD*%
%TO.C,U9*%
X120904000Y-63754000D03*
X143764000Y-71374000D03*
X123444000Y-63754000D03*
X141224000Y-71374000D03*
X125984000Y-63754000D03*
X138684000Y-71374000D03*
X128524000Y-63754000D03*
X136144000Y-71374000D03*
X131064000Y-63754000D03*
X133604000Y-71374000D03*
X133604000Y-63754000D03*
X131064000Y-71374000D03*
X136144000Y-63754000D03*
X128524000Y-71374000D03*
X138684000Y-63754000D03*
X125984000Y-71374000D03*
X141224000Y-63754000D03*
X123444000Y-71374000D03*
X143764000Y-63754000D03*
G36*
G01*
X121704000Y-72624000D02*
X120104000Y-72624000D01*
G75*
G02*
X120054000Y-72574000I0J50000D01*
G01*
X120054000Y-70174000D01*
G75*
G02*
X120104000Y-70124000I50000J0D01*
G01*
X121704000Y-70124000D01*
G75*
G02*
X121754000Y-70174000I0J-50000D01*
G01*
X121754000Y-72574000D01*
G75*
G02*
X121704000Y-72624000I-50000J0D01*
G01*
G37*
%TD*%
D13*
%TO.C,R4*%
X168148000Y-90424000D03*
D14*
X178308000Y-90424000D03*
%TD*%
D13*
%TO.C,R3*%
X168148000Y-93218000D03*
D14*
X178308000Y-93218000D03*
%TD*%
D13*
%TO.C,R2*%
X188468000Y-100838000D03*
D14*
X178308000Y-100838000D03*
%TD*%
%TO.C,C12*%
X163322000Y-76160000D03*
X163322000Y-73660000D03*
%TD*%
%TO.C,C11*%
X191770000Y-90718000D03*
X191770000Y-93218000D03*
%TD*%
D12*
%TO.C,U5*%
X106680000Y-83312000D03*
X99060000Y-101092000D03*
X106680000Y-85852000D03*
X99060000Y-98552000D03*
X106680000Y-88392000D03*
X99060000Y-96012000D03*
X106680000Y-90932000D03*
X99060000Y-93472000D03*
X106680000Y-93472000D03*
X99060000Y-90932000D03*
X106680000Y-96012000D03*
X99060000Y-88392000D03*
X106680000Y-98552000D03*
X99060000Y-85852000D03*
X106680000Y-101092000D03*
G36*
G01*
X97810000Y-84112000D02*
X97810000Y-82512000D01*
G75*
G02*
X97860000Y-82462000I50000J0D01*
G01*
X100260000Y-82462000D01*
G75*
G02*
X100310000Y-82512000I0J-50000D01*
G01*
X100310000Y-84112000D01*
G75*
G02*
X100260000Y-84162000I-50000J0D01*
G01*
X97860000Y-84162000D01*
G75*
G02*
X97810000Y-84112000I0J50000D01*
G01*
G37*
%TD*%
D10*
%TO.C,U4*%
X121158000Y-47752000D03*
X144018000Y-55372000D03*
X123698000Y-47752000D03*
X141478000Y-55372000D03*
X126238000Y-47752000D03*
X138938000Y-55372000D03*
X128778000Y-47752000D03*
X136398000Y-55372000D03*
X131318000Y-47752000D03*
X133858000Y-55372000D03*
X133858000Y-47752000D03*
X131318000Y-55372000D03*
X136398000Y-47752000D03*
X128778000Y-55372000D03*
X138938000Y-47752000D03*
X126238000Y-55372000D03*
X141478000Y-47752000D03*
X123698000Y-55372000D03*
X144018000Y-47752000D03*
G36*
G01*
X121958000Y-56622000D02*
X120358000Y-56622000D01*
G75*
G02*
X120308000Y-56572000I0J50000D01*
G01*
X120308000Y-54172000D01*
G75*
G02*
X120358000Y-54122000I50000J0D01*
G01*
X121958000Y-54122000D01*
G75*
G02*
X122008000Y-54172000I0J-50000D01*
G01*
X122008000Y-56572000D01*
G75*
G02*
X121958000Y-56622000I-50000J0D01*
G01*
G37*
%TD*%
%TO.C,U3*%
X154178000Y-96520000D03*
X169418000Y-104140000D03*
X156718000Y-96520000D03*
X166878000Y-104140000D03*
X159258000Y-96520000D03*
X164338000Y-104140000D03*
X161798000Y-96520000D03*
X161798000Y-104140000D03*
X164338000Y-96520000D03*
X159258000Y-104140000D03*
X166878000Y-96520000D03*
X156718000Y-104140000D03*
X169418000Y-96520000D03*
G36*
G01*
X154978000Y-105390000D02*
X153378000Y-105390000D01*
G75*
G02*
X153328000Y-105340000I0J50000D01*
G01*
X153328000Y-102940000D01*
G75*
G02*
X153378000Y-102890000I50000J0D01*
G01*
X154978000Y-102890000D01*
G75*
G02*
X155028000Y-102940000I0J-50000D01*
G01*
X155028000Y-105340000D01*
G75*
G02*
X154978000Y-105390000I-50000J0D01*
G01*
G37*
%TD*%
%TO.C,U2*%
X102362000Y-109220000D03*
X117602000Y-116840000D03*
X104902000Y-109220000D03*
X115062000Y-116840000D03*
X107442000Y-109220000D03*
X112522000Y-116840000D03*
X109982000Y-109220000D03*
X109982000Y-116840000D03*
X112522000Y-109220000D03*
X107442000Y-116840000D03*
X115062000Y-109220000D03*
X104902000Y-116840000D03*
X117602000Y-109220000D03*
G36*
G01*
X103162000Y-118090000D02*
X101562000Y-118090000D01*
G75*
G02*
X101512000Y-118040000I0J50000D01*
G01*
X101512000Y-115640000D01*
G75*
G02*
X101562000Y-115590000I50000J0D01*
G01*
X103162000Y-115590000D01*
G75*
G02*
X103212000Y-115640000I0J-50000D01*
G01*
X103212000Y-118040000D01*
G75*
G02*
X103162000Y-118090000I-50000J0D01*
G01*
G37*
%TD*%
%TO.C,U1*%
X175768000Y-96774000D03*
X191008000Y-104394000D03*
X178308000Y-96774000D03*
X188468000Y-104394000D03*
X180848000Y-96774000D03*
X185928000Y-104394000D03*
X183388000Y-96774000D03*
X183388000Y-104394000D03*
X185928000Y-96774000D03*
X180848000Y-104394000D03*
X188468000Y-96774000D03*
X178308000Y-104394000D03*
X191008000Y-96774000D03*
G36*
G01*
X176568000Y-105644000D02*
X174968000Y-105644000D01*
G75*
G02*
X174918000Y-105594000I0J50000D01*
G01*
X174918000Y-103194000D01*
G75*
G02*
X174968000Y-103144000I50000J0D01*
G01*
X176568000Y-103144000D01*
G75*
G02*
X176618000Y-103194000I0J-50000D01*
G01*
X176618000Y-105594000D01*
G75*
G02*
X176568000Y-105644000I-50000J0D01*
G01*
G37*
%TD*%
D13*
%TO.C,R1*%
X186944000Y-52070000D03*
D14*
X176784000Y-52070000D03*
%TD*%
D15*
%TO.C,J2*%
X140818000Y-127912000D03*
X115818000Y-127912000D03*
D14*
X124163000Y-129332000D03*
X126933000Y-129332000D03*
X129703000Y-129332000D03*
X132473000Y-129332000D03*
X122778000Y-126492000D03*
X125548000Y-126492000D03*
X128318000Y-126492000D03*
X131088000Y-126492000D03*
G36*
G01*
X133008000Y-127292000D02*
X133008000Y-125692000D01*
G75*
G02*
X133058000Y-125642000I50000J0D01*
G01*
X134658000Y-125642000D01*
G75*
G02*
X134708000Y-125692000I0J-50000D01*
G01*
X134708000Y-127292000D01*
G75*
G02*
X134658000Y-127342000I-50000J0D01*
G01*
X133058000Y-127342000D01*
G75*
G02*
X133008000Y-127292000I0J50000D01*
G01*
G37*
%TD*%
D15*
%TO.C,J1*%
X185776000Y-128166000D03*
X160776000Y-128166000D03*
D14*
X169121000Y-129586000D03*
X171891000Y-129586000D03*
X174661000Y-129586000D03*
X177431000Y-129586000D03*
X167736000Y-126746000D03*
X170506000Y-126746000D03*
X173276000Y-126746000D03*
X176046000Y-126746000D03*
G36*
G01*
X177966000Y-127546000D02*
X177966000Y-125946000D01*
G75*
G02*
X178016000Y-125896000I50000J0D01*
G01*
X179616000Y-125896000D01*
G75*
G02*
X179666000Y-125946000I0J-50000D01*
G01*
X179666000Y-127546000D01*
G75*
G02*
X179616000Y-127596000I-50000J0D01*
G01*
X178016000Y-127596000D01*
G75*
G02*
X177966000Y-127546000I0J50000D01*
G01*
G37*
%TD*%
D10*
%TO.C,IC2*%
X153162000Y-67818000D03*
X186182000Y-83058000D03*
X155702000Y-67818000D03*
X183642000Y-83058000D03*
X158242000Y-67818000D03*
X181102000Y-83058000D03*
X160782000Y-67818000D03*
X178562000Y-83058000D03*
X163322000Y-67818000D03*
X176022000Y-83058000D03*
X165862000Y-67818000D03*
X173482000Y-83058000D03*
X168402000Y-67818000D03*
X170942000Y-83058000D03*
X170942000Y-67818000D03*
X168402000Y-83058000D03*
X173482000Y-67818000D03*
X165862000Y-83058000D03*
X176022000Y-67818000D03*
X163322000Y-83058000D03*
X178562000Y-67818000D03*
X160782000Y-83058000D03*
X181102000Y-67818000D03*
X158242000Y-83058000D03*
X183642000Y-67818000D03*
X155702000Y-83058000D03*
X186182000Y-67818000D03*
G36*
G01*
X153962000Y-84308000D02*
X152362000Y-84308000D01*
G75*
G02*
X152312000Y-84258000I0J50000D01*
G01*
X152312000Y-81858000D01*
G75*
G02*
X152362000Y-81808000I50000J0D01*
G01*
X153962000Y-81808000D01*
G75*
G02*
X154012000Y-81858000I0J-50000D01*
G01*
X154012000Y-84258000D01*
G75*
G02*
X153962000Y-84308000I-50000J0D01*
G01*
G37*
%TD*%
%TO.C,IC1*%
X153162000Y-42418000D03*
X201422000Y-57658000D03*
X155702000Y-42418000D03*
X198882000Y-57658000D03*
X158242000Y-42418000D03*
X196342000Y-57658000D03*
X160782000Y-42418000D03*
X193802000Y-57658000D03*
X163322000Y-42418000D03*
X191262000Y-57658000D03*
X165862000Y-42418000D03*
X188722000Y-57658000D03*
X168402000Y-42418000D03*
X186182000Y-57658000D03*
X170942000Y-42418000D03*
X183642000Y-57658000D03*
X173482000Y-42418000D03*
X181102000Y-57658000D03*
X176022000Y-42418000D03*
X178562000Y-57658000D03*
X178562000Y-42418000D03*
X176022000Y-57658000D03*
X181102000Y-42418000D03*
X173482000Y-57658000D03*
X183642000Y-42418000D03*
X170942000Y-57658000D03*
X186182000Y-42418000D03*
X168402000Y-57658000D03*
X188722000Y-42418000D03*
X165862000Y-57658000D03*
X191262000Y-42418000D03*
X163322000Y-57658000D03*
X193802000Y-42418000D03*
X160782000Y-57658000D03*
X196342000Y-42418000D03*
X158242000Y-57658000D03*
X198882000Y-42418000D03*
X155702000Y-57658000D03*
X201422000Y-42418000D03*
G36*
G01*
X153962000Y-58908000D02*
X152362000Y-58908000D01*
G75*
G02*
X152312000Y-58858000I0J50000D01*
G01*
X152312000Y-56458000D01*
G75*
G02*
X152362000Y-56408000I50000J0D01*
G01*
X153962000Y-56408000D01*
G75*
G02*
X154012000Y-56458000I0J-50000D01*
G01*
X154012000Y-58858000D01*
G75*
G02*
X153962000Y-58908000I-50000J0D01*
G01*
G37*
%TD*%
D16*
%TO.C,D1*%
X106680000Y-127254000D03*
G36*
G01*
X103190000Y-128154000D02*
X103190000Y-126354000D01*
G75*
G02*
X103240000Y-126304000I50000J0D01*
G01*
X105040000Y-126304000D01*
G75*
G02*
X105090000Y-126354000I0J-50000D01*
G01*
X105090000Y-128154000D01*
G75*
G02*
X105040000Y-128204000I-50000J0D01*
G01*
X103240000Y-128204000D01*
G75*
G02*
X103190000Y-128154000I0J50000D01*
G01*
G37*
%TD*%
D14*
%TO.C,C2*%
X97830000Y-32512000D03*
G36*
G01*
X101180000Y-31712000D02*
X101180000Y-33312000D01*
G75*
G02*
X101130000Y-33362000I-50000J0D01*
G01*
X99530000Y-33362000D01*
G75*
G02*
X99480000Y-33312000I0J50000D01*
G01*
X99480000Y-31712000D01*
G75*
G02*
X99530000Y-31662000I50000J0D01*
G01*
X101130000Y-31662000D01*
G75*
G02*
X101180000Y-31712000I0J-50000D01*
G01*
G37*
%TD*%
M02*
