%TF.GenerationSoftware,KiCad,Pcbnew,(5.1.10)-1*%
%TF.CreationDate,2024-05-08T08:23:43+02:00*%
%TF.ProjectId,M003,4d303033-2e6b-4696-9361-645f70636258,rev?*%
%TF.SameCoordinates,Original*%
%TF.FileFunction,Legend,Bot*%
%TF.FilePolarity,Positive*%
%FSLAX46Y46*%
G04 Gerber Fmt 4.6, Leading zero omitted, Abs format (unit mm)*
G04 Created by KiCad (PCBNEW (5.1.10)-1) date 2024-05-08 08:23:43*
%MOMM*%
%LPD*%
G01*
G04 APERTURE LIST*
%ADD10C,0.200000*%
%ADD11C,0.120000*%
%ADD12C,0.254000*%
%ADD13C,0.150000*%
G04 APERTURE END LIST*
D10*
%TO.C,IC3*%
X158790000Y-121245000D02*
X158790000Y-119320000D01*
X143430000Y-118970000D02*
X158830000Y-118970000D01*
X143430000Y-112170000D02*
X143430000Y-118970000D01*
X158830000Y-112170000D02*
X143430000Y-112170000D01*
X158830000Y-118970000D02*
X158830000Y-112170000D01*
D11*
%TO.C,C21*%
X147015252Y-126836000D02*
X145592748Y-126836000D01*
X147015252Y-124116000D02*
X145592748Y-124116000D01*
%TO.C,C10*%
X165049252Y-134964000D02*
X163626748Y-134964000D01*
X165049252Y-132244000D02*
X163626748Y-132244000D01*
%TO.C,C9*%
X148132748Y-132244000D02*
X149555252Y-132244000D01*
X148132748Y-134964000D02*
X149555252Y-134964000D01*
%TO.C,C3*%
X139356000Y-110439252D02*
X139356000Y-109016748D01*
X142076000Y-110439252D02*
X142076000Y-109016748D01*
%TO.C,IC3*%
D12*
X151704523Y-114330238D02*
X150434523Y-114330238D01*
X151583571Y-115660714D02*
X151644047Y-115600238D01*
X151704523Y-115418809D01*
X151704523Y-115297857D01*
X151644047Y-115116428D01*
X151523095Y-114995476D01*
X151402142Y-114935000D01*
X151160238Y-114874523D01*
X150978809Y-114874523D01*
X150736904Y-114935000D01*
X150615952Y-114995476D01*
X150495000Y-115116428D01*
X150434523Y-115297857D01*
X150434523Y-115418809D01*
X150495000Y-115600238D01*
X150555476Y-115660714D01*
X150434523Y-116084047D02*
X150434523Y-116870238D01*
X150918333Y-116446904D01*
X150918333Y-116628333D01*
X150978809Y-116749285D01*
X151039285Y-116809761D01*
X151160238Y-116870238D01*
X151462619Y-116870238D01*
X151583571Y-116809761D01*
X151644047Y-116749285D01*
X151704523Y-116628333D01*
X151704523Y-116265476D01*
X151644047Y-116144523D01*
X151583571Y-116084047D01*
%TO.C,C21*%
D13*
X146946857Y-123533142D02*
X146994476Y-123580761D01*
X147137333Y-123628380D01*
X147232571Y-123628380D01*
X147375428Y-123580761D01*
X147470666Y-123485523D01*
X147518285Y-123390285D01*
X147565904Y-123199809D01*
X147565904Y-123056952D01*
X147518285Y-122866476D01*
X147470666Y-122771238D01*
X147375428Y-122676000D01*
X147232571Y-122628380D01*
X147137333Y-122628380D01*
X146994476Y-122676000D01*
X146946857Y-122723619D01*
X146565904Y-122723619D02*
X146518285Y-122676000D01*
X146423047Y-122628380D01*
X146184952Y-122628380D01*
X146089714Y-122676000D01*
X146042095Y-122723619D01*
X145994476Y-122818857D01*
X145994476Y-122914095D01*
X146042095Y-123056952D01*
X146613523Y-123628380D01*
X145994476Y-123628380D01*
X145042095Y-123628380D02*
X145613523Y-123628380D01*
X145327809Y-123628380D02*
X145327809Y-122628380D01*
X145423047Y-122771238D01*
X145518285Y-122866476D01*
X145613523Y-122914095D01*
%TO.C,C10*%
X164980857Y-131661142D02*
X165028476Y-131708761D01*
X165171333Y-131756380D01*
X165266571Y-131756380D01*
X165409428Y-131708761D01*
X165504666Y-131613523D01*
X165552285Y-131518285D01*
X165599904Y-131327809D01*
X165599904Y-131184952D01*
X165552285Y-130994476D01*
X165504666Y-130899238D01*
X165409428Y-130804000D01*
X165266571Y-130756380D01*
X165171333Y-130756380D01*
X165028476Y-130804000D01*
X164980857Y-130851619D01*
X164028476Y-131756380D02*
X164599904Y-131756380D01*
X164314190Y-131756380D02*
X164314190Y-130756380D01*
X164409428Y-130899238D01*
X164504666Y-130994476D01*
X164599904Y-131042095D01*
X163409428Y-130756380D02*
X163314190Y-130756380D01*
X163218952Y-130804000D01*
X163171333Y-130851619D01*
X163123714Y-130946857D01*
X163076095Y-131137333D01*
X163076095Y-131375428D01*
X163123714Y-131565904D01*
X163171333Y-131661142D01*
X163218952Y-131708761D01*
X163314190Y-131756380D01*
X163409428Y-131756380D01*
X163504666Y-131708761D01*
X163552285Y-131661142D01*
X163599904Y-131565904D01*
X163647523Y-131375428D01*
X163647523Y-131137333D01*
X163599904Y-130946857D01*
X163552285Y-130851619D01*
X163504666Y-130804000D01*
X163409428Y-130756380D01*
%TO.C,C3*%
X143373142Y-109561333D02*
X143420761Y-109513714D01*
X143468380Y-109370857D01*
X143468380Y-109275619D01*
X143420761Y-109132761D01*
X143325523Y-109037523D01*
X143230285Y-108989904D01*
X143039809Y-108942285D01*
X142896952Y-108942285D01*
X142706476Y-108989904D01*
X142611238Y-109037523D01*
X142516000Y-109132761D01*
X142468380Y-109275619D01*
X142468380Y-109370857D01*
X142516000Y-109513714D01*
X142563619Y-109561333D01*
X142468380Y-109894666D02*
X142468380Y-110513714D01*
X142849333Y-110180380D01*
X142849333Y-110323238D01*
X142896952Y-110418476D01*
X142944571Y-110466095D01*
X143039809Y-110513714D01*
X143277904Y-110513714D01*
X143373142Y-110466095D01*
X143420761Y-110418476D01*
X143468380Y-110323238D01*
X143468380Y-110037523D01*
X143420761Y-109942285D01*
X143373142Y-109894666D01*
%TD*%
M02*
