%TF.GenerationSoftware,KiCad,Pcbnew,(5.1.10)-1*%
%TF.CreationDate,2024-05-08T08:23:43+02:00*%
%TF.ProjectId,M003,4d303033-2e6b-4696-9361-645f70636258,rev?*%
%TF.SameCoordinates,Original*%
%TF.FileFunction,Other,Fab,Top*%
%FSLAX46Y46*%
G04 Gerber Fmt 4.6, Leading zero omitted, Abs format (unit mm)*
G04 Created by KiCad (PCBNEW (5.1.10)-1) date 2024-05-08 08:23:43*
%MOMM*%
%LPD*%
G01*
G04 APERTURE LIST*
%ADD10C,0.100000*%
%ADD11C,0.150000*%
%ADD12C,0.102000*%
%ADD13C,0.200000*%
G04 APERTURE END LIST*
D10*
%TO.C,U8*%
X133842000Y-103505000D02*
X132842000Y-102505000D01*
X150622000Y-103505000D02*
X133842000Y-103505000D01*
X150622000Y-97155000D02*
X150622000Y-103505000D01*
X132842000Y-97155000D02*
X150622000Y-97155000D01*
X132842000Y-102505000D02*
X132842000Y-97155000D01*
%TO.C,J10*%
X165862000Y-114427000D02*
X166497000Y-113792000D01*
X165862000Y-123952000D02*
X165862000Y-114427000D01*
X168402000Y-123952000D02*
X165862000Y-123952000D01*
X168402000Y-113792000D02*
X168402000Y-123952000D01*
X166497000Y-113792000D02*
X168402000Y-113792000D01*
%TO.C,J9*%
X168910000Y-114427000D02*
X169545000Y-113792000D01*
X168910000Y-123952000D02*
X168910000Y-114427000D01*
X171450000Y-123952000D02*
X168910000Y-123952000D01*
X171450000Y-113792000D02*
X171450000Y-123952000D01*
X169545000Y-113792000D02*
X171450000Y-113792000D01*
%TO.C,J8*%
X175006000Y-114427000D02*
X175641000Y-113792000D01*
X175006000Y-123952000D02*
X175006000Y-114427000D01*
X177546000Y-123952000D02*
X175006000Y-123952000D01*
X177546000Y-113792000D02*
X177546000Y-123952000D01*
X175641000Y-113792000D02*
X177546000Y-113792000D01*
%TO.C,J7*%
X171958000Y-114427000D02*
X172593000Y-113792000D01*
X171958000Y-123952000D02*
X171958000Y-114427000D01*
X174498000Y-123952000D02*
X171958000Y-123952000D01*
X174498000Y-113792000D02*
X174498000Y-123952000D01*
X172593000Y-113792000D02*
X174498000Y-113792000D01*
%TO.C,J6*%
X121412000Y-113919000D02*
X122047000Y-113284000D01*
X121412000Y-123444000D02*
X121412000Y-113919000D01*
X123952000Y-123444000D02*
X121412000Y-123444000D01*
X123952000Y-113284000D02*
X123952000Y-123444000D01*
X122047000Y-113284000D02*
X123952000Y-113284000D01*
%TO.C,J5*%
X124460000Y-113919000D02*
X125095000Y-113284000D01*
X124460000Y-123444000D02*
X124460000Y-113919000D01*
X127000000Y-123444000D02*
X124460000Y-123444000D01*
X127000000Y-113284000D02*
X127000000Y-123444000D01*
X125095000Y-113284000D02*
X127000000Y-113284000D01*
%TO.C,J4*%
X130556000Y-113919000D02*
X131191000Y-113284000D01*
X130556000Y-123444000D02*
X130556000Y-113919000D01*
X133096000Y-123444000D02*
X130556000Y-123444000D01*
X133096000Y-113284000D02*
X133096000Y-123444000D01*
X131191000Y-113284000D02*
X133096000Y-113284000D01*
%TO.C,J3*%
X127508000Y-113919000D02*
X128143000Y-113284000D01*
X127508000Y-123444000D02*
X127508000Y-113919000D01*
X130048000Y-123444000D02*
X127508000Y-123444000D01*
X130048000Y-113284000D02*
X130048000Y-123444000D01*
X128143000Y-113284000D02*
X130048000Y-113284000D01*
%TO.C,U15*%
X100441000Y-60706000D02*
X105791000Y-60706000D01*
X105791000Y-60706000D02*
X105791000Y-78486000D01*
X105791000Y-78486000D02*
X99441000Y-78486000D01*
X99441000Y-78486000D02*
X99441000Y-61706000D01*
X99441000Y-61706000D02*
X100441000Y-60706000D01*
%TO.C,U14*%
X100695000Y-39878000D02*
X106045000Y-39878000D01*
X106045000Y-39878000D02*
X106045000Y-57658000D01*
X106045000Y-57658000D02*
X99695000Y-57658000D01*
X99695000Y-57658000D02*
X99695000Y-40878000D01*
X99695000Y-40878000D02*
X100695000Y-39878000D01*
%TO.C,R6*%
X109494000Y-132690000D02*
X111994000Y-132690000D01*
X111994000Y-132690000D02*
X111994000Y-126390000D01*
X111994000Y-126390000D02*
X109494000Y-126390000D01*
X109494000Y-126390000D02*
X109494000Y-132690000D01*
X110744000Y-134620000D02*
X110744000Y-132690000D01*
X110744000Y-124460000D02*
X110744000Y-126390000D01*
%TO.C,R5*%
X185014000Y-50272000D02*
X185014000Y-47772000D01*
X185014000Y-47772000D02*
X178714000Y-47772000D01*
X178714000Y-47772000D02*
X178714000Y-50272000D01*
X178714000Y-50272000D02*
X185014000Y-50272000D01*
X186944000Y-49022000D02*
X185014000Y-49022000D01*
X176784000Y-49022000D02*
X178714000Y-49022000D01*
%TO.C,C20*%
X203904000Y-85886000D02*
X203904000Y-83786000D01*
X203904000Y-83786000D02*
X200504000Y-83786000D01*
X200504000Y-83786000D02*
X200504000Y-85886000D01*
X200504000Y-85886000D02*
X203904000Y-85886000D01*
%TO.C,C19*%
X152688000Y-101404000D02*
X150588000Y-101404000D01*
X150588000Y-101404000D02*
X150588000Y-104804000D01*
X150588000Y-104804000D02*
X152688000Y-104804000D01*
X152688000Y-104804000D02*
X152688000Y-101404000D01*
%TO.C,C18*%
X204158000Y-64804000D02*
X204158000Y-62704000D01*
X204158000Y-62704000D02*
X200758000Y-62704000D01*
X200758000Y-62704000D02*
X200758000Y-64804000D01*
X200758000Y-64804000D02*
X204158000Y-64804000D01*
%TO.C,C17*%
X173262000Y-101150000D02*
X171162000Y-101150000D01*
X171162000Y-101150000D02*
X171162000Y-104550000D01*
X171162000Y-104550000D02*
X173262000Y-104550000D01*
X173262000Y-104550000D02*
X173262000Y-101150000D01*
%TO.C,C16*%
X101796000Y-104936000D02*
X101796000Y-102836000D01*
X101796000Y-102836000D02*
X98396000Y-102836000D01*
X98396000Y-102836000D02*
X98396000Y-104936000D01*
X98396000Y-104936000D02*
X101796000Y-104936000D01*
%TO.C,C15*%
X147354000Y-68638000D02*
X145254000Y-68638000D01*
X145254000Y-68638000D02*
X145254000Y-72038000D01*
X145254000Y-72038000D02*
X147354000Y-72038000D01*
X147354000Y-72038000D02*
X147354000Y-68638000D01*
%TO.C,C14*%
X147354000Y-84386000D02*
X145254000Y-84386000D01*
X145254000Y-84386000D02*
X145254000Y-87786000D01*
X145254000Y-87786000D02*
X147354000Y-87786000D01*
X147354000Y-87786000D02*
X147354000Y-84386000D01*
%TO.C,C13*%
X102050000Y-60232000D02*
X102050000Y-58132000D01*
X102050000Y-58132000D02*
X98650000Y-58132000D01*
X98650000Y-58132000D02*
X98650000Y-60232000D01*
X98650000Y-60232000D02*
X102050000Y-60232000D01*
%TO.C,C4*%
X101542000Y-80552000D02*
X101542000Y-78452000D01*
X101542000Y-78452000D02*
X98142000Y-78452000D01*
X98142000Y-78452000D02*
X98142000Y-80552000D01*
X98142000Y-80552000D02*
X101542000Y-80552000D01*
%TO.C,C1*%
X147608000Y-52382000D02*
X145508000Y-52382000D01*
X145508000Y-52382000D02*
X145508000Y-55782000D01*
X145508000Y-55782000D02*
X147608000Y-55782000D01*
X147608000Y-55782000D02*
X147608000Y-52382000D01*
%TO.C,U13*%
X120634000Y-86741000D02*
X119634000Y-85741000D01*
X145034000Y-86741000D02*
X120634000Y-86741000D01*
X145034000Y-80391000D02*
X145034000Y-86741000D01*
X119634000Y-80391000D02*
X145034000Y-80391000D01*
X119634000Y-85741000D02*
X119634000Y-80391000D01*
%TO.C,U12*%
X196469000Y-87614000D02*
X197469000Y-86614000D01*
X196469000Y-104394000D02*
X196469000Y-87614000D01*
X202819000Y-104394000D02*
X196469000Y-104394000D01*
X202819000Y-86614000D02*
X202819000Y-104394000D01*
X197469000Y-86614000D02*
X202819000Y-86614000D01*
%TO.C,U11*%
X196723000Y-66024000D02*
X197723000Y-65024000D01*
X196723000Y-82804000D02*
X196723000Y-66024000D01*
X203073000Y-82804000D02*
X196723000Y-82804000D01*
X203073000Y-65024000D02*
X203073000Y-82804000D01*
X197723000Y-65024000D02*
X203073000Y-65024000D01*
%TO.C,U10*%
X114030000Y-104013000D02*
X113030000Y-103013000D01*
X130810000Y-104013000D02*
X114030000Y-104013000D01*
X130810000Y-97663000D02*
X130810000Y-104013000D01*
X113030000Y-97663000D02*
X130810000Y-97663000D01*
X113030000Y-103013000D02*
X113030000Y-97663000D01*
%TO.C,U9*%
X120634000Y-70739000D02*
X119634000Y-69739000D01*
X145034000Y-70739000D02*
X120634000Y-70739000D01*
X145034000Y-64389000D02*
X145034000Y-70739000D01*
X119634000Y-64389000D02*
X145034000Y-64389000D01*
X119634000Y-69739000D02*
X119634000Y-64389000D01*
%TO.C,R4*%
X168148000Y-90424000D02*
X170078000Y-90424000D01*
X178308000Y-90424000D02*
X176378000Y-90424000D01*
X170078000Y-91674000D02*
X176378000Y-91674000D01*
X170078000Y-89174000D02*
X170078000Y-91674000D01*
X176378000Y-89174000D02*
X170078000Y-89174000D01*
X176378000Y-91674000D02*
X176378000Y-89174000D01*
%TO.C,R3*%
X168148000Y-93218000D02*
X170078000Y-93218000D01*
X178308000Y-93218000D02*
X176378000Y-93218000D01*
X170078000Y-94468000D02*
X176378000Y-94468000D01*
X170078000Y-91968000D02*
X170078000Y-94468000D01*
X176378000Y-91968000D02*
X170078000Y-91968000D01*
X176378000Y-94468000D02*
X176378000Y-91968000D01*
%TO.C,R2*%
X188468000Y-100838000D02*
X186538000Y-100838000D01*
X178308000Y-100838000D02*
X180238000Y-100838000D01*
X186538000Y-99588000D02*
X180238000Y-99588000D01*
X186538000Y-102088000D02*
X186538000Y-99588000D01*
X180238000Y-102088000D02*
X186538000Y-102088000D01*
X180238000Y-99588000D02*
X180238000Y-102088000D01*
%TO.C,C12*%
X164372000Y-76610000D02*
X164372000Y-73210000D01*
X162272000Y-76610000D02*
X164372000Y-76610000D01*
X162272000Y-73210000D02*
X162272000Y-76610000D01*
X164372000Y-73210000D02*
X162272000Y-73210000D01*
%TO.C,C11*%
X190720000Y-90268000D02*
X190720000Y-93668000D01*
X192820000Y-90268000D02*
X190720000Y-90268000D01*
X192820000Y-93668000D02*
X192820000Y-90268000D01*
X190720000Y-93668000D02*
X192820000Y-93668000D01*
%TO.C,U5*%
X99695000Y-83042000D02*
X100695000Y-82042000D01*
X99695000Y-102362000D02*
X99695000Y-83042000D01*
X106045000Y-102362000D02*
X99695000Y-102362000D01*
X106045000Y-82042000D02*
X106045000Y-102362000D01*
X100695000Y-82042000D02*
X106045000Y-82042000D01*
%TO.C,U4*%
X120888000Y-54737000D02*
X119888000Y-53737000D01*
X145288000Y-54737000D02*
X120888000Y-54737000D01*
X145288000Y-48387000D02*
X145288000Y-54737000D01*
X119888000Y-48387000D02*
X145288000Y-48387000D01*
X119888000Y-53737000D02*
X119888000Y-48387000D01*
%TO.C,U3*%
X153908000Y-103505000D02*
X152908000Y-102505000D01*
X170688000Y-103505000D02*
X153908000Y-103505000D01*
X170688000Y-97155000D02*
X170688000Y-103505000D01*
X152908000Y-97155000D02*
X170688000Y-97155000D01*
X152908000Y-102505000D02*
X152908000Y-97155000D01*
%TO.C,U2*%
X102092000Y-116205000D02*
X101092000Y-115205000D01*
X118872000Y-116205000D02*
X102092000Y-116205000D01*
X118872000Y-109855000D02*
X118872000Y-116205000D01*
X101092000Y-109855000D02*
X118872000Y-109855000D01*
X101092000Y-115205000D02*
X101092000Y-109855000D01*
%TO.C,U1*%
X175498000Y-103759000D02*
X174498000Y-102759000D01*
X192278000Y-103759000D02*
X175498000Y-103759000D01*
X192278000Y-97409000D02*
X192278000Y-103759000D01*
X174498000Y-97409000D02*
X192278000Y-97409000D01*
X174498000Y-102759000D02*
X174498000Y-97409000D01*
%TO.C,R1*%
X186944000Y-52070000D02*
X185014000Y-52070000D01*
X176784000Y-52070000D02*
X178714000Y-52070000D01*
X185014000Y-50820000D02*
X178714000Y-50820000D01*
X185014000Y-53320000D02*
X185014000Y-50820000D01*
X178714000Y-53320000D02*
X185014000Y-53320000D01*
X178714000Y-50820000D02*
X178714000Y-53320000D01*
%TO.C,J2*%
X142418000Y-137032000D02*
X142418000Y-127912000D01*
X139218000Y-137032000D02*
X139218000Y-127912000D01*
X117418000Y-137032000D02*
X117418000Y-127912000D01*
X114218000Y-137032000D02*
X114218000Y-127912000D01*
X143318000Y-137432000D02*
X138318000Y-137432000D01*
X143318000Y-142432000D02*
X143318000Y-137432000D01*
X138318000Y-142432000D02*
X143318000Y-142432000D01*
X138318000Y-137432000D02*
X138318000Y-142432000D01*
X118318000Y-137432000D02*
X113318000Y-137432000D01*
X118318000Y-142432000D02*
X118318000Y-137432000D01*
X113318000Y-142432000D02*
X118318000Y-142432000D01*
X113318000Y-137432000D02*
X113318000Y-142432000D01*
X136468000Y-137432000D02*
X120168000Y-137432000D01*
X136468000Y-143602000D02*
X136468000Y-137432000D01*
X120168000Y-143602000D02*
X136468000Y-143602000D01*
X120168000Y-137432000D02*
X120168000Y-143602000D01*
X143743000Y-137032000D02*
X112893000Y-137032000D01*
X143743000Y-137432000D02*
X143743000Y-137032000D01*
X112893000Y-137432000D02*
X143743000Y-137432000D01*
X112893000Y-137032000D02*
X112893000Y-137432000D01*
X143743000Y-124692000D02*
X112893000Y-124692000D01*
X143743000Y-137032000D02*
X143743000Y-124692000D01*
X112893000Y-137032000D02*
X143743000Y-137032000D01*
X112893000Y-124692000D02*
X112893000Y-137032000D01*
X142418000Y-127912000D02*
G75*
G03*
X139218000Y-127912000I-1600000J0D01*
G01*
X117418000Y-127912000D02*
G75*
G03*
X114218000Y-127912000I-1600000J0D01*
G01*
%TO.C,J1*%
X187376000Y-137286000D02*
X187376000Y-128166000D01*
X184176000Y-137286000D02*
X184176000Y-128166000D01*
X162376000Y-137286000D02*
X162376000Y-128166000D01*
X159176000Y-137286000D02*
X159176000Y-128166000D01*
X188276000Y-137686000D02*
X183276000Y-137686000D01*
X188276000Y-142686000D02*
X188276000Y-137686000D01*
X183276000Y-142686000D02*
X188276000Y-142686000D01*
X183276000Y-137686000D02*
X183276000Y-142686000D01*
X163276000Y-137686000D02*
X158276000Y-137686000D01*
X163276000Y-142686000D02*
X163276000Y-137686000D01*
X158276000Y-142686000D02*
X163276000Y-142686000D01*
X158276000Y-137686000D02*
X158276000Y-142686000D01*
X181426000Y-137686000D02*
X165126000Y-137686000D01*
X181426000Y-143856000D02*
X181426000Y-137686000D01*
X165126000Y-143856000D02*
X181426000Y-143856000D01*
X165126000Y-137686000D02*
X165126000Y-143856000D01*
X188701000Y-137286000D02*
X157851000Y-137286000D01*
X188701000Y-137686000D02*
X188701000Y-137286000D01*
X157851000Y-137686000D02*
X188701000Y-137686000D01*
X157851000Y-137286000D02*
X157851000Y-137686000D01*
X188701000Y-124946000D02*
X157851000Y-124946000D01*
X188701000Y-137286000D02*
X188701000Y-124946000D01*
X157851000Y-137286000D02*
X188701000Y-137286000D01*
X157851000Y-124946000D02*
X157851000Y-137286000D01*
X187376000Y-128166000D02*
G75*
G03*
X184176000Y-128166000I-1600000J0D01*
G01*
X162376000Y-128166000D02*
G75*
G03*
X159176000Y-128166000I-1600000J0D01*
G01*
%TO.C,IC2*%
X152892000Y-82803000D02*
X151892000Y-81803000D01*
X187452000Y-82803000D02*
X152892000Y-82803000D01*
X187452000Y-68073000D02*
X187452000Y-82803000D01*
X151892000Y-68073000D02*
X187452000Y-68073000D01*
X151892000Y-81803000D02*
X151892000Y-68073000D01*
%TO.C,IC1*%
X152892000Y-57403000D02*
X151892000Y-56403000D01*
X202692000Y-57403000D02*
X152892000Y-57403000D01*
X202692000Y-42673000D02*
X202692000Y-57403000D01*
X151892000Y-42673000D02*
X202692000Y-42673000D01*
X151892000Y-56403000D02*
X151892000Y-42673000D01*
%TO.C,D1*%
X102910000Y-125784306D02*
X102910000Y-128723694D01*
X107910000Y-127254000D02*
G75*
G03*
X107910000Y-127254000I-2500000J0D01*
G01*
X102909984Y-128723666D02*
G75*
G03*
X102910000Y-125784306I2500016J1469666D01*
G01*
%TO.C,C2*%
X101916233Y-34524500D02*
X101916233Y-33774500D01*
X102291233Y-34149500D02*
X101541233Y-34149500D01*
X102830000Y-32512000D02*
G75*
G03*
X102830000Y-32512000I-3750000J0D01*
G01*
%TD*%
%TO.C,U8*%
D11*
X151134380Y-102972857D02*
X151134380Y-102306190D01*
X152134380Y-102734761D01*
X151467714Y-101496666D02*
X152134380Y-101496666D01*
X151086761Y-101734761D02*
X151801047Y-101972857D01*
X151801047Y-101353809D01*
X152134380Y-100496666D02*
X152134380Y-100972857D01*
X151134380Y-100972857D01*
X152086761Y-100210952D02*
X152134380Y-100068095D01*
X152134380Y-99830000D01*
X152086761Y-99734761D01*
X152039142Y-99687142D01*
X151943904Y-99639523D01*
X151848666Y-99639523D01*
X151753428Y-99687142D01*
X151705809Y-99734761D01*
X151658190Y-99830000D01*
X151610571Y-100020476D01*
X151562952Y-100115714D01*
X151515333Y-100163333D01*
X151420095Y-100210952D01*
X151324857Y-100210952D01*
X151229619Y-100163333D01*
X151182000Y-100115714D01*
X151134380Y-100020476D01*
X151134380Y-99782380D01*
X151182000Y-99639523D01*
X152134380Y-98687142D02*
X152134380Y-99258571D01*
X152134380Y-98972857D02*
X151134380Y-98972857D01*
X151277238Y-99068095D01*
X151372476Y-99163333D01*
X151420095Y-99258571D01*
X151134380Y-98068095D02*
X151134380Y-97972857D01*
X151182000Y-97877619D01*
X151229619Y-97830000D01*
X151324857Y-97782380D01*
X151515333Y-97734761D01*
X151753428Y-97734761D01*
X151943904Y-97782380D01*
X152039142Y-97830000D01*
X152086761Y-97877619D01*
X152134380Y-97972857D01*
X152134380Y-98068095D01*
X152086761Y-98163333D01*
X152039142Y-98210952D01*
X151943904Y-98258571D01*
X151753428Y-98306190D01*
X151515333Y-98306190D01*
X151324857Y-98258571D01*
X151229619Y-98210952D01*
X151182000Y-98163333D01*
X151134380Y-98068095D01*
X141184380Y-101091904D02*
X141993904Y-101091904D01*
X142089142Y-101044285D01*
X142136761Y-100996666D01*
X142184380Y-100901428D01*
X142184380Y-100710952D01*
X142136761Y-100615714D01*
X142089142Y-100568095D01*
X141993904Y-100520476D01*
X141184380Y-100520476D01*
X141612952Y-99901428D02*
X141565333Y-99996666D01*
X141517714Y-100044285D01*
X141422476Y-100091904D01*
X141374857Y-100091904D01*
X141279619Y-100044285D01*
X141232000Y-99996666D01*
X141184380Y-99901428D01*
X141184380Y-99710952D01*
X141232000Y-99615714D01*
X141279619Y-99568095D01*
X141374857Y-99520476D01*
X141422476Y-99520476D01*
X141517714Y-99568095D01*
X141565333Y-99615714D01*
X141612952Y-99710952D01*
X141612952Y-99901428D01*
X141660571Y-99996666D01*
X141708190Y-100044285D01*
X141803428Y-100091904D01*
X141993904Y-100091904D01*
X142089142Y-100044285D01*
X142136761Y-99996666D01*
X142184380Y-99901428D01*
X142184380Y-99710952D01*
X142136761Y-99615714D01*
X142089142Y-99568095D01*
X141993904Y-99520476D01*
X141803428Y-99520476D01*
X141708190Y-99568095D01*
X141660571Y-99615714D01*
X141612952Y-99710952D01*
%TO.C,J10*%
X165512952Y-125464380D02*
X165512952Y-124464380D01*
X165751047Y-124464380D01*
X165893904Y-124512000D01*
X165989142Y-124607238D01*
X166036761Y-124702476D01*
X166084380Y-124892952D01*
X166084380Y-125035809D01*
X166036761Y-125226285D01*
X165989142Y-125321523D01*
X165893904Y-125416761D01*
X165751047Y-125464380D01*
X165512952Y-125464380D01*
X166370095Y-124464380D02*
X166941523Y-124464380D01*
X166655809Y-125464380D02*
X166655809Y-124464380D01*
X167846285Y-125464380D02*
X167512952Y-124988190D01*
X167274857Y-125464380D02*
X167274857Y-124464380D01*
X167655809Y-124464380D01*
X167751047Y-124512000D01*
X167798666Y-124559619D01*
X167846285Y-124654857D01*
X167846285Y-124797714D01*
X167798666Y-124892952D01*
X167751047Y-124940571D01*
X167655809Y-124988190D01*
X167274857Y-124988190D01*
X168798666Y-125464380D02*
X168227238Y-125464380D01*
X168512952Y-125464380D02*
X168512952Y-124464380D01*
X168417714Y-124607238D01*
X168322476Y-124702476D01*
X168227238Y-124750095D01*
X166584380Y-119681523D02*
X167298666Y-119681523D01*
X167441523Y-119729142D01*
X167536761Y-119824380D01*
X167584380Y-119967238D01*
X167584380Y-120062476D01*
X167584380Y-118681523D02*
X167584380Y-119252952D01*
X167584380Y-118967238D02*
X166584380Y-118967238D01*
X166727238Y-119062476D01*
X166822476Y-119157714D01*
X166870095Y-119252952D01*
X166584380Y-118062476D02*
X166584380Y-117967238D01*
X166632000Y-117872000D01*
X166679619Y-117824380D01*
X166774857Y-117776761D01*
X166965333Y-117729142D01*
X167203428Y-117729142D01*
X167393904Y-117776761D01*
X167489142Y-117824380D01*
X167536761Y-117872000D01*
X167584380Y-117967238D01*
X167584380Y-118062476D01*
X167536761Y-118157714D01*
X167489142Y-118205333D01*
X167393904Y-118252952D01*
X167203428Y-118300571D01*
X166965333Y-118300571D01*
X166774857Y-118252952D01*
X166679619Y-118205333D01*
X166632000Y-118157714D01*
X166584380Y-118062476D01*
%TO.C,J9*%
X169156190Y-125369142D02*
X169108571Y-125416761D01*
X168965714Y-125464380D01*
X168870476Y-125464380D01*
X168727619Y-125416761D01*
X168632380Y-125321523D01*
X168584761Y-125226285D01*
X168537142Y-125035809D01*
X168537142Y-124892952D01*
X168584761Y-124702476D01*
X168632380Y-124607238D01*
X168727619Y-124512000D01*
X168870476Y-124464380D01*
X168965714Y-124464380D01*
X169108571Y-124512000D01*
X169156190Y-124559619D01*
X169441904Y-124464380D02*
X170013333Y-124464380D01*
X169727619Y-125464380D02*
X169727619Y-124464380D01*
X170299047Y-125416761D02*
X170441904Y-125464380D01*
X170680000Y-125464380D01*
X170775238Y-125416761D01*
X170822857Y-125369142D01*
X170870476Y-125273904D01*
X170870476Y-125178666D01*
X170822857Y-125083428D01*
X170775238Y-125035809D01*
X170680000Y-124988190D01*
X170489523Y-124940571D01*
X170394285Y-124892952D01*
X170346666Y-124845333D01*
X170299047Y-124750095D01*
X170299047Y-124654857D01*
X170346666Y-124559619D01*
X170394285Y-124512000D01*
X170489523Y-124464380D01*
X170727619Y-124464380D01*
X170870476Y-124512000D01*
X171822857Y-125464380D02*
X171251428Y-125464380D01*
X171537142Y-125464380D02*
X171537142Y-124464380D01*
X171441904Y-124607238D01*
X171346666Y-124702476D01*
X171251428Y-124750095D01*
X169632380Y-119205333D02*
X170346666Y-119205333D01*
X170489523Y-119252952D01*
X170584761Y-119348190D01*
X170632380Y-119491047D01*
X170632380Y-119586285D01*
X170632380Y-118681523D02*
X170632380Y-118491047D01*
X170584761Y-118395809D01*
X170537142Y-118348190D01*
X170394285Y-118252952D01*
X170203809Y-118205333D01*
X169822857Y-118205333D01*
X169727619Y-118252952D01*
X169680000Y-118300571D01*
X169632380Y-118395809D01*
X169632380Y-118586285D01*
X169680000Y-118681523D01*
X169727619Y-118729142D01*
X169822857Y-118776761D01*
X170060952Y-118776761D01*
X170156190Y-118729142D01*
X170203809Y-118681523D01*
X170251428Y-118586285D01*
X170251428Y-118395809D01*
X170203809Y-118300571D01*
X170156190Y-118252952D01*
X170060952Y-118205333D01*
%TO.C,J8*%
X175204571Y-125464380D02*
X174871238Y-124988190D01*
X174633142Y-125464380D02*
X174633142Y-124464380D01*
X175014095Y-124464380D01*
X175109333Y-124512000D01*
X175156952Y-124559619D01*
X175204571Y-124654857D01*
X175204571Y-124797714D01*
X175156952Y-124892952D01*
X175109333Y-124940571D01*
X175014095Y-124988190D01*
X174633142Y-124988190D01*
X175537904Y-125464380D02*
X176061714Y-124797714D01*
X175537904Y-124797714D02*
X176061714Y-125464380D01*
X176442666Y-125464380D02*
X176442666Y-124464380D01*
X176680761Y-124464380D01*
X176823619Y-124512000D01*
X176918857Y-124607238D01*
X176966476Y-124702476D01*
X177014095Y-124892952D01*
X177014095Y-125035809D01*
X176966476Y-125226285D01*
X176918857Y-125321523D01*
X176823619Y-125416761D01*
X176680761Y-125464380D01*
X176442666Y-125464380D01*
X177966476Y-125464380D02*
X177395047Y-125464380D01*
X177680761Y-125464380D02*
X177680761Y-124464380D01*
X177585523Y-124607238D01*
X177490285Y-124702476D01*
X177395047Y-124750095D01*
X175728380Y-119205333D02*
X176442666Y-119205333D01*
X176585523Y-119252952D01*
X176680761Y-119348190D01*
X176728380Y-119491047D01*
X176728380Y-119586285D01*
X176156952Y-118586285D02*
X176109333Y-118681523D01*
X176061714Y-118729142D01*
X175966476Y-118776761D01*
X175918857Y-118776761D01*
X175823619Y-118729142D01*
X175776000Y-118681523D01*
X175728380Y-118586285D01*
X175728380Y-118395809D01*
X175776000Y-118300571D01*
X175823619Y-118252952D01*
X175918857Y-118205333D01*
X175966476Y-118205333D01*
X176061714Y-118252952D01*
X176109333Y-118300571D01*
X176156952Y-118395809D01*
X176156952Y-118586285D01*
X176204571Y-118681523D01*
X176252190Y-118729142D01*
X176347428Y-118776761D01*
X176537904Y-118776761D01*
X176633142Y-118729142D01*
X176680761Y-118681523D01*
X176728380Y-118586285D01*
X176728380Y-118395809D01*
X176680761Y-118300571D01*
X176633142Y-118252952D01*
X176537904Y-118205333D01*
X176347428Y-118205333D01*
X176252190Y-118252952D01*
X176204571Y-118300571D01*
X176156952Y-118395809D01*
%TO.C,J7*%
X171489904Y-124464380D02*
X172061333Y-124464380D01*
X171775619Y-125464380D02*
X171775619Y-124464380D01*
X172299428Y-124464380D02*
X172966095Y-125464380D01*
X172966095Y-124464380D02*
X172299428Y-125464380D01*
X173347047Y-125464380D02*
X173347047Y-124464380D01*
X173585142Y-124464380D01*
X173728000Y-124512000D01*
X173823238Y-124607238D01*
X173870857Y-124702476D01*
X173918476Y-124892952D01*
X173918476Y-125035809D01*
X173870857Y-125226285D01*
X173823238Y-125321523D01*
X173728000Y-125416761D01*
X173585142Y-125464380D01*
X173347047Y-125464380D01*
X174870857Y-125464380D02*
X174299428Y-125464380D01*
X174585142Y-125464380D02*
X174585142Y-124464380D01*
X174489904Y-124607238D01*
X174394666Y-124702476D01*
X174299428Y-124750095D01*
X172680380Y-119205333D02*
X173394666Y-119205333D01*
X173537523Y-119252952D01*
X173632761Y-119348190D01*
X173680380Y-119491047D01*
X173680380Y-119586285D01*
X172680380Y-118824380D02*
X172680380Y-118157714D01*
X173680380Y-118586285D01*
%TO.C,J6*%
X121062952Y-124956380D02*
X121062952Y-123956380D01*
X121301047Y-123956380D01*
X121443904Y-124004000D01*
X121539142Y-124099238D01*
X121586761Y-124194476D01*
X121634380Y-124384952D01*
X121634380Y-124527809D01*
X121586761Y-124718285D01*
X121539142Y-124813523D01*
X121443904Y-124908761D01*
X121301047Y-124956380D01*
X121062952Y-124956380D01*
X121920095Y-123956380D02*
X122491523Y-123956380D01*
X122205809Y-124956380D02*
X122205809Y-123956380D01*
X123396285Y-124956380D02*
X123062952Y-124480190D01*
X122824857Y-124956380D02*
X122824857Y-123956380D01*
X123205809Y-123956380D01*
X123301047Y-124004000D01*
X123348666Y-124051619D01*
X123396285Y-124146857D01*
X123396285Y-124289714D01*
X123348666Y-124384952D01*
X123301047Y-124432571D01*
X123205809Y-124480190D01*
X122824857Y-124480190D01*
X123777238Y-124051619D02*
X123824857Y-124004000D01*
X123920095Y-123956380D01*
X124158190Y-123956380D01*
X124253428Y-124004000D01*
X124301047Y-124051619D01*
X124348666Y-124146857D01*
X124348666Y-124242095D01*
X124301047Y-124384952D01*
X123729619Y-124956380D01*
X124348666Y-124956380D01*
X122134380Y-118697333D02*
X122848666Y-118697333D01*
X122991523Y-118744952D01*
X123086761Y-118840190D01*
X123134380Y-118983047D01*
X123134380Y-119078285D01*
X122134380Y-117792571D02*
X122134380Y-117983047D01*
X122182000Y-118078285D01*
X122229619Y-118125904D01*
X122372476Y-118221142D01*
X122562952Y-118268761D01*
X122943904Y-118268761D01*
X123039142Y-118221142D01*
X123086761Y-118173523D01*
X123134380Y-118078285D01*
X123134380Y-117887809D01*
X123086761Y-117792571D01*
X123039142Y-117744952D01*
X122943904Y-117697333D01*
X122705809Y-117697333D01*
X122610571Y-117744952D01*
X122562952Y-117792571D01*
X122515333Y-117887809D01*
X122515333Y-118078285D01*
X122562952Y-118173523D01*
X122610571Y-118221142D01*
X122705809Y-118268761D01*
%TO.C,J5*%
X124706190Y-124861142D02*
X124658571Y-124908761D01*
X124515714Y-124956380D01*
X124420476Y-124956380D01*
X124277619Y-124908761D01*
X124182380Y-124813523D01*
X124134761Y-124718285D01*
X124087142Y-124527809D01*
X124087142Y-124384952D01*
X124134761Y-124194476D01*
X124182380Y-124099238D01*
X124277619Y-124004000D01*
X124420476Y-123956380D01*
X124515714Y-123956380D01*
X124658571Y-124004000D01*
X124706190Y-124051619D01*
X124991904Y-123956380D02*
X125563333Y-123956380D01*
X125277619Y-124956380D02*
X125277619Y-123956380D01*
X125849047Y-124908761D02*
X125991904Y-124956380D01*
X126230000Y-124956380D01*
X126325238Y-124908761D01*
X126372857Y-124861142D01*
X126420476Y-124765904D01*
X126420476Y-124670666D01*
X126372857Y-124575428D01*
X126325238Y-124527809D01*
X126230000Y-124480190D01*
X126039523Y-124432571D01*
X125944285Y-124384952D01*
X125896666Y-124337333D01*
X125849047Y-124242095D01*
X125849047Y-124146857D01*
X125896666Y-124051619D01*
X125944285Y-124004000D01*
X126039523Y-123956380D01*
X126277619Y-123956380D01*
X126420476Y-124004000D01*
X126801428Y-124051619D02*
X126849047Y-124004000D01*
X126944285Y-123956380D01*
X127182380Y-123956380D01*
X127277619Y-124004000D01*
X127325238Y-124051619D01*
X127372857Y-124146857D01*
X127372857Y-124242095D01*
X127325238Y-124384952D01*
X126753809Y-124956380D01*
X127372857Y-124956380D01*
X125182380Y-118697333D02*
X125896666Y-118697333D01*
X126039523Y-118744952D01*
X126134761Y-118840190D01*
X126182380Y-118983047D01*
X126182380Y-119078285D01*
X125182380Y-117744952D02*
X125182380Y-118221142D01*
X125658571Y-118268761D01*
X125610952Y-118221142D01*
X125563333Y-118125904D01*
X125563333Y-117887809D01*
X125610952Y-117792571D01*
X125658571Y-117744952D01*
X125753809Y-117697333D01*
X125991904Y-117697333D01*
X126087142Y-117744952D01*
X126134761Y-117792571D01*
X126182380Y-117887809D01*
X126182380Y-118125904D01*
X126134761Y-118221142D01*
X126087142Y-118268761D01*
%TO.C,J4*%
X130754571Y-124956380D02*
X130421238Y-124480190D01*
X130183142Y-124956380D02*
X130183142Y-123956380D01*
X130564095Y-123956380D01*
X130659333Y-124004000D01*
X130706952Y-124051619D01*
X130754571Y-124146857D01*
X130754571Y-124289714D01*
X130706952Y-124384952D01*
X130659333Y-124432571D01*
X130564095Y-124480190D01*
X130183142Y-124480190D01*
X131087904Y-124956380D02*
X131611714Y-124289714D01*
X131087904Y-124289714D02*
X131611714Y-124956380D01*
X131992666Y-124956380D02*
X131992666Y-123956380D01*
X132230761Y-123956380D01*
X132373619Y-124004000D01*
X132468857Y-124099238D01*
X132516476Y-124194476D01*
X132564095Y-124384952D01*
X132564095Y-124527809D01*
X132516476Y-124718285D01*
X132468857Y-124813523D01*
X132373619Y-124908761D01*
X132230761Y-124956380D01*
X131992666Y-124956380D01*
X132945047Y-124051619D02*
X132992666Y-124004000D01*
X133087904Y-123956380D01*
X133326000Y-123956380D01*
X133421238Y-124004000D01*
X133468857Y-124051619D01*
X133516476Y-124146857D01*
X133516476Y-124242095D01*
X133468857Y-124384952D01*
X132897428Y-124956380D01*
X133516476Y-124956380D01*
X131278380Y-118697333D02*
X131992666Y-118697333D01*
X132135523Y-118744952D01*
X132230761Y-118840190D01*
X132278380Y-118983047D01*
X132278380Y-119078285D01*
X131611714Y-117792571D02*
X132278380Y-117792571D01*
X131230761Y-118030666D02*
X131945047Y-118268761D01*
X131945047Y-117649714D01*
%TO.C,J3*%
X127039904Y-123956380D02*
X127611333Y-123956380D01*
X127325619Y-124956380D02*
X127325619Y-123956380D01*
X127849428Y-123956380D02*
X128516095Y-124956380D01*
X128516095Y-123956380D02*
X127849428Y-124956380D01*
X128897047Y-124956380D02*
X128897047Y-123956380D01*
X129135142Y-123956380D01*
X129278000Y-124004000D01*
X129373238Y-124099238D01*
X129420857Y-124194476D01*
X129468476Y-124384952D01*
X129468476Y-124527809D01*
X129420857Y-124718285D01*
X129373238Y-124813523D01*
X129278000Y-124908761D01*
X129135142Y-124956380D01*
X128897047Y-124956380D01*
X129849428Y-124051619D02*
X129897047Y-124004000D01*
X129992285Y-123956380D01*
X130230380Y-123956380D01*
X130325619Y-124004000D01*
X130373238Y-124051619D01*
X130420857Y-124146857D01*
X130420857Y-124242095D01*
X130373238Y-124384952D01*
X129801809Y-124956380D01*
X130420857Y-124956380D01*
X128230380Y-118697333D02*
X128944666Y-118697333D01*
X129087523Y-118744952D01*
X129182761Y-118840190D01*
X129230380Y-118983047D01*
X129230380Y-119078285D01*
X128230380Y-118316380D02*
X128230380Y-117697333D01*
X128611333Y-118030666D01*
X128611333Y-117887809D01*
X128658952Y-117792571D01*
X128706571Y-117744952D01*
X128801809Y-117697333D01*
X129039904Y-117697333D01*
X129135142Y-117744952D01*
X129182761Y-117792571D01*
X129230380Y-117887809D01*
X129230380Y-118173523D01*
X129182761Y-118268761D01*
X129135142Y-118316380D01*
%TO.C,U15*%
X99973142Y-78998380D02*
X100639809Y-78998380D01*
X100211238Y-79998380D01*
X101449333Y-79331714D02*
X101449333Y-79998380D01*
X101211238Y-78950761D02*
X100973142Y-79665047D01*
X101592190Y-79665047D01*
X102449333Y-79998380D02*
X101973142Y-79998380D01*
X101973142Y-78998380D01*
X102735047Y-79950761D02*
X102877904Y-79998380D01*
X103116000Y-79998380D01*
X103211238Y-79950761D01*
X103258857Y-79903142D01*
X103306476Y-79807904D01*
X103306476Y-79712666D01*
X103258857Y-79617428D01*
X103211238Y-79569809D01*
X103116000Y-79522190D01*
X102925523Y-79474571D01*
X102830285Y-79426952D01*
X102782666Y-79379333D01*
X102735047Y-79284095D01*
X102735047Y-79188857D01*
X102782666Y-79093619D01*
X102830285Y-79046000D01*
X102925523Y-78998380D01*
X103163619Y-78998380D01*
X103306476Y-79046000D01*
X103925523Y-78998380D02*
X104020761Y-78998380D01*
X104116000Y-79046000D01*
X104163619Y-79093619D01*
X104211238Y-79188857D01*
X104258857Y-79379333D01*
X104258857Y-79617428D01*
X104211238Y-79807904D01*
X104163619Y-79903142D01*
X104116000Y-79950761D01*
X104020761Y-79998380D01*
X103925523Y-79998380D01*
X103830285Y-79950761D01*
X103782666Y-79903142D01*
X103735047Y-79807904D01*
X103687428Y-79617428D01*
X103687428Y-79379333D01*
X103735047Y-79188857D01*
X103782666Y-79093619D01*
X103830285Y-79046000D01*
X103925523Y-78998380D01*
X104830285Y-79426952D02*
X104735047Y-79379333D01*
X104687428Y-79331714D01*
X104639809Y-79236476D01*
X104639809Y-79188857D01*
X104687428Y-79093619D01*
X104735047Y-79046000D01*
X104830285Y-78998380D01*
X105020761Y-78998380D01*
X105116000Y-79046000D01*
X105163619Y-79093619D01*
X105211238Y-79188857D01*
X105211238Y-79236476D01*
X105163619Y-79331714D01*
X105116000Y-79379333D01*
X105020761Y-79426952D01*
X104830285Y-79426952D01*
X104735047Y-79474571D01*
X104687428Y-79522190D01*
X104639809Y-79617428D01*
X104639809Y-79807904D01*
X104687428Y-79903142D01*
X104735047Y-79950761D01*
X104830285Y-79998380D01*
X105020761Y-79998380D01*
X105116000Y-79950761D01*
X105163619Y-79903142D01*
X105211238Y-79807904D01*
X105211238Y-79617428D01*
X105163619Y-79522190D01*
X105116000Y-79474571D01*
X105020761Y-79426952D01*
X101377904Y-69048380D02*
X101377904Y-69857904D01*
X101425523Y-69953142D01*
X101473142Y-70000761D01*
X101568380Y-70048380D01*
X101758857Y-70048380D01*
X101854095Y-70000761D01*
X101901714Y-69953142D01*
X101949333Y-69857904D01*
X101949333Y-69048380D01*
X102949333Y-70048380D02*
X102377904Y-70048380D01*
X102663619Y-70048380D02*
X102663619Y-69048380D01*
X102568380Y-69191238D01*
X102473142Y-69286476D01*
X102377904Y-69334095D01*
X103854095Y-69048380D02*
X103377904Y-69048380D01*
X103330285Y-69524571D01*
X103377904Y-69476952D01*
X103473142Y-69429333D01*
X103711238Y-69429333D01*
X103806476Y-69476952D01*
X103854095Y-69524571D01*
X103901714Y-69619809D01*
X103901714Y-69857904D01*
X103854095Y-69953142D01*
X103806476Y-70000761D01*
X103711238Y-70048380D01*
X103473142Y-70048380D01*
X103377904Y-70000761D01*
X103330285Y-69953142D01*
%TO.C,U14*%
X100227142Y-58170380D02*
X100893809Y-58170380D01*
X100465238Y-59170380D01*
X101703333Y-58503714D02*
X101703333Y-59170380D01*
X101465238Y-58122761D02*
X101227142Y-58837047D01*
X101846190Y-58837047D01*
X102703333Y-59170380D02*
X102227142Y-59170380D01*
X102227142Y-58170380D01*
X102989047Y-59122761D02*
X103131904Y-59170380D01*
X103370000Y-59170380D01*
X103465238Y-59122761D01*
X103512857Y-59075142D01*
X103560476Y-58979904D01*
X103560476Y-58884666D01*
X103512857Y-58789428D01*
X103465238Y-58741809D01*
X103370000Y-58694190D01*
X103179523Y-58646571D01*
X103084285Y-58598952D01*
X103036666Y-58551333D01*
X102989047Y-58456095D01*
X102989047Y-58360857D01*
X103036666Y-58265619D01*
X103084285Y-58218000D01*
X103179523Y-58170380D01*
X103417619Y-58170380D01*
X103560476Y-58218000D01*
X104179523Y-58170380D02*
X104274761Y-58170380D01*
X104370000Y-58218000D01*
X104417619Y-58265619D01*
X104465238Y-58360857D01*
X104512857Y-58551333D01*
X104512857Y-58789428D01*
X104465238Y-58979904D01*
X104417619Y-59075142D01*
X104370000Y-59122761D01*
X104274761Y-59170380D01*
X104179523Y-59170380D01*
X104084285Y-59122761D01*
X104036666Y-59075142D01*
X103989047Y-58979904D01*
X103941428Y-58789428D01*
X103941428Y-58551333D01*
X103989047Y-58360857D01*
X104036666Y-58265619D01*
X104084285Y-58218000D01*
X104179523Y-58170380D01*
X105131904Y-58170380D02*
X105227142Y-58170380D01*
X105322380Y-58218000D01*
X105370000Y-58265619D01*
X105417619Y-58360857D01*
X105465238Y-58551333D01*
X105465238Y-58789428D01*
X105417619Y-58979904D01*
X105370000Y-59075142D01*
X105322380Y-59122761D01*
X105227142Y-59170380D01*
X105131904Y-59170380D01*
X105036666Y-59122761D01*
X104989047Y-59075142D01*
X104941428Y-58979904D01*
X104893809Y-58789428D01*
X104893809Y-58551333D01*
X104941428Y-58360857D01*
X104989047Y-58265619D01*
X105036666Y-58218000D01*
X105131904Y-58170380D01*
X101631904Y-48220380D02*
X101631904Y-49029904D01*
X101679523Y-49125142D01*
X101727142Y-49172761D01*
X101822380Y-49220380D01*
X102012857Y-49220380D01*
X102108095Y-49172761D01*
X102155714Y-49125142D01*
X102203333Y-49029904D01*
X102203333Y-48220380D01*
X103203333Y-49220380D02*
X102631904Y-49220380D01*
X102917619Y-49220380D02*
X102917619Y-48220380D01*
X102822380Y-48363238D01*
X102727142Y-48458476D01*
X102631904Y-48506095D01*
X104060476Y-48553714D02*
X104060476Y-49220380D01*
X103822380Y-48172761D02*
X103584285Y-48887047D01*
X104203333Y-48887047D01*
%TO.C,R6*%
X112566380Y-131325714D02*
X112566380Y-130706666D01*
X112947333Y-131040000D01*
X112947333Y-130897142D01*
X112994952Y-130801904D01*
X113042571Y-130754285D01*
X113137809Y-130706666D01*
X113375904Y-130706666D01*
X113471142Y-130754285D01*
X113518761Y-130801904D01*
X113566380Y-130897142D01*
X113566380Y-131182857D01*
X113518761Y-131278095D01*
X113471142Y-131325714D01*
X113566380Y-130230476D02*
X113566380Y-130040000D01*
X113518761Y-129944761D01*
X113471142Y-129897142D01*
X113328285Y-129801904D01*
X113137809Y-129754285D01*
X112756857Y-129754285D01*
X112661619Y-129801904D01*
X112614000Y-129849523D01*
X112566380Y-129944761D01*
X112566380Y-130135238D01*
X112614000Y-130230476D01*
X112661619Y-130278095D01*
X112756857Y-130325714D01*
X112994952Y-130325714D01*
X113090190Y-130278095D01*
X113137809Y-130230476D01*
X113185428Y-130135238D01*
X113185428Y-129944761D01*
X113137809Y-129849523D01*
X113090190Y-129801904D01*
X112994952Y-129754285D01*
X112566380Y-129135238D02*
X112566380Y-129040000D01*
X112614000Y-128944761D01*
X112661619Y-128897142D01*
X112756857Y-128849523D01*
X112947333Y-128801904D01*
X113185428Y-128801904D01*
X113375904Y-128849523D01*
X113471142Y-128897142D01*
X113518761Y-128944761D01*
X113566380Y-129040000D01*
X113566380Y-129135238D01*
X113518761Y-129230476D01*
X113471142Y-129278095D01*
X113375904Y-129325714D01*
X113185428Y-129373333D01*
X112947333Y-129373333D01*
X112756857Y-129325714D01*
X112661619Y-129278095D01*
X112614000Y-129230476D01*
X112566380Y-129135238D01*
X113566380Y-127801904D02*
X113090190Y-128135238D01*
X113566380Y-128373333D02*
X112566380Y-128373333D01*
X112566380Y-127992380D01*
X112614000Y-127897142D01*
X112661619Y-127849523D01*
X112756857Y-127801904D01*
X112899714Y-127801904D01*
X112994952Y-127849523D01*
X113042571Y-127897142D01*
X113090190Y-127992380D01*
X113090190Y-128373333D01*
X111196380Y-129706666D02*
X110720190Y-130040000D01*
X111196380Y-130278095D02*
X110196380Y-130278095D01*
X110196380Y-129897142D01*
X110244000Y-129801904D01*
X110291619Y-129754285D01*
X110386857Y-129706666D01*
X110529714Y-129706666D01*
X110624952Y-129754285D01*
X110672571Y-129801904D01*
X110720190Y-129897142D01*
X110720190Y-130278095D01*
X110196380Y-128849523D02*
X110196380Y-129040000D01*
X110244000Y-129135238D01*
X110291619Y-129182857D01*
X110434476Y-129278095D01*
X110624952Y-129325714D01*
X111005904Y-129325714D01*
X111101142Y-129278095D01*
X111148761Y-129230476D01*
X111196380Y-129135238D01*
X111196380Y-128944761D01*
X111148761Y-128849523D01*
X111101142Y-128801904D01*
X111005904Y-128754285D01*
X110767809Y-128754285D01*
X110672571Y-128801904D01*
X110624952Y-128849523D01*
X110577333Y-128944761D01*
X110577333Y-129135238D01*
X110624952Y-129230476D01*
X110672571Y-129278095D01*
X110767809Y-129325714D01*
%TO.C,R5*%
X180602095Y-46199619D02*
X180649714Y-46152000D01*
X180744952Y-46104380D01*
X180983047Y-46104380D01*
X181078285Y-46152000D01*
X181125904Y-46199619D01*
X181173523Y-46294857D01*
X181173523Y-46390095D01*
X181125904Y-46532952D01*
X180554476Y-47104380D01*
X181173523Y-47104380D01*
X181602095Y-47104380D02*
X181602095Y-46104380D01*
X182173523Y-47104380D02*
X181744952Y-46532952D01*
X182173523Y-46104380D02*
X181602095Y-46675809D01*
X182554476Y-46199619D02*
X182602095Y-46152000D01*
X182697333Y-46104380D01*
X182935428Y-46104380D01*
X183030666Y-46152000D01*
X183078285Y-46199619D01*
X183125904Y-46294857D01*
X183125904Y-46390095D01*
X183078285Y-46532952D01*
X182506857Y-47104380D01*
X183125904Y-47104380D01*
X181697333Y-49474380D02*
X181364000Y-48998190D01*
X181125904Y-49474380D02*
X181125904Y-48474380D01*
X181506857Y-48474380D01*
X181602095Y-48522000D01*
X181649714Y-48569619D01*
X181697333Y-48664857D01*
X181697333Y-48807714D01*
X181649714Y-48902952D01*
X181602095Y-48950571D01*
X181506857Y-48998190D01*
X181125904Y-48998190D01*
X182602095Y-48474380D02*
X182125904Y-48474380D01*
X182078285Y-48950571D01*
X182125904Y-48902952D01*
X182221142Y-48855333D01*
X182459238Y-48855333D01*
X182554476Y-48902952D01*
X182602095Y-48950571D01*
X182649714Y-49045809D01*
X182649714Y-49283904D01*
X182602095Y-49379142D01*
X182554476Y-49426761D01*
X182459238Y-49474380D01*
X182221142Y-49474380D01*
X182125904Y-49426761D01*
X182078285Y-49379142D01*
%TO.C,C20*%
X200561142Y-82083619D02*
X200608761Y-82036000D01*
X200704000Y-81988380D01*
X200942095Y-81988380D01*
X201037333Y-82036000D01*
X201084952Y-82083619D01*
X201132571Y-82178857D01*
X201132571Y-82274095D01*
X201084952Y-82416952D01*
X200513523Y-82988380D01*
X201132571Y-82988380D01*
X201513523Y-82083619D02*
X201561142Y-82036000D01*
X201656380Y-81988380D01*
X201894476Y-81988380D01*
X201989714Y-82036000D01*
X202037333Y-82083619D01*
X202084952Y-82178857D01*
X202084952Y-82274095D01*
X202037333Y-82416952D01*
X201465904Y-82988380D01*
X202084952Y-82988380D01*
X202513523Y-82321714D02*
X202513523Y-82988380D01*
X202513523Y-82416952D02*
X202561142Y-82369333D01*
X202656380Y-82321714D01*
X202799238Y-82321714D01*
X202894476Y-82369333D01*
X202942095Y-82464571D01*
X202942095Y-82988380D01*
X203751619Y-82464571D02*
X203418285Y-82464571D01*
X203418285Y-82988380D02*
X203418285Y-81988380D01*
X203894476Y-81988380D01*
D12*
X201766857Y-85078857D02*
X201734476Y-85111238D01*
X201637333Y-85143619D01*
X201572571Y-85143619D01*
X201475428Y-85111238D01*
X201410666Y-85046476D01*
X201378285Y-84981714D01*
X201345904Y-84852190D01*
X201345904Y-84755047D01*
X201378285Y-84625523D01*
X201410666Y-84560761D01*
X201475428Y-84496000D01*
X201572571Y-84463619D01*
X201637333Y-84463619D01*
X201734476Y-84496000D01*
X201766857Y-84528380D01*
X202025904Y-84528380D02*
X202058285Y-84496000D01*
X202123047Y-84463619D01*
X202284952Y-84463619D01*
X202349714Y-84496000D01*
X202382095Y-84528380D01*
X202414476Y-84593142D01*
X202414476Y-84657904D01*
X202382095Y-84755047D01*
X201993523Y-85143619D01*
X202414476Y-85143619D01*
X202835428Y-84463619D02*
X202900190Y-84463619D01*
X202964952Y-84496000D01*
X202997333Y-84528380D01*
X203029714Y-84593142D01*
X203062095Y-84722666D01*
X203062095Y-84884571D01*
X203029714Y-85014095D01*
X202997333Y-85078857D01*
X202964952Y-85111238D01*
X202900190Y-85143619D01*
X202835428Y-85143619D01*
X202770666Y-85111238D01*
X202738285Y-85078857D01*
X202705904Y-85014095D01*
X202673523Y-84884571D01*
X202673523Y-84722666D01*
X202705904Y-84593142D01*
X202738285Y-84528380D01*
X202770666Y-84496000D01*
X202835428Y-84463619D01*
%TO.C,C19*%
D11*
X148885619Y-104746857D02*
X148838000Y-104699238D01*
X148790380Y-104604000D01*
X148790380Y-104365904D01*
X148838000Y-104270666D01*
X148885619Y-104223047D01*
X148980857Y-104175428D01*
X149076095Y-104175428D01*
X149218952Y-104223047D01*
X149790380Y-104794476D01*
X149790380Y-104175428D01*
X148885619Y-103794476D02*
X148838000Y-103746857D01*
X148790380Y-103651619D01*
X148790380Y-103413523D01*
X148838000Y-103318285D01*
X148885619Y-103270666D01*
X148980857Y-103223047D01*
X149076095Y-103223047D01*
X149218952Y-103270666D01*
X149790380Y-103842095D01*
X149790380Y-103223047D01*
X149123714Y-102794476D02*
X149790380Y-102794476D01*
X149218952Y-102794476D02*
X149171333Y-102746857D01*
X149123714Y-102651619D01*
X149123714Y-102508761D01*
X149171333Y-102413523D01*
X149266571Y-102365904D01*
X149790380Y-102365904D01*
X149266571Y-101556380D02*
X149266571Y-101889714D01*
X149790380Y-101889714D02*
X148790380Y-101889714D01*
X148790380Y-101413523D01*
D12*
X151880857Y-103541142D02*
X151913238Y-103573523D01*
X151945619Y-103670666D01*
X151945619Y-103735428D01*
X151913238Y-103832571D01*
X151848476Y-103897333D01*
X151783714Y-103929714D01*
X151654190Y-103962095D01*
X151557047Y-103962095D01*
X151427523Y-103929714D01*
X151362761Y-103897333D01*
X151298000Y-103832571D01*
X151265619Y-103735428D01*
X151265619Y-103670666D01*
X151298000Y-103573523D01*
X151330380Y-103541142D01*
X151945619Y-102893523D02*
X151945619Y-103282095D01*
X151945619Y-103087809D02*
X151265619Y-103087809D01*
X151362761Y-103152571D01*
X151427523Y-103217333D01*
X151459904Y-103282095D01*
X151945619Y-102569714D02*
X151945619Y-102440190D01*
X151913238Y-102375428D01*
X151880857Y-102343047D01*
X151783714Y-102278285D01*
X151654190Y-102245904D01*
X151395142Y-102245904D01*
X151330380Y-102278285D01*
X151298000Y-102310666D01*
X151265619Y-102375428D01*
X151265619Y-102504952D01*
X151298000Y-102569714D01*
X151330380Y-102602095D01*
X151395142Y-102634476D01*
X151557047Y-102634476D01*
X151621809Y-102602095D01*
X151654190Y-102569714D01*
X151686571Y-102504952D01*
X151686571Y-102375428D01*
X151654190Y-102310666D01*
X151621809Y-102278285D01*
X151557047Y-102245904D01*
%TO.C,C18*%
D11*
X200815142Y-61001619D02*
X200862761Y-60954000D01*
X200958000Y-60906380D01*
X201196095Y-60906380D01*
X201291333Y-60954000D01*
X201338952Y-61001619D01*
X201386571Y-61096857D01*
X201386571Y-61192095D01*
X201338952Y-61334952D01*
X200767523Y-61906380D01*
X201386571Y-61906380D01*
X201767523Y-61001619D02*
X201815142Y-60954000D01*
X201910380Y-60906380D01*
X202148476Y-60906380D01*
X202243714Y-60954000D01*
X202291333Y-61001619D01*
X202338952Y-61096857D01*
X202338952Y-61192095D01*
X202291333Y-61334952D01*
X201719904Y-61906380D01*
X202338952Y-61906380D01*
X202767523Y-61239714D02*
X202767523Y-61906380D01*
X202767523Y-61334952D02*
X202815142Y-61287333D01*
X202910380Y-61239714D01*
X203053238Y-61239714D01*
X203148476Y-61287333D01*
X203196095Y-61382571D01*
X203196095Y-61906380D01*
X204005619Y-61382571D02*
X203672285Y-61382571D01*
X203672285Y-61906380D02*
X203672285Y-60906380D01*
X204148476Y-60906380D01*
D12*
X202020857Y-63996857D02*
X201988476Y-64029238D01*
X201891333Y-64061619D01*
X201826571Y-64061619D01*
X201729428Y-64029238D01*
X201664666Y-63964476D01*
X201632285Y-63899714D01*
X201599904Y-63770190D01*
X201599904Y-63673047D01*
X201632285Y-63543523D01*
X201664666Y-63478761D01*
X201729428Y-63414000D01*
X201826571Y-63381619D01*
X201891333Y-63381619D01*
X201988476Y-63414000D01*
X202020857Y-63446380D01*
X202668476Y-64061619D02*
X202279904Y-64061619D01*
X202474190Y-64061619D02*
X202474190Y-63381619D01*
X202409428Y-63478761D01*
X202344666Y-63543523D01*
X202279904Y-63575904D01*
X203057047Y-63673047D02*
X202992285Y-63640666D01*
X202959904Y-63608285D01*
X202927523Y-63543523D01*
X202927523Y-63511142D01*
X202959904Y-63446380D01*
X202992285Y-63414000D01*
X203057047Y-63381619D01*
X203186571Y-63381619D01*
X203251333Y-63414000D01*
X203283714Y-63446380D01*
X203316095Y-63511142D01*
X203316095Y-63543523D01*
X203283714Y-63608285D01*
X203251333Y-63640666D01*
X203186571Y-63673047D01*
X203057047Y-63673047D01*
X202992285Y-63705428D01*
X202959904Y-63737809D01*
X202927523Y-63802571D01*
X202927523Y-63932095D01*
X202959904Y-63996857D01*
X202992285Y-64029238D01*
X203057047Y-64061619D01*
X203186571Y-64061619D01*
X203251333Y-64029238D01*
X203283714Y-63996857D01*
X203316095Y-63932095D01*
X203316095Y-63802571D01*
X203283714Y-63737809D01*
X203251333Y-63705428D01*
X203186571Y-63673047D01*
%TO.C,C17*%
D11*
X169459619Y-104492857D02*
X169412000Y-104445238D01*
X169364380Y-104350000D01*
X169364380Y-104111904D01*
X169412000Y-104016666D01*
X169459619Y-103969047D01*
X169554857Y-103921428D01*
X169650095Y-103921428D01*
X169792952Y-103969047D01*
X170364380Y-104540476D01*
X170364380Y-103921428D01*
X169459619Y-103540476D02*
X169412000Y-103492857D01*
X169364380Y-103397619D01*
X169364380Y-103159523D01*
X169412000Y-103064285D01*
X169459619Y-103016666D01*
X169554857Y-102969047D01*
X169650095Y-102969047D01*
X169792952Y-103016666D01*
X170364380Y-103588095D01*
X170364380Y-102969047D01*
X169697714Y-102540476D02*
X170364380Y-102540476D01*
X169792952Y-102540476D02*
X169745333Y-102492857D01*
X169697714Y-102397619D01*
X169697714Y-102254761D01*
X169745333Y-102159523D01*
X169840571Y-102111904D01*
X170364380Y-102111904D01*
X169840571Y-101302380D02*
X169840571Y-101635714D01*
X170364380Y-101635714D02*
X169364380Y-101635714D01*
X169364380Y-101159523D01*
D12*
X172454857Y-103287142D02*
X172487238Y-103319523D01*
X172519619Y-103416666D01*
X172519619Y-103481428D01*
X172487238Y-103578571D01*
X172422476Y-103643333D01*
X172357714Y-103675714D01*
X172228190Y-103708095D01*
X172131047Y-103708095D01*
X172001523Y-103675714D01*
X171936761Y-103643333D01*
X171872000Y-103578571D01*
X171839619Y-103481428D01*
X171839619Y-103416666D01*
X171872000Y-103319523D01*
X171904380Y-103287142D01*
X172519619Y-102639523D02*
X172519619Y-103028095D01*
X172519619Y-102833809D02*
X171839619Y-102833809D01*
X171936761Y-102898571D01*
X172001523Y-102963333D01*
X172033904Y-103028095D01*
X171839619Y-102412857D02*
X171839619Y-101959523D01*
X172519619Y-102250952D01*
%TO.C,C16*%
D11*
X98453142Y-101133619D02*
X98500761Y-101086000D01*
X98596000Y-101038380D01*
X98834095Y-101038380D01*
X98929333Y-101086000D01*
X98976952Y-101133619D01*
X99024571Y-101228857D01*
X99024571Y-101324095D01*
X98976952Y-101466952D01*
X98405523Y-102038380D01*
X99024571Y-102038380D01*
X99405523Y-101133619D02*
X99453142Y-101086000D01*
X99548380Y-101038380D01*
X99786476Y-101038380D01*
X99881714Y-101086000D01*
X99929333Y-101133619D01*
X99976952Y-101228857D01*
X99976952Y-101324095D01*
X99929333Y-101466952D01*
X99357904Y-102038380D01*
X99976952Y-102038380D01*
X100405523Y-101371714D02*
X100405523Y-102038380D01*
X100405523Y-101466952D02*
X100453142Y-101419333D01*
X100548380Y-101371714D01*
X100691238Y-101371714D01*
X100786476Y-101419333D01*
X100834095Y-101514571D01*
X100834095Y-102038380D01*
X101643619Y-101514571D02*
X101310285Y-101514571D01*
X101310285Y-102038380D02*
X101310285Y-101038380D01*
X101786476Y-101038380D01*
D12*
X99658857Y-104128857D02*
X99626476Y-104161238D01*
X99529333Y-104193619D01*
X99464571Y-104193619D01*
X99367428Y-104161238D01*
X99302666Y-104096476D01*
X99270285Y-104031714D01*
X99237904Y-103902190D01*
X99237904Y-103805047D01*
X99270285Y-103675523D01*
X99302666Y-103610761D01*
X99367428Y-103546000D01*
X99464571Y-103513619D01*
X99529333Y-103513619D01*
X99626476Y-103546000D01*
X99658857Y-103578380D01*
X100306476Y-104193619D02*
X99917904Y-104193619D01*
X100112190Y-104193619D02*
X100112190Y-103513619D01*
X100047428Y-103610761D01*
X99982666Y-103675523D01*
X99917904Y-103707904D01*
X100889333Y-103513619D02*
X100759809Y-103513619D01*
X100695047Y-103546000D01*
X100662666Y-103578380D01*
X100597904Y-103675523D01*
X100565523Y-103805047D01*
X100565523Y-104064095D01*
X100597904Y-104128857D01*
X100630285Y-104161238D01*
X100695047Y-104193619D01*
X100824571Y-104193619D01*
X100889333Y-104161238D01*
X100921714Y-104128857D01*
X100954095Y-104064095D01*
X100954095Y-103902190D01*
X100921714Y-103837428D01*
X100889333Y-103805047D01*
X100824571Y-103772666D01*
X100695047Y-103772666D01*
X100630285Y-103805047D01*
X100597904Y-103837428D01*
X100565523Y-103902190D01*
%TO.C,C15*%
D11*
X143551619Y-71980857D02*
X143504000Y-71933238D01*
X143456380Y-71838000D01*
X143456380Y-71599904D01*
X143504000Y-71504666D01*
X143551619Y-71457047D01*
X143646857Y-71409428D01*
X143742095Y-71409428D01*
X143884952Y-71457047D01*
X144456380Y-72028476D01*
X144456380Y-71409428D01*
X143551619Y-71028476D02*
X143504000Y-70980857D01*
X143456380Y-70885619D01*
X143456380Y-70647523D01*
X143504000Y-70552285D01*
X143551619Y-70504666D01*
X143646857Y-70457047D01*
X143742095Y-70457047D01*
X143884952Y-70504666D01*
X144456380Y-71076095D01*
X144456380Y-70457047D01*
X143789714Y-70028476D02*
X144456380Y-70028476D01*
X143884952Y-70028476D02*
X143837333Y-69980857D01*
X143789714Y-69885619D01*
X143789714Y-69742761D01*
X143837333Y-69647523D01*
X143932571Y-69599904D01*
X144456380Y-69599904D01*
X143932571Y-68790380D02*
X143932571Y-69123714D01*
X144456380Y-69123714D02*
X143456380Y-69123714D01*
X143456380Y-68647523D01*
D12*
X146546857Y-70775142D02*
X146579238Y-70807523D01*
X146611619Y-70904666D01*
X146611619Y-70969428D01*
X146579238Y-71066571D01*
X146514476Y-71131333D01*
X146449714Y-71163714D01*
X146320190Y-71196095D01*
X146223047Y-71196095D01*
X146093523Y-71163714D01*
X146028761Y-71131333D01*
X145964000Y-71066571D01*
X145931619Y-70969428D01*
X145931619Y-70904666D01*
X145964000Y-70807523D01*
X145996380Y-70775142D01*
X146611619Y-70127523D02*
X146611619Y-70516095D01*
X146611619Y-70321809D02*
X145931619Y-70321809D01*
X146028761Y-70386571D01*
X146093523Y-70451333D01*
X146125904Y-70516095D01*
X145931619Y-69512285D02*
X145931619Y-69836095D01*
X146255428Y-69868476D01*
X146223047Y-69836095D01*
X146190666Y-69771333D01*
X146190666Y-69609428D01*
X146223047Y-69544666D01*
X146255428Y-69512285D01*
X146320190Y-69479904D01*
X146482095Y-69479904D01*
X146546857Y-69512285D01*
X146579238Y-69544666D01*
X146611619Y-69609428D01*
X146611619Y-69771333D01*
X146579238Y-69836095D01*
X146546857Y-69868476D01*
%TO.C,C14*%
D11*
X143551619Y-87728857D02*
X143504000Y-87681238D01*
X143456380Y-87586000D01*
X143456380Y-87347904D01*
X143504000Y-87252666D01*
X143551619Y-87205047D01*
X143646857Y-87157428D01*
X143742095Y-87157428D01*
X143884952Y-87205047D01*
X144456380Y-87776476D01*
X144456380Y-87157428D01*
X143551619Y-86776476D02*
X143504000Y-86728857D01*
X143456380Y-86633619D01*
X143456380Y-86395523D01*
X143504000Y-86300285D01*
X143551619Y-86252666D01*
X143646857Y-86205047D01*
X143742095Y-86205047D01*
X143884952Y-86252666D01*
X144456380Y-86824095D01*
X144456380Y-86205047D01*
X143789714Y-85776476D02*
X144456380Y-85776476D01*
X143884952Y-85776476D02*
X143837333Y-85728857D01*
X143789714Y-85633619D01*
X143789714Y-85490761D01*
X143837333Y-85395523D01*
X143932571Y-85347904D01*
X144456380Y-85347904D01*
X143932571Y-84538380D02*
X143932571Y-84871714D01*
X144456380Y-84871714D02*
X143456380Y-84871714D01*
X143456380Y-84395523D01*
D12*
X146546857Y-86523142D02*
X146579238Y-86555523D01*
X146611619Y-86652666D01*
X146611619Y-86717428D01*
X146579238Y-86814571D01*
X146514476Y-86879333D01*
X146449714Y-86911714D01*
X146320190Y-86944095D01*
X146223047Y-86944095D01*
X146093523Y-86911714D01*
X146028761Y-86879333D01*
X145964000Y-86814571D01*
X145931619Y-86717428D01*
X145931619Y-86652666D01*
X145964000Y-86555523D01*
X145996380Y-86523142D01*
X146611619Y-85875523D02*
X146611619Y-86264095D01*
X146611619Y-86069809D02*
X145931619Y-86069809D01*
X146028761Y-86134571D01*
X146093523Y-86199333D01*
X146125904Y-86264095D01*
X146158285Y-85292666D02*
X146611619Y-85292666D01*
X145899238Y-85454571D02*
X146384952Y-85616476D01*
X146384952Y-85195523D01*
%TO.C,C13*%
D11*
X98707142Y-56429619D02*
X98754761Y-56382000D01*
X98850000Y-56334380D01*
X99088095Y-56334380D01*
X99183333Y-56382000D01*
X99230952Y-56429619D01*
X99278571Y-56524857D01*
X99278571Y-56620095D01*
X99230952Y-56762952D01*
X98659523Y-57334380D01*
X99278571Y-57334380D01*
X99659523Y-56429619D02*
X99707142Y-56382000D01*
X99802380Y-56334380D01*
X100040476Y-56334380D01*
X100135714Y-56382000D01*
X100183333Y-56429619D01*
X100230952Y-56524857D01*
X100230952Y-56620095D01*
X100183333Y-56762952D01*
X99611904Y-57334380D01*
X100230952Y-57334380D01*
X100659523Y-56667714D02*
X100659523Y-57334380D01*
X100659523Y-56762952D02*
X100707142Y-56715333D01*
X100802380Y-56667714D01*
X100945238Y-56667714D01*
X101040476Y-56715333D01*
X101088095Y-56810571D01*
X101088095Y-57334380D01*
X101897619Y-56810571D02*
X101564285Y-56810571D01*
X101564285Y-57334380D02*
X101564285Y-56334380D01*
X102040476Y-56334380D01*
D12*
X99912857Y-59424857D02*
X99880476Y-59457238D01*
X99783333Y-59489619D01*
X99718571Y-59489619D01*
X99621428Y-59457238D01*
X99556666Y-59392476D01*
X99524285Y-59327714D01*
X99491904Y-59198190D01*
X99491904Y-59101047D01*
X99524285Y-58971523D01*
X99556666Y-58906761D01*
X99621428Y-58842000D01*
X99718571Y-58809619D01*
X99783333Y-58809619D01*
X99880476Y-58842000D01*
X99912857Y-58874380D01*
X100560476Y-59489619D02*
X100171904Y-59489619D01*
X100366190Y-59489619D02*
X100366190Y-58809619D01*
X100301428Y-58906761D01*
X100236666Y-58971523D01*
X100171904Y-59003904D01*
X100787142Y-58809619D02*
X101208095Y-58809619D01*
X100981428Y-59068666D01*
X101078571Y-59068666D01*
X101143333Y-59101047D01*
X101175714Y-59133428D01*
X101208095Y-59198190D01*
X101208095Y-59360095D01*
X101175714Y-59424857D01*
X101143333Y-59457238D01*
X101078571Y-59489619D01*
X100884285Y-59489619D01*
X100819523Y-59457238D01*
X100787142Y-59424857D01*
%TO.C,C4*%
D11*
X98199142Y-76749619D02*
X98246761Y-76702000D01*
X98342000Y-76654380D01*
X98580095Y-76654380D01*
X98675333Y-76702000D01*
X98722952Y-76749619D01*
X98770571Y-76844857D01*
X98770571Y-76940095D01*
X98722952Y-77082952D01*
X98151523Y-77654380D01*
X98770571Y-77654380D01*
X99151523Y-76749619D02*
X99199142Y-76702000D01*
X99294380Y-76654380D01*
X99532476Y-76654380D01*
X99627714Y-76702000D01*
X99675333Y-76749619D01*
X99722952Y-76844857D01*
X99722952Y-76940095D01*
X99675333Y-77082952D01*
X99103904Y-77654380D01*
X99722952Y-77654380D01*
X100151523Y-76987714D02*
X100151523Y-77654380D01*
X100151523Y-77082952D02*
X100199142Y-77035333D01*
X100294380Y-76987714D01*
X100437238Y-76987714D01*
X100532476Y-77035333D01*
X100580095Y-77130571D01*
X100580095Y-77654380D01*
X101389619Y-77130571D02*
X101056285Y-77130571D01*
X101056285Y-77654380D02*
X101056285Y-76654380D01*
X101532476Y-76654380D01*
D12*
X99728666Y-79744857D02*
X99696285Y-79777238D01*
X99599142Y-79809619D01*
X99534380Y-79809619D01*
X99437238Y-79777238D01*
X99372476Y-79712476D01*
X99340095Y-79647714D01*
X99307714Y-79518190D01*
X99307714Y-79421047D01*
X99340095Y-79291523D01*
X99372476Y-79226761D01*
X99437238Y-79162000D01*
X99534380Y-79129619D01*
X99599142Y-79129619D01*
X99696285Y-79162000D01*
X99728666Y-79194380D01*
X100311523Y-79356285D02*
X100311523Y-79809619D01*
X100149619Y-79097238D02*
X99987714Y-79582952D01*
X100408666Y-79582952D01*
%TO.C,C1*%
D11*
X143805619Y-55724857D02*
X143758000Y-55677238D01*
X143710380Y-55582000D01*
X143710380Y-55343904D01*
X143758000Y-55248666D01*
X143805619Y-55201047D01*
X143900857Y-55153428D01*
X143996095Y-55153428D01*
X144138952Y-55201047D01*
X144710380Y-55772476D01*
X144710380Y-55153428D01*
X143805619Y-54772476D02*
X143758000Y-54724857D01*
X143710380Y-54629619D01*
X143710380Y-54391523D01*
X143758000Y-54296285D01*
X143805619Y-54248666D01*
X143900857Y-54201047D01*
X143996095Y-54201047D01*
X144138952Y-54248666D01*
X144710380Y-54820095D01*
X144710380Y-54201047D01*
X144043714Y-53772476D02*
X144710380Y-53772476D01*
X144138952Y-53772476D02*
X144091333Y-53724857D01*
X144043714Y-53629619D01*
X144043714Y-53486761D01*
X144091333Y-53391523D01*
X144186571Y-53343904D01*
X144710380Y-53343904D01*
X144186571Y-52534380D02*
X144186571Y-52867714D01*
X144710380Y-52867714D02*
X143710380Y-52867714D01*
X143710380Y-52391523D01*
D12*
X146800857Y-54195333D02*
X146833238Y-54227714D01*
X146865619Y-54324857D01*
X146865619Y-54389619D01*
X146833238Y-54486761D01*
X146768476Y-54551523D01*
X146703714Y-54583904D01*
X146574190Y-54616285D01*
X146477047Y-54616285D01*
X146347523Y-54583904D01*
X146282761Y-54551523D01*
X146218000Y-54486761D01*
X146185619Y-54389619D01*
X146185619Y-54324857D01*
X146218000Y-54227714D01*
X146250380Y-54195333D01*
X146865619Y-53547714D02*
X146865619Y-53936285D01*
X146865619Y-53742000D02*
X146185619Y-53742000D01*
X146282761Y-53806761D01*
X146347523Y-53871523D01*
X146379904Y-53936285D01*
%TO.C,U13*%
D11*
X145546380Y-86685047D02*
X145546380Y-86018380D01*
X146546380Y-86446952D01*
X145879714Y-85208857D02*
X146546380Y-85208857D01*
X145498761Y-85446952D02*
X146213047Y-85685047D01*
X146213047Y-85066000D01*
X146546380Y-84208857D02*
X146546380Y-84685047D01*
X145546380Y-84685047D01*
X146498761Y-83923142D02*
X146546380Y-83780285D01*
X146546380Y-83542190D01*
X146498761Y-83446952D01*
X146451142Y-83399333D01*
X146355904Y-83351714D01*
X146260666Y-83351714D01*
X146165428Y-83399333D01*
X146117809Y-83446952D01*
X146070190Y-83542190D01*
X146022571Y-83732666D01*
X145974952Y-83827904D01*
X145927333Y-83875523D01*
X145832095Y-83923142D01*
X145736857Y-83923142D01*
X145641619Y-83875523D01*
X145594000Y-83827904D01*
X145546380Y-83732666D01*
X145546380Y-83494571D01*
X145594000Y-83351714D01*
X145546380Y-82446952D02*
X145546380Y-82923142D01*
X146022571Y-82970761D01*
X145974952Y-82923142D01*
X145927333Y-82827904D01*
X145927333Y-82589809D01*
X145974952Y-82494571D01*
X146022571Y-82446952D01*
X146117809Y-82399333D01*
X146355904Y-82399333D01*
X146451142Y-82446952D01*
X146498761Y-82494571D01*
X146546380Y-82589809D01*
X146546380Y-82827904D01*
X146498761Y-82923142D01*
X146451142Y-82970761D01*
X145879714Y-81542190D02*
X146546380Y-81542190D01*
X145498761Y-81780285D02*
X146213047Y-82018380D01*
X146213047Y-81399333D01*
X145546380Y-80827904D02*
X145546380Y-80732666D01*
X145594000Y-80637428D01*
X145641619Y-80589809D01*
X145736857Y-80542190D01*
X145927333Y-80494571D01*
X146165428Y-80494571D01*
X146355904Y-80542190D01*
X146451142Y-80589809D01*
X146498761Y-80637428D01*
X146546380Y-80732666D01*
X146546380Y-80827904D01*
X146498761Y-80923142D01*
X146451142Y-80970761D01*
X146355904Y-81018380D01*
X146165428Y-81066000D01*
X145927333Y-81066000D01*
X145736857Y-81018380D01*
X145641619Y-80970761D01*
X145594000Y-80923142D01*
X145546380Y-80827904D01*
X131786380Y-84804095D02*
X132595904Y-84804095D01*
X132691142Y-84756476D01*
X132738761Y-84708857D01*
X132786380Y-84613619D01*
X132786380Y-84423142D01*
X132738761Y-84327904D01*
X132691142Y-84280285D01*
X132595904Y-84232666D01*
X131786380Y-84232666D01*
X132786380Y-83232666D02*
X132786380Y-83804095D01*
X132786380Y-83518380D02*
X131786380Y-83518380D01*
X131929238Y-83613619D01*
X132024476Y-83708857D01*
X132072095Y-83804095D01*
X131786380Y-82899333D02*
X131786380Y-82280285D01*
X132167333Y-82613619D01*
X132167333Y-82470761D01*
X132214952Y-82375523D01*
X132262571Y-82327904D01*
X132357809Y-82280285D01*
X132595904Y-82280285D01*
X132691142Y-82327904D01*
X132738761Y-82375523D01*
X132786380Y-82470761D01*
X132786380Y-82756476D01*
X132738761Y-82851714D01*
X132691142Y-82899333D01*
%TO.C,U12*%
X197001142Y-104906380D02*
X197667809Y-104906380D01*
X197239238Y-105906380D01*
X198477333Y-105239714D02*
X198477333Y-105906380D01*
X198239238Y-104858761D02*
X198001142Y-105573047D01*
X198620190Y-105573047D01*
X199477333Y-105906380D02*
X199001142Y-105906380D01*
X199001142Y-104906380D01*
X199763047Y-105858761D02*
X199905904Y-105906380D01*
X200144000Y-105906380D01*
X200239238Y-105858761D01*
X200286857Y-105811142D01*
X200334476Y-105715904D01*
X200334476Y-105620666D01*
X200286857Y-105525428D01*
X200239238Y-105477809D01*
X200144000Y-105430190D01*
X199953523Y-105382571D01*
X199858285Y-105334952D01*
X199810666Y-105287333D01*
X199763047Y-105192095D01*
X199763047Y-105096857D01*
X199810666Y-105001619D01*
X199858285Y-104954000D01*
X199953523Y-104906380D01*
X200191619Y-104906380D01*
X200334476Y-104954000D01*
X200953523Y-104906380D02*
X201048761Y-104906380D01*
X201144000Y-104954000D01*
X201191619Y-105001619D01*
X201239238Y-105096857D01*
X201286857Y-105287333D01*
X201286857Y-105525428D01*
X201239238Y-105715904D01*
X201191619Y-105811142D01*
X201144000Y-105858761D01*
X201048761Y-105906380D01*
X200953523Y-105906380D01*
X200858285Y-105858761D01*
X200810666Y-105811142D01*
X200763047Y-105715904D01*
X200715428Y-105525428D01*
X200715428Y-105287333D01*
X200763047Y-105096857D01*
X200810666Y-105001619D01*
X200858285Y-104954000D01*
X200953523Y-104906380D01*
X201620190Y-104906380D02*
X202239238Y-104906380D01*
X201905904Y-105287333D01*
X202048761Y-105287333D01*
X202144000Y-105334952D01*
X202191619Y-105382571D01*
X202239238Y-105477809D01*
X202239238Y-105715904D01*
X202191619Y-105811142D01*
X202144000Y-105858761D01*
X202048761Y-105906380D01*
X201763047Y-105906380D01*
X201667809Y-105858761D01*
X201620190Y-105811142D01*
X198405904Y-94956380D02*
X198405904Y-95765904D01*
X198453523Y-95861142D01*
X198501142Y-95908761D01*
X198596380Y-95956380D01*
X198786857Y-95956380D01*
X198882095Y-95908761D01*
X198929714Y-95861142D01*
X198977333Y-95765904D01*
X198977333Y-94956380D01*
X199977333Y-95956380D02*
X199405904Y-95956380D01*
X199691619Y-95956380D02*
X199691619Y-94956380D01*
X199596380Y-95099238D01*
X199501142Y-95194476D01*
X199405904Y-95242095D01*
X200358285Y-95051619D02*
X200405904Y-95004000D01*
X200501142Y-94956380D01*
X200739238Y-94956380D01*
X200834476Y-95004000D01*
X200882095Y-95051619D01*
X200929714Y-95146857D01*
X200929714Y-95242095D01*
X200882095Y-95384952D01*
X200310666Y-95956380D01*
X200929714Y-95956380D01*
%TO.C,U11*%
X197255142Y-83316380D02*
X197921809Y-83316380D01*
X197493238Y-84316380D01*
X198731333Y-83649714D02*
X198731333Y-84316380D01*
X198493238Y-83268761D02*
X198255142Y-83983047D01*
X198874190Y-83983047D01*
X199731333Y-84316380D02*
X199255142Y-84316380D01*
X199255142Y-83316380D01*
X200017047Y-84268761D02*
X200159904Y-84316380D01*
X200398000Y-84316380D01*
X200493238Y-84268761D01*
X200540857Y-84221142D01*
X200588476Y-84125904D01*
X200588476Y-84030666D01*
X200540857Y-83935428D01*
X200493238Y-83887809D01*
X200398000Y-83840190D01*
X200207523Y-83792571D01*
X200112285Y-83744952D01*
X200064666Y-83697333D01*
X200017047Y-83602095D01*
X200017047Y-83506857D01*
X200064666Y-83411619D01*
X200112285Y-83364000D01*
X200207523Y-83316380D01*
X200445619Y-83316380D01*
X200588476Y-83364000D01*
X201207523Y-83316380D02*
X201302761Y-83316380D01*
X201398000Y-83364000D01*
X201445619Y-83411619D01*
X201493238Y-83506857D01*
X201540857Y-83697333D01*
X201540857Y-83935428D01*
X201493238Y-84125904D01*
X201445619Y-84221142D01*
X201398000Y-84268761D01*
X201302761Y-84316380D01*
X201207523Y-84316380D01*
X201112285Y-84268761D01*
X201064666Y-84221142D01*
X201017047Y-84125904D01*
X200969428Y-83935428D01*
X200969428Y-83697333D01*
X201017047Y-83506857D01*
X201064666Y-83411619D01*
X201112285Y-83364000D01*
X201207523Y-83316380D01*
X202112285Y-83744952D02*
X202017047Y-83697333D01*
X201969428Y-83649714D01*
X201921809Y-83554476D01*
X201921809Y-83506857D01*
X201969428Y-83411619D01*
X202017047Y-83364000D01*
X202112285Y-83316380D01*
X202302761Y-83316380D01*
X202398000Y-83364000D01*
X202445619Y-83411619D01*
X202493238Y-83506857D01*
X202493238Y-83554476D01*
X202445619Y-83649714D01*
X202398000Y-83697333D01*
X202302761Y-83744952D01*
X202112285Y-83744952D01*
X202017047Y-83792571D01*
X201969428Y-83840190D01*
X201921809Y-83935428D01*
X201921809Y-84125904D01*
X201969428Y-84221142D01*
X202017047Y-84268761D01*
X202112285Y-84316380D01*
X202302761Y-84316380D01*
X202398000Y-84268761D01*
X202445619Y-84221142D01*
X202493238Y-84125904D01*
X202493238Y-83935428D01*
X202445619Y-83840190D01*
X202398000Y-83792571D01*
X202302761Y-83744952D01*
X198659904Y-73366380D02*
X198659904Y-74175904D01*
X198707523Y-74271142D01*
X198755142Y-74318761D01*
X198850380Y-74366380D01*
X199040857Y-74366380D01*
X199136095Y-74318761D01*
X199183714Y-74271142D01*
X199231333Y-74175904D01*
X199231333Y-73366380D01*
X200231333Y-74366380D02*
X199659904Y-74366380D01*
X199945619Y-74366380D02*
X199945619Y-73366380D01*
X199850380Y-73509238D01*
X199755142Y-73604476D01*
X199659904Y-73652095D01*
X201183714Y-74366380D02*
X200612285Y-74366380D01*
X200898000Y-74366380D02*
X200898000Y-73366380D01*
X200802761Y-73509238D01*
X200707523Y-73604476D01*
X200612285Y-73652095D01*
%TO.C,U10*%
X131322380Y-103480857D02*
X131322380Y-102814190D01*
X132322380Y-103242761D01*
X131655714Y-102004666D02*
X132322380Y-102004666D01*
X131274761Y-102242761D02*
X131989047Y-102480857D01*
X131989047Y-101861809D01*
X132322380Y-101004666D02*
X132322380Y-101480857D01*
X131322380Y-101480857D01*
X132274761Y-100718952D02*
X132322380Y-100576095D01*
X132322380Y-100338000D01*
X132274761Y-100242761D01*
X132227142Y-100195142D01*
X132131904Y-100147523D01*
X132036666Y-100147523D01*
X131941428Y-100195142D01*
X131893809Y-100242761D01*
X131846190Y-100338000D01*
X131798571Y-100528476D01*
X131750952Y-100623714D01*
X131703333Y-100671333D01*
X131608095Y-100718952D01*
X131512857Y-100718952D01*
X131417619Y-100671333D01*
X131370000Y-100623714D01*
X131322380Y-100528476D01*
X131322380Y-100290380D01*
X131370000Y-100147523D01*
X131417619Y-99766571D02*
X131370000Y-99718952D01*
X131322380Y-99623714D01*
X131322380Y-99385619D01*
X131370000Y-99290380D01*
X131417619Y-99242761D01*
X131512857Y-99195142D01*
X131608095Y-99195142D01*
X131750952Y-99242761D01*
X132322380Y-99814190D01*
X132322380Y-99195142D01*
X131322380Y-98576095D02*
X131322380Y-98480857D01*
X131370000Y-98385619D01*
X131417619Y-98338000D01*
X131512857Y-98290380D01*
X131703333Y-98242761D01*
X131941428Y-98242761D01*
X132131904Y-98290380D01*
X132227142Y-98338000D01*
X132274761Y-98385619D01*
X132322380Y-98480857D01*
X132322380Y-98576095D01*
X132274761Y-98671333D01*
X132227142Y-98718952D01*
X132131904Y-98766571D01*
X131941428Y-98814190D01*
X131703333Y-98814190D01*
X131512857Y-98766571D01*
X131417619Y-98718952D01*
X131370000Y-98671333D01*
X131322380Y-98576095D01*
X121372380Y-102076095D02*
X122181904Y-102076095D01*
X122277142Y-102028476D01*
X122324761Y-101980857D01*
X122372380Y-101885619D01*
X122372380Y-101695142D01*
X122324761Y-101599904D01*
X122277142Y-101552285D01*
X122181904Y-101504666D01*
X121372380Y-101504666D01*
X122372380Y-100504666D02*
X122372380Y-101076095D01*
X122372380Y-100790380D02*
X121372380Y-100790380D01*
X121515238Y-100885619D01*
X121610476Y-100980857D01*
X121658095Y-101076095D01*
X121372380Y-99885619D02*
X121372380Y-99790380D01*
X121420000Y-99695142D01*
X121467619Y-99647523D01*
X121562857Y-99599904D01*
X121753333Y-99552285D01*
X121991428Y-99552285D01*
X122181904Y-99599904D01*
X122277142Y-99647523D01*
X122324761Y-99695142D01*
X122372380Y-99790380D01*
X122372380Y-99885619D01*
X122324761Y-99980857D01*
X122277142Y-100028476D01*
X122181904Y-100076095D01*
X121991428Y-100123714D01*
X121753333Y-100123714D01*
X121562857Y-100076095D01*
X121467619Y-100028476D01*
X121420000Y-99980857D01*
X121372380Y-99885619D01*
%TO.C,U9*%
X145546380Y-70683047D02*
X145546380Y-70016380D01*
X146546380Y-70444952D01*
X145879714Y-69206857D02*
X146546380Y-69206857D01*
X145498761Y-69444952D02*
X146213047Y-69683047D01*
X146213047Y-69064000D01*
X146546380Y-68206857D02*
X146546380Y-68683047D01*
X145546380Y-68683047D01*
X146498761Y-67921142D02*
X146546380Y-67778285D01*
X146546380Y-67540190D01*
X146498761Y-67444952D01*
X146451142Y-67397333D01*
X146355904Y-67349714D01*
X146260666Y-67349714D01*
X146165428Y-67397333D01*
X146117809Y-67444952D01*
X146070190Y-67540190D01*
X146022571Y-67730666D01*
X145974952Y-67825904D01*
X145927333Y-67873523D01*
X145832095Y-67921142D01*
X145736857Y-67921142D01*
X145641619Y-67873523D01*
X145594000Y-67825904D01*
X145546380Y-67730666D01*
X145546380Y-67492571D01*
X145594000Y-67349714D01*
X145546380Y-66444952D02*
X145546380Y-66921142D01*
X146022571Y-66968761D01*
X145974952Y-66921142D01*
X145927333Y-66825904D01*
X145927333Y-66587809D01*
X145974952Y-66492571D01*
X146022571Y-66444952D01*
X146117809Y-66397333D01*
X146355904Y-66397333D01*
X146451142Y-66444952D01*
X146498761Y-66492571D01*
X146546380Y-66587809D01*
X146546380Y-66825904D01*
X146498761Y-66921142D01*
X146451142Y-66968761D01*
X145879714Y-65540190D02*
X146546380Y-65540190D01*
X145498761Y-65778285D02*
X146213047Y-66016380D01*
X146213047Y-65397333D01*
X145546380Y-64825904D02*
X145546380Y-64730666D01*
X145594000Y-64635428D01*
X145641619Y-64587809D01*
X145736857Y-64540190D01*
X145927333Y-64492571D01*
X146165428Y-64492571D01*
X146355904Y-64540190D01*
X146451142Y-64587809D01*
X146498761Y-64635428D01*
X146546380Y-64730666D01*
X146546380Y-64825904D01*
X146498761Y-64921142D01*
X146451142Y-64968761D01*
X146355904Y-65016380D01*
X146165428Y-65064000D01*
X145927333Y-65064000D01*
X145736857Y-65016380D01*
X145641619Y-64968761D01*
X145594000Y-64921142D01*
X145546380Y-64825904D01*
X131786380Y-68325904D02*
X132595904Y-68325904D01*
X132691142Y-68278285D01*
X132738761Y-68230666D01*
X132786380Y-68135428D01*
X132786380Y-67944952D01*
X132738761Y-67849714D01*
X132691142Y-67802095D01*
X132595904Y-67754476D01*
X131786380Y-67754476D01*
X132786380Y-67230666D02*
X132786380Y-67040190D01*
X132738761Y-66944952D01*
X132691142Y-66897333D01*
X132548285Y-66802095D01*
X132357809Y-66754476D01*
X131976857Y-66754476D01*
X131881619Y-66802095D01*
X131834000Y-66849714D01*
X131786380Y-66944952D01*
X131786380Y-67135428D01*
X131834000Y-67230666D01*
X131881619Y-67278285D01*
X131976857Y-67325904D01*
X132214952Y-67325904D01*
X132310190Y-67278285D01*
X132357809Y-67230666D01*
X132405428Y-67135428D01*
X132405428Y-66944952D01*
X132357809Y-66849714D01*
X132310190Y-66802095D01*
X132214952Y-66754476D01*
%TO.C,R4*%
X171966095Y-87601619D02*
X172013714Y-87554000D01*
X172108952Y-87506380D01*
X172347047Y-87506380D01*
X172442285Y-87554000D01*
X172489904Y-87601619D01*
X172537523Y-87696857D01*
X172537523Y-87792095D01*
X172489904Y-87934952D01*
X171918476Y-88506380D01*
X172537523Y-88506380D01*
X172966095Y-88506380D02*
X172966095Y-87506380D01*
X173537523Y-88506380D02*
X173108952Y-87934952D01*
X173537523Y-87506380D02*
X172966095Y-88077809D01*
X173918476Y-87601619D02*
X173966095Y-87554000D01*
X174061333Y-87506380D01*
X174299428Y-87506380D01*
X174394666Y-87554000D01*
X174442285Y-87601619D01*
X174489904Y-87696857D01*
X174489904Y-87792095D01*
X174442285Y-87934952D01*
X173870857Y-88506380D01*
X174489904Y-88506380D01*
X173061333Y-90876380D02*
X172728000Y-90400190D01*
X172489904Y-90876380D02*
X172489904Y-89876380D01*
X172870857Y-89876380D01*
X172966095Y-89924000D01*
X173013714Y-89971619D01*
X173061333Y-90066857D01*
X173061333Y-90209714D01*
X173013714Y-90304952D01*
X172966095Y-90352571D01*
X172870857Y-90400190D01*
X172489904Y-90400190D01*
X173918476Y-90209714D02*
X173918476Y-90876380D01*
X173680380Y-89828761D02*
X173442285Y-90543047D01*
X174061333Y-90543047D01*
%TO.C,R3*%
X171966095Y-90395619D02*
X172013714Y-90348000D01*
X172108952Y-90300380D01*
X172347047Y-90300380D01*
X172442285Y-90348000D01*
X172489904Y-90395619D01*
X172537523Y-90490857D01*
X172537523Y-90586095D01*
X172489904Y-90728952D01*
X171918476Y-91300380D01*
X172537523Y-91300380D01*
X172966095Y-91300380D02*
X172966095Y-90300380D01*
X173537523Y-91300380D02*
X173108952Y-90728952D01*
X173537523Y-90300380D02*
X172966095Y-90871809D01*
X173918476Y-90395619D02*
X173966095Y-90348000D01*
X174061333Y-90300380D01*
X174299428Y-90300380D01*
X174394666Y-90348000D01*
X174442285Y-90395619D01*
X174489904Y-90490857D01*
X174489904Y-90586095D01*
X174442285Y-90728952D01*
X173870857Y-91300380D01*
X174489904Y-91300380D01*
X173061333Y-93670380D02*
X172728000Y-93194190D01*
X172489904Y-93670380D02*
X172489904Y-92670380D01*
X172870857Y-92670380D01*
X172966095Y-92718000D01*
X173013714Y-92765619D01*
X173061333Y-92860857D01*
X173061333Y-93003714D01*
X173013714Y-93098952D01*
X172966095Y-93146571D01*
X172870857Y-93194190D01*
X172489904Y-93194190D01*
X173394666Y-92670380D02*
X174013714Y-92670380D01*
X173680380Y-93051333D01*
X173823238Y-93051333D01*
X173918476Y-93098952D01*
X173966095Y-93146571D01*
X174013714Y-93241809D01*
X174013714Y-93479904D01*
X173966095Y-93575142D01*
X173918476Y-93622761D01*
X173823238Y-93670380D01*
X173537523Y-93670380D01*
X173442285Y-93622761D01*
X173394666Y-93575142D01*
%TO.C,R2*%
X182221333Y-103660380D02*
X181649904Y-103660380D01*
X181935619Y-103660380D02*
X181935619Y-102660380D01*
X181840380Y-102803238D01*
X181745142Y-102898476D01*
X181649904Y-102946095D01*
X182840380Y-102660380D02*
X182935619Y-102660380D01*
X183030857Y-102708000D01*
X183078476Y-102755619D01*
X183126095Y-102850857D01*
X183173714Y-103041333D01*
X183173714Y-103279428D01*
X183126095Y-103469904D01*
X183078476Y-103565142D01*
X183030857Y-103612761D01*
X182935619Y-103660380D01*
X182840380Y-103660380D01*
X182745142Y-103612761D01*
X182697523Y-103565142D01*
X182649904Y-103469904D01*
X182602285Y-103279428D01*
X182602285Y-103041333D01*
X182649904Y-102850857D01*
X182697523Y-102755619D01*
X182745142Y-102708000D01*
X182840380Y-102660380D01*
X183792761Y-102660380D02*
X183888000Y-102660380D01*
X183983238Y-102708000D01*
X184030857Y-102755619D01*
X184078476Y-102850857D01*
X184126095Y-103041333D01*
X184126095Y-103279428D01*
X184078476Y-103469904D01*
X184030857Y-103565142D01*
X183983238Y-103612761D01*
X183888000Y-103660380D01*
X183792761Y-103660380D01*
X183697523Y-103612761D01*
X183649904Y-103565142D01*
X183602285Y-103469904D01*
X183554666Y-103279428D01*
X183554666Y-103041333D01*
X183602285Y-102850857D01*
X183649904Y-102755619D01*
X183697523Y-102708000D01*
X183792761Y-102660380D01*
X185126095Y-103660380D02*
X184792761Y-103184190D01*
X184554666Y-103660380D02*
X184554666Y-102660380D01*
X184935619Y-102660380D01*
X185030857Y-102708000D01*
X185078476Y-102755619D01*
X185126095Y-102850857D01*
X185126095Y-102993714D01*
X185078476Y-103088952D01*
X185030857Y-103136571D01*
X184935619Y-103184190D01*
X184554666Y-103184190D01*
X183221333Y-101290380D02*
X182888000Y-100814190D01*
X182649904Y-101290380D02*
X182649904Y-100290380D01*
X183030857Y-100290380D01*
X183126095Y-100338000D01*
X183173714Y-100385619D01*
X183221333Y-100480857D01*
X183221333Y-100623714D01*
X183173714Y-100718952D01*
X183126095Y-100766571D01*
X183030857Y-100814190D01*
X182649904Y-100814190D01*
X183602285Y-100385619D02*
X183649904Y-100338000D01*
X183745142Y-100290380D01*
X183983238Y-100290380D01*
X184078476Y-100338000D01*
X184126095Y-100385619D01*
X184173714Y-100480857D01*
X184173714Y-100576095D01*
X184126095Y-100718952D01*
X183554666Y-101290380D01*
X184173714Y-101290380D01*
%TO.C,C12*%
X160569619Y-76552857D02*
X160522000Y-76505238D01*
X160474380Y-76410000D01*
X160474380Y-76171904D01*
X160522000Y-76076666D01*
X160569619Y-76029047D01*
X160664857Y-75981428D01*
X160760095Y-75981428D01*
X160902952Y-76029047D01*
X161474380Y-76600476D01*
X161474380Y-75981428D01*
X160569619Y-75600476D02*
X160522000Y-75552857D01*
X160474380Y-75457619D01*
X160474380Y-75219523D01*
X160522000Y-75124285D01*
X160569619Y-75076666D01*
X160664857Y-75029047D01*
X160760095Y-75029047D01*
X160902952Y-75076666D01*
X161474380Y-75648095D01*
X161474380Y-75029047D01*
X160807714Y-74600476D02*
X161474380Y-74600476D01*
X160902952Y-74600476D02*
X160855333Y-74552857D01*
X160807714Y-74457619D01*
X160807714Y-74314761D01*
X160855333Y-74219523D01*
X160950571Y-74171904D01*
X161474380Y-74171904D01*
X160950571Y-73362380D02*
X160950571Y-73695714D01*
X161474380Y-73695714D02*
X160474380Y-73695714D01*
X160474380Y-73219523D01*
D12*
X163564857Y-75347142D02*
X163597238Y-75379523D01*
X163629619Y-75476666D01*
X163629619Y-75541428D01*
X163597238Y-75638571D01*
X163532476Y-75703333D01*
X163467714Y-75735714D01*
X163338190Y-75768095D01*
X163241047Y-75768095D01*
X163111523Y-75735714D01*
X163046761Y-75703333D01*
X162982000Y-75638571D01*
X162949619Y-75541428D01*
X162949619Y-75476666D01*
X162982000Y-75379523D01*
X163014380Y-75347142D01*
X163629619Y-74699523D02*
X163629619Y-75088095D01*
X163629619Y-74893809D02*
X162949619Y-74893809D01*
X163046761Y-74958571D01*
X163111523Y-75023333D01*
X163143904Y-75088095D01*
X163014380Y-74440476D02*
X162982000Y-74408095D01*
X162949619Y-74343333D01*
X162949619Y-74181428D01*
X162982000Y-74116666D01*
X163014380Y-74084285D01*
X163079142Y-74051904D01*
X163143904Y-74051904D01*
X163241047Y-74084285D01*
X163629619Y-74472857D01*
X163629619Y-74051904D01*
%TO.C,C11*%
D11*
X194522380Y-93087047D02*
X194522380Y-93658476D01*
X194522380Y-93372761D02*
X193522380Y-93372761D01*
X193665238Y-93468000D01*
X193760476Y-93563238D01*
X193808095Y-93658476D01*
X193522380Y-92468000D02*
X193522380Y-92372761D01*
X193570000Y-92277523D01*
X193617619Y-92229904D01*
X193712857Y-92182285D01*
X193903333Y-92134666D01*
X194141428Y-92134666D01*
X194331904Y-92182285D01*
X194427142Y-92229904D01*
X194474761Y-92277523D01*
X194522380Y-92372761D01*
X194522380Y-92468000D01*
X194474761Y-92563238D01*
X194427142Y-92610857D01*
X194331904Y-92658476D01*
X194141428Y-92706095D01*
X193903333Y-92706095D01*
X193712857Y-92658476D01*
X193617619Y-92610857D01*
X193570000Y-92563238D01*
X193522380Y-92468000D01*
X193522380Y-91515619D02*
X193522380Y-91420380D01*
X193570000Y-91325142D01*
X193617619Y-91277523D01*
X193712857Y-91229904D01*
X193903333Y-91182285D01*
X194141428Y-91182285D01*
X194331904Y-91229904D01*
X194427142Y-91277523D01*
X194474761Y-91325142D01*
X194522380Y-91420380D01*
X194522380Y-91515619D01*
X194474761Y-91610857D01*
X194427142Y-91658476D01*
X194331904Y-91706095D01*
X194141428Y-91753714D01*
X193903333Y-91753714D01*
X193712857Y-91706095D01*
X193617619Y-91658476D01*
X193570000Y-91610857D01*
X193522380Y-91515619D01*
X193855714Y-90753714D02*
X194522380Y-90753714D01*
X193950952Y-90753714D02*
X193903333Y-90706095D01*
X193855714Y-90610857D01*
X193855714Y-90468000D01*
X193903333Y-90372761D01*
X193998571Y-90325142D01*
X194522380Y-90325142D01*
D12*
X192012857Y-92405142D02*
X192045238Y-92437523D01*
X192077619Y-92534666D01*
X192077619Y-92599428D01*
X192045238Y-92696571D01*
X191980476Y-92761333D01*
X191915714Y-92793714D01*
X191786190Y-92826095D01*
X191689047Y-92826095D01*
X191559523Y-92793714D01*
X191494761Y-92761333D01*
X191430000Y-92696571D01*
X191397619Y-92599428D01*
X191397619Y-92534666D01*
X191430000Y-92437523D01*
X191462380Y-92405142D01*
X192077619Y-91757523D02*
X192077619Y-92146095D01*
X192077619Y-91951809D02*
X191397619Y-91951809D01*
X191494761Y-92016571D01*
X191559523Y-92081333D01*
X191591904Y-92146095D01*
X192077619Y-91109904D02*
X192077619Y-91498476D01*
X192077619Y-91304190D02*
X191397619Y-91304190D01*
X191494761Y-91368952D01*
X191559523Y-91433714D01*
X191591904Y-91498476D01*
%TO.C,U5*%
D11*
X99750952Y-102874380D02*
X100417619Y-102874380D01*
X99989047Y-103874380D01*
X101227142Y-103207714D02*
X101227142Y-103874380D01*
X100989047Y-102826761D02*
X100750952Y-103541047D01*
X101370000Y-103541047D01*
X102227142Y-103874380D02*
X101750952Y-103874380D01*
X101750952Y-102874380D01*
X102512857Y-103826761D02*
X102655714Y-103874380D01*
X102893809Y-103874380D01*
X102989047Y-103826761D01*
X103036666Y-103779142D01*
X103084285Y-103683904D01*
X103084285Y-103588666D01*
X103036666Y-103493428D01*
X102989047Y-103445809D01*
X102893809Y-103398190D01*
X102703333Y-103350571D01*
X102608095Y-103302952D01*
X102560476Y-103255333D01*
X102512857Y-103160095D01*
X102512857Y-103064857D01*
X102560476Y-102969619D01*
X102608095Y-102922000D01*
X102703333Y-102874380D01*
X102941428Y-102874380D01*
X103084285Y-102922000D01*
X104036666Y-103874380D02*
X103465238Y-103874380D01*
X103750952Y-103874380D02*
X103750952Y-102874380D01*
X103655714Y-103017238D01*
X103560476Y-103112476D01*
X103465238Y-103160095D01*
X104370000Y-102874380D02*
X104989047Y-102874380D01*
X104655714Y-103255333D01*
X104798571Y-103255333D01*
X104893809Y-103302952D01*
X104941428Y-103350571D01*
X104989047Y-103445809D01*
X104989047Y-103683904D01*
X104941428Y-103779142D01*
X104893809Y-103826761D01*
X104798571Y-103874380D01*
X104512857Y-103874380D01*
X104417619Y-103826761D01*
X104370000Y-103779142D01*
X105560476Y-103302952D02*
X105465238Y-103255333D01*
X105417619Y-103207714D01*
X105370000Y-103112476D01*
X105370000Y-103064857D01*
X105417619Y-102969619D01*
X105465238Y-102922000D01*
X105560476Y-102874380D01*
X105750952Y-102874380D01*
X105846190Y-102922000D01*
X105893809Y-102969619D01*
X105941428Y-103064857D01*
X105941428Y-103112476D01*
X105893809Y-103207714D01*
X105846190Y-103255333D01*
X105750952Y-103302952D01*
X105560476Y-103302952D01*
X105465238Y-103350571D01*
X105417619Y-103398190D01*
X105370000Y-103493428D01*
X105370000Y-103683904D01*
X105417619Y-103779142D01*
X105465238Y-103826761D01*
X105560476Y-103874380D01*
X105750952Y-103874380D01*
X105846190Y-103826761D01*
X105893809Y-103779142D01*
X105941428Y-103683904D01*
X105941428Y-103493428D01*
X105893809Y-103398190D01*
X105846190Y-103350571D01*
X105750952Y-103302952D01*
X102108095Y-91654380D02*
X102108095Y-92463904D01*
X102155714Y-92559142D01*
X102203333Y-92606761D01*
X102298571Y-92654380D01*
X102489047Y-92654380D01*
X102584285Y-92606761D01*
X102631904Y-92559142D01*
X102679523Y-92463904D01*
X102679523Y-91654380D01*
X103631904Y-91654380D02*
X103155714Y-91654380D01*
X103108095Y-92130571D01*
X103155714Y-92082952D01*
X103250952Y-92035333D01*
X103489047Y-92035333D01*
X103584285Y-92082952D01*
X103631904Y-92130571D01*
X103679523Y-92225809D01*
X103679523Y-92463904D01*
X103631904Y-92559142D01*
X103584285Y-92606761D01*
X103489047Y-92654380D01*
X103250952Y-92654380D01*
X103155714Y-92606761D01*
X103108095Y-92559142D01*
%TO.C,U4*%
X145800380Y-54681047D02*
X145800380Y-54014380D01*
X146800380Y-54442952D01*
X146133714Y-53204857D02*
X146800380Y-53204857D01*
X145752761Y-53442952D02*
X146467047Y-53681047D01*
X146467047Y-53062000D01*
X146800380Y-52204857D02*
X146800380Y-52681047D01*
X145800380Y-52681047D01*
X146752761Y-51919142D02*
X146800380Y-51776285D01*
X146800380Y-51538190D01*
X146752761Y-51442952D01*
X146705142Y-51395333D01*
X146609904Y-51347714D01*
X146514666Y-51347714D01*
X146419428Y-51395333D01*
X146371809Y-51442952D01*
X146324190Y-51538190D01*
X146276571Y-51728666D01*
X146228952Y-51823904D01*
X146181333Y-51871523D01*
X146086095Y-51919142D01*
X145990857Y-51919142D01*
X145895619Y-51871523D01*
X145848000Y-51823904D01*
X145800380Y-51728666D01*
X145800380Y-51490571D01*
X145848000Y-51347714D01*
X145800380Y-50442952D02*
X145800380Y-50919142D01*
X146276571Y-50966761D01*
X146228952Y-50919142D01*
X146181333Y-50823904D01*
X146181333Y-50585809D01*
X146228952Y-50490571D01*
X146276571Y-50442952D01*
X146371809Y-50395333D01*
X146609904Y-50395333D01*
X146705142Y-50442952D01*
X146752761Y-50490571D01*
X146800380Y-50585809D01*
X146800380Y-50823904D01*
X146752761Y-50919142D01*
X146705142Y-50966761D01*
X146133714Y-49538190D02*
X146800380Y-49538190D01*
X145752761Y-49776285D02*
X146467047Y-50014380D01*
X146467047Y-49395333D01*
X145800380Y-48823904D02*
X145800380Y-48728666D01*
X145848000Y-48633428D01*
X145895619Y-48585809D01*
X145990857Y-48538190D01*
X146181333Y-48490571D01*
X146419428Y-48490571D01*
X146609904Y-48538190D01*
X146705142Y-48585809D01*
X146752761Y-48633428D01*
X146800380Y-48728666D01*
X146800380Y-48823904D01*
X146752761Y-48919142D01*
X146705142Y-48966761D01*
X146609904Y-49014380D01*
X146419428Y-49062000D01*
X146181333Y-49062000D01*
X145990857Y-49014380D01*
X145895619Y-48966761D01*
X145848000Y-48919142D01*
X145800380Y-48823904D01*
X132040380Y-52323904D02*
X132849904Y-52323904D01*
X132945142Y-52276285D01*
X132992761Y-52228666D01*
X133040380Y-52133428D01*
X133040380Y-51942952D01*
X132992761Y-51847714D01*
X132945142Y-51800095D01*
X132849904Y-51752476D01*
X132040380Y-51752476D01*
X132373714Y-50847714D02*
X133040380Y-50847714D01*
X131992761Y-51085809D02*
X132707047Y-51323904D01*
X132707047Y-50704857D01*
%TO.C,U3*%
X171200380Y-102972857D02*
X171200380Y-102306190D01*
X172200380Y-102734761D01*
X171533714Y-101496666D02*
X172200380Y-101496666D01*
X171152761Y-101734761D02*
X171867047Y-101972857D01*
X171867047Y-101353809D01*
X172200380Y-100496666D02*
X172200380Y-100972857D01*
X171200380Y-100972857D01*
X172152761Y-100210952D02*
X172200380Y-100068095D01*
X172200380Y-99830000D01*
X172152761Y-99734761D01*
X172105142Y-99687142D01*
X172009904Y-99639523D01*
X171914666Y-99639523D01*
X171819428Y-99687142D01*
X171771809Y-99734761D01*
X171724190Y-99830000D01*
X171676571Y-100020476D01*
X171628952Y-100115714D01*
X171581333Y-100163333D01*
X171486095Y-100210952D01*
X171390857Y-100210952D01*
X171295619Y-100163333D01*
X171248000Y-100115714D01*
X171200380Y-100020476D01*
X171200380Y-99782380D01*
X171248000Y-99639523D01*
X171200380Y-99020476D02*
X171200380Y-98925238D01*
X171248000Y-98830000D01*
X171295619Y-98782380D01*
X171390857Y-98734761D01*
X171581333Y-98687142D01*
X171819428Y-98687142D01*
X172009904Y-98734761D01*
X172105142Y-98782380D01*
X172152761Y-98830000D01*
X172200380Y-98925238D01*
X172200380Y-99020476D01*
X172152761Y-99115714D01*
X172105142Y-99163333D01*
X172009904Y-99210952D01*
X171819428Y-99258571D01*
X171581333Y-99258571D01*
X171390857Y-99210952D01*
X171295619Y-99163333D01*
X171248000Y-99115714D01*
X171200380Y-99020476D01*
X171200380Y-98068095D02*
X171200380Y-97972857D01*
X171248000Y-97877619D01*
X171295619Y-97830000D01*
X171390857Y-97782380D01*
X171581333Y-97734761D01*
X171819428Y-97734761D01*
X172009904Y-97782380D01*
X172105142Y-97830000D01*
X172152761Y-97877619D01*
X172200380Y-97972857D01*
X172200380Y-98068095D01*
X172152761Y-98163333D01*
X172105142Y-98210952D01*
X172009904Y-98258571D01*
X171819428Y-98306190D01*
X171581333Y-98306190D01*
X171390857Y-98258571D01*
X171295619Y-98210952D01*
X171248000Y-98163333D01*
X171200380Y-98068095D01*
X161250380Y-101091904D02*
X162059904Y-101091904D01*
X162155142Y-101044285D01*
X162202761Y-100996666D01*
X162250380Y-100901428D01*
X162250380Y-100710952D01*
X162202761Y-100615714D01*
X162155142Y-100568095D01*
X162059904Y-100520476D01*
X161250380Y-100520476D01*
X161250380Y-100139523D02*
X161250380Y-99520476D01*
X161631333Y-99853809D01*
X161631333Y-99710952D01*
X161678952Y-99615714D01*
X161726571Y-99568095D01*
X161821809Y-99520476D01*
X162059904Y-99520476D01*
X162155142Y-99568095D01*
X162202761Y-99615714D01*
X162250380Y-99710952D01*
X162250380Y-99996666D01*
X162202761Y-100091904D01*
X162155142Y-100139523D01*
%TO.C,U2*%
X119384380Y-115672857D02*
X119384380Y-115006190D01*
X120384380Y-115434761D01*
X119717714Y-114196666D02*
X120384380Y-114196666D01*
X119336761Y-114434761D02*
X120051047Y-114672857D01*
X120051047Y-114053809D01*
X120384380Y-113196666D02*
X120384380Y-113672857D01*
X119384380Y-113672857D01*
X120336761Y-112910952D02*
X120384380Y-112768095D01*
X120384380Y-112530000D01*
X120336761Y-112434761D01*
X120289142Y-112387142D01*
X120193904Y-112339523D01*
X120098666Y-112339523D01*
X120003428Y-112387142D01*
X119955809Y-112434761D01*
X119908190Y-112530000D01*
X119860571Y-112720476D01*
X119812952Y-112815714D01*
X119765333Y-112863333D01*
X119670095Y-112910952D01*
X119574857Y-112910952D01*
X119479619Y-112863333D01*
X119432000Y-112815714D01*
X119384380Y-112720476D01*
X119384380Y-112482380D01*
X119432000Y-112339523D01*
X119384380Y-112006190D02*
X119384380Y-111339523D01*
X120384380Y-111768095D01*
X119717714Y-110530000D02*
X120384380Y-110530000D01*
X119336761Y-110768095D02*
X120051047Y-111006190D01*
X120051047Y-110387142D01*
X109434380Y-113791904D02*
X110243904Y-113791904D01*
X110339142Y-113744285D01*
X110386761Y-113696666D01*
X110434380Y-113601428D01*
X110434380Y-113410952D01*
X110386761Y-113315714D01*
X110339142Y-113268095D01*
X110243904Y-113220476D01*
X109434380Y-113220476D01*
X109529619Y-112791904D02*
X109482000Y-112744285D01*
X109434380Y-112649047D01*
X109434380Y-112410952D01*
X109482000Y-112315714D01*
X109529619Y-112268095D01*
X109624857Y-112220476D01*
X109720095Y-112220476D01*
X109862952Y-112268095D01*
X110434380Y-112839523D01*
X110434380Y-112220476D01*
%TO.C,U1*%
X192790380Y-103226857D02*
X192790380Y-102560190D01*
X193790380Y-102988761D01*
X193123714Y-101750666D02*
X193790380Y-101750666D01*
X192742761Y-101988761D02*
X193457047Y-102226857D01*
X193457047Y-101607809D01*
X193790380Y-100750666D02*
X193790380Y-101226857D01*
X192790380Y-101226857D01*
X193742761Y-100464952D02*
X193790380Y-100322095D01*
X193790380Y-100084000D01*
X193742761Y-99988761D01*
X193695142Y-99941142D01*
X193599904Y-99893523D01*
X193504666Y-99893523D01*
X193409428Y-99941142D01*
X193361809Y-99988761D01*
X193314190Y-100084000D01*
X193266571Y-100274476D01*
X193218952Y-100369714D01*
X193171333Y-100417333D01*
X193076095Y-100464952D01*
X192980857Y-100464952D01*
X192885619Y-100417333D01*
X192838000Y-100369714D01*
X192790380Y-100274476D01*
X192790380Y-100036380D01*
X192838000Y-99893523D01*
X192790380Y-99560190D02*
X192790380Y-98893523D01*
X193790380Y-99322095D01*
X193123714Y-98084000D02*
X193790380Y-98084000D01*
X192742761Y-98322095D02*
X193457047Y-98560190D01*
X193457047Y-97941142D01*
X182840380Y-101345904D02*
X183649904Y-101345904D01*
X183745142Y-101298285D01*
X183792761Y-101250666D01*
X183840380Y-101155428D01*
X183840380Y-100964952D01*
X183792761Y-100869714D01*
X183745142Y-100822095D01*
X183649904Y-100774476D01*
X182840380Y-100774476D01*
X183840380Y-99774476D02*
X183840380Y-100345904D01*
X183840380Y-100060190D02*
X182840380Y-100060190D01*
X182983238Y-100155428D01*
X183078476Y-100250666D01*
X183126095Y-100345904D01*
%TO.C,R1*%
X181102095Y-53892380D02*
X180911619Y-53892380D01*
X180816380Y-53940000D01*
X180768761Y-53987619D01*
X180673523Y-54130476D01*
X180625904Y-54320952D01*
X180625904Y-54701904D01*
X180673523Y-54797142D01*
X180721142Y-54844761D01*
X180816380Y-54892380D01*
X181006857Y-54892380D01*
X181102095Y-54844761D01*
X181149714Y-54797142D01*
X181197333Y-54701904D01*
X181197333Y-54463809D01*
X181149714Y-54368571D01*
X181102095Y-54320952D01*
X181006857Y-54273333D01*
X180816380Y-54273333D01*
X180721142Y-54320952D01*
X180673523Y-54368571D01*
X180625904Y-54463809D01*
X181578285Y-53987619D02*
X181625904Y-53940000D01*
X181721142Y-53892380D01*
X181959238Y-53892380D01*
X182054476Y-53940000D01*
X182102095Y-53987619D01*
X182149714Y-54082857D01*
X182149714Y-54178095D01*
X182102095Y-54320952D01*
X181530666Y-54892380D01*
X182149714Y-54892380D01*
X182768761Y-53892380D02*
X182864000Y-53892380D01*
X182959238Y-53940000D01*
X183006857Y-53987619D01*
X183054476Y-54082857D01*
X183102095Y-54273333D01*
X183102095Y-54511428D01*
X183054476Y-54701904D01*
X183006857Y-54797142D01*
X182959238Y-54844761D01*
X182864000Y-54892380D01*
X182768761Y-54892380D01*
X182673523Y-54844761D01*
X182625904Y-54797142D01*
X182578285Y-54701904D01*
X182530666Y-54511428D01*
X182530666Y-54273333D01*
X182578285Y-54082857D01*
X182625904Y-53987619D01*
X182673523Y-53940000D01*
X182768761Y-53892380D01*
X181697333Y-52522380D02*
X181364000Y-52046190D01*
X181125904Y-52522380D02*
X181125904Y-51522380D01*
X181506857Y-51522380D01*
X181602095Y-51570000D01*
X181649714Y-51617619D01*
X181697333Y-51712857D01*
X181697333Y-51855714D01*
X181649714Y-51950952D01*
X181602095Y-51998571D01*
X181506857Y-52046190D01*
X181125904Y-52046190D01*
X182649714Y-52522380D02*
X182078285Y-52522380D01*
X182364000Y-52522380D02*
X182364000Y-51522380D01*
X182268761Y-51665238D01*
X182173523Y-51760476D01*
X182078285Y-51808095D01*
%TO.C,J2*%
X126603714Y-145506761D02*
X126746571Y-145554380D01*
X126984666Y-145554380D01*
X127079904Y-145506761D01*
X127127523Y-145459142D01*
X127175142Y-145363904D01*
X127175142Y-145268666D01*
X127127523Y-145173428D01*
X127079904Y-145125809D01*
X126984666Y-145078190D01*
X126794190Y-145030571D01*
X126698952Y-144982952D01*
X126651333Y-144935333D01*
X126603714Y-144840095D01*
X126603714Y-144744857D01*
X126651333Y-144649619D01*
X126698952Y-144602000D01*
X126794190Y-144554380D01*
X127032285Y-144554380D01*
X127175142Y-144602000D01*
X127603714Y-145030571D02*
X127937047Y-145030571D01*
X128079904Y-145554380D02*
X127603714Y-145554380D01*
X127603714Y-144554380D01*
X128079904Y-144554380D01*
X129079904Y-145554380D02*
X128746571Y-145078190D01*
X128508476Y-145554380D02*
X128508476Y-144554380D01*
X128889428Y-144554380D01*
X128984666Y-144602000D01*
X129032285Y-144649619D01*
X129079904Y-144744857D01*
X129079904Y-144887714D01*
X129032285Y-144982952D01*
X128984666Y-145030571D01*
X128889428Y-145078190D01*
X128508476Y-145078190D01*
X129460857Y-144649619D02*
X129508476Y-144602000D01*
X129603714Y-144554380D01*
X129841809Y-144554380D01*
X129937047Y-144602000D01*
X129984666Y-144649619D01*
X130032285Y-144744857D01*
X130032285Y-144840095D01*
X129984666Y-144982952D01*
X129413238Y-145554380D01*
X130032285Y-145554380D01*
X127984666Y-139969380D02*
X127984666Y-140683666D01*
X127937047Y-140826523D01*
X127841809Y-140921761D01*
X127698952Y-140969380D01*
X127603714Y-140969380D01*
X128413238Y-140064619D02*
X128460857Y-140017000D01*
X128556095Y-139969380D01*
X128794190Y-139969380D01*
X128889428Y-140017000D01*
X128937047Y-140064619D01*
X128984666Y-140159857D01*
X128984666Y-140255095D01*
X128937047Y-140397952D01*
X128365619Y-140969380D01*
X128984666Y-140969380D01*
%TO.C,J1*%
X171561714Y-145760761D02*
X171704571Y-145808380D01*
X171942666Y-145808380D01*
X172037904Y-145760761D01*
X172085523Y-145713142D01*
X172133142Y-145617904D01*
X172133142Y-145522666D01*
X172085523Y-145427428D01*
X172037904Y-145379809D01*
X171942666Y-145332190D01*
X171752190Y-145284571D01*
X171656952Y-145236952D01*
X171609333Y-145189333D01*
X171561714Y-145094095D01*
X171561714Y-144998857D01*
X171609333Y-144903619D01*
X171656952Y-144856000D01*
X171752190Y-144808380D01*
X171990285Y-144808380D01*
X172133142Y-144856000D01*
X172561714Y-145284571D02*
X172895047Y-145284571D01*
X173037904Y-145808380D02*
X172561714Y-145808380D01*
X172561714Y-144808380D01*
X173037904Y-144808380D01*
X174037904Y-145808380D02*
X173704571Y-145332190D01*
X173466476Y-145808380D02*
X173466476Y-144808380D01*
X173847428Y-144808380D01*
X173942666Y-144856000D01*
X173990285Y-144903619D01*
X174037904Y-144998857D01*
X174037904Y-145141714D01*
X173990285Y-145236952D01*
X173942666Y-145284571D01*
X173847428Y-145332190D01*
X173466476Y-145332190D01*
X174990285Y-145808380D02*
X174418857Y-145808380D01*
X174704571Y-145808380D02*
X174704571Y-144808380D01*
X174609333Y-144951238D01*
X174514095Y-145046476D01*
X174418857Y-145094095D01*
X172942666Y-140223380D02*
X172942666Y-140937666D01*
X172895047Y-141080523D01*
X172799809Y-141175761D01*
X172656952Y-141223380D01*
X172561714Y-141223380D01*
X173942666Y-141223380D02*
X173371238Y-141223380D01*
X173656952Y-141223380D02*
X173656952Y-140223380D01*
X173561714Y-140366238D01*
X173466476Y-140461476D01*
X173371238Y-140509095D01*
%TO.C,IC2*%
X188869142Y-79438000D02*
X188916761Y-79485619D01*
X188964380Y-79628476D01*
X188964380Y-79723714D01*
X188916761Y-79866571D01*
X188821523Y-79961809D01*
X188726285Y-80009428D01*
X188535809Y-80057047D01*
X188392952Y-80057047D01*
X188202476Y-80009428D01*
X188107238Y-79961809D01*
X188012000Y-79866571D01*
X187964380Y-79723714D01*
X187964380Y-79628476D01*
X188012000Y-79485619D01*
X188059619Y-79438000D01*
X187964380Y-79152285D02*
X187964380Y-78580857D01*
X188964380Y-78866571D02*
X187964380Y-78866571D01*
X188869142Y-77676095D02*
X188916761Y-77723714D01*
X188964380Y-77866571D01*
X188964380Y-77961809D01*
X188916761Y-78104666D01*
X188821523Y-78199904D01*
X188726285Y-78247523D01*
X188535809Y-78295142D01*
X188392952Y-78295142D01*
X188202476Y-78247523D01*
X188107238Y-78199904D01*
X188012000Y-78104666D01*
X187964380Y-77961809D01*
X187964380Y-77866571D01*
X188012000Y-77723714D01*
X188059619Y-77676095D01*
X188583428Y-77247523D02*
X188583428Y-76485619D01*
X188964380Y-76009428D02*
X187964380Y-76009428D01*
X187964380Y-75771333D01*
X188012000Y-75628476D01*
X188107238Y-75533238D01*
X188202476Y-75485619D01*
X188392952Y-75438000D01*
X188535809Y-75438000D01*
X188726285Y-75485619D01*
X188821523Y-75533238D01*
X188916761Y-75628476D01*
X188964380Y-75771333D01*
X188964380Y-76009428D01*
X188964380Y-75009428D02*
X187964380Y-75009428D01*
X188964380Y-74533238D02*
X187964380Y-74533238D01*
X187964380Y-74152285D01*
X188012000Y-74057047D01*
X188059619Y-74009428D01*
X188154857Y-73961809D01*
X188297714Y-73961809D01*
X188392952Y-74009428D01*
X188440571Y-74057047D01*
X188488190Y-74152285D01*
X188488190Y-74533238D01*
X188583428Y-73533238D02*
X188583428Y-72771333D01*
X188059619Y-72342761D02*
X188012000Y-72295142D01*
X187964380Y-72199904D01*
X187964380Y-71961809D01*
X188012000Y-71866571D01*
X188059619Y-71818952D01*
X188154857Y-71771333D01*
X188250095Y-71771333D01*
X188392952Y-71818952D01*
X188964380Y-72390380D01*
X188964380Y-71771333D01*
X188392952Y-71199904D02*
X188345333Y-71295142D01*
X188297714Y-71342761D01*
X188202476Y-71390380D01*
X188154857Y-71390380D01*
X188059619Y-71342761D01*
X188012000Y-71295142D01*
X187964380Y-71199904D01*
X187964380Y-71009428D01*
X188012000Y-70914190D01*
X188059619Y-70866571D01*
X188154857Y-70818952D01*
X188202476Y-70818952D01*
X188297714Y-70866571D01*
X188345333Y-70914190D01*
X188392952Y-71009428D01*
X188392952Y-71199904D01*
X188440571Y-71295142D01*
X188488190Y-71342761D01*
X188583428Y-71390380D01*
X188773904Y-71390380D01*
X188869142Y-71342761D01*
X188916761Y-71295142D01*
X188964380Y-71199904D01*
X188964380Y-71009428D01*
X188916761Y-70914190D01*
X188869142Y-70866571D01*
X188773904Y-70818952D01*
X188583428Y-70818952D01*
X188488190Y-70866571D01*
X188440571Y-70914190D01*
X188392952Y-71009428D01*
X170124380Y-76414190D02*
X169124380Y-76414190D01*
X170029142Y-75366571D02*
X170076761Y-75414190D01*
X170124380Y-75557047D01*
X170124380Y-75652285D01*
X170076761Y-75795142D01*
X169981523Y-75890380D01*
X169886285Y-75938000D01*
X169695809Y-75985619D01*
X169552952Y-75985619D01*
X169362476Y-75938000D01*
X169267238Y-75890380D01*
X169172000Y-75795142D01*
X169124380Y-75652285D01*
X169124380Y-75557047D01*
X169172000Y-75414190D01*
X169219619Y-75366571D01*
X169219619Y-74985619D02*
X169172000Y-74938000D01*
X169124380Y-74842761D01*
X169124380Y-74604666D01*
X169172000Y-74509428D01*
X169219619Y-74461809D01*
X169314857Y-74414190D01*
X169410095Y-74414190D01*
X169552952Y-74461809D01*
X170124380Y-75033238D01*
X170124380Y-74414190D01*
%TO.C,IC1*%
X204156761Y-54990380D02*
X204204380Y-54847523D01*
X204204380Y-54609428D01*
X204156761Y-54514190D01*
X204109142Y-54466571D01*
X204013904Y-54418952D01*
X203918666Y-54418952D01*
X203823428Y-54466571D01*
X203775809Y-54514190D01*
X203728190Y-54609428D01*
X203680571Y-54799904D01*
X203632952Y-54895142D01*
X203585333Y-54942761D01*
X203490095Y-54990380D01*
X203394857Y-54990380D01*
X203299619Y-54942761D01*
X203252000Y-54895142D01*
X203204380Y-54799904D01*
X203204380Y-54561809D01*
X203252000Y-54418952D01*
X204204380Y-53990380D02*
X203204380Y-53990380D01*
X203204380Y-53323714D02*
X203204380Y-53133238D01*
X203252000Y-53038000D01*
X203347238Y-52942761D01*
X203537714Y-52895142D01*
X203871047Y-52895142D01*
X204061523Y-52942761D01*
X204156761Y-53038000D01*
X204204380Y-53133238D01*
X204204380Y-53323714D01*
X204156761Y-53418952D01*
X204061523Y-53514190D01*
X203871047Y-53561809D01*
X203537714Y-53561809D01*
X203347238Y-53514190D01*
X203252000Y-53418952D01*
X203204380Y-53323714D01*
X203299619Y-52514190D02*
X203252000Y-52466571D01*
X203204380Y-52371333D01*
X203204380Y-52133238D01*
X203252000Y-52038000D01*
X203299619Y-51990380D01*
X203394857Y-51942761D01*
X203490095Y-51942761D01*
X203632952Y-51990380D01*
X204204380Y-52561809D01*
X204204380Y-51942761D01*
X203823428Y-51514190D02*
X203823428Y-50752285D01*
X204204380Y-50276095D02*
X203204380Y-50276095D01*
X203204380Y-50038000D01*
X203252000Y-49895142D01*
X203347238Y-49799904D01*
X203442476Y-49752285D01*
X203632952Y-49704666D01*
X203775809Y-49704666D01*
X203966285Y-49752285D01*
X204061523Y-49799904D01*
X204156761Y-49895142D01*
X204204380Y-50038000D01*
X204204380Y-50276095D01*
X204204380Y-49276095D02*
X203204380Y-49276095D01*
X204204380Y-48799904D02*
X203204380Y-48799904D01*
X203204380Y-48418952D01*
X203252000Y-48323714D01*
X203299619Y-48276095D01*
X203394857Y-48228476D01*
X203537714Y-48228476D01*
X203632952Y-48276095D01*
X203680571Y-48323714D01*
X203728190Y-48418952D01*
X203728190Y-48799904D01*
X203823428Y-47799904D02*
X203823428Y-47038000D01*
X203537714Y-46133238D02*
X204204380Y-46133238D01*
X203156761Y-46371333D02*
X203871047Y-46609428D01*
X203871047Y-45990380D01*
X203204380Y-45418952D02*
X203204380Y-45323714D01*
X203252000Y-45228476D01*
X203299619Y-45180857D01*
X203394857Y-45133238D01*
X203585333Y-45085619D01*
X203823428Y-45085619D01*
X204013904Y-45133238D01*
X204109142Y-45180857D01*
X204156761Y-45228476D01*
X204204380Y-45323714D01*
X204204380Y-45418952D01*
X204156761Y-45514190D01*
X204109142Y-45561809D01*
X204013904Y-45609428D01*
X203823428Y-45657047D01*
X203585333Y-45657047D01*
X203394857Y-45609428D01*
X203299619Y-45561809D01*
X203252000Y-45514190D01*
X203204380Y-45418952D01*
X177744380Y-51014190D02*
X176744380Y-51014190D01*
X177649142Y-49966571D02*
X177696761Y-50014190D01*
X177744380Y-50157047D01*
X177744380Y-50252285D01*
X177696761Y-50395142D01*
X177601523Y-50490380D01*
X177506285Y-50538000D01*
X177315809Y-50585619D01*
X177172952Y-50585619D01*
X176982476Y-50538000D01*
X176887238Y-50490380D01*
X176792000Y-50395142D01*
X176744380Y-50252285D01*
X176744380Y-50157047D01*
X176792000Y-50014190D01*
X176839619Y-49966571D01*
X177744380Y-49014190D02*
X177744380Y-49585619D01*
X177744380Y-49299904D02*
X176744380Y-49299904D01*
X176887238Y-49395142D01*
X176982476Y-49490380D01*
X177030095Y-49585619D01*
%TO.C,D1*%
X104767142Y-131666380D02*
X104290952Y-131666380D01*
X104290952Y-130666380D01*
X105100476Y-131142571D02*
X105433809Y-131142571D01*
X105576666Y-131666380D02*
X105100476Y-131666380D01*
X105100476Y-130666380D01*
X105576666Y-130666380D01*
X106005238Y-131666380D02*
X106005238Y-130666380D01*
X106243333Y-130666380D01*
X106386190Y-130714000D01*
X106481428Y-130809238D01*
X106529047Y-130904476D01*
X106576666Y-131094952D01*
X106576666Y-131237809D01*
X106529047Y-131428285D01*
X106481428Y-131523523D01*
X106386190Y-131618761D01*
X106243333Y-131666380D01*
X106005238Y-131666380D01*
D13*
X104799523Y-127615904D02*
X104799523Y-126815904D01*
X104990000Y-126815904D01*
X105104285Y-126854000D01*
X105180476Y-126930190D01*
X105218571Y-127006380D01*
X105256666Y-127158761D01*
X105256666Y-127273047D01*
X105218571Y-127425428D01*
X105180476Y-127501619D01*
X105104285Y-127577809D01*
X104990000Y-127615904D01*
X104799523Y-127615904D01*
X106018571Y-127615904D02*
X105561428Y-127615904D01*
X105790000Y-127615904D02*
X105790000Y-126815904D01*
X105713809Y-126930190D01*
X105637619Y-127006380D01*
X105561428Y-127044476D01*
%TO.C,C2*%
D11*
X97841904Y-26964380D02*
X97365714Y-26964380D01*
X97318095Y-27440571D01*
X97365714Y-27392952D01*
X97460952Y-27345333D01*
X97699047Y-27345333D01*
X97794285Y-27392952D01*
X97841904Y-27440571D01*
X97889523Y-27535809D01*
X97889523Y-27773904D01*
X97841904Y-27869142D01*
X97794285Y-27916761D01*
X97699047Y-27964380D01*
X97460952Y-27964380D01*
X97365714Y-27916761D01*
X97318095Y-27869142D01*
X98746666Y-26964380D02*
X98556190Y-26964380D01*
X98460952Y-27012000D01*
X98413333Y-27059619D01*
X98318095Y-27202476D01*
X98270476Y-27392952D01*
X98270476Y-27773904D01*
X98318095Y-27869142D01*
X98365714Y-27916761D01*
X98460952Y-27964380D01*
X98651428Y-27964380D01*
X98746666Y-27916761D01*
X98794285Y-27869142D01*
X98841904Y-27773904D01*
X98841904Y-27535809D01*
X98794285Y-27440571D01*
X98746666Y-27392952D01*
X98651428Y-27345333D01*
X98460952Y-27345333D01*
X98365714Y-27392952D01*
X98318095Y-27440571D01*
X98270476Y-27535809D01*
X99460952Y-26964380D02*
X99556190Y-26964380D01*
X99651428Y-27012000D01*
X99699047Y-27059619D01*
X99746666Y-27154857D01*
X99794285Y-27345333D01*
X99794285Y-27583428D01*
X99746666Y-27773904D01*
X99699047Y-27869142D01*
X99651428Y-27916761D01*
X99556190Y-27964380D01*
X99460952Y-27964380D01*
X99365714Y-27916761D01*
X99318095Y-27869142D01*
X99270476Y-27773904D01*
X99222857Y-27583428D01*
X99222857Y-27345333D01*
X99270476Y-27154857D01*
X99318095Y-27059619D01*
X99365714Y-27012000D01*
X99460952Y-26964380D01*
X100222857Y-27297714D02*
X100222857Y-28297714D01*
X100699047Y-27821523D02*
X100746666Y-27916761D01*
X100841904Y-27964380D01*
X100222857Y-27821523D02*
X100270476Y-27916761D01*
X100365714Y-27964380D01*
X100556190Y-27964380D01*
X100651428Y-27916761D01*
X100699047Y-27821523D01*
X100699047Y-27297714D01*
X98913333Y-32869142D02*
X98865714Y-32916761D01*
X98722857Y-32964380D01*
X98627619Y-32964380D01*
X98484761Y-32916761D01*
X98389523Y-32821523D01*
X98341904Y-32726285D01*
X98294285Y-32535809D01*
X98294285Y-32392952D01*
X98341904Y-32202476D01*
X98389523Y-32107238D01*
X98484761Y-32012000D01*
X98627619Y-31964380D01*
X98722857Y-31964380D01*
X98865714Y-32012000D01*
X98913333Y-32059619D01*
X99294285Y-32059619D02*
X99341904Y-32012000D01*
X99437142Y-31964380D01*
X99675238Y-31964380D01*
X99770476Y-32012000D01*
X99818095Y-32059619D01*
X99865714Y-32154857D01*
X99865714Y-32250095D01*
X99818095Y-32392952D01*
X99246666Y-32964380D01*
X99865714Y-32964380D01*
%TD*%
M02*
