%TF.GenerationSoftware,KiCad,Pcbnew,(5.1.10)-1*%
%TF.CreationDate,2024-05-08T08:23:43+02:00*%
%TF.ProjectId,M003,4d303033-2e6b-4696-9361-645f70636258,rev?*%
%TF.SameCoordinates,Original*%
%TF.FileFunction,Other,Fab,Bot*%
%FSLAX46Y46*%
G04 Gerber Fmt 4.6, Leading zero omitted, Abs format (unit mm)*
G04 Created by KiCad (PCBNEW (5.1.10)-1) date 2024-05-08 08:23:43*
%MOMM*%
%LPD*%
G01*
G04 APERTURE LIST*
%ADD10C,0.100000*%
%ADD11C,0.254000*%
%ADD12C,0.150000*%
%ADD13C,0.120000*%
G04 APERTURE END LIST*
D10*
%TO.C,IC3*%
X157560000Y-119320000D02*
X158830000Y-118050000D01*
X143430000Y-119320000D02*
X158830000Y-119320000D01*
X143430000Y-111820000D02*
X143430000Y-119320000D01*
X158830000Y-111820000D02*
X143430000Y-111820000D01*
X158830000Y-119320000D02*
X158830000Y-111820000D01*
%TO.C,C21*%
X144704000Y-126726000D02*
X147904000Y-126726000D01*
X144704000Y-124226000D02*
X144704000Y-126726000D01*
X147904000Y-124226000D02*
X144704000Y-124226000D01*
X147904000Y-126726000D02*
X147904000Y-124226000D01*
%TO.C,C10*%
X162738000Y-134854000D02*
X165938000Y-134854000D01*
X162738000Y-132354000D02*
X162738000Y-134854000D01*
X165938000Y-132354000D02*
X162738000Y-132354000D01*
X165938000Y-134854000D02*
X165938000Y-132354000D01*
%TO.C,C9*%
X150444000Y-132354000D02*
X147244000Y-132354000D01*
X150444000Y-134854000D02*
X150444000Y-132354000D01*
X147244000Y-134854000D02*
X150444000Y-134854000D01*
X147244000Y-132354000D02*
X147244000Y-134854000D01*
%TO.C,C3*%
X139466000Y-108128000D02*
X139466000Y-111328000D01*
X141966000Y-108128000D02*
X139466000Y-108128000D01*
X141966000Y-111328000D02*
X141966000Y-108128000D01*
X139466000Y-111328000D02*
X141966000Y-111328000D01*
%TD*%
%TO.C,IC3*%
D11*
X151704523Y-114330238D02*
X150434523Y-114330238D01*
X151583571Y-115660714D02*
X151644047Y-115600238D01*
X151704523Y-115418809D01*
X151704523Y-115297857D01*
X151644047Y-115116428D01*
X151523095Y-114995476D01*
X151402142Y-114935000D01*
X151160238Y-114874523D01*
X150978809Y-114874523D01*
X150736904Y-114935000D01*
X150615952Y-114995476D01*
X150495000Y-115116428D01*
X150434523Y-115297857D01*
X150434523Y-115418809D01*
X150495000Y-115600238D01*
X150555476Y-115660714D01*
X150434523Y-116084047D02*
X150434523Y-116870238D01*
X150918333Y-116446904D01*
X150918333Y-116628333D01*
X150978809Y-116749285D01*
X151039285Y-116809761D01*
X151160238Y-116870238D01*
X151462619Y-116870238D01*
X151583571Y-116809761D01*
X151644047Y-116749285D01*
X151704523Y-116628333D01*
X151704523Y-116265476D01*
X151644047Y-116144523D01*
X151583571Y-116084047D01*
%TO.C,C21*%
D12*
X146542095Y-128228380D02*
X147113523Y-128228380D01*
X146827809Y-128228380D02*
X146827809Y-127228380D01*
X146923047Y-127371238D01*
X147018285Y-127466476D01*
X147113523Y-127514095D01*
X146113523Y-127561714D02*
X146113523Y-128561714D01*
X145637333Y-128085523D02*
X145589714Y-128180761D01*
X145494476Y-128228380D01*
X146113523Y-128085523D02*
X146065904Y-128180761D01*
X145970666Y-128228380D01*
X145780190Y-128228380D01*
X145684952Y-128180761D01*
X145637333Y-128085523D01*
X145637333Y-127561714D01*
D13*
X146818285Y-125761714D02*
X146856380Y-125799809D01*
X146970666Y-125837904D01*
X147046857Y-125837904D01*
X147161142Y-125799809D01*
X147237333Y-125723619D01*
X147275428Y-125647428D01*
X147313523Y-125495047D01*
X147313523Y-125380761D01*
X147275428Y-125228380D01*
X147237333Y-125152190D01*
X147161142Y-125076000D01*
X147046857Y-125037904D01*
X146970666Y-125037904D01*
X146856380Y-125076000D01*
X146818285Y-125114095D01*
X146513523Y-125114095D02*
X146475428Y-125076000D01*
X146399238Y-125037904D01*
X146208761Y-125037904D01*
X146132571Y-125076000D01*
X146094476Y-125114095D01*
X146056380Y-125190285D01*
X146056380Y-125266476D01*
X146094476Y-125380761D01*
X146551619Y-125837904D01*
X146056380Y-125837904D01*
X145294476Y-125837904D02*
X145751619Y-125837904D01*
X145523047Y-125837904D02*
X145523047Y-125037904D01*
X145599238Y-125152190D01*
X145675428Y-125228380D01*
X145751619Y-125266476D01*
%TO.C,C10*%
D12*
X164576095Y-136356380D02*
X165147523Y-136356380D01*
X164861809Y-136356380D02*
X164861809Y-135356380D01*
X164957047Y-135499238D01*
X165052285Y-135594476D01*
X165147523Y-135642095D01*
X164147523Y-135689714D02*
X164147523Y-136689714D01*
X163671333Y-136213523D02*
X163623714Y-136308761D01*
X163528476Y-136356380D01*
X164147523Y-136213523D02*
X164099904Y-136308761D01*
X164004666Y-136356380D01*
X163814190Y-136356380D01*
X163718952Y-136308761D01*
X163671333Y-136213523D01*
X163671333Y-135689714D01*
D13*
X164852285Y-133889714D02*
X164890380Y-133927809D01*
X165004666Y-133965904D01*
X165080857Y-133965904D01*
X165195142Y-133927809D01*
X165271333Y-133851619D01*
X165309428Y-133775428D01*
X165347523Y-133623047D01*
X165347523Y-133508761D01*
X165309428Y-133356380D01*
X165271333Y-133280190D01*
X165195142Y-133204000D01*
X165080857Y-133165904D01*
X165004666Y-133165904D01*
X164890380Y-133204000D01*
X164852285Y-133242095D01*
X164090380Y-133965904D02*
X164547523Y-133965904D01*
X164318952Y-133965904D02*
X164318952Y-133165904D01*
X164395142Y-133280190D01*
X164471333Y-133356380D01*
X164547523Y-133394476D01*
X163595142Y-133165904D02*
X163518952Y-133165904D01*
X163442761Y-133204000D01*
X163404666Y-133242095D01*
X163366571Y-133318285D01*
X163328476Y-133470666D01*
X163328476Y-133661142D01*
X163366571Y-133813523D01*
X163404666Y-133889714D01*
X163442761Y-133927809D01*
X163518952Y-133965904D01*
X163595142Y-133965904D01*
X163671333Y-133927809D01*
X163709428Y-133889714D01*
X163747523Y-133813523D01*
X163785619Y-133661142D01*
X163785619Y-133470666D01*
X163747523Y-133318285D01*
X163709428Y-133242095D01*
X163671333Y-133204000D01*
X163595142Y-133165904D01*
%TO.C,C9*%
D12*
X149082095Y-131756380D02*
X149653523Y-131756380D01*
X149367809Y-131756380D02*
X149367809Y-130756380D01*
X149463047Y-130899238D01*
X149558285Y-130994476D01*
X149653523Y-131042095D01*
X148653523Y-131089714D02*
X148653523Y-132089714D01*
X148177333Y-131613523D02*
X148129714Y-131708761D01*
X148034476Y-131756380D01*
X148653523Y-131613523D02*
X148605904Y-131708761D01*
X148510666Y-131756380D01*
X148320190Y-131756380D01*
X148224952Y-131708761D01*
X148177333Y-131613523D01*
X148177333Y-131089714D01*
D13*
X148977333Y-133889714D02*
X149015428Y-133927809D01*
X149129714Y-133965904D01*
X149205904Y-133965904D01*
X149320190Y-133927809D01*
X149396380Y-133851619D01*
X149434476Y-133775428D01*
X149472571Y-133623047D01*
X149472571Y-133508761D01*
X149434476Y-133356380D01*
X149396380Y-133280190D01*
X149320190Y-133204000D01*
X149205904Y-133165904D01*
X149129714Y-133165904D01*
X149015428Y-133204000D01*
X148977333Y-133242095D01*
X148596380Y-133965904D02*
X148444000Y-133965904D01*
X148367809Y-133927809D01*
X148329714Y-133889714D01*
X148253523Y-133775428D01*
X148215428Y-133623047D01*
X148215428Y-133318285D01*
X148253523Y-133242095D01*
X148291619Y-133204000D01*
X148367809Y-133165904D01*
X148520190Y-133165904D01*
X148596380Y-133204000D01*
X148634476Y-133242095D01*
X148672571Y-133318285D01*
X148672571Y-133508761D01*
X148634476Y-133584952D01*
X148596380Y-133623047D01*
X148520190Y-133661142D01*
X148367809Y-133661142D01*
X148291619Y-133623047D01*
X148253523Y-133584952D01*
X148215428Y-133508761D01*
%TO.C,C3*%
D12*
X138868380Y-109489904D02*
X138868380Y-108918476D01*
X138868380Y-109204190D02*
X137868380Y-109204190D01*
X138011238Y-109108952D01*
X138106476Y-109013714D01*
X138154095Y-108918476D01*
X138201714Y-109918476D02*
X139201714Y-109918476D01*
X138725523Y-110394666D02*
X138820761Y-110442285D01*
X138868380Y-110537523D01*
X138725523Y-109918476D02*
X138820761Y-109966095D01*
X138868380Y-110061333D01*
X138868380Y-110251809D01*
X138820761Y-110347047D01*
X138725523Y-110394666D01*
X138201714Y-110394666D01*
D13*
X141001714Y-109594666D02*
X141039809Y-109556571D01*
X141077904Y-109442285D01*
X141077904Y-109366095D01*
X141039809Y-109251809D01*
X140963619Y-109175619D01*
X140887428Y-109137523D01*
X140735047Y-109099428D01*
X140620761Y-109099428D01*
X140468380Y-109137523D01*
X140392190Y-109175619D01*
X140316000Y-109251809D01*
X140277904Y-109366095D01*
X140277904Y-109442285D01*
X140316000Y-109556571D01*
X140354095Y-109594666D01*
X140277904Y-109861333D02*
X140277904Y-110356571D01*
X140582666Y-110089904D01*
X140582666Y-110204190D01*
X140620761Y-110280380D01*
X140658857Y-110318476D01*
X140735047Y-110356571D01*
X140925523Y-110356571D01*
X141001714Y-110318476D01*
X141039809Y-110280380D01*
X141077904Y-110204190D01*
X141077904Y-109975619D01*
X141039809Y-109899428D01*
X141001714Y-109861333D01*
%TD*%
M02*
