M48
; DRILL file {KiCad (5.1.10)-1} date 05/08/24 08:23:37
; FORMAT={-:-/ absolute / inch / decimal}
; #@! TF.CreationDate,2024-05-08T08:23:37+02:00
; #@! TF.GenerationSoftware,Kicad,Pcbnew,(5.1.10)-1
; #@! TF.FileFunction,Plated,1,2,PTH
FMAT,2
INCH
T1C0.0157
T2C0.0315
T3C0.0354
T4C0.0394
T5C0.1260
%
G90
G05
T1
X3.75Y-2.12
X3.75Y-2.84
X3.8916Y-4.2084
X3.99Y-3.28
X4.0Y-1.62
X4.0Y-2.43
X4.07Y-1.97
X4.07Y-3.93
X4.13Y-4.5
X4.27Y-4.18
X4.29Y-1.54
X4.3057Y-2.5957
X4.33Y-1.62
X4.33Y-1.88
X4.36Y-5.01
X4.38Y-1.57
X4.38Y-2.52
X4.3914Y-2.79
X4.3957Y-2.6957
X4.4Y-4.17
X4.42Y-5.12
X4.42Y-5.23
X4.43Y-1.29
X4.43Y-2.69
X4.43Y-4.0
X4.43Y-4.09
X4.4357Y-2.8957
X4.4357Y-2.9957
X4.46Y-1.42
X4.46Y-4.18
X4.47Y-4.22
X4.4743Y-3.2357
X4.49Y-1.88
X4.5Y-1.07
X4.52Y-1.36
X4.52Y-3.34
X4.53Y-4.5
X4.5384Y-0.8116
X4.5557Y-3.6057
X4.56Y-4.03
X4.5715Y-1.3885
X4.58Y-4.39
X4.59Y-2.39
X4.6Y-3.92
X4.6085Y-2.2415
X4.61Y-1.17
X4.63Y-3.43
X4.63Y-4.92
X4.632Y-3.228
X4.65Y-1.21
X4.65Y-2.74
X4.66Y-2.79
X4.66Y-3.61
X4.69Y-1.79
X4.69Y-4.22
X4.69Y-4.26
X4.76Y-3.33
X4.77Y-2.02
X4.77Y-4.39
X4.78Y-1.07
X4.78Y-1.66
X4.8Y-3.92
X4.8143Y-1.2543
X4.83Y-4.35
X4.8338Y-4.9238
X4.8338Y-5.1362
X4.85Y-2.02
X4.85Y-3.96
X4.86Y-2.27
X4.86Y-3.33
X4.87Y-1.6
X4.92Y-1.73
X4.94Y-2.03
X4.9514Y-4.4186
X4.9557Y-3.7043
X4.96Y-2.38
X4.96Y-3.02
X4.96Y-3.27
X4.97Y-2.64
X4.98Y-1.06
X4.98Y-1.54
X5.0Y-4.03
X5.0157Y-2.0257
X5.0257Y-1.3243
X5.05Y-3.89
X5.06Y-2.91
X5.06Y-3.31
X5.07Y-1.66
X5.07Y-2.03
X5.08Y-1.57
X5.1Y-4.26
X5.12Y-2.64
X5.13Y-1.75
X5.13Y-3.05
X5.14Y-2.03
X5.16Y-3.89
X5.1685Y-4.1915
X5.17Y-1.79
X5.18Y-2.67
X5.19Y-1.06
X5.19Y-1.48
X5.2143Y-1.5543
X5.2157Y-2.8857
X5.22Y-2.96
X5.26Y-2.06
X5.26Y-3.08
X5.26Y-3.53
X5.27Y-4.53
X5.28Y-1.97
X5.28Y-4.01
X5.28Y-4.81
X5.29Y-1.06
X5.29Y-1.64
X5.29Y-2.02
X5.3063Y-4.7637
X5.31Y-4.44
X5.3143Y-1.6843
X5.34Y-1.58
X5.34Y-3.72
X5.35Y-3.27
X5.35Y-4.25
X5.355Y-2.595
X5.355Y-2.665
X5.36Y-2.42
X5.36Y-4.66
X5.37Y-1.06
X5.37Y-1.73
X5.37Y-1.79
X5.38Y-3.89
X5.39Y-4.61
X5.4043Y-2.3857
X5.41Y-3.07
X5.41Y-3.68
X5.415Y-2.665
X5.4257Y-1.5243
X5.43Y-4.89
X5.4393Y-4.5907
X5.46Y-2.72
X5.47Y-3.63
X5.47Y-4.63
X5.47Y-4.85
X5.48Y-1.05
X5.48Y-1.25
X5.48Y-1.98
X5.48Y-3.97
X5.52Y-2.28
X5.5214Y-1.48
X5.54Y-1.42
X5.56Y-3.06
X5.5628Y-3.5772
X5.59Y-1.05
X5.59Y-1.29
X5.6Y-3.02
X5.6143Y-2.7143
X5.62Y-1.6
X5.63Y-4.67
X5.64Y-1.36
X5.64Y-5.23
X5.655Y-3.955
X5.66Y-3.52
X5.66Y-5.02
X5.67Y-2.06
X5.67Y-4.88
X5.68Y-1.04
X5.68Y-1.68
X5.68Y-4.79
X5.6857Y-3.7143
X5.72Y-4.79
X5.72Y-5.2
X5.73Y-1.38
X5.73Y-1.64
X5.73Y-1.94
X5.73Y-3.06
X5.73Y-4.26
X5.73Y-4.32
X5.75Y-4.67
X5.76Y-2.89
X5.76Y-3.54
X5.76Y-3.67
X5.77Y-2.0
X5.7715Y-1.1415
X5.775Y-4.305
X5.775Y-4.785
X5.78Y-4.89
X5.7894Y-3.1406
X5.79Y-4.43
X5.79Y-4.62
X5.818Y-3.228
X5.83Y-3.89
X5.83Y-3.9578
X5.83Y-4.79
X5.83Y-5.18
X5.84Y-3.34
X5.84Y-3.54
X5.8401Y-3.6799
X5.85Y-4.01
X5.8515Y-1.4215
X5.8515Y-2.8415
X5.875Y-4.685
X5.88Y-1.83
X5.88Y-3.95
X5.88Y-4.79
X5.88Y-5.12
X5.9Y-3.13
X5.9085Y-3.5115
X5.91Y-1.76
X5.91Y-2.77
X5.91Y-4.43
X5.925Y-4.315
X5.93Y-2.68
X5.93Y-3.37
X5.93Y-4.24
X5.9543Y-2.9257
X5.96Y-1.05
X5.96Y-1.17
X5.96Y-2.81
X5.96Y-2.99
X5.96Y-3.16
X5.9601Y-3.4099
X5.9601Y-3.6799
X5.965Y-3.315
X5.965Y-4.555
X5.975Y-4.415
X5.98Y-2.75
X5.9885Y-2.8415
X5.99Y-3.48
X6.01Y-4.23
X6.02Y-5.02
X6.02Y-5.26
X6.025Y-4.415
X6.025Y-4.575
X6.03Y-1.32
X6.03Y-1.38
X6.03Y-2.13
X6.03Y-2.37
X6.03Y-3.49
X6.07Y-3.54
X6.07Y-3.66
X6.07Y-4.01
X6.0857Y-1.2543
X6.09Y-4.57
X6.09Y-4.67
X6.11Y-3.6314
X6.125Y-4.795
X6.13Y-1.41
X6.13Y-2.75
X6.13Y-4.4172
X6.13Y-4.5
X6.13Y-4.91
X6.1743Y-3.0657
X6.175Y-4.415
X6.175Y-4.535
X6.18Y-1.27
X6.18Y-4.79
X6.18Y-4.87
X6.2143Y-3.5843
X6.23Y-1.45
X6.23Y-2.37
X6.23Y-4.44
X6.27Y-3.53
X6.27Y-4.18
X6.2743Y-3.1157
X6.28Y-1.3
X6.315Y-3.865
X6.33Y-1.48
X6.33Y-2.51
X6.33Y-2.79
X6.33Y-4.24
X6.35Y-2.93
X6.35Y-3.03
X6.37Y-3.95
X6.38Y-1.06
X6.38Y-1.21
X6.38Y-1.33
X6.38Y-2.13
X6.39Y-2.51
X6.4Y-2.79
X6.41Y-3.95
X6.4284Y-3.4384
X6.43Y-1.76
X6.43Y-2.4
X6.435Y-4.985
X6.45Y-4.48
X6.4543Y-4.6043
X6.4555Y-4.7355
X6.46Y-4.83
X6.47Y-3.91
X6.48Y-3.16
X6.48Y-3.56
X6.52Y-2.78
X6.52Y-2.88
X6.5281Y-4.9919
X6.5281Y-5.1319
X6.5281Y-5.1819
X6.53Y-1.83
X6.53Y-2.5
X6.54Y-1.55
X6.55Y-2.92
X6.58Y-1.05
X6.58Y-1.18
X6.58Y-1.88
X6.58Y-4.28
X6.63Y-1.52
X6.63Y-1.99
X6.63Y-2.47
X6.63Y-2.95
X6.67Y-3.61
X6.67Y-3.95
X6.68Y-1.05
X6.68Y-1.23
X6.68Y-2.37
X6.7Y-3.03
X6.7Y-4.91
X6.71Y-3.67
X6.73Y-1.38
X6.73Y-2.11
X6.73Y-2.44
X6.7643Y-3.8743
X6.7743Y-1.8443
X6.78Y-1.05
X6.78Y-1.26
X6.78Y-2.8
X6.79Y-3.81
X6.81Y-2.4
X6.82Y-1.41
X6.83Y-1.88
X6.83Y-2.05
X6.83Y-2.53
X6.84Y-3.48
X6.84Y-4.0
X6.8743Y-2.4043
X6.88Y-1.05
X6.88Y-1.29
X6.88Y-2.09
X6.892Y-3.428
X6.92Y-1.45
X6.92Y-3.91
X6.93Y-1.55
X6.93Y-2.57
X6.93Y-3.17
X6.93Y-3.41
X6.93Y-3.56
X6.97Y-1.05
X6.97Y-1.33
X6.9743Y-2.1457
X6.9757Y-3.4743
X6.98Y-2.5
X7.02Y-1.48
X7.02Y-3.91
X7.03Y-2.85
X7.03Y-3.06
X7.07Y-1.99
X7.09Y-3.48
X7.12Y-3.91
X7.12Y-4.24
X7.13Y-2.55
X7.13Y-2.88
X7.18Y-2.6
X7.1959Y-0.8041
X7.2Y-1.55
X7.21Y-1.81
X7.22Y-2.5
X7.22Y-3.37
X7.23Y-2.36
X7.23Y-2.8
X7.28Y-2.44
X7.3Y-0.8
X7.32Y-3.56
X7.33Y-1.84
X7.36Y-3.73
X7.38Y-2.44
X7.38Y-3.47
X7.42Y-2.5
X7.42Y-2.67
X7.42Y-2.87
X7.43Y-1.77
X7.43Y-2.4
X7.46Y-3.72
X7.47Y-2.79
X7.49Y-2.92
X7.5Y-3.03
X7.54Y-2.47
X7.54Y-3.03
X7.55Y-3.22
X7.56Y-2.96
X7.57Y-2.75
X7.58Y-1.99
X7.5943Y-3.0657
X7.6Y-2.81
X7.61Y-2.51
X7.67Y-1.81
X7.675Y-2.545
X7.7Y-2.38
X7.73Y-1.99
X7.73Y-2.4
X7.77Y-4.12
X7.78Y-1.77
X7.78Y-2.44
X7.82Y-2.71
X7.82Y-2.81
X7.82Y-2.91
X7.83Y-2.4
X7.85Y-3.62
X7.88Y-3.0
X7.89Y-1.93
X7.9116Y-3.2084
X7.9116Y-4.0684
X7.93Y-1.81
X7.93Y-2.05
X7.9443Y-3.4157
X7.9457Y-2.8657
X7.9743Y-1.5543
X8.01Y-2.38
X8.02Y-1.61
X8.03Y-1.89
X8.1Y-2.18
X8.11Y-2.71
T2
X3.8516Y-1.28
X3.8816Y-3.13
X3.89Y-2.44
X3.89Y-2.54
X3.89Y-2.64
X3.89Y-2.74
X3.89Y-2.84
X3.89Y-2.94
X3.89Y-3.04
X3.8916Y-4.09
X3.9Y-1.62
X3.9Y-1.72
X3.9Y-1.82
X3.9Y-1.92
X3.9Y-2.02
X3.9Y-2.12
X3.9Y-2.22
X3.9Y-3.28
X3.9Y-3.38
X3.9Y-3.48
X3.9Y-3.58
X3.9Y-3.68
X3.9Y-3.78
X3.9Y-3.88
X3.9Y-3.98
X3.9016Y-2.33
X3.95Y-1.28
X3.98Y-3.13
X3.99Y-4.09
X4.0Y-2.33
X4.03Y-4.3
X4.03Y-4.6
X4.13Y-4.3
X4.13Y-4.6
X4.19Y-2.44
X4.19Y-2.54
X4.19Y-2.64
X4.19Y-2.74
X4.19Y-2.84
X4.19Y-2.94
X4.19Y-3.04
X4.2Y-1.62
X4.2Y-1.72
X4.2Y-1.82
X4.2Y-1.92
X4.2Y-2.02
X4.2Y-2.12
X4.2Y-2.22
X4.2Y-3.28
X4.2Y-3.38
X4.2Y-3.48
X4.2Y-3.58
X4.2Y-3.68
X4.2Y-3.78
X4.2Y-3.88
X4.2Y-3.98
X4.23Y-4.3
X4.23Y-4.6
X4.33Y-4.3
X4.33Y-4.6
X4.36Y-4.9
X4.36Y-5.3
X4.43Y-4.3
X4.43Y-4.6
X4.5Y-3.82
X4.5Y-4.12
X4.53Y-4.3
X4.53Y-4.6
X4.6Y-3.82
X4.6Y-4.12
X4.63Y-4.3
X4.63Y-4.6
X4.7Y-3.82
X4.7Y-4.12
X4.76Y-2.51
X4.76Y-2.81
X4.76Y-3.14
X4.76Y-3.44
X4.77Y-1.88
X4.77Y-2.18
X4.8Y-3.82
X4.8Y-4.12
X4.86Y-2.51
X4.86Y-2.81
X4.86Y-3.14
X4.86Y-3.44
X4.87Y-1.88
X4.87Y-2.18
X4.9Y-3.82
X4.9Y-4.12
X4.96Y-2.51
X4.96Y-2.81
X4.96Y-3.14
X4.96Y-3.44
X4.97Y-1.88
X4.97Y-2.18
X5.0Y-3.82
X5.0Y-4.12
X5.06Y-2.51
X5.06Y-2.81
X5.06Y-3.14
X5.06Y-3.44
X5.07Y-1.88
X5.07Y-2.18
X5.1Y-3.82
X5.1Y-4.12
X5.16Y-2.51
X5.16Y-2.81
X5.16Y-3.14
X5.16Y-3.44
X5.17Y-1.88
X5.17Y-2.18
X5.26Y-2.51
X5.26Y-2.81
X5.26Y-3.14
X5.26Y-3.44
X5.27Y-1.88
X5.27Y-2.18
X5.28Y-3.8
X5.28Y-4.1
X5.36Y-2.51
X5.36Y-2.81
X5.36Y-3.14
X5.36Y-3.44
X5.37Y-1.88
X5.37Y-2.18
X5.38Y-3.8
X5.38Y-4.1
X5.46Y-2.51
X5.46Y-2.81
X5.46Y-3.14
X5.46Y-3.44
X5.47Y-1.88
X5.47Y-2.18
X5.48Y-3.8
X5.48Y-4.1
X5.56Y-2.51
X5.56Y-2.81
X5.56Y-3.14
X5.56Y-3.44
X5.57Y-1.88
X5.57Y-2.18
X5.58Y-3.8
X5.58Y-4.1
X5.66Y-2.51
X5.66Y-2.81
X5.66Y-3.14
X5.66Y-3.44
X5.67Y-1.88
X5.67Y-2.18
X5.68Y-3.8
X5.68Y-4.1
X5.76Y-2.72
X5.76Y-2.8184
X5.76Y-3.34
X5.76Y-3.4384
X5.77Y-2.08
X5.77Y-2.1784
X5.78Y-3.8
X5.78Y-4.1
X5.88Y-3.8
X5.88Y-4.1
X5.97Y-4.01
X5.97Y-4.1084
X6.03Y-1.67
X6.03Y-2.27
X6.03Y-2.67
X6.03Y-3.27
X6.07Y-3.8
X6.07Y-4.1
X6.13Y-1.67
X6.13Y-2.27
X6.13Y-2.67
X6.13Y-3.27
X6.17Y-3.8
X6.17Y-4.1
X6.23Y-1.67
X6.23Y-2.27
X6.23Y-2.67
X6.23Y-3.27
X6.27Y-3.8
X6.27Y-4.1
X6.33Y-1.67
X6.33Y-2.27
X6.33Y-2.67
X6.33Y-3.27
X6.37Y-3.8
X6.37Y-4.1
X6.43Y-1.67
X6.43Y-2.27
X6.43Y-2.67
X6.43Y-2.9
X6.43Y-2.9984
X6.43Y-3.27
X6.47Y-3.8
X6.47Y-4.1
X6.53Y-1.67
X6.53Y-2.27
X6.53Y-2.67
X6.53Y-3.27
X6.57Y-3.8
X6.57Y-4.1
X6.62Y-3.56
X6.62Y-3.67
X6.63Y-1.67
X6.63Y-2.27
X6.63Y-2.67
X6.63Y-3.27
X6.67Y-3.8
X6.67Y-4.1
X6.73Y-1.67
X6.73Y-2.27
X6.73Y-2.67
X6.73Y-3.27
X6.78Y-4.0
X6.78Y-4.0984
X6.83Y-1.67
X6.83Y-2.27
X6.83Y-2.67
X6.83Y-3.27
X6.92Y-3.81
X6.92Y-4.11
X6.93Y-1.67
X6.93Y-2.27
X6.93Y-2.67
X6.93Y-3.27
X6.96Y-1.93
X6.96Y-2.05
X7.02Y-3.56
X7.02Y-3.67
X7.02Y-3.81
X7.02Y-3.97
X7.02Y-4.11
X7.03Y-1.67
X7.03Y-2.27
X7.03Y-2.67
X7.03Y-3.27
X7.12Y-3.81
X7.12Y-4.11
X7.13Y-1.67
X7.13Y-2.27
X7.13Y-2.67
X7.13Y-3.27
X7.22Y-3.81
X7.22Y-4.11
X7.23Y-1.67
X7.23Y-2.27
X7.23Y-2.67
X7.23Y-3.27
X7.32Y-3.81
X7.32Y-4.11
X7.33Y-1.67
X7.33Y-2.27
X7.33Y-2.67
X7.33Y-3.27
X7.36Y-1.93
X7.36Y-2.05
X7.42Y-3.81
X7.42Y-3.97
X7.42Y-4.11
X7.43Y-1.67
X7.43Y-2.27
X7.52Y-3.81
X7.52Y-4.11
X7.53Y-1.67
X7.53Y-2.27
X7.55Y-3.5716
X7.55Y-3.67
X7.63Y-1.67
X7.63Y-2.27
X7.71Y-3.46
X7.71Y-3.56
X7.71Y-3.66
X7.71Y-3.76
X7.71Y-3.86
X7.71Y-3.96
X7.71Y-4.06
X7.72Y-2.61
X7.72Y-2.71
X7.72Y-2.81
X7.72Y-2.91
X7.72Y-3.01
X7.72Y-3.11
X7.72Y-3.21
X7.73Y-1.67
X7.73Y-2.27
X7.83Y-1.67
X7.83Y-2.27
X7.9116Y-3.34
X7.9216Y-2.51
X7.93Y-1.67
X7.93Y-2.27
X8.01Y-3.34
X8.01Y-3.46
X8.01Y-3.56
X8.01Y-3.66
X8.01Y-3.76
X8.01Y-3.86
X8.01Y-3.96
X8.01Y-4.06
X8.02Y-2.51
X8.02Y-2.61
X8.02Y-2.71
X8.02Y-2.81
X8.02Y-2.91
X8.02Y-3.01
X8.02Y-3.11
X8.02Y-3.21
T3
X4.1Y-5.01
X4.2Y-5.01
T4
X4.83Y-4.51
X4.83Y-4.61
X4.83Y-4.71
X4.83Y-4.81
X4.8338Y-4.98
X4.8883Y-5.0918
X4.9428Y-4.98
X4.95Y-4.51
X4.95Y-4.61
X4.95Y-4.71
X4.95Y-4.81
X4.9974Y-5.0918
X5.0519Y-4.98
X5.07Y-4.51
X5.07Y-4.61
X5.07Y-4.71
X5.07Y-4.81
X5.1064Y-5.0918
X5.1609Y-4.98
X5.19Y-4.51
X5.19Y-4.61
X5.19Y-4.71
X5.19Y-4.81
X5.2155Y-5.0918
X5.27Y-4.98
X6.58Y-4.53
X6.58Y-4.63
X6.58Y-4.73
X6.58Y-4.83
X6.6038Y-4.99
X6.6583Y-5.1018
X6.7Y-4.53
X6.7Y-4.63
X6.7Y-4.73
X6.7Y-4.83
X6.7128Y-4.99
X6.7674Y-5.1018
X6.82Y-4.53
X6.82Y-4.63
X6.82Y-4.73
X6.82Y-4.83
X6.8219Y-4.99
X6.8764Y-5.1018
X6.9309Y-4.99
X6.94Y-4.53
X6.94Y-4.63
X6.94Y-4.73
X6.94Y-4.83
X6.9855Y-5.1018
X7.04Y-4.99
T5
X4.5598Y-5.0359
X5.544Y-5.0359
X6.3298Y-5.0459
X7.314Y-5.0459
T0
M30
