%TF.GenerationSoftware,KiCad,Pcbnew,(5.1.10)-1*%
%TF.CreationDate,2024-05-08T08:23:43+02:00*%
%TF.ProjectId,M003,4d303033-2e6b-4696-9361-645f70636258,rev?*%
%TF.SameCoordinates,Original*%
%TF.FileFunction,Other,User*%
%FSLAX46Y46*%
G04 Gerber Fmt 4.6, Leading zero omitted, Abs format (unit mm)*
G04 Created by KiCad (PCBNEW (5.1.10)-1) date 2024-05-08 08:23:43*
%MOMM*%
%LPD*%
G01*
G04 APERTURE LIST*
%ADD10C,0.050000*%
G04 APERTURE END LIST*
D10*
%TO.C,U8*%
X132562000Y-95040000D02*
X132562000Y-105590000D01*
X150912000Y-95040000D02*
X132562000Y-95040000D01*
X150912000Y-105590000D02*
X150912000Y-95040000D01*
X132562000Y-105590000D02*
X150912000Y-105590000D01*
%TO.C,J10*%
X168932000Y-113262000D02*
X165332000Y-113262000D01*
X168932000Y-124462000D02*
X168932000Y-113262000D01*
X165332000Y-124462000D02*
X168932000Y-124462000D01*
X165332000Y-113262000D02*
X165332000Y-124462000D01*
%TO.C,J9*%
X171980000Y-113262000D02*
X168380000Y-113262000D01*
X171980000Y-124462000D02*
X171980000Y-113262000D01*
X168380000Y-124462000D02*
X171980000Y-124462000D01*
X168380000Y-113262000D02*
X168380000Y-124462000D01*
%TO.C,J8*%
X178076000Y-113262000D02*
X174476000Y-113262000D01*
X178076000Y-124462000D02*
X178076000Y-113262000D01*
X174476000Y-124462000D02*
X178076000Y-124462000D01*
X174476000Y-113262000D02*
X174476000Y-124462000D01*
%TO.C,J7*%
X175028000Y-113262000D02*
X171428000Y-113262000D01*
X175028000Y-124462000D02*
X175028000Y-113262000D01*
X171428000Y-124462000D02*
X175028000Y-124462000D01*
X171428000Y-113262000D02*
X171428000Y-124462000D01*
%TO.C,J6*%
X124482000Y-112754000D02*
X120882000Y-112754000D01*
X124482000Y-123954000D02*
X124482000Y-112754000D01*
X120882000Y-123954000D02*
X124482000Y-123954000D01*
X120882000Y-112754000D02*
X120882000Y-123954000D01*
%TO.C,J5*%
X127530000Y-112754000D02*
X123930000Y-112754000D01*
X127530000Y-123954000D02*
X127530000Y-112754000D01*
X123930000Y-123954000D02*
X127530000Y-123954000D01*
X123930000Y-112754000D02*
X123930000Y-123954000D01*
%TO.C,J4*%
X133626000Y-112754000D02*
X130026000Y-112754000D01*
X133626000Y-123954000D02*
X133626000Y-112754000D01*
X130026000Y-123954000D02*
X133626000Y-123954000D01*
X130026000Y-112754000D02*
X130026000Y-123954000D01*
%TO.C,J3*%
X130578000Y-112754000D02*
X126978000Y-112754000D01*
X130578000Y-123954000D02*
X130578000Y-112754000D01*
X126978000Y-123954000D02*
X130578000Y-123954000D01*
X126978000Y-112754000D02*
X126978000Y-123954000D01*
%TO.C,U15*%
X97356000Y-60426000D02*
X97356000Y-78776000D01*
X97356000Y-78776000D02*
X107906000Y-78776000D01*
X107906000Y-78776000D02*
X107906000Y-60426000D01*
X107906000Y-60426000D02*
X97356000Y-60426000D01*
%TO.C,U14*%
X97610000Y-39598000D02*
X97610000Y-57948000D01*
X97610000Y-57948000D02*
X108160000Y-57948000D01*
X108160000Y-57948000D02*
X108160000Y-39598000D01*
X108160000Y-39598000D02*
X97610000Y-39598000D01*
%TO.C,R6*%
X109244000Y-135670000D02*
X112244000Y-135670000D01*
X112244000Y-135670000D02*
X112244000Y-123410000D01*
X112244000Y-123410000D02*
X109244000Y-123410000D01*
X109244000Y-123410000D02*
X109244000Y-135670000D01*
%TO.C,R5*%
X187994000Y-50522000D02*
X187994000Y-47522000D01*
X187994000Y-47522000D02*
X175734000Y-47522000D01*
X175734000Y-47522000D02*
X175734000Y-50522000D01*
X175734000Y-50522000D02*
X187994000Y-50522000D01*
%TO.C,C20*%
X204504000Y-86136000D02*
X204504000Y-83536000D01*
X204504000Y-83536000D02*
X199904000Y-83536000D01*
X199904000Y-83536000D02*
X199904000Y-86136000D01*
X199904000Y-86136000D02*
X204504000Y-86136000D01*
%TO.C,C19*%
X152938000Y-100804000D02*
X150338000Y-100804000D01*
X150338000Y-100804000D02*
X150338000Y-105404000D01*
X150338000Y-105404000D02*
X152938000Y-105404000D01*
X152938000Y-105404000D02*
X152938000Y-100804000D01*
%TO.C,C18*%
X204758000Y-65054000D02*
X204758000Y-62454000D01*
X204758000Y-62454000D02*
X200158000Y-62454000D01*
X200158000Y-62454000D02*
X200158000Y-65054000D01*
X200158000Y-65054000D02*
X204758000Y-65054000D01*
%TO.C,C17*%
X173512000Y-100550000D02*
X170912000Y-100550000D01*
X170912000Y-100550000D02*
X170912000Y-105150000D01*
X170912000Y-105150000D02*
X173512000Y-105150000D01*
X173512000Y-105150000D02*
X173512000Y-100550000D01*
%TO.C,C16*%
X102396000Y-105186000D02*
X102396000Y-102586000D01*
X102396000Y-102586000D02*
X97796000Y-102586000D01*
X97796000Y-102586000D02*
X97796000Y-105186000D01*
X97796000Y-105186000D02*
X102396000Y-105186000D01*
%TO.C,C15*%
X147604000Y-68038000D02*
X145004000Y-68038000D01*
X145004000Y-68038000D02*
X145004000Y-72638000D01*
X145004000Y-72638000D02*
X147604000Y-72638000D01*
X147604000Y-72638000D02*
X147604000Y-68038000D01*
%TO.C,C14*%
X147604000Y-83786000D02*
X145004000Y-83786000D01*
X145004000Y-83786000D02*
X145004000Y-88386000D01*
X145004000Y-88386000D02*
X147604000Y-88386000D01*
X147604000Y-88386000D02*
X147604000Y-83786000D01*
%TO.C,C13*%
X102650000Y-60482000D02*
X102650000Y-57882000D01*
X102650000Y-57882000D02*
X98050000Y-57882000D01*
X98050000Y-57882000D02*
X98050000Y-60482000D01*
X98050000Y-60482000D02*
X102650000Y-60482000D01*
%TO.C,C4*%
X102142000Y-80802000D02*
X102142000Y-78202000D01*
X102142000Y-78202000D02*
X97542000Y-78202000D01*
X97542000Y-78202000D02*
X97542000Y-80802000D01*
X97542000Y-80802000D02*
X102142000Y-80802000D01*
%TO.C,C1*%
X147858000Y-51782000D02*
X145258000Y-51782000D01*
X145258000Y-51782000D02*
X145258000Y-56382000D01*
X145258000Y-56382000D02*
X147858000Y-56382000D01*
X147858000Y-56382000D02*
X147858000Y-51782000D01*
%TO.C,U13*%
X119354000Y-78276000D02*
X119354000Y-88826000D01*
X145304000Y-78276000D02*
X119354000Y-78276000D01*
X145304000Y-88826000D02*
X145304000Y-78276000D01*
X119354000Y-88826000D02*
X145304000Y-88826000D01*
%TO.C,U12*%
X204934000Y-86334000D02*
X194384000Y-86334000D01*
X204934000Y-104684000D02*
X204934000Y-86334000D01*
X194384000Y-104684000D02*
X204934000Y-104684000D01*
X194384000Y-86334000D02*
X194384000Y-104684000D01*
%TO.C,U11*%
X205188000Y-64744000D02*
X194638000Y-64744000D01*
X205188000Y-83094000D02*
X205188000Y-64744000D01*
X194638000Y-83094000D02*
X205188000Y-83094000D01*
X194638000Y-64744000D02*
X194638000Y-83094000D01*
%TO.C,U10*%
X112750000Y-95548000D02*
X112750000Y-106098000D01*
X131100000Y-95548000D02*
X112750000Y-95548000D01*
X131100000Y-106098000D02*
X131100000Y-95548000D01*
X112750000Y-106098000D02*
X131100000Y-106098000D01*
%TO.C,U9*%
X119354000Y-62274000D02*
X119354000Y-72824000D01*
X145304000Y-62274000D02*
X119354000Y-62274000D01*
X145304000Y-72824000D02*
X145304000Y-62274000D01*
X119354000Y-72824000D02*
X145304000Y-72824000D01*
%TO.C,R4*%
X167098000Y-91924000D02*
X179358000Y-91924000D01*
X167098000Y-88924000D02*
X167098000Y-91924000D01*
X179358000Y-88924000D02*
X167098000Y-88924000D01*
X179358000Y-91924000D02*
X179358000Y-88924000D01*
%TO.C,R3*%
X167098000Y-94718000D02*
X179358000Y-94718000D01*
X167098000Y-91718000D02*
X167098000Y-94718000D01*
X179358000Y-91718000D02*
X167098000Y-91718000D01*
X179358000Y-94718000D02*
X179358000Y-91718000D01*
%TO.C,R2*%
X189518000Y-99338000D02*
X177258000Y-99338000D01*
X189518000Y-102338000D02*
X189518000Y-99338000D01*
X177258000Y-102338000D02*
X189518000Y-102338000D01*
X177258000Y-99338000D02*
X177258000Y-102338000D01*
%TO.C,C12*%
X164622000Y-77210000D02*
X164622000Y-72610000D01*
X162022000Y-77210000D02*
X164622000Y-77210000D01*
X162022000Y-72610000D02*
X162022000Y-77210000D01*
X164622000Y-72610000D02*
X162022000Y-72610000D01*
%TO.C,C11*%
X190470000Y-89668000D02*
X190470000Y-94268000D01*
X193070000Y-89668000D02*
X190470000Y-89668000D01*
X193070000Y-94268000D02*
X193070000Y-89668000D01*
X190470000Y-94268000D02*
X193070000Y-94268000D01*
%TO.C,U5*%
X108160000Y-81762000D02*
X97610000Y-81762000D01*
X108160000Y-102612000D02*
X108160000Y-81762000D01*
X97610000Y-102612000D02*
X108160000Y-102612000D01*
X97610000Y-81762000D02*
X97610000Y-102612000D01*
%TO.C,U4*%
X119608000Y-46272000D02*
X119608000Y-56822000D01*
X145558000Y-46272000D02*
X119608000Y-46272000D01*
X145558000Y-56822000D02*
X145558000Y-46272000D01*
X119608000Y-56822000D02*
X145558000Y-56822000D01*
%TO.C,U3*%
X152628000Y-95040000D02*
X152628000Y-105590000D01*
X170978000Y-95040000D02*
X152628000Y-95040000D01*
X170978000Y-105590000D02*
X170978000Y-95040000D01*
X152628000Y-105590000D02*
X170978000Y-105590000D01*
%TO.C,U2*%
X100812000Y-107740000D02*
X100812000Y-118290000D01*
X119162000Y-107740000D02*
X100812000Y-107740000D01*
X119162000Y-118290000D02*
X119162000Y-107740000D01*
X100812000Y-118290000D02*
X119162000Y-118290000D01*
%TO.C,U1*%
X174218000Y-95294000D02*
X174218000Y-105844000D01*
X192568000Y-95294000D02*
X174218000Y-95294000D01*
X192568000Y-105844000D02*
X192568000Y-95294000D01*
X174218000Y-105844000D02*
X192568000Y-105844000D01*
%TO.C,R1*%
X187994000Y-50570000D02*
X175734000Y-50570000D01*
X187994000Y-53570000D02*
X187994000Y-50570000D01*
X175734000Y-53570000D02*
X187994000Y-53570000D01*
X175734000Y-50570000D02*
X175734000Y-53570000D01*
%TO.C,J2*%
X144258000Y-124142000D02*
X112358000Y-124142000D01*
X144258000Y-144142000D02*
X144258000Y-124142000D01*
X112358000Y-144142000D02*
X144258000Y-144142000D01*
X112358000Y-124142000D02*
X112358000Y-144142000D01*
%TO.C,J1*%
X189216000Y-124396000D02*
X157316000Y-124396000D01*
X189216000Y-144396000D02*
X189216000Y-124396000D01*
X157316000Y-144396000D02*
X189216000Y-144396000D01*
X157316000Y-124396000D02*
X157316000Y-144396000D01*
%TO.C,IC2*%
X151612000Y-66358000D02*
X151612000Y-84558000D01*
X187712000Y-66358000D02*
X151612000Y-66358000D01*
X187712000Y-84558000D02*
X187712000Y-66358000D01*
X151612000Y-84558000D02*
X187712000Y-84558000D01*
%TO.C,IC1*%
X151612000Y-40958000D02*
X151612000Y-59158000D01*
X202962000Y-40958000D02*
X151612000Y-40958000D01*
X202962000Y-59158000D02*
X202962000Y-40958000D01*
X151612000Y-59158000D02*
X202962000Y-59158000D01*
%TO.C,D1*%
X108640000Y-124004000D02*
X102190000Y-124004000D01*
X108640000Y-130504000D02*
X108640000Y-124004000D01*
X102190000Y-130504000D02*
X108640000Y-130504000D01*
X102190000Y-124004000D02*
X102190000Y-130504000D01*
%TO.C,C2*%
X103080000Y-32512000D02*
G75*
G03*
X103080000Y-32512000I-4000000J0D01*
G01*
%TD*%
M02*
