G04 (created by PCBNEW-RS274X (2011-12-28 BZR 3254)-stable) date 23.01.2012 18:01:50*
G01*
G70*
G90*
%MOIN*%
G04 Gerber Fmt 3.4, Leading zero omitted, Abs format*
%FSLAX34Y34*%
G04 APERTURE LIST*
%ADD10C,0.006000*%
%ADD11R,0.082000X0.110000*%
%ADD12O,0.082000X0.110000*%
%ADD13R,0.110000X0.082000*%
%ADD14O,0.110000X0.082000*%
%ADD15C,0.075000*%
%ADD16R,0.109400X0.339400*%
%ADD17C,0.086000*%
%ADD18C,0.080000*%
%ADD19C,0.085000*%
%ADD20R,0.075000X0.075000*%
%ADD21C,0.079100*%
%ADD22C,0.138100*%
%ADD23C,0.180000*%
%ADD24C,0.090000*%
%ADD25R,0.090000X0.090000*%
%ADD26R,0.110000X0.090900*%
%ADD27O,0.118400X0.090900*%
G04 APERTURE END LIST*
G54D10*
G54D11*
X60546Y-37239D03*
G54D12*
X61546Y-37239D03*
X62546Y-37239D03*
X63546Y-37239D03*
X64546Y-37239D03*
X65546Y-37239D03*
X66546Y-37239D03*
X67546Y-37239D03*
X68546Y-37239D03*
X69546Y-37239D03*
X70546Y-37239D03*
X71546Y-37239D03*
X72546Y-37239D03*
X73546Y-37239D03*
X74546Y-37239D03*
X75546Y-37239D03*
X76546Y-37239D03*
X77546Y-37239D03*
X78546Y-37239D03*
X79546Y-37239D03*
X79546Y-31239D03*
X78546Y-31239D03*
X77546Y-31239D03*
X76546Y-31239D03*
X75546Y-31239D03*
X74546Y-31239D03*
X73546Y-31239D03*
X72546Y-31239D03*
X71546Y-31239D03*
X70546Y-31239D03*
X69546Y-31239D03*
X68546Y-31239D03*
X67546Y-31239D03*
X66546Y-31239D03*
X65546Y-31239D03*
X64546Y-31239D03*
X63546Y-31239D03*
X62546Y-31239D03*
X61546Y-31239D03*
X60546Y-31239D03*
G54D11*
X60546Y-28270D03*
G54D12*
X61546Y-28270D03*
X62546Y-28270D03*
X63546Y-28270D03*
X64546Y-28270D03*
X65546Y-28270D03*
X66546Y-28270D03*
X67546Y-28270D03*
X68546Y-28270D03*
X69546Y-28270D03*
X70546Y-28270D03*
X71546Y-28270D03*
X72546Y-28270D03*
X73546Y-28270D03*
X73546Y-22270D03*
X72546Y-22270D03*
X71546Y-22270D03*
X70546Y-22270D03*
X69546Y-22270D03*
X68546Y-22270D03*
X67546Y-22270D03*
X66546Y-22270D03*
X65546Y-22270D03*
X64546Y-22270D03*
X63546Y-22270D03*
X62546Y-22270D03*
X61546Y-22270D03*
X60546Y-22270D03*
G54D11*
X40546Y-37239D03*
G54D12*
X41546Y-37239D03*
X42546Y-37239D03*
X43546Y-37239D03*
X44546Y-37239D03*
X45546Y-37239D03*
X46546Y-37239D03*
X47546Y-37239D03*
X48546Y-37239D03*
X49546Y-37239D03*
X50546Y-37239D03*
X51546Y-37239D03*
X51546Y-34239D03*
X50546Y-34239D03*
X49546Y-34239D03*
X48546Y-34239D03*
X47546Y-34239D03*
X46546Y-34239D03*
X45546Y-34239D03*
X44546Y-34239D03*
X43546Y-34239D03*
X42546Y-34239D03*
X41546Y-34239D03*
X40546Y-34239D03*
G54D11*
X40546Y-32239D03*
G54D12*
X41546Y-32239D03*
X42546Y-32239D03*
X43546Y-32239D03*
X44546Y-32239D03*
X45546Y-32239D03*
X46546Y-32239D03*
X47546Y-32239D03*
X48546Y-32239D03*
X49546Y-32239D03*
X50546Y-32239D03*
X51546Y-32239D03*
X51546Y-29239D03*
X50546Y-29239D03*
X49546Y-29239D03*
X48546Y-29239D03*
X47546Y-29239D03*
X46546Y-29239D03*
X45546Y-29239D03*
X44546Y-29239D03*
X43546Y-29239D03*
X42546Y-29239D03*
X41546Y-29239D03*
X40546Y-29239D03*
G54D13*
X80046Y-46739D03*
G54D14*
X80046Y-45739D03*
X80046Y-44739D03*
X80046Y-43739D03*
X80046Y-42739D03*
X80046Y-41739D03*
X80046Y-40739D03*
X77046Y-40739D03*
X77046Y-41739D03*
X77046Y-42739D03*
X77046Y-43739D03*
X77046Y-44739D03*
X77046Y-45739D03*
X77046Y-46739D03*
G54D11*
X40546Y-42239D03*
G54D12*
X41546Y-42239D03*
X42546Y-42239D03*
X43546Y-42239D03*
X44546Y-42239D03*
X45546Y-42239D03*
X46546Y-42239D03*
X46546Y-39239D03*
X45546Y-39239D03*
X44546Y-39239D03*
X43546Y-39239D03*
X42546Y-39239D03*
X41546Y-39239D03*
X40546Y-39239D03*
G54D11*
X40546Y-47239D03*
G54D12*
X41546Y-47239D03*
X42546Y-47239D03*
X43546Y-47239D03*
X44546Y-47239D03*
X45546Y-47239D03*
X46546Y-47239D03*
X46546Y-44239D03*
X45546Y-44239D03*
X44546Y-44239D03*
X43546Y-44239D03*
X42546Y-44239D03*
X41546Y-44239D03*
X40546Y-44239D03*
G54D15*
X38546Y-39239D03*
X38546Y-41239D03*
X38546Y-44239D03*
X38546Y-46239D03*
X38546Y-34239D03*
X38546Y-36239D03*
X38546Y-29239D03*
X38546Y-31239D03*
X38546Y-25239D03*
X38546Y-27239D03*
G54D16*
X45766Y-11909D03*
X46751Y-11909D03*
X47735Y-11909D03*
X48719Y-11909D03*
X49703Y-11909D03*
X50688Y-11909D03*
X51672Y-11909D03*
X52656Y-11909D03*
X53640Y-11909D03*
X54625Y-11909D03*
X55609Y-11909D03*
X56593Y-11909D03*
X57577Y-11909D03*
X58562Y-11909D03*
X59546Y-11909D03*
X60530Y-11909D03*
X61514Y-11909D03*
X62499Y-11909D03*
X63483Y-11909D03*
X64467Y-11909D03*
X65451Y-11909D03*
X66436Y-11909D03*
X67420Y-11909D03*
X68404Y-11909D03*
X69388Y-11909D03*
X70373Y-11909D03*
X71357Y-11909D03*
X72341Y-11909D03*
X73325Y-11909D03*
G54D11*
X40546Y-27239D03*
G54D12*
X41546Y-27239D03*
X42546Y-27239D03*
X43546Y-27239D03*
X44546Y-27239D03*
X45546Y-27239D03*
X46546Y-27239D03*
X47546Y-27239D03*
X47546Y-24239D03*
X46546Y-24239D03*
X45546Y-24239D03*
X44546Y-24239D03*
X43546Y-24239D03*
X42546Y-24239D03*
X41546Y-24239D03*
X40546Y-24239D03*
G54D17*
X65361Y-54625D03*
X64361Y-54625D03*
X77762Y-54625D03*
X76762Y-54625D03*
X42813Y-54625D03*
X41829Y-54625D03*
G54D18*
X40845Y-54625D03*
G54D15*
X59546Y-52239D03*
X59546Y-51239D03*
X58046Y-52239D03*
X58046Y-51239D03*
G54D19*
X52546Y-27239D03*
X55546Y-27239D03*
X52546Y-26239D03*
X55546Y-26239D03*
X52546Y-25239D03*
X55546Y-25239D03*
X52546Y-24239D03*
X55546Y-24239D03*
X52546Y-23239D03*
X55546Y-23239D03*
X52546Y-22239D03*
X55546Y-22239D03*
G54D15*
X77546Y-21270D03*
X77546Y-22270D03*
G54D11*
X50546Y-47239D03*
G54D12*
X51546Y-47239D03*
X52546Y-47239D03*
X53546Y-47239D03*
X54546Y-47239D03*
X55546Y-47239D03*
X56546Y-47239D03*
X56546Y-44239D03*
X55546Y-44239D03*
X54546Y-44239D03*
X53546Y-44239D03*
X52546Y-44239D03*
X51546Y-44239D03*
X50546Y-44239D03*
G54D19*
X77546Y-27270D03*
X77546Y-24270D03*
X51546Y-39239D03*
X51546Y-42239D03*
X49546Y-39239D03*
X49546Y-42239D03*
X38546Y-23239D03*
X38546Y-20239D03*
X78046Y-48739D03*
X78046Y-51739D03*
X64546Y-46739D03*
X64546Y-43739D03*
G54D20*
X51046Y-52239D03*
G54D15*
X53046Y-52239D03*
G54D19*
X61546Y-51239D03*
X64546Y-51239D03*
X46546Y-50770D03*
X46546Y-53770D03*
X45046Y-50770D03*
X45046Y-53770D03*
G54D21*
X59962Y-55609D03*
X58962Y-55609D03*
X58162Y-55609D03*
X57162Y-55609D03*
G54D22*
X61162Y-56659D03*
X55762Y-56659D03*
G54D23*
X76278Y-52656D03*
X42814Y-52656D03*
X76278Y-17223D03*
X42814Y-17223D03*
G54D20*
X61046Y-44739D03*
G54D15*
X62046Y-44739D03*
G54D20*
X61046Y-41739D03*
G54D15*
X62046Y-41739D03*
G54D24*
X51046Y-21270D03*
G54D25*
X40546Y-21239D03*
G54D26*
X73546Y-52739D03*
G54D27*
X73546Y-51739D03*
X73546Y-50739D03*
X73546Y-49739D03*
X73546Y-48739D03*
X73546Y-47739D03*
X73546Y-46739D03*
X73546Y-45739D03*
X73546Y-44739D03*
X73546Y-43739D03*
X73546Y-42739D03*
X73546Y-41739D03*
X67546Y-41739D03*
X67546Y-42739D03*
X67546Y-43739D03*
X67546Y-44739D03*
X67546Y-45739D03*
X67546Y-46739D03*
X67546Y-47739D03*
X67546Y-48739D03*
X67546Y-49739D03*
X67546Y-50739D03*
X67546Y-51739D03*
X67546Y-52739D03*
G54D19*
X48046Y-50770D03*
X48046Y-53770D03*
G54D17*
X50007Y-54624D03*
X49007Y-54624D03*
G54D15*
X76046Y-27270D03*
X76046Y-25270D03*
M02*
