M48
; DRILL file {KiCad (5.1.10)-1} date 05/08/24 08:20:10
; FORMAT={-:-/ absolute / inch / decimal}
; #@! TF.CreationDate,2024-05-08T08:20:10+02:00
; #@! TF.GenerationSoftware,Kicad,Pcbnew,(5.1.10)-1
; #@! TF.FileFunction,Plated,1,2,PTH
FMAT,2
INCH
T1C0.0157
T2C0.0315
T3C0.0394
T4C0.0630
%
G90
G05
T1
X3.74Y-3.53
X3.74Y-5.79
X3.78Y-3.23
X3.78Y-5.9
X4.3Y-3.43
X4.3Y-3.97
X4.3569Y-5.3631
X4.3594Y-4.9694
X4.36Y-4.77
X4.36Y-5.12
X4.36Y-5.68
X4.3609Y-5.6091
X4.3614Y-4.9114
X4.399Y-4.871
X4.4Y-5.02
X4.4Y-5.44
X4.4053Y-5.2647
X4.41Y-5.07
X4.41Y-5.2
X4.44Y-3.66
X4.4709Y-5.5091
X4.48Y-3.65
X4.5093Y-5.8007
X4.5563Y-5.1663
X4.56Y-5.31
X4.565Y-4.415
X4.6446Y-4.5354
X4.65Y-4.7
X4.82Y-3.97
X5.04Y-3.97
X5.11Y-5.66
X5.17Y-3.65
X5.1871Y-3.9729
X5.35Y-3.32
T2
X4.2721Y-4.182
X4.2721Y-4.2805
X4.2721Y-4.3789
X4.2721Y-4.4773
X4.2721Y-4.5757
X4.2721Y-4.6742
X4.2721Y-4.7726
X4.2721Y-4.871
X4.2721Y-4.9694
X4.2721Y-5.0679
X4.2721Y-5.1663
X4.2721Y-5.2647
X4.2721Y-5.3631
X4.43Y-3.19
X4.43Y-3.33
X4.44Y-3.49
X4.44Y-3.79
X4.469Y-4.182
X4.469Y-4.2805
X4.469Y-4.3789
X4.469Y-4.4773
X4.469Y-4.5757
X4.469Y-4.6742
X4.469Y-4.7726
X4.469Y-4.871
X4.469Y-4.9694
X4.469Y-5.0679
X4.469Y-5.1663
X4.469Y-5.2647
X4.469Y-5.3631
X4.54Y-3.49
X4.54Y-3.79
X4.64Y-3.49
X4.64Y-3.79
X4.74Y-3.49
X4.74Y-3.79
X4.83Y-3.19
X4.83Y-3.33
X4.84Y-3.49
X4.84Y-3.79
X4.94Y-3.49
X4.94Y-3.79
X5.04Y-3.49
X5.04Y-3.79
X5.17Y-3.69
X5.17Y-3.7884
T3
X3.86Y-3.23
X3.86Y-3.33
X3.86Y-3.43
X3.86Y-3.53
X4.16Y-5.9
X4.26Y-5.9
X4.36Y-5.9
X4.46Y-5.9
X4.82Y-4.0553
X4.82Y-4.1553
X4.82Y-4.2553
X4.82Y-4.3553
X4.82Y-4.4553
X4.82Y-4.5553
X4.82Y-4.6553
X4.82Y-4.7553
X4.82Y-4.8553
X4.82Y-4.9553
X4.82Y-5.0553
X4.82Y-5.1553
X4.82Y-5.2553
X4.82Y-5.3553
X4.82Y-5.4553
X4.82Y-5.5553
X4.82Y-5.6553
X4.92Y-4.0553
X4.92Y-4.1553
X4.92Y-4.2553
X4.92Y-4.3553
X4.92Y-4.4553
X4.92Y-4.5553
X4.92Y-4.6553
X4.92Y-4.7553
X4.92Y-4.8553
X4.92Y-4.9553
X4.92Y-5.0553
X4.92Y-5.1553
X4.92Y-5.2553
X4.92Y-5.3553
X4.92Y-5.4553
X4.92Y-5.5553
X4.92Y-5.6553
X5.04Y-3.16
X5.04Y-3.33
X5.14Y-3.16
X5.14Y-3.33
X5.1871Y-4.0522
X5.1871Y-4.1522
X5.1871Y-4.2522
X5.1871Y-4.3522
X5.1871Y-4.4522
X5.1871Y-4.5522
X5.1871Y-4.6522
X5.1871Y-4.7522
X5.1871Y-4.8522
X5.1871Y-4.9522
X5.1871Y-5.0522
X5.1871Y-5.1522
X5.1871Y-5.2522
X5.1871Y-5.3522
X5.1871Y-5.4522
X5.1871Y-5.5522
X5.1871Y-5.6522
X5.24Y-3.16
X5.24Y-3.33
X5.2871Y-4.0522
X5.2871Y-4.1522
X5.2871Y-4.2522
X5.2871Y-4.3522
X5.2871Y-4.4522
X5.2871Y-4.5522
X5.2871Y-4.6522
X5.2871Y-4.7522
X5.2871Y-4.8522
X5.2871Y-4.9522
X5.2871Y-5.0522
X5.2871Y-5.1522
X5.2871Y-5.2522
X5.2871Y-5.3522
X5.2871Y-5.4522
X5.2871Y-5.5522
X5.2871Y-5.6522
T4
X3.889Y-3.81
X3.889Y-5.735
X3.9769Y-3.936
X3.98Y-5.585
T0
M30
