%TF.GenerationSoftware,KiCad,Pcbnew,(5.1.10)-1*%
%TF.CreationDate,2024-05-08T08:20:22+02:00*%
%TF.ProjectId,KC85-FDD_IN,4b433835-2d46-4444-945f-494e2e6b6963,rev?*%
%TF.SameCoordinates,Original*%
%TF.FileFunction,Copper,L1,Top*%
%TF.FilePolarity,Positive*%
%FSLAX46Y46*%
G04 Gerber Fmt 4.6, Leading zero omitted, Abs format (unit mm)*
G04 Created by KiCad (PCBNEW (5.1.10)-1) date 2024-05-08 08:20:22*
%MOMM*%
%LPD*%
G01*
G04 APERTURE LIST*
%TA.AperFunction,ComponentPad*%
%ADD10O,1.600000X2.400000*%
%TD*%
%TA.AperFunction,ComponentPad*%
%ADD11R,1.600000X2.400000*%
%TD*%
%TA.AperFunction,ComponentPad*%
%ADD12O,1.600000X1.600000*%
%TD*%
%TA.AperFunction,ComponentPad*%
%ADD13C,1.600000*%
%TD*%
%TA.AperFunction,ComponentPad*%
%ADD14O,1.700000X1.700000*%
%TD*%
%TA.AperFunction,ComponentPad*%
%ADD15R,1.700000X1.700000*%
%TD*%
%TA.AperFunction,ComponentPad*%
%ADD16C,1.400000*%
%TD*%
%TA.AperFunction,ComponentPad*%
%ADD17C,1.610000*%
%TD*%
%TA.AperFunction,ViaPad*%
%ADD18C,0.800000*%
%TD*%
%TA.AperFunction,Conductor*%
%ADD19C,0.250000*%
%TD*%
%TA.AperFunction,Conductor*%
%ADD20C,0.254000*%
%TD*%
%TA.AperFunction,Conductor*%
%ADD21C,0.100000*%
%TD*%
G04 APERTURE END LIST*
D10*
%TO.P,U1,14*%
%TO.N,+5P*%
X112776000Y-88646000D03*
%TO.P,U1,7*%
%TO.N,GND*%
X128016000Y-96266000D03*
%TO.P,U1,13*%
%TO.N,SE0*%
X115316000Y-88646000D03*
%TO.P,U1,6*%
%TO.N,Net-(J7-Pad1)*%
X125476000Y-96266000D03*
%TO.P,U1,12*%
%TO.N,SE0*%
X117856000Y-88646000D03*
%TO.P,U1,5*%
%TO.N,Net-(R2-Pad2)*%
X122936000Y-96266000D03*
%TO.P,U1,11*%
%TO.N,Net-(R1-Pad2)*%
X120396000Y-88646000D03*
%TO.P,U1,4*%
%TO.N,Net-(R2-Pad2)*%
X120396000Y-96266000D03*
%TO.P,U1,10*%
%TO.N,Net-(R1-Pad2)*%
X122936000Y-88646000D03*
%TO.P,U1,3*%
%TO.N,Net-(R2-Pad2)*%
X117856000Y-96266000D03*
%TO.P,U1,9*%
%TO.N,Net-(R1-Pad2)*%
X125476000Y-88646000D03*
%TO.P,U1,2*%
%TO.N,SE1*%
X115316000Y-96266000D03*
%TO.P,U1,8*%
%TO.N,Net-(J6-Pad1)*%
X128016000Y-88646000D03*
D11*
%TO.P,U1,1*%
%TO.N,SE1*%
X112776000Y-96266000D03*
%TD*%
D12*
%TO.P,R2,2*%
%TO.N,Net-(R2-Pad2)*%
X122682000Y-81026000D03*
D13*
%TO.P,R2,1*%
%TO.N,+5P*%
X112522000Y-81026000D03*
%TD*%
D12*
%TO.P,R1,2*%
%TO.N,Net-(R1-Pad2)*%
X122682000Y-84582000D03*
D13*
%TO.P,R1,1*%
%TO.N,+5P*%
X112522000Y-84582000D03*
%TD*%
D14*
%TO.P,J7,3*%
%TO.N,Net-(J4-Pad34)*%
X133096000Y-80264000D03*
%TO.P,J7,2*%
%TO.N,RDY*%
X130556000Y-80264000D03*
D15*
%TO.P,J7,1*%
%TO.N,Net-(J7-Pad1)*%
X128016000Y-80264000D03*
%TD*%
D14*
%TO.P,J6,3*%
%TO.N,Net-(J4-Pad34)*%
X133096000Y-84582000D03*
%TO.P,J6,2*%
%TO.N,RDY*%
X130556000Y-84582000D03*
D15*
%TO.P,J6,1*%
%TO.N,Net-(J6-Pad1)*%
X128016000Y-84582000D03*
%TD*%
D14*
%TO.P,J5,4*%
%TO.N,+5P*%
X113284000Y-149860000D03*
%TO.P,J5,3*%
%TO.N,GND*%
X110744000Y-149860000D03*
%TO.P,J5,2*%
X108204000Y-149860000D03*
D15*
%TO.P,J5,1*%
%TO.N,+12P*%
X105664000Y-149860000D03*
%TD*%
D14*
%TO.P,J4,34*%
%TO.N,Net-(J4-Pad34)*%
X134292000Y-143566000D03*
%TO.P,J4,33*%
%TO.N,GND*%
X131752000Y-143566000D03*
%TO.P,J4,32*%
%TO.N,SS*%
X134292000Y-141026000D03*
%TO.P,J4,31*%
%TO.N,GND*%
X131752000Y-141026000D03*
%TO.P,J4,30*%
%TO.N,RD*%
X134292000Y-138486000D03*
%TO.P,J4,29*%
%TO.N,GND*%
X131752000Y-138486000D03*
%TO.P,J4,28*%
%TO.N,WP*%
X134292000Y-135946000D03*
%TO.P,J4,27*%
%TO.N,GND*%
X131752000Y-135946000D03*
%TO.P,J4,26*%
%TO.N,T0*%
X134292000Y-133406000D03*
%TO.P,J4,25*%
%TO.N,GND*%
X131752000Y-133406000D03*
%TO.P,J4,24*%
%TO.N,WE*%
X134292000Y-130866000D03*
%TO.P,J4,23*%
%TO.N,GND*%
X131752000Y-130866000D03*
%TO.P,J4,22*%
%TO.N,WD*%
X134292000Y-128326000D03*
%TO.P,J4,21*%
%TO.N,GND*%
X131752000Y-128326000D03*
%TO.P,J4,20*%
%TO.N,ST*%
X134292000Y-125786000D03*
%TO.P,J4,19*%
%TO.N,GND*%
X131752000Y-125786000D03*
%TO.P,J4,18*%
%TO.N,SD*%
X134292000Y-123246000D03*
%TO.P,J4,17*%
%TO.N,GND*%
X131752000Y-123246000D03*
%TO.P,J4,16*%
%TO.N,SE0*%
X134292000Y-120706000D03*
%TO.P,J4,15*%
%TO.N,GND*%
X131752000Y-120706000D03*
%TO.P,J4,14*%
%TO.N,SE1*%
X134292000Y-118166000D03*
%TO.P,J4,13*%
%TO.N,GND*%
X131752000Y-118166000D03*
%TO.P,J4,12*%
%TO.N,SE0*%
X134292000Y-115626000D03*
%TO.P,J4,11*%
%TO.N,GND*%
X131752000Y-115626000D03*
%TO.P,J4,10*%
%TO.N,SE1*%
X134292000Y-113086000D03*
%TO.P,J4,9*%
%TO.N,GND*%
X131752000Y-113086000D03*
%TO.P,J4,8*%
%TO.N,IX*%
X134292000Y-110546000D03*
%TO.P,J4,7*%
%TO.N,GND*%
X131752000Y-110546000D03*
%TO.P,J4,6*%
%TO.N,N/C*%
X134292000Y-108006000D03*
%TO.P,J4,5*%
%TO.N,GND*%
X131752000Y-108006000D03*
%TO.P,J4,4*%
%TO.N,N/C*%
X134292000Y-105466000D03*
%TO.P,J4,3*%
%TO.N,GND*%
X131752000Y-105466000D03*
%TO.P,J4,2*%
%TO.N,N/C*%
X134292000Y-102926000D03*
D15*
%TO.P,J4,1*%
%TO.N,GND*%
X131752000Y-102926000D03*
%TD*%
D14*
%TO.P,J2,4*%
%TO.N,+5P*%
X98044000Y-89662000D03*
%TO.P,J2,3*%
%TO.N,GND*%
X98044000Y-87122000D03*
%TO.P,J2,2*%
X98044000Y-84582000D03*
D15*
%TO.P,J2,1*%
%TO.N,+12P*%
X98044000Y-82042000D03*
%TD*%
D13*
%TO.P,C1,2*%
%TO.N,GND*%
X131318000Y-96226000D03*
%TO.P,C1,1*%
%TO.N,+5P*%
X131318000Y-93726000D03*
%TD*%
D16*
%TO.P,J1,a13*%
%TO.N,RDY*%
X108512000Y-136224000D03*
%TO.P,J1,a12*%
%TO.N,GND*%
X108512000Y-133724000D03*
%TO.P,J1,a11*%
X108512000Y-131224000D03*
%TO.P,J1,a10*%
X108512000Y-128724000D03*
%TO.P,J1,a9*%
%TO.N,WE*%
X108512000Y-126224000D03*
%TO.P,J1,a8*%
%TO.N,WD*%
X108512000Y-123724000D03*
%TO.P,J1,a7*%
%TO.N,ST*%
X108512000Y-121224000D03*
%TO.P,J1,a6*%
%TO.N,GND*%
X108512000Y-118724000D03*
%TO.P,J1,a5*%
%TO.N,SE2*%
X108512000Y-116224000D03*
%TO.P,J1,a4*%
%TO.N,SE0*%
X108512000Y-113724000D03*
%TO.P,J1,a3*%
%TO.N,IX*%
X108512000Y-111224000D03*
%TO.P,J1,a2*%
%TO.N,SE3*%
X108512000Y-108724000D03*
%TO.P,J1,a1*%
%TO.N,N/C*%
X108512000Y-106224000D03*
%TO.P,J1,b13*%
%TO.N,SS*%
X113512000Y-136224000D03*
%TO.P,J1,b12*%
%TO.N,RD*%
X113512000Y-133724000D03*
%TO.P,J1,b11*%
%TO.N,WP*%
X113512000Y-131224000D03*
%TO.P,J1,b10*%
%TO.N,T0*%
X113512000Y-128724000D03*
%TO.P,J1,b9*%
%TO.N,GND*%
X113512000Y-126224000D03*
%TO.P,J1,b8*%
X113512000Y-123724000D03*
%TO.P,J1,b7*%
%TO.N,SD*%
X113512000Y-121224000D03*
%TO.P,J1,b6*%
%TO.N,N/C*%
X113512000Y-118724000D03*
%TO.P,J1,b5*%
%TO.N,SE1*%
X113512000Y-116224000D03*
%TO.P,J1,b4*%
%TO.N,GND*%
X113512000Y-113724000D03*
%TO.P,J1,b3*%
X113512000Y-111224000D03*
%TO.P,J1,b2*%
X113512000Y-108724000D03*
%TO.P,J1,b1*%
%TO.N,N/C*%
X113512000Y-106224000D03*
D17*
%TO.P,J1,*%
%TO.N,*%
X101092000Y-141859000D03*
X101012000Y-99974000D03*
X98780600Y-145669000D03*
X98780600Y-96774000D03*
%TD*%
D14*
%TO.P,J3,34*%
%TO.N,RDY*%
X124967000Y-143645001D03*
%TO.P,J3,33*%
%TO.N,GND*%
X122427000Y-143645001D03*
%TO.P,J3,32*%
%TO.N,SS*%
X124967000Y-141105001D03*
%TO.P,J3,31*%
%TO.N,GND*%
X122427000Y-141105001D03*
%TO.P,J3,30*%
%TO.N,RD*%
X124967000Y-138565001D03*
%TO.P,J3,29*%
%TO.N,GND*%
X122427000Y-138565001D03*
%TO.P,J3,28*%
%TO.N,WP*%
X124967000Y-136025001D03*
%TO.P,J3,27*%
%TO.N,GND*%
X122427000Y-136025001D03*
%TO.P,J3,26*%
%TO.N,T0*%
X124967000Y-133485001D03*
%TO.P,J3,25*%
%TO.N,GND*%
X122427000Y-133485001D03*
%TO.P,J3,24*%
%TO.N,WE*%
X124967000Y-130945001D03*
%TO.P,J3,23*%
%TO.N,GND*%
X122427000Y-130945001D03*
%TO.P,J3,22*%
%TO.N,WD*%
X124967000Y-128405001D03*
%TO.P,J3,21*%
%TO.N,GND*%
X122427000Y-128405001D03*
%TO.P,J3,20*%
%TO.N,ST*%
X124967000Y-125865001D03*
%TO.P,J3,19*%
%TO.N,GND*%
X122427000Y-125865001D03*
%TO.P,J3,18*%
%TO.N,SD*%
X124967000Y-123325001D03*
%TO.P,J3,17*%
%TO.N,GND*%
X122427000Y-123325001D03*
%TO.P,J3,16*%
%TO.N,N/C*%
X124967000Y-120785001D03*
%TO.P,J3,15*%
%TO.N,GND*%
X122427000Y-120785001D03*
%TO.P,J3,14*%
%TO.N,SE2*%
X124967000Y-118245001D03*
%TO.P,J3,13*%
%TO.N,GND*%
X122427000Y-118245001D03*
%TO.P,J3,12*%
%TO.N,SE1*%
X124967000Y-115705001D03*
%TO.P,J3,11*%
%TO.N,GND*%
X122427000Y-115705001D03*
%TO.P,J3,10*%
%TO.N,SE0*%
X124967000Y-113165001D03*
%TO.P,J3,9*%
%TO.N,GND*%
X122427000Y-113165001D03*
%TO.P,J3,8*%
%TO.N,IX*%
X124967000Y-110625001D03*
%TO.P,J3,7*%
%TO.N,GND*%
X122427000Y-110625001D03*
%TO.P,J3,6*%
%TO.N,SE3*%
X124967000Y-108085001D03*
%TO.P,J3,5*%
%TO.N,GND*%
X122427000Y-108085001D03*
%TO.P,J3,4*%
%TO.N,N/C*%
X124967000Y-105545001D03*
%TO.P,J3,3*%
%TO.N,GND*%
X122427000Y-105545001D03*
%TO.P,J3,2*%
%TO.N,N/C*%
X124967000Y-103005001D03*
D15*
%TO.P,J3,1*%
%TO.N,GND*%
X122427000Y-103005001D03*
%TD*%
D18*
%TO.N,RDY*%
X110664000Y-136224000D03*
X110768000Y-142470000D03*
X129794000Y-143764000D03*
%TO.N,GND*%
X128016000Y-100838000D03*
X122427000Y-100839000D03*
X131752000Y-100912000D03*
X110744000Y-144272000D03*
X109221000Y-100839000D03*
X109220000Y-87122000D03*
%TO.N,WE*%
X110730000Y-126224000D03*
X110744000Y-130048000D03*
%TO.N,WD*%
X111760000Y-127508000D03*
X111734000Y-123724000D03*
%TO.N,ST*%
X110744000Y-121158000D03*
X110779001Y-124749001D03*
%TO.N,SE2*%
X118110000Y-119380000D03*
X117973001Y-115198999D03*
%TO.N,SS*%
X113562000Y-139930000D03*
%TO.N,RD*%
X111894000Y-133724000D03*
X111760000Y-138176000D03*
%TO.N,WP*%
X115730000Y-131224000D03*
X115824000Y-134874000D03*
%TO.N,T0*%
X112014000Y-128778000D03*
X112014000Y-132080000D03*
%TO.N,SE0*%
X115951000Y-112141000D03*
%TO.N,+5P*%
X131318000Y-92710000D03*
X112776000Y-92964000D03*
X113792000Y-92710000D03*
X94996000Y-89662000D03*
X94996000Y-147066000D03*
X114537001Y-147336999D03*
%TO.N,+12P*%
X96012000Y-82042000D03*
X96012000Y-149860000D03*
%TO.N,Net-(J4-Pad34)*%
X135890000Y-84328000D03*
%TD*%
D19*
%TO.N,RDY*%
X110768000Y-136328000D02*
X110664000Y-136224000D01*
X110768000Y-142470000D02*
X110768000Y-136328000D01*
X130556000Y-84582000D02*
X130556000Y-80264000D01*
X130192999Y-84945001D02*
X130192999Y-143111001D01*
X130556000Y-84582000D02*
X130192999Y-84945001D01*
X130192999Y-143111001D02*
X129794000Y-143510000D01*
X129794000Y-143510000D02*
X129794000Y-143764000D01*
X129794000Y-143764000D02*
X129794000Y-143764000D01*
%TO.N,GND*%
X108512000Y-133724000D02*
X108512000Y-128724000D01*
X113512000Y-126224000D02*
X113512000Y-123724000D01*
X107486999Y-119749001D02*
X108512000Y-118724000D01*
X107486999Y-127698999D02*
X107486999Y-119749001D01*
X108512000Y-128724000D02*
X107486999Y-127698999D01*
X113512000Y-113724000D02*
X113512000Y-108724000D01*
X122427000Y-103005001D02*
X122427000Y-143645001D01*
X131752000Y-143566000D02*
X131752000Y-102926000D01*
X131752000Y-96660000D02*
X131318000Y-96226000D01*
X131752000Y-102926000D02*
X131752000Y-100912000D01*
X122427000Y-103005001D02*
X122427000Y-100839000D01*
X128016000Y-96266000D02*
X128016000Y-100838000D01*
X128016000Y-100838000D02*
X128016000Y-100838000D01*
X122427000Y-100839000D02*
X122427000Y-100839000D01*
X131752000Y-100912000D02*
X131752000Y-96660000D01*
X110744000Y-149860000D02*
X110744000Y-144272000D01*
X109221000Y-87123000D02*
X109220000Y-87122000D01*
X109221000Y-100839000D02*
X109221000Y-87123000D01*
X98044000Y-87122000D02*
X98044000Y-84582000D01*
%TO.N,WE*%
X110744000Y-126238000D02*
X110730000Y-126224000D01*
X110744000Y-130048000D02*
X110744000Y-126238000D01*
%TO.N,WD*%
X111760000Y-123750000D02*
X111734000Y-123724000D01*
X111760000Y-127508000D02*
X111760000Y-123750000D01*
%TO.N,ST*%
X110779001Y-121193001D02*
X110744000Y-121158000D01*
X110779001Y-124749001D02*
X110779001Y-121193001D01*
%TO.N,SE1*%
X112486999Y-115198999D02*
X113512000Y-116224000D01*
X112486999Y-96555001D02*
X112486999Y-115198999D01*
X112776000Y-96266000D02*
X112486999Y-96555001D01*
X133116999Y-114261001D02*
X134292000Y-113086000D01*
X133116999Y-116990999D02*
X133116999Y-114261001D01*
X134292000Y-118166000D02*
X133116999Y-116990999D01*
%TO.N,SE2*%
X118110000Y-115335998D02*
X117973001Y-115198999D01*
X118110000Y-119380000D02*
X118110000Y-115335998D01*
%TO.N,SS*%
X113562000Y-136274000D02*
X113512000Y-136224000D01*
X113562000Y-139930000D02*
X113562000Y-136274000D01*
%TO.N,RD*%
X111760000Y-133858000D02*
X111894000Y-133724000D01*
X111760000Y-138176000D02*
X111760000Y-133858000D01*
%TO.N,WP*%
X115824000Y-131318000D02*
X115730000Y-131224000D01*
X115824000Y-134874000D02*
X115824000Y-131318000D01*
%TO.N,T0*%
X112014000Y-132080000D02*
X112014000Y-128778000D01*
%TO.N,SE0*%
X116441010Y-89771010D02*
X115316000Y-88646000D01*
X116441010Y-111650990D02*
X116441010Y-89771010D01*
X115951000Y-112141000D02*
X116441010Y-111650990D01*
X135467001Y-119530999D02*
X134292000Y-120706000D01*
X135467001Y-116801001D02*
X135467001Y-119530999D01*
X134292000Y-115626000D02*
X135467001Y-116801001D01*
%TO.N,+5P*%
X112776000Y-81280000D02*
X112522000Y-81026000D01*
X112776000Y-88646000D02*
X112776000Y-81280000D01*
X112776000Y-88646000D02*
X112776000Y-92964000D01*
X131318000Y-93726000D02*
X131318000Y-92710000D01*
X131318000Y-92710000D02*
X131318000Y-92710000D01*
X112776000Y-92964000D02*
X112776000Y-92964000D01*
X112522000Y-84582000D02*
X112522000Y-81026000D01*
X113901001Y-96842005D02*
X113901001Y-92819001D01*
X114537001Y-97478005D02*
X113901001Y-96842005D01*
X114537001Y-148606999D02*
X114537001Y-147336999D01*
X113284000Y-149860000D02*
X114537001Y-148606999D01*
X94996000Y-89662000D02*
X94996000Y-147066000D01*
X94996000Y-147066000D02*
X94996000Y-147066000D01*
X114537001Y-147336999D02*
X114537001Y-97478005D01*
%TO.N,+12P*%
X96012000Y-82042000D02*
X96012000Y-149860000D01*
X96012000Y-149860000D02*
X96012000Y-149860000D01*
%TO.N,Net-(J4-Pad34)*%
X133096000Y-84582000D02*
X133096000Y-80264000D01*
X135917011Y-141940989D02*
X135917011Y-84609011D01*
X134292000Y-143566000D02*
X135917011Y-141940989D01*
X135917011Y-84609011D02*
X135890000Y-84582000D01*
X135890000Y-84582000D02*
X135890000Y-84328000D01*
X135890000Y-84328000D02*
X135890000Y-84328000D01*
%TO.N,Net-(J6-Pad1)*%
X128016000Y-88646000D02*
X128016000Y-84582000D01*
%TO.N,Net-(J7-Pad1)*%
X126601010Y-81678990D02*
X128016000Y-80264000D01*
X126601010Y-95140990D02*
X126601010Y-81678990D01*
X125476000Y-96266000D02*
X126601010Y-95140990D01*
%TO.N,Net-(R1-Pad2)*%
X122936000Y-84836000D02*
X122682000Y-84582000D01*
X122936000Y-88646000D02*
X122936000Y-84836000D01*
%TO.N,Net-(R2-Pad2)*%
X124061010Y-82405010D02*
X122682000Y-81026000D01*
X124061010Y-95140990D02*
X124061010Y-82405010D01*
X122936000Y-96266000D02*
X124061010Y-95140990D01*
%TD*%
D20*
%TO.N,GND*%
X136754001Y-83758118D02*
X136693937Y-83668226D01*
X136549774Y-83524063D01*
X136380256Y-83410795D01*
X136191898Y-83332774D01*
X135991939Y-83293000D01*
X135788061Y-83293000D01*
X135588102Y-83332774D01*
X135399744Y-83410795D01*
X135230226Y-83524063D01*
X135086063Y-83668226D01*
X134972795Y-83837744D01*
X134894774Y-84026102D01*
X134855000Y-84226061D01*
X134855000Y-84429939D01*
X134894774Y-84629898D01*
X134972795Y-84818256D01*
X135086063Y-84987774D01*
X135157012Y-85058723D01*
X135157012Y-101717988D01*
X134995411Y-101610010D01*
X134725158Y-101498068D01*
X134438260Y-101441000D01*
X134145740Y-101441000D01*
X133858842Y-101498068D01*
X133588589Y-101610010D01*
X133345368Y-101772525D01*
X133213513Y-101904380D01*
X133191502Y-101831820D01*
X133132537Y-101721506D01*
X133053185Y-101624815D01*
X132956494Y-101545463D01*
X132846180Y-101486498D01*
X132726482Y-101450188D01*
X132602000Y-101437928D01*
X132037750Y-101441000D01*
X131879000Y-101599750D01*
X131879000Y-102799000D01*
X131899000Y-102799000D01*
X131899000Y-103053000D01*
X131879000Y-103053000D01*
X131879000Y-105339000D01*
X131899000Y-105339000D01*
X131899000Y-105593000D01*
X131879000Y-105593000D01*
X131879000Y-107879000D01*
X131899000Y-107879000D01*
X131899000Y-108133000D01*
X131879000Y-108133000D01*
X131879000Y-110419000D01*
X131899000Y-110419000D01*
X131899000Y-110673000D01*
X131879000Y-110673000D01*
X131879000Y-112959000D01*
X131899000Y-112959000D01*
X131899000Y-113213000D01*
X131879000Y-113213000D01*
X131879000Y-115499000D01*
X131899000Y-115499000D01*
X131899000Y-115753000D01*
X131879000Y-115753000D01*
X131879000Y-118039000D01*
X131899000Y-118039000D01*
X131899000Y-118293000D01*
X131879000Y-118293000D01*
X131879000Y-120579000D01*
X131899000Y-120579000D01*
X131899000Y-120833000D01*
X131879000Y-120833000D01*
X131879000Y-123119000D01*
X131899000Y-123119000D01*
X131899000Y-123373000D01*
X131879000Y-123373000D01*
X131879000Y-125659000D01*
X131899000Y-125659000D01*
X131899000Y-125913000D01*
X131879000Y-125913000D01*
X131879000Y-128199000D01*
X131899000Y-128199000D01*
X131899000Y-128453000D01*
X131879000Y-128453000D01*
X131879000Y-130739000D01*
X131899000Y-130739000D01*
X131899000Y-130993000D01*
X131879000Y-130993000D01*
X131879000Y-133279000D01*
X131899000Y-133279000D01*
X131899000Y-133533000D01*
X131879000Y-133533000D01*
X131879000Y-135819000D01*
X131899000Y-135819000D01*
X131899000Y-136073000D01*
X131879000Y-136073000D01*
X131879000Y-138359000D01*
X131899000Y-138359000D01*
X131899000Y-138613000D01*
X131879000Y-138613000D01*
X131879000Y-140899000D01*
X131899000Y-140899000D01*
X131899000Y-141153000D01*
X131879000Y-141153000D01*
X131879000Y-143439000D01*
X131899000Y-143439000D01*
X131899000Y-143693000D01*
X131879000Y-143693000D01*
X131879000Y-144886814D01*
X132108891Y-145007481D01*
X132383252Y-144910157D01*
X132633355Y-144761178D01*
X132849588Y-144566269D01*
X133020900Y-144336594D01*
X133138525Y-144512632D01*
X133345368Y-144719475D01*
X133588589Y-144881990D01*
X133858842Y-144993932D01*
X134145740Y-145051000D01*
X134438260Y-145051000D01*
X134725158Y-144993932D01*
X134995411Y-144881990D01*
X135238632Y-144719475D01*
X135445475Y-144512632D01*
X135607990Y-144269411D01*
X135719932Y-143999158D01*
X135777000Y-143712260D01*
X135777000Y-143419740D01*
X135733210Y-143199592D01*
X136428015Y-142504787D01*
X136457012Y-142480990D01*
X136551985Y-142365265D01*
X136622557Y-142233236D01*
X136666014Y-142089975D01*
X136677011Y-141978322D01*
X136677011Y-141978321D01*
X136680688Y-141940989D01*
X136677011Y-141903656D01*
X136677011Y-85004700D01*
X136693937Y-84987774D01*
X136754001Y-84897882D01*
X136754000Y-154280000D01*
X92100000Y-154280000D01*
X92100000Y-89560061D01*
X93961000Y-89560061D01*
X93961000Y-89763939D01*
X94000774Y-89963898D01*
X94078795Y-90152256D01*
X94192063Y-90321774D01*
X94236000Y-90365711D01*
X94236001Y-146362288D01*
X94192063Y-146406226D01*
X94078795Y-146575744D01*
X94000774Y-146764102D01*
X93961000Y-146964061D01*
X93961000Y-147167939D01*
X94000774Y-147367898D01*
X94078795Y-147556256D01*
X94192063Y-147725774D01*
X94336226Y-147869937D01*
X94505744Y-147983205D01*
X94694102Y-148061226D01*
X94894061Y-148101000D01*
X95097939Y-148101000D01*
X95252001Y-148070355D01*
X95252001Y-149156288D01*
X95208063Y-149200226D01*
X95094795Y-149369744D01*
X95016774Y-149558102D01*
X94977000Y-149758061D01*
X94977000Y-149961939D01*
X95016774Y-150161898D01*
X95094795Y-150350256D01*
X95208063Y-150519774D01*
X95352226Y-150663937D01*
X95521744Y-150777205D01*
X95710102Y-150855226D01*
X95910061Y-150895000D01*
X96113939Y-150895000D01*
X96313898Y-150855226D01*
X96502256Y-150777205D01*
X96671774Y-150663937D01*
X96815937Y-150519774D01*
X96929205Y-150350256D01*
X97007226Y-150161898D01*
X97047000Y-149961939D01*
X97047000Y-149758061D01*
X97007226Y-149558102D01*
X96929205Y-149369744D01*
X96815937Y-149200226D01*
X96772000Y-149156289D01*
X96772000Y-149010000D01*
X104175928Y-149010000D01*
X104175928Y-150710000D01*
X104188188Y-150834482D01*
X104224498Y-150954180D01*
X104283463Y-151064494D01*
X104362815Y-151161185D01*
X104459506Y-151240537D01*
X104569820Y-151299502D01*
X104689518Y-151335812D01*
X104814000Y-151348072D01*
X106514000Y-151348072D01*
X106638482Y-151335812D01*
X106758180Y-151299502D01*
X106868494Y-151240537D01*
X106965185Y-151161185D01*
X107044537Y-151064494D01*
X107103502Y-150954180D01*
X107127966Y-150873534D01*
X107203731Y-150957588D01*
X107437080Y-151131641D01*
X107699901Y-151256825D01*
X107847110Y-151301476D01*
X108077000Y-151180155D01*
X108077000Y-149987000D01*
X108331000Y-149987000D01*
X108331000Y-151180155D01*
X108560890Y-151301476D01*
X108708099Y-151256825D01*
X108970920Y-151131641D01*
X109204269Y-150957588D01*
X109399178Y-150741355D01*
X109474000Y-150615745D01*
X109548822Y-150741355D01*
X109743731Y-150957588D01*
X109977080Y-151131641D01*
X110239901Y-151256825D01*
X110387110Y-151301476D01*
X110617000Y-151180155D01*
X110617000Y-149987000D01*
X108331000Y-149987000D01*
X108077000Y-149987000D01*
X108057000Y-149987000D01*
X108057000Y-149733000D01*
X108077000Y-149733000D01*
X108077000Y-148539845D01*
X108331000Y-148539845D01*
X108331000Y-149733000D01*
X110617000Y-149733000D01*
X110617000Y-148539845D01*
X110387110Y-148418524D01*
X110239901Y-148463175D01*
X109977080Y-148588359D01*
X109743731Y-148762412D01*
X109548822Y-148978645D01*
X109474000Y-149104255D01*
X109399178Y-148978645D01*
X109204269Y-148762412D01*
X108970920Y-148588359D01*
X108708099Y-148463175D01*
X108560890Y-148418524D01*
X108331000Y-148539845D01*
X108077000Y-148539845D01*
X107847110Y-148418524D01*
X107699901Y-148463175D01*
X107437080Y-148588359D01*
X107203731Y-148762412D01*
X107127966Y-148846466D01*
X107103502Y-148765820D01*
X107044537Y-148655506D01*
X106965185Y-148558815D01*
X106868494Y-148479463D01*
X106758180Y-148420498D01*
X106638482Y-148384188D01*
X106514000Y-148371928D01*
X104814000Y-148371928D01*
X104689518Y-148384188D01*
X104569820Y-148420498D01*
X104459506Y-148479463D01*
X104362815Y-148558815D01*
X104283463Y-148655506D01*
X104224498Y-148765820D01*
X104188188Y-148885518D01*
X104175928Y-149010000D01*
X96772000Y-149010000D01*
X96772000Y-145527172D01*
X97340600Y-145527172D01*
X97340600Y-145810828D01*
X97395938Y-146089033D01*
X97504488Y-146351096D01*
X97662079Y-146586947D01*
X97862653Y-146787521D01*
X98098504Y-146945112D01*
X98360567Y-147053662D01*
X98638772Y-147109000D01*
X98922428Y-147109000D01*
X99200633Y-147053662D01*
X99462696Y-146945112D01*
X99698547Y-146787521D01*
X99899121Y-146586947D01*
X100056712Y-146351096D01*
X100165262Y-146089033D01*
X100220600Y-145810828D01*
X100220600Y-145527172D01*
X100165262Y-145248967D01*
X100056712Y-144986904D01*
X99899121Y-144751053D01*
X99698547Y-144550479D01*
X99462696Y-144392888D01*
X99200633Y-144284338D01*
X98922428Y-144229000D01*
X98638772Y-144229000D01*
X98360567Y-144284338D01*
X98098504Y-144392888D01*
X97862653Y-144550479D01*
X97662079Y-144751053D01*
X97504488Y-144986904D01*
X97395938Y-145248967D01*
X97340600Y-145527172D01*
X96772000Y-145527172D01*
X96772000Y-141717172D01*
X99652000Y-141717172D01*
X99652000Y-142000828D01*
X99707338Y-142279033D01*
X99815888Y-142541096D01*
X99973479Y-142776947D01*
X100174053Y-142977521D01*
X100409904Y-143135112D01*
X100671967Y-143243662D01*
X100950172Y-143299000D01*
X101233828Y-143299000D01*
X101512033Y-143243662D01*
X101774096Y-143135112D01*
X102009947Y-142977521D01*
X102210521Y-142776947D01*
X102368112Y-142541096D01*
X102476662Y-142279033D01*
X102532000Y-142000828D01*
X102532000Y-141717172D01*
X102476662Y-141438967D01*
X102368112Y-141176904D01*
X102210521Y-140941053D01*
X102009947Y-140740479D01*
X101774096Y-140582888D01*
X101512033Y-140474338D01*
X101233828Y-140419000D01*
X100950172Y-140419000D01*
X100671967Y-140474338D01*
X100409904Y-140582888D01*
X100174053Y-140740479D01*
X99973479Y-140941053D01*
X99815888Y-141176904D01*
X99707338Y-141438967D01*
X99652000Y-141717172D01*
X96772000Y-141717172D01*
X96772000Y-133798473D01*
X107172610Y-133798473D01*
X107212875Y-134058344D01*
X107303065Y-134305366D01*
X107356963Y-134406203D01*
X107590731Y-134465664D01*
X108332395Y-133724000D01*
X108691605Y-133724000D01*
X109433269Y-134465664D01*
X109667037Y-134406203D01*
X109777934Y-134167758D01*
X109840183Y-133912260D01*
X109851390Y-133649527D01*
X109811125Y-133389656D01*
X109720935Y-133142634D01*
X109667037Y-133041797D01*
X109433269Y-132982336D01*
X108691605Y-133724000D01*
X108332395Y-133724000D01*
X107590731Y-132982336D01*
X107356963Y-133041797D01*
X107246066Y-133280242D01*
X107183817Y-133535740D01*
X107172610Y-133798473D01*
X96772000Y-133798473D01*
X96772000Y-132145269D01*
X107770336Y-132145269D01*
X107829797Y-132379037D01*
X108037995Y-132475867D01*
X107930634Y-132515065D01*
X107829797Y-132568963D01*
X107770336Y-132802731D01*
X108512000Y-133544395D01*
X109253664Y-132802731D01*
X109194203Y-132568963D01*
X108986005Y-132472133D01*
X109093366Y-132432935D01*
X109194203Y-132379037D01*
X109253664Y-132145269D01*
X108512000Y-131403605D01*
X107770336Y-132145269D01*
X96772000Y-132145269D01*
X96772000Y-131298473D01*
X107172610Y-131298473D01*
X107212875Y-131558344D01*
X107303065Y-131805366D01*
X107356963Y-131906203D01*
X107590731Y-131965664D01*
X108332395Y-131224000D01*
X108691605Y-131224000D01*
X109433269Y-131965664D01*
X109667037Y-131906203D01*
X109777934Y-131667758D01*
X109840183Y-131412260D01*
X109851390Y-131149527D01*
X109811125Y-130889656D01*
X109720935Y-130642634D01*
X109667037Y-130541797D01*
X109433269Y-130482336D01*
X108691605Y-131224000D01*
X108332395Y-131224000D01*
X107590731Y-130482336D01*
X107356963Y-130541797D01*
X107246066Y-130780242D01*
X107183817Y-131035740D01*
X107172610Y-131298473D01*
X96772000Y-131298473D01*
X96772000Y-129645269D01*
X107770336Y-129645269D01*
X107829797Y-129879037D01*
X108037995Y-129975867D01*
X107930634Y-130015065D01*
X107829797Y-130068963D01*
X107770336Y-130302731D01*
X108512000Y-131044395D01*
X109253664Y-130302731D01*
X109194203Y-130068963D01*
X108986005Y-129972133D01*
X109093366Y-129932935D01*
X109194203Y-129879037D01*
X109253664Y-129645269D01*
X108512000Y-128903605D01*
X107770336Y-129645269D01*
X96772000Y-129645269D01*
X96772000Y-128798473D01*
X107172610Y-128798473D01*
X107212875Y-129058344D01*
X107303065Y-129305366D01*
X107356963Y-129406203D01*
X107590731Y-129465664D01*
X108332395Y-128724000D01*
X108691605Y-128724000D01*
X109433269Y-129465664D01*
X109667037Y-129406203D01*
X109777934Y-129167758D01*
X109840183Y-128912260D01*
X109851390Y-128649527D01*
X109811125Y-128389656D01*
X109720935Y-128142634D01*
X109667037Y-128041797D01*
X109433269Y-127982336D01*
X108691605Y-128724000D01*
X108332395Y-128724000D01*
X107590731Y-127982336D01*
X107356963Y-128041797D01*
X107246066Y-128280242D01*
X107183817Y-128535740D01*
X107172610Y-128798473D01*
X96772000Y-128798473D01*
X96772000Y-121092514D01*
X107177000Y-121092514D01*
X107177000Y-121355486D01*
X107228304Y-121613405D01*
X107328939Y-121856359D01*
X107475038Y-122075013D01*
X107660987Y-122260962D01*
X107879641Y-122407061D01*
X108041246Y-122474000D01*
X107879641Y-122540939D01*
X107660987Y-122687038D01*
X107475038Y-122872987D01*
X107328939Y-123091641D01*
X107228304Y-123334595D01*
X107177000Y-123592514D01*
X107177000Y-123855486D01*
X107228304Y-124113405D01*
X107328939Y-124356359D01*
X107475038Y-124575013D01*
X107660987Y-124760962D01*
X107879641Y-124907061D01*
X108041246Y-124974000D01*
X107879641Y-125040939D01*
X107660987Y-125187038D01*
X107475038Y-125372987D01*
X107328939Y-125591641D01*
X107228304Y-125834595D01*
X107177000Y-126092514D01*
X107177000Y-126355486D01*
X107228304Y-126613405D01*
X107328939Y-126856359D01*
X107475038Y-127075013D01*
X107660987Y-127260962D01*
X107879641Y-127407061D01*
X108042118Y-127474361D01*
X107930634Y-127515065D01*
X107829797Y-127568963D01*
X107770336Y-127802731D01*
X108512000Y-128544395D01*
X109253664Y-127802731D01*
X109194203Y-127568963D01*
X108986596Y-127472408D01*
X109144359Y-127407061D01*
X109363013Y-127260962D01*
X109548962Y-127075013D01*
X109695061Y-126856359D01*
X109783358Y-126643190D01*
X109812795Y-126714256D01*
X109926063Y-126883774D01*
X109984001Y-126941712D01*
X109984000Y-129344289D01*
X109940063Y-129388226D01*
X109826795Y-129557744D01*
X109748774Y-129746102D01*
X109709000Y-129946061D01*
X109709000Y-130149939D01*
X109748774Y-130349898D01*
X109826795Y-130538256D01*
X109940063Y-130707774D01*
X110084226Y-130851937D01*
X110253744Y-130965205D01*
X110442102Y-131043226D01*
X110642061Y-131083000D01*
X110845939Y-131083000D01*
X111045898Y-131043226D01*
X111234256Y-130965205D01*
X111254000Y-130952012D01*
X111254000Y-131376289D01*
X111210063Y-131420226D01*
X111096795Y-131589744D01*
X111018774Y-131778102D01*
X110979000Y-131978061D01*
X110979000Y-132181939D01*
X111018774Y-132381898D01*
X111096795Y-132570256D01*
X111210063Y-132739774D01*
X111327817Y-132857528D01*
X111234226Y-132920063D01*
X111090063Y-133064226D01*
X110976795Y-133233744D01*
X110898774Y-133422102D01*
X110859000Y-133622061D01*
X110859000Y-133825939D01*
X110898774Y-134025898D01*
X110976795Y-134214256D01*
X111000001Y-134248986D01*
X111000001Y-135242900D01*
X110965898Y-135228774D01*
X110765939Y-135189000D01*
X110562061Y-135189000D01*
X110362102Y-135228774D01*
X110173744Y-135306795D01*
X110004226Y-135420063D01*
X109860063Y-135564226D01*
X109751195Y-135727159D01*
X109695061Y-135591641D01*
X109548962Y-135372987D01*
X109363013Y-135187038D01*
X109144359Y-135040939D01*
X108981882Y-134973639D01*
X109093366Y-134932935D01*
X109194203Y-134879037D01*
X109253664Y-134645269D01*
X108512000Y-133903605D01*
X107770336Y-134645269D01*
X107829797Y-134879037D01*
X108037404Y-134975592D01*
X107879641Y-135040939D01*
X107660987Y-135187038D01*
X107475038Y-135372987D01*
X107328939Y-135591641D01*
X107228304Y-135834595D01*
X107177000Y-136092514D01*
X107177000Y-136355486D01*
X107228304Y-136613405D01*
X107328939Y-136856359D01*
X107475038Y-137075013D01*
X107660987Y-137260962D01*
X107879641Y-137407061D01*
X108122595Y-137507696D01*
X108380514Y-137559000D01*
X108643486Y-137559000D01*
X108901405Y-137507696D01*
X109144359Y-137407061D01*
X109363013Y-137260962D01*
X109548962Y-137075013D01*
X109695061Y-136856359D01*
X109751195Y-136720841D01*
X109860063Y-136883774D01*
X110004226Y-137027937D01*
X110008001Y-137030459D01*
X110008000Y-141766289D01*
X109964063Y-141810226D01*
X109850795Y-141979744D01*
X109772774Y-142168102D01*
X109733000Y-142368061D01*
X109733000Y-142571939D01*
X109772774Y-142771898D01*
X109850795Y-142960256D01*
X109964063Y-143129774D01*
X110108226Y-143273937D01*
X110277744Y-143387205D01*
X110466102Y-143465226D01*
X110666061Y-143505000D01*
X110869939Y-143505000D01*
X111069898Y-143465226D01*
X111258256Y-143387205D01*
X111427774Y-143273937D01*
X111571937Y-143129774D01*
X111685205Y-142960256D01*
X111763226Y-142771898D01*
X111803000Y-142571939D01*
X111803000Y-142368061D01*
X111763226Y-142168102D01*
X111685205Y-141979744D01*
X111571937Y-141810226D01*
X111528000Y-141766289D01*
X111528000Y-139185129D01*
X111658061Y-139211000D01*
X111861939Y-139211000D01*
X112061898Y-139171226D01*
X112250256Y-139093205D01*
X112419774Y-138979937D01*
X112563937Y-138835774D01*
X112677205Y-138666256D01*
X112755226Y-138477898D01*
X112795000Y-138277939D01*
X112795000Y-138074061D01*
X112755226Y-137874102D01*
X112677205Y-137685744D01*
X112563937Y-137516226D01*
X112520000Y-137472289D01*
X112520000Y-137119975D01*
X112660987Y-137260962D01*
X112802001Y-137355184D01*
X112802000Y-139226289D01*
X112758063Y-139270226D01*
X112644795Y-139439744D01*
X112566774Y-139628102D01*
X112527000Y-139828061D01*
X112527000Y-140031939D01*
X112566774Y-140231898D01*
X112644795Y-140420256D01*
X112758063Y-140589774D01*
X112902226Y-140733937D01*
X113071744Y-140847205D01*
X113260102Y-140925226D01*
X113460061Y-140965000D01*
X113663939Y-140965000D01*
X113777001Y-140942511D01*
X113777001Y-146633288D01*
X113733064Y-146677225D01*
X113619796Y-146846743D01*
X113541775Y-147035101D01*
X113502001Y-147235060D01*
X113502001Y-147438938D01*
X113541775Y-147638897D01*
X113619796Y-147827255D01*
X113733064Y-147996773D01*
X113777001Y-148040710D01*
X113777001Y-148292197D01*
X113650408Y-148418790D01*
X113430260Y-148375000D01*
X113137740Y-148375000D01*
X112850842Y-148432068D01*
X112580589Y-148544010D01*
X112337368Y-148706525D01*
X112130525Y-148913368D01*
X112008805Y-149095534D01*
X111939178Y-148978645D01*
X111744269Y-148762412D01*
X111510920Y-148588359D01*
X111248099Y-148463175D01*
X111100890Y-148418524D01*
X110871000Y-148539845D01*
X110871000Y-149733000D01*
X110891000Y-149733000D01*
X110891000Y-149987000D01*
X110871000Y-149987000D01*
X110871000Y-151180155D01*
X111100890Y-151301476D01*
X111248099Y-151256825D01*
X111510920Y-151131641D01*
X111744269Y-150957588D01*
X111939178Y-150741355D01*
X112008805Y-150624466D01*
X112130525Y-150806632D01*
X112337368Y-151013475D01*
X112580589Y-151175990D01*
X112850842Y-151287932D01*
X113137740Y-151345000D01*
X113430260Y-151345000D01*
X113717158Y-151287932D01*
X113987411Y-151175990D01*
X114230632Y-151013475D01*
X114437475Y-150806632D01*
X114599990Y-150563411D01*
X114711932Y-150293158D01*
X114769000Y-150006260D01*
X114769000Y-149713740D01*
X114725210Y-149493592D01*
X115048005Y-149170797D01*
X115077002Y-149147000D01*
X115115574Y-149100000D01*
X115171975Y-149031276D01*
X115242547Y-148899246D01*
X115253004Y-148864774D01*
X115286004Y-148755985D01*
X115297001Y-148644332D01*
X115297001Y-148644322D01*
X115300677Y-148607000D01*
X115297001Y-148569677D01*
X115297001Y-148040710D01*
X115340938Y-147996773D01*
X115454206Y-147827255D01*
X115532227Y-147638897D01*
X115572001Y-147438938D01*
X115572001Y-147235060D01*
X115532227Y-147035101D01*
X115454206Y-146846743D01*
X115340938Y-146677225D01*
X115297001Y-146633288D01*
X115297001Y-144001891D01*
X120985524Y-144001891D01*
X121030175Y-144149100D01*
X121155359Y-144411921D01*
X121329412Y-144645270D01*
X121545645Y-144840179D01*
X121795748Y-144989158D01*
X122070109Y-145086482D01*
X122300000Y-144965815D01*
X122300000Y-143772001D01*
X121106845Y-143772001D01*
X120985524Y-144001891D01*
X115297001Y-144001891D01*
X115297001Y-141461891D01*
X120985524Y-141461891D01*
X121030175Y-141609100D01*
X121155359Y-141871921D01*
X121329412Y-142105270D01*
X121545645Y-142300179D01*
X121671255Y-142375001D01*
X121545645Y-142449823D01*
X121329412Y-142644732D01*
X121155359Y-142878081D01*
X121030175Y-143140902D01*
X120985524Y-143288111D01*
X121106845Y-143518001D01*
X122300000Y-143518001D01*
X122300000Y-141232001D01*
X121106845Y-141232001D01*
X120985524Y-141461891D01*
X115297001Y-141461891D01*
X115297001Y-138921891D01*
X120985524Y-138921891D01*
X121030175Y-139069100D01*
X121155359Y-139331921D01*
X121329412Y-139565270D01*
X121545645Y-139760179D01*
X121671255Y-139835001D01*
X121545645Y-139909823D01*
X121329412Y-140104732D01*
X121155359Y-140338081D01*
X121030175Y-140600902D01*
X120985524Y-140748111D01*
X121106845Y-140978001D01*
X122300000Y-140978001D01*
X122300000Y-138692001D01*
X121106845Y-138692001D01*
X120985524Y-138921891D01*
X115297001Y-138921891D01*
X115297001Y-136381891D01*
X120985524Y-136381891D01*
X121030175Y-136529100D01*
X121155359Y-136791921D01*
X121329412Y-137025270D01*
X121545645Y-137220179D01*
X121671255Y-137295001D01*
X121545645Y-137369823D01*
X121329412Y-137564732D01*
X121155359Y-137798081D01*
X121030175Y-138060902D01*
X120985524Y-138208111D01*
X121106845Y-138438001D01*
X122300000Y-138438001D01*
X122300000Y-136152001D01*
X121106845Y-136152001D01*
X120985524Y-136381891D01*
X115297001Y-136381891D01*
X115297001Y-135766654D01*
X115333744Y-135791205D01*
X115522102Y-135869226D01*
X115722061Y-135909000D01*
X115925939Y-135909000D01*
X116125898Y-135869226D01*
X116314256Y-135791205D01*
X116483774Y-135677937D01*
X116627937Y-135533774D01*
X116741205Y-135364256D01*
X116819226Y-135175898D01*
X116859000Y-134975939D01*
X116859000Y-134772061D01*
X116819226Y-134572102D01*
X116741205Y-134383744D01*
X116627937Y-134214226D01*
X116584000Y-134170289D01*
X116584000Y-133841891D01*
X120985524Y-133841891D01*
X121030175Y-133989100D01*
X121155359Y-134251921D01*
X121329412Y-134485270D01*
X121545645Y-134680179D01*
X121671255Y-134755001D01*
X121545645Y-134829823D01*
X121329412Y-135024732D01*
X121155359Y-135258081D01*
X121030175Y-135520902D01*
X120985524Y-135668111D01*
X121106845Y-135898001D01*
X122300000Y-135898001D01*
X122300000Y-133612001D01*
X121106845Y-133612001D01*
X120985524Y-133841891D01*
X116584000Y-133841891D01*
X116584000Y-131808849D01*
X116647205Y-131714256D01*
X116725226Y-131525898D01*
X116765000Y-131325939D01*
X116765000Y-131301891D01*
X120985524Y-131301891D01*
X121030175Y-131449100D01*
X121155359Y-131711921D01*
X121329412Y-131945270D01*
X121545645Y-132140179D01*
X121671255Y-132215001D01*
X121545645Y-132289823D01*
X121329412Y-132484732D01*
X121155359Y-132718081D01*
X121030175Y-132980902D01*
X120985524Y-133128111D01*
X121106845Y-133358001D01*
X122300000Y-133358001D01*
X122300000Y-131072001D01*
X121106845Y-131072001D01*
X120985524Y-131301891D01*
X116765000Y-131301891D01*
X116765000Y-131122061D01*
X116725226Y-130922102D01*
X116647205Y-130733744D01*
X116533937Y-130564226D01*
X116389774Y-130420063D01*
X116220256Y-130306795D01*
X116031898Y-130228774D01*
X115831939Y-130189000D01*
X115628061Y-130189000D01*
X115428102Y-130228774D01*
X115297001Y-130283078D01*
X115297001Y-128761891D01*
X120985524Y-128761891D01*
X121030175Y-128909100D01*
X121155359Y-129171921D01*
X121329412Y-129405270D01*
X121545645Y-129600179D01*
X121671255Y-129675001D01*
X121545645Y-129749823D01*
X121329412Y-129944732D01*
X121155359Y-130178081D01*
X121030175Y-130440902D01*
X120985524Y-130588111D01*
X121106845Y-130818001D01*
X122300000Y-130818001D01*
X122300000Y-128532001D01*
X121106845Y-128532001D01*
X120985524Y-128761891D01*
X115297001Y-128761891D01*
X115297001Y-126221891D01*
X120985524Y-126221891D01*
X121030175Y-126369100D01*
X121155359Y-126631921D01*
X121329412Y-126865270D01*
X121545645Y-127060179D01*
X121671255Y-127135001D01*
X121545645Y-127209823D01*
X121329412Y-127404732D01*
X121155359Y-127638081D01*
X121030175Y-127900902D01*
X120985524Y-128048111D01*
X121106845Y-128278001D01*
X122300000Y-128278001D01*
X122300000Y-125992001D01*
X121106845Y-125992001D01*
X120985524Y-126221891D01*
X115297001Y-126221891D01*
X115297001Y-123681891D01*
X120985524Y-123681891D01*
X121030175Y-123829100D01*
X121155359Y-124091921D01*
X121329412Y-124325270D01*
X121545645Y-124520179D01*
X121671255Y-124595001D01*
X121545645Y-124669823D01*
X121329412Y-124864732D01*
X121155359Y-125098081D01*
X121030175Y-125360902D01*
X120985524Y-125508111D01*
X121106845Y-125738001D01*
X122300000Y-125738001D01*
X122300000Y-123452001D01*
X121106845Y-123452001D01*
X120985524Y-123681891D01*
X115297001Y-123681891D01*
X115297001Y-121141891D01*
X120985524Y-121141891D01*
X121030175Y-121289100D01*
X121155359Y-121551921D01*
X121329412Y-121785270D01*
X121545645Y-121980179D01*
X121671255Y-122055001D01*
X121545645Y-122129823D01*
X121329412Y-122324732D01*
X121155359Y-122558081D01*
X121030175Y-122820902D01*
X120985524Y-122968111D01*
X121106845Y-123198001D01*
X122300000Y-123198001D01*
X122300000Y-120912001D01*
X121106845Y-120912001D01*
X120985524Y-121141891D01*
X115297001Y-121141891D01*
X115297001Y-115097060D01*
X116938001Y-115097060D01*
X116938001Y-115300938D01*
X116977775Y-115500897D01*
X117055796Y-115689255D01*
X117169064Y-115858773D01*
X117313227Y-116002936D01*
X117350001Y-116027507D01*
X117350000Y-118676289D01*
X117306063Y-118720226D01*
X117192795Y-118889744D01*
X117114774Y-119078102D01*
X117075000Y-119278061D01*
X117075000Y-119481939D01*
X117114774Y-119681898D01*
X117192795Y-119870256D01*
X117306063Y-120039774D01*
X117450226Y-120183937D01*
X117619744Y-120297205D01*
X117808102Y-120375226D01*
X118008061Y-120415000D01*
X118211939Y-120415000D01*
X118411898Y-120375226D01*
X118600256Y-120297205D01*
X118769774Y-120183937D01*
X118913937Y-120039774D01*
X119027205Y-119870256D01*
X119105226Y-119681898D01*
X119145000Y-119481939D01*
X119145000Y-119278061D01*
X119105226Y-119078102D01*
X119027205Y-118889744D01*
X118913937Y-118720226D01*
X118870000Y-118676289D01*
X118870000Y-118601891D01*
X120985524Y-118601891D01*
X121030175Y-118749100D01*
X121155359Y-119011921D01*
X121329412Y-119245270D01*
X121545645Y-119440179D01*
X121671255Y-119515001D01*
X121545645Y-119589823D01*
X121329412Y-119784732D01*
X121155359Y-120018081D01*
X121030175Y-120280902D01*
X120985524Y-120428111D01*
X121106845Y-120658001D01*
X122300000Y-120658001D01*
X122300000Y-118372001D01*
X121106845Y-118372001D01*
X120985524Y-118601891D01*
X118870000Y-118601891D01*
X118870000Y-116061891D01*
X120985524Y-116061891D01*
X121030175Y-116209100D01*
X121155359Y-116471921D01*
X121329412Y-116705270D01*
X121545645Y-116900179D01*
X121671255Y-116975001D01*
X121545645Y-117049823D01*
X121329412Y-117244732D01*
X121155359Y-117478081D01*
X121030175Y-117740902D01*
X120985524Y-117888111D01*
X121106845Y-118118001D01*
X122300000Y-118118001D01*
X122300000Y-115832001D01*
X121106845Y-115832001D01*
X120985524Y-116061891D01*
X118870000Y-116061891D01*
X118870000Y-115719495D01*
X118890206Y-115689255D01*
X118968227Y-115500897D01*
X119008001Y-115300938D01*
X119008001Y-115097060D01*
X118968227Y-114897101D01*
X118890206Y-114708743D01*
X118776938Y-114539225D01*
X118632775Y-114395062D01*
X118463257Y-114281794D01*
X118274899Y-114203773D01*
X118074940Y-114163999D01*
X117871062Y-114163999D01*
X117671103Y-114203773D01*
X117482745Y-114281794D01*
X117313227Y-114395062D01*
X117169064Y-114539225D01*
X117055796Y-114708743D01*
X116977775Y-114897101D01*
X116938001Y-115097060D01*
X115297001Y-115097060D01*
X115297001Y-113521891D01*
X120985524Y-113521891D01*
X121030175Y-113669100D01*
X121155359Y-113931921D01*
X121329412Y-114165270D01*
X121545645Y-114360179D01*
X121671255Y-114435001D01*
X121545645Y-114509823D01*
X121329412Y-114704732D01*
X121155359Y-114938081D01*
X121030175Y-115200902D01*
X120985524Y-115348111D01*
X121106845Y-115578001D01*
X122300000Y-115578001D01*
X122300000Y-113292001D01*
X121106845Y-113292001D01*
X120985524Y-113521891D01*
X115297001Y-113521891D01*
X115297001Y-112948796D01*
X115460744Y-113058205D01*
X115649102Y-113136226D01*
X115849061Y-113176000D01*
X116052939Y-113176000D01*
X116252898Y-113136226D01*
X116441256Y-113058205D01*
X116610774Y-112944937D01*
X116754937Y-112800774D01*
X116868205Y-112631256D01*
X116946226Y-112442898D01*
X116986000Y-112242939D01*
X116986000Y-112184912D01*
X117075984Y-112075266D01*
X117146556Y-111943237D01*
X117190013Y-111799976D01*
X117201010Y-111688323D01*
X117201010Y-111688315D01*
X117204686Y-111650990D01*
X117201010Y-111613665D01*
X117201010Y-110981891D01*
X120985524Y-110981891D01*
X121030175Y-111129100D01*
X121155359Y-111391921D01*
X121329412Y-111625270D01*
X121545645Y-111820179D01*
X121671255Y-111895001D01*
X121545645Y-111969823D01*
X121329412Y-112164732D01*
X121155359Y-112398081D01*
X121030175Y-112660902D01*
X120985524Y-112808111D01*
X121106845Y-113038001D01*
X122300000Y-113038001D01*
X122300000Y-110752001D01*
X121106845Y-110752001D01*
X120985524Y-110981891D01*
X117201010Y-110981891D01*
X117201010Y-108441891D01*
X120985524Y-108441891D01*
X121030175Y-108589100D01*
X121155359Y-108851921D01*
X121329412Y-109085270D01*
X121545645Y-109280179D01*
X121671255Y-109355001D01*
X121545645Y-109429823D01*
X121329412Y-109624732D01*
X121155359Y-109858081D01*
X121030175Y-110120902D01*
X120985524Y-110268111D01*
X121106845Y-110498001D01*
X122300000Y-110498001D01*
X122300000Y-108212001D01*
X121106845Y-108212001D01*
X120985524Y-108441891D01*
X117201010Y-108441891D01*
X117201010Y-105901891D01*
X120985524Y-105901891D01*
X121030175Y-106049100D01*
X121155359Y-106311921D01*
X121329412Y-106545270D01*
X121545645Y-106740179D01*
X121671255Y-106815001D01*
X121545645Y-106889823D01*
X121329412Y-107084732D01*
X121155359Y-107318081D01*
X121030175Y-107580902D01*
X120985524Y-107728111D01*
X121106845Y-107958001D01*
X122300000Y-107958001D01*
X122300000Y-105672001D01*
X121106845Y-105672001D01*
X120985524Y-105901891D01*
X117201010Y-105901891D01*
X117201010Y-103855001D01*
X120938928Y-103855001D01*
X120951188Y-103979483D01*
X120987498Y-104099181D01*
X121046463Y-104209495D01*
X121125815Y-104306186D01*
X121222506Y-104385538D01*
X121332820Y-104444503D01*
X121413466Y-104468967D01*
X121329412Y-104544732D01*
X121155359Y-104778081D01*
X121030175Y-105040902D01*
X120985524Y-105188111D01*
X121106845Y-105418001D01*
X122300000Y-105418001D01*
X122300000Y-103132001D01*
X121100750Y-103132001D01*
X120942000Y-103290751D01*
X120938928Y-103855001D01*
X117201010Y-103855001D01*
X117201010Y-102155001D01*
X120938928Y-102155001D01*
X120942000Y-102719251D01*
X121100750Y-102878001D01*
X122300000Y-102878001D01*
X122300000Y-101678751D01*
X122554000Y-101678751D01*
X122554000Y-102878001D01*
X122574000Y-102878001D01*
X122574000Y-103132001D01*
X122554000Y-103132001D01*
X122554000Y-105418001D01*
X122574000Y-105418001D01*
X122574000Y-105672001D01*
X122554000Y-105672001D01*
X122554000Y-107958001D01*
X122574000Y-107958001D01*
X122574000Y-108212001D01*
X122554000Y-108212001D01*
X122554000Y-110498001D01*
X122574000Y-110498001D01*
X122574000Y-110752001D01*
X122554000Y-110752001D01*
X122554000Y-113038001D01*
X122574000Y-113038001D01*
X122574000Y-113292001D01*
X122554000Y-113292001D01*
X122554000Y-115578001D01*
X122574000Y-115578001D01*
X122574000Y-115832001D01*
X122554000Y-115832001D01*
X122554000Y-118118001D01*
X122574000Y-118118001D01*
X122574000Y-118372001D01*
X122554000Y-118372001D01*
X122554000Y-120658001D01*
X122574000Y-120658001D01*
X122574000Y-120912001D01*
X122554000Y-120912001D01*
X122554000Y-123198001D01*
X122574000Y-123198001D01*
X122574000Y-123452001D01*
X122554000Y-123452001D01*
X122554000Y-125738001D01*
X122574000Y-125738001D01*
X122574000Y-125992001D01*
X122554000Y-125992001D01*
X122554000Y-128278001D01*
X122574000Y-128278001D01*
X122574000Y-128532001D01*
X122554000Y-128532001D01*
X122554000Y-130818001D01*
X122574000Y-130818001D01*
X122574000Y-131072001D01*
X122554000Y-131072001D01*
X122554000Y-133358001D01*
X122574000Y-133358001D01*
X122574000Y-133612001D01*
X122554000Y-133612001D01*
X122554000Y-135898001D01*
X122574000Y-135898001D01*
X122574000Y-136152001D01*
X122554000Y-136152001D01*
X122554000Y-138438001D01*
X122574000Y-138438001D01*
X122574000Y-138692001D01*
X122554000Y-138692001D01*
X122554000Y-140978001D01*
X122574000Y-140978001D01*
X122574000Y-141232001D01*
X122554000Y-141232001D01*
X122554000Y-143518001D01*
X122574000Y-143518001D01*
X122574000Y-143772001D01*
X122554000Y-143772001D01*
X122554000Y-144965815D01*
X122783891Y-145086482D01*
X123058252Y-144989158D01*
X123308355Y-144840179D01*
X123524588Y-144645270D01*
X123695900Y-144415595D01*
X123813525Y-144591633D01*
X124020368Y-144798476D01*
X124263589Y-144960991D01*
X124533842Y-145072933D01*
X124820740Y-145130001D01*
X125113260Y-145130001D01*
X125400158Y-145072933D01*
X125670411Y-144960991D01*
X125913632Y-144798476D01*
X126120475Y-144591633D01*
X126282990Y-144348412D01*
X126394932Y-144078159D01*
X126452000Y-143791261D01*
X126452000Y-143498741D01*
X126394932Y-143211843D01*
X126282990Y-142941590D01*
X126120475Y-142698369D01*
X125913632Y-142491526D01*
X125739240Y-142375001D01*
X125913632Y-142258476D01*
X126120475Y-142051633D01*
X126282990Y-141808412D01*
X126394932Y-141538159D01*
X126452000Y-141251261D01*
X126452000Y-140958741D01*
X126394932Y-140671843D01*
X126282990Y-140401590D01*
X126120475Y-140158369D01*
X125913632Y-139951526D01*
X125739240Y-139835001D01*
X125913632Y-139718476D01*
X126120475Y-139511633D01*
X126282990Y-139268412D01*
X126394932Y-138998159D01*
X126452000Y-138711261D01*
X126452000Y-138418741D01*
X126394932Y-138131843D01*
X126282990Y-137861590D01*
X126120475Y-137618369D01*
X125913632Y-137411526D01*
X125739240Y-137295001D01*
X125913632Y-137178476D01*
X126120475Y-136971633D01*
X126282990Y-136728412D01*
X126394932Y-136458159D01*
X126452000Y-136171261D01*
X126452000Y-135878741D01*
X126394932Y-135591843D01*
X126282990Y-135321590D01*
X126120475Y-135078369D01*
X125913632Y-134871526D01*
X125739240Y-134755001D01*
X125913632Y-134638476D01*
X126120475Y-134431633D01*
X126282990Y-134188412D01*
X126394932Y-133918159D01*
X126452000Y-133631261D01*
X126452000Y-133338741D01*
X126394932Y-133051843D01*
X126282990Y-132781590D01*
X126120475Y-132538369D01*
X125913632Y-132331526D01*
X125739240Y-132215001D01*
X125913632Y-132098476D01*
X126120475Y-131891633D01*
X126282990Y-131648412D01*
X126394932Y-131378159D01*
X126452000Y-131091261D01*
X126452000Y-130798741D01*
X126394932Y-130511843D01*
X126282990Y-130241590D01*
X126120475Y-129998369D01*
X125913632Y-129791526D01*
X125739240Y-129675001D01*
X125913632Y-129558476D01*
X126120475Y-129351633D01*
X126282990Y-129108412D01*
X126394932Y-128838159D01*
X126452000Y-128551261D01*
X126452000Y-128258741D01*
X126394932Y-127971843D01*
X126282990Y-127701590D01*
X126120475Y-127458369D01*
X125913632Y-127251526D01*
X125739240Y-127135001D01*
X125913632Y-127018476D01*
X126120475Y-126811633D01*
X126282990Y-126568412D01*
X126394932Y-126298159D01*
X126452000Y-126011261D01*
X126452000Y-125718741D01*
X126394932Y-125431843D01*
X126282990Y-125161590D01*
X126120475Y-124918369D01*
X125913632Y-124711526D01*
X125739240Y-124595001D01*
X125913632Y-124478476D01*
X126120475Y-124271633D01*
X126282990Y-124028412D01*
X126394932Y-123758159D01*
X126452000Y-123471261D01*
X126452000Y-123178741D01*
X126394932Y-122891843D01*
X126282990Y-122621590D01*
X126120475Y-122378369D01*
X125913632Y-122171526D01*
X125739240Y-122055001D01*
X125913632Y-121938476D01*
X126120475Y-121731633D01*
X126282990Y-121488412D01*
X126394932Y-121218159D01*
X126452000Y-120931261D01*
X126452000Y-120638741D01*
X126394932Y-120351843D01*
X126282990Y-120081590D01*
X126120475Y-119838369D01*
X125913632Y-119631526D01*
X125739240Y-119515001D01*
X125913632Y-119398476D01*
X126120475Y-119191633D01*
X126282990Y-118948412D01*
X126394932Y-118678159D01*
X126452000Y-118391261D01*
X126452000Y-118098741D01*
X126394932Y-117811843D01*
X126282990Y-117541590D01*
X126120475Y-117298369D01*
X125913632Y-117091526D01*
X125739240Y-116975001D01*
X125913632Y-116858476D01*
X126120475Y-116651633D01*
X126282990Y-116408412D01*
X126394932Y-116138159D01*
X126452000Y-115851261D01*
X126452000Y-115558741D01*
X126394932Y-115271843D01*
X126282990Y-115001590D01*
X126120475Y-114758369D01*
X125913632Y-114551526D01*
X125739240Y-114435001D01*
X125913632Y-114318476D01*
X126120475Y-114111633D01*
X126282990Y-113868412D01*
X126394932Y-113598159D01*
X126452000Y-113311261D01*
X126452000Y-113018741D01*
X126394932Y-112731843D01*
X126282990Y-112461590D01*
X126120475Y-112218369D01*
X125913632Y-112011526D01*
X125739240Y-111895001D01*
X125913632Y-111778476D01*
X126120475Y-111571633D01*
X126282990Y-111328412D01*
X126394932Y-111058159D01*
X126452000Y-110771261D01*
X126452000Y-110478741D01*
X126394932Y-110191843D01*
X126282990Y-109921590D01*
X126120475Y-109678369D01*
X125913632Y-109471526D01*
X125739240Y-109355001D01*
X125913632Y-109238476D01*
X126120475Y-109031633D01*
X126282990Y-108788412D01*
X126394932Y-108518159D01*
X126452000Y-108231261D01*
X126452000Y-107938741D01*
X126394932Y-107651843D01*
X126282990Y-107381590D01*
X126120475Y-107138369D01*
X125913632Y-106931526D01*
X125739240Y-106815001D01*
X125913632Y-106698476D01*
X126120475Y-106491633D01*
X126282990Y-106248412D01*
X126394932Y-105978159D01*
X126452000Y-105691261D01*
X126452000Y-105398741D01*
X126394932Y-105111843D01*
X126282990Y-104841590D01*
X126120475Y-104598369D01*
X125913632Y-104391526D01*
X125739240Y-104275001D01*
X125913632Y-104158476D01*
X126120475Y-103951633D01*
X126282990Y-103708412D01*
X126394932Y-103438159D01*
X126452000Y-103151261D01*
X126452000Y-102858741D01*
X126394932Y-102571843D01*
X126282990Y-102301590D01*
X126120475Y-102058369D01*
X125913632Y-101851526D01*
X125670411Y-101689011D01*
X125400158Y-101577069D01*
X125113260Y-101520001D01*
X124820740Y-101520001D01*
X124533842Y-101577069D01*
X124263589Y-101689011D01*
X124020368Y-101851526D01*
X123888513Y-101983381D01*
X123866502Y-101910821D01*
X123807537Y-101800507D01*
X123728185Y-101703816D01*
X123631494Y-101624464D01*
X123521180Y-101565499D01*
X123401482Y-101529189D01*
X123277000Y-101516929D01*
X122712750Y-101520001D01*
X122554000Y-101678751D01*
X122300000Y-101678751D01*
X122141250Y-101520001D01*
X121577000Y-101516929D01*
X121452518Y-101529189D01*
X121332820Y-101565499D01*
X121222506Y-101624464D01*
X121125815Y-101703816D01*
X121046463Y-101800507D01*
X120987498Y-101910821D01*
X120951188Y-102030519D01*
X120938928Y-102155001D01*
X117201010Y-102155001D01*
X117201010Y-97943029D01*
X117304193Y-97998182D01*
X117574692Y-98080236D01*
X117856000Y-98107943D01*
X118137309Y-98080236D01*
X118407808Y-97998182D01*
X118657101Y-97864932D01*
X118875608Y-97685608D01*
X119054932Y-97467101D01*
X119126000Y-97334142D01*
X119197068Y-97467101D01*
X119376393Y-97685608D01*
X119594900Y-97864932D01*
X119844193Y-97998182D01*
X120114692Y-98080236D01*
X120396000Y-98107943D01*
X120677309Y-98080236D01*
X120947808Y-97998182D01*
X121197101Y-97864932D01*
X121415608Y-97685608D01*
X121594932Y-97467101D01*
X121666000Y-97334142D01*
X121737068Y-97467101D01*
X121916393Y-97685608D01*
X122134900Y-97864932D01*
X122384193Y-97998182D01*
X122654692Y-98080236D01*
X122936000Y-98107943D01*
X123217309Y-98080236D01*
X123487808Y-97998182D01*
X123737101Y-97864932D01*
X123955608Y-97685608D01*
X124134932Y-97467101D01*
X124206000Y-97334142D01*
X124277068Y-97467101D01*
X124456393Y-97685608D01*
X124674900Y-97864932D01*
X124924193Y-97998182D01*
X125194692Y-98080236D01*
X125476000Y-98107943D01*
X125757309Y-98080236D01*
X126027808Y-97998182D01*
X126277101Y-97864932D01*
X126495608Y-97685608D01*
X126674932Y-97467101D01*
X126743265Y-97339259D01*
X126893399Y-97568839D01*
X127091105Y-97770500D01*
X127324354Y-97929715D01*
X127584182Y-98040367D01*
X127666961Y-98057904D01*
X127889000Y-97935915D01*
X127889000Y-96393000D01*
X127869000Y-96393000D01*
X127869000Y-96139000D01*
X127889000Y-96139000D01*
X127889000Y-94596085D01*
X127666961Y-94474096D01*
X127584182Y-94491633D01*
X127361010Y-94586674D01*
X127361010Y-90323029D01*
X127464193Y-90378182D01*
X127734692Y-90460236D01*
X128016000Y-90487943D01*
X128297309Y-90460236D01*
X128567808Y-90378182D01*
X128817101Y-90244932D01*
X129035608Y-90065608D01*
X129214932Y-89847101D01*
X129348182Y-89597808D01*
X129430236Y-89327309D01*
X129432999Y-89299255D01*
X129432999Y-95643575D01*
X129398650Y-95461486D01*
X129293166Y-95199517D01*
X129138601Y-94963161D01*
X128940895Y-94761500D01*
X128707646Y-94602285D01*
X128447818Y-94491633D01*
X128365039Y-94474096D01*
X128143000Y-94596085D01*
X128143000Y-96139000D01*
X128163000Y-96139000D01*
X128163000Y-96393000D01*
X128143000Y-96393000D01*
X128143000Y-97935915D01*
X128365039Y-98057904D01*
X128447818Y-98040367D01*
X128707646Y-97929715D01*
X128940895Y-97770500D01*
X129138601Y-97568839D01*
X129293166Y-97332483D01*
X129398650Y-97070514D01*
X129432999Y-96888424D01*
X129433000Y-142793255D01*
X129303744Y-142846795D01*
X129134226Y-142960063D01*
X128990063Y-143104226D01*
X128876795Y-143273744D01*
X128798774Y-143462102D01*
X128759000Y-143662061D01*
X128759000Y-143865939D01*
X128798774Y-144065898D01*
X128876795Y-144254256D01*
X128990063Y-144423774D01*
X129134226Y-144567937D01*
X129303744Y-144681205D01*
X129492102Y-144759226D01*
X129692061Y-144799000D01*
X129895939Y-144799000D01*
X130095898Y-144759226D01*
X130284256Y-144681205D01*
X130453774Y-144567937D01*
X130569407Y-144452304D01*
X130654412Y-144566269D01*
X130870645Y-144761178D01*
X131120748Y-144910157D01*
X131395109Y-145007481D01*
X131625000Y-144886814D01*
X131625000Y-143693000D01*
X131605000Y-143693000D01*
X131605000Y-143439000D01*
X131625000Y-143439000D01*
X131625000Y-141153000D01*
X131605000Y-141153000D01*
X131605000Y-140899000D01*
X131625000Y-140899000D01*
X131625000Y-138613000D01*
X131605000Y-138613000D01*
X131605000Y-138359000D01*
X131625000Y-138359000D01*
X131625000Y-136073000D01*
X131605000Y-136073000D01*
X131605000Y-135819000D01*
X131625000Y-135819000D01*
X131625000Y-133533000D01*
X131605000Y-133533000D01*
X131605000Y-133279000D01*
X131625000Y-133279000D01*
X131625000Y-130993000D01*
X131605000Y-130993000D01*
X131605000Y-130739000D01*
X131625000Y-130739000D01*
X131625000Y-128453000D01*
X131605000Y-128453000D01*
X131605000Y-128199000D01*
X131625000Y-128199000D01*
X131625000Y-125913000D01*
X131605000Y-125913000D01*
X131605000Y-125659000D01*
X131625000Y-125659000D01*
X131625000Y-123373000D01*
X131605000Y-123373000D01*
X131605000Y-123119000D01*
X131625000Y-123119000D01*
X131625000Y-120833000D01*
X131605000Y-120833000D01*
X131605000Y-120579000D01*
X131625000Y-120579000D01*
X131625000Y-118293000D01*
X131605000Y-118293000D01*
X131605000Y-118039000D01*
X131625000Y-118039000D01*
X131625000Y-115753000D01*
X131605000Y-115753000D01*
X131605000Y-115499000D01*
X131625000Y-115499000D01*
X131625000Y-113213000D01*
X131605000Y-113213000D01*
X131605000Y-112959000D01*
X131625000Y-112959000D01*
X131625000Y-110673000D01*
X131605000Y-110673000D01*
X131605000Y-110419000D01*
X131625000Y-110419000D01*
X131625000Y-108133000D01*
X131605000Y-108133000D01*
X131605000Y-107879000D01*
X131625000Y-107879000D01*
X131625000Y-105593000D01*
X131605000Y-105593000D01*
X131605000Y-105339000D01*
X131625000Y-105339000D01*
X131625000Y-103053000D01*
X131605000Y-103053000D01*
X131605000Y-102799000D01*
X131625000Y-102799000D01*
X131625000Y-101599750D01*
X131466250Y-101441000D01*
X130952999Y-101438206D01*
X130952999Y-97613902D01*
X131106184Y-97652300D01*
X131388512Y-97666217D01*
X131668130Y-97624787D01*
X131934292Y-97529603D01*
X132059514Y-97462671D01*
X132131097Y-97218702D01*
X131318000Y-96405605D01*
X131303858Y-96419748D01*
X131124253Y-96240143D01*
X131138395Y-96226000D01*
X131497605Y-96226000D01*
X132310702Y-97039097D01*
X132554671Y-96967514D01*
X132675571Y-96712004D01*
X132744300Y-96437816D01*
X132758217Y-96155488D01*
X132716787Y-95875870D01*
X132621603Y-95609708D01*
X132554671Y-95484486D01*
X132310702Y-95412903D01*
X131497605Y-96226000D01*
X131138395Y-96226000D01*
X131124253Y-96211858D01*
X131303858Y-96032253D01*
X131318000Y-96046395D01*
X132131097Y-95233298D01*
X132059514Y-94989329D01*
X132030659Y-94975676D01*
X132232759Y-94840637D01*
X132432637Y-94640759D01*
X132589680Y-94405727D01*
X132697853Y-94144574D01*
X132753000Y-93867335D01*
X132753000Y-93584665D01*
X132697853Y-93307426D01*
X132589680Y-93046273D01*
X132432637Y-92811241D01*
X132353000Y-92731604D01*
X132353000Y-92608061D01*
X132313226Y-92408102D01*
X132235205Y-92219744D01*
X132121937Y-92050226D01*
X131977774Y-91906063D01*
X131808256Y-91792795D01*
X131619898Y-91714774D01*
X131419939Y-91675000D01*
X131216061Y-91675000D01*
X131016102Y-91714774D01*
X130952999Y-91740912D01*
X130952999Y-86017125D01*
X130989158Y-86009932D01*
X131259411Y-85897990D01*
X131502632Y-85735475D01*
X131709475Y-85528632D01*
X131826000Y-85354240D01*
X131942525Y-85528632D01*
X132149368Y-85735475D01*
X132392589Y-85897990D01*
X132662842Y-86009932D01*
X132949740Y-86067000D01*
X133242260Y-86067000D01*
X133529158Y-86009932D01*
X133799411Y-85897990D01*
X134042632Y-85735475D01*
X134249475Y-85528632D01*
X134411990Y-85285411D01*
X134523932Y-85015158D01*
X134581000Y-84728260D01*
X134581000Y-84435740D01*
X134523932Y-84148842D01*
X134411990Y-83878589D01*
X134249475Y-83635368D01*
X134042632Y-83428525D01*
X133856000Y-83303822D01*
X133856000Y-81542178D01*
X134042632Y-81417475D01*
X134249475Y-81210632D01*
X134411990Y-80967411D01*
X134523932Y-80697158D01*
X134581000Y-80410260D01*
X134581000Y-80117740D01*
X134523932Y-79830842D01*
X134411990Y-79560589D01*
X134249475Y-79317368D01*
X134042632Y-79110525D01*
X133799411Y-78948010D01*
X133529158Y-78836068D01*
X133242260Y-78779000D01*
X132949740Y-78779000D01*
X132662842Y-78836068D01*
X132392589Y-78948010D01*
X132149368Y-79110525D01*
X131942525Y-79317368D01*
X131826000Y-79491760D01*
X131709475Y-79317368D01*
X131502632Y-79110525D01*
X131259411Y-78948010D01*
X130989158Y-78836068D01*
X130702260Y-78779000D01*
X130409740Y-78779000D01*
X130122842Y-78836068D01*
X129852589Y-78948010D01*
X129609368Y-79110525D01*
X129477513Y-79242380D01*
X129455502Y-79169820D01*
X129396537Y-79059506D01*
X129317185Y-78962815D01*
X129220494Y-78883463D01*
X129110180Y-78824498D01*
X128990482Y-78788188D01*
X128866000Y-78775928D01*
X127166000Y-78775928D01*
X127041518Y-78788188D01*
X126921820Y-78824498D01*
X126811506Y-78883463D01*
X126714815Y-78962815D01*
X126635463Y-79059506D01*
X126576498Y-79169820D01*
X126540188Y-79289518D01*
X126527928Y-79414000D01*
X126527928Y-80677271D01*
X126090008Y-81115191D01*
X126061010Y-81138989D01*
X126037212Y-81167987D01*
X126037211Y-81167988D01*
X125966036Y-81254714D01*
X125895464Y-81386744D01*
X125865190Y-81486548D01*
X125852008Y-81530004D01*
X125847085Y-81579990D01*
X125837334Y-81678990D01*
X125841011Y-81716322D01*
X125841011Y-86857155D01*
X125757308Y-86831764D01*
X125476000Y-86804057D01*
X125194691Y-86831764D01*
X124924192Y-86913818D01*
X124821010Y-86968970D01*
X124821010Y-82442335D01*
X124824686Y-82405010D01*
X124821010Y-82367685D01*
X124821010Y-82367677D01*
X124810013Y-82256024D01*
X124766556Y-82112763D01*
X124695984Y-81980734D01*
X124601011Y-81865009D01*
X124572013Y-81841211D01*
X124080688Y-81349886D01*
X124117000Y-81167335D01*
X124117000Y-80884665D01*
X124061853Y-80607426D01*
X123953680Y-80346273D01*
X123796637Y-80111241D01*
X123596759Y-79911363D01*
X123361727Y-79754320D01*
X123100574Y-79646147D01*
X122823335Y-79591000D01*
X122540665Y-79591000D01*
X122263426Y-79646147D01*
X122002273Y-79754320D01*
X121767241Y-79911363D01*
X121567363Y-80111241D01*
X121410320Y-80346273D01*
X121302147Y-80607426D01*
X121247000Y-80884665D01*
X121247000Y-81167335D01*
X121302147Y-81444574D01*
X121410320Y-81705727D01*
X121567363Y-81940759D01*
X121767241Y-82140637D01*
X122002273Y-82297680D01*
X122263426Y-82405853D01*
X122540665Y-82461000D01*
X122823335Y-82461000D01*
X123005886Y-82424688D01*
X123301011Y-82719813D01*
X123301011Y-83285171D01*
X123100574Y-83202147D01*
X122823335Y-83147000D01*
X122540665Y-83147000D01*
X122263426Y-83202147D01*
X122002273Y-83310320D01*
X121767241Y-83467363D01*
X121567363Y-83667241D01*
X121410320Y-83902273D01*
X121302147Y-84163426D01*
X121247000Y-84440665D01*
X121247000Y-84723335D01*
X121302147Y-85000574D01*
X121410320Y-85261727D01*
X121567363Y-85496759D01*
X121767241Y-85696637D01*
X122002273Y-85853680D01*
X122176001Y-85925640D01*
X122176000Y-87025099D01*
X122134899Y-87047068D01*
X121916392Y-87226393D01*
X121737068Y-87444900D01*
X121666000Y-87577858D01*
X121594932Y-87444899D01*
X121415607Y-87226392D01*
X121197100Y-87047068D01*
X120947807Y-86913818D01*
X120677308Y-86831764D01*
X120396000Y-86804057D01*
X120114691Y-86831764D01*
X119844192Y-86913818D01*
X119594899Y-87047068D01*
X119376392Y-87226393D01*
X119197068Y-87444900D01*
X119126000Y-87577858D01*
X119054932Y-87444899D01*
X118875607Y-87226392D01*
X118657100Y-87047068D01*
X118407807Y-86913818D01*
X118137308Y-86831764D01*
X117856000Y-86804057D01*
X117574691Y-86831764D01*
X117304192Y-86913818D01*
X117054899Y-87047068D01*
X116836392Y-87226393D01*
X116657068Y-87444900D01*
X116586000Y-87577858D01*
X116514932Y-87444899D01*
X116335607Y-87226392D01*
X116117100Y-87047068D01*
X115867807Y-86913818D01*
X115597308Y-86831764D01*
X115316000Y-86804057D01*
X115034691Y-86831764D01*
X114764192Y-86913818D01*
X114514899Y-87047068D01*
X114296392Y-87226393D01*
X114117068Y-87444900D01*
X114046000Y-87577858D01*
X113974932Y-87444899D01*
X113795607Y-87226392D01*
X113577100Y-87047068D01*
X113536000Y-87025100D01*
X113536000Y-85597396D01*
X113636637Y-85496759D01*
X113793680Y-85261727D01*
X113901853Y-85000574D01*
X113957000Y-84723335D01*
X113957000Y-84440665D01*
X113901853Y-84163426D01*
X113793680Y-83902273D01*
X113636637Y-83667241D01*
X113536000Y-83566604D01*
X113536000Y-82041396D01*
X113636637Y-81940759D01*
X113793680Y-81705727D01*
X113901853Y-81444574D01*
X113957000Y-81167335D01*
X113957000Y-80884665D01*
X113901853Y-80607426D01*
X113793680Y-80346273D01*
X113636637Y-80111241D01*
X113436759Y-79911363D01*
X113201727Y-79754320D01*
X112940574Y-79646147D01*
X112663335Y-79591000D01*
X112380665Y-79591000D01*
X112103426Y-79646147D01*
X111842273Y-79754320D01*
X111607241Y-79911363D01*
X111407363Y-80111241D01*
X111250320Y-80346273D01*
X111142147Y-80607426D01*
X111087000Y-80884665D01*
X111087000Y-81167335D01*
X111142147Y-81444574D01*
X111250320Y-81705727D01*
X111407363Y-81940759D01*
X111607241Y-82140637D01*
X111762001Y-82244044D01*
X111762000Y-83363956D01*
X111607241Y-83467363D01*
X111407363Y-83667241D01*
X111250320Y-83902273D01*
X111142147Y-84163426D01*
X111087000Y-84440665D01*
X111087000Y-84723335D01*
X111142147Y-85000574D01*
X111250320Y-85261727D01*
X111407363Y-85496759D01*
X111607241Y-85696637D01*
X111842273Y-85853680D01*
X112016000Y-85925640D01*
X112016000Y-87025099D01*
X111974899Y-87047068D01*
X111756392Y-87226393D01*
X111577068Y-87444900D01*
X111443818Y-87694193D01*
X111361764Y-87964692D01*
X111341000Y-88175509D01*
X111341000Y-89116492D01*
X111361764Y-89327309D01*
X111443818Y-89597808D01*
X111577068Y-89847101D01*
X111756393Y-90065608D01*
X111974900Y-90244932D01*
X112016000Y-90266901D01*
X112016001Y-92260288D01*
X111972063Y-92304226D01*
X111858795Y-92473744D01*
X111780774Y-92662102D01*
X111741000Y-92862061D01*
X111741000Y-93065939D01*
X111780774Y-93265898D01*
X111858795Y-93454256D01*
X111972063Y-93623774D01*
X112116226Y-93767937D01*
X112285744Y-93881205D01*
X112474102Y-93959226D01*
X112674061Y-93999000D01*
X112877939Y-93999000D01*
X113077898Y-93959226D01*
X113141002Y-93933087D01*
X113141002Y-94427928D01*
X111976000Y-94427928D01*
X111851518Y-94440188D01*
X111731820Y-94476498D01*
X111621506Y-94535463D01*
X111524815Y-94614815D01*
X111445463Y-94711506D01*
X111386498Y-94821820D01*
X111350188Y-94941518D01*
X111337928Y-95066000D01*
X111337928Y-97466000D01*
X111350188Y-97590482D01*
X111386498Y-97710180D01*
X111445463Y-97820494D01*
X111524815Y-97917185D01*
X111621506Y-97996537D01*
X111726999Y-98052925D01*
X111727000Y-115161666D01*
X111723323Y-115198999D01*
X111727000Y-115236332D01*
X111737997Y-115347985D01*
X111745581Y-115372987D01*
X111781453Y-115491245D01*
X111852025Y-115623275D01*
X111906174Y-115689255D01*
X111946999Y-115739000D01*
X111975997Y-115762798D01*
X112198355Y-115985156D01*
X112177000Y-116092514D01*
X112177000Y-116355486D01*
X112228304Y-116613405D01*
X112328939Y-116856359D01*
X112475038Y-117075013D01*
X112660987Y-117260962D01*
X112879641Y-117407061D01*
X113041246Y-117474000D01*
X112879641Y-117540939D01*
X112660987Y-117687038D01*
X112475038Y-117872987D01*
X112328939Y-118091641D01*
X112228304Y-118334595D01*
X112177000Y-118592514D01*
X112177000Y-118855486D01*
X112228304Y-119113405D01*
X112328939Y-119356359D01*
X112475038Y-119575013D01*
X112660987Y-119760962D01*
X112879641Y-119907061D01*
X113041246Y-119974000D01*
X112879641Y-120040939D01*
X112660987Y-120187038D01*
X112475038Y-120372987D01*
X112328939Y-120591641D01*
X112228304Y-120834595D01*
X112177000Y-121092514D01*
X112177000Y-121355486D01*
X112228304Y-121613405D01*
X112328939Y-121856359D01*
X112475038Y-122075013D01*
X112660987Y-122260962D01*
X112879641Y-122407061D01*
X113042118Y-122474361D01*
X112930634Y-122515065D01*
X112829797Y-122568963D01*
X112770336Y-122802731D01*
X113512000Y-123544395D01*
X113526143Y-123530253D01*
X113705748Y-123709858D01*
X113691605Y-123724000D01*
X113705748Y-123738143D01*
X113526143Y-123917748D01*
X113512000Y-123903605D01*
X112770336Y-124645269D01*
X112829797Y-124879037D01*
X113037995Y-124975867D01*
X112930634Y-125015065D01*
X112829797Y-125068963D01*
X112770336Y-125302731D01*
X113512000Y-126044395D01*
X113526143Y-126030253D01*
X113705748Y-126209858D01*
X113691605Y-126224000D01*
X113705748Y-126238143D01*
X113526143Y-126417748D01*
X113512000Y-126403605D01*
X113497858Y-126417748D01*
X113318253Y-126238143D01*
X113332395Y-126224000D01*
X112590731Y-125482336D01*
X112520000Y-125500327D01*
X112520000Y-124447673D01*
X112590731Y-124465664D01*
X113332395Y-123724000D01*
X112590731Y-122982336D01*
X112483358Y-123009647D01*
X112393774Y-122920063D01*
X112224256Y-122806795D01*
X112035898Y-122728774D01*
X111835939Y-122689000D01*
X111632061Y-122689000D01*
X111539001Y-122707511D01*
X111539001Y-121826710D01*
X111547937Y-121817774D01*
X111661205Y-121648256D01*
X111739226Y-121459898D01*
X111779000Y-121259939D01*
X111779000Y-121056061D01*
X111739226Y-120856102D01*
X111661205Y-120667744D01*
X111547937Y-120498226D01*
X111403774Y-120354063D01*
X111234256Y-120240795D01*
X111045898Y-120162774D01*
X110845939Y-120123000D01*
X110642061Y-120123000D01*
X110442102Y-120162774D01*
X110253744Y-120240795D01*
X110084226Y-120354063D01*
X109940063Y-120498226D01*
X109826795Y-120667744D01*
X109776689Y-120788709D01*
X109695061Y-120591641D01*
X109548962Y-120372987D01*
X109363013Y-120187038D01*
X109144359Y-120040939D01*
X108981882Y-119973639D01*
X109093366Y-119932935D01*
X109194203Y-119879037D01*
X109253664Y-119645269D01*
X108512000Y-118903605D01*
X107770336Y-119645269D01*
X107829797Y-119879037D01*
X108037404Y-119975592D01*
X107879641Y-120040939D01*
X107660987Y-120187038D01*
X107475038Y-120372987D01*
X107328939Y-120591641D01*
X107228304Y-120834595D01*
X107177000Y-121092514D01*
X96772000Y-121092514D01*
X96772000Y-118798473D01*
X107172610Y-118798473D01*
X107212875Y-119058344D01*
X107303065Y-119305366D01*
X107356963Y-119406203D01*
X107590731Y-119465664D01*
X108332395Y-118724000D01*
X108691605Y-118724000D01*
X109433269Y-119465664D01*
X109667037Y-119406203D01*
X109777934Y-119167758D01*
X109840183Y-118912260D01*
X109851390Y-118649527D01*
X109811125Y-118389656D01*
X109720935Y-118142634D01*
X109667037Y-118041797D01*
X109433269Y-117982336D01*
X108691605Y-118724000D01*
X108332395Y-118724000D01*
X107590731Y-117982336D01*
X107356963Y-118041797D01*
X107246066Y-118280242D01*
X107183817Y-118535740D01*
X107172610Y-118798473D01*
X96772000Y-118798473D01*
X96772000Y-106092514D01*
X107177000Y-106092514D01*
X107177000Y-106355486D01*
X107228304Y-106613405D01*
X107328939Y-106856359D01*
X107475038Y-107075013D01*
X107660987Y-107260962D01*
X107879641Y-107407061D01*
X108041246Y-107474000D01*
X107879641Y-107540939D01*
X107660987Y-107687038D01*
X107475038Y-107872987D01*
X107328939Y-108091641D01*
X107228304Y-108334595D01*
X107177000Y-108592514D01*
X107177000Y-108855486D01*
X107228304Y-109113405D01*
X107328939Y-109356359D01*
X107475038Y-109575013D01*
X107660987Y-109760962D01*
X107879641Y-109907061D01*
X108041246Y-109974000D01*
X107879641Y-110040939D01*
X107660987Y-110187038D01*
X107475038Y-110372987D01*
X107328939Y-110591641D01*
X107228304Y-110834595D01*
X107177000Y-111092514D01*
X107177000Y-111355486D01*
X107228304Y-111613405D01*
X107328939Y-111856359D01*
X107475038Y-112075013D01*
X107660987Y-112260962D01*
X107879641Y-112407061D01*
X108041246Y-112474000D01*
X107879641Y-112540939D01*
X107660987Y-112687038D01*
X107475038Y-112872987D01*
X107328939Y-113091641D01*
X107228304Y-113334595D01*
X107177000Y-113592514D01*
X107177000Y-113855486D01*
X107228304Y-114113405D01*
X107328939Y-114356359D01*
X107475038Y-114575013D01*
X107660987Y-114760962D01*
X107879641Y-114907061D01*
X108041246Y-114974000D01*
X107879641Y-115040939D01*
X107660987Y-115187038D01*
X107475038Y-115372987D01*
X107328939Y-115591641D01*
X107228304Y-115834595D01*
X107177000Y-116092514D01*
X107177000Y-116355486D01*
X107228304Y-116613405D01*
X107328939Y-116856359D01*
X107475038Y-117075013D01*
X107660987Y-117260962D01*
X107879641Y-117407061D01*
X108042118Y-117474361D01*
X107930634Y-117515065D01*
X107829797Y-117568963D01*
X107770336Y-117802731D01*
X108512000Y-118544395D01*
X109253664Y-117802731D01*
X109194203Y-117568963D01*
X108986596Y-117472408D01*
X109144359Y-117407061D01*
X109363013Y-117260962D01*
X109548962Y-117075013D01*
X109695061Y-116856359D01*
X109795696Y-116613405D01*
X109847000Y-116355486D01*
X109847000Y-116092514D01*
X109795696Y-115834595D01*
X109695061Y-115591641D01*
X109548962Y-115372987D01*
X109363013Y-115187038D01*
X109144359Y-115040939D01*
X108982754Y-114974000D01*
X109144359Y-114907061D01*
X109363013Y-114760962D01*
X109548962Y-114575013D01*
X109695061Y-114356359D01*
X109795696Y-114113405D01*
X109847000Y-113855486D01*
X109847000Y-113592514D01*
X109795696Y-113334595D01*
X109695061Y-113091641D01*
X109548962Y-112872987D01*
X109363013Y-112687038D01*
X109144359Y-112540939D01*
X108982754Y-112474000D01*
X109144359Y-112407061D01*
X109363013Y-112260962D01*
X109548962Y-112075013D01*
X109695061Y-111856359D01*
X109795696Y-111613405D01*
X109847000Y-111355486D01*
X109847000Y-111092514D01*
X109795696Y-110834595D01*
X109695061Y-110591641D01*
X109548962Y-110372987D01*
X109363013Y-110187038D01*
X109144359Y-110040939D01*
X108982754Y-109974000D01*
X109144359Y-109907061D01*
X109363013Y-109760962D01*
X109548962Y-109575013D01*
X109695061Y-109356359D01*
X109795696Y-109113405D01*
X109847000Y-108855486D01*
X109847000Y-108592514D01*
X109795696Y-108334595D01*
X109695061Y-108091641D01*
X109548962Y-107872987D01*
X109363013Y-107687038D01*
X109144359Y-107540939D01*
X108982754Y-107474000D01*
X109144359Y-107407061D01*
X109363013Y-107260962D01*
X109548962Y-107075013D01*
X109695061Y-106856359D01*
X109795696Y-106613405D01*
X109847000Y-106355486D01*
X109847000Y-106092514D01*
X109795696Y-105834595D01*
X109695061Y-105591641D01*
X109548962Y-105372987D01*
X109363013Y-105187038D01*
X109144359Y-105040939D01*
X108901405Y-104940304D01*
X108643486Y-104889000D01*
X108380514Y-104889000D01*
X108122595Y-104940304D01*
X107879641Y-105040939D01*
X107660987Y-105187038D01*
X107475038Y-105372987D01*
X107328939Y-105591641D01*
X107228304Y-105834595D01*
X107177000Y-106092514D01*
X96772000Y-106092514D01*
X96772000Y-99832172D01*
X99572000Y-99832172D01*
X99572000Y-100115828D01*
X99627338Y-100394033D01*
X99735888Y-100656096D01*
X99893479Y-100891947D01*
X100094053Y-101092521D01*
X100329904Y-101250112D01*
X100591967Y-101358662D01*
X100870172Y-101414000D01*
X101153828Y-101414000D01*
X101432033Y-101358662D01*
X101694096Y-101250112D01*
X101929947Y-101092521D01*
X102130521Y-100891947D01*
X102288112Y-100656096D01*
X102396662Y-100394033D01*
X102452000Y-100115828D01*
X102452000Y-99832172D01*
X102396662Y-99553967D01*
X102288112Y-99291904D01*
X102130521Y-99056053D01*
X101929947Y-98855479D01*
X101694096Y-98697888D01*
X101432033Y-98589338D01*
X101153828Y-98534000D01*
X100870172Y-98534000D01*
X100591967Y-98589338D01*
X100329904Y-98697888D01*
X100094053Y-98855479D01*
X99893479Y-99056053D01*
X99735888Y-99291904D01*
X99627338Y-99553967D01*
X99572000Y-99832172D01*
X96772000Y-99832172D01*
X96772000Y-96632172D01*
X97340600Y-96632172D01*
X97340600Y-96915828D01*
X97395938Y-97194033D01*
X97504488Y-97456096D01*
X97662079Y-97691947D01*
X97862653Y-97892521D01*
X98098504Y-98050112D01*
X98360567Y-98158662D01*
X98638772Y-98214000D01*
X98922428Y-98214000D01*
X99200633Y-98158662D01*
X99462696Y-98050112D01*
X99698547Y-97892521D01*
X99899121Y-97691947D01*
X100056712Y-97456096D01*
X100165262Y-97194033D01*
X100220600Y-96915828D01*
X100220600Y-96632172D01*
X100165262Y-96353967D01*
X100056712Y-96091904D01*
X99899121Y-95856053D01*
X99698547Y-95655479D01*
X99462696Y-95497888D01*
X99200633Y-95389338D01*
X98922428Y-95334000D01*
X98638772Y-95334000D01*
X98360567Y-95389338D01*
X98098504Y-95497888D01*
X97862653Y-95655479D01*
X97662079Y-95856053D01*
X97504488Y-96091904D01*
X97395938Y-96353967D01*
X97340600Y-96632172D01*
X96772000Y-96632172D01*
X96772000Y-90431247D01*
X96890525Y-90608632D01*
X97097368Y-90815475D01*
X97340589Y-90977990D01*
X97610842Y-91089932D01*
X97897740Y-91147000D01*
X98190260Y-91147000D01*
X98477158Y-91089932D01*
X98747411Y-90977990D01*
X98990632Y-90815475D01*
X99197475Y-90608632D01*
X99359990Y-90365411D01*
X99471932Y-90095158D01*
X99529000Y-89808260D01*
X99529000Y-89515740D01*
X99471932Y-89228842D01*
X99359990Y-88958589D01*
X99197475Y-88715368D01*
X98990632Y-88508525D01*
X98808466Y-88386805D01*
X98925355Y-88317178D01*
X99141588Y-88122269D01*
X99315641Y-87888920D01*
X99440825Y-87626099D01*
X99485476Y-87478890D01*
X99364155Y-87249000D01*
X98171000Y-87249000D01*
X98171000Y-87269000D01*
X97917000Y-87269000D01*
X97917000Y-87249000D01*
X97897000Y-87249000D01*
X97897000Y-86995000D01*
X97917000Y-86995000D01*
X97917000Y-84709000D01*
X98171000Y-84709000D01*
X98171000Y-86995000D01*
X99364155Y-86995000D01*
X99485476Y-86765110D01*
X99440825Y-86617901D01*
X99315641Y-86355080D01*
X99141588Y-86121731D01*
X98925355Y-85926822D01*
X98799745Y-85852000D01*
X98925355Y-85777178D01*
X99141588Y-85582269D01*
X99315641Y-85348920D01*
X99440825Y-85086099D01*
X99485476Y-84938890D01*
X99364155Y-84709000D01*
X98171000Y-84709000D01*
X97917000Y-84709000D01*
X97897000Y-84709000D01*
X97897000Y-84455000D01*
X97917000Y-84455000D01*
X97917000Y-84435000D01*
X98171000Y-84435000D01*
X98171000Y-84455000D01*
X99364155Y-84455000D01*
X99485476Y-84225110D01*
X99440825Y-84077901D01*
X99315641Y-83815080D01*
X99141588Y-83581731D01*
X99057534Y-83505966D01*
X99138180Y-83481502D01*
X99248494Y-83422537D01*
X99345185Y-83343185D01*
X99424537Y-83246494D01*
X99483502Y-83136180D01*
X99519812Y-83016482D01*
X99532072Y-82892000D01*
X99532072Y-81192000D01*
X99519812Y-81067518D01*
X99483502Y-80947820D01*
X99424537Y-80837506D01*
X99345185Y-80740815D01*
X99248494Y-80661463D01*
X99138180Y-80602498D01*
X99018482Y-80566188D01*
X98894000Y-80553928D01*
X97194000Y-80553928D01*
X97069518Y-80566188D01*
X96949820Y-80602498D01*
X96839506Y-80661463D01*
X96742815Y-80740815D01*
X96663463Y-80837506D01*
X96604498Y-80947820D01*
X96568188Y-81067518D01*
X96558824Y-81162593D01*
X96502256Y-81124795D01*
X96313898Y-81046774D01*
X96113939Y-81007000D01*
X95910061Y-81007000D01*
X95710102Y-81046774D01*
X95521744Y-81124795D01*
X95352226Y-81238063D01*
X95208063Y-81382226D01*
X95094795Y-81551744D01*
X95016774Y-81740102D01*
X94977000Y-81940061D01*
X94977000Y-82143939D01*
X95016774Y-82343898D01*
X95094795Y-82532256D01*
X95208063Y-82701774D01*
X95252000Y-82745711D01*
X95252000Y-88657644D01*
X95097939Y-88627000D01*
X94894061Y-88627000D01*
X94694102Y-88666774D01*
X94505744Y-88744795D01*
X94336226Y-88858063D01*
X94192063Y-89002226D01*
X94078795Y-89171744D01*
X94000774Y-89360102D01*
X93961000Y-89560061D01*
X92100000Y-89560061D01*
X92100000Y-77622000D01*
X136754001Y-77622000D01*
X136754001Y-83758118D01*
%TA.AperFunction,Conductor*%
D21*
G36*
X136754001Y-83758118D02*
G01*
X136693937Y-83668226D01*
X136549774Y-83524063D01*
X136380256Y-83410795D01*
X136191898Y-83332774D01*
X135991939Y-83293000D01*
X135788061Y-83293000D01*
X135588102Y-83332774D01*
X135399744Y-83410795D01*
X135230226Y-83524063D01*
X135086063Y-83668226D01*
X134972795Y-83837744D01*
X134894774Y-84026102D01*
X134855000Y-84226061D01*
X134855000Y-84429939D01*
X134894774Y-84629898D01*
X134972795Y-84818256D01*
X135086063Y-84987774D01*
X135157012Y-85058723D01*
X135157012Y-101717988D01*
X134995411Y-101610010D01*
X134725158Y-101498068D01*
X134438260Y-101441000D01*
X134145740Y-101441000D01*
X133858842Y-101498068D01*
X133588589Y-101610010D01*
X133345368Y-101772525D01*
X133213513Y-101904380D01*
X133191502Y-101831820D01*
X133132537Y-101721506D01*
X133053185Y-101624815D01*
X132956494Y-101545463D01*
X132846180Y-101486498D01*
X132726482Y-101450188D01*
X132602000Y-101437928D01*
X132037750Y-101441000D01*
X131879000Y-101599750D01*
X131879000Y-102799000D01*
X131899000Y-102799000D01*
X131899000Y-103053000D01*
X131879000Y-103053000D01*
X131879000Y-105339000D01*
X131899000Y-105339000D01*
X131899000Y-105593000D01*
X131879000Y-105593000D01*
X131879000Y-107879000D01*
X131899000Y-107879000D01*
X131899000Y-108133000D01*
X131879000Y-108133000D01*
X131879000Y-110419000D01*
X131899000Y-110419000D01*
X131899000Y-110673000D01*
X131879000Y-110673000D01*
X131879000Y-112959000D01*
X131899000Y-112959000D01*
X131899000Y-113213000D01*
X131879000Y-113213000D01*
X131879000Y-115499000D01*
X131899000Y-115499000D01*
X131899000Y-115753000D01*
X131879000Y-115753000D01*
X131879000Y-118039000D01*
X131899000Y-118039000D01*
X131899000Y-118293000D01*
X131879000Y-118293000D01*
X131879000Y-120579000D01*
X131899000Y-120579000D01*
X131899000Y-120833000D01*
X131879000Y-120833000D01*
X131879000Y-123119000D01*
X131899000Y-123119000D01*
X131899000Y-123373000D01*
X131879000Y-123373000D01*
X131879000Y-125659000D01*
X131899000Y-125659000D01*
X131899000Y-125913000D01*
X131879000Y-125913000D01*
X131879000Y-128199000D01*
X131899000Y-128199000D01*
X131899000Y-128453000D01*
X131879000Y-128453000D01*
X131879000Y-130739000D01*
X131899000Y-130739000D01*
X131899000Y-130993000D01*
X131879000Y-130993000D01*
X131879000Y-133279000D01*
X131899000Y-133279000D01*
X131899000Y-133533000D01*
X131879000Y-133533000D01*
X131879000Y-135819000D01*
X131899000Y-135819000D01*
X131899000Y-136073000D01*
X131879000Y-136073000D01*
X131879000Y-138359000D01*
X131899000Y-138359000D01*
X131899000Y-138613000D01*
X131879000Y-138613000D01*
X131879000Y-140899000D01*
X131899000Y-140899000D01*
X131899000Y-141153000D01*
X131879000Y-141153000D01*
X131879000Y-143439000D01*
X131899000Y-143439000D01*
X131899000Y-143693000D01*
X131879000Y-143693000D01*
X131879000Y-144886814D01*
X132108891Y-145007481D01*
X132383252Y-144910157D01*
X132633355Y-144761178D01*
X132849588Y-144566269D01*
X133020900Y-144336594D01*
X133138525Y-144512632D01*
X133345368Y-144719475D01*
X133588589Y-144881990D01*
X133858842Y-144993932D01*
X134145740Y-145051000D01*
X134438260Y-145051000D01*
X134725158Y-144993932D01*
X134995411Y-144881990D01*
X135238632Y-144719475D01*
X135445475Y-144512632D01*
X135607990Y-144269411D01*
X135719932Y-143999158D01*
X135777000Y-143712260D01*
X135777000Y-143419740D01*
X135733210Y-143199592D01*
X136428015Y-142504787D01*
X136457012Y-142480990D01*
X136551985Y-142365265D01*
X136622557Y-142233236D01*
X136666014Y-142089975D01*
X136677011Y-141978322D01*
X136677011Y-141978321D01*
X136680688Y-141940989D01*
X136677011Y-141903656D01*
X136677011Y-85004700D01*
X136693937Y-84987774D01*
X136754001Y-84897882D01*
X136754000Y-154280000D01*
X92100000Y-154280000D01*
X92100000Y-89560061D01*
X93961000Y-89560061D01*
X93961000Y-89763939D01*
X94000774Y-89963898D01*
X94078795Y-90152256D01*
X94192063Y-90321774D01*
X94236000Y-90365711D01*
X94236001Y-146362288D01*
X94192063Y-146406226D01*
X94078795Y-146575744D01*
X94000774Y-146764102D01*
X93961000Y-146964061D01*
X93961000Y-147167939D01*
X94000774Y-147367898D01*
X94078795Y-147556256D01*
X94192063Y-147725774D01*
X94336226Y-147869937D01*
X94505744Y-147983205D01*
X94694102Y-148061226D01*
X94894061Y-148101000D01*
X95097939Y-148101000D01*
X95252001Y-148070355D01*
X95252001Y-149156288D01*
X95208063Y-149200226D01*
X95094795Y-149369744D01*
X95016774Y-149558102D01*
X94977000Y-149758061D01*
X94977000Y-149961939D01*
X95016774Y-150161898D01*
X95094795Y-150350256D01*
X95208063Y-150519774D01*
X95352226Y-150663937D01*
X95521744Y-150777205D01*
X95710102Y-150855226D01*
X95910061Y-150895000D01*
X96113939Y-150895000D01*
X96313898Y-150855226D01*
X96502256Y-150777205D01*
X96671774Y-150663937D01*
X96815937Y-150519774D01*
X96929205Y-150350256D01*
X97007226Y-150161898D01*
X97047000Y-149961939D01*
X97047000Y-149758061D01*
X97007226Y-149558102D01*
X96929205Y-149369744D01*
X96815937Y-149200226D01*
X96772000Y-149156289D01*
X96772000Y-149010000D01*
X104175928Y-149010000D01*
X104175928Y-150710000D01*
X104188188Y-150834482D01*
X104224498Y-150954180D01*
X104283463Y-151064494D01*
X104362815Y-151161185D01*
X104459506Y-151240537D01*
X104569820Y-151299502D01*
X104689518Y-151335812D01*
X104814000Y-151348072D01*
X106514000Y-151348072D01*
X106638482Y-151335812D01*
X106758180Y-151299502D01*
X106868494Y-151240537D01*
X106965185Y-151161185D01*
X107044537Y-151064494D01*
X107103502Y-150954180D01*
X107127966Y-150873534D01*
X107203731Y-150957588D01*
X107437080Y-151131641D01*
X107699901Y-151256825D01*
X107847110Y-151301476D01*
X108077000Y-151180155D01*
X108077000Y-149987000D01*
X108331000Y-149987000D01*
X108331000Y-151180155D01*
X108560890Y-151301476D01*
X108708099Y-151256825D01*
X108970920Y-151131641D01*
X109204269Y-150957588D01*
X109399178Y-150741355D01*
X109474000Y-150615745D01*
X109548822Y-150741355D01*
X109743731Y-150957588D01*
X109977080Y-151131641D01*
X110239901Y-151256825D01*
X110387110Y-151301476D01*
X110617000Y-151180155D01*
X110617000Y-149987000D01*
X108331000Y-149987000D01*
X108077000Y-149987000D01*
X108057000Y-149987000D01*
X108057000Y-149733000D01*
X108077000Y-149733000D01*
X108077000Y-148539845D01*
X108331000Y-148539845D01*
X108331000Y-149733000D01*
X110617000Y-149733000D01*
X110617000Y-148539845D01*
X110387110Y-148418524D01*
X110239901Y-148463175D01*
X109977080Y-148588359D01*
X109743731Y-148762412D01*
X109548822Y-148978645D01*
X109474000Y-149104255D01*
X109399178Y-148978645D01*
X109204269Y-148762412D01*
X108970920Y-148588359D01*
X108708099Y-148463175D01*
X108560890Y-148418524D01*
X108331000Y-148539845D01*
X108077000Y-148539845D01*
X107847110Y-148418524D01*
X107699901Y-148463175D01*
X107437080Y-148588359D01*
X107203731Y-148762412D01*
X107127966Y-148846466D01*
X107103502Y-148765820D01*
X107044537Y-148655506D01*
X106965185Y-148558815D01*
X106868494Y-148479463D01*
X106758180Y-148420498D01*
X106638482Y-148384188D01*
X106514000Y-148371928D01*
X104814000Y-148371928D01*
X104689518Y-148384188D01*
X104569820Y-148420498D01*
X104459506Y-148479463D01*
X104362815Y-148558815D01*
X104283463Y-148655506D01*
X104224498Y-148765820D01*
X104188188Y-148885518D01*
X104175928Y-149010000D01*
X96772000Y-149010000D01*
X96772000Y-145527172D01*
X97340600Y-145527172D01*
X97340600Y-145810828D01*
X97395938Y-146089033D01*
X97504488Y-146351096D01*
X97662079Y-146586947D01*
X97862653Y-146787521D01*
X98098504Y-146945112D01*
X98360567Y-147053662D01*
X98638772Y-147109000D01*
X98922428Y-147109000D01*
X99200633Y-147053662D01*
X99462696Y-146945112D01*
X99698547Y-146787521D01*
X99899121Y-146586947D01*
X100056712Y-146351096D01*
X100165262Y-146089033D01*
X100220600Y-145810828D01*
X100220600Y-145527172D01*
X100165262Y-145248967D01*
X100056712Y-144986904D01*
X99899121Y-144751053D01*
X99698547Y-144550479D01*
X99462696Y-144392888D01*
X99200633Y-144284338D01*
X98922428Y-144229000D01*
X98638772Y-144229000D01*
X98360567Y-144284338D01*
X98098504Y-144392888D01*
X97862653Y-144550479D01*
X97662079Y-144751053D01*
X97504488Y-144986904D01*
X97395938Y-145248967D01*
X97340600Y-145527172D01*
X96772000Y-145527172D01*
X96772000Y-141717172D01*
X99652000Y-141717172D01*
X99652000Y-142000828D01*
X99707338Y-142279033D01*
X99815888Y-142541096D01*
X99973479Y-142776947D01*
X100174053Y-142977521D01*
X100409904Y-143135112D01*
X100671967Y-143243662D01*
X100950172Y-143299000D01*
X101233828Y-143299000D01*
X101512033Y-143243662D01*
X101774096Y-143135112D01*
X102009947Y-142977521D01*
X102210521Y-142776947D01*
X102368112Y-142541096D01*
X102476662Y-142279033D01*
X102532000Y-142000828D01*
X102532000Y-141717172D01*
X102476662Y-141438967D01*
X102368112Y-141176904D01*
X102210521Y-140941053D01*
X102009947Y-140740479D01*
X101774096Y-140582888D01*
X101512033Y-140474338D01*
X101233828Y-140419000D01*
X100950172Y-140419000D01*
X100671967Y-140474338D01*
X100409904Y-140582888D01*
X100174053Y-140740479D01*
X99973479Y-140941053D01*
X99815888Y-141176904D01*
X99707338Y-141438967D01*
X99652000Y-141717172D01*
X96772000Y-141717172D01*
X96772000Y-133798473D01*
X107172610Y-133798473D01*
X107212875Y-134058344D01*
X107303065Y-134305366D01*
X107356963Y-134406203D01*
X107590731Y-134465664D01*
X108332395Y-133724000D01*
X108691605Y-133724000D01*
X109433269Y-134465664D01*
X109667037Y-134406203D01*
X109777934Y-134167758D01*
X109840183Y-133912260D01*
X109851390Y-133649527D01*
X109811125Y-133389656D01*
X109720935Y-133142634D01*
X109667037Y-133041797D01*
X109433269Y-132982336D01*
X108691605Y-133724000D01*
X108332395Y-133724000D01*
X107590731Y-132982336D01*
X107356963Y-133041797D01*
X107246066Y-133280242D01*
X107183817Y-133535740D01*
X107172610Y-133798473D01*
X96772000Y-133798473D01*
X96772000Y-132145269D01*
X107770336Y-132145269D01*
X107829797Y-132379037D01*
X108037995Y-132475867D01*
X107930634Y-132515065D01*
X107829797Y-132568963D01*
X107770336Y-132802731D01*
X108512000Y-133544395D01*
X109253664Y-132802731D01*
X109194203Y-132568963D01*
X108986005Y-132472133D01*
X109093366Y-132432935D01*
X109194203Y-132379037D01*
X109253664Y-132145269D01*
X108512000Y-131403605D01*
X107770336Y-132145269D01*
X96772000Y-132145269D01*
X96772000Y-131298473D01*
X107172610Y-131298473D01*
X107212875Y-131558344D01*
X107303065Y-131805366D01*
X107356963Y-131906203D01*
X107590731Y-131965664D01*
X108332395Y-131224000D01*
X108691605Y-131224000D01*
X109433269Y-131965664D01*
X109667037Y-131906203D01*
X109777934Y-131667758D01*
X109840183Y-131412260D01*
X109851390Y-131149527D01*
X109811125Y-130889656D01*
X109720935Y-130642634D01*
X109667037Y-130541797D01*
X109433269Y-130482336D01*
X108691605Y-131224000D01*
X108332395Y-131224000D01*
X107590731Y-130482336D01*
X107356963Y-130541797D01*
X107246066Y-130780242D01*
X107183817Y-131035740D01*
X107172610Y-131298473D01*
X96772000Y-131298473D01*
X96772000Y-129645269D01*
X107770336Y-129645269D01*
X107829797Y-129879037D01*
X108037995Y-129975867D01*
X107930634Y-130015065D01*
X107829797Y-130068963D01*
X107770336Y-130302731D01*
X108512000Y-131044395D01*
X109253664Y-130302731D01*
X109194203Y-130068963D01*
X108986005Y-129972133D01*
X109093366Y-129932935D01*
X109194203Y-129879037D01*
X109253664Y-129645269D01*
X108512000Y-128903605D01*
X107770336Y-129645269D01*
X96772000Y-129645269D01*
X96772000Y-128798473D01*
X107172610Y-128798473D01*
X107212875Y-129058344D01*
X107303065Y-129305366D01*
X107356963Y-129406203D01*
X107590731Y-129465664D01*
X108332395Y-128724000D01*
X108691605Y-128724000D01*
X109433269Y-129465664D01*
X109667037Y-129406203D01*
X109777934Y-129167758D01*
X109840183Y-128912260D01*
X109851390Y-128649527D01*
X109811125Y-128389656D01*
X109720935Y-128142634D01*
X109667037Y-128041797D01*
X109433269Y-127982336D01*
X108691605Y-128724000D01*
X108332395Y-128724000D01*
X107590731Y-127982336D01*
X107356963Y-128041797D01*
X107246066Y-128280242D01*
X107183817Y-128535740D01*
X107172610Y-128798473D01*
X96772000Y-128798473D01*
X96772000Y-121092514D01*
X107177000Y-121092514D01*
X107177000Y-121355486D01*
X107228304Y-121613405D01*
X107328939Y-121856359D01*
X107475038Y-122075013D01*
X107660987Y-122260962D01*
X107879641Y-122407061D01*
X108041246Y-122474000D01*
X107879641Y-122540939D01*
X107660987Y-122687038D01*
X107475038Y-122872987D01*
X107328939Y-123091641D01*
X107228304Y-123334595D01*
X107177000Y-123592514D01*
X107177000Y-123855486D01*
X107228304Y-124113405D01*
X107328939Y-124356359D01*
X107475038Y-124575013D01*
X107660987Y-124760962D01*
X107879641Y-124907061D01*
X108041246Y-124974000D01*
X107879641Y-125040939D01*
X107660987Y-125187038D01*
X107475038Y-125372987D01*
X107328939Y-125591641D01*
X107228304Y-125834595D01*
X107177000Y-126092514D01*
X107177000Y-126355486D01*
X107228304Y-126613405D01*
X107328939Y-126856359D01*
X107475038Y-127075013D01*
X107660987Y-127260962D01*
X107879641Y-127407061D01*
X108042118Y-127474361D01*
X107930634Y-127515065D01*
X107829797Y-127568963D01*
X107770336Y-127802731D01*
X108512000Y-128544395D01*
X109253664Y-127802731D01*
X109194203Y-127568963D01*
X108986596Y-127472408D01*
X109144359Y-127407061D01*
X109363013Y-127260962D01*
X109548962Y-127075013D01*
X109695061Y-126856359D01*
X109783358Y-126643190D01*
X109812795Y-126714256D01*
X109926063Y-126883774D01*
X109984001Y-126941712D01*
X109984000Y-129344289D01*
X109940063Y-129388226D01*
X109826795Y-129557744D01*
X109748774Y-129746102D01*
X109709000Y-129946061D01*
X109709000Y-130149939D01*
X109748774Y-130349898D01*
X109826795Y-130538256D01*
X109940063Y-130707774D01*
X110084226Y-130851937D01*
X110253744Y-130965205D01*
X110442102Y-131043226D01*
X110642061Y-131083000D01*
X110845939Y-131083000D01*
X111045898Y-131043226D01*
X111234256Y-130965205D01*
X111254000Y-130952012D01*
X111254000Y-131376289D01*
X111210063Y-131420226D01*
X111096795Y-131589744D01*
X111018774Y-131778102D01*
X110979000Y-131978061D01*
X110979000Y-132181939D01*
X111018774Y-132381898D01*
X111096795Y-132570256D01*
X111210063Y-132739774D01*
X111327817Y-132857528D01*
X111234226Y-132920063D01*
X111090063Y-133064226D01*
X110976795Y-133233744D01*
X110898774Y-133422102D01*
X110859000Y-133622061D01*
X110859000Y-133825939D01*
X110898774Y-134025898D01*
X110976795Y-134214256D01*
X111000001Y-134248986D01*
X111000001Y-135242900D01*
X110965898Y-135228774D01*
X110765939Y-135189000D01*
X110562061Y-135189000D01*
X110362102Y-135228774D01*
X110173744Y-135306795D01*
X110004226Y-135420063D01*
X109860063Y-135564226D01*
X109751195Y-135727159D01*
X109695061Y-135591641D01*
X109548962Y-135372987D01*
X109363013Y-135187038D01*
X109144359Y-135040939D01*
X108981882Y-134973639D01*
X109093366Y-134932935D01*
X109194203Y-134879037D01*
X109253664Y-134645269D01*
X108512000Y-133903605D01*
X107770336Y-134645269D01*
X107829797Y-134879037D01*
X108037404Y-134975592D01*
X107879641Y-135040939D01*
X107660987Y-135187038D01*
X107475038Y-135372987D01*
X107328939Y-135591641D01*
X107228304Y-135834595D01*
X107177000Y-136092514D01*
X107177000Y-136355486D01*
X107228304Y-136613405D01*
X107328939Y-136856359D01*
X107475038Y-137075013D01*
X107660987Y-137260962D01*
X107879641Y-137407061D01*
X108122595Y-137507696D01*
X108380514Y-137559000D01*
X108643486Y-137559000D01*
X108901405Y-137507696D01*
X109144359Y-137407061D01*
X109363013Y-137260962D01*
X109548962Y-137075013D01*
X109695061Y-136856359D01*
X109751195Y-136720841D01*
X109860063Y-136883774D01*
X110004226Y-137027937D01*
X110008001Y-137030459D01*
X110008000Y-141766289D01*
X109964063Y-141810226D01*
X109850795Y-141979744D01*
X109772774Y-142168102D01*
X109733000Y-142368061D01*
X109733000Y-142571939D01*
X109772774Y-142771898D01*
X109850795Y-142960256D01*
X109964063Y-143129774D01*
X110108226Y-143273937D01*
X110277744Y-143387205D01*
X110466102Y-143465226D01*
X110666061Y-143505000D01*
X110869939Y-143505000D01*
X111069898Y-143465226D01*
X111258256Y-143387205D01*
X111427774Y-143273937D01*
X111571937Y-143129774D01*
X111685205Y-142960256D01*
X111763226Y-142771898D01*
X111803000Y-142571939D01*
X111803000Y-142368061D01*
X111763226Y-142168102D01*
X111685205Y-141979744D01*
X111571937Y-141810226D01*
X111528000Y-141766289D01*
X111528000Y-139185129D01*
X111658061Y-139211000D01*
X111861939Y-139211000D01*
X112061898Y-139171226D01*
X112250256Y-139093205D01*
X112419774Y-138979937D01*
X112563937Y-138835774D01*
X112677205Y-138666256D01*
X112755226Y-138477898D01*
X112795000Y-138277939D01*
X112795000Y-138074061D01*
X112755226Y-137874102D01*
X112677205Y-137685744D01*
X112563937Y-137516226D01*
X112520000Y-137472289D01*
X112520000Y-137119975D01*
X112660987Y-137260962D01*
X112802001Y-137355184D01*
X112802000Y-139226289D01*
X112758063Y-139270226D01*
X112644795Y-139439744D01*
X112566774Y-139628102D01*
X112527000Y-139828061D01*
X112527000Y-140031939D01*
X112566774Y-140231898D01*
X112644795Y-140420256D01*
X112758063Y-140589774D01*
X112902226Y-140733937D01*
X113071744Y-140847205D01*
X113260102Y-140925226D01*
X113460061Y-140965000D01*
X113663939Y-140965000D01*
X113777001Y-140942511D01*
X113777001Y-146633288D01*
X113733064Y-146677225D01*
X113619796Y-146846743D01*
X113541775Y-147035101D01*
X113502001Y-147235060D01*
X113502001Y-147438938D01*
X113541775Y-147638897D01*
X113619796Y-147827255D01*
X113733064Y-147996773D01*
X113777001Y-148040710D01*
X113777001Y-148292197D01*
X113650408Y-148418790D01*
X113430260Y-148375000D01*
X113137740Y-148375000D01*
X112850842Y-148432068D01*
X112580589Y-148544010D01*
X112337368Y-148706525D01*
X112130525Y-148913368D01*
X112008805Y-149095534D01*
X111939178Y-148978645D01*
X111744269Y-148762412D01*
X111510920Y-148588359D01*
X111248099Y-148463175D01*
X111100890Y-148418524D01*
X110871000Y-148539845D01*
X110871000Y-149733000D01*
X110891000Y-149733000D01*
X110891000Y-149987000D01*
X110871000Y-149987000D01*
X110871000Y-151180155D01*
X111100890Y-151301476D01*
X111248099Y-151256825D01*
X111510920Y-151131641D01*
X111744269Y-150957588D01*
X111939178Y-150741355D01*
X112008805Y-150624466D01*
X112130525Y-150806632D01*
X112337368Y-151013475D01*
X112580589Y-151175990D01*
X112850842Y-151287932D01*
X113137740Y-151345000D01*
X113430260Y-151345000D01*
X113717158Y-151287932D01*
X113987411Y-151175990D01*
X114230632Y-151013475D01*
X114437475Y-150806632D01*
X114599990Y-150563411D01*
X114711932Y-150293158D01*
X114769000Y-150006260D01*
X114769000Y-149713740D01*
X114725210Y-149493592D01*
X115048005Y-149170797D01*
X115077002Y-149147000D01*
X115115574Y-149100000D01*
X115171975Y-149031276D01*
X115242547Y-148899246D01*
X115253004Y-148864774D01*
X115286004Y-148755985D01*
X115297001Y-148644332D01*
X115297001Y-148644322D01*
X115300677Y-148607000D01*
X115297001Y-148569677D01*
X115297001Y-148040710D01*
X115340938Y-147996773D01*
X115454206Y-147827255D01*
X115532227Y-147638897D01*
X115572001Y-147438938D01*
X115572001Y-147235060D01*
X115532227Y-147035101D01*
X115454206Y-146846743D01*
X115340938Y-146677225D01*
X115297001Y-146633288D01*
X115297001Y-144001891D01*
X120985524Y-144001891D01*
X121030175Y-144149100D01*
X121155359Y-144411921D01*
X121329412Y-144645270D01*
X121545645Y-144840179D01*
X121795748Y-144989158D01*
X122070109Y-145086482D01*
X122300000Y-144965815D01*
X122300000Y-143772001D01*
X121106845Y-143772001D01*
X120985524Y-144001891D01*
X115297001Y-144001891D01*
X115297001Y-141461891D01*
X120985524Y-141461891D01*
X121030175Y-141609100D01*
X121155359Y-141871921D01*
X121329412Y-142105270D01*
X121545645Y-142300179D01*
X121671255Y-142375001D01*
X121545645Y-142449823D01*
X121329412Y-142644732D01*
X121155359Y-142878081D01*
X121030175Y-143140902D01*
X120985524Y-143288111D01*
X121106845Y-143518001D01*
X122300000Y-143518001D01*
X122300000Y-141232001D01*
X121106845Y-141232001D01*
X120985524Y-141461891D01*
X115297001Y-141461891D01*
X115297001Y-138921891D01*
X120985524Y-138921891D01*
X121030175Y-139069100D01*
X121155359Y-139331921D01*
X121329412Y-139565270D01*
X121545645Y-139760179D01*
X121671255Y-139835001D01*
X121545645Y-139909823D01*
X121329412Y-140104732D01*
X121155359Y-140338081D01*
X121030175Y-140600902D01*
X120985524Y-140748111D01*
X121106845Y-140978001D01*
X122300000Y-140978001D01*
X122300000Y-138692001D01*
X121106845Y-138692001D01*
X120985524Y-138921891D01*
X115297001Y-138921891D01*
X115297001Y-136381891D01*
X120985524Y-136381891D01*
X121030175Y-136529100D01*
X121155359Y-136791921D01*
X121329412Y-137025270D01*
X121545645Y-137220179D01*
X121671255Y-137295001D01*
X121545645Y-137369823D01*
X121329412Y-137564732D01*
X121155359Y-137798081D01*
X121030175Y-138060902D01*
X120985524Y-138208111D01*
X121106845Y-138438001D01*
X122300000Y-138438001D01*
X122300000Y-136152001D01*
X121106845Y-136152001D01*
X120985524Y-136381891D01*
X115297001Y-136381891D01*
X115297001Y-135766654D01*
X115333744Y-135791205D01*
X115522102Y-135869226D01*
X115722061Y-135909000D01*
X115925939Y-135909000D01*
X116125898Y-135869226D01*
X116314256Y-135791205D01*
X116483774Y-135677937D01*
X116627937Y-135533774D01*
X116741205Y-135364256D01*
X116819226Y-135175898D01*
X116859000Y-134975939D01*
X116859000Y-134772061D01*
X116819226Y-134572102D01*
X116741205Y-134383744D01*
X116627937Y-134214226D01*
X116584000Y-134170289D01*
X116584000Y-133841891D01*
X120985524Y-133841891D01*
X121030175Y-133989100D01*
X121155359Y-134251921D01*
X121329412Y-134485270D01*
X121545645Y-134680179D01*
X121671255Y-134755001D01*
X121545645Y-134829823D01*
X121329412Y-135024732D01*
X121155359Y-135258081D01*
X121030175Y-135520902D01*
X120985524Y-135668111D01*
X121106845Y-135898001D01*
X122300000Y-135898001D01*
X122300000Y-133612001D01*
X121106845Y-133612001D01*
X120985524Y-133841891D01*
X116584000Y-133841891D01*
X116584000Y-131808849D01*
X116647205Y-131714256D01*
X116725226Y-131525898D01*
X116765000Y-131325939D01*
X116765000Y-131301891D01*
X120985524Y-131301891D01*
X121030175Y-131449100D01*
X121155359Y-131711921D01*
X121329412Y-131945270D01*
X121545645Y-132140179D01*
X121671255Y-132215001D01*
X121545645Y-132289823D01*
X121329412Y-132484732D01*
X121155359Y-132718081D01*
X121030175Y-132980902D01*
X120985524Y-133128111D01*
X121106845Y-133358001D01*
X122300000Y-133358001D01*
X122300000Y-131072001D01*
X121106845Y-131072001D01*
X120985524Y-131301891D01*
X116765000Y-131301891D01*
X116765000Y-131122061D01*
X116725226Y-130922102D01*
X116647205Y-130733744D01*
X116533937Y-130564226D01*
X116389774Y-130420063D01*
X116220256Y-130306795D01*
X116031898Y-130228774D01*
X115831939Y-130189000D01*
X115628061Y-130189000D01*
X115428102Y-130228774D01*
X115297001Y-130283078D01*
X115297001Y-128761891D01*
X120985524Y-128761891D01*
X121030175Y-128909100D01*
X121155359Y-129171921D01*
X121329412Y-129405270D01*
X121545645Y-129600179D01*
X121671255Y-129675001D01*
X121545645Y-129749823D01*
X121329412Y-129944732D01*
X121155359Y-130178081D01*
X121030175Y-130440902D01*
X120985524Y-130588111D01*
X121106845Y-130818001D01*
X122300000Y-130818001D01*
X122300000Y-128532001D01*
X121106845Y-128532001D01*
X120985524Y-128761891D01*
X115297001Y-128761891D01*
X115297001Y-126221891D01*
X120985524Y-126221891D01*
X121030175Y-126369100D01*
X121155359Y-126631921D01*
X121329412Y-126865270D01*
X121545645Y-127060179D01*
X121671255Y-127135001D01*
X121545645Y-127209823D01*
X121329412Y-127404732D01*
X121155359Y-127638081D01*
X121030175Y-127900902D01*
X120985524Y-128048111D01*
X121106845Y-128278001D01*
X122300000Y-128278001D01*
X122300000Y-125992001D01*
X121106845Y-125992001D01*
X120985524Y-126221891D01*
X115297001Y-126221891D01*
X115297001Y-123681891D01*
X120985524Y-123681891D01*
X121030175Y-123829100D01*
X121155359Y-124091921D01*
X121329412Y-124325270D01*
X121545645Y-124520179D01*
X121671255Y-124595001D01*
X121545645Y-124669823D01*
X121329412Y-124864732D01*
X121155359Y-125098081D01*
X121030175Y-125360902D01*
X120985524Y-125508111D01*
X121106845Y-125738001D01*
X122300000Y-125738001D01*
X122300000Y-123452001D01*
X121106845Y-123452001D01*
X120985524Y-123681891D01*
X115297001Y-123681891D01*
X115297001Y-121141891D01*
X120985524Y-121141891D01*
X121030175Y-121289100D01*
X121155359Y-121551921D01*
X121329412Y-121785270D01*
X121545645Y-121980179D01*
X121671255Y-122055001D01*
X121545645Y-122129823D01*
X121329412Y-122324732D01*
X121155359Y-122558081D01*
X121030175Y-122820902D01*
X120985524Y-122968111D01*
X121106845Y-123198001D01*
X122300000Y-123198001D01*
X122300000Y-120912001D01*
X121106845Y-120912001D01*
X120985524Y-121141891D01*
X115297001Y-121141891D01*
X115297001Y-115097060D01*
X116938001Y-115097060D01*
X116938001Y-115300938D01*
X116977775Y-115500897D01*
X117055796Y-115689255D01*
X117169064Y-115858773D01*
X117313227Y-116002936D01*
X117350001Y-116027507D01*
X117350000Y-118676289D01*
X117306063Y-118720226D01*
X117192795Y-118889744D01*
X117114774Y-119078102D01*
X117075000Y-119278061D01*
X117075000Y-119481939D01*
X117114774Y-119681898D01*
X117192795Y-119870256D01*
X117306063Y-120039774D01*
X117450226Y-120183937D01*
X117619744Y-120297205D01*
X117808102Y-120375226D01*
X118008061Y-120415000D01*
X118211939Y-120415000D01*
X118411898Y-120375226D01*
X118600256Y-120297205D01*
X118769774Y-120183937D01*
X118913937Y-120039774D01*
X119027205Y-119870256D01*
X119105226Y-119681898D01*
X119145000Y-119481939D01*
X119145000Y-119278061D01*
X119105226Y-119078102D01*
X119027205Y-118889744D01*
X118913937Y-118720226D01*
X118870000Y-118676289D01*
X118870000Y-118601891D01*
X120985524Y-118601891D01*
X121030175Y-118749100D01*
X121155359Y-119011921D01*
X121329412Y-119245270D01*
X121545645Y-119440179D01*
X121671255Y-119515001D01*
X121545645Y-119589823D01*
X121329412Y-119784732D01*
X121155359Y-120018081D01*
X121030175Y-120280902D01*
X120985524Y-120428111D01*
X121106845Y-120658001D01*
X122300000Y-120658001D01*
X122300000Y-118372001D01*
X121106845Y-118372001D01*
X120985524Y-118601891D01*
X118870000Y-118601891D01*
X118870000Y-116061891D01*
X120985524Y-116061891D01*
X121030175Y-116209100D01*
X121155359Y-116471921D01*
X121329412Y-116705270D01*
X121545645Y-116900179D01*
X121671255Y-116975001D01*
X121545645Y-117049823D01*
X121329412Y-117244732D01*
X121155359Y-117478081D01*
X121030175Y-117740902D01*
X120985524Y-117888111D01*
X121106845Y-118118001D01*
X122300000Y-118118001D01*
X122300000Y-115832001D01*
X121106845Y-115832001D01*
X120985524Y-116061891D01*
X118870000Y-116061891D01*
X118870000Y-115719495D01*
X118890206Y-115689255D01*
X118968227Y-115500897D01*
X119008001Y-115300938D01*
X119008001Y-115097060D01*
X118968227Y-114897101D01*
X118890206Y-114708743D01*
X118776938Y-114539225D01*
X118632775Y-114395062D01*
X118463257Y-114281794D01*
X118274899Y-114203773D01*
X118074940Y-114163999D01*
X117871062Y-114163999D01*
X117671103Y-114203773D01*
X117482745Y-114281794D01*
X117313227Y-114395062D01*
X117169064Y-114539225D01*
X117055796Y-114708743D01*
X116977775Y-114897101D01*
X116938001Y-115097060D01*
X115297001Y-115097060D01*
X115297001Y-113521891D01*
X120985524Y-113521891D01*
X121030175Y-113669100D01*
X121155359Y-113931921D01*
X121329412Y-114165270D01*
X121545645Y-114360179D01*
X121671255Y-114435001D01*
X121545645Y-114509823D01*
X121329412Y-114704732D01*
X121155359Y-114938081D01*
X121030175Y-115200902D01*
X120985524Y-115348111D01*
X121106845Y-115578001D01*
X122300000Y-115578001D01*
X122300000Y-113292001D01*
X121106845Y-113292001D01*
X120985524Y-113521891D01*
X115297001Y-113521891D01*
X115297001Y-112948796D01*
X115460744Y-113058205D01*
X115649102Y-113136226D01*
X115849061Y-113176000D01*
X116052939Y-113176000D01*
X116252898Y-113136226D01*
X116441256Y-113058205D01*
X116610774Y-112944937D01*
X116754937Y-112800774D01*
X116868205Y-112631256D01*
X116946226Y-112442898D01*
X116986000Y-112242939D01*
X116986000Y-112184912D01*
X117075984Y-112075266D01*
X117146556Y-111943237D01*
X117190013Y-111799976D01*
X117201010Y-111688323D01*
X117201010Y-111688315D01*
X117204686Y-111650990D01*
X117201010Y-111613665D01*
X117201010Y-110981891D01*
X120985524Y-110981891D01*
X121030175Y-111129100D01*
X121155359Y-111391921D01*
X121329412Y-111625270D01*
X121545645Y-111820179D01*
X121671255Y-111895001D01*
X121545645Y-111969823D01*
X121329412Y-112164732D01*
X121155359Y-112398081D01*
X121030175Y-112660902D01*
X120985524Y-112808111D01*
X121106845Y-113038001D01*
X122300000Y-113038001D01*
X122300000Y-110752001D01*
X121106845Y-110752001D01*
X120985524Y-110981891D01*
X117201010Y-110981891D01*
X117201010Y-108441891D01*
X120985524Y-108441891D01*
X121030175Y-108589100D01*
X121155359Y-108851921D01*
X121329412Y-109085270D01*
X121545645Y-109280179D01*
X121671255Y-109355001D01*
X121545645Y-109429823D01*
X121329412Y-109624732D01*
X121155359Y-109858081D01*
X121030175Y-110120902D01*
X120985524Y-110268111D01*
X121106845Y-110498001D01*
X122300000Y-110498001D01*
X122300000Y-108212001D01*
X121106845Y-108212001D01*
X120985524Y-108441891D01*
X117201010Y-108441891D01*
X117201010Y-105901891D01*
X120985524Y-105901891D01*
X121030175Y-106049100D01*
X121155359Y-106311921D01*
X121329412Y-106545270D01*
X121545645Y-106740179D01*
X121671255Y-106815001D01*
X121545645Y-106889823D01*
X121329412Y-107084732D01*
X121155359Y-107318081D01*
X121030175Y-107580902D01*
X120985524Y-107728111D01*
X121106845Y-107958001D01*
X122300000Y-107958001D01*
X122300000Y-105672001D01*
X121106845Y-105672001D01*
X120985524Y-105901891D01*
X117201010Y-105901891D01*
X117201010Y-103855001D01*
X120938928Y-103855001D01*
X120951188Y-103979483D01*
X120987498Y-104099181D01*
X121046463Y-104209495D01*
X121125815Y-104306186D01*
X121222506Y-104385538D01*
X121332820Y-104444503D01*
X121413466Y-104468967D01*
X121329412Y-104544732D01*
X121155359Y-104778081D01*
X121030175Y-105040902D01*
X120985524Y-105188111D01*
X121106845Y-105418001D01*
X122300000Y-105418001D01*
X122300000Y-103132001D01*
X121100750Y-103132001D01*
X120942000Y-103290751D01*
X120938928Y-103855001D01*
X117201010Y-103855001D01*
X117201010Y-102155001D01*
X120938928Y-102155001D01*
X120942000Y-102719251D01*
X121100750Y-102878001D01*
X122300000Y-102878001D01*
X122300000Y-101678751D01*
X122554000Y-101678751D01*
X122554000Y-102878001D01*
X122574000Y-102878001D01*
X122574000Y-103132001D01*
X122554000Y-103132001D01*
X122554000Y-105418001D01*
X122574000Y-105418001D01*
X122574000Y-105672001D01*
X122554000Y-105672001D01*
X122554000Y-107958001D01*
X122574000Y-107958001D01*
X122574000Y-108212001D01*
X122554000Y-108212001D01*
X122554000Y-110498001D01*
X122574000Y-110498001D01*
X122574000Y-110752001D01*
X122554000Y-110752001D01*
X122554000Y-113038001D01*
X122574000Y-113038001D01*
X122574000Y-113292001D01*
X122554000Y-113292001D01*
X122554000Y-115578001D01*
X122574000Y-115578001D01*
X122574000Y-115832001D01*
X122554000Y-115832001D01*
X122554000Y-118118001D01*
X122574000Y-118118001D01*
X122574000Y-118372001D01*
X122554000Y-118372001D01*
X122554000Y-120658001D01*
X122574000Y-120658001D01*
X122574000Y-120912001D01*
X122554000Y-120912001D01*
X122554000Y-123198001D01*
X122574000Y-123198001D01*
X122574000Y-123452001D01*
X122554000Y-123452001D01*
X122554000Y-125738001D01*
X122574000Y-125738001D01*
X122574000Y-125992001D01*
X122554000Y-125992001D01*
X122554000Y-128278001D01*
X122574000Y-128278001D01*
X122574000Y-128532001D01*
X122554000Y-128532001D01*
X122554000Y-130818001D01*
X122574000Y-130818001D01*
X122574000Y-131072001D01*
X122554000Y-131072001D01*
X122554000Y-133358001D01*
X122574000Y-133358001D01*
X122574000Y-133612001D01*
X122554000Y-133612001D01*
X122554000Y-135898001D01*
X122574000Y-135898001D01*
X122574000Y-136152001D01*
X122554000Y-136152001D01*
X122554000Y-138438001D01*
X122574000Y-138438001D01*
X122574000Y-138692001D01*
X122554000Y-138692001D01*
X122554000Y-140978001D01*
X122574000Y-140978001D01*
X122574000Y-141232001D01*
X122554000Y-141232001D01*
X122554000Y-143518001D01*
X122574000Y-143518001D01*
X122574000Y-143772001D01*
X122554000Y-143772001D01*
X122554000Y-144965815D01*
X122783891Y-145086482D01*
X123058252Y-144989158D01*
X123308355Y-144840179D01*
X123524588Y-144645270D01*
X123695900Y-144415595D01*
X123813525Y-144591633D01*
X124020368Y-144798476D01*
X124263589Y-144960991D01*
X124533842Y-145072933D01*
X124820740Y-145130001D01*
X125113260Y-145130001D01*
X125400158Y-145072933D01*
X125670411Y-144960991D01*
X125913632Y-144798476D01*
X126120475Y-144591633D01*
X126282990Y-144348412D01*
X126394932Y-144078159D01*
X126452000Y-143791261D01*
X126452000Y-143498741D01*
X126394932Y-143211843D01*
X126282990Y-142941590D01*
X126120475Y-142698369D01*
X125913632Y-142491526D01*
X125739240Y-142375001D01*
X125913632Y-142258476D01*
X126120475Y-142051633D01*
X126282990Y-141808412D01*
X126394932Y-141538159D01*
X126452000Y-141251261D01*
X126452000Y-140958741D01*
X126394932Y-140671843D01*
X126282990Y-140401590D01*
X126120475Y-140158369D01*
X125913632Y-139951526D01*
X125739240Y-139835001D01*
X125913632Y-139718476D01*
X126120475Y-139511633D01*
X126282990Y-139268412D01*
X126394932Y-138998159D01*
X126452000Y-138711261D01*
X126452000Y-138418741D01*
X126394932Y-138131843D01*
X126282990Y-137861590D01*
X126120475Y-137618369D01*
X125913632Y-137411526D01*
X125739240Y-137295001D01*
X125913632Y-137178476D01*
X126120475Y-136971633D01*
X126282990Y-136728412D01*
X126394932Y-136458159D01*
X126452000Y-136171261D01*
X126452000Y-135878741D01*
X126394932Y-135591843D01*
X126282990Y-135321590D01*
X126120475Y-135078369D01*
X125913632Y-134871526D01*
X125739240Y-134755001D01*
X125913632Y-134638476D01*
X126120475Y-134431633D01*
X126282990Y-134188412D01*
X126394932Y-133918159D01*
X126452000Y-133631261D01*
X126452000Y-133338741D01*
X126394932Y-133051843D01*
X126282990Y-132781590D01*
X126120475Y-132538369D01*
X125913632Y-132331526D01*
X125739240Y-132215001D01*
X125913632Y-132098476D01*
X126120475Y-131891633D01*
X126282990Y-131648412D01*
X126394932Y-131378159D01*
X126452000Y-131091261D01*
X126452000Y-130798741D01*
X126394932Y-130511843D01*
X126282990Y-130241590D01*
X126120475Y-129998369D01*
X125913632Y-129791526D01*
X125739240Y-129675001D01*
X125913632Y-129558476D01*
X126120475Y-129351633D01*
X126282990Y-129108412D01*
X126394932Y-128838159D01*
X126452000Y-128551261D01*
X126452000Y-128258741D01*
X126394932Y-127971843D01*
X126282990Y-127701590D01*
X126120475Y-127458369D01*
X125913632Y-127251526D01*
X125739240Y-127135001D01*
X125913632Y-127018476D01*
X126120475Y-126811633D01*
X126282990Y-126568412D01*
X126394932Y-126298159D01*
X126452000Y-126011261D01*
X126452000Y-125718741D01*
X126394932Y-125431843D01*
X126282990Y-125161590D01*
X126120475Y-124918369D01*
X125913632Y-124711526D01*
X125739240Y-124595001D01*
X125913632Y-124478476D01*
X126120475Y-124271633D01*
X126282990Y-124028412D01*
X126394932Y-123758159D01*
X126452000Y-123471261D01*
X126452000Y-123178741D01*
X126394932Y-122891843D01*
X126282990Y-122621590D01*
X126120475Y-122378369D01*
X125913632Y-122171526D01*
X125739240Y-122055001D01*
X125913632Y-121938476D01*
X126120475Y-121731633D01*
X126282990Y-121488412D01*
X126394932Y-121218159D01*
X126452000Y-120931261D01*
X126452000Y-120638741D01*
X126394932Y-120351843D01*
X126282990Y-120081590D01*
X126120475Y-119838369D01*
X125913632Y-119631526D01*
X125739240Y-119515001D01*
X125913632Y-119398476D01*
X126120475Y-119191633D01*
X126282990Y-118948412D01*
X126394932Y-118678159D01*
X126452000Y-118391261D01*
X126452000Y-118098741D01*
X126394932Y-117811843D01*
X126282990Y-117541590D01*
X126120475Y-117298369D01*
X125913632Y-117091526D01*
X125739240Y-116975001D01*
X125913632Y-116858476D01*
X126120475Y-116651633D01*
X126282990Y-116408412D01*
X126394932Y-116138159D01*
X126452000Y-115851261D01*
X126452000Y-115558741D01*
X126394932Y-115271843D01*
X126282990Y-115001590D01*
X126120475Y-114758369D01*
X125913632Y-114551526D01*
X125739240Y-114435001D01*
X125913632Y-114318476D01*
X126120475Y-114111633D01*
X126282990Y-113868412D01*
X126394932Y-113598159D01*
X126452000Y-113311261D01*
X126452000Y-113018741D01*
X126394932Y-112731843D01*
X126282990Y-112461590D01*
X126120475Y-112218369D01*
X125913632Y-112011526D01*
X125739240Y-111895001D01*
X125913632Y-111778476D01*
X126120475Y-111571633D01*
X126282990Y-111328412D01*
X126394932Y-111058159D01*
X126452000Y-110771261D01*
X126452000Y-110478741D01*
X126394932Y-110191843D01*
X126282990Y-109921590D01*
X126120475Y-109678369D01*
X125913632Y-109471526D01*
X125739240Y-109355001D01*
X125913632Y-109238476D01*
X126120475Y-109031633D01*
X126282990Y-108788412D01*
X126394932Y-108518159D01*
X126452000Y-108231261D01*
X126452000Y-107938741D01*
X126394932Y-107651843D01*
X126282990Y-107381590D01*
X126120475Y-107138369D01*
X125913632Y-106931526D01*
X125739240Y-106815001D01*
X125913632Y-106698476D01*
X126120475Y-106491633D01*
X126282990Y-106248412D01*
X126394932Y-105978159D01*
X126452000Y-105691261D01*
X126452000Y-105398741D01*
X126394932Y-105111843D01*
X126282990Y-104841590D01*
X126120475Y-104598369D01*
X125913632Y-104391526D01*
X125739240Y-104275001D01*
X125913632Y-104158476D01*
X126120475Y-103951633D01*
X126282990Y-103708412D01*
X126394932Y-103438159D01*
X126452000Y-103151261D01*
X126452000Y-102858741D01*
X126394932Y-102571843D01*
X126282990Y-102301590D01*
X126120475Y-102058369D01*
X125913632Y-101851526D01*
X125670411Y-101689011D01*
X125400158Y-101577069D01*
X125113260Y-101520001D01*
X124820740Y-101520001D01*
X124533842Y-101577069D01*
X124263589Y-101689011D01*
X124020368Y-101851526D01*
X123888513Y-101983381D01*
X123866502Y-101910821D01*
X123807537Y-101800507D01*
X123728185Y-101703816D01*
X123631494Y-101624464D01*
X123521180Y-101565499D01*
X123401482Y-101529189D01*
X123277000Y-101516929D01*
X122712750Y-101520001D01*
X122554000Y-101678751D01*
X122300000Y-101678751D01*
X122141250Y-101520001D01*
X121577000Y-101516929D01*
X121452518Y-101529189D01*
X121332820Y-101565499D01*
X121222506Y-101624464D01*
X121125815Y-101703816D01*
X121046463Y-101800507D01*
X120987498Y-101910821D01*
X120951188Y-102030519D01*
X120938928Y-102155001D01*
X117201010Y-102155001D01*
X117201010Y-97943029D01*
X117304193Y-97998182D01*
X117574692Y-98080236D01*
X117856000Y-98107943D01*
X118137309Y-98080236D01*
X118407808Y-97998182D01*
X118657101Y-97864932D01*
X118875608Y-97685608D01*
X119054932Y-97467101D01*
X119126000Y-97334142D01*
X119197068Y-97467101D01*
X119376393Y-97685608D01*
X119594900Y-97864932D01*
X119844193Y-97998182D01*
X120114692Y-98080236D01*
X120396000Y-98107943D01*
X120677309Y-98080236D01*
X120947808Y-97998182D01*
X121197101Y-97864932D01*
X121415608Y-97685608D01*
X121594932Y-97467101D01*
X121666000Y-97334142D01*
X121737068Y-97467101D01*
X121916393Y-97685608D01*
X122134900Y-97864932D01*
X122384193Y-97998182D01*
X122654692Y-98080236D01*
X122936000Y-98107943D01*
X123217309Y-98080236D01*
X123487808Y-97998182D01*
X123737101Y-97864932D01*
X123955608Y-97685608D01*
X124134932Y-97467101D01*
X124206000Y-97334142D01*
X124277068Y-97467101D01*
X124456393Y-97685608D01*
X124674900Y-97864932D01*
X124924193Y-97998182D01*
X125194692Y-98080236D01*
X125476000Y-98107943D01*
X125757309Y-98080236D01*
X126027808Y-97998182D01*
X126277101Y-97864932D01*
X126495608Y-97685608D01*
X126674932Y-97467101D01*
X126743265Y-97339259D01*
X126893399Y-97568839D01*
X127091105Y-97770500D01*
X127324354Y-97929715D01*
X127584182Y-98040367D01*
X127666961Y-98057904D01*
X127889000Y-97935915D01*
X127889000Y-96393000D01*
X127869000Y-96393000D01*
X127869000Y-96139000D01*
X127889000Y-96139000D01*
X127889000Y-94596085D01*
X127666961Y-94474096D01*
X127584182Y-94491633D01*
X127361010Y-94586674D01*
X127361010Y-90323029D01*
X127464193Y-90378182D01*
X127734692Y-90460236D01*
X128016000Y-90487943D01*
X128297309Y-90460236D01*
X128567808Y-90378182D01*
X128817101Y-90244932D01*
X129035608Y-90065608D01*
X129214932Y-89847101D01*
X129348182Y-89597808D01*
X129430236Y-89327309D01*
X129432999Y-89299255D01*
X129432999Y-95643575D01*
X129398650Y-95461486D01*
X129293166Y-95199517D01*
X129138601Y-94963161D01*
X128940895Y-94761500D01*
X128707646Y-94602285D01*
X128447818Y-94491633D01*
X128365039Y-94474096D01*
X128143000Y-94596085D01*
X128143000Y-96139000D01*
X128163000Y-96139000D01*
X128163000Y-96393000D01*
X128143000Y-96393000D01*
X128143000Y-97935915D01*
X128365039Y-98057904D01*
X128447818Y-98040367D01*
X128707646Y-97929715D01*
X128940895Y-97770500D01*
X129138601Y-97568839D01*
X129293166Y-97332483D01*
X129398650Y-97070514D01*
X129432999Y-96888424D01*
X129433000Y-142793255D01*
X129303744Y-142846795D01*
X129134226Y-142960063D01*
X128990063Y-143104226D01*
X128876795Y-143273744D01*
X128798774Y-143462102D01*
X128759000Y-143662061D01*
X128759000Y-143865939D01*
X128798774Y-144065898D01*
X128876795Y-144254256D01*
X128990063Y-144423774D01*
X129134226Y-144567937D01*
X129303744Y-144681205D01*
X129492102Y-144759226D01*
X129692061Y-144799000D01*
X129895939Y-144799000D01*
X130095898Y-144759226D01*
X130284256Y-144681205D01*
X130453774Y-144567937D01*
X130569407Y-144452304D01*
X130654412Y-144566269D01*
X130870645Y-144761178D01*
X131120748Y-144910157D01*
X131395109Y-145007481D01*
X131625000Y-144886814D01*
X131625000Y-143693000D01*
X131605000Y-143693000D01*
X131605000Y-143439000D01*
X131625000Y-143439000D01*
X131625000Y-141153000D01*
X131605000Y-141153000D01*
X131605000Y-140899000D01*
X131625000Y-140899000D01*
X131625000Y-138613000D01*
X131605000Y-138613000D01*
X131605000Y-138359000D01*
X131625000Y-138359000D01*
X131625000Y-136073000D01*
X131605000Y-136073000D01*
X131605000Y-135819000D01*
X131625000Y-135819000D01*
X131625000Y-133533000D01*
X131605000Y-133533000D01*
X131605000Y-133279000D01*
X131625000Y-133279000D01*
X131625000Y-130993000D01*
X131605000Y-130993000D01*
X131605000Y-130739000D01*
X131625000Y-130739000D01*
X131625000Y-128453000D01*
X131605000Y-128453000D01*
X131605000Y-128199000D01*
X131625000Y-128199000D01*
X131625000Y-125913000D01*
X131605000Y-125913000D01*
X131605000Y-125659000D01*
X131625000Y-125659000D01*
X131625000Y-123373000D01*
X131605000Y-123373000D01*
X131605000Y-123119000D01*
X131625000Y-123119000D01*
X131625000Y-120833000D01*
X131605000Y-120833000D01*
X131605000Y-120579000D01*
X131625000Y-120579000D01*
X131625000Y-118293000D01*
X131605000Y-118293000D01*
X131605000Y-118039000D01*
X131625000Y-118039000D01*
X131625000Y-115753000D01*
X131605000Y-115753000D01*
X131605000Y-115499000D01*
X131625000Y-115499000D01*
X131625000Y-113213000D01*
X131605000Y-113213000D01*
X131605000Y-112959000D01*
X131625000Y-112959000D01*
X131625000Y-110673000D01*
X131605000Y-110673000D01*
X131605000Y-110419000D01*
X131625000Y-110419000D01*
X131625000Y-108133000D01*
X131605000Y-108133000D01*
X131605000Y-107879000D01*
X131625000Y-107879000D01*
X131625000Y-105593000D01*
X131605000Y-105593000D01*
X131605000Y-105339000D01*
X131625000Y-105339000D01*
X131625000Y-103053000D01*
X131605000Y-103053000D01*
X131605000Y-102799000D01*
X131625000Y-102799000D01*
X131625000Y-101599750D01*
X131466250Y-101441000D01*
X130952999Y-101438206D01*
X130952999Y-97613902D01*
X131106184Y-97652300D01*
X131388512Y-97666217D01*
X131668130Y-97624787D01*
X131934292Y-97529603D01*
X132059514Y-97462671D01*
X132131097Y-97218702D01*
X131318000Y-96405605D01*
X131303858Y-96419748D01*
X131124253Y-96240143D01*
X131138395Y-96226000D01*
X131497605Y-96226000D01*
X132310702Y-97039097D01*
X132554671Y-96967514D01*
X132675571Y-96712004D01*
X132744300Y-96437816D01*
X132758217Y-96155488D01*
X132716787Y-95875870D01*
X132621603Y-95609708D01*
X132554671Y-95484486D01*
X132310702Y-95412903D01*
X131497605Y-96226000D01*
X131138395Y-96226000D01*
X131124253Y-96211858D01*
X131303858Y-96032253D01*
X131318000Y-96046395D01*
X132131097Y-95233298D01*
X132059514Y-94989329D01*
X132030659Y-94975676D01*
X132232759Y-94840637D01*
X132432637Y-94640759D01*
X132589680Y-94405727D01*
X132697853Y-94144574D01*
X132753000Y-93867335D01*
X132753000Y-93584665D01*
X132697853Y-93307426D01*
X132589680Y-93046273D01*
X132432637Y-92811241D01*
X132353000Y-92731604D01*
X132353000Y-92608061D01*
X132313226Y-92408102D01*
X132235205Y-92219744D01*
X132121937Y-92050226D01*
X131977774Y-91906063D01*
X131808256Y-91792795D01*
X131619898Y-91714774D01*
X131419939Y-91675000D01*
X131216061Y-91675000D01*
X131016102Y-91714774D01*
X130952999Y-91740912D01*
X130952999Y-86017125D01*
X130989158Y-86009932D01*
X131259411Y-85897990D01*
X131502632Y-85735475D01*
X131709475Y-85528632D01*
X131826000Y-85354240D01*
X131942525Y-85528632D01*
X132149368Y-85735475D01*
X132392589Y-85897990D01*
X132662842Y-86009932D01*
X132949740Y-86067000D01*
X133242260Y-86067000D01*
X133529158Y-86009932D01*
X133799411Y-85897990D01*
X134042632Y-85735475D01*
X134249475Y-85528632D01*
X134411990Y-85285411D01*
X134523932Y-85015158D01*
X134581000Y-84728260D01*
X134581000Y-84435740D01*
X134523932Y-84148842D01*
X134411990Y-83878589D01*
X134249475Y-83635368D01*
X134042632Y-83428525D01*
X133856000Y-83303822D01*
X133856000Y-81542178D01*
X134042632Y-81417475D01*
X134249475Y-81210632D01*
X134411990Y-80967411D01*
X134523932Y-80697158D01*
X134581000Y-80410260D01*
X134581000Y-80117740D01*
X134523932Y-79830842D01*
X134411990Y-79560589D01*
X134249475Y-79317368D01*
X134042632Y-79110525D01*
X133799411Y-78948010D01*
X133529158Y-78836068D01*
X133242260Y-78779000D01*
X132949740Y-78779000D01*
X132662842Y-78836068D01*
X132392589Y-78948010D01*
X132149368Y-79110525D01*
X131942525Y-79317368D01*
X131826000Y-79491760D01*
X131709475Y-79317368D01*
X131502632Y-79110525D01*
X131259411Y-78948010D01*
X130989158Y-78836068D01*
X130702260Y-78779000D01*
X130409740Y-78779000D01*
X130122842Y-78836068D01*
X129852589Y-78948010D01*
X129609368Y-79110525D01*
X129477513Y-79242380D01*
X129455502Y-79169820D01*
X129396537Y-79059506D01*
X129317185Y-78962815D01*
X129220494Y-78883463D01*
X129110180Y-78824498D01*
X128990482Y-78788188D01*
X128866000Y-78775928D01*
X127166000Y-78775928D01*
X127041518Y-78788188D01*
X126921820Y-78824498D01*
X126811506Y-78883463D01*
X126714815Y-78962815D01*
X126635463Y-79059506D01*
X126576498Y-79169820D01*
X126540188Y-79289518D01*
X126527928Y-79414000D01*
X126527928Y-80677271D01*
X126090008Y-81115191D01*
X126061010Y-81138989D01*
X126037212Y-81167987D01*
X126037211Y-81167988D01*
X125966036Y-81254714D01*
X125895464Y-81386744D01*
X125865190Y-81486548D01*
X125852008Y-81530004D01*
X125847085Y-81579990D01*
X125837334Y-81678990D01*
X125841011Y-81716322D01*
X125841011Y-86857155D01*
X125757308Y-86831764D01*
X125476000Y-86804057D01*
X125194691Y-86831764D01*
X124924192Y-86913818D01*
X124821010Y-86968970D01*
X124821010Y-82442335D01*
X124824686Y-82405010D01*
X124821010Y-82367685D01*
X124821010Y-82367677D01*
X124810013Y-82256024D01*
X124766556Y-82112763D01*
X124695984Y-81980734D01*
X124601011Y-81865009D01*
X124572013Y-81841211D01*
X124080688Y-81349886D01*
X124117000Y-81167335D01*
X124117000Y-80884665D01*
X124061853Y-80607426D01*
X123953680Y-80346273D01*
X123796637Y-80111241D01*
X123596759Y-79911363D01*
X123361727Y-79754320D01*
X123100574Y-79646147D01*
X122823335Y-79591000D01*
X122540665Y-79591000D01*
X122263426Y-79646147D01*
X122002273Y-79754320D01*
X121767241Y-79911363D01*
X121567363Y-80111241D01*
X121410320Y-80346273D01*
X121302147Y-80607426D01*
X121247000Y-80884665D01*
X121247000Y-81167335D01*
X121302147Y-81444574D01*
X121410320Y-81705727D01*
X121567363Y-81940759D01*
X121767241Y-82140637D01*
X122002273Y-82297680D01*
X122263426Y-82405853D01*
X122540665Y-82461000D01*
X122823335Y-82461000D01*
X123005886Y-82424688D01*
X123301011Y-82719813D01*
X123301011Y-83285171D01*
X123100574Y-83202147D01*
X122823335Y-83147000D01*
X122540665Y-83147000D01*
X122263426Y-83202147D01*
X122002273Y-83310320D01*
X121767241Y-83467363D01*
X121567363Y-83667241D01*
X121410320Y-83902273D01*
X121302147Y-84163426D01*
X121247000Y-84440665D01*
X121247000Y-84723335D01*
X121302147Y-85000574D01*
X121410320Y-85261727D01*
X121567363Y-85496759D01*
X121767241Y-85696637D01*
X122002273Y-85853680D01*
X122176001Y-85925640D01*
X122176000Y-87025099D01*
X122134899Y-87047068D01*
X121916392Y-87226393D01*
X121737068Y-87444900D01*
X121666000Y-87577858D01*
X121594932Y-87444899D01*
X121415607Y-87226392D01*
X121197100Y-87047068D01*
X120947807Y-86913818D01*
X120677308Y-86831764D01*
X120396000Y-86804057D01*
X120114691Y-86831764D01*
X119844192Y-86913818D01*
X119594899Y-87047068D01*
X119376392Y-87226393D01*
X119197068Y-87444900D01*
X119126000Y-87577858D01*
X119054932Y-87444899D01*
X118875607Y-87226392D01*
X118657100Y-87047068D01*
X118407807Y-86913818D01*
X118137308Y-86831764D01*
X117856000Y-86804057D01*
X117574691Y-86831764D01*
X117304192Y-86913818D01*
X117054899Y-87047068D01*
X116836392Y-87226393D01*
X116657068Y-87444900D01*
X116586000Y-87577858D01*
X116514932Y-87444899D01*
X116335607Y-87226392D01*
X116117100Y-87047068D01*
X115867807Y-86913818D01*
X115597308Y-86831764D01*
X115316000Y-86804057D01*
X115034691Y-86831764D01*
X114764192Y-86913818D01*
X114514899Y-87047068D01*
X114296392Y-87226393D01*
X114117068Y-87444900D01*
X114046000Y-87577858D01*
X113974932Y-87444899D01*
X113795607Y-87226392D01*
X113577100Y-87047068D01*
X113536000Y-87025100D01*
X113536000Y-85597396D01*
X113636637Y-85496759D01*
X113793680Y-85261727D01*
X113901853Y-85000574D01*
X113957000Y-84723335D01*
X113957000Y-84440665D01*
X113901853Y-84163426D01*
X113793680Y-83902273D01*
X113636637Y-83667241D01*
X113536000Y-83566604D01*
X113536000Y-82041396D01*
X113636637Y-81940759D01*
X113793680Y-81705727D01*
X113901853Y-81444574D01*
X113957000Y-81167335D01*
X113957000Y-80884665D01*
X113901853Y-80607426D01*
X113793680Y-80346273D01*
X113636637Y-80111241D01*
X113436759Y-79911363D01*
X113201727Y-79754320D01*
X112940574Y-79646147D01*
X112663335Y-79591000D01*
X112380665Y-79591000D01*
X112103426Y-79646147D01*
X111842273Y-79754320D01*
X111607241Y-79911363D01*
X111407363Y-80111241D01*
X111250320Y-80346273D01*
X111142147Y-80607426D01*
X111087000Y-80884665D01*
X111087000Y-81167335D01*
X111142147Y-81444574D01*
X111250320Y-81705727D01*
X111407363Y-81940759D01*
X111607241Y-82140637D01*
X111762001Y-82244044D01*
X111762000Y-83363956D01*
X111607241Y-83467363D01*
X111407363Y-83667241D01*
X111250320Y-83902273D01*
X111142147Y-84163426D01*
X111087000Y-84440665D01*
X111087000Y-84723335D01*
X111142147Y-85000574D01*
X111250320Y-85261727D01*
X111407363Y-85496759D01*
X111607241Y-85696637D01*
X111842273Y-85853680D01*
X112016000Y-85925640D01*
X112016000Y-87025099D01*
X111974899Y-87047068D01*
X111756392Y-87226393D01*
X111577068Y-87444900D01*
X111443818Y-87694193D01*
X111361764Y-87964692D01*
X111341000Y-88175509D01*
X111341000Y-89116492D01*
X111361764Y-89327309D01*
X111443818Y-89597808D01*
X111577068Y-89847101D01*
X111756393Y-90065608D01*
X111974900Y-90244932D01*
X112016000Y-90266901D01*
X112016001Y-92260288D01*
X111972063Y-92304226D01*
X111858795Y-92473744D01*
X111780774Y-92662102D01*
X111741000Y-92862061D01*
X111741000Y-93065939D01*
X111780774Y-93265898D01*
X111858795Y-93454256D01*
X111972063Y-93623774D01*
X112116226Y-93767937D01*
X112285744Y-93881205D01*
X112474102Y-93959226D01*
X112674061Y-93999000D01*
X112877939Y-93999000D01*
X113077898Y-93959226D01*
X113141002Y-93933087D01*
X113141002Y-94427928D01*
X111976000Y-94427928D01*
X111851518Y-94440188D01*
X111731820Y-94476498D01*
X111621506Y-94535463D01*
X111524815Y-94614815D01*
X111445463Y-94711506D01*
X111386498Y-94821820D01*
X111350188Y-94941518D01*
X111337928Y-95066000D01*
X111337928Y-97466000D01*
X111350188Y-97590482D01*
X111386498Y-97710180D01*
X111445463Y-97820494D01*
X111524815Y-97917185D01*
X111621506Y-97996537D01*
X111726999Y-98052925D01*
X111727000Y-115161666D01*
X111723323Y-115198999D01*
X111727000Y-115236332D01*
X111737997Y-115347985D01*
X111745581Y-115372987D01*
X111781453Y-115491245D01*
X111852025Y-115623275D01*
X111906174Y-115689255D01*
X111946999Y-115739000D01*
X111975997Y-115762798D01*
X112198355Y-115985156D01*
X112177000Y-116092514D01*
X112177000Y-116355486D01*
X112228304Y-116613405D01*
X112328939Y-116856359D01*
X112475038Y-117075013D01*
X112660987Y-117260962D01*
X112879641Y-117407061D01*
X113041246Y-117474000D01*
X112879641Y-117540939D01*
X112660987Y-117687038D01*
X112475038Y-117872987D01*
X112328939Y-118091641D01*
X112228304Y-118334595D01*
X112177000Y-118592514D01*
X112177000Y-118855486D01*
X112228304Y-119113405D01*
X112328939Y-119356359D01*
X112475038Y-119575013D01*
X112660987Y-119760962D01*
X112879641Y-119907061D01*
X113041246Y-119974000D01*
X112879641Y-120040939D01*
X112660987Y-120187038D01*
X112475038Y-120372987D01*
X112328939Y-120591641D01*
X112228304Y-120834595D01*
X112177000Y-121092514D01*
X112177000Y-121355486D01*
X112228304Y-121613405D01*
X112328939Y-121856359D01*
X112475038Y-122075013D01*
X112660987Y-122260962D01*
X112879641Y-122407061D01*
X113042118Y-122474361D01*
X112930634Y-122515065D01*
X112829797Y-122568963D01*
X112770336Y-122802731D01*
X113512000Y-123544395D01*
X113526143Y-123530253D01*
X113705748Y-123709858D01*
X113691605Y-123724000D01*
X113705748Y-123738143D01*
X113526143Y-123917748D01*
X113512000Y-123903605D01*
X112770336Y-124645269D01*
X112829797Y-124879037D01*
X113037995Y-124975867D01*
X112930634Y-125015065D01*
X112829797Y-125068963D01*
X112770336Y-125302731D01*
X113512000Y-126044395D01*
X113526143Y-126030253D01*
X113705748Y-126209858D01*
X113691605Y-126224000D01*
X113705748Y-126238143D01*
X113526143Y-126417748D01*
X113512000Y-126403605D01*
X113497858Y-126417748D01*
X113318253Y-126238143D01*
X113332395Y-126224000D01*
X112590731Y-125482336D01*
X112520000Y-125500327D01*
X112520000Y-124447673D01*
X112590731Y-124465664D01*
X113332395Y-123724000D01*
X112590731Y-122982336D01*
X112483358Y-123009647D01*
X112393774Y-122920063D01*
X112224256Y-122806795D01*
X112035898Y-122728774D01*
X111835939Y-122689000D01*
X111632061Y-122689000D01*
X111539001Y-122707511D01*
X111539001Y-121826710D01*
X111547937Y-121817774D01*
X111661205Y-121648256D01*
X111739226Y-121459898D01*
X111779000Y-121259939D01*
X111779000Y-121056061D01*
X111739226Y-120856102D01*
X111661205Y-120667744D01*
X111547937Y-120498226D01*
X111403774Y-120354063D01*
X111234256Y-120240795D01*
X111045898Y-120162774D01*
X110845939Y-120123000D01*
X110642061Y-120123000D01*
X110442102Y-120162774D01*
X110253744Y-120240795D01*
X110084226Y-120354063D01*
X109940063Y-120498226D01*
X109826795Y-120667744D01*
X109776689Y-120788709D01*
X109695061Y-120591641D01*
X109548962Y-120372987D01*
X109363013Y-120187038D01*
X109144359Y-120040939D01*
X108981882Y-119973639D01*
X109093366Y-119932935D01*
X109194203Y-119879037D01*
X109253664Y-119645269D01*
X108512000Y-118903605D01*
X107770336Y-119645269D01*
X107829797Y-119879037D01*
X108037404Y-119975592D01*
X107879641Y-120040939D01*
X107660987Y-120187038D01*
X107475038Y-120372987D01*
X107328939Y-120591641D01*
X107228304Y-120834595D01*
X107177000Y-121092514D01*
X96772000Y-121092514D01*
X96772000Y-118798473D01*
X107172610Y-118798473D01*
X107212875Y-119058344D01*
X107303065Y-119305366D01*
X107356963Y-119406203D01*
X107590731Y-119465664D01*
X108332395Y-118724000D01*
X108691605Y-118724000D01*
X109433269Y-119465664D01*
X109667037Y-119406203D01*
X109777934Y-119167758D01*
X109840183Y-118912260D01*
X109851390Y-118649527D01*
X109811125Y-118389656D01*
X109720935Y-118142634D01*
X109667037Y-118041797D01*
X109433269Y-117982336D01*
X108691605Y-118724000D01*
X108332395Y-118724000D01*
X107590731Y-117982336D01*
X107356963Y-118041797D01*
X107246066Y-118280242D01*
X107183817Y-118535740D01*
X107172610Y-118798473D01*
X96772000Y-118798473D01*
X96772000Y-106092514D01*
X107177000Y-106092514D01*
X107177000Y-106355486D01*
X107228304Y-106613405D01*
X107328939Y-106856359D01*
X107475038Y-107075013D01*
X107660987Y-107260962D01*
X107879641Y-107407061D01*
X108041246Y-107474000D01*
X107879641Y-107540939D01*
X107660987Y-107687038D01*
X107475038Y-107872987D01*
X107328939Y-108091641D01*
X107228304Y-108334595D01*
X107177000Y-108592514D01*
X107177000Y-108855486D01*
X107228304Y-109113405D01*
X107328939Y-109356359D01*
X107475038Y-109575013D01*
X107660987Y-109760962D01*
X107879641Y-109907061D01*
X108041246Y-109974000D01*
X107879641Y-110040939D01*
X107660987Y-110187038D01*
X107475038Y-110372987D01*
X107328939Y-110591641D01*
X107228304Y-110834595D01*
X107177000Y-111092514D01*
X107177000Y-111355486D01*
X107228304Y-111613405D01*
X107328939Y-111856359D01*
X107475038Y-112075013D01*
X107660987Y-112260962D01*
X107879641Y-112407061D01*
X108041246Y-112474000D01*
X107879641Y-112540939D01*
X107660987Y-112687038D01*
X107475038Y-112872987D01*
X107328939Y-113091641D01*
X107228304Y-113334595D01*
X107177000Y-113592514D01*
X107177000Y-113855486D01*
X107228304Y-114113405D01*
X107328939Y-114356359D01*
X107475038Y-114575013D01*
X107660987Y-114760962D01*
X107879641Y-114907061D01*
X108041246Y-114974000D01*
X107879641Y-115040939D01*
X107660987Y-115187038D01*
X107475038Y-115372987D01*
X107328939Y-115591641D01*
X107228304Y-115834595D01*
X107177000Y-116092514D01*
X107177000Y-116355486D01*
X107228304Y-116613405D01*
X107328939Y-116856359D01*
X107475038Y-117075013D01*
X107660987Y-117260962D01*
X107879641Y-117407061D01*
X108042118Y-117474361D01*
X107930634Y-117515065D01*
X107829797Y-117568963D01*
X107770336Y-117802731D01*
X108512000Y-118544395D01*
X109253664Y-117802731D01*
X109194203Y-117568963D01*
X108986596Y-117472408D01*
X109144359Y-117407061D01*
X109363013Y-117260962D01*
X109548962Y-117075013D01*
X109695061Y-116856359D01*
X109795696Y-116613405D01*
X109847000Y-116355486D01*
X109847000Y-116092514D01*
X109795696Y-115834595D01*
X109695061Y-115591641D01*
X109548962Y-115372987D01*
X109363013Y-115187038D01*
X109144359Y-115040939D01*
X108982754Y-114974000D01*
X109144359Y-114907061D01*
X109363013Y-114760962D01*
X109548962Y-114575013D01*
X109695061Y-114356359D01*
X109795696Y-114113405D01*
X109847000Y-113855486D01*
X109847000Y-113592514D01*
X109795696Y-113334595D01*
X109695061Y-113091641D01*
X109548962Y-112872987D01*
X109363013Y-112687038D01*
X109144359Y-112540939D01*
X108982754Y-112474000D01*
X109144359Y-112407061D01*
X109363013Y-112260962D01*
X109548962Y-112075013D01*
X109695061Y-111856359D01*
X109795696Y-111613405D01*
X109847000Y-111355486D01*
X109847000Y-111092514D01*
X109795696Y-110834595D01*
X109695061Y-110591641D01*
X109548962Y-110372987D01*
X109363013Y-110187038D01*
X109144359Y-110040939D01*
X108982754Y-109974000D01*
X109144359Y-109907061D01*
X109363013Y-109760962D01*
X109548962Y-109575013D01*
X109695061Y-109356359D01*
X109795696Y-109113405D01*
X109847000Y-108855486D01*
X109847000Y-108592514D01*
X109795696Y-108334595D01*
X109695061Y-108091641D01*
X109548962Y-107872987D01*
X109363013Y-107687038D01*
X109144359Y-107540939D01*
X108982754Y-107474000D01*
X109144359Y-107407061D01*
X109363013Y-107260962D01*
X109548962Y-107075013D01*
X109695061Y-106856359D01*
X109795696Y-106613405D01*
X109847000Y-106355486D01*
X109847000Y-106092514D01*
X109795696Y-105834595D01*
X109695061Y-105591641D01*
X109548962Y-105372987D01*
X109363013Y-105187038D01*
X109144359Y-105040939D01*
X108901405Y-104940304D01*
X108643486Y-104889000D01*
X108380514Y-104889000D01*
X108122595Y-104940304D01*
X107879641Y-105040939D01*
X107660987Y-105187038D01*
X107475038Y-105372987D01*
X107328939Y-105591641D01*
X107228304Y-105834595D01*
X107177000Y-106092514D01*
X96772000Y-106092514D01*
X96772000Y-99832172D01*
X99572000Y-99832172D01*
X99572000Y-100115828D01*
X99627338Y-100394033D01*
X99735888Y-100656096D01*
X99893479Y-100891947D01*
X100094053Y-101092521D01*
X100329904Y-101250112D01*
X100591967Y-101358662D01*
X100870172Y-101414000D01*
X101153828Y-101414000D01*
X101432033Y-101358662D01*
X101694096Y-101250112D01*
X101929947Y-101092521D01*
X102130521Y-100891947D01*
X102288112Y-100656096D01*
X102396662Y-100394033D01*
X102452000Y-100115828D01*
X102452000Y-99832172D01*
X102396662Y-99553967D01*
X102288112Y-99291904D01*
X102130521Y-99056053D01*
X101929947Y-98855479D01*
X101694096Y-98697888D01*
X101432033Y-98589338D01*
X101153828Y-98534000D01*
X100870172Y-98534000D01*
X100591967Y-98589338D01*
X100329904Y-98697888D01*
X100094053Y-98855479D01*
X99893479Y-99056053D01*
X99735888Y-99291904D01*
X99627338Y-99553967D01*
X99572000Y-99832172D01*
X96772000Y-99832172D01*
X96772000Y-96632172D01*
X97340600Y-96632172D01*
X97340600Y-96915828D01*
X97395938Y-97194033D01*
X97504488Y-97456096D01*
X97662079Y-97691947D01*
X97862653Y-97892521D01*
X98098504Y-98050112D01*
X98360567Y-98158662D01*
X98638772Y-98214000D01*
X98922428Y-98214000D01*
X99200633Y-98158662D01*
X99462696Y-98050112D01*
X99698547Y-97892521D01*
X99899121Y-97691947D01*
X100056712Y-97456096D01*
X100165262Y-97194033D01*
X100220600Y-96915828D01*
X100220600Y-96632172D01*
X100165262Y-96353967D01*
X100056712Y-96091904D01*
X99899121Y-95856053D01*
X99698547Y-95655479D01*
X99462696Y-95497888D01*
X99200633Y-95389338D01*
X98922428Y-95334000D01*
X98638772Y-95334000D01*
X98360567Y-95389338D01*
X98098504Y-95497888D01*
X97862653Y-95655479D01*
X97662079Y-95856053D01*
X97504488Y-96091904D01*
X97395938Y-96353967D01*
X97340600Y-96632172D01*
X96772000Y-96632172D01*
X96772000Y-90431247D01*
X96890525Y-90608632D01*
X97097368Y-90815475D01*
X97340589Y-90977990D01*
X97610842Y-91089932D01*
X97897740Y-91147000D01*
X98190260Y-91147000D01*
X98477158Y-91089932D01*
X98747411Y-90977990D01*
X98990632Y-90815475D01*
X99197475Y-90608632D01*
X99359990Y-90365411D01*
X99471932Y-90095158D01*
X99529000Y-89808260D01*
X99529000Y-89515740D01*
X99471932Y-89228842D01*
X99359990Y-88958589D01*
X99197475Y-88715368D01*
X98990632Y-88508525D01*
X98808466Y-88386805D01*
X98925355Y-88317178D01*
X99141588Y-88122269D01*
X99315641Y-87888920D01*
X99440825Y-87626099D01*
X99485476Y-87478890D01*
X99364155Y-87249000D01*
X98171000Y-87249000D01*
X98171000Y-87269000D01*
X97917000Y-87269000D01*
X97917000Y-87249000D01*
X97897000Y-87249000D01*
X97897000Y-86995000D01*
X97917000Y-86995000D01*
X97917000Y-84709000D01*
X98171000Y-84709000D01*
X98171000Y-86995000D01*
X99364155Y-86995000D01*
X99485476Y-86765110D01*
X99440825Y-86617901D01*
X99315641Y-86355080D01*
X99141588Y-86121731D01*
X98925355Y-85926822D01*
X98799745Y-85852000D01*
X98925355Y-85777178D01*
X99141588Y-85582269D01*
X99315641Y-85348920D01*
X99440825Y-85086099D01*
X99485476Y-84938890D01*
X99364155Y-84709000D01*
X98171000Y-84709000D01*
X97917000Y-84709000D01*
X97897000Y-84709000D01*
X97897000Y-84455000D01*
X97917000Y-84455000D01*
X97917000Y-84435000D01*
X98171000Y-84435000D01*
X98171000Y-84455000D01*
X99364155Y-84455000D01*
X99485476Y-84225110D01*
X99440825Y-84077901D01*
X99315641Y-83815080D01*
X99141588Y-83581731D01*
X99057534Y-83505966D01*
X99138180Y-83481502D01*
X99248494Y-83422537D01*
X99345185Y-83343185D01*
X99424537Y-83246494D01*
X99483502Y-83136180D01*
X99519812Y-83016482D01*
X99532072Y-82892000D01*
X99532072Y-81192000D01*
X99519812Y-81067518D01*
X99483502Y-80947820D01*
X99424537Y-80837506D01*
X99345185Y-80740815D01*
X99248494Y-80661463D01*
X99138180Y-80602498D01*
X99018482Y-80566188D01*
X98894000Y-80553928D01*
X97194000Y-80553928D01*
X97069518Y-80566188D01*
X96949820Y-80602498D01*
X96839506Y-80661463D01*
X96742815Y-80740815D01*
X96663463Y-80837506D01*
X96604498Y-80947820D01*
X96568188Y-81067518D01*
X96558824Y-81162593D01*
X96502256Y-81124795D01*
X96313898Y-81046774D01*
X96113939Y-81007000D01*
X95910061Y-81007000D01*
X95710102Y-81046774D01*
X95521744Y-81124795D01*
X95352226Y-81238063D01*
X95208063Y-81382226D01*
X95094795Y-81551744D01*
X95016774Y-81740102D01*
X94977000Y-81940061D01*
X94977000Y-82143939D01*
X95016774Y-82343898D01*
X95094795Y-82532256D01*
X95208063Y-82701774D01*
X95252000Y-82745711D01*
X95252000Y-88657644D01*
X95097939Y-88627000D01*
X94894061Y-88627000D01*
X94694102Y-88666774D01*
X94505744Y-88744795D01*
X94336226Y-88858063D01*
X94192063Y-89002226D01*
X94078795Y-89171744D01*
X94000774Y-89360102D01*
X93961000Y-89560061D01*
X92100000Y-89560061D01*
X92100000Y-77622000D01*
X136754001Y-77622000D01*
X136754001Y-83758118D01*
G37*
%TD.AperFunction*%
D20*
X113705748Y-113709858D02*
X113691605Y-113724000D01*
X113705748Y-113738143D01*
X113526143Y-113917748D01*
X113512000Y-113903605D01*
X113497858Y-113917748D01*
X113318253Y-113738143D01*
X113332395Y-113724000D01*
X113318253Y-113709858D01*
X113497858Y-113530253D01*
X113512000Y-113544395D01*
X113526143Y-113530253D01*
X113705748Y-113709858D01*
%TA.AperFunction,Conductor*%
D21*
G36*
X113705748Y-113709858D02*
G01*
X113691605Y-113724000D01*
X113705748Y-113738143D01*
X113526143Y-113917748D01*
X113512000Y-113903605D01*
X113497858Y-113917748D01*
X113318253Y-113738143D01*
X113332395Y-113724000D01*
X113318253Y-113709858D01*
X113497858Y-113530253D01*
X113512000Y-113544395D01*
X113526143Y-113530253D01*
X113705748Y-113709858D01*
G37*
%TD.AperFunction*%
D20*
X113705748Y-111209858D02*
X113691605Y-111224000D01*
X113705748Y-111238143D01*
X113526143Y-111417748D01*
X113512000Y-111403605D01*
X113497858Y-111417748D01*
X113318253Y-111238143D01*
X113332395Y-111224000D01*
X113318253Y-111209858D01*
X113497858Y-111030253D01*
X113512000Y-111044395D01*
X113526143Y-111030253D01*
X113705748Y-111209858D01*
%TA.AperFunction,Conductor*%
D21*
G36*
X113705748Y-111209858D02*
G01*
X113691605Y-111224000D01*
X113705748Y-111238143D01*
X113526143Y-111417748D01*
X113512000Y-111403605D01*
X113497858Y-111417748D01*
X113318253Y-111238143D01*
X113332395Y-111224000D01*
X113318253Y-111209858D01*
X113497858Y-111030253D01*
X113512000Y-111044395D01*
X113526143Y-111030253D01*
X113705748Y-111209858D01*
G37*
%TD.AperFunction*%
D20*
X113705748Y-108709858D02*
X113691605Y-108724000D01*
X113705748Y-108738143D01*
X113526143Y-108917748D01*
X113512000Y-108903605D01*
X113497858Y-108917748D01*
X113318253Y-108738143D01*
X113332395Y-108724000D01*
X113318253Y-108709858D01*
X113497858Y-108530253D01*
X113512000Y-108544395D01*
X113526143Y-108530253D01*
X113705748Y-108709858D01*
%TA.AperFunction,Conductor*%
D21*
G36*
X113705748Y-108709858D02*
G01*
X113691605Y-108724000D01*
X113705748Y-108738143D01*
X113526143Y-108917748D01*
X113512000Y-108903605D01*
X113497858Y-108917748D01*
X113318253Y-108738143D01*
X113332395Y-108724000D01*
X113318253Y-108709858D01*
X113497858Y-108530253D01*
X113512000Y-108544395D01*
X113526143Y-108530253D01*
X113705748Y-108709858D01*
G37*
%TD.AperFunction*%
%TD*%
M02*
