%TF.GenerationSoftware,KiCad,Pcbnew,(5.1.10)-1*%
%TF.CreationDate,2024-05-08T08:20:22+02:00*%
%TF.ProjectId,KC85-FDD_IN,4b433835-2d46-4444-945f-494e2e6b6963,rev?*%
%TF.SameCoordinates,Original*%
%TF.FileFunction,Legend,Top*%
%TF.FilePolarity,Positive*%
%FSLAX46Y46*%
G04 Gerber Fmt 4.6, Leading zero omitted, Abs format (unit mm)*
G04 Created by KiCad (PCBNEW (5.1.10)-1) date 2024-05-08 08:20:22*
%MOMM*%
%LPD*%
G01*
G04 APERTURE LIST*
%ADD10C,0.120000*%
%ADD11C,0.200000*%
%ADD12C,0.100000*%
%ADD13C,0.250000*%
%ADD14C,0.150000*%
G04 APERTURE END LIST*
D10*
%TO.C,U1*%
X111446000Y-90206000D02*
X111446000Y-91456000D01*
X129346000Y-90206000D02*
X111446000Y-90206000D01*
X129346000Y-94706000D02*
X129346000Y-90206000D01*
X111446000Y-94706000D02*
X129346000Y-94706000D01*
X111446000Y-93456000D02*
X111446000Y-94706000D01*
X111446000Y-91456000D02*
G75*
G02*
X111446000Y-93456000I0J-1000000D01*
G01*
%TO.C,R2*%
X121642000Y-81026000D02*
X120872000Y-81026000D01*
X113562000Y-81026000D02*
X114332000Y-81026000D01*
X120872000Y-79656000D02*
X114332000Y-79656000D01*
X120872000Y-82396000D02*
X120872000Y-79656000D01*
X114332000Y-82396000D02*
X120872000Y-82396000D01*
X114332000Y-79656000D02*
X114332000Y-82396000D01*
%TO.C,R1*%
X121642000Y-84582000D02*
X120872000Y-84582000D01*
X113562000Y-84582000D02*
X114332000Y-84582000D01*
X120872000Y-83212000D02*
X114332000Y-83212000D01*
X120872000Y-85952000D02*
X120872000Y-83212000D01*
X114332000Y-85952000D02*
X120872000Y-85952000D01*
X114332000Y-83212000D02*
X114332000Y-85952000D01*
%TO.C,J7*%
X126686000Y-81594000D02*
X126686000Y-80264000D01*
X128016000Y-81594000D02*
X126686000Y-81594000D01*
X129286000Y-81594000D02*
X129286000Y-78934000D01*
X129286000Y-78934000D02*
X134426000Y-78934000D01*
X129286000Y-81594000D02*
X134426000Y-81594000D01*
X134426000Y-81594000D02*
X134426000Y-78934000D01*
%TO.C,J6*%
X126686000Y-85912000D02*
X126686000Y-84582000D01*
X128016000Y-85912000D02*
X126686000Y-85912000D01*
X129286000Y-85912000D02*
X129286000Y-83252000D01*
X129286000Y-83252000D02*
X134426000Y-83252000D01*
X129286000Y-85912000D02*
X134426000Y-85912000D01*
X134426000Y-85912000D02*
X134426000Y-83252000D01*
%TO.C,J5*%
X104334000Y-151190000D02*
X104334000Y-149860000D01*
X105664000Y-151190000D02*
X104334000Y-151190000D01*
X106934000Y-151190000D02*
X106934000Y-148530000D01*
X106934000Y-148530000D02*
X114614000Y-148530000D01*
X106934000Y-151190000D02*
X114614000Y-151190000D01*
X114614000Y-151190000D02*
X114614000Y-148530000D01*
%TO.C,J4*%
X130422000Y-101596000D02*
X131752000Y-101596000D01*
X130422000Y-102926000D02*
X130422000Y-101596000D01*
X133022000Y-101596000D02*
X135622000Y-101596000D01*
X133022000Y-104196000D02*
X133022000Y-101596000D01*
X130422000Y-104196000D02*
X133022000Y-104196000D01*
X135622000Y-101596000D02*
X135622000Y-144896000D01*
X130422000Y-104196000D02*
X130422000Y-144896000D01*
X130422000Y-144896000D02*
X135622000Y-144896000D01*
%TO.C,J2*%
X96714000Y-80712000D02*
X98044000Y-80712000D01*
X96714000Y-82042000D02*
X96714000Y-80712000D01*
X96714000Y-83312000D02*
X99374000Y-83312000D01*
X99374000Y-83312000D02*
X99374000Y-90992000D01*
X96714000Y-83312000D02*
X96714000Y-90992000D01*
X96714000Y-90992000D02*
X99374000Y-90992000D01*
%TO.C,C1*%
X130263000Y-96596000D02*
X130198000Y-96596000D01*
X132438000Y-96596000D02*
X132373000Y-96596000D01*
X130263000Y-93356000D02*
X130198000Y-93356000D01*
X132438000Y-93356000D02*
X132373000Y-93356000D01*
X130198000Y-93356000D02*
X130198000Y-96596000D01*
X132438000Y-93356000D02*
X132438000Y-96596000D01*
%TO.C,J1*%
X92202000Y-141224000D02*
X91567000Y-141224000D01*
X96012000Y-141224000D02*
X92202000Y-141224000D01*
X96012000Y-141859000D02*
X96012000Y-141224000D01*
X96012000Y-145034000D02*
X96012000Y-141859000D01*
X91567000Y-141224000D02*
X96012000Y-141224000D01*
D11*
X101092000Y-148209000D02*
X101092000Y-94234000D01*
X88392000Y-99314000D02*
X88392000Y-145034000D01*
X88392000Y-145034000D02*
X96012000Y-145034000D01*
X96012000Y-145034000D02*
X96012000Y-148209000D01*
X96012000Y-148209000D02*
X101092000Y-148209000D01*
X96012000Y-94234000D02*
X96012000Y-99314000D01*
X96012000Y-99314000D02*
X88392000Y-99314000D01*
X101092000Y-94234000D02*
X96012000Y-94234000D01*
D12*
X100267900Y-96786700D02*
G75*
G03*
X100267900Y-96786700I-1500000J0D01*
G01*
X98767900Y-94881700D02*
X98767900Y-98691700D01*
X100672900Y-96786700D02*
X96862900Y-96786700D01*
X98780600Y-143764000D02*
X98780600Y-147574000D01*
X100685600Y-145669000D02*
X96875600Y-145669000D01*
X100280600Y-145669000D02*
G75*
G03*
X100280600Y-145669000I-1500000J0D01*
G01*
D11*
X98512000Y-97224000D02*
X98512000Y-145034000D01*
X98512000Y-97224000D02*
X106512000Y-97224000D01*
X106512000Y-97224000D02*
X106512000Y-145034000D01*
X106512000Y-145034000D02*
X98512000Y-145034000D01*
X91567000Y-141224000D02*
X91512000Y-102224000D01*
X91512000Y-102224000D02*
X98512000Y-102224000D01*
D12*
X102512000Y-99974000D02*
G75*
G03*
X102512000Y-99974000I-1500000J0D01*
G01*
X103012000Y-99974000D02*
X99012000Y-99974000D01*
X101012000Y-97974000D02*
X101012000Y-101974000D01*
X102512000Y-141834000D02*
G75*
G03*
X102512000Y-141834000I-1500000J0D01*
G01*
X103012000Y-141834000D02*
X99012000Y-141834000D01*
X101012000Y-140469000D02*
X101012000Y-144469000D01*
D13*
X97512000Y-141224000D02*
X94512000Y-141224000D01*
X96012000Y-139724000D02*
X96012000Y-142724000D01*
D10*
%TO.C,J3*%
X121097000Y-144975001D02*
X126297000Y-144975001D01*
X121097000Y-104275001D02*
X121097000Y-144975001D01*
X126297000Y-101675001D02*
X126297000Y-144975001D01*
X121097000Y-104275001D02*
X123697000Y-104275001D01*
X123697000Y-104275001D02*
X123697000Y-101675001D01*
X123697000Y-101675001D02*
X126297000Y-101675001D01*
X121097000Y-103005001D02*
X121097000Y-101675001D01*
X121097000Y-101675001D02*
X122427000Y-101675001D01*
%TO.C,U1*%
D14*
X109898380Y-93217904D02*
X110707904Y-93217904D01*
X110803142Y-93170285D01*
X110850761Y-93122666D01*
X110898380Y-93027428D01*
X110898380Y-92836952D01*
X110850761Y-92741714D01*
X110803142Y-92694095D01*
X110707904Y-92646476D01*
X109898380Y-92646476D01*
X110898380Y-91646476D02*
X110898380Y-92217904D01*
X110898380Y-91932190D02*
X109898380Y-91932190D01*
X110041238Y-92027428D01*
X110136476Y-92122666D01*
X110184095Y-92217904D01*
%TO.C,R2*%
X117435333Y-79108380D02*
X117102000Y-78632190D01*
X116863904Y-79108380D02*
X116863904Y-78108380D01*
X117244857Y-78108380D01*
X117340095Y-78156000D01*
X117387714Y-78203619D01*
X117435333Y-78298857D01*
X117435333Y-78441714D01*
X117387714Y-78536952D01*
X117340095Y-78584571D01*
X117244857Y-78632190D01*
X116863904Y-78632190D01*
X117816285Y-78203619D02*
X117863904Y-78156000D01*
X117959142Y-78108380D01*
X118197238Y-78108380D01*
X118292476Y-78156000D01*
X118340095Y-78203619D01*
X118387714Y-78298857D01*
X118387714Y-78394095D01*
X118340095Y-78536952D01*
X117768666Y-79108380D01*
X118387714Y-79108380D01*
%TO.C,R1*%
X117435333Y-82664380D02*
X117102000Y-82188190D01*
X116863904Y-82664380D02*
X116863904Y-81664380D01*
X117244857Y-81664380D01*
X117340095Y-81712000D01*
X117387714Y-81759619D01*
X117435333Y-81854857D01*
X117435333Y-81997714D01*
X117387714Y-82092952D01*
X117340095Y-82140571D01*
X117244857Y-82188190D01*
X116863904Y-82188190D01*
X118387714Y-82664380D02*
X117816285Y-82664380D01*
X118102000Y-82664380D02*
X118102000Y-81664380D01*
X118006761Y-81807238D01*
X117911523Y-81902476D01*
X117816285Y-81950095D01*
%TO.C,J7*%
X125138380Y-80597333D02*
X125852666Y-80597333D01*
X125995523Y-80644952D01*
X126090761Y-80740190D01*
X126138380Y-80883047D01*
X126138380Y-80978285D01*
X125138380Y-80216380D02*
X125138380Y-79549714D01*
X126138380Y-79978285D01*
%TO.C,J6*%
X125138380Y-84915333D02*
X125852666Y-84915333D01*
X125995523Y-84962952D01*
X126090761Y-85058190D01*
X126138380Y-85201047D01*
X126138380Y-85296285D01*
X125138380Y-84010571D02*
X125138380Y-84201047D01*
X125186000Y-84296285D01*
X125233619Y-84343904D01*
X125376476Y-84439142D01*
X125566952Y-84486761D01*
X125947904Y-84486761D01*
X126043142Y-84439142D01*
X126090761Y-84391523D01*
X126138380Y-84296285D01*
X126138380Y-84105809D01*
X126090761Y-84010571D01*
X126043142Y-83962952D01*
X125947904Y-83915333D01*
X125709809Y-83915333D01*
X125614571Y-83962952D01*
X125566952Y-84010571D01*
X125519333Y-84105809D01*
X125519333Y-84296285D01*
X125566952Y-84391523D01*
X125614571Y-84439142D01*
X125709809Y-84486761D01*
%TO.C,J5*%
X102786380Y-150193333D02*
X103500666Y-150193333D01*
X103643523Y-150240952D01*
X103738761Y-150336190D01*
X103786380Y-150479047D01*
X103786380Y-150574285D01*
X102786380Y-149240952D02*
X102786380Y-149717142D01*
X103262571Y-149764761D01*
X103214952Y-149717142D01*
X103167333Y-149621904D01*
X103167333Y-149383809D01*
X103214952Y-149288571D01*
X103262571Y-149240952D01*
X103357809Y-149193333D01*
X103595904Y-149193333D01*
X103691142Y-149240952D01*
X103738761Y-149288571D01*
X103786380Y-149383809D01*
X103786380Y-149621904D01*
X103738761Y-149717142D01*
X103691142Y-149764761D01*
%TO.C,J4*%
X132688666Y-100048380D02*
X132688666Y-100762666D01*
X132641047Y-100905523D01*
X132545809Y-101000761D01*
X132402952Y-101048380D01*
X132307714Y-101048380D01*
X133593428Y-100381714D02*
X133593428Y-101048380D01*
X133355333Y-100000761D02*
X133117238Y-100715047D01*
X133736285Y-100715047D01*
%TO.C,J2*%
X97710666Y-79164380D02*
X97710666Y-79878666D01*
X97663047Y-80021523D01*
X97567809Y-80116761D01*
X97424952Y-80164380D01*
X97329714Y-80164380D01*
X98139238Y-79259619D02*
X98186857Y-79212000D01*
X98282095Y-79164380D01*
X98520190Y-79164380D01*
X98615428Y-79212000D01*
X98663047Y-79259619D01*
X98710666Y-79354857D01*
X98710666Y-79450095D01*
X98663047Y-79592952D01*
X98091619Y-80164380D01*
X98710666Y-80164380D01*
%TO.C,C1*%
X133925142Y-95142666D02*
X133972761Y-95190285D01*
X134020380Y-95333142D01*
X134020380Y-95428380D01*
X133972761Y-95571238D01*
X133877523Y-95666476D01*
X133782285Y-95714095D01*
X133591809Y-95761714D01*
X133448952Y-95761714D01*
X133258476Y-95714095D01*
X133163238Y-95666476D01*
X133068000Y-95571238D01*
X133020380Y-95428380D01*
X133020380Y-95333142D01*
X133068000Y-95190285D01*
X133115619Y-95142666D01*
X134020380Y-94190285D02*
X134020380Y-94761714D01*
X134020380Y-94476000D02*
X133020380Y-94476000D01*
X133163238Y-94571238D01*
X133258476Y-94666476D01*
X133306095Y-94761714D01*
%TO.C,J1*%
X96464380Y-143911976D02*
X97178666Y-143911976D01*
X97321523Y-143959595D01*
X97416761Y-144054833D01*
X97464380Y-144197690D01*
X97464380Y-144292928D01*
X97464380Y-142911976D02*
X97464380Y-143483404D01*
X97464380Y-143197690D02*
X96464380Y-143197690D01*
X96607238Y-143292928D01*
X96702476Y-143388166D01*
X96750095Y-143483404D01*
%TO.C,J3*%
X123363666Y-100127381D02*
X123363666Y-100841667D01*
X123316047Y-100984524D01*
X123220809Y-101079762D01*
X123077952Y-101127381D01*
X122982714Y-101127381D01*
X123744619Y-100127381D02*
X124363666Y-100127381D01*
X124030333Y-100508334D01*
X124173190Y-100508334D01*
X124268428Y-100555953D01*
X124316047Y-100603572D01*
X124363666Y-100698810D01*
X124363666Y-100936905D01*
X124316047Y-101032143D01*
X124268428Y-101079762D01*
X124173190Y-101127381D01*
X123887476Y-101127381D01*
X123792238Y-101079762D01*
X123744619Y-101032143D01*
%TD*%
M02*
