%TF.GenerationSoftware,KiCad,Pcbnew,(5.1.10)-1*%
%TF.CreationDate,2024-05-08T08:20:22+02:00*%
%TF.ProjectId,KC85-FDD_IN,4b433835-2d46-4444-945f-494e2e6b6963,rev?*%
%TF.SameCoordinates,Original*%
%TF.FileFunction,Other,User*%
%FSLAX46Y46*%
G04 Gerber Fmt 4.6, Leading zero omitted, Abs format (unit mm)*
G04 Created by KiCad (PCBNEW (5.1.10)-1) date 2024-05-08 08:20:22*
%MOMM*%
%LPD*%
G01*
G04 APERTURE LIST*
%ADD10C,0.050000*%
G04 APERTURE END LIST*
D10*
%TO.C,U1*%
X111226000Y-87166000D02*
X111226000Y-97716000D01*
X129576000Y-87166000D02*
X111226000Y-87166000D01*
X129576000Y-97716000D02*
X129576000Y-87166000D01*
X111226000Y-97716000D02*
X129576000Y-97716000D01*
%TO.C,R2*%
X123732000Y-79526000D02*
X111472000Y-79526000D01*
X123732000Y-82526000D02*
X123732000Y-79526000D01*
X111472000Y-82526000D02*
X123732000Y-82526000D01*
X111472000Y-79526000D02*
X111472000Y-82526000D01*
%TO.C,R1*%
X123732000Y-83082000D02*
X111472000Y-83082000D01*
X123732000Y-86082000D02*
X123732000Y-83082000D01*
X111472000Y-86082000D02*
X123732000Y-86082000D01*
X111472000Y-83082000D02*
X111472000Y-86082000D01*
%TO.C,J7*%
X126216000Y-78464000D02*
X126216000Y-82064000D01*
X134866000Y-78464000D02*
X126216000Y-78464000D01*
X134866000Y-82064000D02*
X134866000Y-78464000D01*
X126216000Y-82064000D02*
X134866000Y-82064000D01*
%TO.C,J6*%
X126216000Y-82782000D02*
X126216000Y-86382000D01*
X134866000Y-82782000D02*
X126216000Y-82782000D01*
X134866000Y-86382000D02*
X134866000Y-82782000D01*
X126216000Y-86382000D02*
X134866000Y-86382000D01*
%TO.C,J5*%
X103864000Y-148060000D02*
X103864000Y-151660000D01*
X115064000Y-148060000D02*
X103864000Y-148060000D01*
X115064000Y-151660000D02*
X115064000Y-148060000D01*
X103864000Y-151660000D02*
X115064000Y-151660000D01*
%TO.C,J4*%
X136102000Y-101126000D02*
X129952000Y-101126000D01*
X136102000Y-145376000D02*
X136102000Y-101126000D01*
X129952000Y-145376000D02*
X136102000Y-145376000D01*
X129952000Y-101126000D02*
X129952000Y-145376000D01*
%TO.C,J2*%
X99844000Y-80242000D02*
X96244000Y-80242000D01*
X99844000Y-91442000D02*
X99844000Y-80242000D01*
X96244000Y-91442000D02*
X99844000Y-91442000D01*
X96244000Y-80242000D02*
X96244000Y-91442000D01*
%TO.C,C1*%
X132568000Y-97276000D02*
X132568000Y-92676000D01*
X130068000Y-97276000D02*
X132568000Y-97276000D01*
X130068000Y-92676000D02*
X130068000Y-97276000D01*
X132568000Y-92676000D02*
X130068000Y-92676000D01*
%TO.C,J3*%
X120627000Y-101205001D02*
X120627000Y-145455001D01*
X120627000Y-145455001D02*
X126777000Y-145455001D01*
X126777000Y-145455001D02*
X126777000Y-101205001D01*
X126777000Y-101205001D02*
X120627000Y-101205001D01*
%TD*%
M02*
