%FSLAX45Y45*%
G04 Gerber Fmt 4.5, Leading zero omitted, Abs format (unit mm)*
G04 Created by KiCad (PCBNEW (5.1.10)-1) date 2024-05-08 08:20:09*
%MOMM*%
%LPD*%
G01*
G04 APERTURE LIST*
%TA.AperFunction,Profile*%
%ADD10C,0.050000*%
%TD*%
%ADD11C,0.200000*%
%ADD12C,0.300000*%
G04 APERTURE END LIST*
D10*
X9144000Y-7696200D02*
X9144000Y-15494000D01*
X13741400Y-7696200D02*
X9144000Y-7696200D01*
X13741400Y-15494000D02*
X13741400Y-7696200D01*
X9144000Y-15494000D02*
X13741400Y-15494000D01*
D11*
X9479600Y-8946200D02*
X9519600Y-8986200D01*
X9519600Y-8946200D02*
X9479600Y-8986200D01*
X9479600Y-14686600D02*
X9519600Y-14726600D01*
X9519600Y-14686600D02*
X9479600Y-14726600D01*
X9581200Y-8184200D02*
X9621200Y-8224200D01*
X9621200Y-8184200D02*
X9581200Y-8224200D01*
X9581200Y-14966000D02*
X9621200Y-15006000D01*
X9621200Y-14966000D02*
X9581200Y-15006000D01*
X10902000Y-8692200D02*
X10942000Y-8732200D01*
X10942000Y-8692200D02*
X10902000Y-8732200D01*
X10902100Y-10063900D02*
X10942100Y-10103900D01*
X10942100Y-10063900D02*
X10902100Y-10103900D01*
X11046400Y-13602400D02*
X11086400Y-13642400D01*
X11086400Y-13602400D02*
X11046400Y-13642400D01*
X11053000Y-12602400D02*
X11093000Y-12642400D01*
X11093000Y-12602400D02*
X11053000Y-12642400D01*
X11054400Y-12095800D02*
X11094400Y-12135800D01*
X11094400Y-12095800D02*
X11054400Y-12135800D01*
X11054400Y-12984800D02*
X11094400Y-13024800D01*
X11094400Y-12984800D02*
X11054400Y-13024800D01*
X11054400Y-14407200D02*
X11094400Y-14447200D01*
X11094400Y-14407200D02*
X11054400Y-14447200D01*
X11056800Y-14227000D02*
X11096800Y-14267000D01*
X11096800Y-14227000D02*
X11056800Y-14267000D01*
X11057900Y-12454900D02*
X11097900Y-12494900D01*
X11097900Y-12454900D02*
X11057900Y-12494900D01*
X11153400Y-12352400D02*
X11193400Y-12392400D01*
X11193400Y-12352400D02*
X11153400Y-12392400D01*
X11156000Y-12730800D02*
X11196000Y-12770800D01*
X11196000Y-12730800D02*
X11156000Y-12770800D01*
X11156000Y-13797600D02*
X11196000Y-13837600D01*
X11196000Y-13797600D02*
X11156000Y-13837600D01*
X11169400Y-13352400D02*
X11209400Y-13392400D01*
X11209400Y-13352400D02*
X11169400Y-13392400D01*
X11181400Y-12857800D02*
X11221400Y-12897800D01*
X11221400Y-12857800D02*
X11181400Y-12897800D01*
X11181400Y-13188000D02*
X11221400Y-13228000D01*
X11221400Y-13188000D02*
X11181400Y-13228000D01*
X11257600Y-9276400D02*
X11297600Y-9316400D01*
X11297600Y-9276400D02*
X11257600Y-9316400D01*
X11336200Y-13973000D02*
X11376200Y-14013000D01*
X11376200Y-13973000D02*
X11336200Y-14013000D01*
X11359200Y-9251000D02*
X11399200Y-9291000D01*
X11399200Y-9251000D02*
X11359200Y-9291000D01*
X11433700Y-14713700D02*
X11473700Y-14753700D01*
X11473700Y-14713700D02*
X11433700Y-14753700D01*
X11553000Y-13102400D02*
X11593000Y-13142400D01*
X11593000Y-13102400D02*
X11553000Y-13142400D01*
X11562400Y-13467400D02*
X11602400Y-13507400D01*
X11602400Y-13467400D02*
X11562400Y-13507400D01*
X11575100Y-11194100D02*
X11615100Y-11234100D01*
X11615100Y-11194100D02*
X11575100Y-11234100D01*
X11777300Y-11499900D02*
X11817300Y-11539900D01*
X11817300Y-11499900D02*
X11777300Y-11539900D01*
X11791000Y-11918000D02*
X11831000Y-11958000D01*
X11831000Y-11918000D02*
X11791000Y-11958000D01*
X12222700Y-10063900D02*
X12262700Y-10103900D01*
X12262700Y-10063900D02*
X12222700Y-10103900D01*
X12781600Y-10063800D02*
X12821600Y-10103800D01*
X12821600Y-10063800D02*
X12781600Y-10103800D01*
X12959400Y-14356400D02*
X12999400Y-14396400D01*
X12999400Y-14356400D02*
X12959400Y-14396400D01*
X13111800Y-9251000D02*
X13151800Y-9291000D01*
X13151800Y-9251000D02*
X13111800Y-9291000D01*
X13155200Y-10071200D02*
X13195200Y-10111200D01*
X13195200Y-10071200D02*
X13155200Y-10111200D01*
X13569000Y-8412800D02*
X13609000Y-8452800D01*
X13609000Y-8412800D02*
X13569000Y-8452800D01*
X10891200Y-10622400D02*
G75*
G03*
X10891200Y-10622400I-40000J0D01*
G01*
X10891200Y-10872400D02*
G75*
G03*
X10891200Y-10872400I-40000J0D01*
G01*
X10891200Y-11122400D02*
G75*
G03*
X10891200Y-11122400I-40000J0D01*
G01*
X10891200Y-11372400D02*
G75*
G03*
X10891200Y-11372400I-40000J0D01*
G01*
X10891200Y-11622400D02*
G75*
G03*
X10891200Y-11622400I-40000J0D01*
G01*
X10891200Y-11872400D02*
G75*
G03*
X10891200Y-11872400I-40000J0D01*
G01*
X10891200Y-12122400D02*
G75*
G03*
X10891200Y-12122400I-40000J0D01*
G01*
X10891200Y-12372400D02*
G75*
G03*
X10891200Y-12372400I-40000J0D01*
G01*
X10891200Y-12622400D02*
G75*
G03*
X10891200Y-12622400I-40000J0D01*
G01*
X10891200Y-12872400D02*
G75*
G03*
X10891200Y-12872400I-40000J0D01*
G01*
X10891200Y-13122400D02*
G75*
G03*
X10891200Y-13122400I-40000J0D01*
G01*
X10891200Y-13372400D02*
G75*
G03*
X10891200Y-13372400I-40000J0D01*
G01*
X10891200Y-13622400D02*
G75*
G03*
X10891200Y-13622400I-40000J0D01*
G01*
X11292200Y-8102600D02*
G75*
G03*
X11292200Y-8102600I-40000J0D01*
G01*
X11292200Y-8458200D02*
G75*
G03*
X11292200Y-8458200I-40000J0D01*
G01*
X11317600Y-8864600D02*
G75*
G03*
X11317600Y-8864600I-40000J0D01*
G01*
X11317600Y-9626600D02*
G75*
G03*
X11317600Y-9626600I-40000J0D01*
G01*
X11391200Y-10622400D02*
G75*
G03*
X11391200Y-10622400I-40000J0D01*
G01*
X11391200Y-10872400D02*
G75*
G03*
X11391200Y-10872400I-40000J0D01*
G01*
X11391200Y-11122400D02*
G75*
G03*
X11391200Y-11122400I-40000J0D01*
G01*
X11391200Y-11372400D02*
G75*
G03*
X11391200Y-11372400I-40000J0D01*
G01*
X11391200Y-11622400D02*
G75*
G03*
X11391200Y-11622400I-40000J0D01*
G01*
X11391200Y-11872400D02*
G75*
G03*
X11391200Y-11872400I-40000J0D01*
G01*
X11391200Y-12122400D02*
G75*
G03*
X11391200Y-12122400I-40000J0D01*
G01*
X11391200Y-12372400D02*
G75*
G03*
X11391200Y-12372400I-40000J0D01*
G01*
X11391200Y-12622400D02*
G75*
G03*
X11391200Y-12622400I-40000J0D01*
G01*
X11391200Y-12872400D02*
G75*
G03*
X11391200Y-12872400I-40000J0D01*
G01*
X11391200Y-13122400D02*
G75*
G03*
X11391200Y-13122400I-40000J0D01*
G01*
X11391200Y-13372400D02*
G75*
G03*
X11391200Y-13372400I-40000J0D01*
G01*
X11391200Y-13622400D02*
G75*
G03*
X11391200Y-13622400I-40000J0D01*
G01*
X11571600Y-8864600D02*
G75*
G03*
X11571600Y-8864600I-40000J0D01*
G01*
X11571600Y-9626600D02*
G75*
G03*
X11571600Y-9626600I-40000J0D01*
G01*
X11825600Y-8864600D02*
G75*
G03*
X11825600Y-8864600I-40000J0D01*
G01*
X11825600Y-9626600D02*
G75*
G03*
X11825600Y-9626600I-40000J0D01*
G01*
X12079600Y-8864600D02*
G75*
G03*
X12079600Y-8864600I-40000J0D01*
G01*
X12079600Y-9626600D02*
G75*
G03*
X12079600Y-9626600I-40000J0D01*
G01*
X12308200Y-8102600D02*
G75*
G03*
X12308200Y-8102600I-40000J0D01*
G01*
X12308200Y-8458200D02*
G75*
G03*
X12308200Y-8458200I-40000J0D01*
G01*
X12333600Y-8864600D02*
G75*
G03*
X12333600Y-8864600I-40000J0D01*
G01*
X12333600Y-9626600D02*
G75*
G03*
X12333600Y-9626600I-40000J0D01*
G01*
X12587600Y-8864600D02*
G75*
G03*
X12587600Y-8864600I-40000J0D01*
G01*
X12587600Y-9626600D02*
G75*
G03*
X12587600Y-9626600I-40000J0D01*
G01*
X12841600Y-8864600D02*
G75*
G03*
X12841600Y-8864600I-40000J0D01*
G01*
X12841600Y-9626600D02*
G75*
G03*
X12841600Y-9626600I-40000J0D01*
G01*
X13171800Y-9372600D02*
G75*
G03*
X13171800Y-9372600I-40000J0D01*
G01*
X13171800Y-9622600D02*
G75*
G03*
X13171800Y-9622600I-40000J0D01*
G01*
X9804400Y-8154200D02*
X9804400Y-8254200D01*
X9754400Y-8204200D02*
X9854400Y-8204200D01*
X9804400Y-8408200D02*
X9804400Y-8508200D01*
X9754400Y-8458200D02*
X9854400Y-8458200D01*
X9804400Y-8662200D02*
X9804400Y-8762200D01*
X9754400Y-8712200D02*
X9854400Y-8712200D01*
X9804400Y-8916200D02*
X9804400Y-9016200D01*
X9754400Y-8966200D02*
X9854400Y-8966200D01*
X10566400Y-14936000D02*
X10566400Y-15036000D01*
X10516400Y-14986000D02*
X10616400Y-14986000D01*
X10820400Y-14936000D02*
X10820400Y-15036000D01*
X10770400Y-14986000D02*
X10870400Y-14986000D01*
X11074400Y-14936000D02*
X11074400Y-15036000D01*
X11024400Y-14986000D02*
X11124400Y-14986000D01*
X11328400Y-14936000D02*
X11328400Y-15036000D01*
X11278400Y-14986000D02*
X11378400Y-14986000D01*
X12242700Y-10250500D02*
X12242700Y-10350500D01*
X12192700Y-10300500D02*
X12292700Y-10300500D01*
X12242700Y-10504500D02*
X12242700Y-10604500D01*
X12192700Y-10554500D02*
X12292700Y-10554500D01*
X12242700Y-10758500D02*
X12242700Y-10858500D01*
X12192700Y-10808500D02*
X12292700Y-10808500D01*
X12242700Y-11012500D02*
X12242700Y-11112500D01*
X12192700Y-11062500D02*
X12292700Y-11062500D01*
X12242700Y-11266500D02*
X12242700Y-11366500D01*
X12192700Y-11316500D02*
X12292700Y-11316500D01*
X12242700Y-11520500D02*
X12242700Y-11620500D01*
X12192700Y-11570500D02*
X12292700Y-11570500D01*
X12242700Y-11774500D02*
X12242700Y-11874500D01*
X12192700Y-11824500D02*
X12292700Y-11824500D01*
X12242700Y-12028500D02*
X12242700Y-12128500D01*
X12192700Y-12078500D02*
X12292700Y-12078500D01*
X12242700Y-12282500D02*
X12242700Y-12382500D01*
X12192700Y-12332500D02*
X12292700Y-12332500D01*
X12242700Y-12536500D02*
X12242700Y-12636500D01*
X12192700Y-12586500D02*
X12292700Y-12586500D01*
X12242700Y-12790500D02*
X12242700Y-12890500D01*
X12192700Y-12840500D02*
X12292700Y-12840500D01*
X12242700Y-13044500D02*
X12242700Y-13144500D01*
X12192700Y-13094500D02*
X12292700Y-13094500D01*
X12242700Y-13298500D02*
X12242700Y-13398500D01*
X12192700Y-13348500D02*
X12292700Y-13348500D01*
X12242700Y-13552500D02*
X12242700Y-13652500D01*
X12192700Y-13602500D02*
X12292700Y-13602500D01*
X12242700Y-13806500D02*
X12242700Y-13906500D01*
X12192700Y-13856500D02*
X12292700Y-13856500D01*
X12242700Y-14060500D02*
X12242700Y-14160500D01*
X12192700Y-14110500D02*
X12292700Y-14110500D01*
X12242700Y-14314500D02*
X12242700Y-14414500D01*
X12192700Y-14364500D02*
X12292700Y-14364500D01*
X12496700Y-10250500D02*
X12496700Y-10350500D01*
X12446700Y-10300500D02*
X12546700Y-10300500D01*
X12496700Y-10504500D02*
X12496700Y-10604500D01*
X12446700Y-10554500D02*
X12546700Y-10554500D01*
X12496700Y-10758500D02*
X12496700Y-10858500D01*
X12446700Y-10808500D02*
X12546700Y-10808500D01*
X12496700Y-11012500D02*
X12496700Y-11112500D01*
X12446700Y-11062500D02*
X12546700Y-11062500D01*
X12496700Y-11266500D02*
X12496700Y-11366500D01*
X12446700Y-11316500D02*
X12546700Y-11316500D01*
X12496700Y-11520500D02*
X12496700Y-11620500D01*
X12446700Y-11570500D02*
X12546700Y-11570500D01*
X12496700Y-11774500D02*
X12496700Y-11874500D01*
X12446700Y-11824500D02*
X12546700Y-11824500D01*
X12496700Y-12028500D02*
X12496700Y-12128500D01*
X12446700Y-12078500D02*
X12546700Y-12078500D01*
X12496700Y-12282500D02*
X12496700Y-12382500D01*
X12446700Y-12332500D02*
X12546700Y-12332500D01*
X12496700Y-12536500D02*
X12496700Y-12636500D01*
X12446700Y-12586500D02*
X12546700Y-12586500D01*
X12496700Y-12790500D02*
X12496700Y-12890500D01*
X12446700Y-12840500D02*
X12546700Y-12840500D01*
X12496700Y-13044500D02*
X12496700Y-13144500D01*
X12446700Y-13094500D02*
X12546700Y-13094500D01*
X12496700Y-13298500D02*
X12496700Y-13398500D01*
X12446700Y-13348500D02*
X12546700Y-13348500D01*
X12496700Y-13552500D02*
X12496700Y-13652500D01*
X12446700Y-13602500D02*
X12546700Y-13602500D01*
X12496700Y-13806500D02*
X12496700Y-13906500D01*
X12446700Y-13856500D02*
X12546700Y-13856500D01*
X12496700Y-14060500D02*
X12496700Y-14160500D01*
X12446700Y-14110500D02*
X12546700Y-14110500D01*
X12496700Y-14314500D02*
X12496700Y-14414500D01*
X12446700Y-14364500D02*
X12546700Y-14364500D01*
X12801600Y-7976400D02*
X12801600Y-8076400D01*
X12751600Y-8026400D02*
X12851600Y-8026400D01*
X12801600Y-8408200D02*
X12801600Y-8508200D01*
X12751600Y-8458200D02*
X12851600Y-8458200D01*
X13055600Y-7976400D02*
X13055600Y-8076400D01*
X13005600Y-8026400D02*
X13105600Y-8026400D01*
X13055600Y-8408200D02*
X13055600Y-8508200D01*
X13005600Y-8458200D02*
X13105600Y-8458200D01*
X13175200Y-10242600D02*
X13175200Y-10342600D01*
X13125200Y-10292600D02*
X13225200Y-10292600D01*
X13175200Y-10496600D02*
X13175200Y-10596600D01*
X13125200Y-10546600D02*
X13225200Y-10546600D01*
X13175200Y-10750600D02*
X13175200Y-10850600D01*
X13125200Y-10800600D02*
X13225200Y-10800600D01*
X13175200Y-11004600D02*
X13175200Y-11104600D01*
X13125200Y-11054600D02*
X13225200Y-11054600D01*
X13175200Y-11258600D02*
X13175200Y-11358600D01*
X13125200Y-11308600D02*
X13225200Y-11308600D01*
X13175200Y-11512600D02*
X13175200Y-11612600D01*
X13125200Y-11562600D02*
X13225200Y-11562600D01*
X13175200Y-11766600D02*
X13175200Y-11866600D01*
X13125200Y-11816600D02*
X13225200Y-11816600D01*
X13175200Y-12020600D02*
X13175200Y-12120600D01*
X13125200Y-12070600D02*
X13225200Y-12070600D01*
X13175200Y-12274600D02*
X13175200Y-12374600D01*
X13125200Y-12324600D02*
X13225200Y-12324600D01*
X13175200Y-12528600D02*
X13175200Y-12628600D01*
X13125200Y-12578600D02*
X13225200Y-12578600D01*
X13175200Y-12782600D02*
X13175200Y-12882600D01*
X13125200Y-12832600D02*
X13225200Y-12832600D01*
X13175200Y-13036600D02*
X13175200Y-13136600D01*
X13125200Y-13086600D02*
X13225200Y-13086600D01*
X13175200Y-13290600D02*
X13175200Y-13390600D01*
X13125200Y-13340600D02*
X13225200Y-13340600D01*
X13175200Y-13544600D02*
X13175200Y-13644600D01*
X13125200Y-13594600D02*
X13225200Y-13594600D01*
X13175200Y-13798600D02*
X13175200Y-13898600D01*
X13125200Y-13848600D02*
X13225200Y-13848600D01*
X13175200Y-14052600D02*
X13175200Y-14152600D01*
X13125200Y-14102600D02*
X13225200Y-14102600D01*
X13175200Y-14306600D02*
X13175200Y-14406600D01*
X13125200Y-14356600D02*
X13225200Y-14356600D01*
X13309600Y-7976400D02*
X13309600Y-8076400D01*
X13259600Y-8026400D02*
X13359600Y-8026400D01*
X13309600Y-8408200D02*
X13309600Y-8508200D01*
X13259600Y-8458200D02*
X13359600Y-8458200D01*
X13429200Y-10242600D02*
X13429200Y-10342600D01*
X13379200Y-10292600D02*
X13479200Y-10292600D01*
X13429200Y-10496600D02*
X13429200Y-10596600D01*
X13379200Y-10546600D02*
X13479200Y-10546600D01*
X13429200Y-10750600D02*
X13429200Y-10850600D01*
X13379200Y-10800600D02*
X13479200Y-10800600D01*
X13429200Y-11004600D02*
X13429200Y-11104600D01*
X13379200Y-11054600D02*
X13479200Y-11054600D01*
X13429200Y-11258600D02*
X13429200Y-11358600D01*
X13379200Y-11308600D02*
X13479200Y-11308600D01*
X13429200Y-11512600D02*
X13429200Y-11612600D01*
X13379200Y-11562600D02*
X13479200Y-11562600D01*
X13429200Y-11766600D02*
X13429200Y-11866600D01*
X13379200Y-11816600D02*
X13479200Y-11816600D01*
X13429200Y-12020600D02*
X13429200Y-12120600D01*
X13379200Y-12070600D02*
X13479200Y-12070600D01*
X13429200Y-12274600D02*
X13429200Y-12374600D01*
X13379200Y-12324600D02*
X13479200Y-12324600D01*
X13429200Y-12528600D02*
X13429200Y-12628600D01*
X13379200Y-12578600D02*
X13479200Y-12578600D01*
X13429200Y-12782600D02*
X13429200Y-12882600D01*
X13379200Y-12832600D02*
X13479200Y-12832600D01*
X13429200Y-13036600D02*
X13429200Y-13136600D01*
X13379200Y-13086600D02*
X13479200Y-13086600D01*
X13429200Y-13290600D02*
X13429200Y-13390600D01*
X13379200Y-13340600D02*
X13479200Y-13340600D01*
X13429200Y-13544600D02*
X13429200Y-13644600D01*
X13379200Y-13594600D02*
X13479200Y-13594600D01*
X13429200Y-13798600D02*
X13429200Y-13898600D01*
X13379200Y-13848600D02*
X13479200Y-13848600D01*
X13429200Y-14052600D02*
X13429200Y-14152600D01*
X13379200Y-14102600D02*
X13479200Y-14102600D01*
X13429200Y-14306600D02*
X13429200Y-14406600D01*
X13379200Y-14356600D02*
X13479200Y-14356600D01*
X9934629Y-9733969D02*
X9934629Y-9620831D01*
X9821491Y-9620831D01*
X9821491Y-9733969D01*
X9934629Y-9733969D01*
X9934629Y-14623469D02*
X9934629Y-14510331D01*
X9821491Y-14510331D01*
X9821491Y-14623469D01*
X9934629Y-14623469D01*
X10157769Y-10053969D02*
X10157769Y-9940831D01*
X10044631Y-9940831D01*
X10044631Y-10053969D01*
X10157769Y-10053969D01*
X10165769Y-14242469D02*
X10165769Y-14129331D01*
X10052631Y-14129331D01*
X10052631Y-14242469D01*
X10165769Y-14242469D01*
D12*
X9427928Y-15962214D02*
X9427928Y-15662214D01*
X9499357Y-15662214D01*
X9542214Y-15676500D01*
X9570786Y-15705071D01*
X9585071Y-15733643D01*
X9599357Y-15790786D01*
X9599357Y-15833643D01*
X9585071Y-15890786D01*
X9570786Y-15919357D01*
X9542214Y-15947929D01*
X9499357Y-15962214D01*
X9427928Y-15962214D01*
X9727928Y-15962214D02*
X9727928Y-15762214D01*
X9727928Y-15819357D02*
X9742214Y-15790786D01*
X9756500Y-15776500D01*
X9785071Y-15762214D01*
X9813643Y-15762214D01*
X9913643Y-15962214D02*
X9913643Y-15762214D01*
X9913643Y-15662214D02*
X9899357Y-15676500D01*
X9913643Y-15690786D01*
X9927928Y-15676500D01*
X9913643Y-15662214D01*
X9913643Y-15690786D01*
X10099357Y-15962214D02*
X10070786Y-15947929D01*
X10056500Y-15919357D01*
X10056500Y-15662214D01*
X10256500Y-15962214D02*
X10227928Y-15947929D01*
X10213643Y-15919357D01*
X10213643Y-15662214D01*
X10599357Y-15962214D02*
X10599357Y-15662214D01*
X10699357Y-15876500D01*
X10799357Y-15662214D01*
X10799357Y-15962214D01*
X11070786Y-15962214D02*
X11070786Y-15805071D01*
X11056500Y-15776500D01*
X11027928Y-15762214D01*
X10970786Y-15762214D01*
X10942214Y-15776500D01*
X11070786Y-15947929D02*
X11042214Y-15962214D01*
X10970786Y-15962214D01*
X10942214Y-15947929D01*
X10927928Y-15919357D01*
X10927928Y-15890786D01*
X10942214Y-15862214D01*
X10970786Y-15847929D01*
X11042214Y-15847929D01*
X11070786Y-15833643D01*
X11213643Y-15762214D02*
X11213643Y-16062214D01*
X11213643Y-15776500D02*
X11242214Y-15762214D01*
X11299357Y-15762214D01*
X11327928Y-15776500D01*
X11342214Y-15790786D01*
X11356500Y-15819357D01*
X11356500Y-15905071D01*
X11342214Y-15933643D01*
X11327928Y-15947929D01*
X11299357Y-15962214D01*
X11242214Y-15962214D01*
X11213643Y-15947929D01*
X11485071Y-15933643D02*
X11499357Y-15947929D01*
X11485071Y-15962214D01*
X11470786Y-15947929D01*
X11485071Y-15933643D01*
X11485071Y-15962214D01*
X11485071Y-15776500D02*
X11499357Y-15790786D01*
X11485071Y-15805071D01*
X11470786Y-15790786D01*
X11485071Y-15776500D01*
X11485071Y-15805071D01*
X9101500Y-16436500D02*
X9141500Y-16476500D01*
X9141500Y-16436500D02*
X9101500Y-16476500D01*
X9485071Y-16292214D02*
X9513643Y-16292214D01*
X9542214Y-16306500D01*
X9556500Y-16320786D01*
X9570786Y-16349357D01*
X9585071Y-16406500D01*
X9585071Y-16477929D01*
X9570786Y-16535071D01*
X9556500Y-16563643D01*
X9542214Y-16577929D01*
X9513643Y-16592214D01*
X9485071Y-16592214D01*
X9456500Y-16577929D01*
X9442214Y-16563643D01*
X9427928Y-16535071D01*
X9413643Y-16477929D01*
X9413643Y-16406500D01*
X9427928Y-16349357D01*
X9442214Y-16320786D01*
X9456500Y-16306500D01*
X9485071Y-16292214D01*
X9713643Y-16563643D02*
X9727928Y-16577929D01*
X9713643Y-16592214D01*
X9699357Y-16577929D01*
X9713643Y-16563643D01*
X9713643Y-16592214D01*
X9985071Y-16392214D02*
X9985071Y-16592214D01*
X9913643Y-16277929D02*
X9842214Y-16492214D01*
X10027928Y-16492214D01*
X10199357Y-16292214D02*
X10227928Y-16292214D01*
X10256500Y-16306500D01*
X10270786Y-16320786D01*
X10285071Y-16349357D01*
X10299357Y-16406500D01*
X10299357Y-16477929D01*
X10285071Y-16535071D01*
X10270786Y-16563643D01*
X10256500Y-16577929D01*
X10227928Y-16592214D01*
X10199357Y-16592214D01*
X10170786Y-16577929D01*
X10156500Y-16563643D01*
X10142214Y-16535071D01*
X10127928Y-16477929D01*
X10127928Y-16406500D01*
X10142214Y-16349357D01*
X10156500Y-16320786D01*
X10170786Y-16306500D01*
X10199357Y-16292214D01*
X10485071Y-16292214D02*
X10513643Y-16292214D01*
X10542214Y-16306500D01*
X10556500Y-16320786D01*
X10570786Y-16349357D01*
X10585071Y-16406500D01*
X10585071Y-16477929D01*
X10570786Y-16535071D01*
X10556500Y-16563643D01*
X10542214Y-16577929D01*
X10513643Y-16592214D01*
X10485071Y-16592214D01*
X10456500Y-16577929D01*
X10442214Y-16563643D01*
X10427928Y-16535071D01*
X10413643Y-16477929D01*
X10413643Y-16406500D01*
X10427928Y-16349357D01*
X10442214Y-16320786D01*
X10456500Y-16306500D01*
X10485071Y-16292214D01*
X10713643Y-16592214D02*
X10713643Y-16392214D01*
X10713643Y-16420786D02*
X10727928Y-16406500D01*
X10756500Y-16392214D01*
X10799357Y-16392214D01*
X10827928Y-16406500D01*
X10842214Y-16435071D01*
X10842214Y-16592214D01*
X10842214Y-16435071D02*
X10856500Y-16406500D01*
X10885071Y-16392214D01*
X10927928Y-16392214D01*
X10956500Y-16406500D01*
X10970786Y-16435071D01*
X10970786Y-16592214D01*
X11113643Y-16592214D02*
X11113643Y-16392214D01*
X11113643Y-16420786D02*
X11127928Y-16406500D01*
X11156500Y-16392214D01*
X11199357Y-16392214D01*
X11227928Y-16406500D01*
X11242214Y-16435071D01*
X11242214Y-16592214D01*
X11242214Y-16435071D02*
X11256500Y-16406500D01*
X11285071Y-16392214D01*
X11327928Y-16392214D01*
X11356500Y-16406500D01*
X11370786Y-16435071D01*
X11370786Y-16592214D01*
X11956500Y-16277929D02*
X11699357Y-16663643D01*
X12342214Y-16292214D02*
X12370786Y-16292214D01*
X12399357Y-16306500D01*
X12413643Y-16320786D01*
X12427928Y-16349357D01*
X12442214Y-16406500D01*
X12442214Y-16477929D01*
X12427928Y-16535071D01*
X12413643Y-16563643D01*
X12399357Y-16577929D01*
X12370786Y-16592214D01*
X12342214Y-16592214D01*
X12313643Y-16577929D01*
X12299357Y-16563643D01*
X12285071Y-16535071D01*
X12270786Y-16477929D01*
X12270786Y-16406500D01*
X12285071Y-16349357D01*
X12299357Y-16320786D01*
X12313643Y-16306500D01*
X12342214Y-16292214D01*
X12570786Y-16563643D02*
X12585071Y-16577929D01*
X12570786Y-16592214D01*
X12556500Y-16577929D01*
X12570786Y-16563643D01*
X12570786Y-16592214D01*
X12770786Y-16292214D02*
X12799357Y-16292214D01*
X12827928Y-16306500D01*
X12842214Y-16320786D01*
X12856500Y-16349357D01*
X12870786Y-16406500D01*
X12870786Y-16477929D01*
X12856500Y-16535071D01*
X12842214Y-16563643D01*
X12827928Y-16577929D01*
X12799357Y-16592214D01*
X12770786Y-16592214D01*
X12742214Y-16577929D01*
X12727928Y-16563643D01*
X12713643Y-16535071D01*
X12699357Y-16477929D01*
X12699357Y-16406500D01*
X12713643Y-16349357D01*
X12727928Y-16320786D01*
X12742214Y-16306500D01*
X12770786Y-16292214D01*
X13156500Y-16592214D02*
X12985071Y-16592214D01*
X13070786Y-16592214D02*
X13070786Y-16292214D01*
X13042214Y-16335071D01*
X13013643Y-16363643D01*
X12985071Y-16377929D01*
X13427928Y-16292214D02*
X13285071Y-16292214D01*
X13270786Y-16435071D01*
X13285071Y-16420786D01*
X13313643Y-16406500D01*
X13385071Y-16406500D01*
X13413643Y-16420786D01*
X13427928Y-16435071D01*
X13442214Y-16463643D01*
X13442214Y-16535071D01*
X13427928Y-16563643D01*
X13413643Y-16577929D01*
X13385071Y-16592214D01*
X13313643Y-16592214D01*
X13285071Y-16577929D01*
X13270786Y-16563643D01*
X13542214Y-16292214D02*
X13742214Y-16292214D01*
X13613643Y-16592214D01*
X13842214Y-16292214D02*
X13842214Y-16349357D01*
X13956500Y-16292214D02*
X13956500Y-16349357D01*
X14399357Y-16706500D02*
X14385071Y-16692214D01*
X14356500Y-16649357D01*
X14342214Y-16620786D01*
X14327928Y-16577929D01*
X14313643Y-16506500D01*
X14313643Y-16449357D01*
X14327928Y-16377929D01*
X14342214Y-16335071D01*
X14356500Y-16306500D01*
X14385071Y-16263643D01*
X14399357Y-16249357D01*
X14485071Y-16292214D02*
X14670786Y-16292214D01*
X14570786Y-16406500D01*
X14613643Y-16406500D01*
X14642214Y-16420786D01*
X14656500Y-16435071D01*
X14670786Y-16463643D01*
X14670786Y-16535071D01*
X14656500Y-16563643D01*
X14642214Y-16577929D01*
X14613643Y-16592214D01*
X14527928Y-16592214D01*
X14499357Y-16577929D01*
X14485071Y-16563643D01*
X14927928Y-16392214D02*
X14927928Y-16592214D01*
X14856500Y-16277929D02*
X14785071Y-16492214D01*
X14970786Y-16492214D01*
X15313643Y-16592214D02*
X15313643Y-16292214D01*
X15442214Y-16592214D02*
X15442214Y-16435071D01*
X15427928Y-16406500D01*
X15399357Y-16392214D01*
X15356500Y-16392214D01*
X15327928Y-16406500D01*
X15313643Y-16420786D01*
X15627928Y-16592214D02*
X15599357Y-16577929D01*
X15585071Y-16563643D01*
X15570786Y-16535071D01*
X15570786Y-16449357D01*
X15585071Y-16420786D01*
X15599357Y-16406500D01*
X15627928Y-16392214D01*
X15670786Y-16392214D01*
X15699357Y-16406500D01*
X15713643Y-16420786D01*
X15727928Y-16449357D01*
X15727928Y-16535071D01*
X15713643Y-16563643D01*
X15699357Y-16577929D01*
X15670786Y-16592214D01*
X15627928Y-16592214D01*
X15899357Y-16592214D02*
X15870786Y-16577929D01*
X15856500Y-16549357D01*
X15856500Y-16292214D01*
X16127928Y-16577929D02*
X16099357Y-16592214D01*
X16042214Y-16592214D01*
X16013643Y-16577929D01*
X15999357Y-16549357D01*
X15999357Y-16435071D01*
X16013643Y-16406500D01*
X16042214Y-16392214D01*
X16099357Y-16392214D01*
X16127928Y-16406500D01*
X16142214Y-16435071D01*
X16142214Y-16463643D01*
X15999357Y-16492214D01*
X16256500Y-16577929D02*
X16285071Y-16592214D01*
X16342214Y-16592214D01*
X16370786Y-16577929D01*
X16385071Y-16549357D01*
X16385071Y-16535071D01*
X16370786Y-16506500D01*
X16342214Y-16492214D01*
X16299357Y-16492214D01*
X16270786Y-16477929D01*
X16256500Y-16449357D01*
X16256500Y-16435071D01*
X16270786Y-16406500D01*
X16299357Y-16392214D01*
X16342214Y-16392214D01*
X16370786Y-16406500D01*
X16485071Y-16706500D02*
X16499357Y-16692214D01*
X16527928Y-16649357D01*
X16542214Y-16620786D01*
X16556500Y-16577929D01*
X16570786Y-16506500D01*
X16570786Y-16449357D01*
X16556500Y-16377929D01*
X16542214Y-16335071D01*
X16527928Y-16306500D01*
X16499357Y-16263643D01*
X16485071Y-16249357D01*
X9141500Y-16852500D02*
G75*
G03*
X9141500Y-16852500I-40000J0D01*
G01*
X9485071Y-16688214D02*
X9513643Y-16688214D01*
X9542214Y-16702500D01*
X9556500Y-16716786D01*
X9570786Y-16745357D01*
X9585071Y-16802500D01*
X9585071Y-16873929D01*
X9570786Y-16931072D01*
X9556500Y-16959643D01*
X9542214Y-16973929D01*
X9513643Y-16988214D01*
X9485071Y-16988214D01*
X9456500Y-16973929D01*
X9442214Y-16959643D01*
X9427928Y-16931072D01*
X9413643Y-16873929D01*
X9413643Y-16802500D01*
X9427928Y-16745357D01*
X9442214Y-16716786D01*
X9456500Y-16702500D01*
X9485071Y-16688214D01*
X9713643Y-16959643D02*
X9727928Y-16973929D01*
X9713643Y-16988214D01*
X9699357Y-16973929D01*
X9713643Y-16959643D01*
X9713643Y-16988214D01*
X9899357Y-16816786D02*
X9870786Y-16802500D01*
X9856500Y-16788214D01*
X9842214Y-16759643D01*
X9842214Y-16745357D01*
X9856500Y-16716786D01*
X9870786Y-16702500D01*
X9899357Y-16688214D01*
X9956500Y-16688214D01*
X9985071Y-16702500D01*
X9999357Y-16716786D01*
X10013643Y-16745357D01*
X10013643Y-16759643D01*
X9999357Y-16788214D01*
X9985071Y-16802500D01*
X9956500Y-16816786D01*
X9899357Y-16816786D01*
X9870786Y-16831072D01*
X9856500Y-16845357D01*
X9842214Y-16873929D01*
X9842214Y-16931072D01*
X9856500Y-16959643D01*
X9870786Y-16973929D01*
X9899357Y-16988214D01*
X9956500Y-16988214D01*
X9985071Y-16973929D01*
X9999357Y-16959643D01*
X10013643Y-16931072D01*
X10013643Y-16873929D01*
X9999357Y-16845357D01*
X9985071Y-16831072D01*
X9956500Y-16816786D01*
X10199357Y-16688214D02*
X10227928Y-16688214D01*
X10256500Y-16702500D01*
X10270786Y-16716786D01*
X10285071Y-16745357D01*
X10299357Y-16802500D01*
X10299357Y-16873929D01*
X10285071Y-16931072D01*
X10270786Y-16959643D01*
X10256500Y-16973929D01*
X10227928Y-16988214D01*
X10199357Y-16988214D01*
X10170786Y-16973929D01*
X10156500Y-16959643D01*
X10142214Y-16931072D01*
X10127928Y-16873929D01*
X10127928Y-16802500D01*
X10142214Y-16745357D01*
X10156500Y-16716786D01*
X10170786Y-16702500D01*
X10199357Y-16688214D01*
X10485071Y-16688214D02*
X10513643Y-16688214D01*
X10542214Y-16702500D01*
X10556500Y-16716786D01*
X10570786Y-16745357D01*
X10585071Y-16802500D01*
X10585071Y-16873929D01*
X10570786Y-16931072D01*
X10556500Y-16959643D01*
X10542214Y-16973929D01*
X10513643Y-16988214D01*
X10485071Y-16988214D01*
X10456500Y-16973929D01*
X10442214Y-16959643D01*
X10427928Y-16931072D01*
X10413643Y-16873929D01*
X10413643Y-16802500D01*
X10427928Y-16745357D01*
X10442214Y-16716786D01*
X10456500Y-16702500D01*
X10485071Y-16688214D01*
X10713643Y-16988214D02*
X10713643Y-16788214D01*
X10713643Y-16816786D02*
X10727928Y-16802500D01*
X10756500Y-16788214D01*
X10799357Y-16788214D01*
X10827928Y-16802500D01*
X10842214Y-16831072D01*
X10842214Y-16988214D01*
X10842214Y-16831072D02*
X10856500Y-16802500D01*
X10885071Y-16788214D01*
X10927928Y-16788214D01*
X10956500Y-16802500D01*
X10970786Y-16831072D01*
X10970786Y-16988214D01*
X11113643Y-16988214D02*
X11113643Y-16788214D01*
X11113643Y-16816786D02*
X11127928Y-16802500D01*
X11156500Y-16788214D01*
X11199357Y-16788214D01*
X11227928Y-16802500D01*
X11242214Y-16831072D01*
X11242214Y-16988214D01*
X11242214Y-16831072D02*
X11256500Y-16802500D01*
X11285071Y-16788214D01*
X11327928Y-16788214D01*
X11356500Y-16802500D01*
X11370786Y-16831072D01*
X11370786Y-16988214D01*
X11956500Y-16673929D02*
X11699357Y-17059643D01*
X12342214Y-16688214D02*
X12370786Y-16688214D01*
X12399357Y-16702500D01*
X12413643Y-16716786D01*
X12427928Y-16745357D01*
X12442214Y-16802500D01*
X12442214Y-16873929D01*
X12427928Y-16931072D01*
X12413643Y-16959643D01*
X12399357Y-16973929D01*
X12370786Y-16988214D01*
X12342214Y-16988214D01*
X12313643Y-16973929D01*
X12299357Y-16959643D01*
X12285071Y-16931072D01*
X12270786Y-16873929D01*
X12270786Y-16802500D01*
X12285071Y-16745357D01*
X12299357Y-16716786D01*
X12313643Y-16702500D01*
X12342214Y-16688214D01*
X12570786Y-16959643D02*
X12585071Y-16973929D01*
X12570786Y-16988214D01*
X12556500Y-16973929D01*
X12570786Y-16959643D01*
X12570786Y-16988214D01*
X12770786Y-16688214D02*
X12799357Y-16688214D01*
X12827928Y-16702500D01*
X12842214Y-16716786D01*
X12856500Y-16745357D01*
X12870786Y-16802500D01*
X12870786Y-16873929D01*
X12856500Y-16931072D01*
X12842214Y-16959643D01*
X12827928Y-16973929D01*
X12799357Y-16988214D01*
X12770786Y-16988214D01*
X12742214Y-16973929D01*
X12727928Y-16959643D01*
X12713643Y-16931072D01*
X12699357Y-16873929D01*
X12699357Y-16802500D01*
X12713643Y-16745357D01*
X12727928Y-16716786D01*
X12742214Y-16702500D01*
X12770786Y-16688214D01*
X12970786Y-16688214D02*
X13156500Y-16688214D01*
X13056500Y-16802500D01*
X13099357Y-16802500D01*
X13127928Y-16816786D01*
X13142214Y-16831072D01*
X13156500Y-16859643D01*
X13156500Y-16931072D01*
X13142214Y-16959643D01*
X13127928Y-16973929D01*
X13099357Y-16988214D01*
X13013643Y-16988214D01*
X12985071Y-16973929D01*
X12970786Y-16959643D01*
X13442214Y-16988214D02*
X13270786Y-16988214D01*
X13356500Y-16988214D02*
X13356500Y-16688214D01*
X13327928Y-16731071D01*
X13299357Y-16759643D01*
X13270786Y-16773929D01*
X13713643Y-16688214D02*
X13570786Y-16688214D01*
X13556500Y-16831072D01*
X13570786Y-16816786D01*
X13599357Y-16802500D01*
X13670786Y-16802500D01*
X13699357Y-16816786D01*
X13713643Y-16831072D01*
X13727928Y-16859643D01*
X13727928Y-16931072D01*
X13713643Y-16959643D01*
X13699357Y-16973929D01*
X13670786Y-16988214D01*
X13599357Y-16988214D01*
X13570786Y-16973929D01*
X13556500Y-16959643D01*
X13842214Y-16688214D02*
X13842214Y-16745357D01*
X13956500Y-16688214D02*
X13956500Y-16745357D01*
X14399357Y-17102500D02*
X14385071Y-17088214D01*
X14356500Y-17045357D01*
X14342214Y-17016786D01*
X14327928Y-16973929D01*
X14313643Y-16902500D01*
X14313643Y-16845357D01*
X14327928Y-16773929D01*
X14342214Y-16731071D01*
X14356500Y-16702500D01*
X14385071Y-16659643D01*
X14399357Y-16645357D01*
X14642214Y-16788214D02*
X14642214Y-16988214D01*
X14570786Y-16673929D02*
X14499357Y-16888214D01*
X14685071Y-16888214D01*
X14927928Y-16688214D02*
X14870786Y-16688214D01*
X14842214Y-16702500D01*
X14827928Y-16716786D01*
X14799357Y-16759643D01*
X14785071Y-16816786D01*
X14785071Y-16931072D01*
X14799357Y-16959643D01*
X14813643Y-16973929D01*
X14842214Y-16988214D01*
X14899357Y-16988214D01*
X14927928Y-16973929D01*
X14942214Y-16959643D01*
X14956500Y-16931072D01*
X14956500Y-16859643D01*
X14942214Y-16831072D01*
X14927928Y-16816786D01*
X14899357Y-16802500D01*
X14842214Y-16802500D01*
X14813643Y-16816786D01*
X14799357Y-16831072D01*
X14785071Y-16859643D01*
X15313643Y-16988214D02*
X15313643Y-16688214D01*
X15442214Y-16988214D02*
X15442214Y-16831072D01*
X15427928Y-16802500D01*
X15399357Y-16788214D01*
X15356500Y-16788214D01*
X15327928Y-16802500D01*
X15313643Y-16816786D01*
X15627928Y-16988214D02*
X15599357Y-16973929D01*
X15585071Y-16959643D01*
X15570786Y-16931072D01*
X15570786Y-16845357D01*
X15585071Y-16816786D01*
X15599357Y-16802500D01*
X15627928Y-16788214D01*
X15670786Y-16788214D01*
X15699357Y-16802500D01*
X15713643Y-16816786D01*
X15727928Y-16845357D01*
X15727928Y-16931072D01*
X15713643Y-16959643D01*
X15699357Y-16973929D01*
X15670786Y-16988214D01*
X15627928Y-16988214D01*
X15899357Y-16988214D02*
X15870786Y-16973929D01*
X15856500Y-16945357D01*
X15856500Y-16688214D01*
X16127928Y-16973929D02*
X16099357Y-16988214D01*
X16042214Y-16988214D01*
X16013643Y-16973929D01*
X15999357Y-16945357D01*
X15999357Y-16831072D01*
X16013643Y-16802500D01*
X16042214Y-16788214D01*
X16099357Y-16788214D01*
X16127928Y-16802500D01*
X16142214Y-16831072D01*
X16142214Y-16859643D01*
X15999357Y-16888214D01*
X16256500Y-16973929D02*
X16285071Y-16988214D01*
X16342214Y-16988214D01*
X16370786Y-16973929D01*
X16385071Y-16945357D01*
X16385071Y-16931072D01*
X16370786Y-16902500D01*
X16342214Y-16888214D01*
X16299357Y-16888214D01*
X16270786Y-16873929D01*
X16256500Y-16845357D01*
X16256500Y-16831072D01*
X16270786Y-16802500D01*
X16299357Y-16788214D01*
X16342214Y-16788214D01*
X16370786Y-16802500D01*
X16485071Y-17102500D02*
X16499357Y-17088214D01*
X16527928Y-17045357D01*
X16542214Y-17016786D01*
X16556500Y-16973929D01*
X16570786Y-16902500D01*
X16570786Y-16845357D01*
X16556500Y-16773929D01*
X16542214Y-16731071D01*
X16527928Y-16702500D01*
X16499357Y-16659643D01*
X16485071Y-16645357D01*
X9091500Y-17198500D02*
X9091500Y-17298500D01*
X9041500Y-17248500D02*
X9141500Y-17248500D01*
X9585071Y-17384214D02*
X9413643Y-17384214D01*
X9499357Y-17384214D02*
X9499357Y-17084214D01*
X9470786Y-17127072D01*
X9442214Y-17155643D01*
X9413643Y-17169929D01*
X9713643Y-17355643D02*
X9727928Y-17369929D01*
X9713643Y-17384214D01*
X9699357Y-17369929D01*
X9713643Y-17355643D01*
X9713643Y-17384214D01*
X9913643Y-17084214D02*
X9942214Y-17084214D01*
X9970786Y-17098500D01*
X9985071Y-17112786D01*
X9999357Y-17141357D01*
X10013643Y-17198500D01*
X10013643Y-17269929D01*
X9999357Y-17327072D01*
X9985071Y-17355643D01*
X9970786Y-17369929D01*
X9942214Y-17384214D01*
X9913643Y-17384214D01*
X9885071Y-17369929D01*
X9870786Y-17355643D01*
X9856500Y-17327072D01*
X9842214Y-17269929D01*
X9842214Y-17198500D01*
X9856500Y-17141357D01*
X9870786Y-17112786D01*
X9885071Y-17098500D01*
X9913643Y-17084214D01*
X10199357Y-17084214D02*
X10227928Y-17084214D01*
X10256500Y-17098500D01*
X10270786Y-17112786D01*
X10285071Y-17141357D01*
X10299357Y-17198500D01*
X10299357Y-17269929D01*
X10285071Y-17327072D01*
X10270786Y-17355643D01*
X10256500Y-17369929D01*
X10227928Y-17384214D01*
X10199357Y-17384214D01*
X10170786Y-17369929D01*
X10156500Y-17355643D01*
X10142214Y-17327072D01*
X10127928Y-17269929D01*
X10127928Y-17198500D01*
X10142214Y-17141357D01*
X10156500Y-17112786D01*
X10170786Y-17098500D01*
X10199357Y-17084214D01*
X10485071Y-17084214D02*
X10513643Y-17084214D01*
X10542214Y-17098500D01*
X10556500Y-17112786D01*
X10570786Y-17141357D01*
X10585071Y-17198500D01*
X10585071Y-17269929D01*
X10570786Y-17327072D01*
X10556500Y-17355643D01*
X10542214Y-17369929D01*
X10513643Y-17384214D01*
X10485071Y-17384214D01*
X10456500Y-17369929D01*
X10442214Y-17355643D01*
X10427928Y-17327072D01*
X10413643Y-17269929D01*
X10413643Y-17198500D01*
X10427928Y-17141357D01*
X10442214Y-17112786D01*
X10456500Y-17098500D01*
X10485071Y-17084214D01*
X10713643Y-17384214D02*
X10713643Y-17184214D01*
X10713643Y-17212786D02*
X10727928Y-17198500D01*
X10756500Y-17184214D01*
X10799357Y-17184214D01*
X10827928Y-17198500D01*
X10842214Y-17227072D01*
X10842214Y-17384214D01*
X10842214Y-17227072D02*
X10856500Y-17198500D01*
X10885071Y-17184214D01*
X10927928Y-17184214D01*
X10956500Y-17198500D01*
X10970786Y-17227072D01*
X10970786Y-17384214D01*
X11113643Y-17384214D02*
X11113643Y-17184214D01*
X11113643Y-17212786D02*
X11127928Y-17198500D01*
X11156500Y-17184214D01*
X11199357Y-17184214D01*
X11227928Y-17198500D01*
X11242214Y-17227072D01*
X11242214Y-17384214D01*
X11242214Y-17227072D02*
X11256500Y-17198500D01*
X11285071Y-17184214D01*
X11327928Y-17184214D01*
X11356500Y-17198500D01*
X11370786Y-17227072D01*
X11370786Y-17384214D01*
X11956500Y-17069929D02*
X11699357Y-17455643D01*
X12342214Y-17084214D02*
X12370786Y-17084214D01*
X12399357Y-17098500D01*
X12413643Y-17112786D01*
X12427928Y-17141357D01*
X12442214Y-17198500D01*
X12442214Y-17269929D01*
X12427928Y-17327072D01*
X12413643Y-17355643D01*
X12399357Y-17369929D01*
X12370786Y-17384214D01*
X12342214Y-17384214D01*
X12313643Y-17369929D01*
X12299357Y-17355643D01*
X12285071Y-17327072D01*
X12270786Y-17269929D01*
X12270786Y-17198500D01*
X12285071Y-17141357D01*
X12299357Y-17112786D01*
X12313643Y-17098500D01*
X12342214Y-17084214D01*
X12570786Y-17355643D02*
X12585071Y-17369929D01*
X12570786Y-17384214D01*
X12556500Y-17369929D01*
X12570786Y-17355643D01*
X12570786Y-17384214D01*
X12770786Y-17084214D02*
X12799357Y-17084214D01*
X12827928Y-17098500D01*
X12842214Y-17112786D01*
X12856500Y-17141357D01*
X12870786Y-17198500D01*
X12870786Y-17269929D01*
X12856500Y-17327072D01*
X12842214Y-17355643D01*
X12827928Y-17369929D01*
X12799357Y-17384214D01*
X12770786Y-17384214D01*
X12742214Y-17369929D01*
X12727928Y-17355643D01*
X12713643Y-17327072D01*
X12699357Y-17269929D01*
X12699357Y-17198500D01*
X12713643Y-17141357D01*
X12727928Y-17112786D01*
X12742214Y-17098500D01*
X12770786Y-17084214D01*
X12970786Y-17084214D02*
X13156500Y-17084214D01*
X13056500Y-17198500D01*
X13099357Y-17198500D01*
X13127928Y-17212786D01*
X13142214Y-17227072D01*
X13156500Y-17255643D01*
X13156500Y-17327072D01*
X13142214Y-17355643D01*
X13127928Y-17369929D01*
X13099357Y-17384214D01*
X13013643Y-17384214D01*
X12985071Y-17369929D01*
X12970786Y-17355643D01*
X13299357Y-17384214D02*
X13356500Y-17384214D01*
X13385071Y-17369929D01*
X13399357Y-17355643D01*
X13427928Y-17312786D01*
X13442214Y-17255643D01*
X13442214Y-17141357D01*
X13427928Y-17112786D01*
X13413643Y-17098500D01*
X13385071Y-17084214D01*
X13327928Y-17084214D01*
X13299357Y-17098500D01*
X13285071Y-17112786D01*
X13270786Y-17141357D01*
X13270786Y-17212786D01*
X13285071Y-17241357D01*
X13299357Y-17255643D01*
X13327928Y-17269929D01*
X13385071Y-17269929D01*
X13413643Y-17255643D01*
X13427928Y-17241357D01*
X13442214Y-17212786D01*
X13699357Y-17184214D02*
X13699357Y-17384214D01*
X13627928Y-17069929D02*
X13556500Y-17284214D01*
X13742214Y-17284214D01*
X13842214Y-17084214D02*
X13842214Y-17141357D01*
X13956500Y-17084214D02*
X13956500Y-17141357D01*
X14399357Y-17498500D02*
X14385071Y-17484214D01*
X14356500Y-17441357D01*
X14342214Y-17412786D01*
X14327928Y-17369929D01*
X14313643Y-17298500D01*
X14313643Y-17241357D01*
X14327928Y-17169929D01*
X14342214Y-17127072D01*
X14356500Y-17098500D01*
X14385071Y-17055643D01*
X14399357Y-17041357D01*
X14556500Y-17212786D02*
X14527928Y-17198500D01*
X14513643Y-17184214D01*
X14499357Y-17155643D01*
X14499357Y-17141357D01*
X14513643Y-17112786D01*
X14527928Y-17098500D01*
X14556500Y-17084214D01*
X14613643Y-17084214D01*
X14642214Y-17098500D01*
X14656500Y-17112786D01*
X14670786Y-17141357D01*
X14670786Y-17155643D01*
X14656500Y-17184214D01*
X14642214Y-17198500D01*
X14613643Y-17212786D01*
X14556500Y-17212786D01*
X14527928Y-17227072D01*
X14513643Y-17241357D01*
X14499357Y-17269929D01*
X14499357Y-17327072D01*
X14513643Y-17355643D01*
X14527928Y-17369929D01*
X14556500Y-17384214D01*
X14613643Y-17384214D01*
X14642214Y-17369929D01*
X14656500Y-17355643D01*
X14670786Y-17327072D01*
X14670786Y-17269929D01*
X14656500Y-17241357D01*
X14642214Y-17227072D01*
X14613643Y-17212786D01*
X14785071Y-17112786D02*
X14799357Y-17098500D01*
X14827928Y-17084214D01*
X14899357Y-17084214D01*
X14927928Y-17098500D01*
X14942214Y-17112786D01*
X14956500Y-17141357D01*
X14956500Y-17169929D01*
X14942214Y-17212786D01*
X14770786Y-17384214D01*
X14956500Y-17384214D01*
X15313643Y-17384214D02*
X15313643Y-17084214D01*
X15442214Y-17384214D02*
X15442214Y-17227072D01*
X15427928Y-17198500D01*
X15399357Y-17184214D01*
X15356500Y-17184214D01*
X15327928Y-17198500D01*
X15313643Y-17212786D01*
X15627928Y-17384214D02*
X15599357Y-17369929D01*
X15585071Y-17355643D01*
X15570786Y-17327072D01*
X15570786Y-17241357D01*
X15585071Y-17212786D01*
X15599357Y-17198500D01*
X15627928Y-17184214D01*
X15670786Y-17184214D01*
X15699357Y-17198500D01*
X15713643Y-17212786D01*
X15727928Y-17241357D01*
X15727928Y-17327072D01*
X15713643Y-17355643D01*
X15699357Y-17369929D01*
X15670786Y-17384214D01*
X15627928Y-17384214D01*
X15899357Y-17384214D02*
X15870786Y-17369929D01*
X15856500Y-17341357D01*
X15856500Y-17084214D01*
X16127928Y-17369929D02*
X16099357Y-17384214D01*
X16042214Y-17384214D01*
X16013643Y-17369929D01*
X15999357Y-17341357D01*
X15999357Y-17227072D01*
X16013643Y-17198500D01*
X16042214Y-17184214D01*
X16099357Y-17184214D01*
X16127928Y-17198500D01*
X16142214Y-17227072D01*
X16142214Y-17255643D01*
X15999357Y-17284214D01*
X16256500Y-17369929D02*
X16285071Y-17384214D01*
X16342214Y-17384214D01*
X16370786Y-17369929D01*
X16385071Y-17341357D01*
X16385071Y-17327072D01*
X16370786Y-17298500D01*
X16342214Y-17284214D01*
X16299357Y-17284214D01*
X16270786Y-17269929D01*
X16256500Y-17241357D01*
X16256500Y-17227072D01*
X16270786Y-17198500D01*
X16299357Y-17184214D01*
X16342214Y-17184214D01*
X16370786Y-17198500D01*
X16485071Y-17498500D02*
X16499357Y-17484214D01*
X16527928Y-17441357D01*
X16542214Y-17412786D01*
X16556500Y-17369929D01*
X16570786Y-17298500D01*
X16570786Y-17241357D01*
X16556500Y-17169929D01*
X16542214Y-17127072D01*
X16527928Y-17098500D01*
X16499357Y-17055643D01*
X16485071Y-17041357D01*
X9118069Y-17701069D02*
X9118069Y-17587931D01*
X9004931Y-17587931D01*
X9004931Y-17701069D01*
X9118069Y-17701069D01*
X9585071Y-17780214D02*
X9413643Y-17780214D01*
X9499357Y-17780214D02*
X9499357Y-17480214D01*
X9470786Y-17523072D01*
X9442214Y-17551643D01*
X9413643Y-17565929D01*
X9713643Y-17751643D02*
X9727928Y-17765929D01*
X9713643Y-17780214D01*
X9699357Y-17765929D01*
X9713643Y-17751643D01*
X9713643Y-17780214D01*
X9985071Y-17480214D02*
X9927928Y-17480214D01*
X9899357Y-17494500D01*
X9885071Y-17508786D01*
X9856500Y-17551643D01*
X9842214Y-17608786D01*
X9842214Y-17723072D01*
X9856500Y-17751643D01*
X9870786Y-17765929D01*
X9899357Y-17780214D01*
X9956500Y-17780214D01*
X9985071Y-17765929D01*
X9999357Y-17751643D01*
X10013643Y-17723072D01*
X10013643Y-17651643D01*
X9999357Y-17623072D01*
X9985071Y-17608786D01*
X9956500Y-17594500D01*
X9899357Y-17594500D01*
X9870786Y-17608786D01*
X9856500Y-17623072D01*
X9842214Y-17651643D01*
X10199357Y-17480214D02*
X10227928Y-17480214D01*
X10256500Y-17494500D01*
X10270786Y-17508786D01*
X10285071Y-17537357D01*
X10299357Y-17594500D01*
X10299357Y-17665929D01*
X10285071Y-17723072D01*
X10270786Y-17751643D01*
X10256500Y-17765929D01*
X10227928Y-17780214D01*
X10199357Y-17780214D01*
X10170786Y-17765929D01*
X10156500Y-17751643D01*
X10142214Y-17723072D01*
X10127928Y-17665929D01*
X10127928Y-17594500D01*
X10142214Y-17537357D01*
X10156500Y-17508786D01*
X10170786Y-17494500D01*
X10199357Y-17480214D01*
X10485071Y-17480214D02*
X10513643Y-17480214D01*
X10542214Y-17494500D01*
X10556500Y-17508786D01*
X10570786Y-17537357D01*
X10585071Y-17594500D01*
X10585071Y-17665929D01*
X10570786Y-17723072D01*
X10556500Y-17751643D01*
X10542214Y-17765929D01*
X10513643Y-17780214D01*
X10485071Y-17780214D01*
X10456500Y-17765929D01*
X10442214Y-17751643D01*
X10427928Y-17723072D01*
X10413643Y-17665929D01*
X10413643Y-17594500D01*
X10427928Y-17537357D01*
X10442214Y-17508786D01*
X10456500Y-17494500D01*
X10485071Y-17480214D01*
X10713643Y-17780214D02*
X10713643Y-17580214D01*
X10713643Y-17608786D02*
X10727928Y-17594500D01*
X10756500Y-17580214D01*
X10799357Y-17580214D01*
X10827928Y-17594500D01*
X10842214Y-17623072D01*
X10842214Y-17780214D01*
X10842214Y-17623072D02*
X10856500Y-17594500D01*
X10885071Y-17580214D01*
X10927928Y-17580214D01*
X10956500Y-17594500D01*
X10970786Y-17623072D01*
X10970786Y-17780214D01*
X11113643Y-17780214D02*
X11113643Y-17580214D01*
X11113643Y-17608786D02*
X11127928Y-17594500D01*
X11156500Y-17580214D01*
X11199357Y-17580214D01*
X11227928Y-17594500D01*
X11242214Y-17623072D01*
X11242214Y-17780214D01*
X11242214Y-17623072D02*
X11256500Y-17594500D01*
X11285071Y-17580214D01*
X11327928Y-17580214D01*
X11356500Y-17594500D01*
X11370786Y-17623072D01*
X11370786Y-17780214D01*
X11956500Y-17465929D02*
X11699357Y-17851643D01*
X12342214Y-17480214D02*
X12370786Y-17480214D01*
X12399357Y-17494500D01*
X12413643Y-17508786D01*
X12427928Y-17537357D01*
X12442214Y-17594500D01*
X12442214Y-17665929D01*
X12427928Y-17723072D01*
X12413643Y-17751643D01*
X12399357Y-17765929D01*
X12370786Y-17780214D01*
X12342214Y-17780214D01*
X12313643Y-17765929D01*
X12299357Y-17751643D01*
X12285071Y-17723072D01*
X12270786Y-17665929D01*
X12270786Y-17594500D01*
X12285071Y-17537357D01*
X12299357Y-17508786D01*
X12313643Y-17494500D01*
X12342214Y-17480214D01*
X12570786Y-17751643D02*
X12585071Y-17765929D01*
X12570786Y-17780214D01*
X12556500Y-17765929D01*
X12570786Y-17751643D01*
X12570786Y-17780214D01*
X12770786Y-17480214D02*
X12799357Y-17480214D01*
X12827928Y-17494500D01*
X12842214Y-17508786D01*
X12856500Y-17537357D01*
X12870786Y-17594500D01*
X12870786Y-17665929D01*
X12856500Y-17723072D01*
X12842214Y-17751643D01*
X12827928Y-17765929D01*
X12799357Y-17780214D01*
X12770786Y-17780214D01*
X12742214Y-17765929D01*
X12727928Y-17751643D01*
X12713643Y-17723072D01*
X12699357Y-17665929D01*
X12699357Y-17594500D01*
X12713643Y-17537357D01*
X12727928Y-17508786D01*
X12742214Y-17494500D01*
X12770786Y-17480214D01*
X13127928Y-17480214D02*
X13070786Y-17480214D01*
X13042214Y-17494500D01*
X13027928Y-17508786D01*
X12999357Y-17551643D01*
X12985071Y-17608786D01*
X12985071Y-17723072D01*
X12999357Y-17751643D01*
X13013643Y-17765929D01*
X13042214Y-17780214D01*
X13099357Y-17780214D01*
X13127928Y-17765929D01*
X13142214Y-17751643D01*
X13156500Y-17723072D01*
X13156500Y-17651643D01*
X13142214Y-17623072D01*
X13127928Y-17608786D01*
X13099357Y-17594500D01*
X13042214Y-17594500D01*
X13013643Y-17608786D01*
X12999357Y-17623072D01*
X12985071Y-17651643D01*
X13256500Y-17480214D02*
X13442214Y-17480214D01*
X13342214Y-17594500D01*
X13385071Y-17594500D01*
X13413643Y-17608786D01*
X13427928Y-17623072D01*
X13442214Y-17651643D01*
X13442214Y-17723072D01*
X13427928Y-17751643D01*
X13413643Y-17765929D01*
X13385071Y-17780214D01*
X13299357Y-17780214D01*
X13270786Y-17765929D01*
X13256500Y-17751643D01*
X13627928Y-17480214D02*
X13656500Y-17480214D01*
X13685071Y-17494500D01*
X13699357Y-17508786D01*
X13713643Y-17537357D01*
X13727928Y-17594500D01*
X13727928Y-17665929D01*
X13713643Y-17723072D01*
X13699357Y-17751643D01*
X13685071Y-17765929D01*
X13656500Y-17780214D01*
X13627928Y-17780214D01*
X13599357Y-17765929D01*
X13585071Y-17751643D01*
X13570786Y-17723072D01*
X13556500Y-17665929D01*
X13556500Y-17594500D01*
X13570786Y-17537357D01*
X13585071Y-17508786D01*
X13599357Y-17494500D01*
X13627928Y-17480214D01*
X13842214Y-17480214D02*
X13842214Y-17537357D01*
X13956500Y-17480214D02*
X13956500Y-17537357D01*
X14399357Y-17894500D02*
X14385071Y-17880214D01*
X14356500Y-17837357D01*
X14342214Y-17808786D01*
X14327928Y-17765929D01*
X14313643Y-17694500D01*
X14313643Y-17637357D01*
X14327928Y-17565929D01*
X14342214Y-17523072D01*
X14356500Y-17494500D01*
X14385071Y-17451643D01*
X14399357Y-17437357D01*
X14642214Y-17580214D02*
X14642214Y-17780214D01*
X14570786Y-17465929D02*
X14499357Y-17680214D01*
X14685071Y-17680214D01*
X15027928Y-17780214D02*
X15027928Y-17480214D01*
X15156500Y-17780214D02*
X15156500Y-17623072D01*
X15142214Y-17594500D01*
X15113643Y-17580214D01*
X15070786Y-17580214D01*
X15042214Y-17594500D01*
X15027928Y-17608786D01*
X15342214Y-17780214D02*
X15313643Y-17765929D01*
X15299357Y-17751643D01*
X15285071Y-17723072D01*
X15285071Y-17637357D01*
X15299357Y-17608786D01*
X15313643Y-17594500D01*
X15342214Y-17580214D01*
X15385071Y-17580214D01*
X15413643Y-17594500D01*
X15427928Y-17608786D01*
X15442214Y-17637357D01*
X15442214Y-17723072D01*
X15427928Y-17751643D01*
X15413643Y-17765929D01*
X15385071Y-17780214D01*
X15342214Y-17780214D01*
X15613643Y-17780214D02*
X15585071Y-17765929D01*
X15570786Y-17737357D01*
X15570786Y-17480214D01*
X15842214Y-17765929D02*
X15813643Y-17780214D01*
X15756500Y-17780214D01*
X15727928Y-17765929D01*
X15713643Y-17737357D01*
X15713643Y-17623072D01*
X15727928Y-17594500D01*
X15756500Y-17580214D01*
X15813643Y-17580214D01*
X15842214Y-17594500D01*
X15856500Y-17623072D01*
X15856500Y-17651643D01*
X15713643Y-17680214D01*
X15970786Y-17765929D02*
X15999357Y-17780214D01*
X16056500Y-17780214D01*
X16085071Y-17765929D01*
X16099357Y-17737357D01*
X16099357Y-17723072D01*
X16085071Y-17694500D01*
X16056500Y-17680214D01*
X16013643Y-17680214D01*
X15985071Y-17665929D01*
X15970786Y-17637357D01*
X15970786Y-17623072D01*
X15985071Y-17594500D01*
X16013643Y-17580214D01*
X16056500Y-17580214D01*
X16085071Y-17594500D01*
X16199357Y-17894500D02*
X16213643Y-17880214D01*
X16242214Y-17837357D01*
X16256500Y-17808786D01*
X16270786Y-17765929D01*
X16285071Y-17694500D01*
X16285071Y-17637357D01*
X16270786Y-17565929D01*
X16256500Y-17523072D01*
X16242214Y-17494500D01*
X16213643Y-17451643D01*
X16199357Y-17437357D01*
M02*
