%TF.GenerationSoftware,KiCad,Pcbnew,(5.1.10)-1*%
%TF.CreationDate,2024-05-08T08:20:22+02:00*%
%TF.ProjectId,KC85-FDD_IN,4b433835-2d46-4444-945f-494e2e6b6963,rev?*%
%TF.SameCoordinates,Original*%
%TF.FileFunction,Other,Fab,Top*%
%FSLAX46Y46*%
G04 Gerber Fmt 4.6, Leading zero omitted, Abs format (unit mm)*
G04 Created by KiCad (PCBNEW (5.1.10)-1) date 2024-05-08 08:20:22*
%MOMM*%
%LPD*%
G01*
G04 APERTURE LIST*
%ADD10C,0.100000*%
%ADD11C,0.150000*%
%ADD12C,0.090000*%
G04 APERTURE END LIST*
D10*
%TO.C,U1*%
X112506000Y-95631000D02*
X111506000Y-94631000D01*
X129286000Y-95631000D02*
X112506000Y-95631000D01*
X129286000Y-89281000D02*
X129286000Y-95631000D01*
X111506000Y-89281000D02*
X129286000Y-89281000D01*
X111506000Y-94631000D02*
X111506000Y-89281000D01*
%TO.C,R2*%
X122682000Y-81026000D02*
X120752000Y-81026000D01*
X112522000Y-81026000D02*
X114452000Y-81026000D01*
X120752000Y-79776000D02*
X114452000Y-79776000D01*
X120752000Y-82276000D02*
X120752000Y-79776000D01*
X114452000Y-82276000D02*
X120752000Y-82276000D01*
X114452000Y-79776000D02*
X114452000Y-82276000D01*
%TO.C,R1*%
X122682000Y-84582000D02*
X120752000Y-84582000D01*
X112522000Y-84582000D02*
X114452000Y-84582000D01*
X120752000Y-83332000D02*
X114452000Y-83332000D01*
X120752000Y-85832000D02*
X120752000Y-83332000D01*
X114452000Y-85832000D02*
X120752000Y-85832000D01*
X114452000Y-83332000D02*
X114452000Y-85832000D01*
%TO.C,J7*%
X127381000Y-81534000D02*
X126746000Y-80899000D01*
X134366000Y-81534000D02*
X127381000Y-81534000D01*
X134366000Y-78994000D02*
X134366000Y-81534000D01*
X126746000Y-78994000D02*
X134366000Y-78994000D01*
X126746000Y-80899000D02*
X126746000Y-78994000D01*
%TO.C,J6*%
X127381000Y-85852000D02*
X126746000Y-85217000D01*
X134366000Y-85852000D02*
X127381000Y-85852000D01*
X134366000Y-83312000D02*
X134366000Y-85852000D01*
X126746000Y-83312000D02*
X134366000Y-83312000D01*
X126746000Y-85217000D02*
X126746000Y-83312000D01*
%TO.C,J5*%
X105029000Y-151130000D02*
X104394000Y-150495000D01*
X114554000Y-151130000D02*
X105029000Y-151130000D01*
X114554000Y-148590000D02*
X114554000Y-151130000D01*
X104394000Y-148590000D02*
X114554000Y-148590000D01*
X104394000Y-150495000D02*
X104394000Y-148590000D01*
%TO.C,J4*%
X130482000Y-102926000D02*
X131752000Y-101656000D01*
X130482000Y-144836000D02*
X130482000Y-102926000D01*
X135562000Y-144836000D02*
X130482000Y-144836000D01*
X135562000Y-101656000D02*
X135562000Y-144836000D01*
X131752000Y-101656000D02*
X135562000Y-101656000D01*
%TO.C,J2*%
X96774000Y-81407000D02*
X97409000Y-80772000D01*
X96774000Y-90932000D02*
X96774000Y-81407000D01*
X99314000Y-90932000D02*
X96774000Y-90932000D01*
X99314000Y-80772000D02*
X99314000Y-90932000D01*
X97409000Y-80772000D02*
X99314000Y-80772000D01*
%TO.C,C1*%
X132318000Y-96476000D02*
X132318000Y-93476000D01*
X130318000Y-96476000D02*
X132318000Y-96476000D01*
X130318000Y-93476000D02*
X130318000Y-96476000D01*
X132318000Y-93476000D02*
X130318000Y-93476000D01*
%TO.C,J3*%
X122427000Y-101735001D02*
X126237000Y-101735001D01*
X126237000Y-101735001D02*
X126237000Y-144915001D01*
X126237000Y-144915001D02*
X121157000Y-144915001D01*
X121157000Y-144915001D02*
X121157000Y-103005001D01*
X121157000Y-103005001D02*
X122427000Y-101735001D01*
%TD*%
%TO.C,U1*%
D11*
X129798380Y-95098857D02*
X129798380Y-94432190D01*
X130798380Y-94860761D01*
X130131714Y-93622666D02*
X130798380Y-93622666D01*
X129750761Y-93860761D02*
X130465047Y-94098857D01*
X130465047Y-93479809D01*
X130798380Y-92622666D02*
X130798380Y-93098857D01*
X129798380Y-93098857D01*
X130750761Y-92336952D02*
X130798380Y-92194095D01*
X130798380Y-91956000D01*
X130750761Y-91860761D01*
X130703142Y-91813142D01*
X130607904Y-91765523D01*
X130512666Y-91765523D01*
X130417428Y-91813142D01*
X130369809Y-91860761D01*
X130322190Y-91956000D01*
X130274571Y-92146476D01*
X130226952Y-92241714D01*
X130179333Y-92289333D01*
X130084095Y-92336952D01*
X129988857Y-92336952D01*
X129893619Y-92289333D01*
X129846000Y-92241714D01*
X129798380Y-92146476D01*
X129798380Y-91908380D01*
X129846000Y-91765523D01*
X129798380Y-91146476D02*
X129798380Y-91051238D01*
X129846000Y-90956000D01*
X129893619Y-90908380D01*
X129988857Y-90860761D01*
X130179333Y-90813142D01*
X130417428Y-90813142D01*
X130607904Y-90860761D01*
X130703142Y-90908380D01*
X130750761Y-90956000D01*
X130798380Y-91051238D01*
X130798380Y-91146476D01*
X130750761Y-91241714D01*
X130703142Y-91289333D01*
X130607904Y-91336952D01*
X130417428Y-91384571D01*
X130179333Y-91384571D01*
X129988857Y-91336952D01*
X129893619Y-91289333D01*
X129846000Y-91241714D01*
X129798380Y-91146476D01*
X129798380Y-90479809D02*
X129798380Y-89860761D01*
X130179333Y-90194095D01*
X130179333Y-90051238D01*
X130226952Y-89956000D01*
X130274571Y-89908380D01*
X130369809Y-89860761D01*
X130607904Y-89860761D01*
X130703142Y-89908380D01*
X130750761Y-89956000D01*
X130798380Y-90051238D01*
X130798380Y-90336952D01*
X130750761Y-90432190D01*
X130703142Y-90479809D01*
X119848380Y-93217904D02*
X120657904Y-93217904D01*
X120753142Y-93170285D01*
X120800761Y-93122666D01*
X120848380Y-93027428D01*
X120848380Y-92836952D01*
X120800761Y-92741714D01*
X120753142Y-92694095D01*
X120657904Y-92646476D01*
X119848380Y-92646476D01*
X120848380Y-91646476D02*
X120848380Y-92217904D01*
X120848380Y-91932190D02*
X119848380Y-91932190D01*
X119991238Y-92027428D01*
X120086476Y-92122666D01*
X120134095Y-92217904D01*
%TO.C,R2*%
X117387714Y-83848380D02*
X116816285Y-83848380D01*
X117102000Y-83848380D02*
X117102000Y-82848380D01*
X117006761Y-82991238D01*
X116911523Y-83086476D01*
X116816285Y-83134095D01*
X117816285Y-83848380D02*
X117816285Y-82848380D01*
X118387714Y-83848380D02*
X117959142Y-83276952D01*
X118387714Y-82848380D02*
X117816285Y-83419809D01*
X117435333Y-81478380D02*
X117102000Y-81002190D01*
X116863904Y-81478380D02*
X116863904Y-80478380D01*
X117244857Y-80478380D01*
X117340095Y-80526000D01*
X117387714Y-80573619D01*
X117435333Y-80668857D01*
X117435333Y-80811714D01*
X117387714Y-80906952D01*
X117340095Y-80954571D01*
X117244857Y-81002190D01*
X116863904Y-81002190D01*
X117816285Y-80573619D02*
X117863904Y-80526000D01*
X117959142Y-80478380D01*
X118197238Y-80478380D01*
X118292476Y-80526000D01*
X118340095Y-80573619D01*
X118387714Y-80668857D01*
X118387714Y-80764095D01*
X118340095Y-80906952D01*
X117768666Y-81478380D01*
X118387714Y-81478380D01*
%TO.C,R1*%
X117387714Y-87404380D02*
X116816285Y-87404380D01*
X117102000Y-87404380D02*
X117102000Y-86404380D01*
X117006761Y-86547238D01*
X116911523Y-86642476D01*
X116816285Y-86690095D01*
X117816285Y-87404380D02*
X117816285Y-86404380D01*
X118387714Y-87404380D02*
X117959142Y-86832952D01*
X118387714Y-86404380D02*
X117816285Y-86975809D01*
X117435333Y-85034380D02*
X117102000Y-84558190D01*
X116863904Y-85034380D02*
X116863904Y-84034380D01*
X117244857Y-84034380D01*
X117340095Y-84082000D01*
X117387714Y-84129619D01*
X117435333Y-84224857D01*
X117435333Y-84367714D01*
X117387714Y-84462952D01*
X117340095Y-84510571D01*
X117244857Y-84558190D01*
X116863904Y-84558190D01*
X118387714Y-85034380D02*
X117816285Y-85034380D01*
X118102000Y-85034380D02*
X118102000Y-84034380D01*
X118006761Y-84177238D01*
X117911523Y-84272476D01*
X117816285Y-84320095D01*
%TO.C,J7*%
X135878380Y-82906857D02*
X135402190Y-83240190D01*
X135878380Y-83478285D02*
X134878380Y-83478285D01*
X134878380Y-83097333D01*
X134926000Y-83002095D01*
X134973619Y-82954476D01*
X135068857Y-82906857D01*
X135211714Y-82906857D01*
X135306952Y-82954476D01*
X135354571Y-83002095D01*
X135402190Y-83097333D01*
X135402190Y-83478285D01*
X135878380Y-82478285D02*
X134878380Y-82478285D01*
X134878380Y-82240190D01*
X134926000Y-82097333D01*
X135021238Y-82002095D01*
X135116476Y-81954476D01*
X135306952Y-81906857D01*
X135449809Y-81906857D01*
X135640285Y-81954476D01*
X135735523Y-82002095D01*
X135830761Y-82097333D01*
X135878380Y-82240190D01*
X135878380Y-82478285D01*
X135402190Y-81287809D02*
X135878380Y-81287809D01*
X134878380Y-81621142D02*
X135402190Y-81287809D01*
X134878380Y-80954476D01*
X135497428Y-80621142D02*
X135497428Y-79859238D01*
X135830761Y-79430666D02*
X135878380Y-79287809D01*
X135878380Y-79049714D01*
X135830761Y-78954476D01*
X135783142Y-78906857D01*
X135687904Y-78859238D01*
X135592666Y-78859238D01*
X135497428Y-78906857D01*
X135449809Y-78954476D01*
X135402190Y-79049714D01*
X135354571Y-79240190D01*
X135306952Y-79335428D01*
X135259333Y-79383047D01*
X135164095Y-79430666D01*
X135068857Y-79430666D01*
X134973619Y-79383047D01*
X134926000Y-79335428D01*
X134878380Y-79240190D01*
X134878380Y-79002095D01*
X134926000Y-78859238D01*
X135354571Y-78430666D02*
X135354571Y-78097333D01*
X135878380Y-77954476D02*
X135878380Y-78430666D01*
X134878380Y-78430666D01*
X134878380Y-77954476D01*
X135878380Y-77002095D02*
X135878380Y-77573523D01*
X135878380Y-77287809D02*
X134878380Y-77287809D01*
X135021238Y-77383047D01*
X135116476Y-77478285D01*
X135164095Y-77573523D01*
X130222666Y-79716380D02*
X130222666Y-80430666D01*
X130175047Y-80573523D01*
X130079809Y-80668761D01*
X129936952Y-80716380D01*
X129841714Y-80716380D01*
X130603619Y-79716380D02*
X131270285Y-79716380D01*
X130841714Y-80716380D01*
%TO.C,J6*%
X135878380Y-87224857D02*
X135402190Y-87558190D01*
X135878380Y-87796285D02*
X134878380Y-87796285D01*
X134878380Y-87415333D01*
X134926000Y-87320095D01*
X134973619Y-87272476D01*
X135068857Y-87224857D01*
X135211714Y-87224857D01*
X135306952Y-87272476D01*
X135354571Y-87320095D01*
X135402190Y-87415333D01*
X135402190Y-87796285D01*
X135878380Y-86796285D02*
X134878380Y-86796285D01*
X134878380Y-86558190D01*
X134926000Y-86415333D01*
X135021238Y-86320095D01*
X135116476Y-86272476D01*
X135306952Y-86224857D01*
X135449809Y-86224857D01*
X135640285Y-86272476D01*
X135735523Y-86320095D01*
X135830761Y-86415333D01*
X135878380Y-86558190D01*
X135878380Y-86796285D01*
X135402190Y-85605809D02*
X135878380Y-85605809D01*
X134878380Y-85939142D02*
X135402190Y-85605809D01*
X134878380Y-85272476D01*
X135497428Y-84939142D02*
X135497428Y-84177238D01*
X135830761Y-83748666D02*
X135878380Y-83605809D01*
X135878380Y-83367714D01*
X135830761Y-83272476D01*
X135783142Y-83224857D01*
X135687904Y-83177238D01*
X135592666Y-83177238D01*
X135497428Y-83224857D01*
X135449809Y-83272476D01*
X135402190Y-83367714D01*
X135354571Y-83558190D01*
X135306952Y-83653428D01*
X135259333Y-83701047D01*
X135164095Y-83748666D01*
X135068857Y-83748666D01*
X134973619Y-83701047D01*
X134926000Y-83653428D01*
X134878380Y-83558190D01*
X134878380Y-83320095D01*
X134926000Y-83177238D01*
X135354571Y-82748666D02*
X135354571Y-82415333D01*
X135878380Y-82272476D02*
X135878380Y-82748666D01*
X134878380Y-82748666D01*
X134878380Y-82272476D01*
X134878380Y-81653428D02*
X134878380Y-81558190D01*
X134926000Y-81462952D01*
X134973619Y-81415333D01*
X135068857Y-81367714D01*
X135259333Y-81320095D01*
X135497428Y-81320095D01*
X135687904Y-81367714D01*
X135783142Y-81415333D01*
X135830761Y-81462952D01*
X135878380Y-81558190D01*
X135878380Y-81653428D01*
X135830761Y-81748666D01*
X135783142Y-81796285D01*
X135687904Y-81843904D01*
X135497428Y-81891523D01*
X135259333Y-81891523D01*
X135068857Y-81843904D01*
X134973619Y-81796285D01*
X134926000Y-81748666D01*
X134878380Y-81653428D01*
X130222666Y-84034380D02*
X130222666Y-84748666D01*
X130175047Y-84891523D01*
X130079809Y-84986761D01*
X129936952Y-85034380D01*
X129841714Y-85034380D01*
X131127428Y-84034380D02*
X130936952Y-84034380D01*
X130841714Y-84082000D01*
X130794095Y-84129619D01*
X130698857Y-84272476D01*
X130651238Y-84462952D01*
X130651238Y-84843904D01*
X130698857Y-84939142D01*
X130746476Y-84986761D01*
X130841714Y-85034380D01*
X131032190Y-85034380D01*
X131127428Y-84986761D01*
X131175047Y-84939142D01*
X131222666Y-84843904D01*
X131222666Y-84605809D01*
X131175047Y-84510571D01*
X131127428Y-84462952D01*
X131032190Y-84415333D01*
X130841714Y-84415333D01*
X130746476Y-84462952D01*
X130698857Y-84510571D01*
X130651238Y-84605809D01*
%TO.C,J5*%
X115971142Y-153598095D02*
X116018761Y-153645714D01*
X116066380Y-153788571D01*
X116066380Y-153883809D01*
X116018761Y-154026666D01*
X115923523Y-154121904D01*
X115828285Y-154169523D01*
X115637809Y-154217142D01*
X115494952Y-154217142D01*
X115304476Y-154169523D01*
X115209238Y-154121904D01*
X115114000Y-154026666D01*
X115066380Y-153883809D01*
X115066380Y-153788571D01*
X115114000Y-153645714D01*
X115161619Y-153598095D01*
X116066380Y-153026666D02*
X116018761Y-153121904D01*
X115971142Y-153169523D01*
X115875904Y-153217142D01*
X115590190Y-153217142D01*
X115494952Y-153169523D01*
X115447333Y-153121904D01*
X115399714Y-153026666D01*
X115399714Y-152883809D01*
X115447333Y-152788571D01*
X115494952Y-152740952D01*
X115590190Y-152693333D01*
X115875904Y-152693333D01*
X115971142Y-152740952D01*
X116018761Y-152788571D01*
X116066380Y-152883809D01*
X116066380Y-153026666D01*
X115399714Y-152264761D02*
X116066380Y-152264761D01*
X115494952Y-152264761D02*
X115447333Y-152217142D01*
X115399714Y-152121904D01*
X115399714Y-151979047D01*
X115447333Y-151883809D01*
X115542571Y-151836190D01*
X116066380Y-151836190D01*
X115399714Y-151360000D02*
X116066380Y-151360000D01*
X115494952Y-151360000D02*
X115447333Y-151312380D01*
X115399714Y-151217142D01*
X115399714Y-151074285D01*
X115447333Y-150979047D01*
X115542571Y-150931428D01*
X116066380Y-150931428D01*
X116161619Y-150693333D02*
X116161619Y-149931428D01*
X115066380Y-149502857D02*
X115066380Y-149407619D01*
X115114000Y-149312380D01*
X115161619Y-149264761D01*
X115256857Y-149217142D01*
X115447333Y-149169523D01*
X115685428Y-149169523D01*
X115875904Y-149217142D01*
X115971142Y-149264761D01*
X116018761Y-149312380D01*
X116066380Y-149407619D01*
X116066380Y-149502857D01*
X116018761Y-149598095D01*
X115971142Y-149645714D01*
X115875904Y-149693333D01*
X115685428Y-149740952D01*
X115447333Y-149740952D01*
X115256857Y-149693333D01*
X115161619Y-149645714D01*
X115114000Y-149598095D01*
X115066380Y-149502857D01*
X116066380Y-148217142D02*
X116066380Y-148788571D01*
X116066380Y-148502857D02*
X115066380Y-148502857D01*
X115209238Y-148598095D01*
X115304476Y-148693333D01*
X115352095Y-148788571D01*
X116066380Y-147883809D02*
X115399714Y-147360000D01*
X115399714Y-147883809D02*
X116066380Y-147360000D01*
X115066380Y-146788571D02*
X115066380Y-146693333D01*
X115114000Y-146598095D01*
X115161619Y-146550476D01*
X115256857Y-146502857D01*
X115447333Y-146455238D01*
X115685428Y-146455238D01*
X115875904Y-146502857D01*
X115971142Y-146550476D01*
X116018761Y-146598095D01*
X116066380Y-146693333D01*
X116066380Y-146788571D01*
X116018761Y-146883809D01*
X115971142Y-146931428D01*
X115875904Y-146979047D01*
X115685428Y-147026666D01*
X115447333Y-147026666D01*
X115256857Y-146979047D01*
X115161619Y-146931428D01*
X115114000Y-146883809D01*
X115066380Y-146788571D01*
X115399714Y-145598095D02*
X116066380Y-145598095D01*
X115018761Y-145836190D02*
X115733047Y-146074285D01*
X115733047Y-145455238D01*
X109140666Y-149312380D02*
X109140666Y-150026666D01*
X109093047Y-150169523D01*
X108997809Y-150264761D01*
X108854952Y-150312380D01*
X108759714Y-150312380D01*
X110093047Y-149312380D02*
X109616857Y-149312380D01*
X109569238Y-149788571D01*
X109616857Y-149740952D01*
X109712095Y-149693333D01*
X109950190Y-149693333D01*
X110045428Y-149740952D01*
X110093047Y-149788571D01*
X110140666Y-149883809D01*
X110140666Y-150121904D01*
X110093047Y-150217142D01*
X110045428Y-150264761D01*
X109950190Y-150312380D01*
X109712095Y-150312380D01*
X109616857Y-150264761D01*
X109569238Y-150217142D01*
%TO.C,J4*%
X131402952Y-146348380D02*
X131402952Y-145348380D01*
X131641047Y-145348380D01*
X131783904Y-145396000D01*
X131879142Y-145491238D01*
X131926761Y-145586476D01*
X131974380Y-145776952D01*
X131974380Y-145919809D01*
X131926761Y-146110285D01*
X131879142Y-146205523D01*
X131783904Y-146300761D01*
X131641047Y-146348380D01*
X131402952Y-146348380D01*
X132402952Y-146348380D02*
X132402952Y-145681714D01*
X132402952Y-145872190D02*
X132450571Y-145776952D01*
X132498190Y-145729333D01*
X132593428Y-145681714D01*
X132688666Y-145681714D01*
X133022000Y-146348380D02*
X133022000Y-145681714D01*
X133022000Y-145348380D02*
X132974380Y-145396000D01*
X133022000Y-145443619D01*
X133069619Y-145396000D01*
X133022000Y-145348380D01*
X133022000Y-145443619D01*
X133402952Y-145681714D02*
X133641047Y-146348380D01*
X133879142Y-145681714D01*
X134641047Y-146300761D02*
X134545809Y-146348380D01*
X134355333Y-146348380D01*
X134260095Y-146300761D01*
X134212476Y-146205523D01*
X134212476Y-145824571D01*
X134260095Y-145729333D01*
X134355333Y-145681714D01*
X134545809Y-145681714D01*
X134641047Y-145729333D01*
X134688666Y-145824571D01*
X134688666Y-145919809D01*
X134212476Y-146015047D01*
X132474380Y-123579333D02*
X133188666Y-123579333D01*
X133331523Y-123626952D01*
X133426761Y-123722190D01*
X133474380Y-123865047D01*
X133474380Y-123960285D01*
X132807714Y-122674571D02*
X133474380Y-122674571D01*
X132426761Y-122912666D02*
X133141047Y-123150761D01*
X133141047Y-122531714D01*
%TO.C,J2*%
X94305904Y-92349142D02*
X94258285Y-92396761D01*
X94115428Y-92444380D01*
X94020190Y-92444380D01*
X93877333Y-92396761D01*
X93782095Y-92301523D01*
X93734476Y-92206285D01*
X93686857Y-92015809D01*
X93686857Y-91872952D01*
X93734476Y-91682476D01*
X93782095Y-91587238D01*
X93877333Y-91492000D01*
X94020190Y-91444380D01*
X94115428Y-91444380D01*
X94258285Y-91492000D01*
X94305904Y-91539619D01*
X94877333Y-92444380D02*
X94782095Y-92396761D01*
X94734476Y-92349142D01*
X94686857Y-92253904D01*
X94686857Y-91968190D01*
X94734476Y-91872952D01*
X94782095Y-91825333D01*
X94877333Y-91777714D01*
X95020190Y-91777714D01*
X95115428Y-91825333D01*
X95163047Y-91872952D01*
X95210666Y-91968190D01*
X95210666Y-92253904D01*
X95163047Y-92349142D01*
X95115428Y-92396761D01*
X95020190Y-92444380D01*
X94877333Y-92444380D01*
X95639238Y-91777714D02*
X95639238Y-92444380D01*
X95639238Y-91872952D02*
X95686857Y-91825333D01*
X95782095Y-91777714D01*
X95924952Y-91777714D01*
X96020190Y-91825333D01*
X96067809Y-91920571D01*
X96067809Y-92444380D01*
X96544000Y-91777714D02*
X96544000Y-92444380D01*
X96544000Y-91872952D02*
X96591619Y-91825333D01*
X96686857Y-91777714D01*
X96829714Y-91777714D01*
X96924952Y-91825333D01*
X96972571Y-91920571D01*
X96972571Y-92444380D01*
X97210666Y-92539619D02*
X97972571Y-92539619D01*
X98401142Y-91444380D02*
X98496380Y-91444380D01*
X98591619Y-91492000D01*
X98639238Y-91539619D01*
X98686857Y-91634857D01*
X98734476Y-91825333D01*
X98734476Y-92063428D01*
X98686857Y-92253904D01*
X98639238Y-92349142D01*
X98591619Y-92396761D01*
X98496380Y-92444380D01*
X98401142Y-92444380D01*
X98305904Y-92396761D01*
X98258285Y-92349142D01*
X98210666Y-92253904D01*
X98163047Y-92063428D01*
X98163047Y-91825333D01*
X98210666Y-91634857D01*
X98258285Y-91539619D01*
X98305904Y-91492000D01*
X98401142Y-91444380D01*
X99686857Y-92444380D02*
X99115428Y-92444380D01*
X99401142Y-92444380D02*
X99401142Y-91444380D01*
X99305904Y-91587238D01*
X99210666Y-91682476D01*
X99115428Y-91730095D01*
X100020190Y-92444380D02*
X100544000Y-91777714D01*
X100020190Y-91777714D02*
X100544000Y-92444380D01*
X101115428Y-91444380D02*
X101210666Y-91444380D01*
X101305904Y-91492000D01*
X101353523Y-91539619D01*
X101401142Y-91634857D01*
X101448761Y-91825333D01*
X101448761Y-92063428D01*
X101401142Y-92253904D01*
X101353523Y-92349142D01*
X101305904Y-92396761D01*
X101210666Y-92444380D01*
X101115428Y-92444380D01*
X101020190Y-92396761D01*
X100972571Y-92349142D01*
X100924952Y-92253904D01*
X100877333Y-92063428D01*
X100877333Y-91825333D01*
X100924952Y-91634857D01*
X100972571Y-91539619D01*
X101020190Y-91492000D01*
X101115428Y-91444380D01*
X102305904Y-91777714D02*
X102305904Y-92444380D01*
X102067809Y-91396761D02*
X101829714Y-92111047D01*
X102448761Y-92111047D01*
X97496380Y-86185333D02*
X98210666Y-86185333D01*
X98353523Y-86232952D01*
X98448761Y-86328190D01*
X98496380Y-86471047D01*
X98496380Y-86566285D01*
X97591619Y-85756761D02*
X97544000Y-85709142D01*
X97496380Y-85613904D01*
X97496380Y-85375809D01*
X97544000Y-85280571D01*
X97591619Y-85232952D01*
X97686857Y-85185333D01*
X97782095Y-85185333D01*
X97924952Y-85232952D01*
X98496380Y-85804380D01*
X98496380Y-85185333D01*
%TO.C,C1*%
X129520380Y-96095047D02*
X129520380Y-96666476D01*
X129520380Y-96380761D02*
X128520380Y-96380761D01*
X128663238Y-96476000D01*
X128758476Y-96571238D01*
X128806095Y-96666476D01*
X128520380Y-95476000D02*
X128520380Y-95380761D01*
X128568000Y-95285523D01*
X128615619Y-95237904D01*
X128710857Y-95190285D01*
X128901333Y-95142666D01*
X129139428Y-95142666D01*
X129329904Y-95190285D01*
X129425142Y-95237904D01*
X129472761Y-95285523D01*
X129520380Y-95380761D01*
X129520380Y-95476000D01*
X129472761Y-95571238D01*
X129425142Y-95618857D01*
X129329904Y-95666476D01*
X129139428Y-95714095D01*
X128901333Y-95714095D01*
X128710857Y-95666476D01*
X128615619Y-95618857D01*
X128568000Y-95571238D01*
X128520380Y-95476000D01*
X128520380Y-94523619D02*
X128520380Y-94428380D01*
X128568000Y-94333142D01*
X128615619Y-94285523D01*
X128710857Y-94237904D01*
X128901333Y-94190285D01*
X129139428Y-94190285D01*
X129329904Y-94237904D01*
X129425142Y-94285523D01*
X129472761Y-94333142D01*
X129520380Y-94428380D01*
X129520380Y-94523619D01*
X129472761Y-94618857D01*
X129425142Y-94666476D01*
X129329904Y-94714095D01*
X129139428Y-94761714D01*
X128901333Y-94761714D01*
X128710857Y-94714095D01*
X128615619Y-94666476D01*
X128568000Y-94618857D01*
X128520380Y-94523619D01*
X128853714Y-93761714D02*
X129520380Y-93761714D01*
X128948952Y-93761714D02*
X128901333Y-93714095D01*
X128853714Y-93618857D01*
X128853714Y-93476000D01*
X128901333Y-93380761D01*
X128996571Y-93333142D01*
X129520380Y-93333142D01*
D12*
X131532285Y-95076000D02*
X131560857Y-95104571D01*
X131589428Y-95190285D01*
X131589428Y-95247428D01*
X131560857Y-95333142D01*
X131503714Y-95390285D01*
X131446571Y-95418857D01*
X131332285Y-95447428D01*
X131246571Y-95447428D01*
X131132285Y-95418857D01*
X131075142Y-95390285D01*
X131018000Y-95333142D01*
X130989428Y-95247428D01*
X130989428Y-95190285D01*
X131018000Y-95104571D01*
X131046571Y-95076000D01*
X131589428Y-94504571D02*
X131589428Y-94847428D01*
X131589428Y-94676000D02*
X130989428Y-94676000D01*
X131075142Y-94733142D01*
X131132285Y-94790285D01*
X131160857Y-94847428D01*
%TO.C,J1*%
D11*
X97369142Y-138916976D02*
X97416761Y-138964595D01*
X97464380Y-139107452D01*
X97464380Y-139202690D01*
X97416761Y-139345547D01*
X97321523Y-139440785D01*
X97226285Y-139488404D01*
X97035809Y-139536023D01*
X96892952Y-139536023D01*
X96702476Y-139488404D01*
X96607238Y-139440785D01*
X96512000Y-139345547D01*
X96464380Y-139202690D01*
X96464380Y-139107452D01*
X96512000Y-138964595D01*
X96559619Y-138916976D01*
X97464380Y-138345547D02*
X97416761Y-138440785D01*
X97369142Y-138488404D01*
X97273904Y-138536023D01*
X96988190Y-138536023D01*
X96892952Y-138488404D01*
X96845333Y-138440785D01*
X96797714Y-138345547D01*
X96797714Y-138202690D01*
X96845333Y-138107452D01*
X96892952Y-138059833D01*
X96988190Y-138012214D01*
X97273904Y-138012214D01*
X97369142Y-138059833D01*
X97416761Y-138107452D01*
X97464380Y-138202690D01*
X97464380Y-138345547D01*
X96797714Y-137583642D02*
X97464380Y-137583642D01*
X96892952Y-137583642D02*
X96845333Y-137536023D01*
X96797714Y-137440785D01*
X96797714Y-137297928D01*
X96845333Y-137202690D01*
X96940571Y-137155071D01*
X97464380Y-137155071D01*
X96797714Y-136678880D02*
X97464380Y-136678880D01*
X96892952Y-136678880D02*
X96845333Y-136631261D01*
X96797714Y-136536023D01*
X96797714Y-136393166D01*
X96845333Y-136297928D01*
X96940571Y-136250309D01*
X97464380Y-136250309D01*
X97559619Y-136012214D02*
X97559619Y-135250309D01*
X96464380Y-134821738D02*
X96464380Y-134726500D01*
X96512000Y-134631261D01*
X96559619Y-134583642D01*
X96654857Y-134536023D01*
X96845333Y-134488404D01*
X97083428Y-134488404D01*
X97273904Y-134536023D01*
X97369142Y-134583642D01*
X97416761Y-134631261D01*
X97464380Y-134726500D01*
X97464380Y-134821738D01*
X97416761Y-134916976D01*
X97369142Y-134964595D01*
X97273904Y-135012214D01*
X97083428Y-135059833D01*
X96845333Y-135059833D01*
X96654857Y-135012214D01*
X96559619Y-134964595D01*
X96512000Y-134916976D01*
X96464380Y-134821738D01*
X96559619Y-134107452D02*
X96512000Y-134059833D01*
X96464380Y-133964595D01*
X96464380Y-133726500D01*
X96512000Y-133631261D01*
X96559619Y-133583642D01*
X96654857Y-133536023D01*
X96750095Y-133536023D01*
X96892952Y-133583642D01*
X97464380Y-134155071D01*
X97464380Y-133536023D01*
X97464380Y-133202690D02*
X96797714Y-132678880D01*
X96797714Y-133202690D02*
X97464380Y-132678880D01*
X97464380Y-131774119D02*
X97464380Y-132345547D01*
X97464380Y-132059833D02*
X96464380Y-132059833D01*
X96607238Y-132155071D01*
X96702476Y-132250309D01*
X96750095Y-132345547D01*
X96464380Y-131440785D02*
X96464380Y-130821738D01*
X96845333Y-131155071D01*
X96845333Y-131012214D01*
X96892952Y-130916976D01*
X96940571Y-130869357D01*
X97035809Y-130821738D01*
X97273904Y-130821738D01*
X97369142Y-130869357D01*
X97416761Y-130916976D01*
X97464380Y-131012214D01*
X97464380Y-131297928D01*
X97416761Y-131393166D01*
X97369142Y-131440785D01*
X97559619Y-130631261D02*
X97559619Y-129869357D01*
X97464380Y-129059833D02*
X96988190Y-129393166D01*
X97464380Y-129631261D02*
X96464380Y-129631261D01*
X96464380Y-129250309D01*
X96512000Y-129155071D01*
X96559619Y-129107452D01*
X96654857Y-129059833D01*
X96797714Y-129059833D01*
X96892952Y-129107452D01*
X96940571Y-129155071D01*
X96988190Y-129250309D01*
X96988190Y-129631261D01*
X97464380Y-128488404D02*
X97416761Y-128583642D01*
X97369142Y-128631261D01*
X97273904Y-128678880D01*
X96988190Y-128678880D01*
X96892952Y-128631261D01*
X96845333Y-128583642D01*
X96797714Y-128488404D01*
X96797714Y-128345547D01*
X96845333Y-128250309D01*
X96892952Y-128202690D01*
X96988190Y-128155071D01*
X97273904Y-128155071D01*
X97369142Y-128202690D01*
X97416761Y-128250309D01*
X97464380Y-128345547D01*
X97464380Y-128488404D01*
X96797714Y-127821738D02*
X97464380Y-127631261D01*
X96988190Y-127440785D01*
X97464380Y-127250309D01*
X96797714Y-127059833D01*
X97559619Y-126916976D02*
X97559619Y-126155071D01*
X97464380Y-125440785D02*
X97464380Y-125916976D01*
X96464380Y-125916976D01*
X97416761Y-124726500D02*
X97464380Y-124821738D01*
X97464380Y-125012214D01*
X97416761Y-125107452D01*
X97321523Y-125155071D01*
X96940571Y-125155071D01*
X96845333Y-125107452D01*
X96797714Y-125012214D01*
X96797714Y-124821738D01*
X96845333Y-124726500D01*
X96940571Y-124678880D01*
X97035809Y-124678880D01*
X97131047Y-125155071D01*
X96797714Y-124393166D02*
X96797714Y-124012214D01*
X96464380Y-124250309D02*
X97321523Y-124250309D01*
X97416761Y-124202690D01*
X97464380Y-124107452D01*
X97464380Y-124012214D01*
X96797714Y-123821738D02*
X96797714Y-123440785D01*
X96464380Y-123678880D02*
X97321523Y-123678880D01*
X97416761Y-123631261D01*
X97464380Y-123536023D01*
X97464380Y-123440785D01*
X97416761Y-122726500D02*
X97464380Y-122821738D01*
X97464380Y-123012214D01*
X97416761Y-123107452D01*
X97321523Y-123155071D01*
X96940571Y-123155071D01*
X96845333Y-123107452D01*
X96797714Y-123012214D01*
X96797714Y-122821738D01*
X96845333Y-122726500D01*
X96940571Y-122678880D01*
X97035809Y-122678880D01*
X97131047Y-123155071D01*
X97464380Y-122250309D02*
X96797714Y-122250309D01*
X96988190Y-122250309D02*
X96892952Y-122202690D01*
X96845333Y-122155071D01*
X96797714Y-122059833D01*
X96797714Y-121964595D01*
X97559619Y-121869357D02*
X97559619Y-121107452D01*
X96940571Y-120536023D02*
X96940571Y-120869357D01*
X97464380Y-120869357D02*
X96464380Y-120869357D01*
X96464380Y-120393166D01*
X97464380Y-120012214D02*
X96797714Y-120012214D01*
X96464380Y-120012214D02*
X96512000Y-120059833D01*
X96559619Y-120012214D01*
X96512000Y-119964595D01*
X96464380Y-120012214D01*
X96559619Y-120012214D01*
X97464380Y-119536023D02*
X96797714Y-119536023D01*
X96988190Y-119536023D02*
X96892952Y-119488404D01*
X96845333Y-119440785D01*
X96797714Y-119345547D01*
X96797714Y-119250309D01*
X97416761Y-118964595D02*
X97464380Y-118869357D01*
X97464380Y-118678880D01*
X97416761Y-118583642D01*
X97321523Y-118536023D01*
X97273904Y-118536023D01*
X97178666Y-118583642D01*
X97131047Y-118678880D01*
X97131047Y-118821738D01*
X97083428Y-118916976D01*
X96988190Y-118964595D01*
X96940571Y-118964595D01*
X96845333Y-118916976D01*
X96797714Y-118821738D01*
X96797714Y-118678880D01*
X96845333Y-118583642D01*
X96797714Y-118250309D02*
X96797714Y-117869357D01*
X96464380Y-118107452D02*
X97321523Y-118107452D01*
X97416761Y-118059833D01*
X97464380Y-117964595D01*
X97464380Y-117869357D01*
%TO.C,J3*%
X123197000Y-146427381D02*
X123197000Y-145427381D01*
X124244619Y-146332143D02*
X124197000Y-146379762D01*
X124054142Y-146427381D01*
X123958904Y-146427381D01*
X123816047Y-146379762D01*
X123720809Y-146284524D01*
X123673190Y-146189286D01*
X123625571Y-145998810D01*
X123625571Y-145855953D01*
X123673190Y-145665477D01*
X123720809Y-145570239D01*
X123816047Y-145475001D01*
X123958904Y-145427381D01*
X124054142Y-145427381D01*
X124197000Y-145475001D01*
X124244619Y-145522620D01*
X123149380Y-123658334D02*
X123863666Y-123658334D01*
X124006523Y-123705953D01*
X124101761Y-123801191D01*
X124149380Y-123944048D01*
X124149380Y-124039286D01*
X123149380Y-123277381D02*
X123149380Y-122658334D01*
X123530333Y-122991667D01*
X123530333Y-122848810D01*
X123577952Y-122753572D01*
X123625571Y-122705953D01*
X123720809Y-122658334D01*
X123958904Y-122658334D01*
X124054142Y-122705953D01*
X124101761Y-122753572D01*
X124149380Y-122848810D01*
X124149380Y-123134524D01*
X124101761Y-123229762D01*
X124054142Y-123277381D01*
%TD*%
M02*
