%TF.GenerationSoftware,KiCad,Pcbnew,(5.1.10)-1*%
%TF.CreationDate,2022-04-01T18:04:23+02:00*%
%TF.ProjectId,Backplane,4261636b-706c-4616-9e65-2e6b69636164,rev?*%
%TF.SameCoordinates,Original*%
%TF.FileFunction,Soldermask,Top*%
%TF.FilePolarity,Negative*%
%FSLAX46Y46*%
G04 Gerber Fmt 4.6, Leading zero omitted, Abs format (unit mm)*
G04 Created by KiCad (PCBNEW (5.1.10)-1) date 2022-04-01 18:04:23*
%MOMM*%
%LPD*%
G01*
G04 APERTURE LIST*
%ADD10C,1.550000*%
%ADD11C,2.850000*%
%ADD12C,1.600000*%
%ADD13O,1.700000X1.700000*%
%ADD14R,1.700000X1.700000*%
%ADD15O,1.700000X1.950000*%
%ADD16O,3.500000X3.500000*%
%ADD17R,2.000000X1.905000*%
%ADD18O,2.000000X1.905000*%
%ADD19R,1.600000X2.400000*%
%ADD20O,1.600000X2.400000*%
G04 APERTURE END LIST*
%TO.C,J7*%
G36*
G01*
X130579550Y-100373000D02*
X131630450Y-100373000D01*
G75*
G02*
X131880000Y-100622550I0J-249550D01*
G01*
X131880000Y-101673450D01*
G75*
G02*
X131630450Y-101923000I-249550J0D01*
G01*
X130579550Y-101923000D01*
G75*
G02*
X130330000Y-101673450I0J249550D01*
G01*
X130330000Y-100622550D01*
G75*
G02*
X130579550Y-100373000I249550J0D01*
G01*
G37*
D10*
X128565000Y-101148000D03*
X126025000Y-101148000D03*
X123485000Y-101148000D03*
X120945000Y-101148000D03*
X118405000Y-101148000D03*
X115865000Y-101148000D03*
X113325000Y-101148000D03*
X110785000Y-101148000D03*
X108245000Y-101148000D03*
X105705000Y-101148000D03*
X103165000Y-101148000D03*
X100625000Y-101148000D03*
X98085000Y-101148000D03*
X95545000Y-101148000D03*
X93005000Y-101148000D03*
X90465000Y-101148000D03*
X87925000Y-101148000D03*
X85385000Y-101148000D03*
X82845000Y-101148000D03*
X80305000Y-101148000D03*
X77765000Y-101148000D03*
X75225000Y-101148000D03*
X72685000Y-101148000D03*
X70145000Y-101148000D03*
X67605000Y-101148000D03*
X65065000Y-101148000D03*
X62525000Y-101148000D03*
X59985000Y-101148000D03*
X57445000Y-101148000D03*
X54905000Y-101148000D03*
X52365000Y-101148000D03*
X131105000Y-98608000D03*
X128565000Y-98608000D03*
X126025000Y-98608000D03*
X123485000Y-98608000D03*
X120945000Y-98608000D03*
X118405000Y-98608000D03*
X115865000Y-98608000D03*
X113325000Y-98608000D03*
X110785000Y-98608000D03*
X108245000Y-98608000D03*
X105705000Y-98608000D03*
X103165000Y-98608000D03*
X100625000Y-98608000D03*
X98085000Y-98608000D03*
X95545000Y-98608000D03*
X93005000Y-98608000D03*
X90465000Y-98608000D03*
X87925000Y-98608000D03*
X85385000Y-98608000D03*
X82845000Y-98608000D03*
X80305000Y-98608000D03*
X77765000Y-98608000D03*
X75225000Y-98608000D03*
X72685000Y-98608000D03*
X70145000Y-98608000D03*
X67605000Y-98608000D03*
X65065000Y-98608000D03*
X62525000Y-98608000D03*
X59985000Y-98608000D03*
X57445000Y-98608000D03*
X54905000Y-98608000D03*
X52365000Y-98608000D03*
X131105000Y-96068000D03*
X128565000Y-96068000D03*
X126025000Y-96068000D03*
X123485000Y-96068000D03*
X120945000Y-96068000D03*
X118405000Y-96068000D03*
X115865000Y-96068000D03*
X113325000Y-96068000D03*
X110785000Y-96068000D03*
X108245000Y-96068000D03*
X105705000Y-96068000D03*
X103165000Y-96068000D03*
X100625000Y-96068000D03*
X98085000Y-96068000D03*
X95545000Y-96068000D03*
X93005000Y-96068000D03*
X90465000Y-96068000D03*
X87925000Y-96068000D03*
X85385000Y-96068000D03*
X82845000Y-96068000D03*
X80305000Y-96068000D03*
X77765000Y-96068000D03*
X75225000Y-96068000D03*
X72685000Y-96068000D03*
X70145000Y-96068000D03*
X67605000Y-96068000D03*
X65065000Y-96068000D03*
X62525000Y-96068000D03*
X59985000Y-96068000D03*
X57445000Y-96068000D03*
X54905000Y-96068000D03*
X52365000Y-96068000D03*
D11*
X136735000Y-98908000D03*
X46735000Y-98908000D03*
%TD*%
D12*
%TO.C,C1001*%
X77000000Y-141750000D03*
X77000000Y-144250000D03*
%TD*%
%TO.C,C1002*%
X80250000Y-144250000D03*
X80250000Y-141750000D03*
%TD*%
%TO.C,C1003*%
X77250000Y-132000000D03*
X77250000Y-129500000D03*
%TD*%
%TO.C,C1004*%
X77250000Y-138000000D03*
X77250000Y-135500000D03*
%TD*%
D11*
%TO.C,J1*%
X152235000Y-139658000D03*
X242235000Y-139658000D03*
D10*
X157865000Y-136818000D03*
X160405000Y-136818000D03*
X162945000Y-136818000D03*
X165485000Y-136818000D03*
X168025000Y-136818000D03*
X170565000Y-136818000D03*
X173105000Y-136818000D03*
X175645000Y-136818000D03*
X178185000Y-136818000D03*
X180725000Y-136818000D03*
X183265000Y-136818000D03*
X185805000Y-136818000D03*
X188345000Y-136818000D03*
X190885000Y-136818000D03*
X193425000Y-136818000D03*
X195965000Y-136818000D03*
X198505000Y-136818000D03*
X201045000Y-136818000D03*
X203585000Y-136818000D03*
X206125000Y-136818000D03*
X208665000Y-136818000D03*
X211205000Y-136818000D03*
X213745000Y-136818000D03*
X216285000Y-136818000D03*
X218825000Y-136818000D03*
X221365000Y-136818000D03*
X223905000Y-136818000D03*
X226445000Y-136818000D03*
X228985000Y-136818000D03*
X231525000Y-136818000D03*
X234065000Y-136818000D03*
X236605000Y-136818000D03*
X157865000Y-139358000D03*
X160405000Y-139358000D03*
X162945000Y-139358000D03*
X165485000Y-139358000D03*
X168025000Y-139358000D03*
X170565000Y-139358000D03*
X173105000Y-139358000D03*
X175645000Y-139358000D03*
X178185000Y-139358000D03*
X180725000Y-139358000D03*
X183265000Y-139358000D03*
X185805000Y-139358000D03*
X188345000Y-139358000D03*
X190885000Y-139358000D03*
X193425000Y-139358000D03*
X195965000Y-139358000D03*
X198505000Y-139358000D03*
X201045000Y-139358000D03*
X203585000Y-139358000D03*
X206125000Y-139358000D03*
X208665000Y-139358000D03*
X211205000Y-139358000D03*
X213745000Y-139358000D03*
X216285000Y-139358000D03*
X218825000Y-139358000D03*
X221365000Y-139358000D03*
X223905000Y-139358000D03*
X226445000Y-139358000D03*
X228985000Y-139358000D03*
X231525000Y-139358000D03*
X234065000Y-139358000D03*
X236605000Y-139358000D03*
X157865000Y-141898000D03*
X160405000Y-141898000D03*
X162945000Y-141898000D03*
X165485000Y-141898000D03*
X168025000Y-141898000D03*
X170565000Y-141898000D03*
X173105000Y-141898000D03*
X175645000Y-141898000D03*
X178185000Y-141898000D03*
X180725000Y-141898000D03*
X183265000Y-141898000D03*
X185805000Y-141898000D03*
X188345000Y-141898000D03*
X190885000Y-141898000D03*
X193425000Y-141898000D03*
X195965000Y-141898000D03*
X198505000Y-141898000D03*
X201045000Y-141898000D03*
X203585000Y-141898000D03*
X206125000Y-141898000D03*
X208665000Y-141898000D03*
X211205000Y-141898000D03*
X213745000Y-141898000D03*
X216285000Y-141898000D03*
X218825000Y-141898000D03*
X221365000Y-141898000D03*
X223905000Y-141898000D03*
X226445000Y-141898000D03*
X228985000Y-141898000D03*
X231525000Y-141898000D03*
X234065000Y-141898000D03*
G36*
G01*
X236079550Y-141123000D02*
X237130450Y-141123000D01*
G75*
G02*
X237380000Y-141372550I0J-249550D01*
G01*
X237380000Y-142423450D01*
G75*
G02*
X237130450Y-142673000I-249550J0D01*
G01*
X236079550Y-142673000D01*
G75*
G02*
X235830000Y-142423450I0J249550D01*
G01*
X235830000Y-141372550D01*
G75*
G02*
X236079550Y-141123000I249550J0D01*
G01*
G37*
%TD*%
D13*
%TO.C,J2*%
X242750000Y-128710000D03*
D14*
X242750000Y-131250000D03*
%TD*%
D13*
%TO.C,J3*%
X146250000Y-135500000D03*
D14*
X146250000Y-138040000D03*
%TD*%
%TO.C,J4*%
G36*
G01*
X235829550Y-100873000D02*
X236880450Y-100873000D01*
G75*
G02*
X237130000Y-101122550I0J-249550D01*
G01*
X237130000Y-102173450D01*
G75*
G02*
X236880450Y-102423000I-249550J0D01*
G01*
X235829550Y-102423000D01*
G75*
G02*
X235580000Y-102173450I0J249550D01*
G01*
X235580000Y-101122550D01*
G75*
G02*
X235829550Y-100873000I249550J0D01*
G01*
G37*
D10*
X233815000Y-101648000D03*
X231275000Y-101648000D03*
X228735000Y-101648000D03*
X226195000Y-101648000D03*
X223655000Y-101648000D03*
X221115000Y-101648000D03*
X218575000Y-101648000D03*
X216035000Y-101648000D03*
X213495000Y-101648000D03*
X210955000Y-101648000D03*
X208415000Y-101648000D03*
X205875000Y-101648000D03*
X203335000Y-101648000D03*
X200795000Y-101648000D03*
X198255000Y-101648000D03*
X195715000Y-101648000D03*
X193175000Y-101648000D03*
X190635000Y-101648000D03*
X188095000Y-101648000D03*
X185555000Y-101648000D03*
X183015000Y-101648000D03*
X180475000Y-101648000D03*
X177935000Y-101648000D03*
X175395000Y-101648000D03*
X172855000Y-101648000D03*
X170315000Y-101648000D03*
X167775000Y-101648000D03*
X165235000Y-101648000D03*
X162695000Y-101648000D03*
X160155000Y-101648000D03*
X157615000Y-101648000D03*
X236355000Y-99108000D03*
X233815000Y-99108000D03*
X231275000Y-99108000D03*
X228735000Y-99108000D03*
X226195000Y-99108000D03*
X223655000Y-99108000D03*
X221115000Y-99108000D03*
X218575000Y-99108000D03*
X216035000Y-99108000D03*
X213495000Y-99108000D03*
X210955000Y-99108000D03*
X208415000Y-99108000D03*
X205875000Y-99108000D03*
X203335000Y-99108000D03*
X200795000Y-99108000D03*
X198255000Y-99108000D03*
X195715000Y-99108000D03*
X193175000Y-99108000D03*
X190635000Y-99108000D03*
X188095000Y-99108000D03*
X185555000Y-99108000D03*
X183015000Y-99108000D03*
X180475000Y-99108000D03*
X177935000Y-99108000D03*
X175395000Y-99108000D03*
X172855000Y-99108000D03*
X170315000Y-99108000D03*
X167775000Y-99108000D03*
X165235000Y-99108000D03*
X162695000Y-99108000D03*
X160155000Y-99108000D03*
X157615000Y-99108000D03*
X236355000Y-96568000D03*
X233815000Y-96568000D03*
X231275000Y-96568000D03*
X228735000Y-96568000D03*
X226195000Y-96568000D03*
X223655000Y-96568000D03*
X221115000Y-96568000D03*
X218575000Y-96568000D03*
X216035000Y-96568000D03*
X213495000Y-96568000D03*
X210955000Y-96568000D03*
X208415000Y-96568000D03*
X205875000Y-96568000D03*
X203335000Y-96568000D03*
X200795000Y-96568000D03*
X198255000Y-96568000D03*
X195715000Y-96568000D03*
X193175000Y-96568000D03*
X190635000Y-96568000D03*
X188095000Y-96568000D03*
X185555000Y-96568000D03*
X183015000Y-96568000D03*
X180475000Y-96568000D03*
X177935000Y-96568000D03*
X175395000Y-96568000D03*
X172855000Y-96568000D03*
X170315000Y-96568000D03*
X167775000Y-96568000D03*
X165235000Y-96568000D03*
X162695000Y-96568000D03*
X160155000Y-96568000D03*
X157615000Y-96568000D03*
D11*
X241985000Y-99408000D03*
X151985000Y-99408000D03*
%TD*%
D14*
%TO.C,J5*%
X238750000Y-110500000D03*
D13*
X238750000Y-107960000D03*
%TD*%
D14*
%TO.C,J6*%
X146500000Y-100750000D03*
D13*
X146500000Y-98210000D03*
%TD*%
%TO.C,J8*%
X99710000Y-127750000D03*
D14*
X102250000Y-127750000D03*
%TD*%
%TO.C,J9*%
X49750000Y-111250000D03*
D13*
X49750000Y-108710000D03*
%TD*%
D11*
%TO.C,J10*%
X46735000Y-119658000D03*
X136735000Y-119658000D03*
D10*
X52365000Y-116818000D03*
X54905000Y-116818000D03*
X57445000Y-116818000D03*
X59985000Y-116818000D03*
X62525000Y-116818000D03*
X65065000Y-116818000D03*
X67605000Y-116818000D03*
X70145000Y-116818000D03*
X72685000Y-116818000D03*
X75225000Y-116818000D03*
X77765000Y-116818000D03*
X80305000Y-116818000D03*
X82845000Y-116818000D03*
X85385000Y-116818000D03*
X87925000Y-116818000D03*
X90465000Y-116818000D03*
X93005000Y-116818000D03*
X95545000Y-116818000D03*
X98085000Y-116818000D03*
X100625000Y-116818000D03*
X103165000Y-116818000D03*
X105705000Y-116818000D03*
X108245000Y-116818000D03*
X110785000Y-116818000D03*
X113325000Y-116818000D03*
X115865000Y-116818000D03*
X118405000Y-116818000D03*
X120945000Y-116818000D03*
X123485000Y-116818000D03*
X126025000Y-116818000D03*
X128565000Y-116818000D03*
X131105000Y-116818000D03*
X52365000Y-119358000D03*
X54905000Y-119358000D03*
X57445000Y-119358000D03*
X59985000Y-119358000D03*
X62525000Y-119358000D03*
X65065000Y-119358000D03*
X67605000Y-119358000D03*
X70145000Y-119358000D03*
X72685000Y-119358000D03*
X75225000Y-119358000D03*
X77765000Y-119358000D03*
X80305000Y-119358000D03*
X82845000Y-119358000D03*
X85385000Y-119358000D03*
X87925000Y-119358000D03*
X90465000Y-119358000D03*
X93005000Y-119358000D03*
X95545000Y-119358000D03*
X98085000Y-119358000D03*
X100625000Y-119358000D03*
X103165000Y-119358000D03*
X105705000Y-119358000D03*
X108245000Y-119358000D03*
X110785000Y-119358000D03*
X113325000Y-119358000D03*
X115865000Y-119358000D03*
X118405000Y-119358000D03*
X120945000Y-119358000D03*
X123485000Y-119358000D03*
X126025000Y-119358000D03*
X128565000Y-119358000D03*
X131105000Y-119358000D03*
X52365000Y-121898000D03*
X54905000Y-121898000D03*
X57445000Y-121898000D03*
X59985000Y-121898000D03*
X62525000Y-121898000D03*
X65065000Y-121898000D03*
X67605000Y-121898000D03*
X70145000Y-121898000D03*
X72685000Y-121898000D03*
X75225000Y-121898000D03*
X77765000Y-121898000D03*
X80305000Y-121898000D03*
X82845000Y-121898000D03*
X85385000Y-121898000D03*
X87925000Y-121898000D03*
X90465000Y-121898000D03*
X93005000Y-121898000D03*
X95545000Y-121898000D03*
X98085000Y-121898000D03*
X100625000Y-121898000D03*
X103165000Y-121898000D03*
X105705000Y-121898000D03*
X108245000Y-121898000D03*
X110785000Y-121898000D03*
X113325000Y-121898000D03*
X115865000Y-121898000D03*
X118405000Y-121898000D03*
X120945000Y-121898000D03*
X123485000Y-121898000D03*
X126025000Y-121898000D03*
X128565000Y-121898000D03*
G36*
G01*
X130579550Y-121123000D02*
X131630450Y-121123000D01*
G75*
G02*
X131880000Y-121372550I0J-249550D01*
G01*
X131880000Y-122423450D01*
G75*
G02*
X131630450Y-122673000I-249550J0D01*
G01*
X130579550Y-122673000D01*
G75*
G02*
X130330000Y-122423450I0J249550D01*
G01*
X130330000Y-121372550D01*
G75*
G02*
X130579550Y-121123000I249550J0D01*
G01*
G37*
%TD*%
D13*
%TO.C,J11*%
X106210000Y-127750000D03*
D14*
X108750000Y-127750000D03*
%TD*%
D13*
%TO.C,J12*%
X45750000Y-108710000D03*
D14*
X45750000Y-111250000D03*
%TD*%
%TO.C,J13*%
G36*
G01*
X104650000Y-140225000D02*
X104650000Y-138775000D01*
G75*
G02*
X104900000Y-138525000I250000J0D01*
G01*
X106100000Y-138525000D01*
G75*
G02*
X106350000Y-138775000I0J-250000D01*
G01*
X106350000Y-140225000D01*
G75*
G02*
X106100000Y-140475000I-250000J0D01*
G01*
X104900000Y-140475000D01*
G75*
G02*
X104650000Y-140225000I0J250000D01*
G01*
G37*
D15*
X108000000Y-139500000D03*
X110500000Y-139500000D03*
X113000000Y-139500000D03*
X115500000Y-139500000D03*
%TD*%
%TO.C,J14*%
G36*
G01*
X235829550Y-121123000D02*
X236880450Y-121123000D01*
G75*
G02*
X237130000Y-121372550I0J-249550D01*
G01*
X237130000Y-122423450D01*
G75*
G02*
X236880450Y-122673000I-249550J0D01*
G01*
X235829550Y-122673000D01*
G75*
G02*
X235580000Y-122423450I0J249550D01*
G01*
X235580000Y-121372550D01*
G75*
G02*
X235829550Y-121123000I249550J0D01*
G01*
G37*
D10*
X233815000Y-121898000D03*
X231275000Y-121898000D03*
X228735000Y-121898000D03*
X226195000Y-121898000D03*
X223655000Y-121898000D03*
X221115000Y-121898000D03*
X218575000Y-121898000D03*
X216035000Y-121898000D03*
X213495000Y-121898000D03*
X210955000Y-121898000D03*
X208415000Y-121898000D03*
X205875000Y-121898000D03*
X203335000Y-121898000D03*
X200795000Y-121898000D03*
X198255000Y-121898000D03*
X195715000Y-121898000D03*
X193175000Y-121898000D03*
X190635000Y-121898000D03*
X188095000Y-121898000D03*
X185555000Y-121898000D03*
X183015000Y-121898000D03*
X180475000Y-121898000D03*
X177935000Y-121898000D03*
X175395000Y-121898000D03*
X172855000Y-121898000D03*
X170315000Y-121898000D03*
X167775000Y-121898000D03*
X165235000Y-121898000D03*
X162695000Y-121898000D03*
X160155000Y-121898000D03*
X157615000Y-121898000D03*
X236355000Y-119358000D03*
X233815000Y-119358000D03*
X231275000Y-119358000D03*
X228735000Y-119358000D03*
X226195000Y-119358000D03*
X223655000Y-119358000D03*
X221115000Y-119358000D03*
X218575000Y-119358000D03*
X216035000Y-119358000D03*
X213495000Y-119358000D03*
X210955000Y-119358000D03*
X208415000Y-119358000D03*
X205875000Y-119358000D03*
X203335000Y-119358000D03*
X200795000Y-119358000D03*
X198255000Y-119358000D03*
X195715000Y-119358000D03*
X193175000Y-119358000D03*
X190635000Y-119358000D03*
X188095000Y-119358000D03*
X185555000Y-119358000D03*
X183015000Y-119358000D03*
X180475000Y-119358000D03*
X177935000Y-119358000D03*
X175395000Y-119358000D03*
X172855000Y-119358000D03*
X170315000Y-119358000D03*
X167775000Y-119358000D03*
X165235000Y-119358000D03*
X162695000Y-119358000D03*
X160155000Y-119358000D03*
X157615000Y-119358000D03*
X236355000Y-116818000D03*
X233815000Y-116818000D03*
X231275000Y-116818000D03*
X228735000Y-116818000D03*
X226195000Y-116818000D03*
X223655000Y-116818000D03*
X221115000Y-116818000D03*
X218575000Y-116818000D03*
X216035000Y-116818000D03*
X213495000Y-116818000D03*
X210955000Y-116818000D03*
X208415000Y-116818000D03*
X205875000Y-116818000D03*
X203335000Y-116818000D03*
X200795000Y-116818000D03*
X198255000Y-116818000D03*
X195715000Y-116818000D03*
X193175000Y-116818000D03*
X190635000Y-116818000D03*
X188095000Y-116818000D03*
X185555000Y-116818000D03*
X183015000Y-116818000D03*
X180475000Y-116818000D03*
X177935000Y-116818000D03*
X175395000Y-116818000D03*
X172855000Y-116818000D03*
X170315000Y-116818000D03*
X167775000Y-116818000D03*
X165235000Y-116818000D03*
X162695000Y-116818000D03*
X160155000Y-116818000D03*
X157615000Y-116818000D03*
D11*
X241985000Y-119658000D03*
X151985000Y-119658000D03*
%TD*%
D14*
%TO.C,J15*%
X243250000Y-110500000D03*
D13*
X243250000Y-107960000D03*
%TD*%
D14*
%TO.C,J16*%
X146750000Y-119500000D03*
D13*
X146750000Y-116960000D03*
%TD*%
D14*
%TO.C,J1001*%
X107500000Y-134500000D03*
D13*
X110040000Y-134500000D03*
X112580000Y-134500000D03*
%TD*%
%TO.C,J1002*%
X92290000Y-134500000D03*
X89750000Y-134500000D03*
D14*
X87210000Y-134500000D03*
%TD*%
%TO.C,J1003*%
X96960000Y-134500000D03*
D13*
X99500000Y-134500000D03*
X102040000Y-134500000D03*
%TD*%
D15*
%TO.C,J1004*%
X98250000Y-139500000D03*
X95750000Y-139500000D03*
X93250000Y-139500000D03*
X90750000Y-139500000D03*
G36*
G01*
X87400000Y-140225000D02*
X87400000Y-138775000D01*
G75*
G02*
X87650000Y-138525000I250000J0D01*
G01*
X88850000Y-138525000D01*
G75*
G02*
X89100000Y-138775000I0J-250000D01*
G01*
X89100000Y-140225000D01*
G75*
G02*
X88850000Y-140475000I-250000J0D01*
G01*
X87650000Y-140475000D01*
G75*
G02*
X87400000Y-140225000I0J250000D01*
G01*
G37*
%TD*%
D16*
%TO.C,U1001*%
X121840000Y-136790000D03*
D17*
X138500000Y-134250000D03*
D18*
X138500000Y-136790000D03*
X138500000Y-139330000D03*
%TD*%
D19*
%TO.C,U1002*%
X45500000Y-144000000D03*
D20*
X73440000Y-128760000D03*
X48040000Y-144000000D03*
X70900000Y-128760000D03*
X50580000Y-144000000D03*
X68360000Y-128760000D03*
X53120000Y-144000000D03*
X65820000Y-128760000D03*
X55660000Y-144000000D03*
X63280000Y-128760000D03*
X58200000Y-144000000D03*
X60740000Y-128760000D03*
X60740000Y-144000000D03*
X58200000Y-128760000D03*
X63280000Y-144000000D03*
X55660000Y-128760000D03*
X65820000Y-144000000D03*
X53120000Y-128760000D03*
X68360000Y-144000000D03*
X50580000Y-128760000D03*
X70900000Y-144000000D03*
X48040000Y-128760000D03*
X73440000Y-144000000D03*
X45500000Y-128760000D03*
%TD*%
M02*
