%TF.GenerationSoftware,KiCad,Pcbnew,(5.1.10)-1*%
%TF.CreationDate,2022-04-01T18:04:23+02:00*%
%TF.ProjectId,Backplane,4261636b-706c-4616-9e65-2e6b69636164,rev?*%
%TF.SameCoordinates,Original*%
%TF.FileFunction,Legend,Top*%
%TF.FilePolarity,Positive*%
%FSLAX46Y46*%
G04 Gerber Fmt 4.6, Leading zero omitted, Abs format (unit mm)*
G04 Created by KiCad (PCBNEW (5.1.10)-1) date 2022-04-01 18:04:23*
%MOMM*%
%LPD*%
G01*
G04 APERTURE LIST*
%ADD10C,0.120000*%
%ADD11C,0.150000*%
G04 APERTURE END LIST*
D10*
%TO.C,J7*%
X49235000Y-102858000D02*
X134236000Y-102858000D01*
X49235000Y-97358000D02*
X49235000Y-102858000D01*
X50235000Y-97358000D02*
X49235000Y-97358000D01*
X50235000Y-94358000D02*
X50235000Y-97358000D01*
X133236000Y-94358000D02*
X50235000Y-94358000D01*
X133236000Y-97358000D02*
X133236000Y-94358000D01*
X134236000Y-97358000D02*
X133236000Y-97358000D01*
X134236000Y-102858000D02*
X134236000Y-97358000D01*
X130805000Y-104888000D02*
X131105000Y-104208000D01*
X131405000Y-104888000D02*
X130805000Y-104888000D01*
X131105000Y-104208000D02*
X131405000Y-104888000D01*
X44125000Y-104018000D02*
X139345000Y-104018000D01*
X44125000Y-93198000D02*
X44125000Y-104018000D01*
X139345000Y-93198000D02*
X44125000Y-93198000D01*
X139345000Y-104018000D02*
X139345000Y-93198000D01*
%TO.C,C1001*%
X78120000Y-141380000D02*
X78120000Y-144620000D01*
X75880000Y-141380000D02*
X75880000Y-144620000D01*
X78120000Y-141380000D02*
X78055000Y-141380000D01*
X75945000Y-141380000D02*
X75880000Y-141380000D01*
X78120000Y-144620000D02*
X78055000Y-144620000D01*
X75945000Y-144620000D02*
X75880000Y-144620000D01*
%TO.C,C1002*%
X79195000Y-144620000D02*
X79130000Y-144620000D01*
X81370000Y-144620000D02*
X81305000Y-144620000D01*
X79195000Y-141380000D02*
X79130000Y-141380000D01*
X81370000Y-141380000D02*
X81305000Y-141380000D01*
X79130000Y-141380000D02*
X79130000Y-144620000D01*
X81370000Y-141380000D02*
X81370000Y-144620000D01*
%TO.C,C1003*%
X76195000Y-132370000D02*
X76130000Y-132370000D01*
X78370000Y-132370000D02*
X78305000Y-132370000D01*
X76195000Y-129130000D02*
X76130000Y-129130000D01*
X78370000Y-129130000D02*
X78305000Y-129130000D01*
X76130000Y-129130000D02*
X76130000Y-132370000D01*
X78370000Y-129130000D02*
X78370000Y-132370000D01*
%TO.C,C1004*%
X76130000Y-138370000D02*
X76130000Y-135130000D01*
X78370000Y-138370000D02*
X78370000Y-135130000D01*
X76130000Y-138370000D02*
X76195000Y-138370000D01*
X78305000Y-138370000D02*
X78370000Y-138370000D01*
X76130000Y-135130000D02*
X76195000Y-135130000D01*
X78305000Y-135130000D02*
X78370000Y-135130000D01*
%TO.C,J1*%
X244845000Y-144768000D02*
X244845000Y-133948000D01*
X244845000Y-133948000D02*
X149625000Y-133948000D01*
X149625000Y-133948000D02*
X149625000Y-144768000D01*
X149625000Y-144768000D02*
X244845000Y-144768000D01*
X236605000Y-144958000D02*
X236905000Y-145638000D01*
X236905000Y-145638000D02*
X236305000Y-145638000D01*
X236305000Y-145638000D02*
X236605000Y-144958000D01*
X239736000Y-143608000D02*
X239736000Y-138108000D01*
X239736000Y-138108000D02*
X238736000Y-138108000D01*
X238736000Y-138108000D02*
X238736000Y-135108000D01*
X238736000Y-135108000D02*
X155735000Y-135108000D01*
X155735000Y-135108000D02*
X155735000Y-138108000D01*
X155735000Y-138108000D02*
X154735000Y-138108000D01*
X154735000Y-138108000D02*
X154735000Y-143608000D01*
X154735000Y-143608000D02*
X239736000Y-143608000D01*
%TO.C,J2*%
X242750000Y-132580000D02*
X241420000Y-132580000D01*
X241420000Y-132580000D02*
X241420000Y-131250000D01*
X241420000Y-129980000D02*
X241420000Y-127380000D01*
X244080000Y-127380000D02*
X241420000Y-127380000D01*
X244080000Y-129980000D02*
X244080000Y-127380000D01*
X244080000Y-129980000D02*
X241420000Y-129980000D01*
%TO.C,J3*%
X146250000Y-139370000D02*
X144920000Y-139370000D01*
X144920000Y-139370000D02*
X144920000Y-138040000D01*
X144920000Y-136770000D02*
X144920000Y-134170000D01*
X147580000Y-134170000D02*
X144920000Y-134170000D01*
X147580000Y-136770000D02*
X147580000Y-134170000D01*
X147580000Y-136770000D02*
X144920000Y-136770000D01*
%TO.C,J4*%
X154485000Y-103358000D02*
X239486000Y-103358000D01*
X154485000Y-97858000D02*
X154485000Y-103358000D01*
X155485000Y-97858000D02*
X154485000Y-97858000D01*
X155485000Y-94858000D02*
X155485000Y-97858000D01*
X238486000Y-94858000D02*
X155485000Y-94858000D01*
X238486000Y-97858000D02*
X238486000Y-94858000D01*
X239486000Y-97858000D02*
X238486000Y-97858000D01*
X239486000Y-103358000D02*
X239486000Y-97858000D01*
X236055000Y-105388000D02*
X236355000Y-104708000D01*
X236655000Y-105388000D02*
X236055000Y-105388000D01*
X236355000Y-104708000D02*
X236655000Y-105388000D01*
X149375000Y-104518000D02*
X244595000Y-104518000D01*
X149375000Y-93698000D02*
X149375000Y-104518000D01*
X244595000Y-93698000D02*
X149375000Y-93698000D01*
X244595000Y-104518000D02*
X244595000Y-93698000D01*
%TO.C,J5*%
X240080000Y-109230000D02*
X237420000Y-109230000D01*
X240080000Y-109230000D02*
X240080000Y-106630000D01*
X240080000Y-106630000D02*
X237420000Y-106630000D01*
X237420000Y-109230000D02*
X237420000Y-106630000D01*
X237420000Y-111830000D02*
X237420000Y-110500000D01*
X238750000Y-111830000D02*
X237420000Y-111830000D01*
%TO.C,J6*%
X147830000Y-99480000D02*
X145170000Y-99480000D01*
X147830000Y-99480000D02*
X147830000Y-96880000D01*
X147830000Y-96880000D02*
X145170000Y-96880000D01*
X145170000Y-99480000D02*
X145170000Y-96880000D01*
X145170000Y-102080000D02*
X145170000Y-100750000D01*
X146500000Y-102080000D02*
X145170000Y-102080000D01*
%TO.C,J8*%
X103580000Y-127750000D02*
X103580000Y-129080000D01*
X103580000Y-129080000D02*
X102250000Y-129080000D01*
X100980000Y-129080000D02*
X98380000Y-129080000D01*
X98380000Y-126420000D02*
X98380000Y-129080000D01*
X100980000Y-126420000D02*
X98380000Y-126420000D01*
X100980000Y-126420000D02*
X100980000Y-129080000D01*
%TO.C,J9*%
X51080000Y-109980000D02*
X48420000Y-109980000D01*
X51080000Y-109980000D02*
X51080000Y-107380000D01*
X51080000Y-107380000D02*
X48420000Y-107380000D01*
X48420000Y-109980000D02*
X48420000Y-107380000D01*
X48420000Y-112580000D02*
X48420000Y-111250000D01*
X49750000Y-112580000D02*
X48420000Y-112580000D01*
%TO.C,J10*%
X139345000Y-124768000D02*
X139345000Y-113948000D01*
X139345000Y-113948000D02*
X44125000Y-113948000D01*
X44125000Y-113948000D02*
X44125000Y-124768000D01*
X44125000Y-124768000D02*
X139345000Y-124768000D01*
X131105000Y-124958000D02*
X131405000Y-125638000D01*
X131405000Y-125638000D02*
X130805000Y-125638000D01*
X130805000Y-125638000D02*
X131105000Y-124958000D01*
X134236000Y-123608000D02*
X134236000Y-118108000D01*
X134236000Y-118108000D02*
X133236000Y-118108000D01*
X133236000Y-118108000D02*
X133236000Y-115108000D01*
X133236000Y-115108000D02*
X50235000Y-115108000D01*
X50235000Y-115108000D02*
X50235000Y-118108000D01*
X50235000Y-118108000D02*
X49235000Y-118108000D01*
X49235000Y-118108000D02*
X49235000Y-123608000D01*
X49235000Y-123608000D02*
X134236000Y-123608000D01*
%TO.C,J11*%
X110080000Y-127750000D02*
X110080000Y-129080000D01*
X110080000Y-129080000D02*
X108750000Y-129080000D01*
X107480000Y-129080000D02*
X104880000Y-129080000D01*
X104880000Y-126420000D02*
X104880000Y-129080000D01*
X107480000Y-126420000D02*
X104880000Y-126420000D01*
X107480000Y-126420000D02*
X107480000Y-129080000D01*
%TO.C,J12*%
X45750000Y-112580000D02*
X44420000Y-112580000D01*
X44420000Y-112580000D02*
X44420000Y-111250000D01*
X44420000Y-109980000D02*
X44420000Y-107380000D01*
X47080000Y-107380000D02*
X44420000Y-107380000D01*
X47080000Y-109980000D02*
X47080000Y-107380000D01*
X47080000Y-109980000D02*
X44420000Y-109980000D01*
%TO.C,J13*%
X102890000Y-137790000D02*
X102890000Y-141810000D01*
X102890000Y-141810000D02*
X118110000Y-141810000D01*
X118110000Y-141810000D02*
X118110000Y-137790000D01*
X118110000Y-137790000D02*
X102890000Y-137790000D01*
X102890000Y-139500000D02*
X103390000Y-139500000D01*
X103390000Y-139500000D02*
X103390000Y-138290000D01*
X103390000Y-138290000D02*
X117610000Y-138290000D01*
X117610000Y-138290000D02*
X117610000Y-139500000D01*
X117610000Y-139500000D02*
X118110000Y-139500000D01*
X102890000Y-140310000D02*
X103890000Y-140310000D01*
X103890000Y-140310000D02*
X103890000Y-141810000D01*
X118110000Y-140310000D02*
X117110000Y-140310000D01*
X117110000Y-140310000D02*
X117110000Y-141810000D01*
X102590000Y-139610000D02*
X102590000Y-142110000D01*
X102590000Y-142110000D02*
X105090000Y-142110000D01*
%TO.C,J14*%
X154485000Y-123608000D02*
X239486000Y-123608000D01*
X154485000Y-118108000D02*
X154485000Y-123608000D01*
X155485000Y-118108000D02*
X154485000Y-118108000D01*
X155485000Y-115108000D02*
X155485000Y-118108000D01*
X238486000Y-115108000D02*
X155485000Y-115108000D01*
X238486000Y-118108000D02*
X238486000Y-115108000D01*
X239486000Y-118108000D02*
X238486000Y-118108000D01*
X239486000Y-123608000D02*
X239486000Y-118108000D01*
X236055000Y-125638000D02*
X236355000Y-124958000D01*
X236655000Y-125638000D02*
X236055000Y-125638000D01*
X236355000Y-124958000D02*
X236655000Y-125638000D01*
X149375000Y-124768000D02*
X244595000Y-124768000D01*
X149375000Y-113948000D02*
X149375000Y-124768000D01*
X244595000Y-113948000D02*
X149375000Y-113948000D01*
X244595000Y-124768000D02*
X244595000Y-113948000D01*
%TO.C,J15*%
X244580000Y-109230000D02*
X241920000Y-109230000D01*
X244580000Y-109230000D02*
X244580000Y-106630000D01*
X244580000Y-106630000D02*
X241920000Y-106630000D01*
X241920000Y-109230000D02*
X241920000Y-106630000D01*
X241920000Y-111830000D02*
X241920000Y-110500000D01*
X243250000Y-111830000D02*
X241920000Y-111830000D01*
%TO.C,J16*%
X148080000Y-118230000D02*
X145420000Y-118230000D01*
X148080000Y-118230000D02*
X148080000Y-115630000D01*
X148080000Y-115630000D02*
X145420000Y-115630000D01*
X145420000Y-118230000D02*
X145420000Y-115630000D01*
X145420000Y-120830000D02*
X145420000Y-119500000D01*
X146750000Y-120830000D02*
X145420000Y-120830000D01*
%TO.C,J1001*%
X113910000Y-135830000D02*
X113910000Y-133170000D01*
X108770000Y-135830000D02*
X113910000Y-135830000D01*
X108770000Y-133170000D02*
X113910000Y-133170000D01*
X108770000Y-135830000D02*
X108770000Y-133170000D01*
X107500000Y-135830000D02*
X106170000Y-135830000D01*
X106170000Y-135830000D02*
X106170000Y-134500000D01*
%TO.C,J1002*%
X85880000Y-135830000D02*
X85880000Y-134500000D01*
X87210000Y-135830000D02*
X85880000Y-135830000D01*
X88480000Y-135830000D02*
X88480000Y-133170000D01*
X88480000Y-133170000D02*
X93620000Y-133170000D01*
X88480000Y-135830000D02*
X93620000Y-135830000D01*
X93620000Y-135830000D02*
X93620000Y-133170000D01*
%TO.C,J1003*%
X103370000Y-135830000D02*
X103370000Y-133170000D01*
X98230000Y-135830000D02*
X103370000Y-135830000D01*
X98230000Y-133170000D02*
X103370000Y-133170000D01*
X98230000Y-135830000D02*
X98230000Y-133170000D01*
X96960000Y-135830000D02*
X95630000Y-135830000D01*
X95630000Y-135830000D02*
X95630000Y-134500000D01*
%TO.C,J1004*%
X85340000Y-142110000D02*
X87840000Y-142110000D01*
X85340000Y-139610000D02*
X85340000Y-142110000D01*
X99860000Y-140310000D02*
X99860000Y-141810000D01*
X100860000Y-140310000D02*
X99860000Y-140310000D01*
X86640000Y-140310000D02*
X86640000Y-141810000D01*
X85640000Y-140310000D02*
X86640000Y-140310000D01*
X100360000Y-139500000D02*
X100860000Y-139500000D01*
X100360000Y-138290000D02*
X100360000Y-139500000D01*
X86140000Y-138290000D02*
X100360000Y-138290000D01*
X86140000Y-139500000D02*
X86140000Y-138290000D01*
X85640000Y-139500000D02*
X86140000Y-139500000D01*
X100860000Y-137790000D02*
X85640000Y-137790000D01*
X100860000Y-141810000D02*
X100860000Y-137790000D01*
X85640000Y-141810000D02*
X100860000Y-141810000D01*
X85640000Y-137790000D02*
X85640000Y-141810000D01*
%TO.C,U1001*%
X134810000Y-131670000D02*
X134810000Y-141910000D01*
X125320000Y-131670000D02*
X125320000Y-141910000D01*
X134810000Y-131670000D02*
X125320000Y-131670000D01*
X134810000Y-141910000D02*
X125320000Y-141910000D01*
X118920000Y-131670000D02*
X118920000Y-132870000D01*
X118920000Y-134069000D02*
X118920000Y-135270000D01*
X118920000Y-136470000D02*
X118920000Y-137670000D01*
X118920000Y-138870000D02*
X118920000Y-140070000D01*
X118920000Y-141270000D02*
X118920000Y-141910000D01*
X125080000Y-131670000D02*
X123880000Y-131670000D01*
X122680000Y-131670000D02*
X121480000Y-131670000D01*
X120280000Y-131670000D02*
X119080000Y-131670000D01*
X125080000Y-141910000D02*
X123880000Y-141910000D01*
X122680000Y-141910000D02*
X121480000Y-141910000D01*
X120280000Y-141910000D02*
X119080000Y-141910000D01*
X137350000Y-134250000D02*
X134810000Y-134250000D01*
X137350000Y-136790000D02*
X134810000Y-136790000D01*
X137350000Y-139330000D02*
X134810000Y-139330000D01*
%TO.C,U1002*%
X44170000Y-137380000D02*
X44170000Y-142440000D01*
X44170000Y-142440000D02*
X74770000Y-142440000D01*
X74770000Y-142440000D02*
X74770000Y-130320000D01*
X74770000Y-130320000D02*
X44170000Y-130320000D01*
X44170000Y-130320000D02*
X44170000Y-135380000D01*
X44170000Y-135380000D02*
G75*
G02*
X44170000Y-137380000I0J-1000000D01*
G01*
%TO.C,J7*%
D11*
X140782619Y-98274666D02*
X140068333Y-98274666D01*
X139925476Y-98227047D01*
X139830238Y-98131809D01*
X139782619Y-97988952D01*
X139782619Y-97893714D01*
X140782619Y-98655619D02*
X140782619Y-99322285D01*
X139782619Y-98893714D01*
%TO.C,C1001*%
X79607142Y-144595238D02*
X79654761Y-144642857D01*
X79702380Y-144785714D01*
X79702380Y-144880952D01*
X79654761Y-145023809D01*
X79559523Y-145119047D01*
X79464285Y-145166666D01*
X79273809Y-145214285D01*
X79130952Y-145214285D01*
X78940476Y-145166666D01*
X78845238Y-145119047D01*
X78750000Y-145023809D01*
X78702380Y-144880952D01*
X78702380Y-144785714D01*
X78750000Y-144642857D01*
X78797619Y-144595238D01*
X79702380Y-143642857D02*
X79702380Y-144214285D01*
X79702380Y-143928571D02*
X78702380Y-143928571D01*
X78845238Y-144023809D01*
X78940476Y-144119047D01*
X78988095Y-144214285D01*
X78702380Y-143023809D02*
X78702380Y-142928571D01*
X78750000Y-142833333D01*
X78797619Y-142785714D01*
X78892857Y-142738095D01*
X79083333Y-142690476D01*
X79321428Y-142690476D01*
X79511904Y-142738095D01*
X79607142Y-142785714D01*
X79654761Y-142833333D01*
X79702380Y-142928571D01*
X79702380Y-143023809D01*
X79654761Y-143119047D01*
X79607142Y-143166666D01*
X79511904Y-143214285D01*
X79321428Y-143261904D01*
X79083333Y-143261904D01*
X78892857Y-143214285D01*
X78797619Y-143166666D01*
X78750000Y-143119047D01*
X78702380Y-143023809D01*
X78702380Y-142071428D02*
X78702380Y-141976190D01*
X78750000Y-141880952D01*
X78797619Y-141833333D01*
X78892857Y-141785714D01*
X79083333Y-141738095D01*
X79321428Y-141738095D01*
X79511904Y-141785714D01*
X79607142Y-141833333D01*
X79654761Y-141880952D01*
X79702380Y-141976190D01*
X79702380Y-142071428D01*
X79654761Y-142166666D01*
X79607142Y-142214285D01*
X79511904Y-142261904D01*
X79321428Y-142309523D01*
X79083333Y-142309523D01*
X78892857Y-142261904D01*
X78797619Y-142214285D01*
X78750000Y-142166666D01*
X78702380Y-142071428D01*
X79702380Y-140785714D02*
X79702380Y-141357142D01*
X79702380Y-141071428D02*
X78702380Y-141071428D01*
X78845238Y-141166666D01*
X78940476Y-141261904D01*
X78988095Y-141357142D01*
%TO.C,C1002*%
X82857142Y-144595238D02*
X82904761Y-144642857D01*
X82952380Y-144785714D01*
X82952380Y-144880952D01*
X82904761Y-145023809D01*
X82809523Y-145119047D01*
X82714285Y-145166666D01*
X82523809Y-145214285D01*
X82380952Y-145214285D01*
X82190476Y-145166666D01*
X82095238Y-145119047D01*
X82000000Y-145023809D01*
X81952380Y-144880952D01*
X81952380Y-144785714D01*
X82000000Y-144642857D01*
X82047619Y-144595238D01*
X82952380Y-143642857D02*
X82952380Y-144214285D01*
X82952380Y-143928571D02*
X81952380Y-143928571D01*
X82095238Y-144023809D01*
X82190476Y-144119047D01*
X82238095Y-144214285D01*
X81952380Y-143023809D02*
X81952380Y-142928571D01*
X82000000Y-142833333D01*
X82047619Y-142785714D01*
X82142857Y-142738095D01*
X82333333Y-142690476D01*
X82571428Y-142690476D01*
X82761904Y-142738095D01*
X82857142Y-142785714D01*
X82904761Y-142833333D01*
X82952380Y-142928571D01*
X82952380Y-143023809D01*
X82904761Y-143119047D01*
X82857142Y-143166666D01*
X82761904Y-143214285D01*
X82571428Y-143261904D01*
X82333333Y-143261904D01*
X82142857Y-143214285D01*
X82047619Y-143166666D01*
X82000000Y-143119047D01*
X81952380Y-143023809D01*
X81952380Y-142071428D02*
X81952380Y-141976190D01*
X82000000Y-141880952D01*
X82047619Y-141833333D01*
X82142857Y-141785714D01*
X82333333Y-141738095D01*
X82571428Y-141738095D01*
X82761904Y-141785714D01*
X82857142Y-141833333D01*
X82904761Y-141880952D01*
X82952380Y-141976190D01*
X82952380Y-142071428D01*
X82904761Y-142166666D01*
X82857142Y-142214285D01*
X82761904Y-142261904D01*
X82571428Y-142309523D01*
X82333333Y-142309523D01*
X82142857Y-142261904D01*
X82047619Y-142214285D01*
X82000000Y-142166666D01*
X81952380Y-142071428D01*
X82047619Y-141357142D02*
X82000000Y-141309523D01*
X81952380Y-141214285D01*
X81952380Y-140976190D01*
X82000000Y-140880952D01*
X82047619Y-140833333D01*
X82142857Y-140785714D01*
X82238095Y-140785714D01*
X82380952Y-140833333D01*
X82952380Y-141404761D01*
X82952380Y-140785714D01*
%TO.C,C1003*%
X79857142Y-132345238D02*
X79904761Y-132392857D01*
X79952380Y-132535714D01*
X79952380Y-132630952D01*
X79904761Y-132773809D01*
X79809523Y-132869047D01*
X79714285Y-132916666D01*
X79523809Y-132964285D01*
X79380952Y-132964285D01*
X79190476Y-132916666D01*
X79095238Y-132869047D01*
X79000000Y-132773809D01*
X78952380Y-132630952D01*
X78952380Y-132535714D01*
X79000000Y-132392857D01*
X79047619Y-132345238D01*
X79952380Y-131392857D02*
X79952380Y-131964285D01*
X79952380Y-131678571D02*
X78952380Y-131678571D01*
X79095238Y-131773809D01*
X79190476Y-131869047D01*
X79238095Y-131964285D01*
X78952380Y-130773809D02*
X78952380Y-130678571D01*
X79000000Y-130583333D01*
X79047619Y-130535714D01*
X79142857Y-130488095D01*
X79333333Y-130440476D01*
X79571428Y-130440476D01*
X79761904Y-130488095D01*
X79857142Y-130535714D01*
X79904761Y-130583333D01*
X79952380Y-130678571D01*
X79952380Y-130773809D01*
X79904761Y-130869047D01*
X79857142Y-130916666D01*
X79761904Y-130964285D01*
X79571428Y-131011904D01*
X79333333Y-131011904D01*
X79142857Y-130964285D01*
X79047619Y-130916666D01*
X79000000Y-130869047D01*
X78952380Y-130773809D01*
X78952380Y-129821428D02*
X78952380Y-129726190D01*
X79000000Y-129630952D01*
X79047619Y-129583333D01*
X79142857Y-129535714D01*
X79333333Y-129488095D01*
X79571428Y-129488095D01*
X79761904Y-129535714D01*
X79857142Y-129583333D01*
X79904761Y-129630952D01*
X79952380Y-129726190D01*
X79952380Y-129821428D01*
X79904761Y-129916666D01*
X79857142Y-129964285D01*
X79761904Y-130011904D01*
X79571428Y-130059523D01*
X79333333Y-130059523D01*
X79142857Y-130011904D01*
X79047619Y-129964285D01*
X79000000Y-129916666D01*
X78952380Y-129821428D01*
X78952380Y-129154761D02*
X78952380Y-128535714D01*
X79333333Y-128869047D01*
X79333333Y-128726190D01*
X79380952Y-128630952D01*
X79428571Y-128583333D01*
X79523809Y-128535714D01*
X79761904Y-128535714D01*
X79857142Y-128583333D01*
X79904761Y-128630952D01*
X79952380Y-128726190D01*
X79952380Y-129011904D01*
X79904761Y-129107142D01*
X79857142Y-129154761D01*
%TO.C,C1004*%
X75357142Y-138345238D02*
X75404761Y-138392857D01*
X75452380Y-138535714D01*
X75452380Y-138630952D01*
X75404761Y-138773809D01*
X75309523Y-138869047D01*
X75214285Y-138916666D01*
X75023809Y-138964285D01*
X74880952Y-138964285D01*
X74690476Y-138916666D01*
X74595238Y-138869047D01*
X74500000Y-138773809D01*
X74452380Y-138630952D01*
X74452380Y-138535714D01*
X74500000Y-138392857D01*
X74547619Y-138345238D01*
X75452380Y-137392857D02*
X75452380Y-137964285D01*
X75452380Y-137678571D02*
X74452380Y-137678571D01*
X74595238Y-137773809D01*
X74690476Y-137869047D01*
X74738095Y-137964285D01*
X74452380Y-136773809D02*
X74452380Y-136678571D01*
X74500000Y-136583333D01*
X74547619Y-136535714D01*
X74642857Y-136488095D01*
X74833333Y-136440476D01*
X75071428Y-136440476D01*
X75261904Y-136488095D01*
X75357142Y-136535714D01*
X75404761Y-136583333D01*
X75452380Y-136678571D01*
X75452380Y-136773809D01*
X75404761Y-136869047D01*
X75357142Y-136916666D01*
X75261904Y-136964285D01*
X75071428Y-137011904D01*
X74833333Y-137011904D01*
X74642857Y-136964285D01*
X74547619Y-136916666D01*
X74500000Y-136869047D01*
X74452380Y-136773809D01*
X74452380Y-135821428D02*
X74452380Y-135726190D01*
X74500000Y-135630952D01*
X74547619Y-135583333D01*
X74642857Y-135535714D01*
X74833333Y-135488095D01*
X75071428Y-135488095D01*
X75261904Y-135535714D01*
X75357142Y-135583333D01*
X75404761Y-135630952D01*
X75452380Y-135726190D01*
X75452380Y-135821428D01*
X75404761Y-135916666D01*
X75357142Y-135964285D01*
X75261904Y-136011904D01*
X75071428Y-136059523D01*
X74833333Y-136059523D01*
X74642857Y-136011904D01*
X74547619Y-135964285D01*
X74500000Y-135916666D01*
X74452380Y-135821428D01*
X74785714Y-134630952D02*
X75452380Y-134630952D01*
X74404761Y-134869047D02*
X75119047Y-135107142D01*
X75119047Y-134488095D01*
%TO.C,J1*%
X246282619Y-139024666D02*
X245568333Y-139024666D01*
X245425476Y-138977047D01*
X245330238Y-138881809D01*
X245282619Y-138738952D01*
X245282619Y-138643714D01*
X245282619Y-140024666D02*
X245282619Y-139453238D01*
X245282619Y-139738952D02*
X246282619Y-139738952D01*
X246139761Y-139643714D01*
X246044523Y-139548476D01*
X245996904Y-139453238D01*
%TO.C,J2*%
X242416666Y-133472380D02*
X242416666Y-134186666D01*
X242369047Y-134329523D01*
X242273809Y-134424761D01*
X242130952Y-134472380D01*
X242035714Y-134472380D01*
X242845238Y-133567619D02*
X242892857Y-133520000D01*
X242988095Y-133472380D01*
X243226190Y-133472380D01*
X243321428Y-133520000D01*
X243369047Y-133567619D01*
X243416666Y-133662857D01*
X243416666Y-133758095D01*
X243369047Y-133900952D01*
X242797619Y-134472380D01*
X243416666Y-134472380D01*
%TO.C,J3*%
X145916666Y-140262380D02*
X145916666Y-140976666D01*
X145869047Y-141119523D01*
X145773809Y-141214761D01*
X145630952Y-141262380D01*
X145535714Y-141262380D01*
X146297619Y-140262380D02*
X146916666Y-140262380D01*
X146583333Y-140643333D01*
X146726190Y-140643333D01*
X146821428Y-140690952D01*
X146869047Y-140738571D01*
X146916666Y-140833809D01*
X146916666Y-141071904D01*
X146869047Y-141167142D01*
X146821428Y-141214761D01*
X146726190Y-141262380D01*
X146440476Y-141262380D01*
X146345238Y-141214761D01*
X146297619Y-141167142D01*
%TO.C,J4*%
X246032619Y-98774666D02*
X245318333Y-98774666D01*
X245175476Y-98727047D01*
X245080238Y-98631809D01*
X245032619Y-98488952D01*
X245032619Y-98393714D01*
X245699285Y-99679428D02*
X245032619Y-99679428D01*
X246080238Y-99441333D02*
X245365952Y-99203238D01*
X245365952Y-99822285D01*
%TO.C,J5*%
X238416666Y-112722380D02*
X238416666Y-113436666D01*
X238369047Y-113579523D01*
X238273809Y-113674761D01*
X238130952Y-113722380D01*
X238035714Y-113722380D01*
X239369047Y-112722380D02*
X238892857Y-112722380D01*
X238845238Y-113198571D01*
X238892857Y-113150952D01*
X238988095Y-113103333D01*
X239226190Y-113103333D01*
X239321428Y-113150952D01*
X239369047Y-113198571D01*
X239416666Y-113293809D01*
X239416666Y-113531904D01*
X239369047Y-113627142D01*
X239321428Y-113674761D01*
X239226190Y-113722380D01*
X238988095Y-113722380D01*
X238892857Y-113674761D01*
X238845238Y-113627142D01*
%TO.C,J6*%
X146166666Y-102972380D02*
X146166666Y-103686666D01*
X146119047Y-103829523D01*
X146023809Y-103924761D01*
X145880952Y-103972380D01*
X145785714Y-103972380D01*
X147071428Y-102972380D02*
X146880952Y-102972380D01*
X146785714Y-103020000D01*
X146738095Y-103067619D01*
X146642857Y-103210476D01*
X146595238Y-103400952D01*
X146595238Y-103781904D01*
X146642857Y-103877142D01*
X146690476Y-103924761D01*
X146785714Y-103972380D01*
X146976190Y-103972380D01*
X147071428Y-103924761D01*
X147119047Y-103877142D01*
X147166666Y-103781904D01*
X147166666Y-103543809D01*
X147119047Y-103448571D01*
X147071428Y-103400952D01*
X146976190Y-103353333D01*
X146785714Y-103353333D01*
X146690476Y-103400952D01*
X146642857Y-103448571D01*
X146595238Y-103543809D01*
%TO.C,J8*%
X104472380Y-128083333D02*
X105186666Y-128083333D01*
X105329523Y-128130952D01*
X105424761Y-128226190D01*
X105472380Y-128369047D01*
X105472380Y-128464285D01*
X104900952Y-127464285D02*
X104853333Y-127559523D01*
X104805714Y-127607142D01*
X104710476Y-127654761D01*
X104662857Y-127654761D01*
X104567619Y-127607142D01*
X104520000Y-127559523D01*
X104472380Y-127464285D01*
X104472380Y-127273809D01*
X104520000Y-127178571D01*
X104567619Y-127130952D01*
X104662857Y-127083333D01*
X104710476Y-127083333D01*
X104805714Y-127130952D01*
X104853333Y-127178571D01*
X104900952Y-127273809D01*
X104900952Y-127464285D01*
X104948571Y-127559523D01*
X104996190Y-127607142D01*
X105091428Y-127654761D01*
X105281904Y-127654761D01*
X105377142Y-127607142D01*
X105424761Y-127559523D01*
X105472380Y-127464285D01*
X105472380Y-127273809D01*
X105424761Y-127178571D01*
X105377142Y-127130952D01*
X105281904Y-127083333D01*
X105091428Y-127083333D01*
X104996190Y-127130952D01*
X104948571Y-127178571D01*
X104900952Y-127273809D01*
%TO.C,J9*%
X49416666Y-113472380D02*
X49416666Y-114186666D01*
X49369047Y-114329523D01*
X49273809Y-114424761D01*
X49130952Y-114472380D01*
X49035714Y-114472380D01*
X49940476Y-114472380D02*
X50130952Y-114472380D01*
X50226190Y-114424761D01*
X50273809Y-114377142D01*
X50369047Y-114234285D01*
X50416666Y-114043809D01*
X50416666Y-113662857D01*
X50369047Y-113567619D01*
X50321428Y-113520000D01*
X50226190Y-113472380D01*
X50035714Y-113472380D01*
X49940476Y-113520000D01*
X49892857Y-113567619D01*
X49845238Y-113662857D01*
X49845238Y-113900952D01*
X49892857Y-113996190D01*
X49940476Y-114043809D01*
X50035714Y-114091428D01*
X50226190Y-114091428D01*
X50321428Y-114043809D01*
X50369047Y-113996190D01*
X50416666Y-113900952D01*
%TO.C,J10*%
X140782619Y-118548476D02*
X140068333Y-118548476D01*
X139925476Y-118500857D01*
X139830238Y-118405619D01*
X139782619Y-118262761D01*
X139782619Y-118167523D01*
X139782619Y-119548476D02*
X139782619Y-118977047D01*
X139782619Y-119262761D02*
X140782619Y-119262761D01*
X140639761Y-119167523D01*
X140544523Y-119072285D01*
X140496904Y-118977047D01*
X140782619Y-120167523D02*
X140782619Y-120262761D01*
X140735000Y-120358000D01*
X140687380Y-120405619D01*
X140592142Y-120453238D01*
X140401666Y-120500857D01*
X140163571Y-120500857D01*
X139973095Y-120453238D01*
X139877857Y-120405619D01*
X139830238Y-120358000D01*
X139782619Y-120262761D01*
X139782619Y-120167523D01*
X139830238Y-120072285D01*
X139877857Y-120024666D01*
X139973095Y-119977047D01*
X140163571Y-119929428D01*
X140401666Y-119929428D01*
X140592142Y-119977047D01*
X140687380Y-120024666D01*
X140735000Y-120072285D01*
X140782619Y-120167523D01*
%TO.C,J11*%
X110972380Y-128559523D02*
X111686666Y-128559523D01*
X111829523Y-128607142D01*
X111924761Y-128702380D01*
X111972380Y-128845238D01*
X111972380Y-128940476D01*
X111972380Y-127559523D02*
X111972380Y-128130952D01*
X111972380Y-127845238D02*
X110972380Y-127845238D01*
X111115238Y-127940476D01*
X111210476Y-128035714D01*
X111258095Y-128130952D01*
X111972380Y-126607142D02*
X111972380Y-127178571D01*
X111972380Y-126892857D02*
X110972380Y-126892857D01*
X111115238Y-126988095D01*
X111210476Y-127083333D01*
X111258095Y-127178571D01*
%TO.C,J12*%
X44940476Y-113472380D02*
X44940476Y-114186666D01*
X44892857Y-114329523D01*
X44797619Y-114424761D01*
X44654761Y-114472380D01*
X44559523Y-114472380D01*
X45940476Y-114472380D02*
X45369047Y-114472380D01*
X45654761Y-114472380D02*
X45654761Y-113472380D01*
X45559523Y-113615238D01*
X45464285Y-113710476D01*
X45369047Y-113758095D01*
X46321428Y-113567619D02*
X46369047Y-113520000D01*
X46464285Y-113472380D01*
X46702380Y-113472380D01*
X46797619Y-113520000D01*
X46845238Y-113567619D01*
X46892857Y-113662857D01*
X46892857Y-113758095D01*
X46845238Y-113900952D01*
X46273809Y-114472380D01*
X46892857Y-114472380D01*
%TO.C,J13*%
X109690476Y-136152380D02*
X109690476Y-136866666D01*
X109642857Y-137009523D01*
X109547619Y-137104761D01*
X109404761Y-137152380D01*
X109309523Y-137152380D01*
X110690476Y-137152380D02*
X110119047Y-137152380D01*
X110404761Y-137152380D02*
X110404761Y-136152380D01*
X110309523Y-136295238D01*
X110214285Y-136390476D01*
X110119047Y-136438095D01*
X111023809Y-136152380D02*
X111642857Y-136152380D01*
X111309523Y-136533333D01*
X111452380Y-136533333D01*
X111547619Y-136580952D01*
X111595238Y-136628571D01*
X111642857Y-136723809D01*
X111642857Y-136961904D01*
X111595238Y-137057142D01*
X111547619Y-137104761D01*
X111452380Y-137152380D01*
X111166666Y-137152380D01*
X111071428Y-137104761D01*
X111023809Y-137057142D01*
%TO.C,J14*%
X246032619Y-118548476D02*
X245318333Y-118548476D01*
X245175476Y-118500857D01*
X245080238Y-118405619D01*
X245032619Y-118262761D01*
X245032619Y-118167523D01*
X245032619Y-119548476D02*
X245032619Y-118977047D01*
X245032619Y-119262761D02*
X246032619Y-119262761D01*
X245889761Y-119167523D01*
X245794523Y-119072285D01*
X245746904Y-118977047D01*
X245699285Y-120405619D02*
X245032619Y-120405619D01*
X246080238Y-120167523D02*
X245365952Y-119929428D01*
X245365952Y-120548476D01*
%TO.C,J15*%
X242440476Y-112722380D02*
X242440476Y-113436666D01*
X242392857Y-113579523D01*
X242297619Y-113674761D01*
X242154761Y-113722380D01*
X242059523Y-113722380D01*
X243440476Y-113722380D02*
X242869047Y-113722380D01*
X243154761Y-113722380D02*
X243154761Y-112722380D01*
X243059523Y-112865238D01*
X242964285Y-112960476D01*
X242869047Y-113008095D01*
X244345238Y-112722380D02*
X243869047Y-112722380D01*
X243821428Y-113198571D01*
X243869047Y-113150952D01*
X243964285Y-113103333D01*
X244202380Y-113103333D01*
X244297619Y-113150952D01*
X244345238Y-113198571D01*
X244392857Y-113293809D01*
X244392857Y-113531904D01*
X244345238Y-113627142D01*
X244297619Y-113674761D01*
X244202380Y-113722380D01*
X243964285Y-113722380D01*
X243869047Y-113674761D01*
X243821428Y-113627142D01*
%TO.C,J16*%
X145940476Y-121722380D02*
X145940476Y-122436666D01*
X145892857Y-122579523D01*
X145797619Y-122674761D01*
X145654761Y-122722380D01*
X145559523Y-122722380D01*
X146940476Y-122722380D02*
X146369047Y-122722380D01*
X146654761Y-122722380D02*
X146654761Y-121722380D01*
X146559523Y-121865238D01*
X146464285Y-121960476D01*
X146369047Y-122008095D01*
X147797619Y-121722380D02*
X147607142Y-121722380D01*
X147511904Y-121770000D01*
X147464285Y-121817619D01*
X147369047Y-121960476D01*
X147321428Y-122150952D01*
X147321428Y-122531904D01*
X147369047Y-122627142D01*
X147416666Y-122674761D01*
X147511904Y-122722380D01*
X147702380Y-122722380D01*
X147797619Y-122674761D01*
X147845238Y-122627142D01*
X147892857Y-122531904D01*
X147892857Y-122293809D01*
X147845238Y-122198571D01*
X147797619Y-122150952D01*
X147702380Y-122103333D01*
X147511904Y-122103333D01*
X147416666Y-122150952D01*
X147369047Y-122198571D01*
X147321428Y-122293809D01*
%TO.C,J1001*%
X104622380Y-136261904D02*
X105336666Y-136261904D01*
X105479523Y-136309523D01*
X105574761Y-136404761D01*
X105622380Y-136547619D01*
X105622380Y-136642857D01*
X105622380Y-135261904D02*
X105622380Y-135833333D01*
X105622380Y-135547619D02*
X104622380Y-135547619D01*
X104765238Y-135642857D01*
X104860476Y-135738095D01*
X104908095Y-135833333D01*
X104622380Y-134642857D02*
X104622380Y-134547619D01*
X104670000Y-134452380D01*
X104717619Y-134404761D01*
X104812857Y-134357142D01*
X105003333Y-134309523D01*
X105241428Y-134309523D01*
X105431904Y-134357142D01*
X105527142Y-134404761D01*
X105574761Y-134452380D01*
X105622380Y-134547619D01*
X105622380Y-134642857D01*
X105574761Y-134738095D01*
X105527142Y-134785714D01*
X105431904Y-134833333D01*
X105241428Y-134880952D01*
X105003333Y-134880952D01*
X104812857Y-134833333D01*
X104717619Y-134785714D01*
X104670000Y-134738095D01*
X104622380Y-134642857D01*
X104622380Y-133690476D02*
X104622380Y-133595238D01*
X104670000Y-133500000D01*
X104717619Y-133452380D01*
X104812857Y-133404761D01*
X105003333Y-133357142D01*
X105241428Y-133357142D01*
X105431904Y-133404761D01*
X105527142Y-133452380D01*
X105574761Y-133500000D01*
X105622380Y-133595238D01*
X105622380Y-133690476D01*
X105574761Y-133785714D01*
X105527142Y-133833333D01*
X105431904Y-133880952D01*
X105241428Y-133928571D01*
X105003333Y-133928571D01*
X104812857Y-133880952D01*
X104717619Y-133833333D01*
X104670000Y-133785714D01*
X104622380Y-133690476D01*
X105622380Y-132404761D02*
X105622380Y-132976190D01*
X105622380Y-132690476D02*
X104622380Y-132690476D01*
X104765238Y-132785714D01*
X104860476Y-132880952D01*
X104908095Y-132976190D01*
%TO.C,J1002*%
X84332380Y-136261904D02*
X85046666Y-136261904D01*
X85189523Y-136309523D01*
X85284761Y-136404761D01*
X85332380Y-136547619D01*
X85332380Y-136642857D01*
X85332380Y-135261904D02*
X85332380Y-135833333D01*
X85332380Y-135547619D02*
X84332380Y-135547619D01*
X84475238Y-135642857D01*
X84570476Y-135738095D01*
X84618095Y-135833333D01*
X84332380Y-134642857D02*
X84332380Y-134547619D01*
X84380000Y-134452380D01*
X84427619Y-134404761D01*
X84522857Y-134357142D01*
X84713333Y-134309523D01*
X84951428Y-134309523D01*
X85141904Y-134357142D01*
X85237142Y-134404761D01*
X85284761Y-134452380D01*
X85332380Y-134547619D01*
X85332380Y-134642857D01*
X85284761Y-134738095D01*
X85237142Y-134785714D01*
X85141904Y-134833333D01*
X84951428Y-134880952D01*
X84713333Y-134880952D01*
X84522857Y-134833333D01*
X84427619Y-134785714D01*
X84380000Y-134738095D01*
X84332380Y-134642857D01*
X84332380Y-133690476D02*
X84332380Y-133595238D01*
X84380000Y-133500000D01*
X84427619Y-133452380D01*
X84522857Y-133404761D01*
X84713333Y-133357142D01*
X84951428Y-133357142D01*
X85141904Y-133404761D01*
X85237142Y-133452380D01*
X85284761Y-133500000D01*
X85332380Y-133595238D01*
X85332380Y-133690476D01*
X85284761Y-133785714D01*
X85237142Y-133833333D01*
X85141904Y-133880952D01*
X84951428Y-133928571D01*
X84713333Y-133928571D01*
X84522857Y-133880952D01*
X84427619Y-133833333D01*
X84380000Y-133785714D01*
X84332380Y-133690476D01*
X84427619Y-132976190D02*
X84380000Y-132928571D01*
X84332380Y-132833333D01*
X84332380Y-132595238D01*
X84380000Y-132500000D01*
X84427619Y-132452380D01*
X84522857Y-132404761D01*
X84618095Y-132404761D01*
X84760952Y-132452380D01*
X85332380Y-133023809D01*
X85332380Y-132404761D01*
%TO.C,J1003*%
X94082380Y-136261904D02*
X94796666Y-136261904D01*
X94939523Y-136309523D01*
X95034761Y-136404761D01*
X95082380Y-136547619D01*
X95082380Y-136642857D01*
X95082380Y-135261904D02*
X95082380Y-135833333D01*
X95082380Y-135547619D02*
X94082380Y-135547619D01*
X94225238Y-135642857D01*
X94320476Y-135738095D01*
X94368095Y-135833333D01*
X94082380Y-134642857D02*
X94082380Y-134547619D01*
X94130000Y-134452380D01*
X94177619Y-134404761D01*
X94272857Y-134357142D01*
X94463333Y-134309523D01*
X94701428Y-134309523D01*
X94891904Y-134357142D01*
X94987142Y-134404761D01*
X95034761Y-134452380D01*
X95082380Y-134547619D01*
X95082380Y-134642857D01*
X95034761Y-134738095D01*
X94987142Y-134785714D01*
X94891904Y-134833333D01*
X94701428Y-134880952D01*
X94463333Y-134880952D01*
X94272857Y-134833333D01*
X94177619Y-134785714D01*
X94130000Y-134738095D01*
X94082380Y-134642857D01*
X94082380Y-133690476D02*
X94082380Y-133595238D01*
X94130000Y-133500000D01*
X94177619Y-133452380D01*
X94272857Y-133404761D01*
X94463333Y-133357142D01*
X94701428Y-133357142D01*
X94891904Y-133404761D01*
X94987142Y-133452380D01*
X95034761Y-133500000D01*
X95082380Y-133595238D01*
X95082380Y-133690476D01*
X95034761Y-133785714D01*
X94987142Y-133833333D01*
X94891904Y-133880952D01*
X94701428Y-133928571D01*
X94463333Y-133928571D01*
X94272857Y-133880952D01*
X94177619Y-133833333D01*
X94130000Y-133785714D01*
X94082380Y-133690476D01*
X94082380Y-133023809D02*
X94082380Y-132404761D01*
X94463333Y-132738095D01*
X94463333Y-132595238D01*
X94510952Y-132500000D01*
X94558571Y-132452380D01*
X94653809Y-132404761D01*
X94891904Y-132404761D01*
X94987142Y-132452380D01*
X95034761Y-132500000D01*
X95082380Y-132595238D01*
X95082380Y-132880952D01*
X95034761Y-132976190D01*
X94987142Y-133023809D01*
%TO.C,J1004*%
X91488095Y-136152380D02*
X91488095Y-136866666D01*
X91440476Y-137009523D01*
X91345238Y-137104761D01*
X91202380Y-137152380D01*
X91107142Y-137152380D01*
X92488095Y-137152380D02*
X91916666Y-137152380D01*
X92202380Y-137152380D02*
X92202380Y-136152380D01*
X92107142Y-136295238D01*
X92011904Y-136390476D01*
X91916666Y-136438095D01*
X93107142Y-136152380D02*
X93202380Y-136152380D01*
X93297619Y-136200000D01*
X93345238Y-136247619D01*
X93392857Y-136342857D01*
X93440476Y-136533333D01*
X93440476Y-136771428D01*
X93392857Y-136961904D01*
X93345238Y-137057142D01*
X93297619Y-137104761D01*
X93202380Y-137152380D01*
X93107142Y-137152380D01*
X93011904Y-137104761D01*
X92964285Y-137057142D01*
X92916666Y-136961904D01*
X92869047Y-136771428D01*
X92869047Y-136533333D01*
X92916666Y-136342857D01*
X92964285Y-136247619D01*
X93011904Y-136200000D01*
X93107142Y-136152380D01*
X94059523Y-136152380D02*
X94154761Y-136152380D01*
X94250000Y-136200000D01*
X94297619Y-136247619D01*
X94345238Y-136342857D01*
X94392857Y-136533333D01*
X94392857Y-136771428D01*
X94345238Y-136961904D01*
X94297619Y-137057142D01*
X94250000Y-137104761D01*
X94154761Y-137152380D01*
X94059523Y-137152380D01*
X93964285Y-137104761D01*
X93916666Y-137057142D01*
X93869047Y-136961904D01*
X93821428Y-136771428D01*
X93821428Y-136533333D01*
X93869047Y-136342857D01*
X93916666Y-136247619D01*
X93964285Y-136200000D01*
X94059523Y-136152380D01*
X95250000Y-136485714D02*
X95250000Y-137152380D01*
X95011904Y-136104761D02*
X94773809Y-136819047D01*
X95392857Y-136819047D01*
%TO.C,U1001*%
X117372380Y-138980476D02*
X118181904Y-138980476D01*
X118277142Y-138932857D01*
X118324761Y-138885238D01*
X118372380Y-138790000D01*
X118372380Y-138599523D01*
X118324761Y-138504285D01*
X118277142Y-138456666D01*
X118181904Y-138409047D01*
X117372380Y-138409047D01*
X118372380Y-137409047D02*
X118372380Y-137980476D01*
X118372380Y-137694761D02*
X117372380Y-137694761D01*
X117515238Y-137790000D01*
X117610476Y-137885238D01*
X117658095Y-137980476D01*
X117372380Y-136790000D02*
X117372380Y-136694761D01*
X117420000Y-136599523D01*
X117467619Y-136551904D01*
X117562857Y-136504285D01*
X117753333Y-136456666D01*
X117991428Y-136456666D01*
X118181904Y-136504285D01*
X118277142Y-136551904D01*
X118324761Y-136599523D01*
X118372380Y-136694761D01*
X118372380Y-136790000D01*
X118324761Y-136885238D01*
X118277142Y-136932857D01*
X118181904Y-136980476D01*
X117991428Y-137028095D01*
X117753333Y-137028095D01*
X117562857Y-136980476D01*
X117467619Y-136932857D01*
X117420000Y-136885238D01*
X117372380Y-136790000D01*
X117372380Y-135837619D02*
X117372380Y-135742380D01*
X117420000Y-135647142D01*
X117467619Y-135599523D01*
X117562857Y-135551904D01*
X117753333Y-135504285D01*
X117991428Y-135504285D01*
X118181904Y-135551904D01*
X118277142Y-135599523D01*
X118324761Y-135647142D01*
X118372380Y-135742380D01*
X118372380Y-135837619D01*
X118324761Y-135932857D01*
X118277142Y-135980476D01*
X118181904Y-136028095D01*
X117991428Y-136075714D01*
X117753333Y-136075714D01*
X117562857Y-136028095D01*
X117467619Y-135980476D01*
X117420000Y-135932857D01*
X117372380Y-135837619D01*
X118372380Y-134551904D02*
X118372380Y-135123333D01*
X118372380Y-134837619D02*
X117372380Y-134837619D01*
X117515238Y-134932857D01*
X117610476Y-135028095D01*
X117658095Y-135123333D01*
%TO.C,U1002*%
X42622380Y-138570476D02*
X43431904Y-138570476D01*
X43527142Y-138522857D01*
X43574761Y-138475238D01*
X43622380Y-138380000D01*
X43622380Y-138189523D01*
X43574761Y-138094285D01*
X43527142Y-138046666D01*
X43431904Y-137999047D01*
X42622380Y-137999047D01*
X43622380Y-136999047D02*
X43622380Y-137570476D01*
X43622380Y-137284761D02*
X42622380Y-137284761D01*
X42765238Y-137380000D01*
X42860476Y-137475238D01*
X42908095Y-137570476D01*
X42622380Y-136380000D02*
X42622380Y-136284761D01*
X42670000Y-136189523D01*
X42717619Y-136141904D01*
X42812857Y-136094285D01*
X43003333Y-136046666D01*
X43241428Y-136046666D01*
X43431904Y-136094285D01*
X43527142Y-136141904D01*
X43574761Y-136189523D01*
X43622380Y-136284761D01*
X43622380Y-136380000D01*
X43574761Y-136475238D01*
X43527142Y-136522857D01*
X43431904Y-136570476D01*
X43241428Y-136618095D01*
X43003333Y-136618095D01*
X42812857Y-136570476D01*
X42717619Y-136522857D01*
X42670000Y-136475238D01*
X42622380Y-136380000D01*
X42622380Y-135427619D02*
X42622380Y-135332380D01*
X42670000Y-135237142D01*
X42717619Y-135189523D01*
X42812857Y-135141904D01*
X43003333Y-135094285D01*
X43241428Y-135094285D01*
X43431904Y-135141904D01*
X43527142Y-135189523D01*
X43574761Y-135237142D01*
X43622380Y-135332380D01*
X43622380Y-135427619D01*
X43574761Y-135522857D01*
X43527142Y-135570476D01*
X43431904Y-135618095D01*
X43241428Y-135665714D01*
X43003333Y-135665714D01*
X42812857Y-135618095D01*
X42717619Y-135570476D01*
X42670000Y-135522857D01*
X42622380Y-135427619D01*
X42717619Y-134713333D02*
X42670000Y-134665714D01*
X42622380Y-134570476D01*
X42622380Y-134332380D01*
X42670000Y-134237142D01*
X42717619Y-134189523D01*
X42812857Y-134141904D01*
X42908095Y-134141904D01*
X43050952Y-134189523D01*
X43622380Y-134760952D01*
X43622380Y-134141904D01*
%TD*%
M02*
