M48
; DRILL file {KiCad (5.1.10)-1} date 04/01/22 18:04:20
; FORMAT={-:-/ absolute / inch / decimal}
; #@! TF.CreationDate,2022-04-01T18:04:20+02:00
; #@! TF.GenerationSoftware,Kicad,Pcbnew,(5.1.10)-1
; #@! TF.FileFunction,Plated,1,2,PTH
FMAT,2
INCH
T1C0.0157
T2C0.0315
T3C0.0374
T4C0.0394
T5C0.0433
%
G90
G05
T1
X1.7913Y-4.9705
X2.2356Y-5.5498
X2.3622Y-4.9606
X2.3986Y-4.4262
X2.4167Y-4.3262
X2.4213Y-4.2815
X2.4606Y-4.3701
X2.5183Y-4.5191
X2.6049Y-4.4915
X2.6616Y-4.4644
X2.6969Y-5.4331
X2.7049Y-4.4407
X2.7616Y-4.4234
X2.7913Y-5.3287
X2.7953Y-5.1969
X2.8049Y-4.39
X2.8616Y-4.412
X2.8937Y-5.1969
X2.8937Y-5.3346
X2.9049Y-4.3884
X2.9616Y-4.3711
X3.0049Y-4.3573
X3.0315Y-5.502
X3.0413Y-4.9606
X3.0616Y-4.34
X3.1049Y-4.3163
X3.1616Y-4.299
X3.2049Y-4.2852
X3.2616Y-4.2581
X3.2972Y-5.1575
X3.2972Y-5.502
X3.3049Y-4.2443
X3.3616Y-4.227
X3.375Y-5.425
X3.4049Y-4.2033
X3.4646Y-4.1634
X3.4744Y-5.5807
X3.5049Y-4.064
X3.5335Y-5.1575
X3.5616Y-4.1057
X3.6049Y-4.0722
X3.6713Y-5.4035
X3.7205Y-3.6713
X3.7598Y-3.6909
X3.7598Y-5.2067
X3.7697Y-5.6299
X3.8091Y-5.0984
X3.8183Y-3.6522
X3.8189Y-5.1673
X3.8189Y-5.5807
X3.8616Y-3.6384
X3.8681Y-5.6791
X3.9173Y-5.374
X3.9183Y-3.623
X3.9616Y-3.5974
X4.0059Y-3.5827
X4.0173Y-5.402
X4.06Y-3.5679
X4.1183Y-3.549
X4.1535Y-5.2067
X4.1634Y-3.5236
X4.2183Y-4.1888
X4.252Y-5.6398
X4.2815Y-3.5039
X4.3307Y-5.2067
X4.3406Y-3.4941
X4.3504Y-5.3839
X4.3988Y-5.5799
X4.3996Y-3.4744
X4.4488Y-3.4449
X4.4587Y-5.6791
X4.498Y-3.435
X4.5374Y-3.4154
X4.5472Y-4.9803
X4.5472Y-5.6791
X4.5866Y-3.3957
X4.6161Y-5.3839
X4.6161Y-5.689
X4.6358Y-3.376
X4.7047Y-3.3563
X4.7539Y-3.3268
X4.8183Y-3.3026
X4.8616Y-3.2781
X5.0492Y-5.1673
X5.0524Y-5.4854
X5.0616Y-4.9679
X5.2543Y-5.1295
X5.2543Y-5.3854
X5.3445Y-5.1575
X5.3445Y-5.6398
X5.4528Y-4.9705
X6.0728Y-5.2657
X6.1713Y-5.1575
X6.2992Y-5.2067
X6.4053Y-5.1695
X6.5053Y-5.2073
X6.662Y-4.5191
X6.7053Y-4.5053
X6.762Y-4.488
X6.8053Y-4.4644
X6.862Y-4.447
X6.9053Y-4.4234
X6.962Y-4.4061
X7.0053Y-4.3923
X7.062Y-4.375
X7.1053Y-4.3415
X7.162Y-4.3144
X7.2053Y-4.2809
X7.262Y-4.2537
X7.3053Y-4.24
X7.362Y-4.203
X7.4053Y-4.1793
X7.462Y-4.2112
X7.5098Y-4.2126
X7.562Y-4.2195
X7.6053Y-4.2156
X7.662Y-4.2081
X7.7461Y-4.2126
X7.8839Y-3.6614
X7.9035Y-3.7106
X7.962Y-3.7014
X8.0053Y-3.6974
X8.0461Y-3.696
X8.1004Y-3.6909
X8.1486Y-3.7018
X8.2053Y-3.7041
X8.3486Y-3.7128
X8.4053Y-3.7207
X8.4547Y-3.7205
X8.5053Y-3.7219
X8.563Y-3.7205
X8.6053Y-3.7274
X8.6614Y-3.7205
X8.7053Y-3.7258
X8.762Y-3.7325
X8.8053Y-3.7242
X8.8681Y-3.7303
X8.9053Y-3.7128
X8.9567Y-3.7303
X9.0059Y-3.7303
X9.1053Y-4.999
X9.2053Y-4.9974
T2
X1.7913Y-5.0693
X1.7913Y-5.6693
X1.8913Y-5.0693
X1.8913Y-5.6693
X1.9913Y-5.0693
X1.9913Y-5.6693
X2.0913Y-5.0693
X2.0913Y-5.6693
X2.1913Y-5.0693
X2.1913Y-5.6693
X2.2913Y-5.0693
X2.2913Y-5.6693
X2.3913Y-5.0693
X2.3913Y-5.6693
X2.4913Y-5.0693
X2.4913Y-5.6693
X2.5913Y-5.0693
X2.5913Y-5.6693
X2.6913Y-5.0693
X2.6913Y-5.6693
X2.7913Y-5.0693
X2.7913Y-5.6693
X2.8913Y-5.0693
X2.8913Y-5.6693
X3.0315Y-5.5807
X3.0315Y-5.6791
X3.0413Y-5.0984
X3.0413Y-5.1969
X3.0413Y-5.3346
X3.0413Y-5.4331
X3.1594Y-5.5807
X3.1594Y-5.6791
T3
X3.4744Y-5.4921
X3.5728Y-5.4921
X3.6713Y-5.4921
X3.7697Y-5.4921
X3.8681Y-5.4921
X4.1535Y-5.4921
X4.252Y-5.4921
X4.3504Y-5.4921
X4.4488Y-5.4921
X4.5472Y-5.4921
T4
X1.8012Y-4.2799
X1.8012Y-4.3799
X1.9587Y-4.2799
X1.9587Y-4.3799
X2.0616Y-3.7822
X2.0616Y-3.8822
X2.0616Y-3.9822
X2.0616Y-4.5991
X2.0616Y-4.6991
X2.0616Y-4.7991
X2.1616Y-3.7822
X2.1616Y-3.8822
X2.1616Y-3.9822
X2.1616Y-4.5991
X2.1616Y-4.6991
X2.1616Y-4.7991
X2.2616Y-3.7822
X2.2616Y-3.8822
X2.2616Y-3.9822
X2.2616Y-4.5991
X2.2616Y-4.6991
X2.2616Y-4.7991
X2.3616Y-3.7822
X2.3616Y-3.8822
X2.3616Y-3.9822
X2.3616Y-4.5991
X2.3616Y-4.6991
X2.3616Y-4.7991
X2.4616Y-3.7822
X2.4616Y-3.8822
X2.4616Y-3.9822
X2.4616Y-4.5991
X2.4616Y-4.6991
X2.4616Y-4.7991
X2.5616Y-3.7822
X2.5616Y-3.8822
X2.5616Y-3.9822
X2.5616Y-4.5991
X2.5616Y-4.6991
X2.5616Y-4.7991
X2.6616Y-3.7822
X2.6616Y-3.8822
X2.6616Y-3.9822
X2.6616Y-4.5991
X2.6616Y-4.6991
X2.6616Y-4.7991
X2.7616Y-3.7822
X2.7616Y-3.8822
X2.7616Y-3.9822
X2.7616Y-4.5991
X2.7616Y-4.6991
X2.7616Y-4.7991
X2.8616Y-3.7822
X2.8616Y-3.8822
X2.8616Y-3.9822
X2.8616Y-4.5991
X2.8616Y-4.6991
X2.8616Y-4.7991
X2.9616Y-3.7822
X2.9616Y-3.8822
X2.9616Y-3.9822
X2.9616Y-4.5991
X2.9616Y-4.6991
X2.9616Y-4.7991
X3.0616Y-3.7822
X3.0616Y-3.8822
X3.0616Y-3.9822
X3.0616Y-4.5991
X3.0616Y-4.6991
X3.0616Y-4.7991
X3.1616Y-3.7822
X3.1616Y-3.8822
X3.1616Y-3.9822
X3.1616Y-4.5991
X3.1616Y-4.6991
X3.1616Y-4.7991
X3.2616Y-3.7822
X3.2616Y-3.8822
X3.2616Y-3.9822
X3.2616Y-4.5991
X3.2616Y-4.6991
X3.2616Y-4.7991
X3.3616Y-3.7822
X3.3616Y-3.8822
X3.3616Y-3.9822
X3.3616Y-4.5991
X3.3616Y-4.6991
X3.3616Y-4.7991
X3.4335Y-5.2953
X3.4616Y-3.7822
X3.4616Y-3.8822
X3.4616Y-3.9822
X3.4616Y-4.5991
X3.4616Y-4.6991
X3.4616Y-4.7991
X3.5335Y-5.2953
X3.5616Y-3.7822
X3.5616Y-3.8822
X3.5616Y-3.9822
X3.5616Y-4.5991
X3.5616Y-4.6991
X3.5616Y-4.7991
X3.6335Y-5.2953
X3.6616Y-3.7822
X3.6616Y-3.8822
X3.6616Y-3.9822
X3.6616Y-4.5991
X3.6616Y-4.6991
X3.6616Y-4.7991
X3.7616Y-3.7822
X3.7616Y-3.8822
X3.7616Y-3.9822
X3.7616Y-4.5991
X3.7616Y-4.6991
X3.7616Y-4.7991
X3.8173Y-5.2953
X3.8616Y-3.7822
X3.8616Y-3.8822
X3.8616Y-3.9822
X3.8616Y-4.5991
X3.8616Y-4.6991
X3.8616Y-4.7991
X3.9173Y-5.2953
X3.9256Y-5.0295
X3.9616Y-3.7822
X3.9616Y-3.8822
X3.9616Y-3.9822
X3.9616Y-4.5991
X3.9616Y-4.6991
X3.9616Y-4.7991
X4.0173Y-5.2953
X4.0256Y-5.0295
X4.0616Y-3.7822
X4.0616Y-3.8822
X4.0616Y-3.9822
X4.0616Y-4.5991
X4.0616Y-4.6991
X4.0616Y-4.7991
X4.1616Y-3.7822
X4.1616Y-3.8822
X4.1616Y-3.9822
X4.1616Y-4.5991
X4.1616Y-4.6991
X4.1616Y-4.7991
X4.1815Y-5.0295
X4.2323Y-5.2953
X4.2616Y-3.7822
X4.2616Y-3.8822
X4.2616Y-3.9822
X4.2616Y-4.5991
X4.2616Y-4.6991
X4.2616Y-4.7991
X4.2815Y-5.0295
X4.3323Y-5.2953
X4.3616Y-3.7822
X4.3616Y-3.8822
X4.3616Y-3.9822
X4.3616Y-4.5991
X4.3616Y-4.6991
X4.3616Y-4.7991
X4.4323Y-5.2953
X4.4616Y-3.7822
X4.4616Y-3.8822
X4.4616Y-3.9822
X4.4616Y-4.5991
X4.4616Y-4.6991
X4.4616Y-4.7991
X4.5616Y-3.7822
X4.5616Y-3.8822
X4.5616Y-3.9822
X4.5616Y-4.5991
X4.5616Y-4.6991
X4.5616Y-4.7991
X4.6616Y-3.7822
X4.6616Y-3.8822
X4.6616Y-3.9822
X4.6616Y-4.5991
X4.6616Y-4.6991
X4.6616Y-4.7991
X4.7616Y-3.7822
X4.7616Y-3.8822
X4.7616Y-3.9822
X4.7616Y-4.5991
X4.7616Y-4.6991
X4.7616Y-4.7991
X4.8616Y-3.7822
X4.8616Y-3.8822
X4.8616Y-3.9822
X4.8616Y-4.5991
X4.8616Y-4.6991
X4.8616Y-4.7991
X4.9616Y-3.7822
X4.9616Y-3.8822
X4.9616Y-3.9822
X4.9616Y-4.5991
X4.9616Y-4.6991
X4.9616Y-4.7991
X5.0616Y-3.7822
X5.0616Y-3.8822
X5.0616Y-3.9822
X5.0616Y-4.5991
X5.0616Y-4.6991
X5.0616Y-4.7991
X5.1616Y-3.7822
X5.1616Y-3.8822
X5.1616Y-3.9822
X5.1616Y-4.5991
X5.1616Y-4.6991
X5.1616Y-4.7991
X5.7579Y-5.3346
X5.7579Y-5.4346
X5.7677Y-3.8665
X5.7677Y-3.9665
X5.7776Y-4.6047
X5.7776Y-4.7047
X6.2053Y-3.8019
X6.2053Y-3.9019
X6.2053Y-4.0019
X6.2053Y-4.5991
X6.2053Y-4.6991
X6.2053Y-4.7991
X6.2152Y-5.3865
X6.2152Y-5.4865
X6.2152Y-5.5865
X6.3053Y-3.8019
X6.3053Y-3.9019
X6.3053Y-4.0019
X6.3053Y-4.5991
X6.3053Y-4.6991
X6.3053Y-4.7991
X6.3152Y-5.3865
X6.3152Y-5.4865
X6.3152Y-5.5865
X6.4053Y-3.8019
X6.4053Y-3.9019
X6.4053Y-4.0019
X6.4053Y-4.5991
X6.4053Y-4.6991
X6.4053Y-4.7991
X6.4152Y-5.3865
X6.4152Y-5.4865
X6.4152Y-5.5865
X6.5053Y-3.8019
X6.5053Y-3.9019
X6.5053Y-4.0019
X6.5053Y-4.5991
X6.5053Y-4.6991
X6.5053Y-4.7991
X6.5152Y-5.3865
X6.5152Y-5.4865
X6.5152Y-5.5865
X6.6053Y-3.8019
X6.6053Y-3.9019
X6.6053Y-4.0019
X6.6053Y-4.5991
X6.6053Y-4.6991
X6.6053Y-4.7991
X6.6152Y-5.3865
X6.6152Y-5.4865
X6.6152Y-5.5865
X6.7053Y-3.8019
X6.7053Y-3.9019
X6.7053Y-4.0019
X6.7053Y-4.5991
X6.7053Y-4.6991
X6.7053Y-4.7991
X6.7152Y-5.3865
X6.7152Y-5.4865
X6.7152Y-5.5865
X6.8053Y-3.8019
X6.8053Y-3.9019
X6.8053Y-4.0019
X6.8053Y-4.5991
X6.8053Y-4.6991
X6.8053Y-4.7991
X6.8152Y-5.3865
X6.8152Y-5.4865
X6.8152Y-5.5865
X6.9053Y-3.8019
X6.9053Y-3.9019
X6.9053Y-4.0019
X6.9053Y-4.5991
X6.9053Y-4.6991
X6.9053Y-4.7991
X6.9152Y-5.3865
X6.9152Y-5.4865
X6.9152Y-5.5865
X7.0053Y-3.8019
X7.0053Y-3.9019
X7.0053Y-4.0019
X7.0053Y-4.5991
X7.0053Y-4.6991
X7.0053Y-4.7991
X7.0152Y-5.3865
X7.0152Y-5.4865
X7.0152Y-5.5865
X7.1053Y-3.8019
X7.1053Y-3.9019
X7.1053Y-4.0019
X7.1053Y-4.5991
X7.1053Y-4.6991
X7.1053Y-4.7991
X7.1152Y-5.3865
X7.1152Y-5.4865
X7.1152Y-5.5865
X7.2053Y-3.8019
X7.2053Y-3.9019
X7.2053Y-4.0019
X7.2053Y-4.5991
X7.2053Y-4.6991
X7.2053Y-4.7991
X7.2152Y-5.3865
X7.2152Y-5.4865
X7.2152Y-5.5865
X7.3053Y-3.8019
X7.3053Y-3.9019
X7.3053Y-4.0019
X7.3053Y-4.5991
X7.3053Y-4.6991
X7.3053Y-4.7991
X7.3152Y-5.3865
X7.3152Y-5.4865
X7.3152Y-5.5865
X7.4053Y-3.8019
X7.4053Y-3.9019
X7.4053Y-4.0019
X7.4053Y-4.5991
X7.4053Y-4.6991
X7.4053Y-4.7991
X7.4152Y-5.3865
X7.4152Y-5.4865
X7.4152Y-5.5865
X7.5053Y-3.8019
X7.5053Y-3.9019
X7.5053Y-4.0019
X7.5053Y-4.5991
X7.5053Y-4.6991
X7.5053Y-4.7991
X7.5152Y-5.3865
X7.5152Y-5.4865
X7.5152Y-5.5865
X7.6053Y-3.8019
X7.6053Y-3.9019
X7.6053Y-4.0019
X7.6053Y-4.5991
X7.6053Y-4.6991
X7.6053Y-4.7991
X7.6152Y-5.3865
X7.6152Y-5.4865
X7.6152Y-5.5865
X7.7053Y-3.8019
X7.7053Y-3.9019
X7.7053Y-4.0019
X7.7053Y-4.5991
X7.7053Y-4.6991
X7.7053Y-4.7991
X7.7152Y-5.3865
X7.7152Y-5.4865
X7.7152Y-5.5865
X7.8053Y-3.8019
X7.8053Y-3.9019
X7.8053Y-4.0019
X7.8053Y-4.5991
X7.8053Y-4.6991
X7.8053Y-4.7991
X7.8152Y-5.3865
X7.8152Y-5.4865
X7.8152Y-5.5865
X7.9053Y-3.8019
X7.9053Y-3.9019
X7.9053Y-4.0019
X7.9053Y-4.5991
X7.9053Y-4.6991
X7.9053Y-4.7991
X7.9152Y-5.3865
X7.9152Y-5.4865
X7.9152Y-5.5865
X8.0053Y-3.8019
X8.0053Y-3.9019
X8.0053Y-4.0019
X8.0053Y-4.5991
X8.0053Y-4.6991
X8.0053Y-4.7991
X8.0152Y-5.3865
X8.0152Y-5.4865
X8.0152Y-5.5865
X8.1053Y-3.8019
X8.1053Y-3.9019
X8.1053Y-4.0019
X8.1053Y-4.5991
X8.1053Y-4.6991
X8.1053Y-4.7991
X8.1152Y-5.3865
X8.1152Y-5.4865
X8.1152Y-5.5865
X8.2053Y-3.8019
X8.2053Y-3.9019
X8.2053Y-4.0019
X8.2053Y-4.5991
X8.2053Y-4.6991
X8.2053Y-4.7991
X8.2152Y-5.3865
X8.2152Y-5.4865
X8.2152Y-5.5865
X8.3053Y-3.8019
X8.3053Y-3.9019
X8.3053Y-4.0019
X8.3053Y-4.5991
X8.3053Y-4.6991
X8.3053Y-4.7991
X8.3152Y-5.3865
X8.3152Y-5.4865
X8.3152Y-5.5865
X8.4053Y-3.8019
X8.4053Y-3.9019
X8.4053Y-4.0019
X8.4053Y-4.5991
X8.4053Y-4.6991
X8.4053Y-4.7991
X8.4152Y-5.3865
X8.4152Y-5.4865
X8.4152Y-5.5865
X8.5053Y-3.8019
X8.5053Y-3.9019
X8.5053Y-4.0019
X8.5053Y-4.5991
X8.5053Y-4.6991
X8.5053Y-4.7991
X8.5152Y-5.3865
X8.5152Y-5.4865
X8.5152Y-5.5865
X8.6053Y-3.8019
X8.6053Y-3.9019
X8.6053Y-4.0019
X8.6053Y-4.5991
X8.6053Y-4.6991
X8.6053Y-4.7991
X8.6152Y-5.3865
X8.6152Y-5.4865
X8.6152Y-5.5865
X8.7053Y-3.8019
X8.7053Y-3.9019
X8.7053Y-4.0019
X8.7053Y-4.5991
X8.7053Y-4.6991
X8.7053Y-4.7991
X8.7152Y-5.3865
X8.7152Y-5.4865
X8.7152Y-5.5865
X8.8053Y-3.8019
X8.8053Y-3.9019
X8.8053Y-4.0019
X8.8053Y-4.5991
X8.8053Y-4.6991
X8.8053Y-4.7991
X8.8152Y-5.3865
X8.8152Y-5.4865
X8.8152Y-5.5865
X8.9053Y-3.8019
X8.9053Y-3.9019
X8.9053Y-4.0019
X8.9053Y-4.5991
X8.9053Y-4.6991
X8.9053Y-4.7991
X8.9152Y-5.3865
X8.9152Y-5.4865
X8.9152Y-5.5865
X9.0053Y-3.8019
X9.0053Y-3.9019
X9.0053Y-4.0019
X9.0053Y-4.5991
X9.0053Y-4.6991
X9.0053Y-4.7991
X9.0152Y-5.3865
X9.0152Y-5.4865
X9.0152Y-5.5865
X9.1053Y-3.8019
X9.1053Y-3.9019
X9.1053Y-4.0019
X9.1053Y-4.5991
X9.1053Y-4.6991
X9.1053Y-4.7991
X9.1152Y-5.3865
X9.1152Y-5.4865
X9.1152Y-5.5865
X9.2053Y-3.8019
X9.2053Y-3.9019
X9.2053Y-4.0019
X9.2053Y-4.5991
X9.2053Y-4.6991
X9.2053Y-4.7991
X9.2152Y-5.3865
X9.2152Y-5.4865
X9.2152Y-5.5865
X9.3053Y-3.8019
X9.3053Y-3.9019
X9.3053Y-4.0019
X9.3053Y-4.5991
X9.3053Y-4.6991
X9.3053Y-4.7991
X9.3152Y-5.3865
X9.3152Y-5.4865
X9.3152Y-5.5865
X9.3996Y-4.2504
X9.3996Y-4.3504
X9.5571Y-5.0673
X9.5571Y-5.1673
X9.5768Y-4.2504
X9.5768Y-4.3504
T5
X5.4528Y-5.2854
X5.4528Y-5.3854
X5.4528Y-5.4854
T0
M30
