M48
; DRILL file {KiCad (6.0.8)} date Sat Nov 12 14:36:50 2022
; FORMAT={-:-/ absolute / metric / decimal}
; #@! TF.CreationDate,2022-11-12T14:36:50+01:00
; #@! TF.GenerationSoftware,Kicad,Pcbnew,(6.0.8)
; #@! TF.FileFunction,Plated,1,2,PTH
FMAT,2
METRIC
; #@! TA.AperFunction,Plated,PTH,ViaDrill
T1C0.400
; #@! TA.AperFunction,Plated,PTH,ComponentDrill
T2C0.800
; #@! TA.AperFunction,Plated,PTH,ComponentDrill
T3C0.900
; #@! TA.AperFunction,Plated,PTH,ComponentDrill
T4C1.000
%
G90
G05
T1
X34.493Y-58.191
X37.059Y-58.141
X38.379Y-43.352
X40.843Y-80.899
X44.044Y-58.217
X45.288Y-77.14
X45.314Y-74.524
X45.314Y-79.197
X45.339Y-71.984
X45.339Y-86.69
X48.997Y-83.312
X49.022Y-84.658
X49.606Y-69.799
X57.252Y-83.312
X59.69Y-83.312
X62.281Y-69.799
X64.922Y-83.312
X78.791Y-83.312
X84.531Y-83.312
X85.09Y-74.447
X85.827Y-43.358
X108.356Y-43.335
T2
X21.717Y-86.868
X21.717Y-97.028
X23.063Y-65.659
X23.063Y-68.199
X23.063Y-70.739
X23.063Y-73.279
X23.063Y-75.819
X23.063Y-78.359
X25.603Y-63.119
X25.603Y-65.659
X25.603Y-68.199
X25.603Y-70.739
X25.603Y-73.279
X25.603Y-75.819
X25.603Y-78.359
X25.603Y-80.899
X28.143Y-63.119
X28.143Y-65.659
X28.143Y-78.359
X28.143Y-80.899
X30.683Y-63.119
X30.683Y-65.659
X30.683Y-78.359
X30.683Y-80.899
X33.223Y-63.119
X33.223Y-65.659
X33.223Y-78.359
X33.223Y-80.899
X35.763Y-63.119
X35.763Y-65.659
X35.763Y-78.359
X35.763Y-80.899
X38.303Y-63.119
X38.303Y-65.659
X38.303Y-68.199
X38.303Y-70.739
X38.303Y-73.279
X38.303Y-75.819
X38.303Y-78.359
X38.303Y-80.899
X40.843Y-65.659
X40.843Y-68.199
X40.843Y-70.739
X40.843Y-73.279
X40.843Y-75.819
X40.843Y-78.359
X49.535Y-61.6
X49.535Y-76.84
X52.075Y-61.6
X52.075Y-76.84
X54.615Y-61.6
X54.615Y-76.84
X57.155Y-61.6
X57.155Y-76.84
X59.695Y-61.6
X59.695Y-76.84
X62.235Y-61.6
X62.235Y-76.84
X64.775Y-61.6
X64.775Y-76.84
X67.315Y-61.6
X67.315Y-76.84
X69.855Y-61.6
X69.855Y-76.84
X72.395Y-61.6
X72.395Y-76.84
X74.935Y-61.6
X74.935Y-76.84
X77.475Y-61.6
X77.475Y-76.84
X80.015Y-61.6
X80.015Y-76.84
X82.555Y-61.6
X82.555Y-76.84
X85.095Y-61.6
X85.095Y-76.84
X87.635Y-61.6
X87.635Y-76.84
X90.175Y-61.6
X90.175Y-76.84
X92.715Y-61.6
X92.715Y-76.84
X95.255Y-61.6
X95.255Y-76.84
X97.795Y-61.6
X97.795Y-76.84
X104.394Y-74.412
X104.394Y-82.032
X106.919Y-85.344
X106.934Y-74.412
X106.934Y-82.032
X109.459Y-85.344
X109.474Y-61.214
X109.474Y-71.374
X109.474Y-74.412
X109.474Y-82.032
X109.474Y-88.9
X109.474Y-96.52
X111.999Y-85.344
X112.014Y-61.214
X112.014Y-71.374
X112.014Y-74.412
X112.014Y-82.032
X112.014Y-88.9
X112.014Y-96.52
X114.539Y-85.344
X114.554Y-61.214
X114.554Y-71.374
X114.554Y-74.412
X114.554Y-82.032
X114.554Y-88.9
X114.554Y-96.52
X117.079Y-85.344
X117.094Y-61.214
X117.094Y-71.374
X117.094Y-74.412
X117.094Y-82.032
X117.094Y-88.9
X117.094Y-96.52
X119.619Y-85.344
X119.634Y-61.214
X119.634Y-71.374
X119.634Y-74.412
X119.634Y-82.032
X119.634Y-88.9
X119.634Y-96.52
X122.159Y-85.344
X122.174Y-61.214
X122.174Y-71.374
X122.174Y-74.412
X122.174Y-82.032
X122.174Y-88.9
X122.174Y-96.52
X124.699Y-85.344
X124.714Y-61.214
X124.714Y-71.374
X124.714Y-74.412
X124.714Y-82.032
X124.714Y-88.9
X124.714Y-96.52
X127.239Y-85.344
X127.254Y-61.214
X127.254Y-71.374
X127.254Y-74.412
X127.254Y-82.032
X127.254Y-88.9
X127.254Y-96.52
T3
X26.919Y-151.384
X29.459Y-151.384
T4
X25.4Y-101.6
X25.4Y-104.14
X25.4Y-106.68
X25.4Y-109.22
X25.4Y-111.76
X25.4Y-114.3
X25.4Y-116.84
X25.4Y-119.38
X25.4Y-121.92
X25.4Y-124.46
X25.4Y-127.0
X25.4Y-129.54
X25.4Y-132.1
X25.4Y-134.62
X27.115Y-86.7
X28.575Y-101.6
X28.575Y-104.14
X28.575Y-106.68
X28.575Y-109.22
X28.575Y-111.76
X28.575Y-114.3
X28.575Y-116.84
X28.575Y-119.38
X28.575Y-121.92
X28.575Y-124.46
X28.575Y-127.0
X28.575Y-129.54
X28.575Y-132.08
X28.575Y-134.62
X29.655Y-86.7
X31.115Y-101.6
X31.115Y-104.14
X31.115Y-106.68
X31.115Y-109.22
X31.115Y-111.76
X31.115Y-114.3
X31.115Y-116.84
X31.115Y-119.38
X31.115Y-121.92
X31.115Y-124.46
X31.115Y-127.0
X31.115Y-129.54
X31.115Y-132.08
X31.115Y-134.62
X32.195Y-86.7
X33.655Y-101.6
X33.655Y-104.14
X33.655Y-106.68
X33.655Y-109.22
X33.655Y-111.76
X33.655Y-114.3
X33.655Y-116.84
X33.655Y-119.38
X33.655Y-121.92
X33.655Y-124.46
X33.655Y-127.0
X33.655Y-129.54
X33.655Y-132.08
X33.655Y-134.62
X36.195Y-101.6
X36.195Y-104.14
X36.195Y-106.68
X36.195Y-109.22
X36.195Y-111.76
X36.195Y-114.3
X36.195Y-116.84
X36.195Y-119.38
X36.195Y-121.92
X36.195Y-124.46
X36.195Y-127.0
X36.195Y-129.54
X36.195Y-132.08
X36.195Y-134.62
X36.551Y-86.766
X38.735Y-101.6
X38.735Y-104.14
X38.735Y-106.68
X38.735Y-109.22
X38.735Y-111.76
X38.735Y-114.3
X38.735Y-116.84
X38.735Y-119.38
X38.735Y-121.92
X38.735Y-124.46
X38.735Y-127.0
X38.735Y-129.54
X38.735Y-132.08
X38.735Y-134.62
X38.735Y-137.16
X38.735Y-139.7
X38.735Y-142.24
X38.735Y-144.78
X38.735Y-147.32
X38.735Y-149.86
X38.735Y-152.4
X41.275Y-101.6
X41.275Y-104.14
X41.275Y-106.68
X41.275Y-109.22
X41.275Y-111.76
X41.275Y-114.3
X41.275Y-116.84
X41.275Y-119.38
X41.275Y-121.92
X41.275Y-124.46
X41.275Y-127.0
X41.275Y-129.54
X41.275Y-132.08
X41.275Y-134.62
X41.275Y-137.16
X41.275Y-139.7
X41.275Y-142.24
X41.275Y-144.78
X41.275Y-147.32
X41.275Y-149.86
X41.275Y-152.4
X41.551Y-86.766
X43.815Y-101.6
X43.815Y-104.14
X43.815Y-106.68
X43.815Y-109.22
X43.815Y-111.76
X43.815Y-114.3
X43.815Y-116.84
X43.815Y-119.38
X43.815Y-121.92
X43.815Y-124.46
X43.815Y-127.0
X43.815Y-129.54
X43.815Y-132.08
X43.815Y-134.62
X43.815Y-137.16
X43.815Y-139.7
X43.815Y-142.24
X43.815Y-144.78
X43.815Y-147.32
X43.815Y-149.86
X43.815Y-152.4
X46.355Y-101.6
X46.355Y-104.14
X46.355Y-106.68
X46.355Y-109.22
X46.355Y-111.76
X46.355Y-114.3
X46.355Y-116.84
X46.355Y-119.38
X46.355Y-121.92
X46.355Y-124.46
X46.355Y-127.0
X46.355Y-129.54
X46.355Y-132.08
X46.355Y-134.62
X46.355Y-137.16
X46.355Y-139.7
X46.355Y-142.24
X46.355Y-144.78
X46.355Y-147.32
X46.355Y-149.86
X46.355Y-152.4
X48.895Y-101.6
X48.895Y-104.14
X48.895Y-106.68
X48.895Y-109.22
X48.895Y-111.76
X48.895Y-114.3
X48.895Y-116.84
X48.895Y-119.38
X48.895Y-121.92
X48.895Y-124.46
X48.895Y-127.0
X48.895Y-129.54
X48.895Y-132.08
X48.895Y-134.62
X48.895Y-137.16
X48.895Y-139.7
X48.895Y-142.24
X48.895Y-144.78
X48.895Y-147.32
X48.895Y-149.86
X48.895Y-152.4
X49.53Y-87.249
X49.53Y-89.789
X51.435Y-101.6
X51.435Y-104.14
X51.435Y-106.68
X51.435Y-109.22
X51.435Y-111.76
X51.435Y-114.3
X51.435Y-116.84
X51.435Y-119.38
X51.435Y-121.92
X51.435Y-124.46
X51.435Y-127.0
X51.435Y-129.54
X51.435Y-132.08
X51.435Y-134.62
X51.435Y-137.16
X51.435Y-139.7
X51.435Y-142.24
X51.435Y-144.78
X51.435Y-147.32
X51.435Y-149.86
X51.435Y-152.4
X52.07Y-87.249
X52.07Y-89.789
X53.975Y-101.6
X53.975Y-104.14
X53.975Y-106.68
X53.975Y-109.22
X53.975Y-111.76
X53.975Y-114.3
X53.975Y-116.84
X53.975Y-119.38
X53.975Y-121.92
X53.975Y-124.46
X53.975Y-127.0
X53.975Y-129.54
X53.975Y-132.08
X53.975Y-134.62
X53.975Y-137.16
X53.975Y-139.7
X53.975Y-142.24
X53.975Y-144.78
X53.975Y-147.32
X53.975Y-149.86
X53.975Y-152.4
X54.61Y-87.249
X54.61Y-89.789
X56.515Y-101.6
X56.515Y-104.14
X56.515Y-106.68
X56.515Y-109.22
X56.515Y-111.76
X56.515Y-114.3
X56.515Y-116.84
X56.515Y-119.38
X56.515Y-121.92
X56.515Y-124.46
X56.515Y-127.0
X56.515Y-129.54
X56.515Y-132.08
X56.515Y-134.62
X56.515Y-137.16
X56.515Y-139.7
X56.515Y-142.24
X56.515Y-144.78
X56.515Y-147.32
X56.515Y-149.86
X56.515Y-152.4
X57.15Y-87.249
X57.15Y-89.789
X59.055Y-101.6
X59.055Y-104.14
X59.055Y-106.68
X59.055Y-109.22
X59.055Y-111.76
X59.055Y-114.3
X59.055Y-116.84
X59.055Y-119.38
X59.055Y-121.92
X59.055Y-124.46
X59.055Y-127.0
X59.055Y-129.54
X59.055Y-132.08
X59.055Y-134.62
X59.055Y-137.16
X59.055Y-139.7
X59.055Y-142.24
X59.055Y-144.78
X59.055Y-147.32
X59.055Y-149.86
X59.055Y-152.4
X59.69Y-87.249
X59.69Y-89.789
X61.595Y-101.6
X61.595Y-104.14
X61.595Y-106.68
X61.595Y-109.22
X61.595Y-111.76
X61.595Y-114.3
X61.595Y-116.84
X61.595Y-119.38
X61.595Y-121.92
X61.595Y-124.46
X61.595Y-127.0
X61.595Y-129.54
X61.595Y-132.08
X61.595Y-134.62
X61.595Y-137.16
X61.595Y-139.7
X61.595Y-142.24
X61.595Y-144.78
X61.595Y-147.32
X61.595Y-149.86
X61.595Y-152.4
X64.135Y-101.6
X64.135Y-104.14
X64.135Y-106.68
X64.135Y-109.22
X64.135Y-111.76
X64.135Y-114.3
X64.135Y-116.84
X64.135Y-119.38
X64.135Y-121.92
X64.135Y-124.46
X64.135Y-127.0
X64.135Y-129.54
X64.135Y-132.08
X64.135Y-134.62
X64.135Y-137.16
X64.135Y-139.7
X64.135Y-142.24
X64.135Y-144.78
X64.135Y-147.32
X64.135Y-149.86
X64.135Y-152.4
X66.675Y-101.6
X66.675Y-104.14
X66.675Y-106.68
X66.675Y-109.22
X66.675Y-111.76
X66.675Y-114.3
X66.675Y-116.84
X66.675Y-119.38
X66.675Y-121.92
X66.675Y-124.46
X66.675Y-127.0
X66.675Y-129.54
X66.675Y-132.08
X66.675Y-134.62
X66.675Y-137.16
X66.675Y-139.7
X66.675Y-142.24
X66.675Y-144.78
X66.675Y-147.32
X66.675Y-149.86
X66.675Y-152.4
X68.631Y-87.269
X68.631Y-89.809
X69.215Y-101.6
X69.215Y-104.14
X69.215Y-106.68
X69.215Y-109.22
X69.215Y-111.76
X69.215Y-114.3
X69.215Y-116.84
X69.215Y-119.38
X69.215Y-121.92
X69.215Y-124.46
X69.215Y-127.0
X69.215Y-129.54
X69.215Y-132.08
X69.215Y-134.62
X69.215Y-137.16
X69.215Y-139.7
X69.215Y-142.24
X69.215Y-144.78
X69.215Y-147.32
X69.215Y-149.86
X69.215Y-152.4
X71.171Y-87.269
X71.171Y-89.809
X71.755Y-101.6
X71.755Y-104.14
X71.755Y-106.68
X71.755Y-109.22
X71.755Y-111.76
X71.755Y-114.3
X71.755Y-116.84
X71.755Y-119.38
X71.755Y-121.92
X71.755Y-124.46
X71.755Y-127.0
X71.755Y-129.54
X71.755Y-132.08
X71.755Y-134.62
X71.755Y-137.16
X71.755Y-139.7
X71.755Y-142.24
X71.755Y-144.78
X71.755Y-147.32
X71.755Y-149.86
X71.755Y-152.4
X73.711Y-87.269
X73.711Y-89.809
X74.295Y-101.6
X74.295Y-104.14
X74.295Y-106.68
X74.295Y-109.22
X74.295Y-111.76
X74.295Y-114.3
X74.295Y-116.84
X74.295Y-119.38
X74.295Y-121.92
X74.295Y-124.46
X74.295Y-127.0
X74.295Y-129.54
X74.295Y-132.08
X74.295Y-134.62
X74.295Y-137.16
X74.295Y-139.7
X74.295Y-142.24
X74.295Y-144.78
X74.295Y-147.32
X74.295Y-149.86
X74.295Y-152.4
X76.251Y-87.269
X76.251Y-89.809
X76.835Y-101.6
X76.835Y-104.14
X76.835Y-106.68
X76.835Y-109.22
X76.835Y-111.76
X76.835Y-114.3
X76.835Y-116.84
X76.835Y-119.38
X76.835Y-121.92
X76.835Y-124.46
X76.835Y-127.0
X76.835Y-129.54
X76.835Y-132.08
X76.835Y-134.62
X76.835Y-137.16
X76.835Y-139.7
X76.835Y-142.24
X76.835Y-144.78
X76.835Y-147.32
X76.835Y-149.86
X76.835Y-152.4
X78.791Y-87.269
X78.791Y-89.809
X79.363Y-104.131
X79.363Y-106.667
X79.363Y-111.751
X79.363Y-114.287
X79.363Y-119.371
X79.363Y-121.907
X79.363Y-126.991
X79.363Y-129.527
X79.363Y-134.611
X79.363Y-137.147
X79.363Y-142.231
X79.363Y-144.767
X79.363Y-147.307
X79.363Y-149.847
X79.363Y-152.387
X79.375Y-101.6
X79.375Y-109.22
X79.375Y-116.84
X79.375Y-124.46
X79.375Y-132.08
X79.375Y-139.7
X81.88Y-101.6
X81.88Y-104.14
X81.88Y-106.68
X81.88Y-109.22
X81.88Y-111.76
X81.88Y-114.3
X81.88Y-116.84
X81.88Y-119.38
X81.88Y-121.92
X81.88Y-124.46
X81.88Y-127.0
X81.88Y-129.54
X81.88Y-132.08
X81.88Y-134.62
X81.88Y-137.16
X81.88Y-139.7
X81.88Y-142.24
X81.88Y-144.78
X81.88Y-147.32
X81.88Y-149.86
X81.88Y-152.4
X84.455Y-101.6
X84.455Y-104.14
X84.455Y-106.68
X84.455Y-109.22
X84.455Y-111.76
X84.455Y-114.3
X84.455Y-116.84
X84.455Y-119.38
X84.455Y-121.92
X84.455Y-124.46
X84.455Y-127.0
X84.455Y-129.54
X84.455Y-132.08
X84.455Y-134.62
X84.455Y-137.16
X84.455Y-139.7
X84.455Y-142.24
X84.455Y-144.78
X84.455Y-147.32
X84.455Y-149.86
X84.455Y-152.4
X85.1Y-57.5
X86.995Y-101.6
X86.995Y-104.14
X86.995Y-106.68
X86.995Y-109.22
X86.995Y-111.76
X86.995Y-114.3
X86.995Y-116.84
X86.995Y-119.38
X86.995Y-121.92
X86.995Y-124.46
X86.995Y-127.0
X86.995Y-129.54
X86.995Y-132.08
X86.995Y-134.62
X86.995Y-137.16
X86.995Y-139.7
X86.995Y-142.24
X86.995Y-144.78
X86.995Y-147.32
X86.995Y-149.86
X86.995Y-152.4
X87.655Y-87.269
X87.655Y-89.809
X89.535Y-101.6
X89.535Y-104.14
X89.535Y-106.68
X89.535Y-109.22
X89.535Y-111.76
X89.535Y-114.3
X89.535Y-116.84
X89.535Y-119.38
X89.535Y-121.92
X89.535Y-124.46
X89.535Y-127.0
X89.535Y-129.54
X89.535Y-132.08
X89.535Y-134.62
X89.535Y-137.16
X89.535Y-139.7
X89.535Y-142.24
X89.535Y-144.78
X89.535Y-147.32
X89.535Y-149.86
X89.535Y-152.4
X90.1Y-57.5
X90.195Y-87.269
X90.195Y-89.809
X92.075Y-101.6
X92.075Y-104.14
X92.075Y-106.68
X92.075Y-109.22
X92.075Y-111.76
X92.075Y-114.3
X92.075Y-116.84
X92.075Y-119.38
X92.075Y-121.92
X92.075Y-124.46
X92.075Y-127.0
X92.075Y-129.54
X92.075Y-132.08
X92.075Y-134.62
X92.075Y-137.16
X92.075Y-139.7
X92.075Y-142.24
X92.075Y-144.78
X92.075Y-147.32
X92.075Y-149.86
X92.075Y-152.4
X92.735Y-87.269
X92.735Y-89.809
X94.615Y-101.6
X94.615Y-104.14
X94.615Y-106.68
X94.615Y-109.22
X94.615Y-111.76
X94.615Y-114.3
X94.615Y-116.84
X94.615Y-119.38
X94.615Y-121.92
X94.615Y-124.46
X94.615Y-127.0
X94.615Y-129.54
X94.615Y-132.08
X94.615Y-134.62
X94.615Y-137.16
X94.615Y-139.7
X94.615Y-142.24
X94.615Y-144.78
X94.615Y-147.32
X94.615Y-149.86
X94.615Y-152.4
X95.275Y-87.269
X95.275Y-89.809
X97.129Y-101.6
X97.129Y-104.124
X97.129Y-109.22
X97.129Y-111.744
X97.129Y-116.84
X97.129Y-119.364
X97.129Y-124.46
X97.129Y-126.984
X97.129Y-132.08
X97.129Y-134.604
X97.129Y-139.7
X97.129Y-142.224
X97.155Y-106.68
X97.155Y-114.3
X97.155Y-121.92
X97.155Y-129.54
X97.155Y-137.16
X97.155Y-144.78
X97.155Y-147.32
X97.155Y-149.86
X97.155Y-152.4
X97.815Y-87.269
X97.815Y-89.809
X99.688Y-101.6
X99.688Y-104.124
X99.688Y-106.648
X99.688Y-109.22
X99.688Y-111.744
X99.688Y-114.268
X99.688Y-116.84
X99.688Y-119.364
X99.688Y-121.888
X99.688Y-124.46
X99.688Y-126.984
X99.688Y-129.508
X99.688Y-132.08
X99.688Y-134.604
X99.688Y-137.128
X99.688Y-139.7
X99.688Y-142.224
X99.688Y-144.748
X99.688Y-147.288
X99.688Y-149.828
X99.688Y-152.368
X102.235Y-101.6
X102.235Y-104.14
X102.235Y-106.68
X102.235Y-109.22
X102.235Y-111.76
X102.235Y-114.3
X102.235Y-116.84
X102.235Y-119.38
X102.235Y-121.92
X102.235Y-124.46
X102.235Y-127.0
X102.235Y-129.54
X102.235Y-132.08
X102.235Y-134.62
X102.235Y-137.16
X102.235Y-139.7
X102.235Y-142.24
X102.235Y-144.78
X102.235Y-147.32
X102.235Y-149.86
X102.235Y-152.4
X104.775Y-101.6
X104.775Y-104.14
X104.775Y-106.68
X104.775Y-109.22
X104.775Y-111.76
X104.775Y-114.3
X104.775Y-116.84
X104.775Y-119.38
X104.775Y-121.92
X104.775Y-124.46
X104.775Y-127.0
X104.775Y-129.54
X104.775Y-132.08
X104.775Y-134.62
X104.775Y-137.16
X104.775Y-139.7
X104.775Y-142.24
X104.775Y-144.78
X104.775Y-147.32
X104.775Y-149.86
X104.775Y-152.4
X104.902Y-90.424
X104.902Y-95.424
X107.315Y-101.6
X107.315Y-104.14
X107.315Y-106.68
X107.315Y-109.22
X107.315Y-111.76
X107.315Y-114.3
X107.315Y-116.84
X107.315Y-119.38
X107.315Y-121.92
X107.315Y-124.46
X107.315Y-127.0
X107.315Y-129.54
X107.315Y-132.08
X107.315Y-134.62
X107.315Y-137.16
X107.315Y-139.7
X107.315Y-142.24
X107.315Y-144.78
X107.315Y-147.32
X107.315Y-149.86
X107.315Y-152.4
X109.855Y-101.6
X109.855Y-104.14
X109.855Y-106.68
X109.855Y-109.22
X109.855Y-111.76
X109.855Y-114.3
X109.855Y-116.84
X109.855Y-119.38
X109.855Y-121.92
X109.855Y-124.46
X109.855Y-127.0
X109.855Y-129.54
X109.855Y-132.08
X109.855Y-134.62
X112.369Y-101.6
X112.369Y-104.124
X112.369Y-109.22
X112.369Y-111.744
X112.369Y-116.84
X112.369Y-119.364
X112.369Y-124.46
X112.369Y-126.984
X112.369Y-132.08
X112.369Y-134.604
X112.395Y-106.68
X112.395Y-114.3
X112.395Y-121.92
X112.395Y-129.54
X114.928Y-101.6
X114.928Y-104.124
X114.928Y-106.648
X114.928Y-109.22
X114.928Y-111.744
X114.928Y-114.268
X114.928Y-116.84
X114.928Y-119.364
X114.928Y-121.888
X114.928Y-124.46
X114.928Y-126.984
X114.928Y-129.508
X114.928Y-132.08
X114.928Y-134.604
X117.475Y-101.575
X117.475Y-104.115
X117.475Y-106.655
X117.475Y-109.195
X117.475Y-111.735
X117.475Y-114.275
X117.475Y-116.815
X117.475Y-119.355
X117.475Y-121.895
X117.475Y-124.435
X117.475Y-126.975
X117.475Y-129.515
X117.475Y-132.055
X117.475Y-134.595
X120.777Y-101.575
X120.777Y-104.115
X120.777Y-106.655
X120.777Y-109.195
X120.777Y-111.735
X120.777Y-114.275
X120.777Y-116.815
X120.777Y-119.355
X120.777Y-121.895
X120.777Y-124.435
X120.777Y-126.975
X120.777Y-129.515
X120.777Y-132.055
X120.777Y-134.595
T0
M30
