%TF.GenerationSoftware,KiCad,Pcbnew,(6.0.8)*%
%TF.CreationDate,2022-11-12T14:36:56+01:00*%
%TF.ProjectId,m061,6d303631-2e6b-4696-9361-645f70636258,1.0*%
%TF.SameCoordinates,Original*%
%TF.FileFunction,Copper,L2,Bot*%
%TF.FilePolarity,Positive*%
%FSLAX46Y46*%
G04 Gerber Fmt 4.6, Leading zero omitted, Abs format (unit mm)*
G04 Created by KiCad (PCBNEW (6.0.8)) date 2022-11-12 14:36:56*
%MOMM*%
%LPD*%
G01*
G04 APERTURE LIST*
G04 Aperture macros list*
%AMOutline4P*
0 Free polygon, 4 corners , with rotation*
0 The origin of the aperture is its center*
0 number of corners: always 4*
0 $1 to $8 corner X, Y*
0 $9 Rotation angle, in degrees counterclockwise*
0 create outline with 4 corners*
4,1,4,$1,$2,$3,$4,$5,$6,$7,$8,$1,$2,$9*%
G04 Aperture macros list end*
%TA.AperFunction,NonConductor*%
%ADD10C,0.381000*%
%TD*%
%ADD11C,0.304800*%
%TA.AperFunction,NonConductor*%
%ADD12C,0.304800*%
%TD*%
%TA.AperFunction,ComponentPad*%
%ADD13C,2.000000*%
%TD*%
%TA.AperFunction,ComponentPad*%
%ADD14C,1.600000*%
%TD*%
%TA.AperFunction,ComponentPad*%
%ADD15O,1.600000X1.600000*%
%TD*%
%TA.AperFunction,ComponentPad*%
%ADD16R,1.800000X1.800000*%
%TD*%
%TA.AperFunction,ComponentPad*%
%ADD17C,1.800000*%
%TD*%
%TA.AperFunction,ComponentPad*%
%ADD18R,1.700000X1.700000*%
%TD*%
%TA.AperFunction,ComponentPad*%
%ADD19O,1.700000X1.700000*%
%TD*%
%TA.AperFunction,ComponentPad*%
%ADD20R,1.600000X1.600000*%
%TD*%
%TA.AperFunction,ConnectorPad*%
%ADD21Outline4P,-0.699770X-4.999990X0.699770X-4.999990X0.699770X4.999990X-0.699770X4.999990X180.000000*%
%TD*%
%TA.AperFunction,ComponentPad*%
%ADD22R,1.422400X1.422400*%
%TD*%
%TA.AperFunction,ComponentPad*%
%ADD23C,1.422400*%
%TD*%
%TA.AperFunction,ViaPad*%
%ADD24C,0.800000*%
%TD*%
%TA.AperFunction,Conductor*%
%ADD25C,0.500000*%
%TD*%
%TA.AperFunction,Conductor*%
%ADD26C,0.250000*%
%TD*%
G04 APERTURE END LIST*
D10*
X122631200Y-152450800D02*
X111836200Y-152450800D01*
X111963200Y-148640800D02*
X122631200Y-148640800D01*
X122631200Y-148640800D02*
X122631200Y-152450800D01*
X111836200Y-152450800D02*
X111836200Y-148640800D01*
D11*
D12*
X121618628Y-151577561D02*
X121618628Y-149577561D01*
X121118628Y-151006133D01*
X120618628Y-149577561D01*
X120618628Y-151577561D01*
X119618628Y-149577561D02*
X119475771Y-149577561D01*
X119332914Y-149672800D01*
X119261485Y-149768038D01*
X119190057Y-149958514D01*
X119118628Y-150339466D01*
X119118628Y-150815657D01*
X119190057Y-151196609D01*
X119261485Y-151387085D01*
X119332914Y-151482323D01*
X119475771Y-151577561D01*
X119618628Y-151577561D01*
X119761485Y-151482323D01*
X119832914Y-151387085D01*
X119904342Y-151196609D01*
X119975771Y-150815657D01*
X119975771Y-150339466D01*
X119904342Y-149958514D01*
X119832914Y-149768038D01*
X119761485Y-149672800D01*
X119618628Y-149577561D01*
X117832914Y-149577561D02*
X118118628Y-149577561D01*
X118261485Y-149672800D01*
X118332914Y-149768038D01*
X118475771Y-150053752D01*
X118547200Y-150434704D01*
X118547200Y-151196609D01*
X118475771Y-151387085D01*
X118404342Y-151482323D01*
X118261485Y-151577561D01*
X117975771Y-151577561D01*
X117832914Y-151482323D01*
X117761485Y-151387085D01*
X117690057Y-151196609D01*
X117690057Y-150720419D01*
X117761485Y-150529942D01*
X117832914Y-150434704D01*
X117975771Y-150339466D01*
X118261485Y-150339466D01*
X118404342Y-150434704D01*
X118475771Y-150529942D01*
X118547200Y-150720419D01*
X116261485Y-151577561D02*
X117118628Y-151577561D01*
X116690057Y-151577561D02*
X116690057Y-149577561D01*
X116832914Y-149863276D01*
X116975771Y-150053752D01*
X117118628Y-150148990D01*
X115618628Y-151387085D02*
X115547200Y-151482323D01*
X115618628Y-151577561D01*
X115690057Y-151482323D01*
X115618628Y-151387085D01*
X115618628Y-151577561D01*
X114904342Y-150529942D02*
X114404342Y-150529942D01*
X114190057Y-151577561D02*
X114904342Y-151577561D01*
X114904342Y-149577561D01*
X114190057Y-149577561D01*
X113618628Y-151006133D02*
X112904342Y-151006133D01*
X113761485Y-151577561D02*
X113261485Y-149577561D01*
X112761485Y-151577561D01*
D11*
D12*
X107964514Y-51363638D02*
X108835371Y-51363638D01*
X108399942Y-51363638D02*
X108399942Y-49331638D01*
X108545085Y-49621923D01*
X108690228Y-49815447D01*
X108835371Y-49912209D01*
X107383942Y-50783066D02*
X106658228Y-50783066D01*
X107529085Y-51363638D02*
X107021085Y-49331638D01*
X106513085Y-51363638D01*
D11*
D12*
X89767228Y-97900066D02*
X89041514Y-97900066D01*
X89912371Y-98480638D02*
X89404371Y-96448638D01*
X88896371Y-98480638D01*
X87735228Y-97125971D02*
X87735228Y-98480638D01*
X88388371Y-97125971D02*
X88388371Y-98190352D01*
X88315800Y-98383876D01*
X88170657Y-98480638D01*
X87952942Y-98480638D01*
X87807800Y-98383876D01*
X87735228Y-98287114D01*
X87082085Y-98383876D02*
X86936942Y-98480638D01*
X86646657Y-98480638D01*
X86501514Y-98383876D01*
X86428942Y-98190352D01*
X86428942Y-98093590D01*
X86501514Y-97900066D01*
X86646657Y-97803304D01*
X86864371Y-97803304D01*
X87009514Y-97706542D01*
X87082085Y-97513019D01*
X87082085Y-97416257D01*
X87009514Y-97222733D01*
X86864371Y-97125971D01*
X86646657Y-97125971D01*
X86501514Y-97222733D01*
X85122657Y-97125971D02*
X85122657Y-98770923D01*
X85195228Y-98964447D01*
X85267800Y-99061209D01*
X85412942Y-99157971D01*
X85630657Y-99157971D01*
X85775800Y-99061209D01*
X85122657Y-98383876D02*
X85267800Y-98480638D01*
X85558085Y-98480638D01*
X85703228Y-98383876D01*
X85775800Y-98287114D01*
X85848371Y-98093590D01*
X85848371Y-97513019D01*
X85775800Y-97319495D01*
X85703228Y-97222733D01*
X85558085Y-97125971D01*
X85267800Y-97125971D01*
X85122657Y-97222733D01*
X83743800Y-98480638D02*
X83743800Y-97416257D01*
X83816371Y-97222733D01*
X83961514Y-97125971D01*
X84251800Y-97125971D01*
X84396942Y-97222733D01*
X83743800Y-98383876D02*
X83888942Y-98480638D01*
X84251800Y-98480638D01*
X84396942Y-98383876D01*
X84469514Y-98190352D01*
X84469514Y-97996828D01*
X84396942Y-97803304D01*
X84251800Y-97706542D01*
X83888942Y-97706542D01*
X83743800Y-97609780D01*
X83018085Y-98480638D02*
X83018085Y-96448638D01*
X83018085Y-97222733D02*
X82872942Y-97125971D01*
X82582657Y-97125971D01*
X82437514Y-97222733D01*
X82364942Y-97319495D01*
X82292371Y-97513019D01*
X82292371Y-98093590D01*
X82364942Y-98287114D01*
X82437514Y-98383876D01*
X82582657Y-98480638D01*
X82872942Y-98480638D01*
X83018085Y-98383876D01*
X81058657Y-98383876D02*
X81203800Y-98480638D01*
X81494085Y-98480638D01*
X81639228Y-98383876D01*
X81711800Y-98190352D01*
X81711800Y-97416257D01*
X81639228Y-97222733D01*
X81494085Y-97125971D01*
X81203800Y-97125971D01*
X81058657Y-97222733D01*
X80986085Y-97416257D01*
X80986085Y-97609780D01*
X81711800Y-97803304D01*
X79244371Y-96642161D02*
X79171800Y-96545400D01*
X79026657Y-96448638D01*
X78663800Y-96448638D01*
X78518657Y-96545400D01*
X78446085Y-96642161D01*
X78373514Y-96835685D01*
X78373514Y-97029209D01*
X78446085Y-97319495D01*
X79316942Y-98480638D01*
X78373514Y-98480638D01*
X77430085Y-96448638D02*
X77284942Y-96448638D01*
X77139800Y-96545400D01*
X77067228Y-96642161D01*
X76994657Y-96835685D01*
X76922085Y-97222733D01*
X76922085Y-97706542D01*
X76994657Y-98093590D01*
X77067228Y-98287114D01*
X77139800Y-98383876D01*
X77284942Y-98480638D01*
X77430085Y-98480638D01*
X77575228Y-98383876D01*
X77647800Y-98287114D01*
X77720371Y-98093590D01*
X77792942Y-97706542D01*
X77792942Y-97222733D01*
X77720371Y-96835685D01*
X77647800Y-96642161D01*
X77575228Y-96545400D01*
X77430085Y-96448638D01*
X76341514Y-96642161D02*
X76268942Y-96545400D01*
X76123800Y-96448638D01*
X75760942Y-96448638D01*
X75615800Y-96545400D01*
X75543228Y-96642161D01*
X75470657Y-96835685D01*
X75470657Y-97029209D01*
X75543228Y-97319495D01*
X76414085Y-98480638D01*
X75470657Y-98480638D01*
X74890085Y-96642161D02*
X74817514Y-96545400D01*
X74672371Y-96448638D01*
X74309514Y-96448638D01*
X74164371Y-96545400D01*
X74091800Y-96642161D01*
X74019228Y-96835685D01*
X74019228Y-97029209D01*
X74091800Y-97319495D01*
X74962657Y-98480638D01*
X74019228Y-98480638D01*
X72350085Y-97125971D02*
X71987228Y-98480638D01*
X71624371Y-97125971D01*
X70826085Y-98480638D02*
X70971228Y-98383876D01*
X71043800Y-98287114D01*
X71116371Y-98093590D01*
X71116371Y-97513019D01*
X71043800Y-97319495D01*
X70971228Y-97222733D01*
X70826085Y-97125971D01*
X70608371Y-97125971D01*
X70463228Y-97222733D01*
X70390657Y-97319495D01*
X70318085Y-97513019D01*
X70318085Y-98093590D01*
X70390657Y-98287114D01*
X70463228Y-98383876D01*
X70608371Y-98480638D01*
X70826085Y-98480638D01*
X69664942Y-97125971D02*
X69664942Y-98480638D01*
X69664942Y-97319495D02*
X69592371Y-97222733D01*
X69447228Y-97125971D01*
X69229514Y-97125971D01*
X69084371Y-97222733D01*
X69011800Y-97416257D01*
X69011800Y-98480638D01*
X67124942Y-97416257D02*
X66616942Y-97416257D01*
X66399228Y-98480638D02*
X67124942Y-98480638D01*
X67124942Y-96448638D01*
X66399228Y-96448638D01*
X65746085Y-98287114D02*
X65673514Y-98383876D01*
X65746085Y-98480638D01*
X65818657Y-98383876D01*
X65746085Y-98287114D01*
X65746085Y-98480638D01*
X65020371Y-98480638D02*
X65020371Y-96448638D01*
X64512371Y-97900066D01*
X64004371Y-96448638D01*
X64004371Y-98480638D01*
X62625514Y-97125971D02*
X62625514Y-98480638D01*
X63278657Y-97125971D02*
X63278657Y-98190352D01*
X63206085Y-98383876D01*
X63060942Y-98480638D01*
X62843228Y-98480638D01*
X62698085Y-98383876D01*
X62625514Y-98287114D01*
X61319228Y-98383876D02*
X61464371Y-98480638D01*
X61754657Y-98480638D01*
X61899800Y-98383876D01*
X61972371Y-98190352D01*
X61972371Y-97416257D01*
X61899800Y-97222733D01*
X61754657Y-97125971D01*
X61464371Y-97125971D01*
X61319228Y-97222733D01*
X61246657Y-97416257D01*
X61246657Y-97609780D01*
X61972371Y-97803304D01*
X60375800Y-98480638D02*
X60520942Y-98383876D01*
X60593514Y-98190352D01*
X60593514Y-96448638D01*
X59577514Y-98480638D02*
X59722657Y-98383876D01*
X59795228Y-98190352D01*
X59795228Y-96448638D01*
X58416371Y-98383876D02*
X58561514Y-98480638D01*
X58851800Y-98480638D01*
X58996942Y-98383876D01*
X59069514Y-98190352D01*
X59069514Y-97416257D01*
X58996942Y-97222733D01*
X58851800Y-97125971D01*
X58561514Y-97125971D01*
X58416371Y-97222733D01*
X58343800Y-97416257D01*
X58343800Y-97609780D01*
X59069514Y-97803304D01*
X57690657Y-98480638D02*
X57690657Y-97125971D01*
X57690657Y-97513019D02*
X57618085Y-97319495D01*
X57545514Y-97222733D01*
X57400371Y-97125971D01*
X57255228Y-97125971D01*
D13*
%TO.P,,*%
%TO.N,*%
X74295000Y-104140000D03*
%TD*%
%TO.P,,*%
%TO.N,*%
X99687939Y-121888344D03*
%TD*%
%TO.P,,*%
%TO.N,*%
X69215000Y-147320000D03*
%TD*%
%TO.P,,*%
%TO.N,*%
X102235000Y-111760000D03*
%TD*%
%TO.P,,*%
%TO.N,*%
X41275000Y-147320000D03*
%TD*%
%TO.P,,*%
%TO.N,*%
X102235000Y-139700000D03*
%TD*%
%TO.P,,*%
%TO.N,*%
X99687939Y-109220000D03*
%TD*%
%TO.P,,*%
%TO.N,*%
X81880422Y-144780000D03*
%TD*%
%TO.P,,*%
%TO.N,*%
X97129189Y-134604172D03*
%TD*%
%TO.P,,*%
%TO.N,*%
X28575000Y-132080000D03*
%TD*%
%TO.P,,*%
%TO.N,*%
X114927939Y-126984172D03*
%TD*%
%TO.P,,*%
%TO.N,*%
X59055000Y-127000000D03*
%TD*%
%TO.P,,*%
%TO.N,*%
X94615000Y-142240000D03*
%TD*%
%TO.P,,*%
%TO.N,*%
X94615000Y-111760000D03*
%TD*%
%TO.P,,*%
%TO.N,*%
X86995000Y-104140000D03*
%TD*%
%TO.P,,*%
%TO.N,*%
X69215000Y-132080000D03*
%TD*%
%TO.P,,*%
%TO.N,*%
X79363068Y-126991396D03*
%TD*%
%TO.P,,*%
%TO.N,*%
X48895000Y-142240000D03*
%TD*%
%TO.P,,*%
%TO.N,*%
X84455000Y-152400000D03*
%TD*%
%TO.P,,*%
%TO.N,*%
X99687939Y-149828344D03*
%TD*%
%TO.P,,*%
%TO.N,*%
X31115000Y-127000000D03*
%TD*%
%TO.P,,*%
%TO.N,*%
X102235000Y-132080000D03*
%TD*%
%TO.P,,*%
%TO.N,*%
X36195000Y-116840000D03*
%TD*%
%TO.P,,*%
%TO.N,+5V*%
X25400000Y-111760000D03*
%TD*%
%TO.P,,*%
%TO.N,*%
X61595000Y-114300000D03*
%TD*%
%TO.P,,*%
%TO.N,*%
X84455000Y-129540000D03*
%TD*%
%TO.P,,*%
%TO.N,*%
X59055000Y-116840000D03*
%TD*%
%TO.P,,*%
%TO.N,+5V*%
X25400000Y-109220000D03*
%TD*%
%TO.P,,*%
%TO.N,*%
X74295000Y-142240000D03*
%TD*%
%TO.P,,*%
%TO.N,*%
X89535000Y-116840000D03*
%TD*%
%TO.P,,*%
%TO.N,*%
X79375000Y-124460000D03*
%TD*%
%TO.P,,*%
%TO.N,*%
X107315000Y-124460000D03*
%TD*%
%TO.P,,*%
%TO.N,*%
X92075000Y-109220000D03*
%TD*%
%TO.P,,*%
%TO.N,*%
X99687939Y-139700000D03*
%TD*%
%TO.P,,*%
%TO.N,*%
X86995000Y-101600000D03*
%TD*%
%TO.P,,*%
%TO.N,*%
X46355000Y-129540000D03*
%TD*%
%TO.P,,*%
%TO.N,*%
X69215000Y-142240000D03*
%TD*%
%TO.P,,*%
%TO.N,*%
X79363068Y-152387094D03*
%TD*%
%TO.P,,*%
%TO.N,*%
X74295000Y-121920000D03*
%TD*%
D14*
%TO.P,R1,1*%
%TO.N,/D0*%
X109474000Y-61214000D03*
D15*
%TO.P,R1,2*%
%TO.N,/D0A*%
X109474000Y-71374000D03*
%TD*%
D13*
%TO.P,,*%
%TO.N,*%
X81880422Y-114300000D03*
%TD*%
%TO.P,,*%
%TO.N,*%
X74295000Y-152400000D03*
%TD*%
%TO.P,,*%
%TO.N,*%
X56515000Y-124460000D03*
%TD*%
%TO.P,,*%
%TO.N,*%
X51435000Y-121920000D03*
%TD*%
%TO.P,,*%
%TO.N,*%
X89535000Y-114300000D03*
%TD*%
%TO.P,,*%
%TO.N,*%
X94615000Y-104140000D03*
%TD*%
%TO.P,,*%
%TO.N,*%
X56515000Y-129540000D03*
%TD*%
%TO.P,,*%
%TO.N,*%
X76835000Y-124460000D03*
%TD*%
%TO.P,,*%
%TO.N,*%
X102235000Y-101600000D03*
%TD*%
%TO.P,,*%
%TO.N,*%
X107315000Y-121920000D03*
%TD*%
%TO.P,,*%
%TO.N,*%
X92075000Y-147320000D03*
%TD*%
%TO.P,,*%
%TO.N,*%
X112369189Y-116839999D03*
%TD*%
%TO.P,,*%
%TO.N,*%
X56515000Y-119380000D03*
%TD*%
%TO.P,,*%
%TO.N,*%
X79363068Y-144767094D03*
%TD*%
%TO.P,,*%
%TO.N,*%
X79363068Y-129527094D03*
%TD*%
%TO.P,,*%
%TO.N,*%
X51435000Y-111760000D03*
%TD*%
%TO.P,,*%
%TO.N,*%
X56515000Y-137160000D03*
%TD*%
%TO.P,,*%
%TO.N,*%
X28575000Y-114300000D03*
%TD*%
%TO.P,,*%
%TO.N,*%
X76835000Y-119380000D03*
%TD*%
%TO.P,,*%
%TO.N,*%
X97129189Y-126984172D03*
%TD*%
%TO.P,,*%
%TO.N,*%
X74295000Y-149860000D03*
%TD*%
%TO.P,,*%
%TO.N,*%
X109855000Y-132080000D03*
%TD*%
%TO.P,,*%
%TO.N,*%
X36195000Y-104140000D03*
%TD*%
%TO.P,,*%
%TO.N,*%
X41275000Y-119380000D03*
%TD*%
%TO.P,,*%
%TO.N,*%
X56515000Y-109220000D03*
%TD*%
%TO.P,,*%
%TO.N,*%
X92075000Y-142240000D03*
%TD*%
%TO.P,,*%
%TO.N,*%
X109855000Y-119380000D03*
%TD*%
%TO.P,,*%
%TO.N,*%
X112369189Y-134604172D03*
%TD*%
%TO.P,,*%
%TO.N,*%
X66675000Y-101600000D03*
%TD*%
%TO.P,,*%
%TO.N,*%
X31115000Y-101600000D03*
%TD*%
%TO.P,,*%
%TO.N,*%
X86995000Y-147320000D03*
%TD*%
%TO.P,,*%
%TO.N,*%
X99687939Y-119364172D03*
%TD*%
%TO.P,,*%
%TO.N,*%
X38735000Y-139700000D03*
%TD*%
%TO.P,,*%
%TO.N,*%
X74295000Y-109220000D03*
%TD*%
%TO.P,,*%
%TO.N,*%
X53975000Y-111760000D03*
%TD*%
%TO.P,,*%
%TO.N,*%
X43815000Y-137160000D03*
%TD*%
%TO.P,,*%
%TO.N,*%
X76835000Y-127000000D03*
%TD*%
%TO.P,,*%
%TO.N,*%
X53975000Y-152400000D03*
%TD*%
%TO.P,,*%
%TO.N,*%
X84455000Y-149860000D03*
%TD*%
%TO.P,,*%
%TO.N,*%
X71755000Y-116840000D03*
%TD*%
%TO.P,,*%
%TO.N,*%
X71755000Y-124460000D03*
%TD*%
%TO.P,,*%
%TO.N,*%
X46355000Y-116840000D03*
%TD*%
%TO.P,,*%
%TO.N,*%
X112369189Y-109219999D03*
%TD*%
%TO.P,,*%
%TO.N,*%
X92075000Y-114300000D03*
%TD*%
%TO.P,,*%
%TO.N,*%
X69215000Y-149860000D03*
%TD*%
%TO.P,,*%
%TO.N,*%
X92075000Y-152400000D03*
%TD*%
%TO.P,,*%
%TO.N,*%
X102235000Y-134620000D03*
%TD*%
%TO.P,,*%
%TO.N,*%
X107315000Y-116840000D03*
%TD*%
%TO.P,,*%
%TO.N,*%
X48895000Y-132080000D03*
%TD*%
%TO.P,,*%
%TO.N,*%
X76835000Y-101600000D03*
%TD*%
%TO.P,,*%
%TO.N,*%
X114927939Y-124460000D03*
%TD*%
%TO.P,,*%
%TO.N,*%
X104775000Y-139700000D03*
%TD*%
%TO.P,,*%
%TO.N,*%
X36195000Y-121920000D03*
%TD*%
%TO.P,,*%
%TO.N,*%
X33655000Y-116840000D03*
%TD*%
%TO.P,,*%
%TO.N,*%
X69215000Y-144780000D03*
%TD*%
%TO.P,,*%
%TO.N,*%
X46355000Y-121920000D03*
%TD*%
%TO.P,,*%
%TO.N,*%
X76835000Y-139700000D03*
%TD*%
%TO.P,,*%
%TO.N,*%
X89535000Y-149860000D03*
%TD*%
%TO.P,,*%
%TO.N,*%
X53975000Y-121920000D03*
%TD*%
%TO.P,,*%
%TO.N,*%
X89535000Y-106680000D03*
%TD*%
%TO.P,,*%
%TO.N,*%
X86995000Y-137160000D03*
%TD*%
%TO.P,,*%
%TO.N,*%
X41275000Y-139700000D03*
%TD*%
%TO.P,,*%
%TO.N,*%
X64135000Y-132080000D03*
%TD*%
%TO.P,,*%
%TO.N,*%
X107315000Y-149860000D03*
%TD*%
%TO.P,,*%
%TO.N,*%
X31115000Y-106680000D03*
%TD*%
%TO.P,,*%
%TO.N,*%
X117475000Y-114274600D03*
%TD*%
%TO.P,,*%
%TO.N,*%
X66675000Y-124460000D03*
%TD*%
%TO.P,,*%
%TO.N,*%
X31115000Y-132080000D03*
%TD*%
%TO.P,,*%
%TO.N,*%
X71755000Y-137160000D03*
%TD*%
%TO.P,,*%
%TO.N,*%
X81880422Y-129540000D03*
%TD*%
%TO.P,,*%
%TO.N,*%
X76835000Y-147320000D03*
%TD*%
%TO.P,,*%
%TO.N,*%
X71755000Y-139700000D03*
%TD*%
%TO.P,,*%
%TO.N,*%
X99687939Y-106648344D03*
%TD*%
%TO.P,,*%
%TO.N,+5V*%
X25400000Y-101600000D03*
%TD*%
%TO.P,,*%
%TO.N,*%
X114927939Y-121888344D03*
%TD*%
%TO.P,,*%
%TO.N,*%
X66675000Y-119380000D03*
%TD*%
%TO.P,,*%
%TO.N,*%
X66675000Y-129540000D03*
%TD*%
%TO.P,,*%
%TO.N,*%
X107315000Y-144780000D03*
%TD*%
%TO.P,,*%
%TO.N,*%
X33655000Y-124460000D03*
%TD*%
%TO.P,,*%
%TO.N,*%
X33655000Y-104140000D03*
%TD*%
%TO.P,,*%
%TO.N,*%
X74295000Y-139700000D03*
%TD*%
%TO.P,,*%
%TO.N,*%
X41275000Y-104140000D03*
%TD*%
%TO.P,,*%
%TO.N,*%
X48895000Y-134620000D03*
%TD*%
%TO.P,,*%
%TO.N,*%
X38735000Y-142240000D03*
%TD*%
%TO.P,,*%
%TO.N,*%
X53975000Y-147320000D03*
%TD*%
%TO.P,,*%
%TO.N,*%
X28575000Y-111760000D03*
%TD*%
%TO.P,,*%
%TO.N,*%
X59055000Y-149860000D03*
%TD*%
%TO.P,,*%
%TO.N,*%
X86995000Y-149860000D03*
%TD*%
%TO.P,,*%
%TO.N,*%
X43815000Y-116840000D03*
%TD*%
%TO.P,,*%
%TO.N,*%
X56515000Y-132080000D03*
%TD*%
D14*
%TO.P,R7,1*%
%TO.N,/D6*%
X124714000Y-61214000D03*
D15*
%TO.P,R7,2*%
%TO.N,/D6A*%
X124714000Y-71374000D03*
%TD*%
D13*
%TO.P,,*%
%TO.N,*%
X36195000Y-129540000D03*
%TD*%
%TO.P,,*%
%TO.N,*%
X99687939Y-104124172D03*
%TD*%
%TO.P,,*%
%TO.N,*%
X48895000Y-116840000D03*
%TD*%
%TO.P,,*%
%TO.N,*%
X117475000Y-104114600D03*
%TD*%
%TO.P,,*%
%TO.N,*%
X76835000Y-109220000D03*
%TD*%
%TO.P,,*%
%TO.N,*%
X81880422Y-149860000D03*
%TD*%
%TO.P,,*%
%TO.N,*%
X38735000Y-137160000D03*
%TD*%
%TO.P,,*%
%TO.N,*%
X43815000Y-134620000D03*
%TD*%
%TO.P,,*%
%TO.N,*%
X38735000Y-114300000D03*
%TD*%
D16*
%TO.P,D1,1,K*%
%TO.N,Net-(D1-Pad1)*%
X26919000Y-151384000D03*
D17*
%TO.P,D1,2,A*%
%TO.N,+5V*%
X29459000Y-151384000D03*
%TD*%
D13*
%TO.P,,*%
%TO.N,*%
X38735000Y-111760000D03*
%TD*%
%TO.P,,*%
%TO.N,*%
X99687939Y-134604172D03*
%TD*%
%TO.P,,*%
%TO.N,*%
X66675000Y-114300000D03*
%TD*%
%TO.P,,*%
%TO.N,*%
X56515000Y-127000000D03*
%TD*%
%TO.P,,*%
%TO.N,*%
X79363068Y-134611396D03*
%TD*%
D14*
%TO.P,R5,1*%
%TO.N,/D4*%
X119634000Y-61214000D03*
D15*
%TO.P,R5,2*%
%TO.N,/D4A*%
X119634000Y-71374000D03*
%TD*%
D13*
%TO.P,,*%
%TO.N,*%
X31115000Y-114300000D03*
%TD*%
%TO.P,,*%
%TO.N,*%
X31115000Y-124460000D03*
%TD*%
%TO.P,,*%
%TO.N,*%
X102235000Y-109220000D03*
%TD*%
%TO.P,,*%
%TO.N,*%
X41275000Y-134620000D03*
%TD*%
%TO.P,,*%
%TO.N,*%
X117475000Y-116814600D03*
%TD*%
%TO.P,,*%
%TO.N,*%
X46355000Y-152400000D03*
%TD*%
%TO.P,,*%
%TO.N,*%
X102235000Y-129540000D03*
%TD*%
%TO.P,,*%
%TO.N,*%
X104775000Y-104140000D03*
%TD*%
%TO.P,,*%
%TO.N,*%
X33655000Y-114300000D03*
%TD*%
%TO.P,,*%
%TO.N,*%
X36195000Y-134620000D03*
%TD*%
%TO.P,,*%
%TO.N,*%
X36195000Y-132080000D03*
%TD*%
%TO.P,,*%
%TO.N,+5V*%
X25400000Y-127000000D03*
%TD*%
%TO.P,,*%
%TO.N,*%
X46355000Y-106680000D03*
%TD*%
%TO.P,,*%
%TO.N,*%
X109855000Y-134620000D03*
%TD*%
%TO.P,,*%
%TO.N,*%
X84455000Y-124460000D03*
%TD*%
%TO.P,,*%
%TO.N,*%
X53975000Y-149860000D03*
%TD*%
%TO.P,,*%
%TO.N,*%
X41275000Y-129540000D03*
%TD*%
%TO.P,,*%
%TO.N,*%
X89535000Y-147320000D03*
%TD*%
%TO.P,,*%
%TO.N,*%
X56515000Y-139700000D03*
%TD*%
%TO.P,,*%
%TO.N,*%
X102235000Y-121920000D03*
%TD*%
%TO.P,,*%
%TO.N,*%
X51435000Y-147320000D03*
%TD*%
%TO.P,,*%
%TO.N,*%
X64135000Y-106680000D03*
%TD*%
%TO.P,,*%
%TO.N,*%
X59055000Y-152400000D03*
%TD*%
%TO.P,,*%
%TO.N,*%
X81880422Y-142240000D03*
%TD*%
%TO.P,,*%
%TO.N,*%
X92075000Y-106680000D03*
%TD*%
%TO.P,,*%
%TO.N,*%
X51435000Y-144780000D03*
%TD*%
%TO.P,,*%
%TO.N,*%
X107315000Y-147320000D03*
%TD*%
%TO.P,,*%
%TO.N,*%
X114927939Y-114268344D03*
%TD*%
%TO.P,,*%
%TO.N,*%
X107315000Y-114300000D03*
%TD*%
%TO.P,,*%
%TO.N,*%
X48895000Y-104140000D03*
%TD*%
%TO.P,,*%
%TO.N,*%
X71755000Y-114300000D03*
%TD*%
%TO.P,,*%
%TO.N,*%
X107315000Y-104140000D03*
%TD*%
D14*
%TO.P,R3,1*%
%TO.N,/D2*%
X114554000Y-61214000D03*
D15*
%TO.P,R3,2*%
%TO.N,/D2A*%
X114554000Y-71374000D03*
%TD*%
D13*
%TO.P,,*%
%TO.N,*%
X64135000Y-127000000D03*
%TD*%
%TO.P,,*%
%TO.N,*%
X97129189Y-139699999D03*
%TD*%
%TO.P,,*%
%TO.N,*%
X61595000Y-144780000D03*
%TD*%
D14*
%TO.P,R0,1*%
%TO.N,/LED*%
X21717000Y-86868000D03*
D15*
%TO.P,R0,2*%
%TO.N,Net-(D1-Pad1)*%
X21717000Y-97028000D03*
%TD*%
D13*
%TO.P,,*%
%TO.N,*%
X51435000Y-101600000D03*
%TD*%
%TO.P,,*%
%TO.N,*%
X97155000Y-129540000D03*
%TD*%
%TO.P,,*%
%TO.N,*%
X51435000Y-139700000D03*
%TD*%
%TO.P,,*%
%TO.N,*%
X64135000Y-147320000D03*
%TD*%
%TO.P,,*%
%TO.N,*%
X64135000Y-119380000D03*
%TD*%
%TO.P,,*%
%TO.N,*%
X46355000Y-134620000D03*
%TD*%
%TO.P,,*%
%TO.N,*%
X89535000Y-132080000D03*
%TD*%
%TO.P,,*%
%TO.N,*%
X31115000Y-129540000D03*
%TD*%
%TO.P,,*%
%TO.N,GND*%
X120777000Y-114274600D03*
%TD*%
%TO.P,,*%
%TO.N,*%
X46355000Y-119380000D03*
%TD*%
%TO.P,,*%
%TO.N,*%
X71755000Y-111760000D03*
%TD*%
%TO.P,,*%
%TO.N,*%
X76835000Y-104140000D03*
%TD*%
%TO.P,,*%
%TO.N,*%
X51435000Y-129540000D03*
%TD*%
%TO.P,,*%
%TO.N,*%
X99687939Y-129508344D03*
%TD*%
%TO.P,,*%
%TO.N,+5V*%
X25400000Y-119380000D03*
%TD*%
%TO.P,,*%
%TO.N,*%
X97155000Y-147320000D03*
%TD*%
%TO.P,,*%
%TO.N,*%
X61595000Y-104140000D03*
%TD*%
%TO.P,,*%
%TO.N,*%
X43815000Y-147320000D03*
%TD*%
%TO.P,,*%
%TO.N,*%
X104775000Y-111760000D03*
%TD*%
%TO.P,,*%
%TO.N,*%
X104775000Y-101600000D03*
%TD*%
%TO.P,,*%
%TO.N,*%
X28575000Y-116840000D03*
%TD*%
%TO.P,,*%
%TO.N,*%
X94615000Y-121920000D03*
%TD*%
%TO.P,,*%
%TO.N,*%
X89535000Y-111760000D03*
%TD*%
D16*
%TO.P,SW1,1*%
%TO.N,GND*%
X109474000Y-96520000D03*
D17*
%TO.P,SW1,2*%
X112014000Y-96520000D03*
%TO.P,SW1,3*%
X114554000Y-96520000D03*
%TO.P,SW1,4*%
X117094000Y-96520000D03*
%TO.P,SW1,5*%
X119634000Y-96520000D03*
%TO.P,SW1,6*%
X122174000Y-96520000D03*
%TO.P,SW1,7*%
X124714000Y-96520000D03*
%TO.P,SW1,8*%
X127254000Y-96520000D03*
%TO.P,SW1,9*%
%TO.N,/D7B*%
X127254000Y-88900000D03*
%TO.P,SW1,10*%
%TO.N,/D6B*%
X124714000Y-88900000D03*
%TO.P,SW1,11*%
%TO.N,/D5B*%
X122174000Y-88900000D03*
%TO.P,SW1,12*%
%TO.N,/D4B*%
X119634000Y-88900000D03*
%TO.P,SW1,13*%
%TO.N,/D3B*%
X117094000Y-88900000D03*
%TO.P,SW1,14*%
%TO.N,/D2B*%
X114554000Y-88900000D03*
%TO.P,SW1,15*%
%TO.N,/D1B*%
X112014000Y-88900000D03*
%TO.P,SW1,16*%
%TO.N,/D0B*%
X109474000Y-88900000D03*
%TD*%
D13*
%TO.P,,*%
%TO.N,*%
X31115000Y-134620000D03*
%TD*%
%TO.P,,*%
%TO.N,*%
X43815000Y-101600000D03*
%TD*%
%TO.P,,*%
%TO.N,*%
X64135000Y-149860000D03*
%TD*%
%TO.P,,*%
%TO.N,*%
X99687939Y-142224172D03*
%TD*%
%TO.P,,*%
%TO.N,*%
X94615000Y-116840000D03*
%TD*%
%TO.P,,*%
%TO.N,*%
X43815000Y-104140000D03*
%TD*%
%TO.P,,*%
%TO.N,*%
X117475000Y-126974600D03*
%TD*%
%TO.P,,*%
%TO.N,*%
X64135000Y-129540000D03*
%TD*%
%TO.P,,*%
%TO.N,*%
X102235000Y-127000000D03*
%TD*%
%TO.P,,*%
%TO.N,*%
X94615000Y-119380000D03*
%TD*%
%TO.P,,*%
%TO.N,GND*%
X120777000Y-134594600D03*
%TD*%
%TO.P,,*%
%TO.N,*%
X86995000Y-152400000D03*
%TD*%
%TO.P,,*%
%TO.N,*%
X97129189Y-111744172D03*
%TD*%
%TO.P,,*%
%TO.N,*%
X53975000Y-137160000D03*
%TD*%
%TO.P,,*%
%TO.N,*%
X97129189Y-119364172D03*
%TD*%
%TO.P,,*%
%TO.N,*%
X117475000Y-119354600D03*
%TD*%
D14*
%TO.P,R2,1*%
%TO.N,/D1*%
X112014000Y-61214000D03*
D15*
%TO.P,R2,2*%
%TO.N,/D1A*%
X112014000Y-71374000D03*
%TD*%
D13*
%TO.P,,*%
%TO.N,*%
X74295000Y-147320000D03*
%TD*%
%TO.P,,*%
%TO.N,*%
X86995000Y-144780000D03*
%TD*%
%TO.P,,*%
%TO.N,*%
X41275000Y-116840000D03*
%TD*%
%TO.P,,*%
%TO.N,*%
X112369189Y-124459999D03*
%TD*%
%TO.P,,*%
%TO.N,*%
X38735000Y-134620000D03*
%TD*%
%TO.P,,*%
%TO.N,*%
X109855000Y-127000000D03*
%TD*%
%TO.P,,*%
%TO.N,*%
X69215000Y-114300000D03*
%TD*%
D18*
%TO.P,X3,1,Pin_1*%
%TO.N,+5V*%
X78790800Y-87269400D03*
D19*
%TO.P,X3,2,Pin_2*%
%TO.N,/PC0*%
X78790800Y-89809400D03*
%TO.P,X3,3,Pin_3*%
%TO.N,/PC1*%
X76250800Y-87269400D03*
%TO.P,X3,4,Pin_4*%
%TO.N,/PC2*%
X76250800Y-89809400D03*
%TO.P,X3,5,Pin_5*%
%TO.N,/PC3*%
X73710800Y-87269400D03*
%TO.P,X3,6,Pin_6*%
%TO.N,/PC4*%
X73710800Y-89809400D03*
%TO.P,X3,7,Pin_7*%
%TO.N,/PC5*%
X71170800Y-87269400D03*
%TO.P,X3,8,Pin_8*%
%TO.N,/PC6*%
X71170800Y-89809400D03*
%TO.P,X3,9,Pin_9*%
%TO.N,/PC7*%
X68630800Y-87269400D03*
%TO.P,X3,10,Pin_10*%
%TO.N,GND*%
X68630800Y-89809400D03*
%TD*%
D13*
%TO.P,,*%
%TO.N,*%
X97129189Y-109219999D03*
%TD*%
%TO.P,,*%
%TO.N,*%
X59055000Y-119380000D03*
%TD*%
%TO.P,,*%
%TO.N,*%
X89535000Y-121920000D03*
%TD*%
%TO.P,,*%
%TO.N,*%
X109855000Y-109220000D03*
%TD*%
%TO.P,,*%
%TO.N,*%
X94615000Y-127000000D03*
%TD*%
%TO.P,,*%
%TO.N,*%
X86995000Y-121920000D03*
%TD*%
%TO.P,,*%
%TO.N,*%
X109855000Y-111760000D03*
%TD*%
%TO.P,,*%
%TO.N,*%
X41275000Y-114300000D03*
%TD*%
%TO.P,,*%
%TO.N,*%
X28575000Y-106680000D03*
%TD*%
%TO.P,,*%
%TO.N,*%
X84455000Y-116840000D03*
%TD*%
%TO.P,,*%
%TO.N,*%
X117475000Y-129514600D03*
%TD*%
D18*
%TO.P,X2,1,Pin_1*%
%TO.N,+5V*%
X97815400Y-87269400D03*
D19*
%TO.P,X2,2,Pin_2*%
%TO.N,/PB0*%
X97815400Y-89809400D03*
%TO.P,X2,3,Pin_3*%
%TO.N,/PB1*%
X95275400Y-87269400D03*
%TO.P,X2,4,Pin_4*%
%TO.N,/PB2*%
X95275400Y-89809400D03*
%TO.P,X2,5,Pin_5*%
%TO.N,/PB3*%
X92735400Y-87269400D03*
%TO.P,X2,6,Pin_6*%
%TO.N,/PB4*%
X92735400Y-89809400D03*
%TO.P,X2,7,Pin_7*%
%TO.N,/PB5*%
X90195400Y-87269400D03*
%TO.P,X2,8,Pin_8*%
%TO.N,/PB6*%
X90195400Y-89809400D03*
%TO.P,X2,9,Pin_9*%
%TO.N,/PB7*%
X87655400Y-87269400D03*
%TO.P,X2,10,Pin_10*%
%TO.N,GND*%
X87655400Y-89809400D03*
%TD*%
D13*
%TO.P,,*%
%TO.N,*%
X48895000Y-144780000D03*
%TD*%
%TO.P,,*%
%TO.N,*%
X79363068Y-111751396D03*
%TD*%
%TO.P,,*%
%TO.N,*%
X71755000Y-101600000D03*
%TD*%
%TO.P,,*%
%TO.N,*%
X104775000Y-134620000D03*
%TD*%
D20*
%TO.P,U2,1,A->B*%
%TO.N,+5V*%
X104394000Y-82032000D03*
D15*
%TO.P,U2,2,A0*%
%TO.N,/D0B*%
X106934000Y-82032000D03*
%TO.P,U2,3,A1*%
%TO.N,/D1B*%
X109474000Y-82032000D03*
%TO.P,U2,4,A2*%
%TO.N,/D2B*%
X112014000Y-82032000D03*
%TO.P,U2,5,A3*%
%TO.N,/D3B*%
X114554000Y-82032000D03*
%TO.P,U2,6,A4*%
%TO.N,/D4B*%
X117094000Y-82032000D03*
%TO.P,U2,7,A5*%
%TO.N,/D5B*%
X119634000Y-82032000D03*
%TO.P,U2,8,A6*%
%TO.N,/D6B*%
X122174000Y-82032000D03*
%TO.P,U2,9,A7*%
%TO.N,/D7B*%
X124714000Y-82032000D03*
%TO.P,U2,10,GND*%
%TO.N,GND*%
X127254000Y-82032000D03*
%TO.P,U2,11,B7*%
%TO.N,/D7A*%
X127254000Y-74412000D03*
%TO.P,U2,12,B6*%
%TO.N,/D6A*%
X124714000Y-74412000D03*
%TO.P,U2,13,B5*%
%TO.N,/D5A*%
X122174000Y-74412000D03*
%TO.P,U2,14,B4*%
%TO.N,/D4A*%
X119634000Y-74412000D03*
%TO.P,U2,15,B3*%
%TO.N,/D3A*%
X117094000Y-74412000D03*
%TO.P,U2,16,B2*%
%TO.N,/D2A*%
X114554000Y-74412000D03*
%TO.P,U2,17,B1*%
%TO.N,/D1A*%
X112014000Y-74412000D03*
%TO.P,U2,18,B0*%
%TO.N,/D0A*%
X109474000Y-74412000D03*
%TO.P,U2,19,CE*%
%TO.N,/{slash}OE*%
X106934000Y-74412000D03*
%TO.P,U2,20,VCC*%
%TO.N,+5V*%
X104394000Y-74412000D03*
%TD*%
D13*
%TO.P,,*%
%TO.N,*%
X43815000Y-144780000D03*
%TD*%
%TO.P,,*%
%TO.N,*%
X59055000Y-104140000D03*
%TD*%
%TO.P,,*%
%TO.N,*%
X109855000Y-104140000D03*
%TD*%
%TO.P,,*%
%TO.N,*%
X117475000Y-109194600D03*
%TD*%
%TO.P,,*%
%TO.N,*%
X61595000Y-137160000D03*
%TD*%
%TO.P,,*%
%TO.N,*%
X86995000Y-124460000D03*
%TD*%
%TO.P,C1,1*%
%TO.N,+5V*%
X104902000Y-90424000D03*
%TO.P,C1,2*%
%TO.N,GND*%
X104902000Y-95424000D03*
%TD*%
%TO.P,,*%
%TO.N,*%
X92075000Y-119380000D03*
%TD*%
%TO.P,,*%
%TO.N,*%
X43815000Y-106680000D03*
%TD*%
%TO.P,,*%
%TO.N,*%
X59055000Y-137160000D03*
%TD*%
%TO.P,,*%
%TO.N,*%
X109855000Y-116840000D03*
%TD*%
%TO.P,,*%
%TO.N,*%
X99687939Y-126984172D03*
%TD*%
%TO.P,,*%
%TO.N,*%
X53975000Y-101600000D03*
%TD*%
%TO.P,,*%
%TO.N,*%
X104775000Y-106680000D03*
%TD*%
%TO.P,,*%
%TO.N,*%
X76835000Y-116840000D03*
%TD*%
%TO.P,,*%
%TO.N,*%
X36195000Y-101600000D03*
%TD*%
%TO.P,,*%
%TO.N,*%
X38735000Y-147320000D03*
%TD*%
%TO.P,,*%
%TO.N,*%
X84455000Y-147320000D03*
%TD*%
%TO.P,,*%
%TO.N,*%
X43815000Y-139700000D03*
%TD*%
%TO.P,,*%
%TO.N,*%
X41275000Y-124460000D03*
%TD*%
%TO.P,,*%
%TO.N,*%
X43815000Y-121920000D03*
%TD*%
%TO.P,,*%
%TO.N,*%
X38735000Y-127000000D03*
%TD*%
%TO.P,,*%
%TO.N,+5V*%
X25400000Y-129540000D03*
%TD*%
%TO.P,,*%
%TO.N,*%
X114927939Y-109220000D03*
%TD*%
%TO.P,,*%
%TO.N,*%
X94615000Y-114300000D03*
%TD*%
%TO.P,,*%
%TO.N,*%
X76835000Y-149860000D03*
%TD*%
%TO.P,,*%
%TO.N,*%
X99687939Y-111744172D03*
%TD*%
%TO.P,,*%
%TO.N,*%
X56515000Y-106680000D03*
%TD*%
%TO.P,,*%
%TO.N,*%
X97155000Y-121920000D03*
%TD*%
%TO.P,,*%
%TO.N,*%
X64135000Y-144780000D03*
%TD*%
%TO.P,,*%
%TO.N,*%
X107315000Y-111760000D03*
%TD*%
%TO.P,C2,1*%
%TO.N,+5V*%
X41550600Y-86766400D03*
%TO.P,C2,2*%
%TO.N,GND*%
X36550600Y-86766400D03*
%TD*%
%TO.P,,*%
%TO.N,*%
X66675000Y-116840000D03*
%TD*%
%TO.P,,*%
%TO.N,*%
X107315000Y-129540000D03*
%TD*%
%TO.P,,*%
%TO.N,*%
X43815000Y-152400000D03*
%TD*%
%TO.P,,*%
%TO.N,*%
X79363068Y-104131396D03*
%TD*%
%TO.P,,*%
%TO.N,*%
X33655000Y-121920000D03*
%TD*%
%TO.P,,*%
%TO.N,*%
X86995000Y-116840000D03*
%TD*%
%TO.P,,*%
%TO.N,*%
X79375000Y-101600000D03*
%TD*%
%TO.P,,*%
%TO.N,*%
X94615000Y-144780000D03*
%TD*%
%TO.P,,*%
%TO.N,*%
X66675000Y-106680000D03*
%TD*%
%TO.P,,*%
%TO.N,*%
X107315000Y-109220000D03*
%TD*%
%TO.P,,*%
%TO.N,*%
X79363068Y-142231396D03*
%TD*%
%TO.P,,*%
%TO.N,*%
X92075000Y-132080000D03*
%TD*%
%TO.P,,*%
%TO.N,*%
X92075000Y-129540000D03*
%TD*%
%TO.P,,*%
%TO.N,*%
X112369189Y-132079999D03*
%TD*%
%TO.P,,*%
%TO.N,*%
X31115000Y-121920000D03*
%TD*%
%TO.P,,*%
%TO.N,*%
X109855000Y-106680000D03*
%TD*%
%TO.P,,*%
%TO.N,*%
X112369189Y-101599999D03*
%TD*%
%TO.P,,*%
%TO.N,*%
X51435000Y-119380000D03*
%TD*%
%TO.P,,*%
%TO.N,*%
X69215000Y-116840000D03*
%TD*%
%TO.P,,*%
%TO.N,*%
X81880422Y-147320000D03*
%TD*%
%TO.P,,*%
%TO.N,*%
X69215000Y-106680000D03*
%TD*%
%TO.P,,*%
%TO.N,*%
X56515000Y-142240000D03*
%TD*%
%TO.P,,*%
%TO.N,*%
X28575000Y-119380000D03*
%TD*%
%TO.P,,*%
%TO.N,*%
X97155000Y-137160000D03*
%TD*%
%TO.P,,*%
%TO.N,*%
X36195000Y-106680000D03*
%TD*%
%TO.P,,*%
%TO.N,*%
X79363068Y-114287094D03*
%TD*%
%TO.P,,*%
%TO.N,*%
X33655000Y-127000000D03*
%TD*%
%TO.P,,*%
%TO.N,*%
X59055000Y-142240000D03*
%TD*%
%TO.P,,*%
%TO.N,*%
X51435000Y-114300000D03*
%TD*%
D20*
%TO.P,U3,1,PA3*%
%TO.N,/PA3*%
X49535000Y-76840000D03*
D15*
%TO.P,U3,2,PA2*%
%TO.N,/PA2*%
X52075000Y-76840000D03*
%TO.P,U3,3,PA1*%
%TO.N,/PA1*%
X54615000Y-76840000D03*
%TO.P,U3,4,PA0*%
%TO.N,/PA0*%
X57155000Y-76840000D03*
%TO.P,U3,5,~{RD}*%
%TO.N,/{slash}RD*%
X59695000Y-76840000D03*
%TO.P,U3,6,~{CS}*%
%TO.N,/{slash}CS*%
X62235000Y-76840000D03*
%TO.P,U3,7,GND*%
%TO.N,GND*%
X64775000Y-76840000D03*
%TO.P,U3,8,A1*%
%TO.N,/A1*%
X67315000Y-76840000D03*
%TO.P,U3,9,A0*%
%TO.N,/A0*%
X69855000Y-76840000D03*
%TO.P,U3,10,PC7*%
%TO.N,/PC7*%
X72395000Y-76840000D03*
%TO.P,U3,11,PC6*%
%TO.N,/PC6*%
X74935000Y-76840000D03*
%TO.P,U3,12,PC5*%
%TO.N,/PC5*%
X77475000Y-76840000D03*
%TO.P,U3,13,PC4*%
%TO.N,/PC4*%
X80015000Y-76840000D03*
%TO.P,U3,14,PC0*%
%TO.N,/PC0*%
X82555000Y-76840000D03*
%TO.P,U3,15,PC1*%
%TO.N,/PC1*%
X85095000Y-76840000D03*
%TO.P,U3,16,PC2*%
%TO.N,/PC2*%
X87635000Y-76840000D03*
%TO.P,U3,17,PC3*%
%TO.N,/PC3*%
X90175000Y-76840000D03*
%TO.P,U3,18,PB0*%
%TO.N,/PB0*%
X92715000Y-76840000D03*
%TO.P,U3,19,PB1*%
%TO.N,/PB1*%
X95255000Y-76840000D03*
%TO.P,U3,20,PB2*%
%TO.N,/PB2*%
X97795000Y-76840000D03*
%TO.P,U3,21,PB3*%
%TO.N,/PB3*%
X97795000Y-61600000D03*
%TO.P,U3,22,PB4*%
%TO.N,/PB4*%
X95255000Y-61600000D03*
%TO.P,U3,23,PB5*%
%TO.N,/PB5*%
X92715000Y-61600000D03*
%TO.P,U3,24,PB6*%
%TO.N,/PB6*%
X90175000Y-61600000D03*
%TO.P,U3,25,PB7*%
%TO.N,/PB7*%
X87635000Y-61600000D03*
%TO.P,U3,26,VCC*%
%TO.N,+5V*%
X85095000Y-61600000D03*
%TO.P,U3,27,D7*%
%TO.N,/D7A*%
X82555000Y-61600000D03*
%TO.P,U3,28,D6*%
%TO.N,/D6A*%
X80015000Y-61600000D03*
%TO.P,U3,29,D5*%
%TO.N,/D5A*%
X77475000Y-61600000D03*
%TO.P,U3,30,D4*%
%TO.N,/D4A*%
X74935000Y-61600000D03*
%TO.P,U3,31,D3*%
%TO.N,/D3A*%
X72395000Y-61600000D03*
%TO.P,U3,32,D2*%
%TO.N,/D2A*%
X69855000Y-61600000D03*
%TO.P,U3,33,D1*%
%TO.N,/D1A*%
X67315000Y-61600000D03*
%TO.P,U3,34,D0*%
%TO.N,/D0A*%
X64775000Y-61600000D03*
%TO.P,U3,35,RESET*%
%TO.N,Net-(JP1-Pad2)*%
X62235000Y-61600000D03*
%TO.P,U3,36,~{WR}*%
%TO.N,/{slash}WR*%
X59695000Y-61600000D03*
%TO.P,U3,37,PA7*%
%TO.N,/PA7*%
X57155000Y-61600000D03*
%TO.P,U3,38,PA6*%
%TO.N,/PA6*%
X54615000Y-61600000D03*
%TO.P,U3,39,PA5*%
%TO.N,/PA5*%
X52075000Y-61600000D03*
%TO.P,U3,40,PA4*%
%TO.N,/PA4*%
X49535000Y-61600000D03*
%TD*%
D13*
%TO.P,,*%
%TO.N,*%
X28575000Y-127000000D03*
%TD*%
%TO.P,,*%
%TO.N,*%
X38735000Y-119380000D03*
%TD*%
%TO.P,,*%
%TO.N,*%
X104775000Y-124460000D03*
%TD*%
%TO.P,,*%
%TO.N,*%
X86995000Y-142240000D03*
%TD*%
%TO.P,,*%
%TO.N,*%
X112369189Y-104124172D03*
%TD*%
D14*
%TO.P,R8,1*%
%TO.N,/D7*%
X127254000Y-61214000D03*
D15*
%TO.P,R8,2*%
%TO.N,/D7A*%
X127254000Y-71374000D03*
%TD*%
D13*
%TO.P,,*%
%TO.N,*%
X79363068Y-106667094D03*
%TD*%
%TO.P,,*%
%TO.N,*%
X31115000Y-111760000D03*
%TD*%
%TO.P,,*%
%TO.N,*%
X86995000Y-134620000D03*
%TD*%
%TO.P,,*%
%TO.N,*%
X59055000Y-144780000D03*
%TD*%
%TO.P,,*%
%TO.N,*%
X112395000Y-106680000D03*
%TD*%
%TO.P,,*%
%TO.N,*%
X59055000Y-139700000D03*
%TD*%
%TO.P,,*%
%TO.N,*%
X66675000Y-144780000D03*
%TD*%
%TO.P,,*%
%TO.N,*%
X81880422Y-111760000D03*
%TD*%
%TO.P,,*%
%TO.N,*%
X104775000Y-109220000D03*
%TD*%
%TO.P,,*%
%TO.N,*%
X48895000Y-149860000D03*
%TD*%
%TO.P,,*%
%TO.N,*%
X86995000Y-111760000D03*
%TD*%
%TO.P,,*%
%TO.N,*%
X99687939Y-132080000D03*
%TD*%
%TO.P,,*%
%TO.N,*%
X66675000Y-132080000D03*
%TD*%
%TO.P,,*%
%TO.N,*%
X92075000Y-104140000D03*
%TD*%
%TO.P,,*%
%TO.N,*%
X104775000Y-137160000D03*
%TD*%
%TO.P,,*%
%TO.N,*%
X97155000Y-144780000D03*
%TD*%
%TO.P,,*%
%TO.N,*%
X48895000Y-109220000D03*
%TD*%
%TO.P,,*%
%TO.N,*%
X92075000Y-149860000D03*
%TD*%
%TO.P,,*%
%TO.N,*%
X81880422Y-101599999D03*
%TD*%
%TO.P,,*%
%TO.N,*%
X53975000Y-116840000D03*
%TD*%
%TO.P,,*%
%TO.N,*%
X117475000Y-132054600D03*
%TD*%
%TO.P,,*%
%TO.N,*%
X48895000Y-129540000D03*
%TD*%
%TO.P,,*%
%TO.N,+5V*%
X25400000Y-114300000D03*
%TD*%
%TO.P,,*%
%TO.N,*%
X104775000Y-121920000D03*
%TD*%
%TO.P,,*%
%TO.N,*%
X64135000Y-101600000D03*
%TD*%
%TO.P,,*%
%TO.N,*%
X53975000Y-144780000D03*
%TD*%
%TO.P,,*%
%TO.N,*%
X86995000Y-132080000D03*
%TD*%
%TO.P,,*%
%TO.N,*%
X117475000Y-121894600D03*
%TD*%
%TO.P,,*%
%TO.N,*%
X53975000Y-114300000D03*
%TD*%
%TO.P,,*%
%TO.N,*%
X102235000Y-124460000D03*
%TD*%
%TO.P,,*%
%TO.N,+5V*%
X25400000Y-134620000D03*
%TD*%
%TO.P,,*%
%TO.N,*%
X53975000Y-132080000D03*
%TD*%
%TO.P,,*%
%TO.N,*%
X84455000Y-104140000D03*
%TD*%
%TO.P,,*%
%TO.N,*%
X117475000Y-111734600D03*
%TD*%
%TO.P,,*%
%TO.N,*%
X46355000Y-111760000D03*
%TD*%
%TO.P,,*%
%TO.N,*%
X71755000Y-144780000D03*
%TD*%
%TO.P,,*%
%TO.N,*%
X74295000Y-101600000D03*
%TD*%
%TO.P,,*%
%TO.N,*%
X48895000Y-114300000D03*
%TD*%
%TO.P,,*%
%TO.N,*%
X48895000Y-106680000D03*
%TD*%
%TO.P,,*%
%TO.N,*%
X59055000Y-147320000D03*
%TD*%
%TO.P,,*%
%TO.N,*%
X97129189Y-101599999D03*
%TD*%
%TO.P,,*%
%TO.N,*%
X104775000Y-119380000D03*
%TD*%
%TO.P,,*%
%TO.N,*%
X84455000Y-132080000D03*
%TD*%
%TO.P,,*%
%TO.N,*%
X41275000Y-111760000D03*
%TD*%
%TO.P,,*%
%TO.N,GND*%
X120777000Y-101574600D03*
%TD*%
%TO.P,,*%
%TO.N,*%
X46355000Y-149860000D03*
%TD*%
%TO.P,,*%
%TO.N,+5V*%
X25400000Y-104140000D03*
%TD*%
%TO.P,,*%
%TO.N,*%
X114927939Y-101600000D03*
%TD*%
%TO.P,,*%
%TO.N,GND*%
X120777000Y-119354600D03*
%TD*%
%TO.P,,*%
%TO.N,*%
X48895000Y-121920000D03*
%TD*%
%TO.P,,*%
%TO.N,GND*%
X120777000Y-121894600D03*
%TD*%
%TO.P,,*%
%TO.N,*%
X104775000Y-142240000D03*
%TD*%
%TO.P,,*%
%TO.N,*%
X99687939Y-147288344D03*
%TD*%
%TO.P,,*%
%TO.N,*%
X84455000Y-127000000D03*
%TD*%
%TO.P,,*%
%TO.N,*%
X76835000Y-144780000D03*
%TD*%
%TO.P,,*%
%TO.N,*%
X81880422Y-134620000D03*
%TD*%
%TO.P,,*%
%TO.N,*%
X66675000Y-134620000D03*
%TD*%
%TO.P,,*%
%TO.N,*%
X71755000Y-147320000D03*
%TD*%
%TO.P,,*%
%TO.N,*%
X71755000Y-142240000D03*
%TD*%
%TO.P,,*%
%TO.N,GND*%
X120777000Y-129514600D03*
%TD*%
%TO.P,,*%
%TO.N,*%
X48895000Y-127000000D03*
%TD*%
%TO.P,,*%
%TO.N,*%
X114927939Y-104124172D03*
%TD*%
%TO.P,,*%
%TO.N,*%
X46355000Y-144780000D03*
%TD*%
%TO.P,,*%
%TO.N,*%
X84455000Y-137160000D03*
%TD*%
%TO.P,,*%
%TO.N,*%
X69215000Y-139700000D03*
%TD*%
%TO.P,,*%
%TO.N,*%
X41275000Y-137160000D03*
%TD*%
%TO.P,,*%
%TO.N,*%
X86995000Y-109220000D03*
%TD*%
%TO.P,,*%
%TO.N,*%
X89535000Y-137160000D03*
%TD*%
%TO.P,,*%
%TO.N,*%
X28575000Y-101600000D03*
%TD*%
%TO.P,,*%
%TO.N,*%
X89535000Y-152400000D03*
%TD*%
%TO.P,,*%
%TO.N,*%
X53975000Y-106680000D03*
%TD*%
%TO.P,,*%
%TO.N,*%
X28575000Y-104140000D03*
%TD*%
%TO.P,,*%
%TO.N,*%
X36195000Y-119380000D03*
%TD*%
%TO.P,,*%
%TO.N,*%
X59055000Y-132080000D03*
%TD*%
%TO.P,,*%
%TO.N,*%
X41275000Y-142240000D03*
%TD*%
%TO.P,,*%
%TO.N,*%
X41275000Y-152400000D03*
%TD*%
%TO.P,,*%
%TO.N,*%
X79363068Y-119371396D03*
%TD*%
%TO.P,,*%
%TO.N,*%
X74295000Y-134620000D03*
%TD*%
%TO.P,,*%
%TO.N,*%
X84455000Y-144780000D03*
%TD*%
%TO.P,,*%
%TO.N,*%
X38735000Y-121920000D03*
%TD*%
%TO.P,,*%
%TO.N,*%
X66675000Y-111760000D03*
%TD*%
%TO.P,,*%
%TO.N,*%
X56515000Y-144780000D03*
%TD*%
%TO.P,,*%
%TO.N,GND*%
X120777000Y-109194600D03*
%TD*%
%TO.P,,*%
%TO.N,*%
X76835000Y-132080000D03*
%TD*%
%TO.P,,*%
%TO.N,*%
X97129189Y-124459999D03*
%TD*%
%TO.P,,*%
%TO.N,+5V*%
X25400000Y-121920000D03*
%TD*%
%TO.P,,*%
%TO.N,*%
X99687939Y-101600000D03*
%TD*%
%TO.P,,*%
%TO.N,*%
X46355000Y-142240000D03*
%TD*%
%TO.P,,*%
%TO.N,*%
X33655000Y-106680000D03*
%TD*%
%TO.P,,*%
%TO.N,*%
X66675000Y-109220000D03*
%TD*%
%TO.P,,*%
%TO.N,*%
X46355000Y-101600000D03*
%TD*%
%TO.P,,*%
%TO.N,*%
X51435000Y-104140000D03*
%TD*%
%TO.P,,*%
%TO.N,*%
X59055000Y-134620000D03*
%TD*%
%TO.P,,*%
%TO.N,*%
X41275000Y-121920000D03*
%TD*%
%TO.P,,*%
%TO.N,*%
X69215000Y-109220000D03*
%TD*%
%TO.P,,*%
%TO.N,*%
X81880422Y-104140000D03*
%TD*%
%TO.P,,*%
%TO.N,*%
X79363068Y-149847094D03*
%TD*%
%TO.P,,*%
%TO.N,*%
X84455000Y-106680000D03*
%TD*%
%TO.P,,*%
%TO.N,*%
X46355000Y-139700000D03*
%TD*%
%TO.P,,*%
%TO.N,*%
X71755000Y-109220000D03*
%TD*%
%TO.P,,*%
%TO.N,*%
X66675000Y-149860000D03*
%TD*%
%TO.P,,*%
%TO.N,*%
X64135000Y-104140000D03*
%TD*%
%TO.P,,*%
%TO.N,*%
X36195000Y-114300000D03*
%TD*%
%TO.P,,*%
%TO.N,*%
X74295000Y-132080000D03*
%TD*%
%TO.P,,*%
%TO.N,*%
X61595000Y-101600000D03*
%TD*%
%TO.P,,*%
%TO.N,*%
X53975000Y-104140000D03*
%TD*%
%TO.P,,*%
%TO.N,*%
X33655000Y-132080000D03*
%TD*%
%TO.P,,*%
%TO.N,*%
X36195000Y-109220000D03*
%TD*%
%TO.P,,*%
%TO.N,*%
X38735000Y-132080000D03*
%TD*%
%TO.P,,*%
%TO.N,*%
X74295000Y-116840000D03*
%TD*%
%TO.P,,*%
%TO.N,*%
X76835000Y-152400000D03*
%TD*%
%TO.P,,*%
%TO.N,*%
X46355000Y-124460000D03*
%TD*%
%TO.P,,*%
%TO.N,*%
X69215000Y-111760000D03*
%TD*%
%TO.P,,*%
%TO.N,*%
X53975000Y-139700000D03*
%TD*%
%TO.P,,*%
%TO.N,*%
X94615000Y-109220000D03*
%TD*%
%TO.P,,*%
%TO.N,*%
X84455000Y-111760000D03*
%TD*%
%TO.P,,*%
%TO.N,*%
X89535000Y-124460000D03*
%TD*%
%TO.P,,*%
%TO.N,*%
X53975000Y-134620000D03*
%TD*%
%TO.P,,*%
%TO.N,*%
X97155000Y-106680000D03*
%TD*%
%TO.P,,*%
%TO.N,*%
X38735000Y-106680000D03*
%TD*%
%TO.P,,*%
%TO.N,*%
X43815000Y-132080000D03*
%TD*%
D18*
%TO.P,JP1,1,A*%
%TO.N,GND*%
X27115000Y-86700000D03*
D19*
%TO.P,JP1,2,C*%
%TO.N,Net-(JP1-Pad2)*%
X29655000Y-86700000D03*
%TO.P,JP1,3,B*%
%TO.N,/RESET*%
X32195000Y-86700000D03*
%TD*%
D13*
%TO.P,,*%
%TO.N,+5V*%
X25400000Y-124460000D03*
%TD*%
%TO.P,,*%
%TO.N,*%
X109855000Y-129540000D03*
%TD*%
%TO.P,,*%
%TO.N,*%
X74295000Y-111760000D03*
%TD*%
%TO.P,,*%
%TO.N,*%
X114927939Y-132080000D03*
%TD*%
%TO.P,,*%
%TO.N,*%
X69215000Y-127000000D03*
%TD*%
%TO.P,,*%
%TO.N,*%
X114927939Y-116840000D03*
%TD*%
%TO.P,,*%
%TO.N,*%
X71755000Y-149860000D03*
%TD*%
%TO.P,,*%
%TO.N,*%
X94615000Y-149860000D03*
%TD*%
%TO.P,,*%
%TO.N,*%
X61595000Y-139700000D03*
%TD*%
%TO.P,,*%
%TO.N,*%
X48895000Y-124460000D03*
%TD*%
%TO.P,,*%
%TO.N,*%
X79375000Y-132080000D03*
%TD*%
%TO.P,,*%
%TO.N,*%
X109855000Y-124460000D03*
%TD*%
%TO.P,,*%
%TO.N,*%
X117475000Y-101574600D03*
%TD*%
%TO.P,,*%
%TO.N,GND*%
X120777000Y-104114600D03*
%TD*%
%TO.P,,*%
%TO.N,*%
X99687939Y-137128344D03*
%TD*%
%TO.P,,*%
%TO.N,*%
X76835000Y-114300000D03*
%TD*%
%TO.P,,*%
%TO.N,*%
X69215000Y-104140000D03*
%TD*%
%TO.P,,*%
%TO.N,*%
X61595000Y-149860000D03*
%TD*%
%TO.P,,*%
%TO.N,*%
X102235000Y-116840000D03*
%TD*%
%TO.P,,*%
%TO.N,*%
X38735000Y-152400000D03*
%TD*%
%TO.P,,*%
%TO.N,*%
X56515000Y-116840000D03*
%TD*%
%TO.P,,*%
%TO.N,*%
X99687939Y-124460000D03*
%TD*%
%TO.P,,*%
%TO.N,*%
X99687939Y-152368344D03*
%TD*%
%TO.P,,*%
%TO.N,*%
X114927939Y-129508344D03*
%TD*%
%TO.P,,*%
%TO.N,*%
X102235000Y-144780000D03*
%TD*%
%TO.P,,*%
%TO.N,*%
X107315000Y-139700000D03*
%TD*%
%TO.P,,*%
%TO.N,*%
X102235000Y-106680000D03*
%TD*%
%TO.P,,*%
%TO.N,*%
X92075000Y-134620000D03*
%TD*%
%TO.P,,*%
%TO.N,*%
X99687939Y-114268344D03*
%TD*%
%TO.P,,*%
%TO.N,*%
X107315000Y-134620000D03*
%TD*%
%TO.P,,*%
%TO.N,*%
X71755000Y-132080000D03*
%TD*%
%TO.P,,*%
%TO.N,*%
X86995000Y-139700000D03*
%TD*%
%TO.P,,*%
%TO.N,*%
X61595000Y-124460000D03*
%TD*%
%TO.P,,*%
%TO.N,*%
X59055000Y-109220000D03*
%TD*%
%TO.P,,*%
%TO.N,*%
X74295000Y-124460000D03*
%TD*%
%TO.P,,*%
%TO.N,*%
X104775000Y-132080000D03*
%TD*%
%TO.P,,*%
%TO.N,*%
X69215000Y-129540000D03*
%TD*%
D20*
%TO.P,RN1,1,common*%
%TO.N,+5V*%
X106919000Y-85344000D03*
D15*
%TO.P,RN1,2,R1*%
%TO.N,/D0B*%
X109459000Y-85344000D03*
%TO.P,RN1,3,R2*%
%TO.N,/D1B*%
X111999000Y-85344000D03*
%TO.P,RN1,4,R3*%
%TO.N,/D2B*%
X114539000Y-85344000D03*
%TO.P,RN1,5,R4*%
%TO.N,/D3B*%
X117079000Y-85344000D03*
%TO.P,RN1,6,R5*%
%TO.N,/D4B*%
X119619000Y-85344000D03*
%TO.P,RN1,7,R6*%
%TO.N,/D5B*%
X122159000Y-85344000D03*
%TO.P,RN1,8,R7*%
%TO.N,/D6B*%
X124699000Y-85344000D03*
%TO.P,RN1,9,R8*%
%TO.N,/D7B*%
X127239000Y-85344000D03*
%TD*%
D13*
%TO.P,,*%
%TO.N,*%
X74295000Y-114300000D03*
%TD*%
%TO.P,,*%
%TO.N,*%
X51435000Y-142240000D03*
%TD*%
%TO.P,,*%
%TO.N,*%
X51435000Y-137160000D03*
%TD*%
%TO.P,,*%
%TO.N,*%
X53975000Y-124460000D03*
%TD*%
%TO.P,,*%
%TO.N,GND*%
X120777000Y-111734600D03*
%TD*%
%TO.P,,*%
%TO.N,*%
X97129189Y-142224172D03*
%TD*%
%TO.P,,*%
%TO.N,*%
X97155000Y-114300000D03*
%TD*%
%TO.P,,*%
%TO.N,*%
X56515000Y-104140000D03*
%TD*%
%TO.P,,*%
%TO.N,*%
X114927939Y-134604172D03*
%TD*%
%TO.P,,*%
%TO.N,*%
X89535000Y-134620000D03*
%TD*%
%TO.P,,*%
%TO.N,*%
X61595000Y-106680000D03*
%TD*%
%TO.P,,*%
%TO.N,*%
X81880422Y-152400000D03*
%TD*%
%TO.P,,*%
%TO.N,*%
X92075000Y-101600000D03*
%TD*%
%TO.P,,*%
%TO.N,*%
X84455000Y-119380000D03*
%TD*%
%TO.P,,*%
%TO.N,*%
X61595000Y-152400000D03*
%TD*%
%TO.P,,*%
%TO.N,*%
X31115000Y-104140000D03*
%TD*%
%TO.P,,*%
%TO.N,*%
X28575000Y-121920000D03*
%TD*%
%TO.P,,*%
%TO.N,*%
X43815000Y-119380000D03*
%TD*%
%TO.P,,*%
%TO.N,*%
X104775000Y-116840000D03*
%TD*%
%TO.P,,*%
%TO.N,*%
X61595000Y-134620000D03*
%TD*%
%TO.P,,*%
%TO.N,*%
X76835000Y-134620000D03*
%TD*%
%TO.P,,*%
%TO.N,GND*%
X120777000Y-124434600D03*
%TD*%
%TO.P,,*%
%TO.N,*%
X33655000Y-119380000D03*
%TD*%
%TO.P,,*%
%TO.N,*%
X112369189Y-119364172D03*
%TD*%
%TO.P,,*%
%TO.N,*%
X79375000Y-109220000D03*
%TD*%
%TO.P,,*%
%TO.N,*%
X61595000Y-121920000D03*
%TD*%
%TO.P,,*%
%TO.N,*%
X102235000Y-149860000D03*
%TD*%
%TO.P,,*%
%TO.N,*%
X107315000Y-101600000D03*
%TD*%
D14*
%TO.P,R4,1*%
%TO.N,/D3*%
X117094000Y-61214000D03*
D15*
%TO.P,R4,2*%
%TO.N,/D3A*%
X117094000Y-71374000D03*
%TD*%
D13*
%TO.P,,*%
%TO.N,*%
X48895000Y-152400000D03*
%TD*%
%TO.P,,*%
%TO.N,*%
X56515000Y-134620000D03*
%TD*%
%TO.P,,*%
%TO.N,*%
X36195000Y-124460000D03*
%TD*%
%TO.P,,*%
%TO.N,*%
X43815000Y-127000000D03*
%TD*%
%TO.P,,*%
%TO.N,*%
X74295000Y-127000000D03*
%TD*%
%TO.P,,*%
%TO.N,*%
X38735000Y-101600000D03*
%TD*%
%TO.P,,*%
%TO.N,*%
X81880422Y-127000000D03*
%TD*%
%TO.P,,*%
%TO.N,*%
X51435000Y-116840000D03*
%TD*%
%TO.P,,*%
%TO.N,*%
X66675000Y-139700000D03*
%TD*%
%TO.P,,*%
%TO.N,*%
X92075000Y-139700000D03*
%TD*%
%TO.P,,*%
%TO.N,*%
X86995000Y-127000000D03*
%TD*%
%TO.P,,*%
%TO.N,*%
X97155000Y-152400000D03*
%TD*%
%TO.P,,*%
%TO.N,*%
X94615000Y-134620000D03*
%TD*%
%TO.P,,*%
%TO.N,*%
X38735000Y-129540000D03*
%TD*%
%TO.P,,*%
%TO.N,*%
X76835000Y-129540000D03*
%TD*%
%TO.P,,*%
%TO.N,*%
X46355000Y-137160000D03*
%TD*%
%TO.P,,*%
%TO.N,*%
X38735000Y-109220000D03*
%TD*%
%TO.P,,*%
%TO.N,*%
X28575000Y-134620000D03*
%TD*%
%TO.P,,*%
%TO.N,*%
X92075000Y-144780000D03*
%TD*%
%TO.P,,*%
%TO.N,*%
X56515000Y-114300000D03*
%TD*%
D18*
%TO.P,X1,1,Pin_1*%
%TO.N,+5V*%
X59690000Y-87249000D03*
D19*
%TO.P,X1,2,Pin_2*%
%TO.N,/PA0*%
X59690000Y-89789000D03*
%TO.P,X1,3,Pin_3*%
%TO.N,/PA1*%
X57150000Y-87249000D03*
%TO.P,X1,4,Pin_4*%
%TO.N,/PA2*%
X57150000Y-89789000D03*
%TO.P,X1,5,Pin_5*%
%TO.N,/PA3*%
X54610000Y-87249000D03*
%TO.P,X1,6,Pin_6*%
%TO.N,/PA4*%
X54610000Y-89789000D03*
%TO.P,X1,7,Pin_7*%
%TO.N,/PA5*%
X52070000Y-87249000D03*
%TO.P,X1,8,Pin_8*%
%TO.N,/PA6*%
X52070000Y-89789000D03*
%TO.P,X1,9,Pin_9*%
%TO.N,/PA7*%
X49530000Y-87249000D03*
%TO.P,X1,10,Pin_10*%
%TO.N,GND*%
X49530000Y-89789000D03*
%TD*%
D13*
%TO.P,,*%
%TO.N,*%
X66675000Y-152400000D03*
%TD*%
%TO.P,,*%
%TO.N,*%
X48895000Y-111760000D03*
%TD*%
%TO.P,,*%
%TO.N,*%
X109855000Y-101600000D03*
%TD*%
%TO.P,,*%
%TO.N,*%
X59055000Y-121920000D03*
%TD*%
%TO.P,,*%
%TO.N,*%
X86995000Y-129540000D03*
%TD*%
%TO.P,,*%
%TO.N,*%
X94615000Y-137160000D03*
%TD*%
%TO.P,,*%
%TO.N,*%
X66675000Y-127000000D03*
%TD*%
%TO.P,,*%
%TO.N,*%
X84455000Y-114300000D03*
%TD*%
%TO.P,,*%
%TO.N,*%
X61595000Y-127000000D03*
%TD*%
%TO.P,,*%
%TO.N,*%
X41275000Y-101600000D03*
%TD*%
%TO.P,,*%
%TO.N,*%
X89535000Y-101600000D03*
%TD*%
%TO.P,,*%
%TO.N,*%
X64135000Y-114300000D03*
%TD*%
%TO.P,,*%
%TO.N,*%
X69215000Y-137160000D03*
%TD*%
%TO.P,,*%
%TO.N,*%
X94615000Y-129540000D03*
%TD*%
%TO.P,,*%
%TO.N,*%
X46355000Y-132080000D03*
%TD*%
%TO.P,,*%
%TO.N,*%
X84455000Y-121920000D03*
%TD*%
D14*
%TO.P,R6,1*%
%TO.N,/D5*%
X122174000Y-61214000D03*
D15*
%TO.P,R6,2*%
%TO.N,/D5A*%
X122174000Y-71374000D03*
%TD*%
D13*
%TO.P,,*%
%TO.N,*%
X84455000Y-109220000D03*
%TD*%
%TO.P,,*%
%TO.N,*%
X64135000Y-111760000D03*
%TD*%
%TO.P,,*%
%TO.N,*%
X61595000Y-119380000D03*
%TD*%
%TO.P,,*%
%TO.N,*%
X89535000Y-127000000D03*
%TD*%
%TO.P,,*%
%TO.N,*%
X107315000Y-106680000D03*
%TD*%
%TO.P,,*%
%TO.N,*%
X74295000Y-106680000D03*
%TD*%
%TO.P,,*%
%TO.N,*%
X36195000Y-127000000D03*
%TD*%
%TO.P,,*%
%TO.N,*%
X51435000Y-109220000D03*
%TD*%
%TO.P,,*%
%TO.N,*%
X28575000Y-109220000D03*
%TD*%
%TO.P,,*%
%TO.N,*%
X59055000Y-114300000D03*
%TD*%
%TO.P,,*%
%TO.N,*%
X33655000Y-134620000D03*
%TD*%
%TO.P,,*%
%TO.N,*%
X46355000Y-114300000D03*
%TD*%
%TO.P,,*%
%TO.N,*%
X36195000Y-111760000D03*
%TD*%
%TO.P,,*%
%TO.N,*%
X94615000Y-132080000D03*
%TD*%
%TO.P,,*%
%TO.N,*%
X33655000Y-111760000D03*
%TD*%
%TO.P,,*%
%TO.N,*%
X28575000Y-124460000D03*
%TD*%
%TO.P,,*%
%TO.N,*%
X31115000Y-119380000D03*
%TD*%
%TO.P,,*%
%TO.N,*%
X51435000Y-127000000D03*
%TD*%
%TO.P,,*%
%TO.N,*%
X81880422Y-132079999D03*
%TD*%
%TO.P,,*%
%TO.N,*%
X64135000Y-142240000D03*
%TD*%
%TO.P,,*%
%TO.N,*%
X66675000Y-137160000D03*
%TD*%
%TO.P,,*%
%TO.N,*%
X41275000Y-144780000D03*
%TD*%
%TO.P,,*%
%TO.N,*%
X84455000Y-134620000D03*
%TD*%
%TO.P,,*%
%TO.N,*%
X43815000Y-109220000D03*
%TD*%
%TO.P,,*%
%TO.N,*%
X64135000Y-121920000D03*
%TD*%
%TO.P,,*%
%TO.N,*%
X74295000Y-129540000D03*
%TD*%
%TO.P,,*%
%TO.N,*%
X76835000Y-106680000D03*
%TD*%
%TO.P,,*%
%TO.N,*%
X43815000Y-142240000D03*
%TD*%
%TO.P,,*%
%TO.N,*%
X33655000Y-109220000D03*
%TD*%
%TO.P,,*%
%TO.N,*%
X76835000Y-121920000D03*
%TD*%
%TO.P,,*%
%TO.N,*%
X64135000Y-139700000D03*
%TD*%
%TO.P,,*%
%TO.N,*%
X102235000Y-152400000D03*
%TD*%
%TO.P,,*%
%TO.N,*%
X41275000Y-149860000D03*
%TD*%
%TO.P,,*%
%TO.N,*%
X81880422Y-137160000D03*
%TD*%
%TO.P,,*%
%TO.N,*%
X71755000Y-121920000D03*
%TD*%
%TO.P,,*%
%TO.N,*%
X48895000Y-137160000D03*
%TD*%
%TO.P,,*%
%TO.N,*%
X38735000Y-104140000D03*
%TD*%
%TO.P,,*%
%TO.N,*%
X117475000Y-134594600D03*
%TD*%
%TO.P,,*%
%TO.N,*%
X41275000Y-106680000D03*
%TD*%
%TO.P,,*%
%TO.N,*%
X102235000Y-137160000D03*
%TD*%
%TO.P,,*%
%TO.N,*%
X56515000Y-149860000D03*
%TD*%
%TO.P,,*%
%TO.N,*%
X81880422Y-116839999D03*
%TD*%
%TO.P,,*%
%TO.N,*%
X56515000Y-111760000D03*
%TD*%
%TO.P,,*%
%TO.N,*%
X69215000Y-101600000D03*
%TD*%
%TO.P,,*%
%TO.N,*%
X41275000Y-132080000D03*
%TD*%
%TO.P,,*%
%TO.N,*%
X71755000Y-119380000D03*
%TD*%
%TO.P,,*%
%TO.N,*%
X33655000Y-129540000D03*
%TD*%
%TO.P,,*%
%TO.N,*%
X94615000Y-139700000D03*
%TD*%
%TO.P,,*%
%TO.N,*%
X64135000Y-137160000D03*
%TD*%
%TO.P,,*%
%TO.N,*%
X112395000Y-114300000D03*
%TD*%
%TO.P,,*%
%TO.N,*%
X94615000Y-101600000D03*
%TD*%
%TO.P,,*%
%TO.N,*%
X43815000Y-129540000D03*
%TD*%
%TO.P,,*%
%TO.N,*%
X89535000Y-139700000D03*
%TD*%
%TO.P,,*%
%TO.N,GND*%
X120777000Y-116814600D03*
%TD*%
%TO.P,,*%
%TO.N,*%
X61595000Y-111760000D03*
%TD*%
%TO.P,,*%
%TO.N,*%
X74295000Y-137160000D03*
%TD*%
%TO.P,,*%
%TO.N,*%
X97129189Y-132079999D03*
%TD*%
%TO.P,,*%
%TO.N,*%
X114927939Y-111744172D03*
%TD*%
D21*
%TO.P,P1,1,P1*%
%TO.N,GND*%
X108338511Y-39024751D03*
%TO.P,P1,2,P2*%
X105839151Y-39024751D03*
%TO.P,P1,3,P3*%
%TO.N,unconnected-(P1-Pad3)*%
X103337251Y-39024751D03*
%TO.P,P1,4,P4*%
%TO.N,/D7*%
X100837891Y-39024751D03*
%TO.P,P1,5,P5*%
%TO.N,/D5*%
X98338531Y-39024751D03*
%TO.P,P1,6,P6*%
%TO.N,/D3*%
X95836631Y-39024751D03*
%TO.P,P1,7,P7*%
%TO.N,/D1*%
X93337271Y-39024751D03*
%TO.P,P1,8,P8*%
%TO.N,/{slash}WR*%
X90837911Y-39024751D03*
%TO.P,P1,9,P9*%
%TO.N,unconnected-(P1-Pad9)*%
X88338551Y-39024751D03*
%TO.P,P1,10,P10*%
%TO.N,/IEO*%
X85836651Y-39024751D03*
%TO.P,P1,11,P11*%
%TO.N,unconnected-(P1-Pad11)*%
X83337291Y-39024751D03*
%TO.P,P1,12,P12*%
%TO.N,unconnected-(P1-Pad12)*%
X80837931Y-39024751D03*
%TO.P,P1,13,P13*%
%TO.N,unconnected-(P1-Pad13)*%
X78338571Y-39024751D03*
%TO.P,P1,14,P14*%
%TO.N,/AB8*%
X75836671Y-39024751D03*
%TO.P,P1,15,P15*%
%TO.N,unconnected-(P1-Pad15)*%
X73337311Y-39024751D03*
%TO.P,P1,16,P16*%
%TO.N,/AB6*%
X70837951Y-39024751D03*
%TO.P,P1,17,P17*%
%TO.N,/AB4*%
X68338591Y-39024751D03*
%TO.P,P1,18,P18*%
%TO.N,/AB2*%
X65836691Y-39024751D03*
%TO.P,P1,19,P19*%
%TO.N,/A0*%
X63337331Y-39024751D03*
%TO.P,P1,20,P20*%
%TO.N,/{slash}RESET*%
X60837971Y-39024751D03*
%TO.P,P1,21,P21*%
%TO.N,unconnected-(P1-Pad21)*%
X58338611Y-39024751D03*
%TO.P,P1,22,P22*%
%TO.N,unconnected-(P1-Pad22)*%
X55836711Y-39024751D03*
%TO.P,P1,23,P23*%
%TO.N,unconnected-(P1-Pad23)*%
X53337351Y-39024751D03*
%TO.P,P1,24,P24*%
%TO.N,/MEO*%
X50837991Y-39024751D03*
%TO.P,P1,25,P25*%
%TO.N,unconnected-(P1-Pad25)*%
X48338631Y-39024751D03*
%TO.P,P1,26,P26*%
%TO.N,/{slash}MAD*%
X45836731Y-39024751D03*
%TO.P,P1,27,P27*%
%TO.N,unconnected-(P1-Pad27)*%
X43337371Y-39024751D03*
%TO.P,P1,28,P28*%
%TO.N,unconnected-(P1-Pad28)*%
X40838011Y-39024751D03*
%TO.P,P1,29,P29*%
%TO.N,+5V*%
X38338651Y-39024751D03*
%TD*%
D13*
%TO.P,,*%
%TO.N,*%
X53975000Y-119380000D03*
%TD*%
%TO.P,,*%
%TO.N,*%
X89535000Y-144780000D03*
%TD*%
%TO.P,,*%
%TO.N,*%
X99687939Y-116840000D03*
%TD*%
%TO.P,,*%
%TO.N,*%
X71755000Y-152400000D03*
%TD*%
%TO.P,,*%
%TO.N,*%
X56515000Y-101600000D03*
%TD*%
%TO.P,,*%
%TO.N,*%
X46355000Y-127000000D03*
%TD*%
%TO.P,,*%
%TO.N,*%
X94615000Y-124460000D03*
%TD*%
%TO.P,,*%
%TO.N,*%
X94615000Y-106680000D03*
%TD*%
%TO.P,,*%
%TO.N,*%
X97129189Y-104124172D03*
%TD*%
%TO.P,,*%
%TO.N,*%
X43815000Y-124460000D03*
%TD*%
%TO.P,,*%
%TO.N,*%
X66675000Y-104140000D03*
%TD*%
%TO.P,,*%
%TO.N,*%
X112369189Y-111744172D03*
%TD*%
%TO.P,,*%
%TO.N,*%
X48895000Y-101600000D03*
%TD*%
%TO.P,,*%
%TO.N,*%
X112369189Y-126984172D03*
%TD*%
%TO.P,,*%
%TO.N,*%
X66675000Y-121920000D03*
%TD*%
%TO.P,,*%
%TO.N,*%
X46355000Y-104140000D03*
%TD*%
%TO.P,,*%
%TO.N,*%
X89535000Y-142240000D03*
%TD*%
%TO.P,,*%
%TO.N,*%
X56515000Y-147320000D03*
%TD*%
%TO.P,,*%
%TO.N,*%
X41275000Y-109220000D03*
%TD*%
%TO.P,,*%
%TO.N,*%
X64135000Y-109220000D03*
%TD*%
%TO.P,,*%
%TO.N,*%
X59055000Y-111760000D03*
%TD*%
%TO.P,,*%
%TO.N,*%
X104775000Y-149860000D03*
%TD*%
%TO.P,,*%
%TO.N,*%
X64135000Y-116840000D03*
%TD*%
%TO.P,,*%
%TO.N,*%
X31115000Y-116840000D03*
%TD*%
%TO.P,,*%
%TO.N,*%
X66675000Y-147320000D03*
%TD*%
%TO.P,,*%
%TO.N,*%
X81880422Y-121920000D03*
%TD*%
%TO.P,,*%
%TO.N,*%
X69215000Y-121920000D03*
%TD*%
%TO.P,,*%
%TO.N,*%
X76835000Y-111760000D03*
%TD*%
%TO.P,,*%
%TO.N,+5V*%
X25400000Y-116840000D03*
%TD*%
%TO.P,,*%
%TO.N,*%
X89535000Y-129540000D03*
%TD*%
%TO.P,,*%
%TO.N,*%
X53975000Y-142240000D03*
%TD*%
%TO.P,,*%
%TO.N,*%
X79363068Y-121907094D03*
%TD*%
%TO.P,,*%
%TO.N,*%
X46355000Y-109220000D03*
%TD*%
%TO.P,,*%
%TO.N,*%
X81880422Y-124459999D03*
%TD*%
%TO.P,,*%
%TO.N,*%
X107315000Y-119380000D03*
%TD*%
%TO.P,,*%
%TO.N,*%
X33655000Y-101600000D03*
%TD*%
%TO.P,,*%
%TO.N,*%
X66675000Y-142240000D03*
%TD*%
%TO.P,,*%
%TO.N,*%
X71755000Y-106680000D03*
%TD*%
%TO.P,,*%
%TO.N,*%
X76835000Y-137160000D03*
%TD*%
%TO.P,,*%
%TO.N,*%
X102235000Y-119380000D03*
%TD*%
%TO.P,,*%
%TO.N,*%
X104775000Y-152400000D03*
%TD*%
%TO.P,,*%
%TO.N,*%
X64135000Y-134620000D03*
%TD*%
%TO.P,,*%
%TO.N,*%
X104775000Y-129540000D03*
%TD*%
%TO.P,,*%
%TO.N,*%
X41275000Y-127000000D03*
%TD*%
%TO.P,,*%
%TO.N,*%
X48895000Y-119380000D03*
%TD*%
%TO.P,,*%
%TO.N,*%
X92075000Y-127000000D03*
%TD*%
%TO.P,,*%
%TO.N,*%
X117475000Y-124434600D03*
%TD*%
%TO.P,,*%
%TO.N,*%
X92075000Y-111760000D03*
%TD*%
%TO.P,,*%
%TO.N,*%
X61595000Y-116840000D03*
%TD*%
%TO.P,,*%
%TO.N,GND*%
X120777000Y-106654600D03*
%TD*%
%TO.P,,*%
%TO.N,*%
X102235000Y-142240000D03*
%TD*%
%TO.P,,*%
%TO.N,*%
X112395000Y-121920000D03*
%TD*%
%TO.P,,*%
%TO.N,*%
X69215000Y-152400000D03*
%TD*%
%TO.P,,*%
%TO.N,*%
X89535000Y-104140000D03*
%TD*%
%TO.P,,*%
%TO.N,*%
X92075000Y-124460000D03*
%TD*%
%TO.P,,*%
%TO.N,*%
X107315000Y-137160000D03*
%TD*%
%TO.P,,*%
%TO.N,*%
X107315000Y-127000000D03*
%TD*%
%TO.P,,*%
%TO.N,*%
X84455000Y-101600000D03*
%TD*%
%TO.P,,*%
%TO.N,*%
X112395000Y-129540000D03*
%TD*%
%TO.P,,*%
%TO.N,*%
X104775000Y-127000000D03*
%TD*%
%TO.P,,*%
%TO.N,*%
X51435000Y-152400000D03*
%TD*%
%TO.P,,*%
%TO.N,*%
X61595000Y-129540000D03*
%TD*%
%TO.P,,*%
%TO.N,*%
X64135000Y-124460000D03*
%TD*%
%TO.P,,*%
%TO.N,*%
X81880422Y-139699999D03*
%TD*%
%TO.P,,*%
%TO.N,*%
X38735000Y-144780000D03*
%TD*%
%TO.P,,*%
%TO.N,*%
X43815000Y-149860000D03*
%TD*%
%TO.P,,*%
%TO.N,*%
X102235000Y-104140000D03*
%TD*%
%TO.P,,*%
%TO.N,*%
X59055000Y-106680000D03*
%TD*%
%TO.P,,*%
%TO.N,*%
X97129189Y-116839999D03*
%TD*%
%TO.P,,*%
%TO.N,*%
X79363068Y-147307094D03*
%TD*%
%TO.P,,*%
%TO.N,*%
X59055000Y-124460000D03*
%TD*%
%TO.P,,*%
%TO.N,*%
X81880422Y-109219999D03*
%TD*%
%TO.P,,*%
%TO.N,*%
X43815000Y-111760000D03*
%TD*%
%TO.P,,*%
%TO.N,*%
X81880422Y-119380000D03*
%TD*%
%TO.P,,*%
%TO.N,*%
X59055000Y-101600000D03*
%TD*%
%TO.P,,*%
%TO.N,*%
X84455000Y-142240000D03*
%TD*%
%TO.P,,*%
%TO.N,*%
X43815000Y-114300000D03*
%TD*%
%TO.P,,*%
%TO.N,*%
X61595000Y-147320000D03*
%TD*%
%TO.P,,*%
%TO.N,*%
X51435000Y-134620000D03*
%TD*%
%TO.P,,*%
%TO.N,*%
X53975000Y-129540000D03*
%TD*%
%TO.P,,*%
%TO.N,*%
X102235000Y-147320000D03*
%TD*%
%TO.P,,*%
%TO.N,*%
X69215000Y-119380000D03*
%TD*%
%TO.P,,*%
%TO.N,*%
X86995000Y-114300000D03*
%TD*%
%TO.P,,*%
%TO.N,*%
X92075000Y-137160000D03*
%TD*%
%TO.P,,*%
%TO.N,*%
X92075000Y-116840000D03*
%TD*%
%TO.P,,*%
%TO.N,*%
X74295000Y-119380000D03*
%TD*%
%TO.P,,*%
%TO.N,*%
X94615000Y-147320000D03*
%TD*%
%TO.P,,*%
%TO.N,*%
X81880422Y-106680000D03*
%TD*%
%TO.P,,*%
%TO.N,*%
X51435000Y-124460000D03*
%TD*%
%TO.P,,*%
%TO.N,*%
X28575000Y-129540000D03*
%TD*%
%TO.P,,*%
%TO.N,*%
X79375000Y-116840000D03*
%TD*%
%TO.P,,*%
%TO.N,*%
X86995000Y-106680000D03*
%TD*%
%TO.P,,*%
%TO.N,*%
X109855000Y-114300000D03*
%TD*%
%TO.P,,*%
%TO.N,*%
X84455000Y-139700000D03*
%TD*%
%TO.P,,*%
%TO.N,*%
X64135000Y-152400000D03*
%TD*%
%TO.P,,*%
%TO.N,*%
X38735000Y-149860000D03*
%TD*%
%TO.P,,*%
%TO.N,+5V*%
X25400000Y-132100000D03*
%TD*%
%TO.P,,*%
%TO.N,*%
X46355000Y-147320000D03*
%TD*%
%TO.P,,*%
%TO.N,*%
X31115000Y-109220000D03*
%TD*%
%TO.P,,*%
%TO.N,*%
X71755000Y-134620000D03*
%TD*%
%TO.P,,*%
%TO.N,*%
X104775000Y-144780000D03*
%TD*%
%TO.P,,*%
%TO.N,*%
X48895000Y-139700000D03*
%TD*%
%TO.P,,*%
%TO.N,*%
X86995000Y-119380000D03*
%TD*%
%TO.P,,*%
%TO.N,*%
X51435000Y-149860000D03*
%TD*%
%TO.P,,*%
%TO.N,+5V*%
X25400000Y-106680000D03*
%TD*%
%TO.P,,*%
%TO.N,*%
X74295000Y-144780000D03*
%TD*%
%TO.P,,*%
%TO.N,*%
X61595000Y-132080000D03*
%TD*%
%TO.P,,*%
%TO.N,*%
X89535000Y-109220000D03*
%TD*%
%TO.P,,*%
%TO.N,*%
X109855000Y-121920000D03*
%TD*%
%TO.P,,*%
%TO.N,*%
X79375000Y-139700000D03*
%TD*%
%TO.P,C3,1*%
%TO.N,+5V*%
X85100000Y-57500000D03*
%TO.P,C3,2*%
%TO.N,GND*%
X90100000Y-57500000D03*
%TD*%
%TO.P,,*%
%TO.N,*%
X76835000Y-142240000D03*
%TD*%
%TO.P,,*%
%TO.N,*%
X107315000Y-142240000D03*
%TD*%
%TO.P,,*%
%TO.N,*%
X107315000Y-132080000D03*
%TD*%
%TO.P,,*%
%TO.N,*%
X71755000Y-127000000D03*
%TD*%
%TO.P,,*%
%TO.N,*%
X51435000Y-106680000D03*
%TD*%
%TO.P,,*%
%TO.N,*%
X117475000Y-106654600D03*
%TD*%
%TO.P,,*%
%TO.N,*%
X69215000Y-134620000D03*
%TD*%
%TO.P,,*%
%TO.N,*%
X104775000Y-114300000D03*
%TD*%
%TO.P,,*%
%TO.N,*%
X114927939Y-119364172D03*
%TD*%
%TO.P,,*%
%TO.N,*%
X56515000Y-152400000D03*
%TD*%
%TO.P,,*%
%TO.N,*%
X107315000Y-152400000D03*
%TD*%
%TO.P,,*%
%TO.N,*%
X89535000Y-119380000D03*
%TD*%
%TO.P,,*%
%TO.N,*%
X61595000Y-142240000D03*
%TD*%
%TO.P,,*%
%TO.N,*%
X48895000Y-147320000D03*
%TD*%
%TO.P,,*%
%TO.N,*%
X71755000Y-104140000D03*
%TD*%
%TO.P,,*%
%TO.N,*%
X38735000Y-116840000D03*
%TD*%
D22*
%TO.P,U1,1,M1*%
%TO.N,/AB9*%
X38303200Y-73279000D03*
D23*
%TO.P,U1,2,M1*%
%TO.N,/AB8*%
X40843200Y-70739000D03*
%TO.P,U1,3,M2*%
%TO.N,/AB7*%
X38303200Y-70739000D03*
%TO.P,U1,4,M4*%
%TO.N,/AB6*%
X40843200Y-68199000D03*
%TO.P,U1,5,I/O/GCK1*%
%TO.N,unconnected-(U1-Pad5)*%
X38303200Y-68199000D03*
%TO.P,U1,6,I/O/GCK2*%
%TO.N,unconnected-(U1-Pad6)*%
X40843200Y-65659000D03*
%TO.P,U1,7,I/O/GCK3*%
%TO.N,unconnected-(U1-Pad7)*%
X38303200Y-63119000D03*
%TO.P,U1,8,M6*%
%TO.N,/AB5*%
X38303200Y-65659000D03*
%TO.P,U1,9,M8*%
%TO.N,/AB4*%
X35763200Y-63119000D03*
%TO.P,U1,10,GND*%
%TO.N,GND*%
X35763200Y-65659000D03*
%TO.P,U1,11,M9*%
%TO.N,/AB2*%
X33223200Y-63119000D03*
%TO.P,U1,12,M10*%
%TO.N,/AB3*%
X33223200Y-65659000D03*
%TO.P,U1,13,M11*%
%TO.N,/A0*%
X30683200Y-63119000D03*
%TO.P,U1,14,M12*%
%TO.N,/A1*%
X30683200Y-65659000D03*
%TO.P,U1,15,TDI*%
%TO.N,unconnected-(U1-Pad15)*%
X28143200Y-63119000D03*
%TO.P,U1,16,TMS*%
%TO.N,unconnected-(U1-Pad16)*%
X28143200Y-65659000D03*
%TO.P,U1,17,TCK*%
%TO.N,unconnected-(U1-Pad17)*%
X25603200Y-63119000D03*
%TO.P,U1,18,M13*%
%TO.N,/{slash}RESET*%
X23063200Y-65659000D03*
%TO.P,U1,19,M14*%
%TO.N,/MEI*%
X25603200Y-65659000D03*
%TO.P,U1,20,M15*%
%TO.N,/MEO*%
X23063200Y-68199000D03*
%TO.P,U1,21,VCC*%
%TO.N,+5V*%
X25603200Y-68199000D03*
%TO.P,U1,22,M16*%
%TO.N,/{slash}MAD*%
X23063200Y-70739000D03*
%TO.P,U1,23,GND*%
%TO.N,GND*%
X25603200Y-70739000D03*
%TO.P,U1,24,M17*%
%TO.N,unconnected-(U1-Pad24)*%
X23063200Y-73279000D03*
%TO.P,U1,25,M17*%
%TO.N,unconnected-(U1-Pad25)*%
X25603200Y-73279000D03*
%TO.P,U1,26,M16*%
%TO.N,unconnected-(U1-Pad26)*%
X23063200Y-75819000D03*
%TO.P,U1,27,M15*%
%TO.N,unconnected-(U1-Pad27)*%
X25603200Y-75819000D03*
%TO.P,U1,28,M14*%
%TO.N,/D0A*%
X23063200Y-78359000D03*
%TO.P,U1,29,M13*%
%TO.N,/LED*%
X25603200Y-80899000D03*
%TO.P,U1,30,TDO*%
%TO.N,unconnected-(U1-Pad30)*%
X25603200Y-78359000D03*
%TO.P,U1,31,GND*%
%TO.N,GND*%
X28143200Y-80899000D03*
%TO.P,U1,32,VCCIO*%
%TO.N,+5V*%
X28143200Y-78359000D03*
%TO.P,U1,33,M12*%
%TO.N,/RESET*%
X30683200Y-80899000D03*
%TO.P,U1,34,M11*%
%TO.N,unconnected-(U1-Pad34)*%
X30683200Y-78359000D03*
%TO.P,U1,35,M10*%
%TO.N,/{slash}CS*%
X33223200Y-80899000D03*
%TO.P,U1,36,M9*%
%TO.N,unconnected-(U1-Pad36)*%
X33223200Y-78359000D03*
%TO.P,U1,37,M8*%
%TO.N,/{slash}OE*%
X35763200Y-80899000D03*
%TO.P,U1,38,M7*%
%TO.N,/{slash}RD*%
X35763200Y-78359000D03*
%TO.P,U1,39,I/O/GSR*%
%TO.N,unconnected-(U1-Pad39)*%
X38303200Y-80899000D03*
%TO.P,U1,40,I/O/GTS2*%
%TO.N,unconnected-(U1-Pad40)*%
X40843200Y-78359000D03*
%TO.P,U1,41,VCC*%
%TO.N,+5V*%
X38303200Y-78359000D03*
%TO.P,U1,42,I/O/GTS1*%
%TO.N,unconnected-(U1-Pad42)*%
X40843200Y-75819000D03*
%TO.P,U1,43,M4*%
%TO.N,/{slash}IORQ*%
X38303200Y-75819000D03*
%TO.P,U1,44,M2*%
%TO.N,/{slash}WR*%
X40843200Y-73279000D03*
%TD*%
D13*
%TO.P,,*%
%TO.N,*%
X38735000Y-124460000D03*
%TD*%
%TO.P,,*%
%TO.N,*%
X61595000Y-109220000D03*
%TD*%
%TO.P,,*%
%TO.N,*%
X69215000Y-124460000D03*
%TD*%
%TO.P,,*%
%TO.N,*%
X114927939Y-106648344D03*
%TD*%
%TO.P,,*%
%TO.N,*%
X104775000Y-147320000D03*
%TD*%
%TO.P,,*%
%TO.N,*%
X102235000Y-114300000D03*
%TD*%
%TO.P,,*%
%TO.N,*%
X71755000Y-129540000D03*
%TD*%
%TO.P,,*%
%TO.N,*%
X56515000Y-121920000D03*
%TD*%
%TO.P,,*%
%TO.N,*%
X51435000Y-132080000D03*
%TD*%
%TO.P,,*%
%TO.N,*%
X53975000Y-109220000D03*
%TD*%
%TO.P,,*%
%TO.N,*%
X59055000Y-129540000D03*
%TD*%
%TO.P,,*%
%TO.N,*%
X92075000Y-121920000D03*
%TD*%
%TO.P,,*%
%TO.N,*%
X94615000Y-152400000D03*
%TD*%
%TO.P,,*%
%TO.N,*%
X99687939Y-144748344D03*
%TD*%
%TO.P,,*%
%TO.N,*%
X53975000Y-127000000D03*
%TD*%
%TO.P,,*%
%TO.N,*%
X97155000Y-149860000D03*
%TD*%
%TO.P,,*%
%TO.N,GND*%
X120777000Y-126974600D03*
%TD*%
%TO.P,,*%
%TO.N,GND*%
X120777000Y-132054600D03*
%TD*%
%TO.P,,*%
%TO.N,*%
X79363068Y-137147094D03*
%TD*%
D24*
%TO.N,+5V*%
X59690000Y-83312000D03*
X85090000Y-74447400D03*
X78790800Y-83312000D03*
X84531200Y-83312000D03*
X38379400Y-43351561D03*
X64922400Y-83312000D03*
X40843200Y-80899000D03*
%TO.N,/IEO*%
X85826600Y-43357800D03*
%TO.N,GND*%
X108356400Y-43335355D03*
%TO.N,/AB9*%
X45339000Y-71983600D03*
%TO.N,/{slash}IORQ*%
X45313600Y-74523600D03*
%TO.N,/{slash}RD*%
X45288200Y-77139800D03*
%TO.N,/AB7*%
X44043600Y-58216800D03*
%TO.N,/AB5*%
X37058600Y-58140600D03*
%TO.N,/AB3*%
X34493200Y-58191400D03*
%TO.N,/D0A*%
X45339000Y-86690200D03*
%TO.N,/{slash}CS*%
X45313600Y-79197200D03*
%TO.N,/{slash}OE*%
X49606200Y-69799200D03*
X62280800Y-69799200D03*
%TO.N,/PA5*%
X48996600Y-83312000D03*
X57251600Y-83312000D03*
%TO.N,Net-(JP1-Pad2)*%
X49022000Y-84658200D03*
%TD*%
D25*
%TO.N,+5V*%
X35384400Y-94308000D02*
X25529200Y-94308000D01*
X17221200Y-74523600D02*
X17221200Y-46609000D01*
X37300000Y-45500000D02*
X38338651Y-44461349D01*
X25400000Y-101600000D02*
X25400000Y-94437200D01*
X25400000Y-134620000D02*
X25400000Y-144907000D01*
X25400000Y-94437200D02*
X25529200Y-94308000D01*
X17424400Y-92964000D02*
X18491200Y-94030800D01*
X78790800Y-87269400D02*
X78790800Y-83312000D01*
X25400000Y-144907000D02*
X29464000Y-148971000D01*
X84783000Y-94308000D02*
X99036800Y-94308000D01*
X28168600Y-76352400D02*
X28143200Y-76377800D01*
X28092400Y-74549000D02*
X28143200Y-74599800D01*
X104902000Y-90424000D02*
X106919000Y-88407000D01*
X38338651Y-44461349D02*
X38338651Y-39024751D01*
X64922400Y-83312000D02*
X64922400Y-94030800D01*
X104394000Y-84785200D02*
X104394000Y-82032000D01*
X28143200Y-68910200D02*
X28143200Y-74599800D01*
X59690000Y-87249000D02*
X59690000Y-83312000D01*
X28143200Y-76377800D02*
X28143200Y-78359000D01*
X35384400Y-94308000D02*
X84783000Y-94308000D01*
X25603200Y-68199000D02*
X27432000Y-68199000D01*
X104394000Y-74412000D02*
X104394000Y-82032000D01*
X29464000Y-148971000D02*
X29459000Y-148976000D01*
X106919000Y-88407000D02*
X106919000Y-85344000D01*
X18768400Y-94308000D02*
X17424400Y-92964000D01*
X25529200Y-94308000D02*
X18768400Y-94308000D01*
X106919000Y-85344000D02*
X104952800Y-85344000D01*
X18330200Y-45500000D02*
X37300000Y-45500000D01*
X17246600Y-74549000D02*
X28092400Y-74549000D01*
X36296600Y-76352400D02*
X28168600Y-76352400D01*
X85125400Y-74412000D02*
X104394000Y-74412000D01*
X38303200Y-78359000D02*
X36296600Y-76352400D01*
X85090000Y-74447400D02*
X85125400Y-74412000D01*
X97815400Y-87269400D02*
X97815400Y-82778600D01*
X28143200Y-74599800D02*
X28143200Y-76377800D01*
X17221200Y-74523600D02*
X17221200Y-92760800D01*
X98562000Y-82032000D02*
X104394000Y-82032000D01*
X99036800Y-94308000D02*
X102920800Y-90424000D01*
X102920800Y-90424000D02*
X104902000Y-90424000D01*
X17221200Y-46609000D02*
X18330200Y-45500000D01*
X17221200Y-74523600D02*
X17246600Y-74549000D01*
X38303200Y-78359000D02*
X40843200Y-80899000D01*
X104952800Y-85344000D02*
X104394000Y-84785200D01*
X97815400Y-82778600D02*
X98562000Y-82032000D01*
X29459000Y-148976000D02*
X29459000Y-151384000D01*
X17221200Y-92760800D02*
X17424400Y-92964000D01*
X25400000Y-101600000D02*
X25400000Y-134620000D01*
X84531200Y-83312000D02*
X84531200Y-94056200D01*
X27432000Y-68199000D02*
X28143200Y-68910200D01*
D26*
%TO.N,/A0*%
X63337331Y-49464069D02*
X63337331Y-39024751D01*
X62128400Y-50673000D02*
X63337331Y-49464069D01*
X30683200Y-63119000D02*
X30683200Y-57912000D01*
X30683200Y-57912000D02*
X37922200Y-50673000D01*
X37922200Y-50673000D02*
X62128400Y-50673000D01*
%TO.N,Net-(D1-Pad1)*%
X26919000Y-148458000D02*
X26919000Y-151384000D01*
X22529800Y-129844800D02*
X22529800Y-144068800D01*
X21717000Y-129032000D02*
X22529800Y-129844800D01*
X22529800Y-144068800D02*
X26919000Y-148458000D01*
X21717000Y-97028000D02*
X21717000Y-129032000D01*
%TO.N,/AB8*%
X45415200Y-56311800D02*
X46278800Y-55448200D01*
X45415200Y-69088000D02*
X45415200Y-56311800D01*
X43764200Y-70739000D02*
X45415200Y-69088000D01*
X75836671Y-54770129D02*
X75836671Y-39024751D01*
X75158600Y-55448200D02*
X75836671Y-54770129D01*
X46278800Y-55448200D02*
X75158600Y-55448200D01*
X40843200Y-70739000D02*
X43764200Y-70739000D01*
%TO.N,/AB6*%
X42443400Y-68199000D02*
X40843200Y-68199000D01*
X42799000Y-55219600D02*
X42799000Y-67843400D01*
X70837951Y-53393449D02*
X69977000Y-54254400D01*
X42799000Y-67843400D02*
X42443400Y-68199000D01*
X70837951Y-39024751D02*
X70837951Y-53393449D01*
X69977000Y-54254400D02*
X43764200Y-54254400D01*
X43764200Y-54254400D02*
X42799000Y-55219600D01*
%TO.N,/AB4*%
X35763200Y-63119000D02*
X35763200Y-55905400D01*
X35763200Y-55905400D02*
X38531800Y-53136800D01*
X67487800Y-53136800D02*
X68338591Y-52286009D01*
X38531800Y-53136800D02*
X67487800Y-53136800D01*
X68338591Y-52286009D02*
X68338591Y-39024751D01*
%TO.N,/AB2*%
X38100000Y-51917600D02*
X64795400Y-51917600D01*
X64795400Y-51917600D02*
X65836691Y-50876309D01*
X33223200Y-63119000D02*
X33223200Y-56794400D01*
X33223200Y-56794400D02*
X38100000Y-51917600D01*
X65836691Y-50876309D02*
X65836691Y-39024751D01*
%TO.N,/{slash}RESET*%
X23063200Y-49428400D02*
X23063200Y-65659000D01*
X23850600Y-48641000D02*
X23063200Y-49428400D01*
X60837971Y-48061771D02*
X60858400Y-48082200D01*
X60837971Y-39024751D02*
X60837971Y-48061771D01*
X60299600Y-48641000D02*
X23850600Y-48641000D01*
X60858400Y-48082200D02*
X60299600Y-48641000D01*
%TO.N,/D1*%
X93337271Y-39024751D02*
X93337271Y-58132871D01*
X94234000Y-59029600D02*
X111506000Y-59029600D01*
X93337271Y-58132871D02*
X94234000Y-59029600D01*
X112014000Y-59537600D02*
X112014000Y-61214000D01*
X111506000Y-59029600D02*
X112014000Y-59537600D01*
%TO.N,/D3*%
X96697800Y-57962800D02*
X116179600Y-57962800D01*
X117094000Y-58877200D02*
X117094000Y-61214000D01*
X95836631Y-57101631D02*
X96697800Y-57962800D01*
X116179600Y-57962800D02*
X117094000Y-58877200D01*
X95836631Y-39024751D02*
X95836631Y-57101631D01*
%TO.N,/D5*%
X121056400Y-56692800D02*
X122174000Y-57810400D01*
X98338531Y-55971331D02*
X99060000Y-56692800D01*
X99060000Y-56692800D02*
X121056400Y-56692800D01*
X122174000Y-57810400D02*
X122174000Y-61214000D01*
X98338531Y-39024751D02*
X98338531Y-55971331D01*
%TO.N,/D7*%
X127254000Y-61214000D02*
X127254000Y-56540400D01*
X100837891Y-54533909D02*
X100837891Y-39024751D01*
X126136400Y-55422800D02*
X101726782Y-55422800D01*
X127254000Y-56540400D02*
X126136400Y-55422800D01*
X101726782Y-55422800D02*
X100837891Y-54533909D01*
%TO.N,/MEO*%
X23063200Y-68199000D02*
X21717000Y-68199000D01*
X20828000Y-48387000D02*
X21564600Y-47650400D01*
X20828000Y-67310000D02*
X20828000Y-48387000D01*
X21564600Y-47650400D02*
X50038000Y-47650400D01*
X21717000Y-68199000D02*
X20828000Y-67310000D01*
X50837991Y-46850409D02*
X50837991Y-39024751D01*
X50038000Y-47650400D02*
X50837991Y-46850409D01*
D25*
%TO.N,GND*%
X129844800Y-95656400D02*
X128981200Y-96520000D01*
X122174000Y-96520000D02*
X124714000Y-96520000D01*
X114554000Y-96520000D02*
X117094000Y-96520000D01*
X128701800Y-47929800D02*
X111836200Y-47929800D01*
X129844800Y-81940400D02*
X129844800Y-95656400D01*
X112014000Y-96520000D02*
X114554000Y-96520000D01*
X129844800Y-81940400D02*
X129844800Y-49072800D01*
X117094000Y-96520000D02*
X119634000Y-96520000D01*
X129844800Y-49072800D02*
X128701800Y-47929800D01*
X119634000Y-96520000D02*
X122174000Y-96520000D01*
X129753200Y-82032000D02*
X129844800Y-81940400D01*
X127254000Y-82032000D02*
X129753200Y-82032000D01*
X126415800Y-101574600D02*
X120777000Y-101574600D01*
X109728000Y-47929800D02*
X108338511Y-46540311D01*
X67406600Y-89809400D02*
X66548000Y-88950800D01*
X109474000Y-96520000D02*
X112014000Y-96520000D01*
X106654600Y-47929800D02*
X105839151Y-47114351D01*
X105839151Y-47114351D02*
X105839151Y-39024751D01*
X64775000Y-78465600D02*
X64775000Y-76840000D01*
X127254000Y-100736400D02*
X126415800Y-101574600D01*
X120777000Y-101574600D02*
X120777000Y-134594600D01*
X66548000Y-88950800D02*
X66548000Y-80238600D01*
X66548000Y-80238600D02*
X64775000Y-78465600D01*
X128981200Y-96520000D02*
X127254000Y-96520000D01*
X68630800Y-89809400D02*
X67406600Y-89809400D01*
X107518200Y-96520000D02*
X109474000Y-96520000D01*
X111836200Y-47929800D02*
X106654600Y-47929800D01*
X108338511Y-46540311D02*
X108338511Y-39024751D01*
X111836200Y-47929800D02*
X109728000Y-47929800D01*
X127254000Y-96520000D02*
X127254000Y-100736400D01*
X106422200Y-95424000D02*
X107518200Y-96520000D01*
X104902000Y-95424000D02*
X106422200Y-95424000D01*
X124714000Y-96520000D02*
X127254000Y-96520000D01*
D26*
%TO.N,/{slash}WR*%
X46685200Y-72212200D02*
X46685200Y-57505600D01*
X77673200Y-56692800D02*
X59690000Y-56692800D01*
X89677022Y-46939200D02*
X79552800Y-46939200D01*
X78841600Y-47650400D02*
X78841600Y-49276000D01*
X46685200Y-57505600D02*
X47498000Y-56692800D01*
X90837911Y-45778311D02*
X89677022Y-46939200D01*
X78867000Y-55499000D02*
X77673200Y-56692800D01*
X47498000Y-56692800D02*
X59690000Y-56692800D01*
X59695000Y-56697800D02*
X59690000Y-56692800D01*
X59695000Y-61600000D02*
X59695000Y-56697800D01*
X78867000Y-49301400D02*
X78867000Y-55499000D01*
X90837911Y-39024751D02*
X90837911Y-45778311D01*
X79552800Y-46939200D02*
X78841600Y-47650400D01*
X78841600Y-49276000D02*
X78867000Y-49301400D01*
X40843200Y-73279000D02*
X45618400Y-73279000D01*
X45618400Y-73279000D02*
X46685200Y-72212200D01*
%TO.N,/{slash}MAD*%
X20624800Y-46710600D02*
X45089400Y-46710600D01*
X23063200Y-70739000D02*
X20839000Y-70739000D01*
X20839000Y-70739000D02*
X19600000Y-69500000D01*
X19600000Y-69500000D02*
X19600000Y-47735400D01*
X45836731Y-45963269D02*
X45836731Y-39024751D01*
X45089400Y-46710600D02*
X45836731Y-45963269D01*
X19600000Y-47735400D02*
X20624800Y-46710600D01*
%TO.N,/AB9*%
X39598600Y-71983600D02*
X45339000Y-71983600D01*
X38303200Y-73279000D02*
X39598600Y-71983600D01*
%TO.N,/{slash}IORQ*%
X39598600Y-74523600D02*
X45313600Y-74523600D01*
X38303200Y-75819000D02*
X39598600Y-74523600D01*
%TO.N,/{slash}RD*%
X44627800Y-77139800D02*
X45288200Y-77139800D01*
X34518600Y-82143600D02*
X35788600Y-83413600D01*
X35763200Y-78359000D02*
X34518600Y-79603600D01*
X43865800Y-82067400D02*
X43865800Y-77901800D01*
X42519600Y-83413600D02*
X43865800Y-82067400D01*
X34518600Y-79603600D02*
X34518600Y-82143600D01*
X43865800Y-77901800D02*
X44627800Y-77139800D01*
X35788600Y-83413600D02*
X42519600Y-83413600D01*
%TO.N,/AB7*%
X43307000Y-69443600D02*
X39598600Y-69443600D01*
X44043600Y-58216800D02*
X44043600Y-68707000D01*
X39598600Y-69443600D02*
X38303200Y-70739000D01*
X44043600Y-68707000D02*
X43307000Y-69443600D01*
%TO.N,/AB5*%
X37058600Y-64414400D02*
X38303200Y-65659000D01*
X37058600Y-58140600D02*
X37058600Y-64414400D01*
%TO.N,/AB3*%
X34493200Y-64389000D02*
X34493200Y-58191400D01*
X33223200Y-65659000D02*
X34493200Y-64389000D01*
%TO.N,/LED*%
X22987000Y-80899000D02*
X21717000Y-82169000D01*
X25603200Y-80899000D02*
X22987000Y-80899000D01*
X21717000Y-82169000D02*
X21717000Y-86868000D01*
%TO.N,/D0A*%
X21107400Y-78359000D02*
X23063200Y-78359000D01*
X109474000Y-71374000D02*
X107442000Y-71374000D01*
X19583400Y-88442800D02*
X19583400Y-79883000D01*
X20523200Y-89382600D02*
X19583400Y-88442800D01*
X109474000Y-71374000D02*
X109474000Y-74412000D01*
X107442000Y-71374000D02*
X107188000Y-71628000D01*
X107188000Y-71628000D02*
X67056000Y-71628000D01*
X20523200Y-89382600D02*
X42646600Y-89382600D01*
X64775000Y-69347000D02*
X64775000Y-61600000D01*
X67056000Y-71628000D02*
X64775000Y-69347000D01*
X42646600Y-89382600D02*
X45339000Y-86690200D01*
X19583400Y-79883000D02*
X21107400Y-78359000D01*
%TO.N,/D1A*%
X67315000Y-61600000D02*
X67315000Y-69347000D01*
X68453000Y-70485000D02*
X107188000Y-70485000D01*
X112014000Y-71374000D02*
X112014000Y-74412000D01*
X107188000Y-70485000D02*
X107772200Y-69900800D01*
X107772200Y-69900800D02*
X110540800Y-69900800D01*
X67315000Y-69347000D02*
X68453000Y-70485000D01*
X110540800Y-69900800D02*
X112014000Y-71374000D01*
%TO.N,/D2A*%
X69855000Y-68229400D02*
X70916800Y-69291200D01*
X114554000Y-70002400D02*
X114554000Y-71374000D01*
X69855000Y-61600000D02*
X69855000Y-68229400D01*
X113639600Y-69088000D02*
X114554000Y-70002400D01*
X106857800Y-69291200D02*
X107061000Y-69088000D01*
X114554000Y-71374000D02*
X114554000Y-74412000D01*
X70916800Y-69291200D02*
X106857800Y-69291200D01*
X107061000Y-69088000D02*
X113639600Y-69088000D01*
%TO.N,/D3A*%
X72395000Y-61600000D02*
X72395000Y-66857800D01*
X73660000Y-68122800D02*
X116382800Y-68122800D01*
X117094000Y-71374000D02*
X117094000Y-74412000D01*
X117094000Y-68834000D02*
X117094000Y-71374000D01*
X72395000Y-66857800D02*
X73660000Y-68122800D01*
X116382800Y-68122800D02*
X117094000Y-68834000D01*
%TO.N,/D4A*%
X118668800Y-67005200D02*
X76149200Y-67005200D01*
X119634000Y-71374000D02*
X119634000Y-74412000D01*
X119634000Y-67970400D02*
X118668800Y-67005200D01*
X119634000Y-71374000D02*
X119634000Y-67970400D01*
X74935000Y-65791000D02*
X74935000Y-61600000D01*
X76149200Y-67005200D02*
X74935000Y-65791000D01*
%TO.N,/D5A*%
X122174000Y-71374000D02*
X122174000Y-66598800D01*
X77475000Y-64622600D02*
X77475000Y-61600000D01*
X121462800Y-65887600D02*
X78740000Y-65887600D01*
X122174000Y-66598800D02*
X121462800Y-65887600D01*
X78740000Y-65887600D02*
X77475000Y-64622600D01*
X122174000Y-71374000D02*
X122174000Y-74412000D01*
%TO.N,/D6A*%
X124714000Y-65633600D02*
X123850400Y-64770000D01*
X124714000Y-71374000D02*
X124714000Y-74412000D01*
X124714000Y-71374000D02*
X124714000Y-65633600D01*
X80015000Y-63809800D02*
X80015000Y-61600000D01*
X123850400Y-64770000D02*
X80975200Y-64770000D01*
X80975200Y-64770000D02*
X80015000Y-63809800D01*
%TO.N,/D7A*%
X127254000Y-71374000D02*
X127254000Y-74412000D01*
X127254000Y-64566800D02*
X126339600Y-63652400D01*
X127254000Y-71374000D02*
X127254000Y-64566800D01*
X83261200Y-63652400D02*
X82555000Y-62946200D01*
X126339600Y-63652400D02*
X83261200Y-63652400D01*
X82555000Y-62946200D02*
X82555000Y-61600000D01*
%TO.N,/D0B*%
X108518800Y-83616800D02*
X109220000Y-83616800D01*
X106934000Y-82032000D02*
X108518800Y-83616800D01*
X109459000Y-88885000D02*
X109474000Y-88900000D01*
X109459000Y-85344000D02*
X109459000Y-88885000D01*
X109459000Y-83885800D02*
X109459000Y-85344000D01*
X109220000Y-83616800D02*
X109474000Y-83870800D01*
%TO.N,/D1B*%
X111999000Y-88885000D02*
X112014000Y-88900000D01*
X111048800Y-83667600D02*
X111750000Y-83667600D01*
X111750000Y-83667600D02*
X112004000Y-83921600D01*
X111999000Y-85344000D02*
X111999000Y-88885000D01*
X112004000Y-83921600D02*
X111989000Y-83936600D01*
X111989000Y-83936600D02*
X111989000Y-85394800D01*
X109464000Y-82082800D02*
X111048800Y-83667600D01*
%TO.N,/D2B*%
X112029400Y-82032000D02*
X113614200Y-83616800D01*
X114315400Y-83616800D02*
X114569400Y-83870800D01*
X114539000Y-85344000D02*
X114539000Y-88885000D01*
X114554400Y-83885800D02*
X114554400Y-85344000D01*
X114539000Y-88885000D02*
X114554000Y-88900000D01*
X113614200Y-83616800D02*
X114315400Y-83616800D01*
X114569400Y-83870800D02*
X114554400Y-83885800D01*
%TO.N,/D3B*%
X117119800Y-83911200D02*
X117119800Y-85369400D01*
X116179600Y-83642200D02*
X116880800Y-83642200D01*
X116880800Y-83642200D02*
X117134800Y-83896200D01*
X117079000Y-88885000D02*
X117094000Y-88900000D01*
X114594800Y-82057400D02*
X116179600Y-83642200D01*
X117079000Y-85344000D02*
X117079000Y-88885000D01*
X117134800Y-83896200D02*
X117119800Y-83911200D01*
%TO.N,/D4B*%
X118745000Y-83667600D02*
X119446200Y-83667600D01*
X119619000Y-85344000D02*
X119619000Y-88885000D01*
X117160200Y-82082800D02*
X118745000Y-83667600D01*
X119619000Y-88885000D02*
X119634000Y-88900000D01*
X119685200Y-83936600D02*
X119685200Y-85394800D01*
X119446200Y-83667600D02*
X119700200Y-83921600D01*
X119700200Y-83921600D02*
X119685200Y-83936600D01*
%TO.N,/D5B*%
X122159000Y-88885000D02*
X122174000Y-88900000D01*
X122159000Y-85344000D02*
X122159000Y-88885000D01*
X122189400Y-83896200D02*
X122174400Y-83911200D01*
X122174400Y-83911200D02*
X122174400Y-85369400D01*
X121234200Y-83642200D02*
X121935400Y-83642200D01*
X121935400Y-83642200D02*
X122189400Y-83896200D01*
X119649400Y-82057400D02*
X121234200Y-83642200D01*
%TO.N,/D6B*%
X124754800Y-83896200D02*
X124739800Y-83911200D01*
X124500800Y-83642200D02*
X124754800Y-83896200D01*
X124699000Y-85344000D02*
X124699000Y-88885000D01*
X124699000Y-88885000D02*
X124714000Y-88900000D01*
X122214800Y-82057400D02*
X123799600Y-83642200D01*
X124739800Y-83911200D02*
X124739800Y-85369400D01*
X123799600Y-83642200D02*
X124500800Y-83642200D01*
%TO.N,/D7B*%
X127239000Y-88885000D02*
X127254000Y-88900000D01*
X127279800Y-83911200D02*
X127279800Y-85369400D01*
X127239000Y-85344000D02*
X127239000Y-88885000D01*
X124754800Y-82057400D02*
X126339600Y-83642200D01*
X127294800Y-83896200D02*
X127279800Y-83911200D01*
X127040800Y-83642200D02*
X127294800Y-83896200D01*
X126339600Y-83642200D02*
X127040800Y-83642200D01*
%TO.N,/{slash}CS*%
X45313600Y-81483200D02*
X45313600Y-79197200D01*
X42799000Y-83997800D02*
X45313600Y-81483200D01*
X35458400Y-83997800D02*
X42799000Y-83997800D01*
X33578800Y-82575400D02*
X34036000Y-82575400D01*
X33223200Y-82219800D02*
X33578800Y-82575400D01*
X34036000Y-82575400D02*
X35458400Y-83997800D01*
X33223200Y-80899000D02*
X33223200Y-82219800D01*
%TO.N,/{slash}OE*%
X42164000Y-82829400D02*
X43027600Y-81965800D01*
X106705400Y-72644000D02*
X106934000Y-72872600D01*
X65125600Y-72644000D02*
X106705400Y-72644000D01*
X35763200Y-82245200D02*
X36347400Y-82829400D01*
X43027600Y-81965800D02*
X43027600Y-76758800D01*
X106934000Y-72872600D02*
X106934000Y-74412000D01*
X36347400Y-82829400D02*
X42164000Y-82829400D01*
X44094400Y-75692000D02*
X46355000Y-75692000D01*
X46355000Y-75692000D02*
X49606200Y-72440800D01*
X62280800Y-69799200D02*
X65125600Y-72644000D01*
X49606200Y-72440800D02*
X49606200Y-69799200D01*
X43027600Y-76758800D02*
X44094400Y-75692000D01*
X35763200Y-80899000D02*
X35763200Y-82245200D01*
%TO.N,/PA3*%
X54610000Y-87249000D02*
X54610000Y-85572600D01*
X49535000Y-80497600D02*
X49535000Y-76840000D01*
X54610000Y-85572600D02*
X49535000Y-80497600D01*
%TO.N,/PA2*%
X57150000Y-89789000D02*
X55880000Y-88519000D01*
X55880000Y-88519000D02*
X55880000Y-85547200D01*
X55880000Y-85547200D02*
X52075000Y-81742200D01*
X52075000Y-81742200D02*
X52075000Y-76840000D01*
%TO.N,/PA1*%
X57150000Y-85344000D02*
X56476900Y-84670900D01*
X54615000Y-82809000D02*
X56476900Y-84670900D01*
X57150000Y-87249000D02*
X57150000Y-85344000D01*
X54615000Y-76840000D02*
X54615000Y-82809000D01*
%TO.N,/PA0*%
X57155000Y-80269000D02*
X57155000Y-76840000D01*
X59690000Y-89789000D02*
X58420000Y-88519000D01*
X58420000Y-88519000D02*
X58420000Y-81534000D01*
X58420000Y-81534000D02*
X57155000Y-80269000D01*
%TO.N,/PC7*%
X68630800Y-87269400D02*
X68630800Y-84328000D01*
X72395000Y-80563800D02*
X72395000Y-76840000D01*
X68630800Y-84328000D02*
X72395000Y-80563800D01*
%TO.N,/PC6*%
X69900800Y-88539400D02*
X69900800Y-84912200D01*
X69900800Y-84912200D02*
X74935000Y-79878000D01*
X71170800Y-89809400D02*
X69900800Y-88539400D01*
X74935000Y-79878000D02*
X74935000Y-76840000D01*
%TO.N,/PC5*%
X71170800Y-85064600D02*
X74168000Y-82067400D01*
X75819000Y-82067400D02*
X77475000Y-80411400D01*
X77475000Y-80411400D02*
X77475000Y-76840000D01*
X71170800Y-87269400D02*
X71170800Y-85064600D01*
X74168000Y-82067400D02*
X75819000Y-82067400D01*
%TO.N,/PC4*%
X77012800Y-83388200D02*
X80015000Y-80386000D01*
X72440800Y-85191600D02*
X74244200Y-83388200D01*
X74244200Y-83388200D02*
X77012800Y-83388200D01*
X73710800Y-89809400D02*
X72440800Y-88539400D01*
X72440800Y-88539400D02*
X72440800Y-85191600D01*
X80015000Y-80386000D02*
X80015000Y-76840000D01*
%TO.N,/PC0*%
X78790800Y-89809400D02*
X80726200Y-89809400D01*
X81000600Y-79832200D02*
X82555000Y-78277800D01*
X81000600Y-89535000D02*
X81000600Y-79832200D01*
X80726200Y-89809400D02*
X81000600Y-89535000D01*
X82555000Y-78277800D02*
X82555000Y-76840000D01*
%TO.N,/PC1*%
X78257400Y-91643200D02*
X80492600Y-91643200D01*
X80492600Y-91643200D02*
X81940400Y-90195400D01*
X82804000Y-79552800D02*
X84277200Y-79552800D01*
X81940400Y-90195400D02*
X81940400Y-80416400D01*
X85095000Y-78735000D02*
X85095000Y-76840000D01*
X81940400Y-80416400D02*
X82804000Y-79552800D01*
X77520800Y-88539400D02*
X77520800Y-90906600D01*
X76250800Y-87269400D02*
X77520800Y-88539400D01*
X84277200Y-79552800D02*
X85095000Y-78735000D01*
X77520800Y-90906600D02*
X78257400Y-91643200D01*
%TO.N,/PC2*%
X82778600Y-81305400D02*
X83693000Y-80391000D01*
X85521800Y-80391000D02*
X87635000Y-78277800D01*
X81203800Y-92303600D02*
X82778600Y-90728800D01*
X76250800Y-89809400D02*
X76250800Y-91440000D01*
X87635000Y-78277800D02*
X87635000Y-76840000D01*
X82778600Y-90728800D02*
X82778600Y-81305400D01*
X77114400Y-92303600D02*
X81203800Y-92303600D01*
X76250800Y-91440000D02*
X77114400Y-92303600D01*
X83693000Y-80391000D02*
X85521800Y-80391000D01*
%TO.N,/PC3*%
X74980800Y-88539400D02*
X73710800Y-87269400D01*
X83642200Y-91186000D02*
X81864200Y-92964000D01*
X90175000Y-79370000D02*
X89382600Y-80162400D01*
X84747100Y-80962500D02*
X83642200Y-82067400D01*
X89382600Y-80162400D02*
X87198200Y-80162400D01*
X74980800Y-92329000D02*
X74980800Y-88539400D01*
X90175000Y-76840000D02*
X90175000Y-79370000D01*
X87198200Y-80162400D02*
X86398100Y-80962500D01*
X86398100Y-80962500D02*
X84747100Y-80962500D01*
X81864200Y-92964000D02*
X75615800Y-92964000D01*
X75615800Y-92964000D02*
X74980800Y-92329000D01*
X83642200Y-82067400D02*
X83642200Y-91186000D01*
%TO.N,/PB0*%
X94005400Y-88188800D02*
X94005400Y-81508600D01*
X96550400Y-88544400D02*
X94361000Y-88544400D01*
X92715000Y-80218200D02*
X92715000Y-76840000D01*
X97815400Y-89809400D02*
X96550400Y-88544400D01*
X94005400Y-81508600D02*
X92715000Y-80218200D01*
X94361000Y-88544400D02*
X94005400Y-88188800D01*
%TO.N,/PB1*%
X95255000Y-87249000D02*
X95275400Y-87269400D01*
X95255000Y-76840000D02*
X95255000Y-87249000D01*
%TO.N,/PA7*%
X60985400Y-78384400D02*
X63119000Y-80518000D01*
X63119000Y-80518000D02*
X63119000Y-92049600D01*
X57155000Y-69093000D02*
X60985400Y-72923400D01*
X62153800Y-93014800D02*
X62636400Y-92532200D01*
X57155000Y-61600000D02*
X57155000Y-69093000D01*
X51282600Y-93014800D02*
X62153800Y-93014800D01*
X60985400Y-72923400D02*
X60985400Y-78384400D01*
X50800000Y-92532200D02*
X51282600Y-93014800D01*
X49530000Y-87249000D02*
X50800000Y-88519000D01*
X63119000Y-92049600D02*
X62636400Y-92532200D01*
X50800000Y-88519000D02*
X50800000Y-92532200D01*
%TO.N,/PA6*%
X52070000Y-91541600D02*
X52781200Y-92252800D01*
X54615000Y-69220000D02*
X54615000Y-61600000D01*
X52070000Y-89789000D02*
X52070000Y-91541600D01*
X58445400Y-79095600D02*
X58445400Y-73050400D01*
X59791600Y-80441800D02*
X58445400Y-79095600D01*
X61163200Y-80441800D02*
X59791600Y-80441800D01*
X52781200Y-92252800D02*
X61315600Y-92252800D01*
X61315600Y-92252800D02*
X62230000Y-91338400D01*
X62230000Y-81508600D02*
X61163200Y-80441800D01*
X62230000Y-91338400D02*
X62230000Y-81508600D01*
X58445400Y-73050400D02*
X54615000Y-69220000D01*
%TO.N,/PA5*%
X55880000Y-73075800D02*
X55880000Y-81940400D01*
X55880000Y-81940400D02*
X57251600Y-83312000D01*
X48996600Y-83312000D02*
X50317400Y-84632800D01*
X52070000Y-85598000D02*
X51104800Y-84632800D01*
X52075000Y-69270800D02*
X55880000Y-73075800D01*
X52075000Y-61600000D02*
X52075000Y-69270800D01*
X51104800Y-84632800D02*
X50317400Y-84632800D01*
X52070000Y-87249000D02*
X52070000Y-85598000D01*
%TO.N,/PA4*%
X47802800Y-81661000D02*
X47802800Y-75793600D01*
X51003200Y-72593200D02*
X51003200Y-68072000D01*
X54610000Y-89789000D02*
X53365400Y-88544400D01*
X48488600Y-82346800D02*
X47802800Y-81661000D01*
X47802800Y-75793600D02*
X51003200Y-72593200D01*
X49535000Y-66603800D02*
X49535000Y-61600000D01*
X53365400Y-88544400D02*
X53365400Y-85674200D01*
X50038000Y-82346800D02*
X48488600Y-82346800D01*
X51003200Y-68072000D02*
X49535000Y-66603800D01*
X53365400Y-85674200D02*
X50038000Y-82346800D01*
%TO.N,Net-(JP1-Pad2)*%
X49022000Y-84658200D02*
X30149800Y-84658200D01*
X30149800Y-84658200D02*
X29655000Y-85153000D01*
X29655000Y-85153000D02*
X29655000Y-86700000D01*
%TD*%
M02*
