%TF.GenerationSoftware,KiCad,Pcbnew,(6.0.8)*%
%TF.CreationDate,2022-11-12T14:36:56+01:00*%
%TF.ProjectId,m061,6d303631-2e6b-4696-9361-645f70636258,1.0*%
%TF.SameCoordinates,Original*%
%TF.FileFunction,Soldermask,Bot*%
%TF.FilePolarity,Negative*%
%FSLAX46Y46*%
G04 Gerber Fmt 4.6, Leading zero omitted, Abs format (unit mm)*
G04 Created by KiCad (PCBNEW (6.0.8)) date 2022-11-12 14:36:56*
%MOMM*%
%LPD*%
G01*
G04 APERTURE LIST*
G04 Aperture macros list*
%AMRoundRect*
0 Rectangle with rounded corners*
0 $1 Rounding radius*
0 $2 $3 $4 $5 $6 $7 $8 $9 X,Y pos of 4 corners*
0 Add a 4 corners polygon primitive as box body*
4,1,4,$2,$3,$4,$5,$6,$7,$8,$9,$2,$3,0*
0 Add four circle primitives for the rounded corners*
1,1,$1+$1,$2,$3*
1,1,$1+$1,$4,$5*
1,1,$1+$1,$6,$7*
1,1,$1+$1,$8,$9*
0 Add four rect primitives between the rounded corners*
20,1,$1+$1,$2,$3,$4,$5,0*
20,1,$1+$1,$4,$5,$6,$7,0*
20,1,$1+$1,$6,$7,$8,$9,0*
20,1,$1+$1,$8,$9,$2,$3,0*%
%AMFreePoly0*
4,1,21,0.796972,5.234655,0.879375,5.179595,0.934435,5.097192,0.953770,4.999990,0.953770,-4.999990,0.934435,-5.097192,0.879375,-5.179595,0.796972,-5.234655,0.699770,-5.253990,-0.699770,-5.253990,-0.796972,-5.234655,-0.879375,-5.179595,-0.934435,-5.097192,-0.953770,-4.999990,-0.953770,4.999990,-0.934435,5.097192,-0.879375,5.179595,-0.796972,5.234655,-0.699770,5.253990,0.699770,5.253990,
0.796972,5.234655,0.796972,5.234655,$1*%
G04 Aperture macros list end*
%ADD10C,2.508000*%
%ADD11C,2.108000*%
%ADD12O,2.108000X2.108000*%
%ADD13RoundRect,0.254000X-0.900000X-0.900000X0.900000X-0.900000X0.900000X0.900000X-0.900000X0.900000X0*%
%ADD14C,2.308000*%
%ADD15RoundRect,0.254000X0.900000X-0.900000X0.900000X0.900000X-0.900000X0.900000X-0.900000X-0.900000X0*%
%ADD16RoundRect,0.254000X-0.850000X0.850000X-0.850000X-0.850000X0.850000X-0.850000X0.850000X0.850000X0*%
%ADD17O,2.208000X2.208000*%
%ADD18RoundRect,0.254000X0.800000X-0.800000X0.800000X0.800000X-0.800000X0.800000X-0.800000X-0.800000X0*%
%ADD19RoundRect,0.254000X0.850000X-0.850000X0.850000X0.850000X-0.850000X0.850000X-0.850000X-0.850000X0*%
%ADD20RoundRect,0.254000X-0.800000X-0.800000X0.800000X-0.800000X0.800000X0.800000X-0.800000X0.800000X0*%
%ADD21FreePoly0,180.000000*%
%ADD22RoundRect,0.254000X-0.711200X0.711200X-0.711200X-0.711200X0.711200X-0.711200X0.711200X0.711200X0*%
%ADD23C,1.930400*%
G04 APERTURE END LIST*
D10*
%TO.C,*%
X74295000Y-104140000D03*
%TD*%
%TO.C,*%
X99687939Y-121888344D03*
%TD*%
%TO.C,*%
X69215000Y-147320000D03*
%TD*%
%TO.C,*%
X102235000Y-111760000D03*
%TD*%
%TO.C,*%
X41275000Y-147320000D03*
%TD*%
%TO.C,*%
X102235000Y-139700000D03*
%TD*%
%TO.C,*%
X99687939Y-109220000D03*
%TD*%
%TO.C,*%
X81880422Y-144780000D03*
%TD*%
%TO.C,*%
X97129189Y-134604172D03*
%TD*%
%TO.C,*%
X28575000Y-132080000D03*
%TD*%
%TO.C,*%
X114927939Y-126984172D03*
%TD*%
%TO.C,*%
X59055000Y-127000000D03*
%TD*%
%TO.C,*%
X94615000Y-142240000D03*
%TD*%
%TO.C,*%
X94615000Y-111760000D03*
%TD*%
%TO.C,*%
X86995000Y-104140000D03*
%TD*%
%TO.C,*%
X69215000Y-132080000D03*
%TD*%
%TO.C,*%
X79363068Y-126991396D03*
%TD*%
%TO.C,*%
X48895000Y-142240000D03*
%TD*%
%TO.C,*%
X84455000Y-152400000D03*
%TD*%
%TO.C,*%
X99687939Y-149828344D03*
%TD*%
%TO.C,*%
X31115000Y-127000000D03*
%TD*%
%TO.C,*%
X102235000Y-132080000D03*
%TD*%
%TO.C,*%
X36195000Y-116840000D03*
%TD*%
%TO.C,*%
X25400000Y-111760000D03*
%TD*%
%TO.C,*%
X61595000Y-114300000D03*
%TD*%
%TO.C,*%
X84455000Y-129540000D03*
%TD*%
%TO.C,*%
X59055000Y-116840000D03*
%TD*%
%TO.C,*%
X25400000Y-109220000D03*
%TD*%
%TO.C,*%
X74295000Y-142240000D03*
%TD*%
%TO.C,*%
X89535000Y-116840000D03*
%TD*%
%TO.C,*%
X79375000Y-124460000D03*
%TD*%
%TO.C,*%
X107315000Y-124460000D03*
%TD*%
%TO.C,*%
X92075000Y-109220000D03*
%TD*%
%TO.C,*%
X99687939Y-139700000D03*
%TD*%
%TO.C,*%
X86995000Y-101600000D03*
%TD*%
%TO.C,*%
X46355000Y-129540000D03*
%TD*%
%TO.C,*%
X69215000Y-142240000D03*
%TD*%
%TO.C,*%
X79363068Y-152387094D03*
%TD*%
%TO.C,*%
X74295000Y-121920000D03*
%TD*%
D11*
%TO.C,R1*%
X109474000Y-61214000D03*
D12*
X109474000Y-71374000D03*
%TD*%
D10*
%TO.C,*%
X81880422Y-114300000D03*
%TD*%
%TO.C,*%
X74295000Y-152400000D03*
%TD*%
%TO.C,*%
X56515000Y-124460000D03*
%TD*%
%TO.C,*%
X51435000Y-121920000D03*
%TD*%
%TO.C,*%
X89535000Y-114300000D03*
%TD*%
%TO.C,*%
X94615000Y-104140000D03*
%TD*%
%TO.C,*%
X56515000Y-129540000D03*
%TD*%
%TO.C,*%
X76835000Y-124460000D03*
%TD*%
%TO.C,*%
X102235000Y-101600000D03*
%TD*%
%TO.C,*%
X107315000Y-121920000D03*
%TD*%
%TO.C,*%
X92075000Y-147320000D03*
%TD*%
%TO.C,*%
X112369189Y-116839999D03*
%TD*%
%TO.C,*%
X56515000Y-119380000D03*
%TD*%
%TO.C,*%
X79363068Y-144767094D03*
%TD*%
%TO.C,*%
X79363068Y-129527094D03*
%TD*%
%TO.C,*%
X51435000Y-111760000D03*
%TD*%
%TO.C,*%
X56515000Y-137160000D03*
%TD*%
%TO.C,*%
X28575000Y-114300000D03*
%TD*%
%TO.C,*%
X76835000Y-119380000D03*
%TD*%
%TO.C,*%
X97129189Y-126984172D03*
%TD*%
%TO.C,*%
X74295000Y-149860000D03*
%TD*%
%TO.C,*%
X109855000Y-132080000D03*
%TD*%
%TO.C,*%
X36195000Y-104140000D03*
%TD*%
%TO.C,*%
X41275000Y-119380000D03*
%TD*%
%TO.C,*%
X56515000Y-109220000D03*
%TD*%
%TO.C,*%
X92075000Y-142240000D03*
%TD*%
%TO.C,*%
X109855000Y-119380000D03*
%TD*%
%TO.C,*%
X112369189Y-134604172D03*
%TD*%
%TO.C,*%
X66675000Y-101600000D03*
%TD*%
%TO.C,*%
X31115000Y-101600000D03*
%TD*%
%TO.C,*%
X86995000Y-147320000D03*
%TD*%
%TO.C,*%
X99687939Y-119364172D03*
%TD*%
%TO.C,*%
X38735000Y-139700000D03*
%TD*%
%TO.C,*%
X74295000Y-109220000D03*
%TD*%
%TO.C,*%
X53975000Y-111760000D03*
%TD*%
%TO.C,*%
X43815000Y-137160000D03*
%TD*%
%TO.C,*%
X76835000Y-127000000D03*
%TD*%
%TO.C,*%
X53975000Y-152400000D03*
%TD*%
%TO.C,*%
X84455000Y-149860000D03*
%TD*%
%TO.C,*%
X71755000Y-116840000D03*
%TD*%
%TO.C,*%
X71755000Y-124460000D03*
%TD*%
%TO.C,*%
X46355000Y-116840000D03*
%TD*%
%TO.C,*%
X112369189Y-109219999D03*
%TD*%
%TO.C,*%
X92075000Y-114300000D03*
%TD*%
%TO.C,*%
X69215000Y-149860000D03*
%TD*%
%TO.C,*%
X92075000Y-152400000D03*
%TD*%
%TO.C,*%
X102235000Y-134620000D03*
%TD*%
%TO.C,*%
X107315000Y-116840000D03*
%TD*%
%TO.C,*%
X48895000Y-132080000D03*
%TD*%
%TO.C,*%
X76835000Y-101600000D03*
%TD*%
%TO.C,*%
X114927939Y-124460000D03*
%TD*%
%TO.C,*%
X104775000Y-139700000D03*
%TD*%
%TO.C,*%
X36195000Y-121920000D03*
%TD*%
%TO.C,*%
X33655000Y-116840000D03*
%TD*%
%TO.C,*%
X69215000Y-144780000D03*
%TD*%
%TO.C,*%
X46355000Y-121920000D03*
%TD*%
%TO.C,*%
X76835000Y-139700000D03*
%TD*%
%TO.C,*%
X89535000Y-149860000D03*
%TD*%
%TO.C,*%
X53975000Y-121920000D03*
%TD*%
%TO.C,*%
X89535000Y-106680000D03*
%TD*%
%TO.C,*%
X86995000Y-137160000D03*
%TD*%
%TO.C,*%
X41275000Y-139700000D03*
%TD*%
%TO.C,*%
X64135000Y-132080000D03*
%TD*%
%TO.C,*%
X107315000Y-149860000D03*
%TD*%
%TO.C,*%
X31115000Y-106680000D03*
%TD*%
%TO.C,*%
X117475000Y-114274600D03*
%TD*%
%TO.C,*%
X66675000Y-124460000D03*
%TD*%
%TO.C,*%
X31115000Y-132080000D03*
%TD*%
%TO.C,*%
X71755000Y-137160000D03*
%TD*%
%TO.C,*%
X81880422Y-129540000D03*
%TD*%
%TO.C,*%
X76835000Y-147320000D03*
%TD*%
%TO.C,*%
X71755000Y-139700000D03*
%TD*%
%TO.C,*%
X99687939Y-106648344D03*
%TD*%
%TO.C,*%
X25400000Y-101600000D03*
%TD*%
%TO.C,*%
X114927939Y-121888344D03*
%TD*%
%TO.C,*%
X66675000Y-119380000D03*
%TD*%
%TO.C,*%
X66675000Y-129540000D03*
%TD*%
%TO.C,*%
X107315000Y-144780000D03*
%TD*%
%TO.C,*%
X33655000Y-124460000D03*
%TD*%
%TO.C,*%
X33655000Y-104140000D03*
%TD*%
%TO.C,*%
X74295000Y-139700000D03*
%TD*%
%TO.C,*%
X41275000Y-104140000D03*
%TD*%
%TO.C,*%
X48895000Y-134620000D03*
%TD*%
%TO.C,*%
X38735000Y-142240000D03*
%TD*%
%TO.C,*%
X53975000Y-147320000D03*
%TD*%
%TO.C,*%
X28575000Y-111760000D03*
%TD*%
%TO.C,*%
X59055000Y-149860000D03*
%TD*%
%TO.C,*%
X86995000Y-149860000D03*
%TD*%
%TO.C,*%
X43815000Y-116840000D03*
%TD*%
%TO.C,*%
X56515000Y-132080000D03*
%TD*%
D11*
%TO.C,R7*%
X124714000Y-61214000D03*
D12*
X124714000Y-71374000D03*
%TD*%
D10*
%TO.C,*%
X36195000Y-129540000D03*
%TD*%
%TO.C,*%
X99687939Y-104124172D03*
%TD*%
%TO.C,*%
X48895000Y-116840000D03*
%TD*%
%TO.C,*%
X117475000Y-104114600D03*
%TD*%
%TO.C,*%
X76835000Y-109220000D03*
%TD*%
%TO.C,*%
X81880422Y-149860000D03*
%TD*%
%TO.C,*%
X38735000Y-137160000D03*
%TD*%
%TO.C,*%
X43815000Y-134620000D03*
%TD*%
%TO.C,*%
X38735000Y-114300000D03*
%TD*%
D13*
%TO.C,D1*%
X26919000Y-151384000D03*
D14*
X29459000Y-151384000D03*
%TD*%
D10*
%TO.C,*%
X38735000Y-111760000D03*
%TD*%
%TO.C,*%
X99687939Y-134604172D03*
%TD*%
%TO.C,*%
X66675000Y-114300000D03*
%TD*%
%TO.C,*%
X56515000Y-127000000D03*
%TD*%
%TO.C,*%
X79363068Y-134611396D03*
%TD*%
D11*
%TO.C,R5*%
X119634000Y-61214000D03*
D12*
X119634000Y-71374000D03*
%TD*%
D10*
%TO.C,*%
X31115000Y-114300000D03*
%TD*%
%TO.C,*%
X31115000Y-124460000D03*
%TD*%
%TO.C,*%
X102235000Y-109220000D03*
%TD*%
%TO.C,*%
X41275000Y-134620000D03*
%TD*%
%TO.C,*%
X117475000Y-116814600D03*
%TD*%
%TO.C,*%
X46355000Y-152400000D03*
%TD*%
%TO.C,*%
X102235000Y-129540000D03*
%TD*%
%TO.C,*%
X104775000Y-104140000D03*
%TD*%
%TO.C,*%
X33655000Y-114300000D03*
%TD*%
%TO.C,*%
X36195000Y-134620000D03*
%TD*%
%TO.C,*%
X36195000Y-132080000D03*
%TD*%
%TO.C,*%
X25400000Y-127000000D03*
%TD*%
%TO.C,*%
X46355000Y-106680000D03*
%TD*%
%TO.C,*%
X109855000Y-134620000D03*
%TD*%
%TO.C,*%
X84455000Y-124460000D03*
%TD*%
%TO.C,*%
X53975000Y-149860000D03*
%TD*%
%TO.C,*%
X41275000Y-129540000D03*
%TD*%
%TO.C,*%
X89535000Y-147320000D03*
%TD*%
%TO.C,*%
X56515000Y-139700000D03*
%TD*%
%TO.C,*%
X102235000Y-121920000D03*
%TD*%
%TO.C,*%
X51435000Y-147320000D03*
%TD*%
%TO.C,*%
X64135000Y-106680000D03*
%TD*%
%TO.C,*%
X59055000Y-152400000D03*
%TD*%
%TO.C,*%
X81880422Y-142240000D03*
%TD*%
%TO.C,*%
X92075000Y-106680000D03*
%TD*%
%TO.C,*%
X51435000Y-144780000D03*
%TD*%
%TO.C,*%
X107315000Y-147320000D03*
%TD*%
%TO.C,*%
X114927939Y-114268344D03*
%TD*%
%TO.C,*%
X107315000Y-114300000D03*
%TD*%
%TO.C,*%
X48895000Y-104140000D03*
%TD*%
%TO.C,*%
X71755000Y-114300000D03*
%TD*%
%TO.C,*%
X107315000Y-104140000D03*
%TD*%
D11*
%TO.C,R3*%
X114554000Y-61214000D03*
D12*
X114554000Y-71374000D03*
%TD*%
D10*
%TO.C,*%
X64135000Y-127000000D03*
%TD*%
%TO.C,*%
X97129189Y-139699999D03*
%TD*%
%TO.C,*%
X61595000Y-144780000D03*
%TD*%
D11*
%TO.C,R0*%
X21717000Y-86868000D03*
D12*
X21717000Y-97028000D03*
%TD*%
D10*
%TO.C,*%
X51435000Y-101600000D03*
%TD*%
%TO.C,*%
X97155000Y-129540000D03*
%TD*%
%TO.C,*%
X51435000Y-139700000D03*
%TD*%
%TO.C,*%
X64135000Y-147320000D03*
%TD*%
%TO.C,*%
X64135000Y-119380000D03*
%TD*%
%TO.C,*%
X46355000Y-134620000D03*
%TD*%
%TO.C,*%
X89535000Y-132080000D03*
%TD*%
%TO.C,*%
X31115000Y-129540000D03*
%TD*%
%TO.C,*%
X120777000Y-114274600D03*
%TD*%
%TO.C,*%
X46355000Y-119380000D03*
%TD*%
%TO.C,*%
X71755000Y-111760000D03*
%TD*%
%TO.C,*%
X76835000Y-104140000D03*
%TD*%
%TO.C,*%
X51435000Y-129540000D03*
%TD*%
%TO.C,*%
X99687939Y-129508344D03*
%TD*%
%TO.C,*%
X25400000Y-119380000D03*
%TD*%
%TO.C,*%
X97155000Y-147320000D03*
%TD*%
%TO.C,*%
X61595000Y-104140000D03*
%TD*%
%TO.C,*%
X43815000Y-147320000D03*
%TD*%
%TO.C,*%
X104775000Y-111760000D03*
%TD*%
%TO.C,*%
X104775000Y-101600000D03*
%TD*%
%TO.C,*%
X28575000Y-116840000D03*
%TD*%
%TO.C,*%
X94615000Y-121920000D03*
%TD*%
%TO.C,*%
X89535000Y-111760000D03*
%TD*%
D15*
%TO.C,SW1*%
X109474000Y-96520000D03*
D14*
X112014000Y-96520000D03*
X114554000Y-96520000D03*
X117094000Y-96520000D03*
X119634000Y-96520000D03*
X122174000Y-96520000D03*
X124714000Y-96520000D03*
X127254000Y-96520000D03*
X127254000Y-88900000D03*
X124714000Y-88900000D03*
X122174000Y-88900000D03*
X119634000Y-88900000D03*
X117094000Y-88900000D03*
X114554000Y-88900000D03*
X112014000Y-88900000D03*
X109474000Y-88900000D03*
%TD*%
D10*
%TO.C,*%
X31115000Y-134620000D03*
%TD*%
%TO.C,*%
X43815000Y-101600000D03*
%TD*%
%TO.C,*%
X64135000Y-149860000D03*
%TD*%
%TO.C,*%
X99687939Y-142224172D03*
%TD*%
%TO.C,*%
X94615000Y-116840000D03*
%TD*%
%TO.C,*%
X43815000Y-104140000D03*
%TD*%
%TO.C,*%
X117475000Y-126974600D03*
%TD*%
%TO.C,*%
X64135000Y-129540000D03*
%TD*%
%TO.C,*%
X102235000Y-127000000D03*
%TD*%
%TO.C,*%
X94615000Y-119380000D03*
%TD*%
%TO.C,*%
X120777000Y-134594600D03*
%TD*%
%TO.C,*%
X86995000Y-152400000D03*
%TD*%
%TO.C,*%
X97129189Y-111744172D03*
%TD*%
%TO.C,*%
X53975000Y-137160000D03*
%TD*%
%TO.C,*%
X97129189Y-119364172D03*
%TD*%
%TO.C,*%
X117475000Y-119354600D03*
%TD*%
D11*
%TO.C,R2*%
X112014000Y-61214000D03*
D12*
X112014000Y-71374000D03*
%TD*%
D10*
%TO.C,*%
X74295000Y-147320000D03*
%TD*%
%TO.C,*%
X86995000Y-144780000D03*
%TD*%
%TO.C,*%
X41275000Y-116840000D03*
%TD*%
%TO.C,*%
X112369189Y-124459999D03*
%TD*%
%TO.C,*%
X38735000Y-134620000D03*
%TD*%
%TO.C,*%
X109855000Y-127000000D03*
%TD*%
%TO.C,*%
X69215000Y-114300000D03*
%TD*%
D16*
%TO.C,X3*%
X78790800Y-87269400D03*
D17*
X78790800Y-89809400D03*
X76250800Y-87269400D03*
X76250800Y-89809400D03*
X73710800Y-87269400D03*
X73710800Y-89809400D03*
X71170800Y-87269400D03*
X71170800Y-89809400D03*
X68630800Y-87269400D03*
X68630800Y-89809400D03*
%TD*%
D10*
%TO.C,*%
X97129189Y-109219999D03*
%TD*%
%TO.C,*%
X59055000Y-119380000D03*
%TD*%
%TO.C,*%
X89535000Y-121920000D03*
%TD*%
%TO.C,*%
X109855000Y-109220000D03*
%TD*%
%TO.C,*%
X94615000Y-127000000D03*
%TD*%
%TO.C,*%
X86995000Y-121920000D03*
%TD*%
%TO.C,*%
X109855000Y-111760000D03*
%TD*%
%TO.C,*%
X41275000Y-114300000D03*
%TD*%
%TO.C,*%
X28575000Y-106680000D03*
%TD*%
%TO.C,*%
X84455000Y-116840000D03*
%TD*%
%TO.C,*%
X117475000Y-129514600D03*
%TD*%
D16*
%TO.C,X2*%
X97815400Y-87269400D03*
D17*
X97815400Y-89809400D03*
X95275400Y-87269400D03*
X95275400Y-89809400D03*
X92735400Y-87269400D03*
X92735400Y-89809400D03*
X90195400Y-87269400D03*
X90195400Y-89809400D03*
X87655400Y-87269400D03*
X87655400Y-89809400D03*
%TD*%
D10*
%TO.C,*%
X48895000Y-144780000D03*
%TD*%
%TO.C,*%
X79363068Y-111751396D03*
%TD*%
%TO.C,*%
X71755000Y-101600000D03*
%TD*%
%TO.C,*%
X104775000Y-134620000D03*
%TD*%
D18*
%TO.C,U2*%
X104394000Y-82032000D03*
D12*
X106934000Y-82032000D03*
X109474000Y-82032000D03*
X112014000Y-82032000D03*
X114554000Y-82032000D03*
X117094000Y-82032000D03*
X119634000Y-82032000D03*
X122174000Y-82032000D03*
X124714000Y-82032000D03*
X127254000Y-82032000D03*
X127254000Y-74412000D03*
X124714000Y-74412000D03*
X122174000Y-74412000D03*
X119634000Y-74412000D03*
X117094000Y-74412000D03*
X114554000Y-74412000D03*
X112014000Y-74412000D03*
X109474000Y-74412000D03*
X106934000Y-74412000D03*
X104394000Y-74412000D03*
%TD*%
D10*
%TO.C,*%
X43815000Y-144780000D03*
%TD*%
%TO.C,*%
X59055000Y-104140000D03*
%TD*%
%TO.C,*%
X109855000Y-104140000D03*
%TD*%
%TO.C,*%
X117475000Y-109194600D03*
%TD*%
%TO.C,*%
X61595000Y-137160000D03*
%TD*%
%TO.C,*%
X86995000Y-124460000D03*
%TD*%
%TO.C,C1*%
X104902000Y-90424000D03*
X104902000Y-95424000D03*
%TD*%
%TO.C,*%
X92075000Y-119380000D03*
%TD*%
%TO.C,*%
X43815000Y-106680000D03*
%TD*%
%TO.C,*%
X59055000Y-137160000D03*
%TD*%
%TO.C,*%
X109855000Y-116840000D03*
%TD*%
%TO.C,*%
X99687939Y-126984172D03*
%TD*%
%TO.C,*%
X53975000Y-101600000D03*
%TD*%
%TO.C,*%
X104775000Y-106680000D03*
%TD*%
%TO.C,*%
X76835000Y-116840000D03*
%TD*%
%TO.C,*%
X36195000Y-101600000D03*
%TD*%
%TO.C,*%
X38735000Y-147320000D03*
%TD*%
%TO.C,*%
X84455000Y-147320000D03*
%TD*%
%TO.C,*%
X43815000Y-139700000D03*
%TD*%
%TO.C,*%
X41275000Y-124460000D03*
%TD*%
%TO.C,*%
X43815000Y-121920000D03*
%TD*%
%TO.C,*%
X38735000Y-127000000D03*
%TD*%
%TO.C,*%
X25400000Y-129540000D03*
%TD*%
%TO.C,*%
X114927939Y-109220000D03*
%TD*%
%TO.C,*%
X94615000Y-114300000D03*
%TD*%
%TO.C,*%
X76835000Y-149860000D03*
%TD*%
%TO.C,*%
X99687939Y-111744172D03*
%TD*%
%TO.C,*%
X56515000Y-106680000D03*
%TD*%
%TO.C,*%
X97155000Y-121920000D03*
%TD*%
%TO.C,*%
X64135000Y-144780000D03*
%TD*%
%TO.C,*%
X107315000Y-111760000D03*
%TD*%
%TO.C,C2*%
X41550600Y-86766400D03*
X36550600Y-86766400D03*
%TD*%
%TO.C,*%
X66675000Y-116840000D03*
%TD*%
%TO.C,*%
X107315000Y-129540000D03*
%TD*%
%TO.C,*%
X43815000Y-152400000D03*
%TD*%
%TO.C,*%
X79363068Y-104131396D03*
%TD*%
%TO.C,*%
X33655000Y-121920000D03*
%TD*%
%TO.C,*%
X86995000Y-116840000D03*
%TD*%
%TO.C,*%
X79375000Y-101600000D03*
%TD*%
%TO.C,*%
X94615000Y-144780000D03*
%TD*%
%TO.C,*%
X66675000Y-106680000D03*
%TD*%
%TO.C,*%
X107315000Y-109220000D03*
%TD*%
%TO.C,*%
X79363068Y-142231396D03*
%TD*%
%TO.C,*%
X92075000Y-132080000D03*
%TD*%
%TO.C,*%
X92075000Y-129540000D03*
%TD*%
%TO.C,*%
X112369189Y-132079999D03*
%TD*%
%TO.C,*%
X31115000Y-121920000D03*
%TD*%
%TO.C,*%
X109855000Y-106680000D03*
%TD*%
%TO.C,*%
X112369189Y-101599999D03*
%TD*%
%TO.C,*%
X51435000Y-119380000D03*
%TD*%
%TO.C,*%
X69215000Y-116840000D03*
%TD*%
%TO.C,*%
X81880422Y-147320000D03*
%TD*%
%TO.C,*%
X69215000Y-106680000D03*
%TD*%
%TO.C,*%
X56515000Y-142240000D03*
%TD*%
%TO.C,*%
X28575000Y-119380000D03*
%TD*%
%TO.C,*%
X97155000Y-137160000D03*
%TD*%
%TO.C,*%
X36195000Y-106680000D03*
%TD*%
%TO.C,*%
X79363068Y-114287094D03*
%TD*%
%TO.C,*%
X33655000Y-127000000D03*
%TD*%
%TO.C,*%
X59055000Y-142240000D03*
%TD*%
%TO.C,*%
X51435000Y-114300000D03*
%TD*%
D18*
%TO.C,U3*%
X49535000Y-76840000D03*
D12*
X52075000Y-76840000D03*
X54615000Y-76840000D03*
X57155000Y-76840000D03*
X59695000Y-76840000D03*
X62235000Y-76840000D03*
X64775000Y-76840000D03*
X67315000Y-76840000D03*
X69855000Y-76840000D03*
X72395000Y-76840000D03*
X74935000Y-76840000D03*
X77475000Y-76840000D03*
X80015000Y-76840000D03*
X82555000Y-76840000D03*
X85095000Y-76840000D03*
X87635000Y-76840000D03*
X90175000Y-76840000D03*
X92715000Y-76840000D03*
X95255000Y-76840000D03*
X97795000Y-76840000D03*
X97795000Y-61600000D03*
X95255000Y-61600000D03*
X92715000Y-61600000D03*
X90175000Y-61600000D03*
X87635000Y-61600000D03*
X85095000Y-61600000D03*
X82555000Y-61600000D03*
X80015000Y-61600000D03*
X77475000Y-61600000D03*
X74935000Y-61600000D03*
X72395000Y-61600000D03*
X69855000Y-61600000D03*
X67315000Y-61600000D03*
X64775000Y-61600000D03*
X62235000Y-61600000D03*
X59695000Y-61600000D03*
X57155000Y-61600000D03*
X54615000Y-61600000D03*
X52075000Y-61600000D03*
X49535000Y-61600000D03*
%TD*%
D10*
%TO.C,*%
X28575000Y-127000000D03*
%TD*%
%TO.C,*%
X38735000Y-119380000D03*
%TD*%
%TO.C,*%
X104775000Y-124460000D03*
%TD*%
%TO.C,*%
X86995000Y-142240000D03*
%TD*%
%TO.C,*%
X112369189Y-104124172D03*
%TD*%
D11*
%TO.C,R8*%
X127254000Y-61214000D03*
D12*
X127254000Y-71374000D03*
%TD*%
D10*
%TO.C,*%
X79363068Y-106667094D03*
%TD*%
%TO.C,*%
X31115000Y-111760000D03*
%TD*%
%TO.C,*%
X86995000Y-134620000D03*
%TD*%
%TO.C,*%
X59055000Y-144780000D03*
%TD*%
%TO.C,*%
X112395000Y-106680000D03*
%TD*%
%TO.C,*%
X59055000Y-139700000D03*
%TD*%
%TO.C,*%
X66675000Y-144780000D03*
%TD*%
%TO.C,*%
X81880422Y-111760000D03*
%TD*%
%TO.C,*%
X104775000Y-109220000D03*
%TD*%
%TO.C,*%
X48895000Y-149860000D03*
%TD*%
%TO.C,*%
X86995000Y-111760000D03*
%TD*%
%TO.C,*%
X99687939Y-132080000D03*
%TD*%
%TO.C,*%
X66675000Y-132080000D03*
%TD*%
%TO.C,*%
X92075000Y-104140000D03*
%TD*%
%TO.C,*%
X104775000Y-137160000D03*
%TD*%
%TO.C,*%
X97155000Y-144780000D03*
%TD*%
%TO.C,*%
X48895000Y-109220000D03*
%TD*%
%TO.C,*%
X92075000Y-149860000D03*
%TD*%
%TO.C,*%
X81880422Y-101599999D03*
%TD*%
%TO.C,*%
X53975000Y-116840000D03*
%TD*%
%TO.C,*%
X117475000Y-132054600D03*
%TD*%
%TO.C,*%
X48895000Y-129540000D03*
%TD*%
%TO.C,*%
X25400000Y-114300000D03*
%TD*%
%TO.C,*%
X104775000Y-121920000D03*
%TD*%
%TO.C,*%
X64135000Y-101600000D03*
%TD*%
%TO.C,*%
X53975000Y-144780000D03*
%TD*%
%TO.C,*%
X86995000Y-132080000D03*
%TD*%
%TO.C,*%
X117475000Y-121894600D03*
%TD*%
%TO.C,*%
X53975000Y-114300000D03*
%TD*%
%TO.C,*%
X102235000Y-124460000D03*
%TD*%
%TO.C,*%
X25400000Y-134620000D03*
%TD*%
%TO.C,*%
X53975000Y-132080000D03*
%TD*%
%TO.C,*%
X84455000Y-104140000D03*
%TD*%
%TO.C,*%
X117475000Y-111734600D03*
%TD*%
%TO.C,*%
X46355000Y-111760000D03*
%TD*%
%TO.C,*%
X71755000Y-144780000D03*
%TD*%
%TO.C,*%
X74295000Y-101600000D03*
%TD*%
%TO.C,*%
X48895000Y-114300000D03*
%TD*%
%TO.C,*%
X48895000Y-106680000D03*
%TD*%
%TO.C,*%
X59055000Y-147320000D03*
%TD*%
%TO.C,*%
X97129189Y-101599999D03*
%TD*%
%TO.C,*%
X104775000Y-119380000D03*
%TD*%
%TO.C,*%
X84455000Y-132080000D03*
%TD*%
%TO.C,*%
X41275000Y-111760000D03*
%TD*%
%TO.C,*%
X120777000Y-101574600D03*
%TD*%
%TO.C,*%
X46355000Y-149860000D03*
%TD*%
%TO.C,*%
X25400000Y-104140000D03*
%TD*%
%TO.C,*%
X114927939Y-101600000D03*
%TD*%
%TO.C,*%
X120777000Y-119354600D03*
%TD*%
%TO.C,*%
X48895000Y-121920000D03*
%TD*%
%TO.C,*%
X120777000Y-121894600D03*
%TD*%
%TO.C,*%
X104775000Y-142240000D03*
%TD*%
%TO.C,*%
X99687939Y-147288344D03*
%TD*%
%TO.C,*%
X84455000Y-127000000D03*
%TD*%
%TO.C,*%
X76835000Y-144780000D03*
%TD*%
%TO.C,*%
X81880422Y-134620000D03*
%TD*%
%TO.C,*%
X66675000Y-134620000D03*
%TD*%
%TO.C,*%
X71755000Y-147320000D03*
%TD*%
%TO.C,*%
X71755000Y-142240000D03*
%TD*%
%TO.C,*%
X120777000Y-129514600D03*
%TD*%
%TO.C,*%
X48895000Y-127000000D03*
%TD*%
%TO.C,*%
X114927939Y-104124172D03*
%TD*%
%TO.C,*%
X46355000Y-144780000D03*
%TD*%
%TO.C,*%
X84455000Y-137160000D03*
%TD*%
%TO.C,*%
X69215000Y-139700000D03*
%TD*%
%TO.C,*%
X41275000Y-137160000D03*
%TD*%
%TO.C,*%
X86995000Y-109220000D03*
%TD*%
%TO.C,*%
X89535000Y-137160000D03*
%TD*%
%TO.C,*%
X28575000Y-101600000D03*
%TD*%
%TO.C,*%
X89535000Y-152400000D03*
%TD*%
%TO.C,*%
X53975000Y-106680000D03*
%TD*%
%TO.C,*%
X28575000Y-104140000D03*
%TD*%
%TO.C,*%
X36195000Y-119380000D03*
%TD*%
%TO.C,*%
X59055000Y-132080000D03*
%TD*%
%TO.C,*%
X41275000Y-142240000D03*
%TD*%
%TO.C,*%
X41275000Y-152400000D03*
%TD*%
%TO.C,*%
X79363068Y-119371396D03*
%TD*%
%TO.C,*%
X74295000Y-134620000D03*
%TD*%
%TO.C,*%
X84455000Y-144780000D03*
%TD*%
%TO.C,*%
X38735000Y-121920000D03*
%TD*%
%TO.C,*%
X66675000Y-111760000D03*
%TD*%
%TO.C,*%
X56515000Y-144780000D03*
%TD*%
%TO.C,*%
X120777000Y-109194600D03*
%TD*%
%TO.C,*%
X76835000Y-132080000D03*
%TD*%
%TO.C,*%
X97129189Y-124459999D03*
%TD*%
%TO.C,*%
X25400000Y-121920000D03*
%TD*%
%TO.C,*%
X99687939Y-101600000D03*
%TD*%
%TO.C,*%
X46355000Y-142240000D03*
%TD*%
%TO.C,*%
X33655000Y-106680000D03*
%TD*%
%TO.C,*%
X66675000Y-109220000D03*
%TD*%
%TO.C,*%
X46355000Y-101600000D03*
%TD*%
%TO.C,*%
X51435000Y-104140000D03*
%TD*%
%TO.C,*%
X59055000Y-134620000D03*
%TD*%
%TO.C,*%
X41275000Y-121920000D03*
%TD*%
%TO.C,*%
X69215000Y-109220000D03*
%TD*%
%TO.C,*%
X81880422Y-104140000D03*
%TD*%
%TO.C,*%
X79363068Y-149847094D03*
%TD*%
%TO.C,*%
X84455000Y-106680000D03*
%TD*%
%TO.C,*%
X46355000Y-139700000D03*
%TD*%
%TO.C,*%
X71755000Y-109220000D03*
%TD*%
%TO.C,*%
X66675000Y-149860000D03*
%TD*%
%TO.C,*%
X64135000Y-104140000D03*
%TD*%
%TO.C,*%
X36195000Y-114300000D03*
%TD*%
%TO.C,*%
X74295000Y-132080000D03*
%TD*%
%TO.C,*%
X61595000Y-101600000D03*
%TD*%
%TO.C,*%
X53975000Y-104140000D03*
%TD*%
%TO.C,*%
X33655000Y-132080000D03*
%TD*%
%TO.C,*%
X36195000Y-109220000D03*
%TD*%
%TO.C,*%
X38735000Y-132080000D03*
%TD*%
%TO.C,*%
X74295000Y-116840000D03*
%TD*%
%TO.C,*%
X76835000Y-152400000D03*
%TD*%
%TO.C,*%
X46355000Y-124460000D03*
%TD*%
%TO.C,*%
X69215000Y-111760000D03*
%TD*%
%TO.C,*%
X53975000Y-139700000D03*
%TD*%
%TO.C,*%
X94615000Y-109220000D03*
%TD*%
%TO.C,*%
X84455000Y-111760000D03*
%TD*%
%TO.C,*%
X89535000Y-124460000D03*
%TD*%
%TO.C,*%
X53975000Y-134620000D03*
%TD*%
%TO.C,*%
X97155000Y-106680000D03*
%TD*%
%TO.C,*%
X38735000Y-106680000D03*
%TD*%
%TO.C,*%
X43815000Y-132080000D03*
%TD*%
D19*
%TO.C,JP1*%
X27115000Y-86700000D03*
D17*
X29655000Y-86700000D03*
X32195000Y-86700000D03*
%TD*%
D10*
%TO.C,*%
X25400000Y-124460000D03*
%TD*%
%TO.C,*%
X109855000Y-129540000D03*
%TD*%
%TO.C,*%
X74295000Y-111760000D03*
%TD*%
%TO.C,*%
X114927939Y-132080000D03*
%TD*%
%TO.C,*%
X69215000Y-127000000D03*
%TD*%
%TO.C,*%
X114927939Y-116840000D03*
%TD*%
%TO.C,*%
X71755000Y-149860000D03*
%TD*%
%TO.C,*%
X94615000Y-149860000D03*
%TD*%
%TO.C,*%
X61595000Y-139700000D03*
%TD*%
%TO.C,*%
X48895000Y-124460000D03*
%TD*%
%TO.C,*%
X79375000Y-132080000D03*
%TD*%
%TO.C,*%
X109855000Y-124460000D03*
%TD*%
%TO.C,*%
X117475000Y-101574600D03*
%TD*%
%TO.C,*%
X120777000Y-104114600D03*
%TD*%
%TO.C,*%
X99687939Y-137128344D03*
%TD*%
%TO.C,*%
X76835000Y-114300000D03*
%TD*%
%TO.C,*%
X69215000Y-104140000D03*
%TD*%
%TO.C,*%
X61595000Y-149860000D03*
%TD*%
%TO.C,*%
X102235000Y-116840000D03*
%TD*%
%TO.C,*%
X38735000Y-152400000D03*
%TD*%
%TO.C,*%
X56515000Y-116840000D03*
%TD*%
%TO.C,*%
X99687939Y-124460000D03*
%TD*%
%TO.C,*%
X99687939Y-152368344D03*
%TD*%
%TO.C,*%
X114927939Y-129508344D03*
%TD*%
%TO.C,*%
X102235000Y-144780000D03*
%TD*%
%TO.C,*%
X107315000Y-139700000D03*
%TD*%
%TO.C,*%
X102235000Y-106680000D03*
%TD*%
%TO.C,*%
X92075000Y-134620000D03*
%TD*%
%TO.C,*%
X99687939Y-114268344D03*
%TD*%
%TO.C,*%
X107315000Y-134620000D03*
%TD*%
%TO.C,*%
X71755000Y-132080000D03*
%TD*%
%TO.C,*%
X86995000Y-139700000D03*
%TD*%
%TO.C,*%
X61595000Y-124460000D03*
%TD*%
%TO.C,*%
X59055000Y-109220000D03*
%TD*%
%TO.C,*%
X74295000Y-124460000D03*
%TD*%
%TO.C,*%
X104775000Y-132080000D03*
%TD*%
%TO.C,*%
X69215000Y-129540000D03*
%TD*%
D20*
%TO.C,RN1*%
X106919000Y-85344000D03*
D12*
X109459000Y-85344000D03*
X111999000Y-85344000D03*
X114539000Y-85344000D03*
X117079000Y-85344000D03*
X119619000Y-85344000D03*
X122159000Y-85344000D03*
X124699000Y-85344000D03*
X127239000Y-85344000D03*
%TD*%
D10*
%TO.C,*%
X74295000Y-114300000D03*
%TD*%
%TO.C,*%
X51435000Y-142240000D03*
%TD*%
%TO.C,*%
X51435000Y-137160000D03*
%TD*%
%TO.C,*%
X53975000Y-124460000D03*
%TD*%
%TO.C,*%
X120777000Y-111734600D03*
%TD*%
%TO.C,*%
X97129189Y-142224172D03*
%TD*%
%TO.C,*%
X97155000Y-114300000D03*
%TD*%
%TO.C,*%
X56515000Y-104140000D03*
%TD*%
%TO.C,*%
X114927939Y-134604172D03*
%TD*%
%TO.C,*%
X89535000Y-134620000D03*
%TD*%
%TO.C,*%
X61595000Y-106680000D03*
%TD*%
%TO.C,*%
X81880422Y-152400000D03*
%TD*%
%TO.C,*%
X92075000Y-101600000D03*
%TD*%
%TO.C,*%
X84455000Y-119380000D03*
%TD*%
%TO.C,*%
X61595000Y-152400000D03*
%TD*%
%TO.C,*%
X31115000Y-104140000D03*
%TD*%
%TO.C,*%
X28575000Y-121920000D03*
%TD*%
%TO.C,*%
X43815000Y-119380000D03*
%TD*%
%TO.C,*%
X104775000Y-116840000D03*
%TD*%
%TO.C,*%
X61595000Y-134620000D03*
%TD*%
%TO.C,*%
X76835000Y-134620000D03*
%TD*%
%TO.C,*%
X120777000Y-124434600D03*
%TD*%
%TO.C,*%
X33655000Y-119380000D03*
%TD*%
%TO.C,*%
X112369189Y-119364172D03*
%TD*%
%TO.C,*%
X79375000Y-109220000D03*
%TD*%
%TO.C,*%
X61595000Y-121920000D03*
%TD*%
%TO.C,*%
X102235000Y-149860000D03*
%TD*%
%TO.C,*%
X107315000Y-101600000D03*
%TD*%
D11*
%TO.C,R4*%
X117094000Y-61214000D03*
D12*
X117094000Y-71374000D03*
%TD*%
D10*
%TO.C,*%
X48895000Y-152400000D03*
%TD*%
%TO.C,*%
X56515000Y-134620000D03*
%TD*%
%TO.C,*%
X36195000Y-124460000D03*
%TD*%
%TO.C,*%
X43815000Y-127000000D03*
%TD*%
%TO.C,*%
X74295000Y-127000000D03*
%TD*%
%TO.C,*%
X38735000Y-101600000D03*
%TD*%
%TO.C,*%
X81880422Y-127000000D03*
%TD*%
%TO.C,*%
X51435000Y-116840000D03*
%TD*%
%TO.C,*%
X66675000Y-139700000D03*
%TD*%
%TO.C,*%
X92075000Y-139700000D03*
%TD*%
%TO.C,*%
X86995000Y-127000000D03*
%TD*%
%TO.C,*%
X97155000Y-152400000D03*
%TD*%
%TO.C,*%
X94615000Y-134620000D03*
%TD*%
%TO.C,*%
X38735000Y-129540000D03*
%TD*%
%TO.C,*%
X76835000Y-129540000D03*
%TD*%
%TO.C,*%
X46355000Y-137160000D03*
%TD*%
%TO.C,*%
X38735000Y-109220000D03*
%TD*%
%TO.C,*%
X28575000Y-134620000D03*
%TD*%
%TO.C,*%
X92075000Y-144780000D03*
%TD*%
%TO.C,*%
X56515000Y-114300000D03*
%TD*%
D16*
%TO.C,X1*%
X59690000Y-87249000D03*
D17*
X59690000Y-89789000D03*
X57150000Y-87249000D03*
X57150000Y-89789000D03*
X54610000Y-87249000D03*
X54610000Y-89789000D03*
X52070000Y-87249000D03*
X52070000Y-89789000D03*
X49530000Y-87249000D03*
X49530000Y-89789000D03*
%TD*%
D10*
%TO.C,*%
X66675000Y-152400000D03*
%TD*%
%TO.C,*%
X48895000Y-111760000D03*
%TD*%
%TO.C,*%
X109855000Y-101600000D03*
%TD*%
%TO.C,*%
X59055000Y-121920000D03*
%TD*%
%TO.C,*%
X86995000Y-129540000D03*
%TD*%
%TO.C,*%
X94615000Y-137160000D03*
%TD*%
%TO.C,*%
X66675000Y-127000000D03*
%TD*%
%TO.C,*%
X84455000Y-114300000D03*
%TD*%
%TO.C,*%
X61595000Y-127000000D03*
%TD*%
%TO.C,*%
X41275000Y-101600000D03*
%TD*%
%TO.C,*%
X89535000Y-101600000D03*
%TD*%
%TO.C,*%
X64135000Y-114300000D03*
%TD*%
%TO.C,*%
X69215000Y-137160000D03*
%TD*%
%TO.C,*%
X94615000Y-129540000D03*
%TD*%
%TO.C,*%
X46355000Y-132080000D03*
%TD*%
%TO.C,*%
X84455000Y-121920000D03*
%TD*%
D11*
%TO.C,R6*%
X122174000Y-61214000D03*
D12*
X122174000Y-71374000D03*
%TD*%
D10*
%TO.C,*%
X84455000Y-109220000D03*
%TD*%
%TO.C,*%
X64135000Y-111760000D03*
%TD*%
%TO.C,*%
X61595000Y-119380000D03*
%TD*%
%TO.C,*%
X89535000Y-127000000D03*
%TD*%
%TO.C,*%
X107315000Y-106680000D03*
%TD*%
%TO.C,*%
X74295000Y-106680000D03*
%TD*%
%TO.C,*%
X36195000Y-127000000D03*
%TD*%
%TO.C,*%
X51435000Y-109220000D03*
%TD*%
%TO.C,*%
X28575000Y-109220000D03*
%TD*%
%TO.C,*%
X59055000Y-114300000D03*
%TD*%
%TO.C,*%
X33655000Y-134620000D03*
%TD*%
%TO.C,*%
X46355000Y-114300000D03*
%TD*%
%TO.C,*%
X36195000Y-111760000D03*
%TD*%
%TO.C,*%
X94615000Y-132080000D03*
%TD*%
%TO.C,*%
X33655000Y-111760000D03*
%TD*%
%TO.C,*%
X28575000Y-124460000D03*
%TD*%
%TO.C,*%
X31115000Y-119380000D03*
%TD*%
%TO.C,*%
X51435000Y-127000000D03*
%TD*%
%TO.C,*%
X81880422Y-132079999D03*
%TD*%
%TO.C,*%
X64135000Y-142240000D03*
%TD*%
%TO.C,*%
X66675000Y-137160000D03*
%TD*%
%TO.C,*%
X41275000Y-144780000D03*
%TD*%
%TO.C,*%
X84455000Y-134620000D03*
%TD*%
%TO.C,*%
X43815000Y-109220000D03*
%TD*%
%TO.C,*%
X64135000Y-121920000D03*
%TD*%
%TO.C,*%
X74295000Y-129540000D03*
%TD*%
%TO.C,*%
X76835000Y-106680000D03*
%TD*%
%TO.C,*%
X43815000Y-142240000D03*
%TD*%
%TO.C,*%
X33655000Y-109220000D03*
%TD*%
%TO.C,*%
X76835000Y-121920000D03*
%TD*%
%TO.C,*%
X64135000Y-139700000D03*
%TD*%
%TO.C,*%
X102235000Y-152400000D03*
%TD*%
%TO.C,*%
X41275000Y-149860000D03*
%TD*%
%TO.C,*%
X81880422Y-137160000D03*
%TD*%
%TO.C,*%
X71755000Y-121920000D03*
%TD*%
%TO.C,*%
X48895000Y-137160000D03*
%TD*%
%TO.C,*%
X38735000Y-104140000D03*
%TD*%
%TO.C,*%
X117475000Y-134594600D03*
%TD*%
%TO.C,*%
X41275000Y-106680000D03*
%TD*%
%TO.C,*%
X102235000Y-137160000D03*
%TD*%
%TO.C,*%
X56515000Y-149860000D03*
%TD*%
%TO.C,*%
X81880422Y-116839999D03*
%TD*%
%TO.C,*%
X56515000Y-111760000D03*
%TD*%
%TO.C,*%
X69215000Y-101600000D03*
%TD*%
%TO.C,*%
X41275000Y-132080000D03*
%TD*%
%TO.C,*%
X71755000Y-119380000D03*
%TD*%
%TO.C,*%
X33655000Y-129540000D03*
%TD*%
%TO.C,*%
X94615000Y-139700000D03*
%TD*%
%TO.C,*%
X64135000Y-137160000D03*
%TD*%
%TO.C,*%
X112395000Y-114300000D03*
%TD*%
%TO.C,*%
X94615000Y-101600000D03*
%TD*%
%TO.C,*%
X43815000Y-129540000D03*
%TD*%
%TO.C,*%
X89535000Y-139700000D03*
%TD*%
%TO.C,*%
X120777000Y-116814600D03*
%TD*%
%TO.C,*%
X61595000Y-111760000D03*
%TD*%
%TO.C,*%
X74295000Y-137160000D03*
%TD*%
%TO.C,*%
X97129189Y-132079999D03*
%TD*%
%TO.C,*%
X114927939Y-111744172D03*
%TD*%
D21*
%TO.C,P1*%
X108338511Y-39024751D03*
X105839151Y-39024751D03*
X103337251Y-39024751D03*
X100837891Y-39024751D03*
X98338531Y-39024751D03*
X95836631Y-39024751D03*
X93337271Y-39024751D03*
X90837911Y-39024751D03*
X88338551Y-39024751D03*
X85836651Y-39024751D03*
X83337291Y-39024751D03*
X80837931Y-39024751D03*
X78338571Y-39024751D03*
X75836671Y-39024751D03*
X73337311Y-39024751D03*
X70837951Y-39024751D03*
X68338591Y-39024751D03*
X65836691Y-39024751D03*
X63337331Y-39024751D03*
X60837971Y-39024751D03*
X58338611Y-39024751D03*
X55836711Y-39024751D03*
X53337351Y-39024751D03*
X50837991Y-39024751D03*
X48338631Y-39024751D03*
X45836731Y-39024751D03*
X43337371Y-39024751D03*
X40838011Y-39024751D03*
X38338651Y-39024751D03*
%TD*%
D10*
%TO.C,*%
X53975000Y-119380000D03*
%TD*%
%TO.C,*%
X89535000Y-144780000D03*
%TD*%
%TO.C,*%
X99687939Y-116840000D03*
%TD*%
%TO.C,*%
X71755000Y-152400000D03*
%TD*%
%TO.C,*%
X56515000Y-101600000D03*
%TD*%
%TO.C,*%
X46355000Y-127000000D03*
%TD*%
%TO.C,*%
X94615000Y-124460000D03*
%TD*%
%TO.C,*%
X94615000Y-106680000D03*
%TD*%
%TO.C,*%
X97129189Y-104124172D03*
%TD*%
%TO.C,*%
X43815000Y-124460000D03*
%TD*%
%TO.C,*%
X66675000Y-104140000D03*
%TD*%
%TO.C,*%
X112369189Y-111744172D03*
%TD*%
%TO.C,*%
X48895000Y-101600000D03*
%TD*%
%TO.C,*%
X112369189Y-126984172D03*
%TD*%
%TO.C,*%
X66675000Y-121920000D03*
%TD*%
%TO.C,*%
X46355000Y-104140000D03*
%TD*%
%TO.C,*%
X89535000Y-142240000D03*
%TD*%
%TO.C,*%
X56515000Y-147320000D03*
%TD*%
%TO.C,*%
X41275000Y-109220000D03*
%TD*%
%TO.C,*%
X64135000Y-109220000D03*
%TD*%
%TO.C,*%
X59055000Y-111760000D03*
%TD*%
%TO.C,*%
X104775000Y-149860000D03*
%TD*%
%TO.C,*%
X64135000Y-116840000D03*
%TD*%
%TO.C,*%
X31115000Y-116840000D03*
%TD*%
%TO.C,*%
X66675000Y-147320000D03*
%TD*%
%TO.C,*%
X81880422Y-121920000D03*
%TD*%
%TO.C,*%
X69215000Y-121920000D03*
%TD*%
%TO.C,*%
X76835000Y-111760000D03*
%TD*%
%TO.C,*%
X25400000Y-116840000D03*
%TD*%
%TO.C,*%
X89535000Y-129540000D03*
%TD*%
%TO.C,*%
X53975000Y-142240000D03*
%TD*%
%TO.C,*%
X79363068Y-121907094D03*
%TD*%
%TO.C,*%
X46355000Y-109220000D03*
%TD*%
%TO.C,*%
X81880422Y-124459999D03*
%TD*%
%TO.C,*%
X107315000Y-119380000D03*
%TD*%
%TO.C,*%
X33655000Y-101600000D03*
%TD*%
%TO.C,*%
X66675000Y-142240000D03*
%TD*%
%TO.C,*%
X71755000Y-106680000D03*
%TD*%
%TO.C,*%
X76835000Y-137160000D03*
%TD*%
%TO.C,*%
X102235000Y-119380000D03*
%TD*%
%TO.C,*%
X104775000Y-152400000D03*
%TD*%
%TO.C,*%
X64135000Y-134620000D03*
%TD*%
%TO.C,*%
X104775000Y-129540000D03*
%TD*%
%TO.C,*%
X41275000Y-127000000D03*
%TD*%
%TO.C,*%
X48895000Y-119380000D03*
%TD*%
%TO.C,*%
X92075000Y-127000000D03*
%TD*%
%TO.C,*%
X117475000Y-124434600D03*
%TD*%
%TO.C,*%
X92075000Y-111760000D03*
%TD*%
%TO.C,*%
X61595000Y-116840000D03*
%TD*%
%TO.C,*%
X120777000Y-106654600D03*
%TD*%
%TO.C,*%
X102235000Y-142240000D03*
%TD*%
%TO.C,*%
X112395000Y-121920000D03*
%TD*%
%TO.C,*%
X69215000Y-152400000D03*
%TD*%
%TO.C,*%
X89535000Y-104140000D03*
%TD*%
%TO.C,*%
X92075000Y-124460000D03*
%TD*%
%TO.C,*%
X107315000Y-137160000D03*
%TD*%
%TO.C,*%
X107315000Y-127000000D03*
%TD*%
%TO.C,*%
X84455000Y-101600000D03*
%TD*%
%TO.C,*%
X112395000Y-129540000D03*
%TD*%
%TO.C,*%
X104775000Y-127000000D03*
%TD*%
%TO.C,*%
X51435000Y-152400000D03*
%TD*%
%TO.C,*%
X61595000Y-129540000D03*
%TD*%
%TO.C,*%
X64135000Y-124460000D03*
%TD*%
%TO.C,*%
X81880422Y-139699999D03*
%TD*%
%TO.C,*%
X38735000Y-144780000D03*
%TD*%
%TO.C,*%
X43815000Y-149860000D03*
%TD*%
%TO.C,*%
X102235000Y-104140000D03*
%TD*%
%TO.C,*%
X59055000Y-106680000D03*
%TD*%
%TO.C,*%
X97129189Y-116839999D03*
%TD*%
%TO.C,*%
X79363068Y-147307094D03*
%TD*%
%TO.C,*%
X59055000Y-124460000D03*
%TD*%
%TO.C,*%
X81880422Y-109219999D03*
%TD*%
%TO.C,*%
X43815000Y-111760000D03*
%TD*%
%TO.C,*%
X81880422Y-119380000D03*
%TD*%
%TO.C,*%
X59055000Y-101600000D03*
%TD*%
%TO.C,*%
X84455000Y-142240000D03*
%TD*%
%TO.C,*%
X43815000Y-114300000D03*
%TD*%
%TO.C,*%
X61595000Y-147320000D03*
%TD*%
%TO.C,*%
X51435000Y-134620000D03*
%TD*%
%TO.C,*%
X53975000Y-129540000D03*
%TD*%
%TO.C,*%
X102235000Y-147320000D03*
%TD*%
%TO.C,*%
X69215000Y-119380000D03*
%TD*%
%TO.C,*%
X86995000Y-114300000D03*
%TD*%
%TO.C,*%
X92075000Y-137160000D03*
%TD*%
%TO.C,*%
X92075000Y-116840000D03*
%TD*%
%TO.C,*%
X74295000Y-119380000D03*
%TD*%
%TO.C,*%
X94615000Y-147320000D03*
%TD*%
%TO.C,*%
X81880422Y-106680000D03*
%TD*%
%TO.C,*%
X51435000Y-124460000D03*
%TD*%
%TO.C,*%
X28575000Y-129540000D03*
%TD*%
%TO.C,*%
X79375000Y-116840000D03*
%TD*%
%TO.C,*%
X86995000Y-106680000D03*
%TD*%
%TO.C,*%
X109855000Y-114300000D03*
%TD*%
%TO.C,*%
X84455000Y-139700000D03*
%TD*%
%TO.C,*%
X64135000Y-152400000D03*
%TD*%
%TO.C,*%
X38735000Y-149860000D03*
%TD*%
%TO.C,*%
X25400000Y-132100000D03*
%TD*%
%TO.C,*%
X46355000Y-147320000D03*
%TD*%
%TO.C,*%
X31115000Y-109220000D03*
%TD*%
%TO.C,*%
X71755000Y-134620000D03*
%TD*%
%TO.C,*%
X104775000Y-144780000D03*
%TD*%
%TO.C,*%
X48895000Y-139700000D03*
%TD*%
%TO.C,*%
X86995000Y-119380000D03*
%TD*%
%TO.C,*%
X51435000Y-149860000D03*
%TD*%
%TO.C,*%
X25400000Y-106680000D03*
%TD*%
%TO.C,*%
X74295000Y-144780000D03*
%TD*%
%TO.C,*%
X61595000Y-132080000D03*
%TD*%
%TO.C,*%
X89535000Y-109220000D03*
%TD*%
%TO.C,*%
X109855000Y-121920000D03*
%TD*%
%TO.C,*%
X79375000Y-139700000D03*
%TD*%
%TO.C,C3*%
X85100000Y-57500000D03*
X90100000Y-57500000D03*
%TD*%
%TO.C,*%
X76835000Y-142240000D03*
%TD*%
%TO.C,*%
X107315000Y-142240000D03*
%TD*%
%TO.C,*%
X107315000Y-132080000D03*
%TD*%
%TO.C,*%
X71755000Y-127000000D03*
%TD*%
%TO.C,*%
X51435000Y-106680000D03*
%TD*%
%TO.C,*%
X117475000Y-106654600D03*
%TD*%
%TO.C,*%
X69215000Y-134620000D03*
%TD*%
%TO.C,*%
X104775000Y-114300000D03*
%TD*%
%TO.C,*%
X114927939Y-119364172D03*
%TD*%
%TO.C,*%
X56515000Y-152400000D03*
%TD*%
%TO.C,*%
X107315000Y-152400000D03*
%TD*%
%TO.C,*%
X89535000Y-119380000D03*
%TD*%
%TO.C,*%
X61595000Y-142240000D03*
%TD*%
%TO.C,*%
X48895000Y-147320000D03*
%TD*%
%TO.C,*%
X71755000Y-104140000D03*
%TD*%
%TO.C,*%
X38735000Y-116840000D03*
%TD*%
D22*
%TO.C,U1*%
X38303200Y-73279000D03*
D23*
X40843200Y-70739000D03*
X38303200Y-70739000D03*
X40843200Y-68199000D03*
X38303200Y-68199000D03*
X40843200Y-65659000D03*
X38303200Y-63119000D03*
X38303200Y-65659000D03*
X35763200Y-63119000D03*
X35763200Y-65659000D03*
X33223200Y-63119000D03*
X33223200Y-65659000D03*
X30683200Y-63119000D03*
X30683200Y-65659000D03*
X28143200Y-63119000D03*
X28143200Y-65659000D03*
X25603200Y-63119000D03*
X23063200Y-65659000D03*
X25603200Y-65659000D03*
X23063200Y-68199000D03*
X25603200Y-68199000D03*
X23063200Y-70739000D03*
X25603200Y-70739000D03*
X23063200Y-73279000D03*
X25603200Y-73279000D03*
X23063200Y-75819000D03*
X25603200Y-75819000D03*
X23063200Y-78359000D03*
X25603200Y-80899000D03*
X25603200Y-78359000D03*
X28143200Y-80899000D03*
X28143200Y-78359000D03*
X30683200Y-80899000D03*
X30683200Y-78359000D03*
X33223200Y-80899000D03*
X33223200Y-78359000D03*
X35763200Y-80899000D03*
X35763200Y-78359000D03*
X38303200Y-80899000D03*
X40843200Y-78359000D03*
X38303200Y-78359000D03*
X40843200Y-75819000D03*
X38303200Y-75819000D03*
X40843200Y-73279000D03*
%TD*%
D10*
%TO.C,*%
X38735000Y-124460000D03*
%TD*%
%TO.C,*%
X61595000Y-109220000D03*
%TD*%
%TO.C,*%
X69215000Y-124460000D03*
%TD*%
%TO.C,*%
X114927939Y-106648344D03*
%TD*%
%TO.C,*%
X104775000Y-147320000D03*
%TD*%
%TO.C,*%
X102235000Y-114300000D03*
%TD*%
%TO.C,*%
X71755000Y-129540000D03*
%TD*%
%TO.C,*%
X56515000Y-121920000D03*
%TD*%
%TO.C,*%
X51435000Y-132080000D03*
%TD*%
%TO.C,*%
X53975000Y-109220000D03*
%TD*%
%TO.C,*%
X59055000Y-129540000D03*
%TD*%
%TO.C,*%
X92075000Y-121920000D03*
%TD*%
%TO.C,*%
X94615000Y-152400000D03*
%TD*%
%TO.C,*%
X99687939Y-144748344D03*
%TD*%
%TO.C,*%
X53975000Y-127000000D03*
%TD*%
%TO.C,*%
X97155000Y-149860000D03*
%TD*%
%TO.C,*%
X120777000Y-126974600D03*
%TD*%
%TO.C,*%
X120777000Y-132054600D03*
%TD*%
%TO.C,*%
X79363068Y-137147094D03*
%TD*%
M02*
