%TF.GenerationSoftware,KiCad,Pcbnew,(5.1.10)-1*%
%TF.CreationDate,2024-03-27T07:56:36+01:00*%
%TF.ProjectId,KIM,4b494d2e-6b69-4636-9164-5f7063625858,rev?*%
%TF.SameCoordinates,Original*%
%TF.FileFunction,Other,User*%
%FSLAX46Y46*%
G04 Gerber Fmt 4.6, Leading zero omitted, Abs format (unit mm)*
G04 Created by KiCad (PCBNEW (5.1.10)-1) date 2024-03-27 07:56:36*
%MOMM*%
%LPD*%
G01*
G04 APERTURE LIST*
%ADD10C,0.050000*%
G04 APERTURE END LIST*
D10*
%TO.C,J4*%
X100598000Y-125782000D02*
X100598000Y-143732000D01*
X100598000Y-143732000D02*
X132498000Y-143732000D01*
X132498000Y-143732000D02*
X132498000Y-125782000D01*
X132498000Y-125782000D02*
X100598000Y-125782000D01*
%TO.C,J3*%
X164174000Y-126290000D02*
X164174000Y-144390000D01*
X164174000Y-144390000D02*
X196074000Y-144390000D01*
X196074000Y-144390000D02*
X196074000Y-126290000D01*
X196074000Y-126290000D02*
X164174000Y-126290000D01*
%TO.C,J2*%
X131896000Y-126120000D02*
X131896000Y-142170000D01*
X131896000Y-142170000D02*
X163796000Y-142170000D01*
X163796000Y-142170000D02*
X163796000Y-126120000D01*
X163796000Y-126120000D02*
X131896000Y-126120000D01*
%TO.C,RN2*%
X102694000Y-115952000D02*
X102694000Y-119252000D01*
X102694000Y-119252000D02*
X123894000Y-119252000D01*
X123894000Y-119252000D02*
X123894000Y-115952000D01*
X123894000Y-115952000D02*
X102694000Y-115952000D01*
%TO.C,J1*%
X106912000Y-39094000D02*
X106912000Y-45244000D01*
X106912000Y-45244000D02*
X110512000Y-45244000D01*
X110512000Y-45244000D02*
X110512000Y-39094000D01*
X110512000Y-39094000D02*
X106912000Y-39094000D01*
%TO.C,C5*%
X109044000Y-107442000D02*
G75*
G03*
X109044000Y-107442000I-3400000J0D01*
G01*
%TO.C,C4*%
X122422000Y-29738000D02*
X117822000Y-29738000D01*
X122422000Y-32238000D02*
X122422000Y-29738000D01*
X117822000Y-32238000D02*
X122422000Y-32238000D01*
X117822000Y-29738000D02*
X117822000Y-32238000D01*
%TO.C,C3*%
X201710000Y-84348000D02*
X197110000Y-84348000D01*
X201710000Y-86848000D02*
X201710000Y-84348000D01*
X197110000Y-86848000D02*
X201710000Y-86848000D01*
X197110000Y-84348000D02*
X197110000Y-86848000D01*
%TO.C,C2*%
X110764000Y-102622000D02*
X110764000Y-107222000D01*
X113264000Y-102622000D02*
X110764000Y-102622000D01*
X113264000Y-107222000D02*
X113264000Y-102622000D01*
X110764000Y-107222000D02*
X113264000Y-107222000D01*
%TO.C,C1*%
X200908000Y-38374000D02*
X196308000Y-38374000D01*
X200908000Y-40874000D02*
X200908000Y-38374000D01*
X196308000Y-40874000D02*
X200908000Y-40874000D01*
X196308000Y-38374000D02*
X196308000Y-40874000D01*
%TO.C,C6*%
X178048000Y-123668000D02*
X173448000Y-123668000D01*
X178048000Y-126268000D02*
X178048000Y-123668000D01*
X173448000Y-126268000D02*
X178048000Y-126268000D01*
X173448000Y-123668000D02*
X173448000Y-126268000D01*
%TO.C,C7*%
X168368000Y-123668000D02*
X168368000Y-126268000D01*
X168368000Y-126268000D02*
X172968000Y-126268000D01*
X172968000Y-126268000D02*
X172968000Y-123668000D01*
X172968000Y-123668000D02*
X168368000Y-123668000D01*
%TO.C,C8*%
X183890000Y-123668000D02*
X179290000Y-123668000D01*
X183890000Y-126268000D02*
X183890000Y-123668000D01*
X179290000Y-126268000D02*
X183890000Y-126268000D01*
X179290000Y-123668000D02*
X179290000Y-126268000D01*
%TO.C,C9*%
X165324000Y-104682000D02*
X167924000Y-104682000D01*
X167924000Y-104682000D02*
X167924000Y-100082000D01*
X167924000Y-100082000D02*
X165324000Y-100082000D01*
X165324000Y-100082000D02*
X165324000Y-104682000D01*
%TO.C,C10*%
X182366000Y-107920000D02*
X177766000Y-107920000D01*
X182366000Y-110520000D02*
X182366000Y-107920000D01*
X177766000Y-110520000D02*
X182366000Y-110520000D01*
X177766000Y-107920000D02*
X177766000Y-110520000D01*
%TO.C,C11*%
X184116000Y-123668000D02*
X184116000Y-126268000D01*
X184116000Y-126268000D02*
X188716000Y-126268000D01*
X188716000Y-126268000D02*
X188716000Y-123668000D01*
X188716000Y-123668000D02*
X184116000Y-123668000D01*
%TO.C,C12*%
X175988000Y-101316000D02*
X175988000Y-103916000D01*
X175988000Y-103916000D02*
X180588000Y-103916000D01*
X180588000Y-103916000D02*
X180588000Y-101316000D01*
X180588000Y-101316000D02*
X175988000Y-101316000D01*
%TO.C,C13*%
X167924000Y-119374000D02*
X167924000Y-114774000D01*
X165324000Y-119374000D02*
X167924000Y-119374000D01*
X165324000Y-114774000D02*
X165324000Y-119374000D01*
X167924000Y-114774000D02*
X165324000Y-114774000D01*
%TO.C,C14*%
X189200000Y-112556000D02*
X191800000Y-112556000D01*
X191800000Y-112556000D02*
X191800000Y-107956000D01*
X191800000Y-107956000D02*
X189200000Y-107956000D01*
X189200000Y-107956000D02*
X189200000Y-112556000D01*
%TO.C,C15*%
X172968000Y-108174000D02*
X168368000Y-108174000D01*
X172968000Y-110774000D02*
X172968000Y-108174000D01*
X168368000Y-110774000D02*
X172968000Y-110774000D01*
X168368000Y-108174000D02*
X168368000Y-110774000D01*
%TO.C,D1*%
X94054000Y-40368000D02*
X94054000Y-44468000D01*
X94054000Y-44468000D02*
X107114000Y-44468000D01*
X107114000Y-44468000D02*
X107114000Y-40368000D01*
X107114000Y-40368000D02*
X94054000Y-40368000D01*
%TO.C,D2*%
X107114000Y-36304000D02*
X94054000Y-36304000D01*
X107114000Y-40404000D02*
X107114000Y-36304000D01*
X94054000Y-40404000D02*
X107114000Y-40404000D01*
X94054000Y-36304000D02*
X94054000Y-40404000D01*
%TO.C,IC1*%
X99288000Y-99290000D02*
X135388000Y-99290000D01*
X135388000Y-99290000D02*
X135388000Y-81090000D01*
X135388000Y-81090000D02*
X99288000Y-81090000D01*
X99288000Y-81090000D02*
X99288000Y-99290000D01*
%TO.C,IC2*%
X152374000Y-60682000D02*
X203724000Y-60682000D01*
X203724000Y-60682000D02*
X203724000Y-42482000D01*
X203724000Y-42482000D02*
X152374000Y-42482000D01*
X152374000Y-42482000D02*
X152374000Y-60682000D01*
%TO.C,R1*%
X94454000Y-44474000D02*
X94454000Y-47474000D01*
X94454000Y-47474000D02*
X106714000Y-47474000D01*
X106714000Y-47474000D02*
X106714000Y-44474000D01*
X106714000Y-44474000D02*
X94454000Y-44474000D01*
%TO.C,RN1*%
X97360000Y-61850000D02*
X97360000Y-65150000D01*
X97360000Y-65150000D02*
X118560000Y-65150000D01*
X118560000Y-65150000D02*
X118560000Y-61850000D01*
X118560000Y-61850000D02*
X97360000Y-61850000D01*
%TO.C,U1*%
X101066000Y-60378000D02*
X119416000Y-60378000D01*
X119416000Y-60378000D02*
X119416000Y-49828000D01*
X119416000Y-49828000D02*
X101066000Y-49828000D01*
X101066000Y-49828000D02*
X101066000Y-60378000D01*
%TO.C,U2*%
X120370000Y-63290000D02*
X120370000Y-73840000D01*
X138720000Y-63290000D02*
X120370000Y-63290000D01*
X138720000Y-73840000D02*
X138720000Y-63290000D01*
X120370000Y-73840000D02*
X138720000Y-73840000D01*
%TO.C,U3*%
X120370000Y-59870000D02*
X138720000Y-59870000D01*
X138720000Y-59870000D02*
X138720000Y-49320000D01*
X138720000Y-49320000D02*
X120370000Y-49320000D01*
X120370000Y-49320000D02*
X120370000Y-59870000D01*
%TO.C,U4*%
X152374000Y-63818000D02*
X152374000Y-82018000D01*
X203724000Y-63818000D02*
X152374000Y-63818000D01*
X203724000Y-82018000D02*
X203724000Y-63818000D01*
X152374000Y-82018000D02*
X203724000Y-82018000D01*
%TO.C,U5*%
X118084000Y-46408000D02*
X144034000Y-46408000D01*
X144034000Y-46408000D02*
X144034000Y-35858000D01*
X144034000Y-35858000D02*
X118084000Y-35858000D01*
X118084000Y-35858000D02*
X118084000Y-46408000D01*
%TO.C,U6*%
X167868000Y-122354000D02*
X188718000Y-122354000D01*
X188718000Y-122354000D02*
X188718000Y-111804000D01*
X188718000Y-111804000D02*
X167868000Y-111804000D01*
X167868000Y-111804000D02*
X167868000Y-122354000D01*
%TO.C,U7*%
X167868000Y-96564000D02*
X167868000Y-107114000D01*
X188718000Y-96564000D02*
X167868000Y-96564000D01*
X188718000Y-107114000D02*
X188718000Y-96564000D01*
X167868000Y-107114000D02*
X188718000Y-107114000D01*
%TD*%
M02*
