%TF.GenerationSoftware,KiCad,Pcbnew,(5.1.10)-1*%
%TF.CreationDate,2024-03-27T07:56:36+01:00*%
%TF.ProjectId,KIM,4b494d2e-6b69-4636-9164-5f7063625858,rev?*%
%TF.SameCoordinates,Original*%
%TF.FileFunction,Other,Fab,Top*%
%FSLAX46Y46*%
G04 Gerber Fmt 4.6, Leading zero omitted, Abs format (unit mm)*
G04 Created by KiCad (PCBNEW (5.1.10)-1) date 2024-03-27 07:56:36*
%MOMM*%
%LPD*%
G01*
G04 APERTURE LIST*
%ADD10C,0.100000*%
%ADD11C,0.150000*%
%ADD12C,0.090000*%
%ADD13C,0.102000*%
G04 APERTURE END LIST*
D10*
%TO.C,J4*%
X130638000Y-129332000D02*
G75*
G03*
X127438000Y-129332000I-1600000J0D01*
G01*
X105638000Y-129332000D02*
G75*
G03*
X102438000Y-129332000I-1600000J0D01*
G01*
X101113000Y-126332000D02*
X101113000Y-136812000D01*
X101113000Y-136812000D02*
X131963000Y-136812000D01*
X131963000Y-136812000D02*
X131963000Y-126332000D01*
X131963000Y-126332000D02*
X101113000Y-126332000D01*
X101113000Y-136812000D02*
X101113000Y-137212000D01*
X101113000Y-137212000D02*
X131963000Y-137212000D01*
X131963000Y-137212000D02*
X131963000Y-136812000D01*
X131963000Y-136812000D02*
X101113000Y-136812000D01*
X108388000Y-137212000D02*
X108388000Y-143212000D01*
X108388000Y-143212000D02*
X124688000Y-143212000D01*
X124688000Y-143212000D02*
X124688000Y-137212000D01*
X124688000Y-137212000D02*
X108388000Y-137212000D01*
X101538000Y-137212000D02*
X101538000Y-142212000D01*
X101538000Y-142212000D02*
X106538000Y-142212000D01*
X106538000Y-142212000D02*
X106538000Y-137212000D01*
X106538000Y-137212000D02*
X101538000Y-137212000D01*
X126538000Y-137212000D02*
X126538000Y-142212000D01*
X126538000Y-142212000D02*
X131538000Y-142212000D01*
X131538000Y-142212000D02*
X131538000Y-137212000D01*
X131538000Y-137212000D02*
X126538000Y-137212000D01*
X102438000Y-136812000D02*
X102438000Y-129332000D01*
X105638000Y-136812000D02*
X105638000Y-129332000D01*
X127438000Y-136812000D02*
X127438000Y-129332000D01*
X130638000Y-136812000D02*
X130638000Y-129332000D01*
%TO.C,J3*%
X194234000Y-129840000D02*
G75*
G03*
X191034000Y-129840000I-1600000J0D01*
G01*
X169234000Y-129840000D02*
G75*
G03*
X166034000Y-129840000I-1600000J0D01*
G01*
X164709000Y-126840000D02*
X164709000Y-137320000D01*
X164709000Y-137320000D02*
X195559000Y-137320000D01*
X195559000Y-137320000D02*
X195559000Y-126840000D01*
X195559000Y-126840000D02*
X164709000Y-126840000D01*
X164709000Y-137320000D02*
X164709000Y-137720000D01*
X164709000Y-137720000D02*
X195559000Y-137720000D01*
X195559000Y-137720000D02*
X195559000Y-137320000D01*
X195559000Y-137320000D02*
X164709000Y-137320000D01*
X171984000Y-137720000D02*
X171984000Y-143890000D01*
X171984000Y-143890000D02*
X188284000Y-143890000D01*
X188284000Y-143890000D02*
X188284000Y-137720000D01*
X188284000Y-137720000D02*
X171984000Y-137720000D01*
X165134000Y-137720000D02*
X165134000Y-142720000D01*
X165134000Y-142720000D02*
X170134000Y-142720000D01*
X170134000Y-142720000D02*
X170134000Y-137720000D01*
X170134000Y-137720000D02*
X165134000Y-137720000D01*
X190134000Y-137720000D02*
X190134000Y-142720000D01*
X190134000Y-142720000D02*
X195134000Y-142720000D01*
X195134000Y-142720000D02*
X195134000Y-137720000D01*
X195134000Y-137720000D02*
X190134000Y-137720000D01*
X166034000Y-137320000D02*
X166034000Y-129840000D01*
X169234000Y-137320000D02*
X169234000Y-129840000D01*
X191034000Y-137320000D02*
X191034000Y-129840000D01*
X194234000Y-137320000D02*
X194234000Y-129840000D01*
%TO.C,J2*%
X161931000Y-130320000D02*
G75*
G03*
X158731000Y-130320000I-1600000J0D01*
G01*
X136931000Y-130320000D02*
G75*
G03*
X133731000Y-130320000I-1600000J0D01*
G01*
X132406000Y-126660000D02*
X132406000Y-135260000D01*
X132406000Y-135260000D02*
X163256000Y-135260000D01*
X163256000Y-135260000D02*
X163256000Y-126660000D01*
X163256000Y-126660000D02*
X132406000Y-126660000D01*
X132406000Y-135260000D02*
X132406000Y-135660000D01*
X132406000Y-135660000D02*
X163256000Y-135660000D01*
X163256000Y-135660000D02*
X163256000Y-135260000D01*
X163256000Y-135260000D02*
X132406000Y-135260000D01*
X139681000Y-135660000D02*
X139681000Y-141660000D01*
X139681000Y-141660000D02*
X155981000Y-141660000D01*
X155981000Y-141660000D02*
X155981000Y-135660000D01*
X155981000Y-135660000D02*
X139681000Y-135660000D01*
X132831000Y-135660000D02*
X132831000Y-140660000D01*
X132831000Y-140660000D02*
X137831000Y-140660000D01*
X137831000Y-140660000D02*
X137831000Y-135660000D01*
X137831000Y-135660000D02*
X132831000Y-135660000D01*
X157831000Y-135660000D02*
X157831000Y-140660000D01*
X157831000Y-140660000D02*
X162831000Y-140660000D01*
X162831000Y-140660000D02*
X162831000Y-135660000D01*
X162831000Y-135660000D02*
X157831000Y-135660000D01*
X133731000Y-135260000D02*
X133731000Y-130320000D01*
X136931000Y-135260000D02*
X136931000Y-130320000D01*
X158731000Y-135260000D02*
X158731000Y-130320000D01*
X161931000Y-135260000D02*
X161931000Y-130320000D01*
%TO.C,RN2*%
X103104000Y-116352000D02*
X103104000Y-118852000D01*
X103104000Y-118852000D02*
X123464000Y-118852000D01*
X123464000Y-118852000D02*
X123464000Y-116352000D01*
X123464000Y-116352000D02*
X103104000Y-116352000D01*
X105664000Y-116352000D02*
X105664000Y-118852000D01*
%TO.C,J1*%
X108077000Y-39624000D02*
X109982000Y-39624000D01*
X109982000Y-39624000D02*
X109982000Y-44704000D01*
X109982000Y-44704000D02*
X107442000Y-44704000D01*
X107442000Y-44704000D02*
X107442000Y-40259000D01*
X107442000Y-40259000D02*
X108077000Y-39624000D01*
%TO.C,C5*%
X103265028Y-105753500D02*
X103265028Y-106383500D01*
X102950028Y-106068500D02*
X103580028Y-106068500D01*
X108794000Y-107442000D02*
G75*
G03*
X108794000Y-107442000I-3150000J0D01*
G01*
%TO.C,C4*%
X121622000Y-29988000D02*
X118622000Y-29988000D01*
X121622000Y-31988000D02*
X121622000Y-29988000D01*
X118622000Y-31988000D02*
X121622000Y-31988000D01*
X118622000Y-29988000D02*
X118622000Y-31988000D01*
%TO.C,C3*%
X200910000Y-84598000D02*
X197910000Y-84598000D01*
X200910000Y-86598000D02*
X200910000Y-84598000D01*
X197910000Y-86598000D02*
X200910000Y-86598000D01*
X197910000Y-84598000D02*
X197910000Y-86598000D01*
%TO.C,C2*%
X111014000Y-103422000D02*
X111014000Y-106422000D01*
X113014000Y-103422000D02*
X111014000Y-103422000D01*
X113014000Y-106422000D02*
X113014000Y-103422000D01*
X111014000Y-106422000D02*
X113014000Y-106422000D01*
%TO.C,C1*%
X200108000Y-38624000D02*
X197108000Y-38624000D01*
X200108000Y-40624000D02*
X200108000Y-38624000D01*
X197108000Y-40624000D02*
X200108000Y-40624000D01*
X197108000Y-38624000D02*
X197108000Y-40624000D01*
%TO.C,C6*%
X177448000Y-123918000D02*
X174048000Y-123918000D01*
X177448000Y-126018000D02*
X177448000Y-123918000D01*
X174048000Y-126018000D02*
X177448000Y-126018000D01*
X174048000Y-123918000D02*
X174048000Y-126018000D01*
%TO.C,C7*%
X168968000Y-123918000D02*
X168968000Y-126018000D01*
X168968000Y-126018000D02*
X172368000Y-126018000D01*
X172368000Y-126018000D02*
X172368000Y-123918000D01*
X172368000Y-123918000D02*
X168968000Y-123918000D01*
%TO.C,C8*%
X183290000Y-123918000D02*
X179890000Y-123918000D01*
X183290000Y-126018000D02*
X183290000Y-123918000D01*
X179890000Y-126018000D02*
X183290000Y-126018000D01*
X179890000Y-123918000D02*
X179890000Y-126018000D01*
%TO.C,C9*%
X165574000Y-104082000D02*
X167674000Y-104082000D01*
X167674000Y-104082000D02*
X167674000Y-100682000D01*
X167674000Y-100682000D02*
X165574000Y-100682000D01*
X165574000Y-100682000D02*
X165574000Y-104082000D01*
%TO.C,C10*%
X181766000Y-108170000D02*
X178366000Y-108170000D01*
X181766000Y-110270000D02*
X181766000Y-108170000D01*
X178366000Y-110270000D02*
X181766000Y-110270000D01*
X178366000Y-108170000D02*
X178366000Y-110270000D01*
%TO.C,C11*%
X184716000Y-123918000D02*
X184716000Y-126018000D01*
X184716000Y-126018000D02*
X188116000Y-126018000D01*
X188116000Y-126018000D02*
X188116000Y-123918000D01*
X188116000Y-123918000D02*
X184716000Y-123918000D01*
%TO.C,C12*%
X176588000Y-101566000D02*
X176588000Y-103666000D01*
X176588000Y-103666000D02*
X179988000Y-103666000D01*
X179988000Y-103666000D02*
X179988000Y-101566000D01*
X179988000Y-101566000D02*
X176588000Y-101566000D01*
%TO.C,C13*%
X167674000Y-118774000D02*
X167674000Y-115374000D01*
X165574000Y-118774000D02*
X167674000Y-118774000D01*
X165574000Y-115374000D02*
X165574000Y-118774000D01*
X167674000Y-115374000D02*
X165574000Y-115374000D01*
%TO.C,C14*%
X189450000Y-111956000D02*
X191550000Y-111956000D01*
X191550000Y-111956000D02*
X191550000Y-108556000D01*
X191550000Y-108556000D02*
X189450000Y-108556000D01*
X189450000Y-108556000D02*
X189450000Y-111956000D01*
%TO.C,C15*%
X172368000Y-108424000D02*
X168968000Y-108424000D01*
X172368000Y-110524000D02*
X172368000Y-108424000D01*
X168968000Y-110524000D02*
X172368000Y-110524000D01*
X168968000Y-108424000D02*
X168968000Y-110524000D01*
%TO.C,D1*%
X96784000Y-40618000D02*
X96784000Y-44218000D01*
X96784000Y-44218000D02*
X104384000Y-44218000D01*
X104384000Y-44218000D02*
X104384000Y-40618000D01*
X104384000Y-40618000D02*
X96784000Y-40618000D01*
X95504000Y-42418000D02*
X96784000Y-42418000D01*
X105664000Y-42418000D02*
X104384000Y-42418000D01*
X97924000Y-40618000D02*
X97924000Y-44218000D01*
X98024000Y-40618000D02*
X98024000Y-44218000D01*
X97824000Y-40618000D02*
X97824000Y-44218000D01*
%TO.C,D2*%
X97824000Y-36554000D02*
X97824000Y-40154000D01*
X98024000Y-36554000D02*
X98024000Y-40154000D01*
X97924000Y-36554000D02*
X97924000Y-40154000D01*
X105664000Y-38354000D02*
X104384000Y-38354000D01*
X95504000Y-38354000D02*
X96784000Y-38354000D01*
X104384000Y-36554000D02*
X96784000Y-36554000D01*
X104384000Y-40154000D02*
X104384000Y-36554000D01*
X96784000Y-40154000D02*
X104384000Y-40154000D01*
X96784000Y-36554000D02*
X96784000Y-40154000D01*
%TO.C,IC1*%
X99568000Y-96535000D02*
X99568000Y-82805000D01*
X99568000Y-82805000D02*
X135128000Y-82805000D01*
X135128000Y-82805000D02*
X135128000Y-97535000D01*
X135128000Y-97535000D02*
X100568000Y-97535000D01*
X100568000Y-97535000D02*
X99568000Y-96535000D01*
%TO.C,IC2*%
X152654000Y-57927000D02*
X152654000Y-44197000D01*
X152654000Y-44197000D02*
X203454000Y-44197000D01*
X203454000Y-44197000D02*
X203454000Y-58927000D01*
X203454000Y-58927000D02*
X153654000Y-58927000D01*
X153654000Y-58927000D02*
X152654000Y-57927000D01*
%TO.C,R1*%
X97434000Y-44724000D02*
X97434000Y-47224000D01*
X97434000Y-47224000D02*
X103734000Y-47224000D01*
X103734000Y-47224000D02*
X103734000Y-44724000D01*
X103734000Y-44724000D02*
X97434000Y-44724000D01*
X95504000Y-45974000D02*
X97434000Y-45974000D01*
X105664000Y-45974000D02*
X103734000Y-45974000D01*
%TO.C,RN1*%
X97770000Y-62250000D02*
X97770000Y-64750000D01*
X97770000Y-64750000D02*
X118130000Y-64750000D01*
X118130000Y-64750000D02*
X118130000Y-62250000D01*
X118130000Y-62250000D02*
X97770000Y-62250000D01*
X100330000Y-62250000D02*
X100330000Y-64750000D01*
%TO.C,U1*%
X101346000Y-57293000D02*
X101346000Y-51943000D01*
X101346000Y-51943000D02*
X119126000Y-51943000D01*
X119126000Y-51943000D02*
X119126000Y-58293000D01*
X119126000Y-58293000D02*
X102346000Y-58293000D01*
X102346000Y-58293000D02*
X101346000Y-57293000D01*
%TO.C,U2*%
X121650000Y-71755000D02*
X120650000Y-70755000D01*
X138430000Y-71755000D02*
X121650000Y-71755000D01*
X138430000Y-65405000D02*
X138430000Y-71755000D01*
X120650000Y-65405000D02*
X138430000Y-65405000D01*
X120650000Y-70755000D02*
X120650000Y-65405000D01*
%TO.C,U3*%
X120650000Y-56785000D02*
X120650000Y-51435000D01*
X120650000Y-51435000D02*
X138430000Y-51435000D01*
X138430000Y-51435000D02*
X138430000Y-57785000D01*
X138430000Y-57785000D02*
X121650000Y-57785000D01*
X121650000Y-57785000D02*
X120650000Y-56785000D01*
%TO.C,U4*%
X153654000Y-80263000D02*
X152654000Y-79263000D01*
X203454000Y-80263000D02*
X153654000Y-80263000D01*
X203454000Y-65533000D02*
X203454000Y-80263000D01*
X152654000Y-65533000D02*
X203454000Y-65533000D01*
X152654000Y-79263000D02*
X152654000Y-65533000D01*
%TO.C,U5*%
X118364000Y-43323000D02*
X118364000Y-37973000D01*
X118364000Y-37973000D02*
X143764000Y-37973000D01*
X143764000Y-37973000D02*
X143764000Y-44323000D01*
X143764000Y-44323000D02*
X119364000Y-44323000D01*
X119364000Y-44323000D02*
X118364000Y-43323000D01*
%TO.C,U6*%
X168148000Y-119269000D02*
X168148000Y-113919000D01*
X168148000Y-113919000D02*
X188468000Y-113919000D01*
X188468000Y-113919000D02*
X188468000Y-120269000D01*
X188468000Y-120269000D02*
X169148000Y-120269000D01*
X169148000Y-120269000D02*
X168148000Y-119269000D01*
%TO.C,U7*%
X169148000Y-105029000D02*
X168148000Y-104029000D01*
X188468000Y-105029000D02*
X169148000Y-105029000D01*
X188468000Y-98679000D02*
X188468000Y-105029000D01*
X168148000Y-98679000D02*
X188468000Y-98679000D01*
X168148000Y-104029000D02*
X168148000Y-98679000D01*
%TD*%
%TO.C,J4*%
D11*
X115847523Y-144164380D02*
X115847523Y-144878666D01*
X115799904Y-145021523D01*
X115704666Y-145116761D01*
X115561809Y-145164380D01*
X115466571Y-145164380D01*
X116466571Y-145164380D02*
X116371333Y-145116761D01*
X116323714Y-145069142D01*
X116276095Y-144973904D01*
X116276095Y-144688190D01*
X116323714Y-144592952D01*
X116371333Y-144545333D01*
X116466571Y-144497714D01*
X116609428Y-144497714D01*
X116704666Y-144545333D01*
X116752285Y-144592952D01*
X116799904Y-144688190D01*
X116799904Y-144973904D01*
X116752285Y-145069142D01*
X116704666Y-145116761D01*
X116609428Y-145164380D01*
X116466571Y-145164380D01*
X117133238Y-144497714D02*
X117371333Y-145164380D01*
X117609428Y-144497714D02*
X117371333Y-145164380D01*
X117276095Y-145402476D01*
X117228476Y-145450095D01*
X117133238Y-145497714D01*
X116204666Y-139664380D02*
X116204666Y-140378666D01*
X116157047Y-140521523D01*
X116061809Y-140616761D01*
X115918952Y-140664380D01*
X115823714Y-140664380D01*
X117109428Y-139997714D02*
X117109428Y-140664380D01*
X116871333Y-139616761D02*
X116633238Y-140331047D01*
X117252285Y-140331047D01*
%TO.C,J3*%
X176943523Y-145842380D02*
X176943523Y-144842380D01*
X177181619Y-144842380D01*
X177324476Y-144890000D01*
X177419714Y-144985238D01*
X177467333Y-145080476D01*
X177514952Y-145270952D01*
X177514952Y-145413809D01*
X177467333Y-145604285D01*
X177419714Y-145699523D01*
X177324476Y-145794761D01*
X177181619Y-145842380D01*
X176943523Y-145842380D01*
X178372095Y-145175714D02*
X178372095Y-145842380D01*
X177943523Y-145175714D02*
X177943523Y-145699523D01*
X177991142Y-145794761D01*
X178086380Y-145842380D01*
X178229238Y-145842380D01*
X178324476Y-145794761D01*
X178372095Y-145747142D01*
X179276857Y-145842380D02*
X179276857Y-145318571D01*
X179229238Y-145223333D01*
X179134000Y-145175714D01*
X178943523Y-145175714D01*
X178848285Y-145223333D01*
X179276857Y-145794761D02*
X179181619Y-145842380D01*
X178943523Y-145842380D01*
X178848285Y-145794761D01*
X178800666Y-145699523D01*
X178800666Y-145604285D01*
X178848285Y-145509047D01*
X178943523Y-145461428D01*
X179181619Y-145461428D01*
X179276857Y-145413809D01*
X179895904Y-145842380D02*
X179800666Y-145794761D01*
X179753047Y-145699523D01*
X179753047Y-144842380D01*
X180038761Y-145937619D02*
X180800666Y-145937619D01*
X180895904Y-144842380D02*
X181229238Y-145842380D01*
X181562571Y-144842380D01*
X181848285Y-144937619D02*
X181895904Y-144890000D01*
X181991142Y-144842380D01*
X182229238Y-144842380D01*
X182324476Y-144890000D01*
X182372095Y-144937619D01*
X182419714Y-145032857D01*
X182419714Y-145128095D01*
X182372095Y-145270952D01*
X181800666Y-145842380D01*
X182419714Y-145842380D01*
X183276857Y-145175714D02*
X183276857Y-145842380D01*
X183038761Y-144794761D02*
X182800666Y-145509047D01*
X183419714Y-145509047D01*
X179800666Y-140257380D02*
X179800666Y-140971666D01*
X179753047Y-141114523D01*
X179657809Y-141209761D01*
X179514952Y-141257380D01*
X179419714Y-141257380D01*
X180181619Y-140257380D02*
X180800666Y-140257380D01*
X180467333Y-140638333D01*
X180610190Y-140638333D01*
X180705428Y-140685952D01*
X180753047Y-140733571D01*
X180800666Y-140828809D01*
X180800666Y-141066904D01*
X180753047Y-141162142D01*
X180705428Y-141209761D01*
X180610190Y-141257380D01*
X180324476Y-141257380D01*
X180229238Y-141209761D01*
X180181619Y-141162142D01*
%TO.C,J2*%
X147259571Y-143612380D02*
X146783380Y-143612380D01*
X146783380Y-142612380D01*
X147592904Y-143612380D02*
X147592904Y-142612380D01*
X147973857Y-142612380D01*
X148069095Y-142660000D01*
X148116714Y-142707619D01*
X148164333Y-142802857D01*
X148164333Y-142945714D01*
X148116714Y-143040952D01*
X148069095Y-143088571D01*
X147973857Y-143136190D01*
X147592904Y-143136190D01*
X148450047Y-142612380D02*
X149021476Y-142612380D01*
X148735761Y-143612380D02*
X148735761Y-142612380D01*
X147497666Y-138112380D02*
X147497666Y-138826666D01*
X147450047Y-138969523D01*
X147354809Y-139064761D01*
X147211952Y-139112380D01*
X147116714Y-139112380D01*
X147926238Y-138207619D02*
X147973857Y-138160000D01*
X148069095Y-138112380D01*
X148307190Y-138112380D01*
X148402428Y-138160000D01*
X148450047Y-138207619D01*
X148497666Y-138302857D01*
X148497666Y-138398095D01*
X148450047Y-138540952D01*
X147878619Y-139112380D01*
X148497666Y-139112380D01*
%TO.C,RN2*%
X113244476Y-119454380D02*
X113863523Y-119454380D01*
X113530190Y-119835333D01*
X113673047Y-119835333D01*
X113768285Y-119882952D01*
X113815904Y-119930571D01*
X113863523Y-120025809D01*
X113863523Y-120263904D01*
X113815904Y-120359142D01*
X113768285Y-120406761D01*
X113673047Y-120454380D01*
X113387333Y-120454380D01*
X113292095Y-120406761D01*
X113244476Y-120359142D01*
X114292095Y-120454380D02*
X114292095Y-119454380D01*
X114863523Y-120454380D02*
X114434952Y-119882952D01*
X114863523Y-119454380D02*
X114292095Y-120025809D01*
X115339714Y-120454380D02*
X115530190Y-120454380D01*
X115625428Y-120406761D01*
X115673047Y-120359142D01*
X115768285Y-120216285D01*
X115815904Y-120025809D01*
X115815904Y-119644857D01*
X115768285Y-119549619D01*
X115720666Y-119502000D01*
X115625428Y-119454380D01*
X115434952Y-119454380D01*
X115339714Y-119502000D01*
X115292095Y-119549619D01*
X115244476Y-119644857D01*
X115244476Y-119882952D01*
X115292095Y-119978190D01*
X115339714Y-120025809D01*
X115434952Y-120073428D01*
X115625428Y-120073428D01*
X115720666Y-120025809D01*
X115768285Y-119978190D01*
X115815904Y-119882952D01*
X112593523Y-118054380D02*
X112260190Y-117578190D01*
X112022095Y-118054380D02*
X112022095Y-117054380D01*
X112403047Y-117054380D01*
X112498285Y-117102000D01*
X112545904Y-117149619D01*
X112593523Y-117244857D01*
X112593523Y-117387714D01*
X112545904Y-117482952D01*
X112498285Y-117530571D01*
X112403047Y-117578190D01*
X112022095Y-117578190D01*
X113022095Y-118054380D02*
X113022095Y-117054380D01*
X113593523Y-118054380D01*
X113593523Y-117054380D01*
X114022095Y-117149619D02*
X114069714Y-117102000D01*
X114164952Y-117054380D01*
X114403047Y-117054380D01*
X114498285Y-117102000D01*
X114545904Y-117149619D01*
X114593523Y-117244857D01*
X114593523Y-117340095D01*
X114545904Y-117482952D01*
X113974476Y-118054380D01*
X114593523Y-118054380D01*
%TO.C,J1*%
X104973904Y-46121142D02*
X104926285Y-46168761D01*
X104783428Y-46216380D01*
X104688190Y-46216380D01*
X104545333Y-46168761D01*
X104450095Y-46073523D01*
X104402476Y-45978285D01*
X104354857Y-45787809D01*
X104354857Y-45644952D01*
X104402476Y-45454476D01*
X104450095Y-45359238D01*
X104545333Y-45264000D01*
X104688190Y-45216380D01*
X104783428Y-45216380D01*
X104926285Y-45264000D01*
X104973904Y-45311619D01*
X105545333Y-46216380D02*
X105450095Y-46168761D01*
X105402476Y-46121142D01*
X105354857Y-46025904D01*
X105354857Y-45740190D01*
X105402476Y-45644952D01*
X105450095Y-45597333D01*
X105545333Y-45549714D01*
X105688190Y-45549714D01*
X105783428Y-45597333D01*
X105831047Y-45644952D01*
X105878666Y-45740190D01*
X105878666Y-46025904D01*
X105831047Y-46121142D01*
X105783428Y-46168761D01*
X105688190Y-46216380D01*
X105545333Y-46216380D01*
X106307238Y-45549714D02*
X106307238Y-46216380D01*
X106307238Y-45644952D02*
X106354857Y-45597333D01*
X106450095Y-45549714D01*
X106592952Y-45549714D01*
X106688190Y-45597333D01*
X106735809Y-45692571D01*
X106735809Y-46216380D01*
X107212000Y-45549714D02*
X107212000Y-46216380D01*
X107212000Y-45644952D02*
X107259619Y-45597333D01*
X107354857Y-45549714D01*
X107497714Y-45549714D01*
X107592952Y-45597333D01*
X107640571Y-45692571D01*
X107640571Y-46216380D01*
X107878666Y-46311619D02*
X108640571Y-46311619D01*
X109069142Y-45216380D02*
X109164380Y-45216380D01*
X109259619Y-45264000D01*
X109307238Y-45311619D01*
X109354857Y-45406857D01*
X109402476Y-45597333D01*
X109402476Y-45835428D01*
X109354857Y-46025904D01*
X109307238Y-46121142D01*
X109259619Y-46168761D01*
X109164380Y-46216380D01*
X109069142Y-46216380D01*
X108973904Y-46168761D01*
X108926285Y-46121142D01*
X108878666Y-46025904D01*
X108831047Y-45835428D01*
X108831047Y-45597333D01*
X108878666Y-45406857D01*
X108926285Y-45311619D01*
X108973904Y-45264000D01*
X109069142Y-45216380D01*
X110354857Y-46216380D02*
X109783428Y-46216380D01*
X110069142Y-46216380D02*
X110069142Y-45216380D01*
X109973904Y-45359238D01*
X109878666Y-45454476D01*
X109783428Y-45502095D01*
X110688190Y-46216380D02*
X111212000Y-45549714D01*
X110688190Y-45549714D02*
X111212000Y-46216380D01*
X111783428Y-45216380D02*
X111878666Y-45216380D01*
X111973904Y-45264000D01*
X112021523Y-45311619D01*
X112069142Y-45406857D01*
X112116761Y-45597333D01*
X112116761Y-45835428D01*
X112069142Y-46025904D01*
X112021523Y-46121142D01*
X111973904Y-46168761D01*
X111878666Y-46216380D01*
X111783428Y-46216380D01*
X111688190Y-46168761D01*
X111640571Y-46121142D01*
X111592952Y-46025904D01*
X111545333Y-45835428D01*
X111545333Y-45597333D01*
X111592952Y-45406857D01*
X111640571Y-45311619D01*
X111688190Y-45264000D01*
X111783428Y-45216380D01*
X112497714Y-45311619D02*
X112545333Y-45264000D01*
X112640571Y-45216380D01*
X112878666Y-45216380D01*
X112973904Y-45264000D01*
X113021523Y-45311619D01*
X113069142Y-45406857D01*
X113069142Y-45502095D01*
X113021523Y-45644952D01*
X112450095Y-46216380D01*
X113069142Y-46216380D01*
X108164380Y-42497333D02*
X108878666Y-42497333D01*
X109021523Y-42544952D01*
X109116761Y-42640190D01*
X109164380Y-42783047D01*
X109164380Y-42878285D01*
X109164380Y-41497333D02*
X109164380Y-42068761D01*
X109164380Y-41783047D02*
X108164380Y-41783047D01*
X108307238Y-41878285D01*
X108402476Y-41973523D01*
X108450095Y-42068761D01*
%TO.C,C5*%
X104405904Y-111294380D02*
X103929714Y-111294380D01*
X103882095Y-111770571D01*
X103929714Y-111722952D01*
X104024952Y-111675333D01*
X104263047Y-111675333D01*
X104358285Y-111722952D01*
X104405904Y-111770571D01*
X104453523Y-111865809D01*
X104453523Y-112103904D01*
X104405904Y-112199142D01*
X104358285Y-112246761D01*
X104263047Y-112294380D01*
X104024952Y-112294380D01*
X103929714Y-112246761D01*
X103882095Y-112199142D01*
X105310666Y-111294380D02*
X105120190Y-111294380D01*
X105024952Y-111342000D01*
X104977333Y-111389619D01*
X104882095Y-111532476D01*
X104834476Y-111722952D01*
X104834476Y-112103904D01*
X104882095Y-112199142D01*
X104929714Y-112246761D01*
X105024952Y-112294380D01*
X105215428Y-112294380D01*
X105310666Y-112246761D01*
X105358285Y-112199142D01*
X105405904Y-112103904D01*
X105405904Y-111865809D01*
X105358285Y-111770571D01*
X105310666Y-111722952D01*
X105215428Y-111675333D01*
X105024952Y-111675333D01*
X104929714Y-111722952D01*
X104882095Y-111770571D01*
X104834476Y-111865809D01*
X106024952Y-111294380D02*
X106120190Y-111294380D01*
X106215428Y-111342000D01*
X106263047Y-111389619D01*
X106310666Y-111484857D01*
X106358285Y-111675333D01*
X106358285Y-111913428D01*
X106310666Y-112103904D01*
X106263047Y-112199142D01*
X106215428Y-112246761D01*
X106120190Y-112294380D01*
X106024952Y-112294380D01*
X105929714Y-112246761D01*
X105882095Y-112199142D01*
X105834476Y-112103904D01*
X105786857Y-111913428D01*
X105786857Y-111675333D01*
X105834476Y-111484857D01*
X105882095Y-111389619D01*
X105929714Y-111342000D01*
X106024952Y-111294380D01*
X106786857Y-111627714D02*
X106786857Y-112627714D01*
X107263047Y-112151523D02*
X107310666Y-112246761D01*
X107405904Y-112294380D01*
X106786857Y-112151523D02*
X106834476Y-112246761D01*
X106929714Y-112294380D01*
X107120190Y-112294380D01*
X107215428Y-112246761D01*
X107263047Y-112151523D01*
X107263047Y-111627714D01*
X105477333Y-107799142D02*
X105429714Y-107846761D01*
X105286857Y-107894380D01*
X105191619Y-107894380D01*
X105048761Y-107846761D01*
X104953523Y-107751523D01*
X104905904Y-107656285D01*
X104858285Y-107465809D01*
X104858285Y-107322952D01*
X104905904Y-107132476D01*
X104953523Y-107037238D01*
X105048761Y-106942000D01*
X105191619Y-106894380D01*
X105286857Y-106894380D01*
X105429714Y-106942000D01*
X105477333Y-106989619D01*
X106382095Y-106894380D02*
X105905904Y-106894380D01*
X105858285Y-107370571D01*
X105905904Y-107322952D01*
X106001142Y-107275333D01*
X106239238Y-107275333D01*
X106334476Y-107322952D01*
X106382095Y-107370571D01*
X106429714Y-107465809D01*
X106429714Y-107703904D01*
X106382095Y-107799142D01*
X106334476Y-107846761D01*
X106239238Y-107894380D01*
X106001142Y-107894380D01*
X105905904Y-107846761D01*
X105858285Y-107799142D01*
%TO.C,C4*%
X119002952Y-33690380D02*
X118431523Y-33690380D01*
X118717238Y-33690380D02*
X118717238Y-32690380D01*
X118622000Y-32833238D01*
X118526761Y-32928476D01*
X118431523Y-32976095D01*
X119622000Y-32690380D02*
X119717238Y-32690380D01*
X119812476Y-32738000D01*
X119860095Y-32785619D01*
X119907714Y-32880857D01*
X119955333Y-33071333D01*
X119955333Y-33309428D01*
X119907714Y-33499904D01*
X119860095Y-33595142D01*
X119812476Y-33642761D01*
X119717238Y-33690380D01*
X119622000Y-33690380D01*
X119526761Y-33642761D01*
X119479142Y-33595142D01*
X119431523Y-33499904D01*
X119383904Y-33309428D01*
X119383904Y-33071333D01*
X119431523Y-32880857D01*
X119479142Y-32785619D01*
X119526761Y-32738000D01*
X119622000Y-32690380D01*
X120574380Y-32690380D02*
X120669619Y-32690380D01*
X120764857Y-32738000D01*
X120812476Y-32785619D01*
X120860095Y-32880857D01*
X120907714Y-33071333D01*
X120907714Y-33309428D01*
X120860095Y-33499904D01*
X120812476Y-33595142D01*
X120764857Y-33642761D01*
X120669619Y-33690380D01*
X120574380Y-33690380D01*
X120479142Y-33642761D01*
X120431523Y-33595142D01*
X120383904Y-33499904D01*
X120336285Y-33309428D01*
X120336285Y-33071333D01*
X120383904Y-32880857D01*
X120431523Y-32785619D01*
X120479142Y-32738000D01*
X120574380Y-32690380D01*
X121336285Y-33023714D02*
X121336285Y-33690380D01*
X121336285Y-33118952D02*
X121383904Y-33071333D01*
X121479142Y-33023714D01*
X121622000Y-33023714D01*
X121717238Y-33071333D01*
X121764857Y-33166571D01*
X121764857Y-33690380D01*
D12*
X120022000Y-31202285D02*
X119993428Y-31230857D01*
X119907714Y-31259428D01*
X119850571Y-31259428D01*
X119764857Y-31230857D01*
X119707714Y-31173714D01*
X119679142Y-31116571D01*
X119650571Y-31002285D01*
X119650571Y-30916571D01*
X119679142Y-30802285D01*
X119707714Y-30745142D01*
X119764857Y-30688000D01*
X119850571Y-30659428D01*
X119907714Y-30659428D01*
X119993428Y-30688000D01*
X120022000Y-30716571D01*
X120536285Y-30859428D02*
X120536285Y-31259428D01*
X120393428Y-30630857D02*
X120250571Y-31059428D01*
X120622000Y-31059428D01*
%TO.C,C3*%
D11*
X198290952Y-88300380D02*
X197719523Y-88300380D01*
X198005238Y-88300380D02*
X198005238Y-87300380D01*
X197910000Y-87443238D01*
X197814761Y-87538476D01*
X197719523Y-87586095D01*
X198910000Y-87300380D02*
X199005238Y-87300380D01*
X199100476Y-87348000D01*
X199148095Y-87395619D01*
X199195714Y-87490857D01*
X199243333Y-87681333D01*
X199243333Y-87919428D01*
X199195714Y-88109904D01*
X199148095Y-88205142D01*
X199100476Y-88252761D01*
X199005238Y-88300380D01*
X198910000Y-88300380D01*
X198814761Y-88252761D01*
X198767142Y-88205142D01*
X198719523Y-88109904D01*
X198671904Y-87919428D01*
X198671904Y-87681333D01*
X198719523Y-87490857D01*
X198767142Y-87395619D01*
X198814761Y-87348000D01*
X198910000Y-87300380D01*
X199862380Y-87300380D02*
X199957619Y-87300380D01*
X200052857Y-87348000D01*
X200100476Y-87395619D01*
X200148095Y-87490857D01*
X200195714Y-87681333D01*
X200195714Y-87919428D01*
X200148095Y-88109904D01*
X200100476Y-88205142D01*
X200052857Y-88252761D01*
X199957619Y-88300380D01*
X199862380Y-88300380D01*
X199767142Y-88252761D01*
X199719523Y-88205142D01*
X199671904Y-88109904D01*
X199624285Y-87919428D01*
X199624285Y-87681333D01*
X199671904Y-87490857D01*
X199719523Y-87395619D01*
X199767142Y-87348000D01*
X199862380Y-87300380D01*
X200624285Y-87633714D02*
X200624285Y-88300380D01*
X200624285Y-87728952D02*
X200671904Y-87681333D01*
X200767142Y-87633714D01*
X200910000Y-87633714D01*
X201005238Y-87681333D01*
X201052857Y-87776571D01*
X201052857Y-88300380D01*
D12*
X199310000Y-85812285D02*
X199281428Y-85840857D01*
X199195714Y-85869428D01*
X199138571Y-85869428D01*
X199052857Y-85840857D01*
X198995714Y-85783714D01*
X198967142Y-85726571D01*
X198938571Y-85612285D01*
X198938571Y-85526571D01*
X198967142Y-85412285D01*
X198995714Y-85355142D01*
X199052857Y-85298000D01*
X199138571Y-85269428D01*
X199195714Y-85269428D01*
X199281428Y-85298000D01*
X199310000Y-85326571D01*
X199510000Y-85269428D02*
X199881428Y-85269428D01*
X199681428Y-85498000D01*
X199767142Y-85498000D01*
X199824285Y-85526571D01*
X199852857Y-85555142D01*
X199881428Y-85612285D01*
X199881428Y-85755142D01*
X199852857Y-85812285D01*
X199824285Y-85840857D01*
X199767142Y-85869428D01*
X199595714Y-85869428D01*
X199538571Y-85840857D01*
X199510000Y-85812285D01*
%TO.C,C2*%
D11*
X114716380Y-106041047D02*
X114716380Y-106612476D01*
X114716380Y-106326761D02*
X113716380Y-106326761D01*
X113859238Y-106422000D01*
X113954476Y-106517238D01*
X114002095Y-106612476D01*
X113716380Y-105422000D02*
X113716380Y-105326761D01*
X113764000Y-105231523D01*
X113811619Y-105183904D01*
X113906857Y-105136285D01*
X114097333Y-105088666D01*
X114335428Y-105088666D01*
X114525904Y-105136285D01*
X114621142Y-105183904D01*
X114668761Y-105231523D01*
X114716380Y-105326761D01*
X114716380Y-105422000D01*
X114668761Y-105517238D01*
X114621142Y-105564857D01*
X114525904Y-105612476D01*
X114335428Y-105660095D01*
X114097333Y-105660095D01*
X113906857Y-105612476D01*
X113811619Y-105564857D01*
X113764000Y-105517238D01*
X113716380Y-105422000D01*
X113716380Y-104469619D02*
X113716380Y-104374380D01*
X113764000Y-104279142D01*
X113811619Y-104231523D01*
X113906857Y-104183904D01*
X114097333Y-104136285D01*
X114335428Y-104136285D01*
X114525904Y-104183904D01*
X114621142Y-104231523D01*
X114668761Y-104279142D01*
X114716380Y-104374380D01*
X114716380Y-104469619D01*
X114668761Y-104564857D01*
X114621142Y-104612476D01*
X114525904Y-104660095D01*
X114335428Y-104707714D01*
X114097333Y-104707714D01*
X113906857Y-104660095D01*
X113811619Y-104612476D01*
X113764000Y-104564857D01*
X113716380Y-104469619D01*
X114049714Y-103707714D02*
X114716380Y-103707714D01*
X114144952Y-103707714D02*
X114097333Y-103660095D01*
X114049714Y-103564857D01*
X114049714Y-103422000D01*
X114097333Y-103326761D01*
X114192571Y-103279142D01*
X114716380Y-103279142D01*
D12*
X112228285Y-105022000D02*
X112256857Y-105050571D01*
X112285428Y-105136285D01*
X112285428Y-105193428D01*
X112256857Y-105279142D01*
X112199714Y-105336285D01*
X112142571Y-105364857D01*
X112028285Y-105393428D01*
X111942571Y-105393428D01*
X111828285Y-105364857D01*
X111771142Y-105336285D01*
X111714000Y-105279142D01*
X111685428Y-105193428D01*
X111685428Y-105136285D01*
X111714000Y-105050571D01*
X111742571Y-105022000D01*
X111742571Y-104793428D02*
X111714000Y-104764857D01*
X111685428Y-104707714D01*
X111685428Y-104564857D01*
X111714000Y-104507714D01*
X111742571Y-104479142D01*
X111799714Y-104450571D01*
X111856857Y-104450571D01*
X111942571Y-104479142D01*
X112285428Y-104822000D01*
X112285428Y-104450571D01*
%TO.C,C1*%
D11*
X197488952Y-42326380D02*
X196917523Y-42326380D01*
X197203238Y-42326380D02*
X197203238Y-41326380D01*
X197108000Y-41469238D01*
X197012761Y-41564476D01*
X196917523Y-41612095D01*
X198108000Y-41326380D02*
X198203238Y-41326380D01*
X198298476Y-41374000D01*
X198346095Y-41421619D01*
X198393714Y-41516857D01*
X198441333Y-41707333D01*
X198441333Y-41945428D01*
X198393714Y-42135904D01*
X198346095Y-42231142D01*
X198298476Y-42278761D01*
X198203238Y-42326380D01*
X198108000Y-42326380D01*
X198012761Y-42278761D01*
X197965142Y-42231142D01*
X197917523Y-42135904D01*
X197869904Y-41945428D01*
X197869904Y-41707333D01*
X197917523Y-41516857D01*
X197965142Y-41421619D01*
X198012761Y-41374000D01*
X198108000Y-41326380D01*
X199060380Y-41326380D02*
X199155619Y-41326380D01*
X199250857Y-41374000D01*
X199298476Y-41421619D01*
X199346095Y-41516857D01*
X199393714Y-41707333D01*
X199393714Y-41945428D01*
X199346095Y-42135904D01*
X199298476Y-42231142D01*
X199250857Y-42278761D01*
X199155619Y-42326380D01*
X199060380Y-42326380D01*
X198965142Y-42278761D01*
X198917523Y-42231142D01*
X198869904Y-42135904D01*
X198822285Y-41945428D01*
X198822285Y-41707333D01*
X198869904Y-41516857D01*
X198917523Y-41421619D01*
X198965142Y-41374000D01*
X199060380Y-41326380D01*
X199822285Y-41659714D02*
X199822285Y-42326380D01*
X199822285Y-41754952D02*
X199869904Y-41707333D01*
X199965142Y-41659714D01*
X200108000Y-41659714D01*
X200203238Y-41707333D01*
X200250857Y-41802571D01*
X200250857Y-42326380D01*
D12*
X198508000Y-39838285D02*
X198479428Y-39866857D01*
X198393714Y-39895428D01*
X198336571Y-39895428D01*
X198250857Y-39866857D01*
X198193714Y-39809714D01*
X198165142Y-39752571D01*
X198136571Y-39638285D01*
X198136571Y-39552571D01*
X198165142Y-39438285D01*
X198193714Y-39381142D01*
X198250857Y-39324000D01*
X198336571Y-39295428D01*
X198393714Y-39295428D01*
X198479428Y-39324000D01*
X198508000Y-39352571D01*
X199079428Y-39895428D02*
X198736571Y-39895428D01*
X198908000Y-39895428D02*
X198908000Y-39295428D01*
X198850857Y-39381142D01*
X198793714Y-39438285D01*
X198736571Y-39466857D01*
%TO.C,C6*%
D11*
X175509904Y-127720380D02*
X174938476Y-127720380D01*
X175224190Y-127720380D02*
X175224190Y-126720380D01*
X175128952Y-126863238D01*
X175033714Y-126958476D01*
X174938476Y-127006095D01*
X175938476Y-127053714D02*
X175938476Y-128053714D01*
X176414666Y-127577523D02*
X176462285Y-127672761D01*
X176557523Y-127720380D01*
X175938476Y-127577523D02*
X175986095Y-127672761D01*
X176081333Y-127720380D01*
X176271809Y-127720380D01*
X176367047Y-127672761D01*
X176414666Y-127577523D01*
X176414666Y-127053714D01*
D13*
X175634666Y-125210857D02*
X175602285Y-125243238D01*
X175505142Y-125275619D01*
X175440380Y-125275619D01*
X175343238Y-125243238D01*
X175278476Y-125178476D01*
X175246095Y-125113714D01*
X175213714Y-124984190D01*
X175213714Y-124887047D01*
X175246095Y-124757523D01*
X175278476Y-124692761D01*
X175343238Y-124628000D01*
X175440380Y-124595619D01*
X175505142Y-124595619D01*
X175602285Y-124628000D01*
X175634666Y-124660380D01*
X176217523Y-124595619D02*
X176088000Y-124595619D01*
X176023238Y-124628000D01*
X175990857Y-124660380D01*
X175926095Y-124757523D01*
X175893714Y-124887047D01*
X175893714Y-125146095D01*
X175926095Y-125210857D01*
X175958476Y-125243238D01*
X176023238Y-125275619D01*
X176152761Y-125275619D01*
X176217523Y-125243238D01*
X176249904Y-125210857D01*
X176282285Y-125146095D01*
X176282285Y-124984190D01*
X176249904Y-124919428D01*
X176217523Y-124887047D01*
X176152761Y-124854666D01*
X176023238Y-124854666D01*
X175958476Y-124887047D01*
X175926095Y-124919428D01*
X175893714Y-124984190D01*
%TO.C,C7*%
D11*
X170429904Y-127720380D02*
X169858476Y-127720380D01*
X170144190Y-127720380D02*
X170144190Y-126720380D01*
X170048952Y-126863238D01*
X169953714Y-126958476D01*
X169858476Y-127006095D01*
X170858476Y-127053714D02*
X170858476Y-128053714D01*
X171334666Y-127577523D02*
X171382285Y-127672761D01*
X171477523Y-127720380D01*
X170858476Y-127577523D02*
X170906095Y-127672761D01*
X171001333Y-127720380D01*
X171191809Y-127720380D01*
X171287047Y-127672761D01*
X171334666Y-127577523D01*
X171334666Y-127053714D01*
D13*
X170554666Y-125210857D02*
X170522285Y-125243238D01*
X170425142Y-125275619D01*
X170360380Y-125275619D01*
X170263238Y-125243238D01*
X170198476Y-125178476D01*
X170166095Y-125113714D01*
X170133714Y-124984190D01*
X170133714Y-124887047D01*
X170166095Y-124757523D01*
X170198476Y-124692761D01*
X170263238Y-124628000D01*
X170360380Y-124595619D01*
X170425142Y-124595619D01*
X170522285Y-124628000D01*
X170554666Y-124660380D01*
X170781333Y-124595619D02*
X171234666Y-124595619D01*
X170943238Y-125275619D01*
%TO.C,C8*%
D11*
X181351904Y-127720380D02*
X180780476Y-127720380D01*
X181066190Y-127720380D02*
X181066190Y-126720380D01*
X180970952Y-126863238D01*
X180875714Y-126958476D01*
X180780476Y-127006095D01*
X181780476Y-127053714D02*
X181780476Y-128053714D01*
X182256666Y-127577523D02*
X182304285Y-127672761D01*
X182399523Y-127720380D01*
X181780476Y-127577523D02*
X181828095Y-127672761D01*
X181923333Y-127720380D01*
X182113809Y-127720380D01*
X182209047Y-127672761D01*
X182256666Y-127577523D01*
X182256666Y-127053714D01*
D13*
X181476666Y-125210857D02*
X181444285Y-125243238D01*
X181347142Y-125275619D01*
X181282380Y-125275619D01*
X181185238Y-125243238D01*
X181120476Y-125178476D01*
X181088095Y-125113714D01*
X181055714Y-124984190D01*
X181055714Y-124887047D01*
X181088095Y-124757523D01*
X181120476Y-124692761D01*
X181185238Y-124628000D01*
X181282380Y-124595619D01*
X181347142Y-124595619D01*
X181444285Y-124628000D01*
X181476666Y-124660380D01*
X181865238Y-124887047D02*
X181800476Y-124854666D01*
X181768095Y-124822285D01*
X181735714Y-124757523D01*
X181735714Y-124725142D01*
X181768095Y-124660380D01*
X181800476Y-124628000D01*
X181865238Y-124595619D01*
X181994761Y-124595619D01*
X182059523Y-124628000D01*
X182091904Y-124660380D01*
X182124285Y-124725142D01*
X182124285Y-124757523D01*
X182091904Y-124822285D01*
X182059523Y-124854666D01*
X181994761Y-124887047D01*
X181865238Y-124887047D01*
X181800476Y-124919428D01*
X181768095Y-124951809D01*
X181735714Y-125016571D01*
X181735714Y-125146095D01*
X181768095Y-125210857D01*
X181800476Y-125243238D01*
X181865238Y-125275619D01*
X181994761Y-125275619D01*
X182059523Y-125243238D01*
X182091904Y-125210857D01*
X182124285Y-125146095D01*
X182124285Y-125016571D01*
X182091904Y-124951809D01*
X182059523Y-124919428D01*
X181994761Y-124887047D01*
%TO.C,C9*%
D11*
X169376380Y-102620095D02*
X169376380Y-103191523D01*
X169376380Y-102905809D02*
X168376380Y-102905809D01*
X168519238Y-103001047D01*
X168614476Y-103096285D01*
X168662095Y-103191523D01*
X168709714Y-102191523D02*
X169709714Y-102191523D01*
X169233523Y-101715333D02*
X169328761Y-101667714D01*
X169376380Y-101572476D01*
X169233523Y-102191523D02*
X169328761Y-102143904D01*
X169376380Y-102048666D01*
X169376380Y-101858190D01*
X169328761Y-101762952D01*
X169233523Y-101715333D01*
X168709714Y-101715333D01*
D13*
X166866857Y-102495333D02*
X166899238Y-102527714D01*
X166931619Y-102624857D01*
X166931619Y-102689619D01*
X166899238Y-102786761D01*
X166834476Y-102851523D01*
X166769714Y-102883904D01*
X166640190Y-102916285D01*
X166543047Y-102916285D01*
X166413523Y-102883904D01*
X166348761Y-102851523D01*
X166284000Y-102786761D01*
X166251619Y-102689619D01*
X166251619Y-102624857D01*
X166284000Y-102527714D01*
X166316380Y-102495333D01*
X166931619Y-102171523D02*
X166931619Y-102042000D01*
X166899238Y-101977238D01*
X166866857Y-101944857D01*
X166769714Y-101880095D01*
X166640190Y-101847714D01*
X166381142Y-101847714D01*
X166316380Y-101880095D01*
X166284000Y-101912476D01*
X166251619Y-101977238D01*
X166251619Y-102106761D01*
X166284000Y-102171523D01*
X166316380Y-102203904D01*
X166381142Y-102236285D01*
X166543047Y-102236285D01*
X166607809Y-102203904D01*
X166640190Y-102171523D01*
X166672571Y-102106761D01*
X166672571Y-101977238D01*
X166640190Y-101912476D01*
X166607809Y-101880095D01*
X166543047Y-101847714D01*
%TO.C,C10*%
D11*
X179827904Y-111972380D02*
X179256476Y-111972380D01*
X179542190Y-111972380D02*
X179542190Y-110972380D01*
X179446952Y-111115238D01*
X179351714Y-111210476D01*
X179256476Y-111258095D01*
X180256476Y-111305714D02*
X180256476Y-112305714D01*
X180732666Y-111829523D02*
X180780285Y-111924761D01*
X180875523Y-111972380D01*
X180256476Y-111829523D02*
X180304095Y-111924761D01*
X180399333Y-111972380D01*
X180589809Y-111972380D01*
X180685047Y-111924761D01*
X180732666Y-111829523D01*
X180732666Y-111305714D01*
D13*
X179628857Y-109462857D02*
X179596476Y-109495238D01*
X179499333Y-109527619D01*
X179434571Y-109527619D01*
X179337428Y-109495238D01*
X179272666Y-109430476D01*
X179240285Y-109365714D01*
X179207904Y-109236190D01*
X179207904Y-109139047D01*
X179240285Y-109009523D01*
X179272666Y-108944761D01*
X179337428Y-108880000D01*
X179434571Y-108847619D01*
X179499333Y-108847619D01*
X179596476Y-108880000D01*
X179628857Y-108912380D01*
X180276476Y-109527619D02*
X179887904Y-109527619D01*
X180082190Y-109527619D02*
X180082190Y-108847619D01*
X180017428Y-108944761D01*
X179952666Y-109009523D01*
X179887904Y-109041904D01*
X180697428Y-108847619D02*
X180762190Y-108847619D01*
X180826952Y-108880000D01*
X180859333Y-108912380D01*
X180891714Y-108977142D01*
X180924095Y-109106666D01*
X180924095Y-109268571D01*
X180891714Y-109398095D01*
X180859333Y-109462857D01*
X180826952Y-109495238D01*
X180762190Y-109527619D01*
X180697428Y-109527619D01*
X180632666Y-109495238D01*
X180600285Y-109462857D01*
X180567904Y-109398095D01*
X180535523Y-109268571D01*
X180535523Y-109106666D01*
X180567904Y-108977142D01*
X180600285Y-108912380D01*
X180632666Y-108880000D01*
X180697428Y-108847619D01*
%TO.C,C11*%
D11*
X186177904Y-127720380D02*
X185606476Y-127720380D01*
X185892190Y-127720380D02*
X185892190Y-126720380D01*
X185796952Y-126863238D01*
X185701714Y-126958476D01*
X185606476Y-127006095D01*
X186606476Y-127053714D02*
X186606476Y-128053714D01*
X187082666Y-127577523D02*
X187130285Y-127672761D01*
X187225523Y-127720380D01*
X186606476Y-127577523D02*
X186654095Y-127672761D01*
X186749333Y-127720380D01*
X186939809Y-127720380D01*
X187035047Y-127672761D01*
X187082666Y-127577523D01*
X187082666Y-127053714D01*
D13*
X185978857Y-125210857D02*
X185946476Y-125243238D01*
X185849333Y-125275619D01*
X185784571Y-125275619D01*
X185687428Y-125243238D01*
X185622666Y-125178476D01*
X185590285Y-125113714D01*
X185557904Y-124984190D01*
X185557904Y-124887047D01*
X185590285Y-124757523D01*
X185622666Y-124692761D01*
X185687428Y-124628000D01*
X185784571Y-124595619D01*
X185849333Y-124595619D01*
X185946476Y-124628000D01*
X185978857Y-124660380D01*
X186626476Y-125275619D02*
X186237904Y-125275619D01*
X186432190Y-125275619D02*
X186432190Y-124595619D01*
X186367428Y-124692761D01*
X186302666Y-124757523D01*
X186237904Y-124789904D01*
X187274095Y-125275619D02*
X186885523Y-125275619D01*
X187079809Y-125275619D02*
X187079809Y-124595619D01*
X187015047Y-124692761D01*
X186950285Y-124757523D01*
X186885523Y-124789904D01*
%TO.C,C12*%
D11*
X178049904Y-105368380D02*
X177478476Y-105368380D01*
X177764190Y-105368380D02*
X177764190Y-104368380D01*
X177668952Y-104511238D01*
X177573714Y-104606476D01*
X177478476Y-104654095D01*
X178478476Y-104701714D02*
X178478476Y-105701714D01*
X178954666Y-105225523D02*
X179002285Y-105320761D01*
X179097523Y-105368380D01*
X178478476Y-105225523D02*
X178526095Y-105320761D01*
X178621333Y-105368380D01*
X178811809Y-105368380D01*
X178907047Y-105320761D01*
X178954666Y-105225523D01*
X178954666Y-104701714D01*
D13*
X177850857Y-102858857D02*
X177818476Y-102891238D01*
X177721333Y-102923619D01*
X177656571Y-102923619D01*
X177559428Y-102891238D01*
X177494666Y-102826476D01*
X177462285Y-102761714D01*
X177429904Y-102632190D01*
X177429904Y-102535047D01*
X177462285Y-102405523D01*
X177494666Y-102340761D01*
X177559428Y-102276000D01*
X177656571Y-102243619D01*
X177721333Y-102243619D01*
X177818476Y-102276000D01*
X177850857Y-102308380D01*
X178498476Y-102923619D02*
X178109904Y-102923619D01*
X178304190Y-102923619D02*
X178304190Y-102243619D01*
X178239428Y-102340761D01*
X178174666Y-102405523D01*
X178109904Y-102437904D01*
X178757523Y-102308380D02*
X178789904Y-102276000D01*
X178854666Y-102243619D01*
X179016571Y-102243619D01*
X179081333Y-102276000D01*
X179113714Y-102308380D01*
X179146095Y-102373142D01*
X179146095Y-102437904D01*
X179113714Y-102535047D01*
X178725142Y-102923619D01*
X179146095Y-102923619D01*
%TO.C,C13*%
D11*
X164776380Y-117312095D02*
X164776380Y-117883523D01*
X164776380Y-117597809D02*
X163776380Y-117597809D01*
X163919238Y-117693047D01*
X164014476Y-117788285D01*
X164062095Y-117883523D01*
X164109714Y-116883523D02*
X165109714Y-116883523D01*
X164633523Y-116407333D02*
X164728761Y-116359714D01*
X164776380Y-116264476D01*
X164633523Y-116883523D02*
X164728761Y-116835904D01*
X164776380Y-116740666D01*
X164776380Y-116550190D01*
X164728761Y-116454952D01*
X164633523Y-116407333D01*
X164109714Y-116407333D01*
D13*
X166866857Y-117511142D02*
X166899238Y-117543523D01*
X166931619Y-117640666D01*
X166931619Y-117705428D01*
X166899238Y-117802571D01*
X166834476Y-117867333D01*
X166769714Y-117899714D01*
X166640190Y-117932095D01*
X166543047Y-117932095D01*
X166413523Y-117899714D01*
X166348761Y-117867333D01*
X166284000Y-117802571D01*
X166251619Y-117705428D01*
X166251619Y-117640666D01*
X166284000Y-117543523D01*
X166316380Y-117511142D01*
X166931619Y-116863523D02*
X166931619Y-117252095D01*
X166931619Y-117057809D02*
X166251619Y-117057809D01*
X166348761Y-117122571D01*
X166413523Y-117187333D01*
X166445904Y-117252095D01*
X166251619Y-116636857D02*
X166251619Y-116215904D01*
X166510666Y-116442571D01*
X166510666Y-116345428D01*
X166543047Y-116280666D01*
X166575428Y-116248285D01*
X166640190Y-116215904D01*
X166802095Y-116215904D01*
X166866857Y-116248285D01*
X166899238Y-116280666D01*
X166931619Y-116345428D01*
X166931619Y-116539714D01*
X166899238Y-116604476D01*
X166866857Y-116636857D01*
%TO.C,C14*%
D11*
X193252380Y-110494095D02*
X193252380Y-111065523D01*
X193252380Y-110779809D02*
X192252380Y-110779809D01*
X192395238Y-110875047D01*
X192490476Y-110970285D01*
X192538095Y-111065523D01*
X192585714Y-110065523D02*
X193585714Y-110065523D01*
X193109523Y-109589333D02*
X193204761Y-109541714D01*
X193252380Y-109446476D01*
X193109523Y-110065523D02*
X193204761Y-110017904D01*
X193252380Y-109922666D01*
X193252380Y-109732190D01*
X193204761Y-109636952D01*
X193109523Y-109589333D01*
X192585714Y-109589333D01*
D13*
X190742857Y-110693142D02*
X190775238Y-110725523D01*
X190807619Y-110822666D01*
X190807619Y-110887428D01*
X190775238Y-110984571D01*
X190710476Y-111049333D01*
X190645714Y-111081714D01*
X190516190Y-111114095D01*
X190419047Y-111114095D01*
X190289523Y-111081714D01*
X190224761Y-111049333D01*
X190160000Y-110984571D01*
X190127619Y-110887428D01*
X190127619Y-110822666D01*
X190160000Y-110725523D01*
X190192380Y-110693142D01*
X190807619Y-110045523D02*
X190807619Y-110434095D01*
X190807619Y-110239809D02*
X190127619Y-110239809D01*
X190224761Y-110304571D01*
X190289523Y-110369333D01*
X190321904Y-110434095D01*
X190354285Y-109462666D02*
X190807619Y-109462666D01*
X190095238Y-109624571D02*
X190580952Y-109786476D01*
X190580952Y-109365523D01*
%TO.C,C15*%
D11*
X170429904Y-112226380D02*
X169858476Y-112226380D01*
X170144190Y-112226380D02*
X170144190Y-111226380D01*
X170048952Y-111369238D01*
X169953714Y-111464476D01*
X169858476Y-111512095D01*
X170858476Y-111559714D02*
X170858476Y-112559714D01*
X171334666Y-112083523D02*
X171382285Y-112178761D01*
X171477523Y-112226380D01*
X170858476Y-112083523D02*
X170906095Y-112178761D01*
X171001333Y-112226380D01*
X171191809Y-112226380D01*
X171287047Y-112178761D01*
X171334666Y-112083523D01*
X171334666Y-111559714D01*
D13*
X170230857Y-109716857D02*
X170198476Y-109749238D01*
X170101333Y-109781619D01*
X170036571Y-109781619D01*
X169939428Y-109749238D01*
X169874666Y-109684476D01*
X169842285Y-109619714D01*
X169809904Y-109490190D01*
X169809904Y-109393047D01*
X169842285Y-109263523D01*
X169874666Y-109198761D01*
X169939428Y-109134000D01*
X170036571Y-109101619D01*
X170101333Y-109101619D01*
X170198476Y-109134000D01*
X170230857Y-109166380D01*
X170878476Y-109781619D02*
X170489904Y-109781619D01*
X170684190Y-109781619D02*
X170684190Y-109101619D01*
X170619428Y-109198761D01*
X170554666Y-109263523D01*
X170489904Y-109295904D01*
X171493714Y-109101619D02*
X171169904Y-109101619D01*
X171137523Y-109425428D01*
X171169904Y-109393047D01*
X171234666Y-109360666D01*
X171396571Y-109360666D01*
X171461333Y-109393047D01*
X171493714Y-109425428D01*
X171526095Y-109490190D01*
X171526095Y-109652095D01*
X171493714Y-109716857D01*
X171461333Y-109749238D01*
X171396571Y-109781619D01*
X171234666Y-109781619D01*
X171169904Y-109749238D01*
X171137523Y-109716857D01*
%TO.C,D1*%
D11*
X98988761Y-44838000D02*
X98893523Y-44790380D01*
X98750666Y-44790380D01*
X98607809Y-44838000D01*
X98512571Y-44933238D01*
X98464952Y-45028476D01*
X98417333Y-45218952D01*
X98417333Y-45361809D01*
X98464952Y-45552285D01*
X98512571Y-45647523D01*
X98607809Y-45742761D01*
X98750666Y-45790380D01*
X98845904Y-45790380D01*
X98988761Y-45742761D01*
X99036380Y-45695142D01*
X99036380Y-45361809D01*
X98845904Y-45361809D01*
X99417333Y-45504666D02*
X99893523Y-45504666D01*
X99322095Y-45790380D02*
X99655428Y-44790380D01*
X99988761Y-45790380D01*
X100845904Y-45790380D02*
X100274476Y-45790380D01*
X100560190Y-45790380D02*
X100560190Y-44790380D01*
X100464952Y-44933238D01*
X100369714Y-45028476D01*
X100274476Y-45076095D01*
X101464952Y-44790380D02*
X101560190Y-44790380D01*
X101655428Y-44838000D01*
X101703047Y-44885619D01*
X101750666Y-44980857D01*
X101798285Y-45171333D01*
X101798285Y-45409428D01*
X101750666Y-45599904D01*
X101703047Y-45695142D01*
X101655428Y-45742761D01*
X101560190Y-45790380D01*
X101464952Y-45790380D01*
X101369714Y-45742761D01*
X101322095Y-45695142D01*
X101274476Y-45599904D01*
X101226857Y-45409428D01*
X101226857Y-45171333D01*
X101274476Y-44980857D01*
X101322095Y-44885619D01*
X101369714Y-44838000D01*
X101464952Y-44790380D01*
X102655428Y-45123714D02*
X102655428Y-45790380D01*
X102417333Y-44742761D02*
X102179238Y-45457047D01*
X102798285Y-45457047D01*
X100415904Y-42870380D02*
X100415904Y-41870380D01*
X100654000Y-41870380D01*
X100796857Y-41918000D01*
X100892095Y-42013238D01*
X100939714Y-42108476D01*
X100987333Y-42298952D01*
X100987333Y-42441809D01*
X100939714Y-42632285D01*
X100892095Y-42727523D01*
X100796857Y-42822761D01*
X100654000Y-42870380D01*
X100415904Y-42870380D01*
X101939714Y-42870380D02*
X101368285Y-42870380D01*
X101654000Y-42870380D02*
X101654000Y-41870380D01*
X101558761Y-42013238D01*
X101463523Y-42108476D01*
X101368285Y-42156095D01*
X95242095Y-40670380D02*
X95242095Y-39670380D01*
X95813523Y-40670380D02*
X95384952Y-40098952D01*
X95813523Y-39670380D02*
X95242095Y-40241809D01*
%TO.C,D2*%
X98988761Y-40774000D02*
X98893523Y-40726380D01*
X98750666Y-40726380D01*
X98607809Y-40774000D01*
X98512571Y-40869238D01*
X98464952Y-40964476D01*
X98417333Y-41154952D01*
X98417333Y-41297809D01*
X98464952Y-41488285D01*
X98512571Y-41583523D01*
X98607809Y-41678761D01*
X98750666Y-41726380D01*
X98845904Y-41726380D01*
X98988761Y-41678761D01*
X99036380Y-41631142D01*
X99036380Y-41297809D01*
X98845904Y-41297809D01*
X99417333Y-41440666D02*
X99893523Y-41440666D01*
X99322095Y-41726380D02*
X99655428Y-40726380D01*
X99988761Y-41726380D01*
X100845904Y-41726380D02*
X100274476Y-41726380D01*
X100560190Y-41726380D02*
X100560190Y-40726380D01*
X100464952Y-40869238D01*
X100369714Y-40964476D01*
X100274476Y-41012095D01*
X101464952Y-40726380D02*
X101560190Y-40726380D01*
X101655428Y-40774000D01*
X101703047Y-40821619D01*
X101750666Y-40916857D01*
X101798285Y-41107333D01*
X101798285Y-41345428D01*
X101750666Y-41535904D01*
X101703047Y-41631142D01*
X101655428Y-41678761D01*
X101560190Y-41726380D01*
X101464952Y-41726380D01*
X101369714Y-41678761D01*
X101322095Y-41631142D01*
X101274476Y-41535904D01*
X101226857Y-41345428D01*
X101226857Y-41107333D01*
X101274476Y-40916857D01*
X101322095Y-40821619D01*
X101369714Y-40774000D01*
X101464952Y-40726380D01*
X102655428Y-41059714D02*
X102655428Y-41726380D01*
X102417333Y-40678761D02*
X102179238Y-41393047D01*
X102798285Y-41393047D01*
X95242095Y-36606380D02*
X95242095Y-35606380D01*
X95813523Y-36606380D02*
X95384952Y-36034952D01*
X95813523Y-35606380D02*
X95242095Y-36177809D01*
X100415904Y-38806380D02*
X100415904Y-37806380D01*
X100654000Y-37806380D01*
X100796857Y-37854000D01*
X100892095Y-37949238D01*
X100939714Y-38044476D01*
X100987333Y-38234952D01*
X100987333Y-38377809D01*
X100939714Y-38568285D01*
X100892095Y-38663523D01*
X100796857Y-38758761D01*
X100654000Y-38806380D01*
X100415904Y-38806380D01*
X101368285Y-37901619D02*
X101415904Y-37854000D01*
X101511142Y-37806380D01*
X101749238Y-37806380D01*
X101844476Y-37854000D01*
X101892095Y-37901619D01*
X101939714Y-37996857D01*
X101939714Y-38092095D01*
X101892095Y-38234952D01*
X101320666Y-38806380D01*
X101939714Y-38806380D01*
%TO.C,IC1*%
X136545142Y-94170000D02*
X136592761Y-94217619D01*
X136640380Y-94360476D01*
X136640380Y-94455714D01*
X136592761Y-94598571D01*
X136497523Y-94693809D01*
X136402285Y-94741428D01*
X136211809Y-94789047D01*
X136068952Y-94789047D01*
X135878476Y-94741428D01*
X135783238Y-94693809D01*
X135688000Y-94598571D01*
X135640380Y-94455714D01*
X135640380Y-94360476D01*
X135688000Y-94217619D01*
X135735619Y-94170000D01*
X135640380Y-93884285D02*
X135640380Y-93312857D01*
X136640380Y-93598571D02*
X135640380Y-93598571D01*
X136545142Y-92408095D02*
X136592761Y-92455714D01*
X136640380Y-92598571D01*
X136640380Y-92693809D01*
X136592761Y-92836666D01*
X136497523Y-92931904D01*
X136402285Y-92979523D01*
X136211809Y-93027142D01*
X136068952Y-93027142D01*
X135878476Y-92979523D01*
X135783238Y-92931904D01*
X135688000Y-92836666D01*
X135640380Y-92693809D01*
X135640380Y-92598571D01*
X135688000Y-92455714D01*
X135735619Y-92408095D01*
X136259428Y-91979523D02*
X136259428Y-91217619D01*
X136640380Y-90741428D02*
X135640380Y-90741428D01*
X135640380Y-90503333D01*
X135688000Y-90360476D01*
X135783238Y-90265238D01*
X135878476Y-90217619D01*
X136068952Y-90170000D01*
X136211809Y-90170000D01*
X136402285Y-90217619D01*
X136497523Y-90265238D01*
X136592761Y-90360476D01*
X136640380Y-90503333D01*
X136640380Y-90741428D01*
X136640380Y-89741428D02*
X135640380Y-89741428D01*
X136640380Y-89265238D02*
X135640380Y-89265238D01*
X135640380Y-88884285D01*
X135688000Y-88789047D01*
X135735619Y-88741428D01*
X135830857Y-88693809D01*
X135973714Y-88693809D01*
X136068952Y-88741428D01*
X136116571Y-88789047D01*
X136164190Y-88884285D01*
X136164190Y-89265238D01*
X136259428Y-88265238D02*
X136259428Y-87503333D01*
X135735619Y-87074761D02*
X135688000Y-87027142D01*
X135640380Y-86931904D01*
X135640380Y-86693809D01*
X135688000Y-86598571D01*
X135735619Y-86550952D01*
X135830857Y-86503333D01*
X135926095Y-86503333D01*
X136068952Y-86550952D01*
X136640380Y-87122380D01*
X136640380Y-86503333D01*
X136068952Y-85931904D02*
X136021333Y-86027142D01*
X135973714Y-86074761D01*
X135878476Y-86122380D01*
X135830857Y-86122380D01*
X135735619Y-86074761D01*
X135688000Y-86027142D01*
X135640380Y-85931904D01*
X135640380Y-85741428D01*
X135688000Y-85646190D01*
X135735619Y-85598571D01*
X135830857Y-85550952D01*
X135878476Y-85550952D01*
X135973714Y-85598571D01*
X136021333Y-85646190D01*
X136068952Y-85741428D01*
X136068952Y-85931904D01*
X136116571Y-86027142D01*
X136164190Y-86074761D01*
X136259428Y-86122380D01*
X136449904Y-86122380D01*
X136545142Y-86074761D01*
X136592761Y-86027142D01*
X136640380Y-85931904D01*
X136640380Y-85741428D01*
X136592761Y-85646190D01*
X136545142Y-85598571D01*
X136449904Y-85550952D01*
X136259428Y-85550952D01*
X136164190Y-85598571D01*
X136116571Y-85646190D01*
X136068952Y-85741428D01*
X117800380Y-91146190D02*
X116800380Y-91146190D01*
X117705142Y-90098571D02*
X117752761Y-90146190D01*
X117800380Y-90289047D01*
X117800380Y-90384285D01*
X117752761Y-90527142D01*
X117657523Y-90622380D01*
X117562285Y-90670000D01*
X117371809Y-90717619D01*
X117228952Y-90717619D01*
X117038476Y-90670000D01*
X116943238Y-90622380D01*
X116848000Y-90527142D01*
X116800380Y-90384285D01*
X116800380Y-90289047D01*
X116848000Y-90146190D01*
X116895619Y-90098571D01*
X117800380Y-89146190D02*
X117800380Y-89717619D01*
X117800380Y-89431904D02*
X116800380Y-89431904D01*
X116943238Y-89527142D01*
X117038476Y-89622380D01*
X117086095Y-89717619D01*
%TO.C,IC2*%
X204918761Y-56514380D02*
X204966380Y-56371523D01*
X204966380Y-56133428D01*
X204918761Y-56038190D01*
X204871142Y-55990571D01*
X204775904Y-55942952D01*
X204680666Y-55942952D01*
X204585428Y-55990571D01*
X204537809Y-56038190D01*
X204490190Y-56133428D01*
X204442571Y-56323904D01*
X204394952Y-56419142D01*
X204347333Y-56466761D01*
X204252095Y-56514380D01*
X204156857Y-56514380D01*
X204061619Y-56466761D01*
X204014000Y-56419142D01*
X203966380Y-56323904D01*
X203966380Y-56085809D01*
X204014000Y-55942952D01*
X204966380Y-55514380D02*
X203966380Y-55514380D01*
X203966380Y-54847714D02*
X203966380Y-54657238D01*
X204014000Y-54562000D01*
X204109238Y-54466761D01*
X204299714Y-54419142D01*
X204633047Y-54419142D01*
X204823523Y-54466761D01*
X204918761Y-54562000D01*
X204966380Y-54657238D01*
X204966380Y-54847714D01*
X204918761Y-54942952D01*
X204823523Y-55038190D01*
X204633047Y-55085809D01*
X204299714Y-55085809D01*
X204109238Y-55038190D01*
X204014000Y-54942952D01*
X203966380Y-54847714D01*
X203966380Y-53800095D02*
X203966380Y-53704857D01*
X204014000Y-53609619D01*
X204061619Y-53562000D01*
X204156857Y-53514380D01*
X204347333Y-53466761D01*
X204585428Y-53466761D01*
X204775904Y-53514380D01*
X204871142Y-53562000D01*
X204918761Y-53609619D01*
X204966380Y-53704857D01*
X204966380Y-53800095D01*
X204918761Y-53895333D01*
X204871142Y-53942952D01*
X204775904Y-53990571D01*
X204585428Y-54038190D01*
X204347333Y-54038190D01*
X204156857Y-53990571D01*
X204061619Y-53942952D01*
X204014000Y-53895333D01*
X203966380Y-53800095D01*
X204585428Y-53038190D02*
X204585428Y-52276285D01*
X204966380Y-51800095D02*
X203966380Y-51800095D01*
X203966380Y-51562000D01*
X204014000Y-51419142D01*
X204109238Y-51323904D01*
X204204476Y-51276285D01*
X204394952Y-51228666D01*
X204537809Y-51228666D01*
X204728285Y-51276285D01*
X204823523Y-51323904D01*
X204918761Y-51419142D01*
X204966380Y-51562000D01*
X204966380Y-51800095D01*
X204966380Y-50800095D02*
X203966380Y-50800095D01*
X204966380Y-50323904D02*
X203966380Y-50323904D01*
X203966380Y-49942952D01*
X204014000Y-49847714D01*
X204061619Y-49800095D01*
X204156857Y-49752476D01*
X204299714Y-49752476D01*
X204394952Y-49800095D01*
X204442571Y-49847714D01*
X204490190Y-49942952D01*
X204490190Y-50323904D01*
X204585428Y-49323904D02*
X204585428Y-48562000D01*
X204299714Y-47657238D02*
X204966380Y-47657238D01*
X203918761Y-47895333D02*
X204633047Y-48133428D01*
X204633047Y-47514380D01*
X203966380Y-46942952D02*
X203966380Y-46847714D01*
X204014000Y-46752476D01*
X204061619Y-46704857D01*
X204156857Y-46657238D01*
X204347333Y-46609619D01*
X204585428Y-46609619D01*
X204775904Y-46657238D01*
X204871142Y-46704857D01*
X204918761Y-46752476D01*
X204966380Y-46847714D01*
X204966380Y-46942952D01*
X204918761Y-47038190D01*
X204871142Y-47085809D01*
X204775904Y-47133428D01*
X204585428Y-47181047D01*
X204347333Y-47181047D01*
X204156857Y-47133428D01*
X204061619Y-47085809D01*
X204014000Y-47038190D01*
X203966380Y-46942952D01*
X178506380Y-52538190D02*
X177506380Y-52538190D01*
X178411142Y-51490571D02*
X178458761Y-51538190D01*
X178506380Y-51681047D01*
X178506380Y-51776285D01*
X178458761Y-51919142D01*
X178363523Y-52014380D01*
X178268285Y-52062000D01*
X178077809Y-52109619D01*
X177934952Y-52109619D01*
X177744476Y-52062000D01*
X177649238Y-52014380D01*
X177554000Y-51919142D01*
X177506380Y-51776285D01*
X177506380Y-51681047D01*
X177554000Y-51538190D01*
X177601619Y-51490571D01*
X177601619Y-51109619D02*
X177554000Y-51062000D01*
X177506380Y-50966761D01*
X177506380Y-50728666D01*
X177554000Y-50633428D01*
X177601619Y-50585809D01*
X177696857Y-50538190D01*
X177792095Y-50538190D01*
X177934952Y-50585809D01*
X178506380Y-51157238D01*
X178506380Y-50538190D01*
%TO.C,R1*%
X99917333Y-48796380D02*
X99345904Y-48796380D01*
X99631619Y-48796380D02*
X99631619Y-47796380D01*
X99536380Y-47939238D01*
X99441142Y-48034476D01*
X99345904Y-48082095D01*
X100536380Y-47796380D02*
X100631619Y-47796380D01*
X100726857Y-47844000D01*
X100774476Y-47891619D01*
X100822095Y-47986857D01*
X100869714Y-48177333D01*
X100869714Y-48415428D01*
X100822095Y-48605904D01*
X100774476Y-48701142D01*
X100726857Y-48748761D01*
X100631619Y-48796380D01*
X100536380Y-48796380D01*
X100441142Y-48748761D01*
X100393523Y-48701142D01*
X100345904Y-48605904D01*
X100298285Y-48415428D01*
X100298285Y-48177333D01*
X100345904Y-47986857D01*
X100393523Y-47891619D01*
X100441142Y-47844000D01*
X100536380Y-47796380D01*
X101488761Y-47796380D02*
X101584000Y-47796380D01*
X101679238Y-47844000D01*
X101726857Y-47891619D01*
X101774476Y-47986857D01*
X101822095Y-48177333D01*
X101822095Y-48415428D01*
X101774476Y-48605904D01*
X101726857Y-48701142D01*
X101679238Y-48748761D01*
X101584000Y-48796380D01*
X101488761Y-48796380D01*
X101393523Y-48748761D01*
X101345904Y-48701142D01*
X101298285Y-48605904D01*
X101250666Y-48415428D01*
X101250666Y-48177333D01*
X101298285Y-47986857D01*
X101345904Y-47891619D01*
X101393523Y-47844000D01*
X101488761Y-47796380D01*
X100417333Y-46426380D02*
X100084000Y-45950190D01*
X99845904Y-46426380D02*
X99845904Y-45426380D01*
X100226857Y-45426380D01*
X100322095Y-45474000D01*
X100369714Y-45521619D01*
X100417333Y-45616857D01*
X100417333Y-45759714D01*
X100369714Y-45854952D01*
X100322095Y-45902571D01*
X100226857Y-45950190D01*
X99845904Y-45950190D01*
X101369714Y-46426380D02*
X100798285Y-46426380D01*
X101084000Y-46426380D02*
X101084000Y-45426380D01*
X100988761Y-45569238D01*
X100893523Y-45664476D01*
X100798285Y-45712095D01*
%TO.C,RN1*%
X107910476Y-65352380D02*
X108529523Y-65352380D01*
X108196190Y-65733333D01*
X108339047Y-65733333D01*
X108434285Y-65780952D01*
X108481904Y-65828571D01*
X108529523Y-65923809D01*
X108529523Y-66161904D01*
X108481904Y-66257142D01*
X108434285Y-66304761D01*
X108339047Y-66352380D01*
X108053333Y-66352380D01*
X107958095Y-66304761D01*
X107910476Y-66257142D01*
X108958095Y-66352380D02*
X108958095Y-65352380D01*
X109529523Y-66352380D02*
X109100952Y-65780952D01*
X109529523Y-65352380D02*
X108958095Y-65923809D01*
X110005714Y-66352380D02*
X110196190Y-66352380D01*
X110291428Y-66304761D01*
X110339047Y-66257142D01*
X110434285Y-66114285D01*
X110481904Y-65923809D01*
X110481904Y-65542857D01*
X110434285Y-65447619D01*
X110386666Y-65400000D01*
X110291428Y-65352380D01*
X110100952Y-65352380D01*
X110005714Y-65400000D01*
X109958095Y-65447619D01*
X109910476Y-65542857D01*
X109910476Y-65780952D01*
X109958095Y-65876190D01*
X110005714Y-65923809D01*
X110100952Y-65971428D01*
X110291428Y-65971428D01*
X110386666Y-65923809D01*
X110434285Y-65876190D01*
X110481904Y-65780952D01*
X107259523Y-63952380D02*
X106926190Y-63476190D01*
X106688095Y-63952380D02*
X106688095Y-62952380D01*
X107069047Y-62952380D01*
X107164285Y-63000000D01*
X107211904Y-63047619D01*
X107259523Y-63142857D01*
X107259523Y-63285714D01*
X107211904Y-63380952D01*
X107164285Y-63428571D01*
X107069047Y-63476190D01*
X106688095Y-63476190D01*
X107688095Y-63952380D02*
X107688095Y-62952380D01*
X108259523Y-63952380D01*
X108259523Y-62952380D01*
X109259523Y-63952380D02*
X108688095Y-63952380D01*
X108973809Y-63952380D02*
X108973809Y-62952380D01*
X108878571Y-63095238D01*
X108783333Y-63190476D01*
X108688095Y-63238095D01*
%TO.C,U1*%
X119638380Y-57760857D02*
X119638380Y-57094190D01*
X120638380Y-57522761D01*
X119971714Y-56284666D02*
X120638380Y-56284666D01*
X119590761Y-56522761D02*
X120305047Y-56760857D01*
X120305047Y-56141809D01*
X120638380Y-55284666D02*
X120638380Y-55760857D01*
X119638380Y-55760857D01*
X120590761Y-54998952D02*
X120638380Y-54856095D01*
X120638380Y-54618000D01*
X120590761Y-54522761D01*
X120543142Y-54475142D01*
X120447904Y-54427523D01*
X120352666Y-54427523D01*
X120257428Y-54475142D01*
X120209809Y-54522761D01*
X120162190Y-54618000D01*
X120114571Y-54808476D01*
X120066952Y-54903714D01*
X120019333Y-54951333D01*
X119924095Y-54998952D01*
X119828857Y-54998952D01*
X119733619Y-54951333D01*
X119686000Y-54903714D01*
X119638380Y-54808476D01*
X119638380Y-54570380D01*
X119686000Y-54427523D01*
X119638380Y-54094190D02*
X119638380Y-53427523D01*
X120638380Y-53856095D01*
X119971714Y-52618000D02*
X120638380Y-52618000D01*
X119590761Y-52856095D02*
X120305047Y-53094190D01*
X120305047Y-52475142D01*
X109688380Y-55879904D02*
X110497904Y-55879904D01*
X110593142Y-55832285D01*
X110640761Y-55784666D01*
X110688380Y-55689428D01*
X110688380Y-55498952D01*
X110640761Y-55403714D01*
X110593142Y-55356095D01*
X110497904Y-55308476D01*
X109688380Y-55308476D01*
X110688380Y-54308476D02*
X110688380Y-54879904D01*
X110688380Y-54594190D02*
X109688380Y-54594190D01*
X109831238Y-54689428D01*
X109926476Y-54784666D01*
X109974095Y-54879904D01*
%TO.C,U2*%
X138942380Y-71222857D02*
X138942380Y-70556190D01*
X139942380Y-70984761D01*
X139275714Y-69746666D02*
X139942380Y-69746666D01*
X138894761Y-69984761D02*
X139609047Y-70222857D01*
X139609047Y-69603809D01*
X139942380Y-68746666D02*
X139942380Y-69222857D01*
X138942380Y-69222857D01*
X139894761Y-68460952D02*
X139942380Y-68318095D01*
X139942380Y-68080000D01*
X139894761Y-67984761D01*
X139847142Y-67937142D01*
X139751904Y-67889523D01*
X139656666Y-67889523D01*
X139561428Y-67937142D01*
X139513809Y-67984761D01*
X139466190Y-68080000D01*
X139418571Y-68270476D01*
X139370952Y-68365714D01*
X139323333Y-68413333D01*
X139228095Y-68460952D01*
X139132857Y-68460952D01*
X139037619Y-68413333D01*
X138990000Y-68365714D01*
X138942380Y-68270476D01*
X138942380Y-68032380D01*
X138990000Y-67889523D01*
X138942380Y-67270476D02*
X138942380Y-67175238D01*
X138990000Y-67080000D01*
X139037619Y-67032380D01*
X139132857Y-66984761D01*
X139323333Y-66937142D01*
X139561428Y-66937142D01*
X139751904Y-66984761D01*
X139847142Y-67032380D01*
X139894761Y-67080000D01*
X139942380Y-67175238D01*
X139942380Y-67270476D01*
X139894761Y-67365714D01*
X139847142Y-67413333D01*
X139751904Y-67460952D01*
X139561428Y-67508571D01*
X139323333Y-67508571D01*
X139132857Y-67460952D01*
X139037619Y-67413333D01*
X138990000Y-67365714D01*
X138942380Y-67270476D01*
X139037619Y-66556190D02*
X138990000Y-66508571D01*
X138942380Y-66413333D01*
X138942380Y-66175238D01*
X138990000Y-66080000D01*
X139037619Y-66032380D01*
X139132857Y-65984761D01*
X139228095Y-65984761D01*
X139370952Y-66032380D01*
X139942380Y-66603809D01*
X139942380Y-65984761D01*
X128992380Y-69341904D02*
X129801904Y-69341904D01*
X129897142Y-69294285D01*
X129944761Y-69246666D01*
X129992380Y-69151428D01*
X129992380Y-68960952D01*
X129944761Y-68865714D01*
X129897142Y-68818095D01*
X129801904Y-68770476D01*
X128992380Y-68770476D01*
X129087619Y-68341904D02*
X129040000Y-68294285D01*
X128992380Y-68199047D01*
X128992380Y-67960952D01*
X129040000Y-67865714D01*
X129087619Y-67818095D01*
X129182857Y-67770476D01*
X129278095Y-67770476D01*
X129420952Y-67818095D01*
X129992380Y-68389523D01*
X129992380Y-67770476D01*
%TO.C,U3*%
X138942380Y-57252857D02*
X138942380Y-56586190D01*
X139942380Y-57014761D01*
X139275714Y-55776666D02*
X139942380Y-55776666D01*
X138894761Y-56014761D02*
X139609047Y-56252857D01*
X139609047Y-55633809D01*
X139942380Y-54776666D02*
X139942380Y-55252857D01*
X138942380Y-55252857D01*
X139894761Y-54490952D02*
X139942380Y-54348095D01*
X139942380Y-54110000D01*
X139894761Y-54014761D01*
X139847142Y-53967142D01*
X139751904Y-53919523D01*
X139656666Y-53919523D01*
X139561428Y-53967142D01*
X139513809Y-54014761D01*
X139466190Y-54110000D01*
X139418571Y-54300476D01*
X139370952Y-54395714D01*
X139323333Y-54443333D01*
X139228095Y-54490952D01*
X139132857Y-54490952D01*
X139037619Y-54443333D01*
X138990000Y-54395714D01*
X138942380Y-54300476D01*
X138942380Y-54062380D01*
X138990000Y-53919523D01*
X138942380Y-53300476D02*
X138942380Y-53205238D01*
X138990000Y-53110000D01*
X139037619Y-53062380D01*
X139132857Y-53014761D01*
X139323333Y-52967142D01*
X139561428Y-52967142D01*
X139751904Y-53014761D01*
X139847142Y-53062380D01*
X139894761Y-53110000D01*
X139942380Y-53205238D01*
X139942380Y-53300476D01*
X139894761Y-53395714D01*
X139847142Y-53443333D01*
X139751904Y-53490952D01*
X139561428Y-53538571D01*
X139323333Y-53538571D01*
X139132857Y-53490952D01*
X139037619Y-53443333D01*
X138990000Y-53395714D01*
X138942380Y-53300476D01*
X139370952Y-52395714D02*
X139323333Y-52490952D01*
X139275714Y-52538571D01*
X139180476Y-52586190D01*
X139132857Y-52586190D01*
X139037619Y-52538571D01*
X138990000Y-52490952D01*
X138942380Y-52395714D01*
X138942380Y-52205238D01*
X138990000Y-52110000D01*
X139037619Y-52062380D01*
X139132857Y-52014761D01*
X139180476Y-52014761D01*
X139275714Y-52062380D01*
X139323333Y-52110000D01*
X139370952Y-52205238D01*
X139370952Y-52395714D01*
X139418571Y-52490952D01*
X139466190Y-52538571D01*
X139561428Y-52586190D01*
X139751904Y-52586190D01*
X139847142Y-52538571D01*
X139894761Y-52490952D01*
X139942380Y-52395714D01*
X139942380Y-52205238D01*
X139894761Y-52110000D01*
X139847142Y-52062380D01*
X139751904Y-52014761D01*
X139561428Y-52014761D01*
X139466190Y-52062380D01*
X139418571Y-52110000D01*
X139370952Y-52205238D01*
X128992380Y-55371904D02*
X129801904Y-55371904D01*
X129897142Y-55324285D01*
X129944761Y-55276666D01*
X129992380Y-55181428D01*
X129992380Y-54990952D01*
X129944761Y-54895714D01*
X129897142Y-54848095D01*
X129801904Y-54800476D01*
X128992380Y-54800476D01*
X128992380Y-54419523D02*
X128992380Y-53800476D01*
X129373333Y-54133809D01*
X129373333Y-53990952D01*
X129420952Y-53895714D01*
X129468571Y-53848095D01*
X129563809Y-53800476D01*
X129801904Y-53800476D01*
X129897142Y-53848095D01*
X129944761Y-53895714D01*
X129992380Y-53990952D01*
X129992380Y-54276666D01*
X129944761Y-54371904D01*
X129897142Y-54419523D01*
%TO.C,U4*%
X203966380Y-75445619D02*
X203966380Y-74778952D01*
X204966380Y-75445619D01*
X204966380Y-74778952D01*
X204394952Y-74255142D02*
X204347333Y-74350380D01*
X204299714Y-74398000D01*
X204204476Y-74445619D01*
X204156857Y-74445619D01*
X204061619Y-74398000D01*
X204014000Y-74350380D01*
X203966380Y-74255142D01*
X203966380Y-74064666D01*
X204014000Y-73969428D01*
X204061619Y-73921809D01*
X204156857Y-73874190D01*
X204204476Y-73874190D01*
X204299714Y-73921809D01*
X204347333Y-73969428D01*
X204394952Y-74064666D01*
X204394952Y-74255142D01*
X204442571Y-74350380D01*
X204490190Y-74398000D01*
X204585428Y-74445619D01*
X204775904Y-74445619D01*
X204871142Y-74398000D01*
X204918761Y-74350380D01*
X204966380Y-74255142D01*
X204966380Y-74064666D01*
X204918761Y-73969428D01*
X204871142Y-73921809D01*
X204775904Y-73874190D01*
X204585428Y-73874190D01*
X204490190Y-73921809D01*
X204442571Y-73969428D01*
X204394952Y-74064666D01*
X203966380Y-73255142D02*
X203966380Y-73159904D01*
X204014000Y-73064666D01*
X204061619Y-73017047D01*
X204156857Y-72969428D01*
X204347333Y-72921809D01*
X204585428Y-72921809D01*
X204775904Y-72969428D01*
X204871142Y-73017047D01*
X204918761Y-73064666D01*
X204966380Y-73159904D01*
X204966380Y-73255142D01*
X204918761Y-73350380D01*
X204871142Y-73398000D01*
X204775904Y-73445619D01*
X204585428Y-73493238D01*
X204347333Y-73493238D01*
X204156857Y-73445619D01*
X204061619Y-73398000D01*
X204014000Y-73350380D01*
X203966380Y-73255142D01*
X204966380Y-72493238D02*
X203966380Y-72493238D01*
X203966380Y-72112285D01*
X204014000Y-72017047D01*
X204061619Y-71969428D01*
X204156857Y-71921809D01*
X204299714Y-71921809D01*
X204394952Y-71969428D01*
X204442571Y-72017047D01*
X204490190Y-72112285D01*
X204490190Y-72493238D01*
X204966380Y-71493238D02*
X203966380Y-71493238D01*
X203966380Y-70826571D02*
X203966380Y-70636095D01*
X204014000Y-70540857D01*
X204109238Y-70445619D01*
X204299714Y-70398000D01*
X204633047Y-70398000D01*
X204823523Y-70445619D01*
X204918761Y-70540857D01*
X204966380Y-70636095D01*
X204966380Y-70826571D01*
X204918761Y-70921809D01*
X204823523Y-71017047D01*
X204633047Y-71064666D01*
X204299714Y-71064666D01*
X204109238Y-71017047D01*
X204014000Y-70921809D01*
X203966380Y-70826571D01*
X177506380Y-73659904D02*
X178315904Y-73659904D01*
X178411142Y-73612285D01*
X178458761Y-73564666D01*
X178506380Y-73469428D01*
X178506380Y-73278952D01*
X178458761Y-73183714D01*
X178411142Y-73136095D01*
X178315904Y-73088476D01*
X177506380Y-73088476D01*
X177839714Y-72183714D02*
X178506380Y-72183714D01*
X177458761Y-72421809D02*
X178173047Y-72659904D01*
X178173047Y-72040857D01*
%TO.C,U5*%
X144324000Y-43576571D02*
X144276380Y-43671809D01*
X144276380Y-43814666D01*
X144324000Y-43957523D01*
X144419238Y-44052761D01*
X144514476Y-44100380D01*
X144704952Y-44148000D01*
X144847809Y-44148000D01*
X145038285Y-44100380D01*
X145133523Y-44052761D01*
X145228761Y-43957523D01*
X145276380Y-43814666D01*
X145276380Y-43719428D01*
X145228761Y-43576571D01*
X145181142Y-43528952D01*
X144847809Y-43528952D01*
X144847809Y-43719428D01*
X144990666Y-43148000D02*
X144990666Y-42671809D01*
X145276380Y-43243238D02*
X144276380Y-42909904D01*
X145276380Y-42576571D01*
X145276380Y-41767047D02*
X145276380Y-42243238D01*
X144276380Y-42243238D01*
X145276380Y-40909904D02*
X145276380Y-41481333D01*
X145276380Y-41195619D02*
X144276380Y-41195619D01*
X144419238Y-41290857D01*
X144514476Y-41386095D01*
X144562095Y-41481333D01*
X144276380Y-40052761D02*
X144276380Y-40243238D01*
X144324000Y-40338476D01*
X144371619Y-40386095D01*
X144514476Y-40481333D01*
X144704952Y-40528952D01*
X145085904Y-40528952D01*
X145181142Y-40481333D01*
X145228761Y-40433714D01*
X145276380Y-40338476D01*
X145276380Y-40148000D01*
X145228761Y-40052761D01*
X145181142Y-40005142D01*
X145085904Y-39957523D01*
X144847809Y-39957523D01*
X144752571Y-40005142D01*
X144704952Y-40052761D01*
X144657333Y-40148000D01*
X144657333Y-40338476D01*
X144704952Y-40433714D01*
X144752571Y-40481333D01*
X144847809Y-40528952D01*
X144276380Y-39671809D02*
X145276380Y-39338476D01*
X144276380Y-39005142D01*
X144704952Y-38528952D02*
X144657333Y-38624190D01*
X144609714Y-38671809D01*
X144514476Y-38719428D01*
X144466857Y-38719428D01*
X144371619Y-38671809D01*
X144324000Y-38624190D01*
X144276380Y-38528952D01*
X144276380Y-38338476D01*
X144324000Y-38243238D01*
X144371619Y-38195619D01*
X144466857Y-38148000D01*
X144514476Y-38148000D01*
X144609714Y-38195619D01*
X144657333Y-38243238D01*
X144704952Y-38338476D01*
X144704952Y-38528952D01*
X144752571Y-38624190D01*
X144800190Y-38671809D01*
X144895428Y-38719428D01*
X145085904Y-38719428D01*
X145181142Y-38671809D01*
X145228761Y-38624190D01*
X145276380Y-38528952D01*
X145276380Y-38338476D01*
X145228761Y-38243238D01*
X145181142Y-38195619D01*
X145085904Y-38148000D01*
X144895428Y-38148000D01*
X144800190Y-38195619D01*
X144752571Y-38243238D01*
X144704952Y-38338476D01*
X130516380Y-41909904D02*
X131325904Y-41909904D01*
X131421142Y-41862285D01*
X131468761Y-41814666D01*
X131516380Y-41719428D01*
X131516380Y-41528952D01*
X131468761Y-41433714D01*
X131421142Y-41386095D01*
X131325904Y-41338476D01*
X130516380Y-41338476D01*
X130516380Y-40386095D02*
X130516380Y-40862285D01*
X130992571Y-40909904D01*
X130944952Y-40862285D01*
X130897333Y-40767047D01*
X130897333Y-40528952D01*
X130944952Y-40433714D01*
X130992571Y-40386095D01*
X131087809Y-40338476D01*
X131325904Y-40338476D01*
X131421142Y-40386095D01*
X131468761Y-40433714D01*
X131516380Y-40528952D01*
X131516380Y-40767047D01*
X131468761Y-40862285D01*
X131421142Y-40909904D01*
%TO.C,U6*%
X189980380Y-119998761D02*
X188980380Y-119998761D01*
X189694666Y-119665428D01*
X188980380Y-119332095D01*
X189980380Y-119332095D01*
X189694666Y-118903523D02*
X189694666Y-118427333D01*
X189980380Y-118998761D02*
X188980380Y-118665428D01*
X189980380Y-118332095D01*
X188980380Y-118094000D02*
X189980380Y-117427333D01*
X188980380Y-117427333D02*
X189980380Y-118094000D01*
X189075619Y-117094000D02*
X189028000Y-117046380D01*
X188980380Y-116951142D01*
X188980380Y-116713047D01*
X189028000Y-116617809D01*
X189075619Y-116570190D01*
X189170857Y-116522571D01*
X189266095Y-116522571D01*
X189408952Y-116570190D01*
X189980380Y-117141619D01*
X189980380Y-116522571D01*
X188980380Y-116189238D02*
X188980380Y-115570190D01*
X189361333Y-115903523D01*
X189361333Y-115760666D01*
X189408952Y-115665428D01*
X189456571Y-115617809D01*
X189551809Y-115570190D01*
X189789904Y-115570190D01*
X189885142Y-115617809D01*
X189932761Y-115665428D01*
X189980380Y-115760666D01*
X189980380Y-116046380D01*
X189932761Y-116141619D01*
X189885142Y-116189238D01*
X189075619Y-115189238D02*
X189028000Y-115141619D01*
X188980380Y-115046380D01*
X188980380Y-114808285D01*
X189028000Y-114713047D01*
X189075619Y-114665428D01*
X189170857Y-114617809D01*
X189266095Y-114617809D01*
X189408952Y-114665428D01*
X189980380Y-115236857D01*
X189980380Y-114617809D01*
X189980380Y-114189238D02*
X188980380Y-114189238D01*
X177760380Y-117855904D02*
X178569904Y-117855904D01*
X178665142Y-117808285D01*
X178712761Y-117760666D01*
X178760380Y-117665428D01*
X178760380Y-117474952D01*
X178712761Y-117379714D01*
X178665142Y-117332095D01*
X178569904Y-117284476D01*
X177760380Y-117284476D01*
X177760380Y-116379714D02*
X177760380Y-116570190D01*
X177808000Y-116665428D01*
X177855619Y-116713047D01*
X177998476Y-116808285D01*
X178188952Y-116855904D01*
X178569904Y-116855904D01*
X178665142Y-116808285D01*
X178712761Y-116760666D01*
X178760380Y-116665428D01*
X178760380Y-116474952D01*
X178712761Y-116379714D01*
X178665142Y-116332095D01*
X178569904Y-116284476D01*
X178331809Y-116284476D01*
X178236571Y-116332095D01*
X178188952Y-116379714D01*
X178141333Y-116474952D01*
X178141333Y-116665428D01*
X178188952Y-116760666D01*
X178236571Y-116808285D01*
X178331809Y-116855904D01*
%TO.C,U7*%
X189980380Y-104758761D02*
X188980380Y-104758761D01*
X189694666Y-104425428D01*
X188980380Y-104092095D01*
X189980380Y-104092095D01*
X189694666Y-103663523D02*
X189694666Y-103187333D01*
X189980380Y-103758761D02*
X188980380Y-103425428D01*
X189980380Y-103092095D01*
X188980380Y-102854000D02*
X189980380Y-102187333D01*
X188980380Y-102187333D02*
X189980380Y-102854000D01*
X189075619Y-101854000D02*
X189028000Y-101806380D01*
X188980380Y-101711142D01*
X188980380Y-101473047D01*
X189028000Y-101377809D01*
X189075619Y-101330190D01*
X189170857Y-101282571D01*
X189266095Y-101282571D01*
X189408952Y-101330190D01*
X189980380Y-101901619D01*
X189980380Y-101282571D01*
X188980380Y-100949238D02*
X188980380Y-100330190D01*
X189361333Y-100663523D01*
X189361333Y-100520666D01*
X189408952Y-100425428D01*
X189456571Y-100377809D01*
X189551809Y-100330190D01*
X189789904Y-100330190D01*
X189885142Y-100377809D01*
X189932761Y-100425428D01*
X189980380Y-100520666D01*
X189980380Y-100806380D01*
X189932761Y-100901619D01*
X189885142Y-100949238D01*
X189075619Y-99949238D02*
X189028000Y-99901619D01*
X188980380Y-99806380D01*
X188980380Y-99568285D01*
X189028000Y-99473047D01*
X189075619Y-99425428D01*
X189170857Y-99377809D01*
X189266095Y-99377809D01*
X189408952Y-99425428D01*
X189980380Y-99996857D01*
X189980380Y-99377809D01*
X189980380Y-98949238D02*
X188980380Y-98949238D01*
X177760380Y-102615904D02*
X178569904Y-102615904D01*
X178665142Y-102568285D01*
X178712761Y-102520666D01*
X178760380Y-102425428D01*
X178760380Y-102234952D01*
X178712761Y-102139714D01*
X178665142Y-102092095D01*
X178569904Y-102044476D01*
X177760380Y-102044476D01*
X177760380Y-101663523D02*
X177760380Y-100996857D01*
X178760380Y-101425428D01*
%TD*%
M02*
