%TF.GenerationSoftware,KiCad,Pcbnew,(5.1.10)-1*%
%TF.CreationDate,2024-03-27T07:56:36+01:00*%
%TF.ProjectId,KIM,4b494d2e-6b69-4636-9164-5f7063625858,rev?*%
%TF.SameCoordinates,Original*%
%TF.FileFunction,Soldermask,Top*%
%TF.FilePolarity,Negative*%
%FSLAX46Y46*%
G04 Gerber Fmt 4.6, Leading zero omitted, Abs format (unit mm)*
G04 Created by KiCad (PCBNEW (5.1.10)-1) date 2024-03-27 07:56:36*
%MOMM*%
%LPD*%
G01*
G04 APERTURE LIST*
%ADD10C,4.100000*%
%ADD11C,1.700000*%
%ADD12O,1.700000X1.700000*%
%ADD13O,1.800000X1.800000*%
%ADD14O,2.500000X2.500000*%
%ADD15O,1.700000X2.500000*%
G04 APERTURE END LIST*
D10*
%TO.C,J4*%
X129038000Y-129332000D03*
X104038000Y-129332000D03*
D11*
X120693000Y-131872000D03*
X117923000Y-131872000D03*
X115153000Y-131872000D03*
X112383000Y-131872000D03*
X122078000Y-129032000D03*
X119308000Y-129032000D03*
X116538000Y-129032000D03*
X113768000Y-129032000D03*
G36*
G01*
X110148000Y-129832000D02*
X110148000Y-128232000D01*
G75*
G02*
X110198000Y-128182000I50000J0D01*
G01*
X111798000Y-128182000D01*
G75*
G02*
X111848000Y-128232000I0J-50000D01*
G01*
X111848000Y-129832000D01*
G75*
G02*
X111798000Y-129882000I-50000J0D01*
G01*
X110198000Y-129882000D01*
G75*
G02*
X110148000Y-129832000I0J50000D01*
G01*
G37*
%TD*%
D10*
%TO.C,J3*%
X192634000Y-129840000D03*
X167634000Y-129840000D03*
D11*
X175979000Y-132380000D03*
X178749000Y-132380000D03*
X181519000Y-132380000D03*
X184289000Y-132380000D03*
X174594000Y-129540000D03*
X177364000Y-129540000D03*
X180134000Y-129540000D03*
X182904000Y-129540000D03*
G36*
G01*
X184824000Y-130340000D02*
X184824000Y-128740000D01*
G75*
G02*
X184874000Y-128690000I50000J0D01*
G01*
X186474000Y-128690000D01*
G75*
G02*
X186524000Y-128740000I0J-50000D01*
G01*
X186524000Y-130340000D01*
G75*
G02*
X186474000Y-130390000I-50000J0D01*
G01*
X184874000Y-130390000D01*
G75*
G02*
X184824000Y-130340000I0J50000D01*
G01*
G37*
%TD*%
D10*
%TO.C,J2*%
X160331000Y-130320000D03*
X135331000Y-130320000D03*
D11*
X142986000Y-132230000D03*
X145276000Y-132230000D03*
X147566000Y-132230000D03*
X149856000Y-132230000D03*
X152146000Y-132230000D03*
X144131000Y-130250000D03*
X146421000Y-130250000D03*
X148711000Y-130250000D03*
X151001000Y-130250000D03*
X153291000Y-130250000D03*
X142986000Y-128270000D03*
X145276000Y-128270000D03*
X147566000Y-128270000D03*
X149856000Y-128270000D03*
G36*
G01*
X151296000Y-129070000D02*
X151296000Y-127470000D01*
G75*
G02*
X151346000Y-127420000I50000J0D01*
G01*
X152946000Y-127420000D01*
G75*
G02*
X152996000Y-127470000I0J-50000D01*
G01*
X152996000Y-129070000D01*
G75*
G02*
X152946000Y-129120000I-50000J0D01*
G01*
X151346000Y-129120000D01*
G75*
G02*
X151296000Y-129070000I0J50000D01*
G01*
G37*
%TD*%
%TO.C,XM1*%
G36*
G01*
X116976000Y-21278000D02*
X116976000Y-14998000D01*
G75*
G02*
X117136000Y-14838000I160000J0D01*
G01*
X118416000Y-14838000D01*
G75*
G02*
X118576000Y-14998000I0J-160000D01*
G01*
X118576000Y-21278000D01*
G75*
G02*
X118416000Y-21438000I-160000J0D01*
G01*
X117136000Y-21438000D01*
G75*
G02*
X116976000Y-21278000I0J160000D01*
G01*
G37*
G36*
G01*
X119476000Y-21278000D02*
X119476000Y-14998000D01*
G75*
G02*
X119636000Y-14838000I160000J0D01*
G01*
X120916000Y-14838000D01*
G75*
G02*
X121076000Y-14998000I0J-160000D01*
G01*
X121076000Y-21278000D01*
G75*
G02*
X120916000Y-21438000I-160000J0D01*
G01*
X119636000Y-21438000D01*
G75*
G02*
X119476000Y-21278000I0J160000D01*
G01*
G37*
G36*
G01*
X121976000Y-21278000D02*
X121976000Y-14998000D01*
G75*
G02*
X122136000Y-14838000I160000J0D01*
G01*
X123416000Y-14838000D01*
G75*
G02*
X123576000Y-14998000I0J-160000D01*
G01*
X123576000Y-21278000D01*
G75*
G02*
X123416000Y-21438000I-160000J0D01*
G01*
X122136000Y-21438000D01*
G75*
G02*
X121976000Y-21278000I0J160000D01*
G01*
G37*
G36*
G01*
X124476000Y-21278000D02*
X124476000Y-14998000D01*
G75*
G02*
X124636000Y-14838000I160000J0D01*
G01*
X125916000Y-14838000D01*
G75*
G02*
X126076000Y-14998000I0J-160000D01*
G01*
X126076000Y-21278000D01*
G75*
G02*
X125916000Y-21438000I-160000J0D01*
G01*
X124636000Y-21438000D01*
G75*
G02*
X124476000Y-21278000I0J160000D01*
G01*
G37*
G36*
G01*
X129476000Y-21278000D02*
X129476000Y-14998000D01*
G75*
G02*
X129636000Y-14838000I160000J0D01*
G01*
X130916000Y-14838000D01*
G75*
G02*
X131076000Y-14998000I0J-160000D01*
G01*
X131076000Y-21278000D01*
G75*
G02*
X130916000Y-21438000I-160000J0D01*
G01*
X129636000Y-21438000D01*
G75*
G02*
X129476000Y-21278000I0J160000D01*
G01*
G37*
G36*
G01*
X131976000Y-21278000D02*
X131976000Y-14998000D01*
G75*
G02*
X132136000Y-14838000I160000J0D01*
G01*
X133416000Y-14838000D01*
G75*
G02*
X133576000Y-14998000I0J-160000D01*
G01*
X133576000Y-21278000D01*
G75*
G02*
X133416000Y-21438000I-160000J0D01*
G01*
X132136000Y-21438000D01*
G75*
G02*
X131976000Y-21278000I0J160000D01*
G01*
G37*
G36*
G01*
X149476000Y-21278000D02*
X149476000Y-14998000D01*
G75*
G02*
X149636000Y-14838000I160000J0D01*
G01*
X150916000Y-14838000D01*
G75*
G02*
X151076000Y-14998000I0J-160000D01*
G01*
X151076000Y-21278000D01*
G75*
G02*
X150916000Y-21438000I-160000J0D01*
G01*
X149636000Y-21438000D01*
G75*
G02*
X149476000Y-21278000I0J160000D01*
G01*
G37*
G36*
G01*
X136976000Y-21278000D02*
X136976000Y-14998000D01*
G75*
G02*
X137136000Y-14838000I160000J0D01*
G01*
X138416000Y-14838000D01*
G75*
G02*
X138576000Y-14998000I0J-160000D01*
G01*
X138576000Y-21278000D01*
G75*
G02*
X138416000Y-21438000I-160000J0D01*
G01*
X137136000Y-21438000D01*
G75*
G02*
X136976000Y-21278000I0J160000D01*
G01*
G37*
G36*
G01*
X161976000Y-21278000D02*
X161976000Y-14998000D01*
G75*
G02*
X162136000Y-14838000I160000J0D01*
G01*
X163416000Y-14838000D01*
G75*
G02*
X163576000Y-14998000I0J-160000D01*
G01*
X163576000Y-21278000D01*
G75*
G02*
X163416000Y-21438000I-160000J0D01*
G01*
X162136000Y-21438000D01*
G75*
G02*
X161976000Y-21278000I0J160000D01*
G01*
G37*
G36*
G01*
X159476000Y-21278000D02*
X159476000Y-14998000D01*
G75*
G02*
X159636000Y-14838000I160000J0D01*
G01*
X160916000Y-14838000D01*
G75*
G02*
X161076000Y-14998000I0J-160000D01*
G01*
X161076000Y-21278000D01*
G75*
G02*
X160916000Y-21438000I-160000J0D01*
G01*
X159636000Y-21438000D01*
G75*
G02*
X159476000Y-21278000I0J160000D01*
G01*
G37*
G36*
G01*
X156976000Y-21278000D02*
X156976000Y-14998000D01*
G75*
G02*
X157136000Y-14838000I160000J0D01*
G01*
X158416000Y-14838000D01*
G75*
G02*
X158576000Y-14998000I0J-160000D01*
G01*
X158576000Y-21278000D01*
G75*
G02*
X158416000Y-21438000I-160000J0D01*
G01*
X157136000Y-21438000D01*
G75*
G02*
X156976000Y-21278000I0J160000D01*
G01*
G37*
G36*
G01*
X154476000Y-21278000D02*
X154476000Y-14998000D01*
G75*
G02*
X154636000Y-14838000I160000J0D01*
G01*
X155916000Y-14838000D01*
G75*
G02*
X156076000Y-14998000I0J-160000D01*
G01*
X156076000Y-21278000D01*
G75*
G02*
X155916000Y-21438000I-160000J0D01*
G01*
X154636000Y-21438000D01*
G75*
G02*
X154476000Y-21278000I0J160000D01*
G01*
G37*
G36*
G01*
X151976000Y-21278000D02*
X151976000Y-14998000D01*
G75*
G02*
X152136000Y-14838000I160000J0D01*
G01*
X153416000Y-14838000D01*
G75*
G02*
X153576000Y-14998000I0J-160000D01*
G01*
X153576000Y-21278000D01*
G75*
G02*
X153416000Y-21438000I-160000J0D01*
G01*
X152136000Y-21438000D01*
G75*
G02*
X151976000Y-21278000I0J160000D01*
G01*
G37*
G36*
G01*
X146976000Y-21278000D02*
X146976000Y-14998000D01*
G75*
G02*
X147136000Y-14838000I160000J0D01*
G01*
X148416000Y-14838000D01*
G75*
G02*
X148576000Y-14998000I0J-160000D01*
G01*
X148576000Y-21278000D01*
G75*
G02*
X148416000Y-21438000I-160000J0D01*
G01*
X147136000Y-21438000D01*
G75*
G02*
X146976000Y-21278000I0J160000D01*
G01*
G37*
G36*
G01*
X144476000Y-21278000D02*
X144476000Y-14998000D01*
G75*
G02*
X144636000Y-14838000I160000J0D01*
G01*
X145916000Y-14838000D01*
G75*
G02*
X146076000Y-14998000I0J-160000D01*
G01*
X146076000Y-21278000D01*
G75*
G02*
X145916000Y-21438000I-160000J0D01*
G01*
X144636000Y-21438000D01*
G75*
G02*
X144476000Y-21278000I0J160000D01*
G01*
G37*
G36*
G01*
X141976000Y-21278000D02*
X141976000Y-14998000D01*
G75*
G02*
X142136000Y-14838000I160000J0D01*
G01*
X143416000Y-14838000D01*
G75*
G02*
X143576000Y-14998000I0J-160000D01*
G01*
X143576000Y-21278000D01*
G75*
G02*
X143416000Y-21438000I-160000J0D01*
G01*
X142136000Y-21438000D01*
G75*
G02*
X141976000Y-21278000I0J160000D01*
G01*
G37*
G36*
G01*
X139476000Y-21278000D02*
X139476000Y-14998000D01*
G75*
G02*
X139636000Y-14838000I160000J0D01*
G01*
X140916000Y-14838000D01*
G75*
G02*
X141076000Y-14998000I0J-160000D01*
G01*
X141076000Y-21278000D01*
G75*
G02*
X140916000Y-21438000I-160000J0D01*
G01*
X139636000Y-21438000D01*
G75*
G02*
X139476000Y-21278000I0J160000D01*
G01*
G37*
G36*
G01*
X184476000Y-21278000D02*
X184476000Y-14998000D01*
G75*
G02*
X184636000Y-14838000I160000J0D01*
G01*
X185916000Y-14838000D01*
G75*
G02*
X186076000Y-14998000I0J-160000D01*
G01*
X186076000Y-21278000D01*
G75*
G02*
X185916000Y-21438000I-160000J0D01*
G01*
X184636000Y-21438000D01*
G75*
G02*
X184476000Y-21278000I0J160000D01*
G01*
G37*
G36*
G01*
X134476000Y-21278000D02*
X134476000Y-14998000D01*
G75*
G02*
X134636000Y-14838000I160000J0D01*
G01*
X135916000Y-14838000D01*
G75*
G02*
X136076000Y-14998000I0J-160000D01*
G01*
X136076000Y-21278000D01*
G75*
G02*
X135916000Y-21438000I-160000J0D01*
G01*
X134636000Y-21438000D01*
G75*
G02*
X134476000Y-21278000I0J160000D01*
G01*
G37*
G36*
G01*
X126976000Y-21278000D02*
X126976000Y-14998000D01*
G75*
G02*
X127136000Y-14838000I160000J0D01*
G01*
X128416000Y-14838000D01*
G75*
G02*
X128576000Y-14998000I0J-160000D01*
G01*
X128576000Y-21278000D01*
G75*
G02*
X128416000Y-21438000I-160000J0D01*
G01*
X127136000Y-21438000D01*
G75*
G02*
X126976000Y-21278000I0J160000D01*
G01*
G37*
G36*
G01*
X114476000Y-21278000D02*
X114476000Y-14998000D01*
G75*
G02*
X114636000Y-14838000I160000J0D01*
G01*
X115916000Y-14838000D01*
G75*
G02*
X116076000Y-14998000I0J-160000D01*
G01*
X116076000Y-21278000D01*
G75*
G02*
X115916000Y-21438000I-160000J0D01*
G01*
X114636000Y-21438000D01*
G75*
G02*
X114476000Y-21278000I0J160000D01*
G01*
G37*
G36*
G01*
X181976000Y-21278000D02*
X181976000Y-14998000D01*
G75*
G02*
X182136000Y-14838000I160000J0D01*
G01*
X183416000Y-14838000D01*
G75*
G02*
X183576000Y-14998000I0J-160000D01*
G01*
X183576000Y-21278000D01*
G75*
G02*
X183416000Y-21438000I-160000J0D01*
G01*
X182136000Y-21438000D01*
G75*
G02*
X181976000Y-21278000I0J160000D01*
G01*
G37*
G36*
G01*
X176976000Y-21278000D02*
X176976000Y-14998000D01*
G75*
G02*
X177136000Y-14838000I160000J0D01*
G01*
X178416000Y-14838000D01*
G75*
G02*
X178576000Y-14998000I0J-160000D01*
G01*
X178576000Y-21278000D01*
G75*
G02*
X178416000Y-21438000I-160000J0D01*
G01*
X177136000Y-21438000D01*
G75*
G02*
X176976000Y-21278000I0J160000D01*
G01*
G37*
G36*
G01*
X174476000Y-21278000D02*
X174476000Y-14998000D01*
G75*
G02*
X174636000Y-14838000I160000J0D01*
G01*
X175916000Y-14838000D01*
G75*
G02*
X176076000Y-14998000I0J-160000D01*
G01*
X176076000Y-21278000D01*
G75*
G02*
X175916000Y-21438000I-160000J0D01*
G01*
X174636000Y-21438000D01*
G75*
G02*
X174476000Y-21278000I0J160000D01*
G01*
G37*
G36*
G01*
X171976000Y-21278000D02*
X171976000Y-14998000D01*
G75*
G02*
X172136000Y-14838000I160000J0D01*
G01*
X173416000Y-14838000D01*
G75*
G02*
X173576000Y-14998000I0J-160000D01*
G01*
X173576000Y-21278000D01*
G75*
G02*
X173416000Y-21438000I-160000J0D01*
G01*
X172136000Y-21438000D01*
G75*
G02*
X171976000Y-21278000I0J160000D01*
G01*
G37*
G36*
G01*
X169476000Y-21278000D02*
X169476000Y-14998000D01*
G75*
G02*
X169636000Y-14838000I160000J0D01*
G01*
X170916000Y-14838000D01*
G75*
G02*
X171076000Y-14998000I0J-160000D01*
G01*
X171076000Y-21278000D01*
G75*
G02*
X170916000Y-21438000I-160000J0D01*
G01*
X169636000Y-21438000D01*
G75*
G02*
X169476000Y-21278000I0J160000D01*
G01*
G37*
G36*
G01*
X166976000Y-21278000D02*
X166976000Y-14998000D01*
G75*
G02*
X167136000Y-14838000I160000J0D01*
G01*
X168416000Y-14838000D01*
G75*
G02*
X168576000Y-14998000I0J-160000D01*
G01*
X168576000Y-21278000D01*
G75*
G02*
X168416000Y-21438000I-160000J0D01*
G01*
X167136000Y-21438000D01*
G75*
G02*
X166976000Y-21278000I0J160000D01*
G01*
G37*
G36*
G01*
X164476000Y-21278000D02*
X164476000Y-14998000D01*
G75*
G02*
X164636000Y-14838000I160000J0D01*
G01*
X165916000Y-14838000D01*
G75*
G02*
X166076000Y-14998000I0J-160000D01*
G01*
X166076000Y-21278000D01*
G75*
G02*
X165916000Y-21438000I-160000J0D01*
G01*
X164636000Y-21438000D01*
G75*
G02*
X164476000Y-21278000I0J160000D01*
G01*
G37*
%TD*%
D12*
%TO.C,RN2*%
X122174000Y-117602000D03*
X119634000Y-117602000D03*
X117094000Y-117602000D03*
X114554000Y-117602000D03*
X112014000Y-117602000D03*
X109474000Y-117602000D03*
X106934000Y-117602000D03*
G36*
G01*
X103544000Y-118402000D02*
X103544000Y-116802000D01*
G75*
G02*
X103594000Y-116752000I50000J0D01*
G01*
X105194000Y-116752000D01*
G75*
G02*
X105244000Y-116802000I0J-50000D01*
G01*
X105244000Y-118402000D01*
G75*
G02*
X105194000Y-118452000I-50000J0D01*
G01*
X103594000Y-118452000D01*
G75*
G02*
X103544000Y-118402000I0J50000D01*
G01*
G37*
%TD*%
D13*
%TO.C,J1*%
X108712000Y-43434000D03*
G36*
G01*
X107812000Y-41744000D02*
X107812000Y-40044000D01*
G75*
G02*
X107862000Y-39994000I50000J0D01*
G01*
X109562000Y-39994000D01*
G75*
G02*
X109612000Y-40044000I0J-50000D01*
G01*
X109612000Y-41744000D01*
G75*
G02*
X109562000Y-41794000I-50000J0D01*
G01*
X107862000Y-41794000D01*
G75*
G02*
X107812000Y-41744000I0J50000D01*
G01*
G37*
%TD*%
D11*
%TO.C,C5*%
X106894000Y-107442000D03*
G36*
G01*
X103544000Y-108242000D02*
X103544000Y-106642000D01*
G75*
G02*
X103594000Y-106592000I50000J0D01*
G01*
X105194000Y-106592000D01*
G75*
G02*
X105244000Y-106642000I0J-50000D01*
G01*
X105244000Y-108242000D01*
G75*
G02*
X105194000Y-108292000I-50000J0D01*
G01*
X103594000Y-108292000D01*
G75*
G02*
X103544000Y-108242000I0J50000D01*
G01*
G37*
%TD*%
%TO.C,C4*%
X121372000Y-30988000D03*
X118872000Y-30988000D03*
%TD*%
%TO.C,C3*%
X200660000Y-85598000D03*
X198160000Y-85598000D03*
%TD*%
%TO.C,C2*%
X112014000Y-103672000D03*
X112014000Y-106172000D03*
%TD*%
%TO.C,C1*%
X199858000Y-39624000D03*
X197358000Y-39624000D03*
%TD*%
%TO.C,C6*%
X176998000Y-124968000D03*
X174498000Y-124968000D03*
%TD*%
%TO.C,C7*%
X169418000Y-124968000D03*
X171918000Y-124968000D03*
%TD*%
%TO.C,C8*%
X182840000Y-124968000D03*
X180340000Y-124968000D03*
%TD*%
%TO.C,C9*%
X166624000Y-103632000D03*
X166624000Y-101132000D03*
%TD*%
%TO.C,C10*%
X181316000Y-109220000D03*
X178816000Y-109220000D03*
%TD*%
%TO.C,C11*%
X185166000Y-124968000D03*
X187666000Y-124968000D03*
%TD*%
%TO.C,C12*%
X177038000Y-102616000D03*
X179538000Y-102616000D03*
%TD*%
%TO.C,C13*%
X166624000Y-118324000D03*
X166624000Y-115824000D03*
%TD*%
%TO.C,C14*%
X190500000Y-111506000D03*
X190500000Y-109006000D03*
%TD*%
%TO.C,C15*%
X171918000Y-109474000D03*
X169418000Y-109474000D03*
%TD*%
%TO.C,D1*%
G36*
G01*
X94254000Y-43618000D02*
X94254000Y-41218000D01*
G75*
G02*
X94304000Y-41168000I50000J0D01*
G01*
X96704000Y-41168000D01*
G75*
G02*
X96754000Y-41218000I0J-50000D01*
G01*
X96754000Y-43618000D01*
G75*
G02*
X96704000Y-43668000I-50000J0D01*
G01*
X94304000Y-43668000D01*
G75*
G02*
X94254000Y-43618000I0J50000D01*
G01*
G37*
D14*
X105664000Y-42418000D03*
%TD*%
%TO.C,D2*%
X105664000Y-38354000D03*
G36*
G01*
X94254000Y-39554000D02*
X94254000Y-37154000D01*
G75*
G02*
X94304000Y-37104000I50000J0D01*
G01*
X96704000Y-37104000D01*
G75*
G02*
X96754000Y-37154000I0J-50000D01*
G01*
X96754000Y-39554000D01*
G75*
G02*
X96704000Y-39604000I-50000J0D01*
G01*
X94304000Y-39604000D01*
G75*
G02*
X94254000Y-39554000I0J50000D01*
G01*
G37*
%TD*%
%TO.C,IC1*%
G36*
G01*
X101638000Y-99040000D02*
X100038000Y-99040000D01*
G75*
G02*
X99988000Y-98990000I0J50000D01*
G01*
X99988000Y-96590000D01*
G75*
G02*
X100038000Y-96540000I50000J0D01*
G01*
X101638000Y-96540000D01*
G75*
G02*
X101688000Y-96590000I0J-50000D01*
G01*
X101688000Y-98990000D01*
G75*
G02*
X101638000Y-99040000I-50000J0D01*
G01*
G37*
D15*
X133858000Y-82550000D03*
X103378000Y-97790000D03*
X131318000Y-82550000D03*
X105918000Y-97790000D03*
X128778000Y-82550000D03*
X108458000Y-97790000D03*
X126238000Y-82550000D03*
X110998000Y-97790000D03*
X123698000Y-82550000D03*
X113538000Y-97790000D03*
X121158000Y-82550000D03*
X116078000Y-97790000D03*
X118618000Y-82550000D03*
X118618000Y-97790000D03*
X116078000Y-82550000D03*
X121158000Y-97790000D03*
X113538000Y-82550000D03*
X123698000Y-97790000D03*
X110998000Y-82550000D03*
X126238000Y-97790000D03*
X108458000Y-82550000D03*
X128778000Y-97790000D03*
X105918000Y-82550000D03*
X131318000Y-97790000D03*
X103378000Y-82550000D03*
X133858000Y-97790000D03*
X100838000Y-82550000D03*
%TD*%
%TO.C,IC2*%
G36*
G01*
X154724000Y-60432000D02*
X153124000Y-60432000D01*
G75*
G02*
X153074000Y-60382000I0J50000D01*
G01*
X153074000Y-57982000D01*
G75*
G02*
X153124000Y-57932000I50000J0D01*
G01*
X154724000Y-57932000D01*
G75*
G02*
X154774000Y-57982000I0J-50000D01*
G01*
X154774000Y-60382000D01*
G75*
G02*
X154724000Y-60432000I-50000J0D01*
G01*
G37*
X202184000Y-43942000D03*
X156464000Y-59182000D03*
X199644000Y-43942000D03*
X159004000Y-59182000D03*
X197104000Y-43942000D03*
X161544000Y-59182000D03*
X194564000Y-43942000D03*
X164084000Y-59182000D03*
X192024000Y-43942000D03*
X166624000Y-59182000D03*
X189484000Y-43942000D03*
X169164000Y-59182000D03*
X186944000Y-43942000D03*
X171704000Y-59182000D03*
X184404000Y-43942000D03*
X174244000Y-59182000D03*
X181864000Y-43942000D03*
X176784000Y-59182000D03*
X179324000Y-43942000D03*
X179324000Y-59182000D03*
X176784000Y-43942000D03*
X181864000Y-59182000D03*
X174244000Y-43942000D03*
X184404000Y-59182000D03*
X171704000Y-43942000D03*
X186944000Y-59182000D03*
X169164000Y-43942000D03*
X189484000Y-59182000D03*
X166624000Y-43942000D03*
X192024000Y-59182000D03*
X164084000Y-43942000D03*
X194564000Y-59182000D03*
X161544000Y-43942000D03*
X197104000Y-59182000D03*
X159004000Y-43942000D03*
X199644000Y-59182000D03*
X156464000Y-43942000D03*
X202184000Y-59182000D03*
X153924000Y-43942000D03*
%TD*%
D11*
%TO.C,R1*%
X95504000Y-45974000D03*
D12*
X105664000Y-45974000D03*
%TD*%
%TO.C,RN1*%
G36*
G01*
X98210000Y-64300000D02*
X98210000Y-62700000D01*
G75*
G02*
X98260000Y-62650000I50000J0D01*
G01*
X99860000Y-62650000D01*
G75*
G02*
X99910000Y-62700000I0J-50000D01*
G01*
X99910000Y-64300000D01*
G75*
G02*
X99860000Y-64350000I-50000J0D01*
G01*
X98260000Y-64350000D01*
G75*
G02*
X98210000Y-64300000I0J50000D01*
G01*
G37*
X101600000Y-63500000D03*
X104140000Y-63500000D03*
X106680000Y-63500000D03*
X109220000Y-63500000D03*
X111760000Y-63500000D03*
X114300000Y-63500000D03*
X116840000Y-63500000D03*
%TD*%
%TO.C,U1*%
G36*
G01*
X103416000Y-60178000D02*
X101816000Y-60178000D01*
G75*
G02*
X101766000Y-60128000I0J50000D01*
G01*
X101766000Y-57728000D01*
G75*
G02*
X101816000Y-57678000I50000J0D01*
G01*
X103416000Y-57678000D01*
G75*
G02*
X103466000Y-57728000I0J-50000D01*
G01*
X103466000Y-60128000D01*
G75*
G02*
X103416000Y-60178000I-50000J0D01*
G01*
G37*
D15*
X117856000Y-51308000D03*
X105156000Y-58928000D03*
X115316000Y-51308000D03*
X107696000Y-58928000D03*
X112776000Y-51308000D03*
X110236000Y-58928000D03*
X110236000Y-51308000D03*
X112776000Y-58928000D03*
X107696000Y-51308000D03*
X115316000Y-58928000D03*
X105156000Y-51308000D03*
X117856000Y-58928000D03*
X102616000Y-51308000D03*
%TD*%
%TO.C,U2*%
X121920000Y-64770000D03*
X137160000Y-72390000D03*
X124460000Y-64770000D03*
X134620000Y-72390000D03*
X127000000Y-64770000D03*
X132080000Y-72390000D03*
X129540000Y-64770000D03*
X129540000Y-72390000D03*
X132080000Y-64770000D03*
X127000000Y-72390000D03*
X134620000Y-64770000D03*
X124460000Y-72390000D03*
X137160000Y-64770000D03*
G36*
G01*
X122720000Y-73640000D02*
X121120000Y-73640000D01*
G75*
G02*
X121070000Y-73590000I0J50000D01*
G01*
X121070000Y-71190000D01*
G75*
G02*
X121120000Y-71140000I50000J0D01*
G01*
X122720000Y-71140000D01*
G75*
G02*
X122770000Y-71190000I0J-50000D01*
G01*
X122770000Y-73590000D01*
G75*
G02*
X122720000Y-73640000I-50000J0D01*
G01*
G37*
%TD*%
%TO.C,U3*%
G36*
G01*
X122720000Y-59670000D02*
X121120000Y-59670000D01*
G75*
G02*
X121070000Y-59620000I0J50000D01*
G01*
X121070000Y-57220000D01*
G75*
G02*
X121120000Y-57170000I50000J0D01*
G01*
X122720000Y-57170000D01*
G75*
G02*
X122770000Y-57220000I0J-50000D01*
G01*
X122770000Y-59620000D01*
G75*
G02*
X122720000Y-59670000I-50000J0D01*
G01*
G37*
X137160000Y-50800000D03*
X124460000Y-58420000D03*
X134620000Y-50800000D03*
X127000000Y-58420000D03*
X132080000Y-50800000D03*
X129540000Y-58420000D03*
X129540000Y-50800000D03*
X132080000Y-58420000D03*
X127000000Y-50800000D03*
X134620000Y-58420000D03*
X124460000Y-50800000D03*
X137160000Y-58420000D03*
X121920000Y-50800000D03*
%TD*%
%TO.C,U4*%
X153924000Y-65278000D03*
X202184000Y-80518000D03*
X156464000Y-65278000D03*
X199644000Y-80518000D03*
X159004000Y-65278000D03*
X197104000Y-80518000D03*
X161544000Y-65278000D03*
X194564000Y-80518000D03*
X164084000Y-65278000D03*
X192024000Y-80518000D03*
X166624000Y-65278000D03*
X189484000Y-80518000D03*
X169164000Y-65278000D03*
X186944000Y-80518000D03*
X171704000Y-65278000D03*
X184404000Y-80518000D03*
X174244000Y-65278000D03*
X181864000Y-80518000D03*
X176784000Y-65278000D03*
X179324000Y-80518000D03*
X179324000Y-65278000D03*
X176784000Y-80518000D03*
X181864000Y-65278000D03*
X174244000Y-80518000D03*
X184404000Y-65278000D03*
X171704000Y-80518000D03*
X186944000Y-65278000D03*
X169164000Y-80518000D03*
X189484000Y-65278000D03*
X166624000Y-80518000D03*
X192024000Y-65278000D03*
X164084000Y-80518000D03*
X194564000Y-65278000D03*
X161544000Y-80518000D03*
X197104000Y-65278000D03*
X159004000Y-80518000D03*
X199644000Y-65278000D03*
X156464000Y-80518000D03*
X202184000Y-65278000D03*
G36*
G01*
X154724000Y-81768000D02*
X153124000Y-81768000D01*
G75*
G02*
X153074000Y-81718000I0J50000D01*
G01*
X153074000Y-79318000D01*
G75*
G02*
X153124000Y-79268000I50000J0D01*
G01*
X154724000Y-79268000D01*
G75*
G02*
X154774000Y-79318000I0J-50000D01*
G01*
X154774000Y-81718000D01*
G75*
G02*
X154724000Y-81768000I-50000J0D01*
G01*
G37*
%TD*%
%TO.C,U5*%
G36*
G01*
X120434000Y-46208000D02*
X118834000Y-46208000D01*
G75*
G02*
X118784000Y-46158000I0J50000D01*
G01*
X118784000Y-43758000D01*
G75*
G02*
X118834000Y-43708000I50000J0D01*
G01*
X120434000Y-43708000D01*
G75*
G02*
X120484000Y-43758000I0J-50000D01*
G01*
X120484000Y-46158000D01*
G75*
G02*
X120434000Y-46208000I-50000J0D01*
G01*
G37*
X142494000Y-37338000D03*
X122174000Y-44958000D03*
X139954000Y-37338000D03*
X124714000Y-44958000D03*
X137414000Y-37338000D03*
X127254000Y-44958000D03*
X134874000Y-37338000D03*
X129794000Y-44958000D03*
X132334000Y-37338000D03*
X132334000Y-44958000D03*
X129794000Y-37338000D03*
X134874000Y-44958000D03*
X127254000Y-37338000D03*
X137414000Y-44958000D03*
X124714000Y-37338000D03*
X139954000Y-44958000D03*
X122174000Y-37338000D03*
X142494000Y-44958000D03*
X119634000Y-37338000D03*
%TD*%
%TO.C,U6*%
G36*
G01*
X170218000Y-122154000D02*
X168618000Y-122154000D01*
G75*
G02*
X168568000Y-122104000I0J50000D01*
G01*
X168568000Y-119704000D01*
G75*
G02*
X168618000Y-119654000I50000J0D01*
G01*
X170218000Y-119654000D01*
G75*
G02*
X170268000Y-119704000I0J-50000D01*
G01*
X170268000Y-122104000D01*
G75*
G02*
X170218000Y-122154000I-50000J0D01*
G01*
G37*
X187198000Y-113284000D03*
X171958000Y-120904000D03*
X184658000Y-113284000D03*
X174498000Y-120904000D03*
X182118000Y-113284000D03*
X177038000Y-120904000D03*
X179578000Y-113284000D03*
X179578000Y-120904000D03*
X177038000Y-113284000D03*
X182118000Y-120904000D03*
X174498000Y-113284000D03*
X184658000Y-120904000D03*
X171958000Y-113284000D03*
X187198000Y-120904000D03*
X169418000Y-113284000D03*
%TD*%
%TO.C,U7*%
X169418000Y-98044000D03*
X187198000Y-105664000D03*
X171958000Y-98044000D03*
X184658000Y-105664000D03*
X174498000Y-98044000D03*
X182118000Y-105664000D03*
X177038000Y-98044000D03*
X179578000Y-105664000D03*
X179578000Y-98044000D03*
X177038000Y-105664000D03*
X182118000Y-98044000D03*
X174498000Y-105664000D03*
X184658000Y-98044000D03*
X171958000Y-105664000D03*
X187198000Y-98044000D03*
G36*
G01*
X170218000Y-106914000D02*
X168618000Y-106914000D01*
G75*
G02*
X168568000Y-106864000I0J50000D01*
G01*
X168568000Y-104464000D01*
G75*
G02*
X168618000Y-104414000I50000J0D01*
G01*
X170218000Y-104414000D01*
G75*
G02*
X170268000Y-104464000I0J-50000D01*
G01*
X170268000Y-106864000D01*
G75*
G02*
X170218000Y-106914000I-50000J0D01*
G01*
G37*
%TD*%
M02*
