%TF.GenerationSoftware,KiCad,Pcbnew,(5.1.10)-1*%
%TF.CreationDate,2024-03-27T07:56:36+01:00*%
%TF.ProjectId,KIM,4b494d2e-6b69-4636-9164-5f7063625858,rev?*%
%TF.SameCoordinates,Original*%
%TF.FileFunction,Legend,Top*%
%TF.FilePolarity,Positive*%
%FSLAX46Y46*%
G04 Gerber Fmt 4.6, Leading zero omitted, Abs format (unit mm)*
G04 Created by KiCad (PCBNEW (5.1.10)-1) date 2024-03-27 07:56:36*
%MOMM*%
%LPD*%
G01*
G04 APERTURE LIST*
%ADD10C,0.120000*%
%ADD11C,0.150000*%
G04 APERTURE END LIST*
D10*
%TO.C,J4*%
X101053000Y-136752000D02*
X101053000Y-126272000D01*
X101053000Y-126272000D02*
X132023000Y-126272000D01*
X132023000Y-126272000D02*
X132023000Y-136752000D01*
X110748000Y-125377662D02*
X111248000Y-125377662D01*
X111248000Y-125377662D02*
X110998000Y-125810675D01*
X110998000Y-125810675D02*
X110748000Y-125377662D01*
%TO.C,J3*%
X164649000Y-137260000D02*
X164649000Y-126780000D01*
X164649000Y-126780000D02*
X195619000Y-126780000D01*
X195619000Y-126780000D02*
X195619000Y-137260000D01*
X185424000Y-125885662D02*
X185924000Y-125885662D01*
X185924000Y-125885662D02*
X185674000Y-126318675D01*
X185674000Y-126318675D02*
X185424000Y-125885662D01*
%TO.C,J2*%
X132346000Y-135200000D02*
X132346000Y-126600000D01*
X132346000Y-126600000D02*
X163316000Y-126600000D01*
X163316000Y-126600000D02*
X163316000Y-135200000D01*
X151896000Y-125705662D02*
X152396000Y-125705662D01*
X152396000Y-125705662D02*
X152146000Y-126138675D01*
X152146000Y-126138675D02*
X151896000Y-125705662D01*
%TO.C,RN2*%
X102954000Y-116202000D02*
X102954000Y-119002000D01*
X102954000Y-119002000D02*
X123614000Y-119002000D01*
X123614000Y-119002000D02*
X123614000Y-116202000D01*
X123614000Y-116202000D02*
X102954000Y-116202000D01*
X105664000Y-116202000D02*
X105664000Y-119002000D01*
%TO.C,J1*%
X107382000Y-44764000D02*
X110042000Y-44764000D01*
X107382000Y-42164000D02*
X107382000Y-44764000D01*
X110042000Y-42164000D02*
X110042000Y-44764000D01*
X107382000Y-42164000D02*
X110042000Y-42164000D01*
X107382000Y-40894000D02*
X107382000Y-39564000D01*
X107382000Y-39564000D02*
X108712000Y-39564000D01*
%TO.C,C5*%
X102458759Y-105288000D02*
X102458759Y-105918000D01*
X102143759Y-105603000D02*
X102773759Y-105603000D01*
X108885000Y-107040000D02*
X108885000Y-107844000D01*
X108845000Y-106809000D02*
X108845000Y-108075000D01*
X108805000Y-106640000D02*
X108805000Y-108244000D01*
X108765000Y-106502000D02*
X108765000Y-108382000D01*
X108725000Y-106383000D02*
X108725000Y-108501000D01*
X108685000Y-106277000D02*
X108685000Y-108607000D01*
X108645000Y-106180000D02*
X108645000Y-108704000D01*
X108605000Y-106092000D02*
X108605000Y-108792000D01*
X108565000Y-106010000D02*
X108565000Y-108874000D01*
X108525000Y-105933000D02*
X108525000Y-108951000D01*
X108485000Y-105861000D02*
X108485000Y-109023000D01*
X108445000Y-105792000D02*
X108445000Y-109092000D01*
X108405000Y-105728000D02*
X108405000Y-109156000D01*
X108365000Y-105666000D02*
X108365000Y-109218000D01*
X108325000Y-105608000D02*
X108325000Y-109276000D01*
X108285000Y-105552000D02*
X108285000Y-109332000D01*
X108245000Y-105498000D02*
X108245000Y-109386000D01*
X108205000Y-105447000D02*
X108205000Y-109437000D01*
X108165000Y-105398000D02*
X108165000Y-109486000D01*
X108125000Y-105350000D02*
X108125000Y-109534000D01*
X108085000Y-105305000D02*
X108085000Y-109579000D01*
X108045000Y-105260000D02*
X108045000Y-109624000D01*
X108005000Y-105218000D02*
X108005000Y-109666000D01*
X107965000Y-105177000D02*
X107965000Y-109707000D01*
X107925000Y-108482000D02*
X107925000Y-109747000D01*
X107925000Y-105137000D02*
X107925000Y-106402000D01*
X107885000Y-108482000D02*
X107885000Y-109785000D01*
X107885000Y-105099000D02*
X107885000Y-106402000D01*
X107845000Y-108482000D02*
X107845000Y-109822000D01*
X107845000Y-105062000D02*
X107845000Y-106402000D01*
X107805000Y-108482000D02*
X107805000Y-109858000D01*
X107805000Y-105026000D02*
X107805000Y-106402000D01*
X107765000Y-108482000D02*
X107765000Y-109892000D01*
X107765000Y-104992000D02*
X107765000Y-106402000D01*
X107725000Y-108482000D02*
X107725000Y-109926000D01*
X107725000Y-104958000D02*
X107725000Y-106402000D01*
X107685000Y-108482000D02*
X107685000Y-109958000D01*
X107685000Y-104926000D02*
X107685000Y-106402000D01*
X107645000Y-108482000D02*
X107645000Y-109990000D01*
X107645000Y-104894000D02*
X107645000Y-106402000D01*
X107605000Y-108482000D02*
X107605000Y-110020000D01*
X107605000Y-104864000D02*
X107605000Y-106402000D01*
X107565000Y-108482000D02*
X107565000Y-110049000D01*
X107565000Y-104835000D02*
X107565000Y-106402000D01*
X107525000Y-108482000D02*
X107525000Y-110078000D01*
X107525000Y-104806000D02*
X107525000Y-106402000D01*
X107485000Y-108482000D02*
X107485000Y-110106000D01*
X107485000Y-104778000D02*
X107485000Y-106402000D01*
X107445000Y-108482000D02*
X107445000Y-110132000D01*
X107445000Y-104752000D02*
X107445000Y-106402000D01*
X107405000Y-108482000D02*
X107405000Y-110158000D01*
X107405000Y-104726000D02*
X107405000Y-106402000D01*
X107365000Y-108482000D02*
X107365000Y-110184000D01*
X107365000Y-104700000D02*
X107365000Y-106402000D01*
X107325000Y-108482000D02*
X107325000Y-110208000D01*
X107325000Y-104676000D02*
X107325000Y-106402000D01*
X107285000Y-108482000D02*
X107285000Y-110232000D01*
X107285000Y-104652000D02*
X107285000Y-106402000D01*
X107245000Y-108482000D02*
X107245000Y-110254000D01*
X107245000Y-104630000D02*
X107245000Y-106402000D01*
X107205000Y-108482000D02*
X107205000Y-110276000D01*
X107205000Y-104608000D02*
X107205000Y-106402000D01*
X107165000Y-108482000D02*
X107165000Y-110298000D01*
X107165000Y-104586000D02*
X107165000Y-106402000D01*
X107125000Y-108482000D02*
X107125000Y-110318000D01*
X107125000Y-104566000D02*
X107125000Y-106402000D01*
X107085000Y-108482000D02*
X107085000Y-110338000D01*
X107085000Y-104546000D02*
X107085000Y-106402000D01*
X107045000Y-108482000D02*
X107045000Y-110358000D01*
X107045000Y-104526000D02*
X107045000Y-106402000D01*
X107005000Y-108482000D02*
X107005000Y-110376000D01*
X107005000Y-104508000D02*
X107005000Y-106402000D01*
X106965000Y-108482000D02*
X106965000Y-110394000D01*
X106965000Y-104490000D02*
X106965000Y-106402000D01*
X106925000Y-108482000D02*
X106925000Y-110412000D01*
X106925000Y-104472000D02*
X106925000Y-106402000D01*
X106885000Y-108482000D02*
X106885000Y-110428000D01*
X106885000Y-104456000D02*
X106885000Y-106402000D01*
X106845000Y-108482000D02*
X106845000Y-110444000D01*
X106845000Y-104440000D02*
X106845000Y-106402000D01*
X106805000Y-108482000D02*
X106805000Y-110460000D01*
X106805000Y-104424000D02*
X106805000Y-106402000D01*
X106765000Y-108482000D02*
X106765000Y-110475000D01*
X106765000Y-104409000D02*
X106765000Y-106402000D01*
X106725000Y-108482000D02*
X106725000Y-110489000D01*
X106725000Y-104395000D02*
X106725000Y-106402000D01*
X106685000Y-108482000D02*
X106685000Y-110503000D01*
X106685000Y-104381000D02*
X106685000Y-106402000D01*
X106645000Y-108482000D02*
X106645000Y-110516000D01*
X106645000Y-104368000D02*
X106645000Y-106402000D01*
X106605000Y-108482000D02*
X106605000Y-110528000D01*
X106605000Y-104356000D02*
X106605000Y-106402000D01*
X106565000Y-108482000D02*
X106565000Y-110540000D01*
X106565000Y-104344000D02*
X106565000Y-106402000D01*
X106525000Y-108482000D02*
X106525000Y-110552000D01*
X106525000Y-104332000D02*
X106525000Y-106402000D01*
X106485000Y-108482000D02*
X106485000Y-110563000D01*
X106485000Y-104321000D02*
X106485000Y-106402000D01*
X106445000Y-108482000D02*
X106445000Y-110573000D01*
X106445000Y-104311000D02*
X106445000Y-106402000D01*
X106405000Y-108482000D02*
X106405000Y-110583000D01*
X106405000Y-104301000D02*
X106405000Y-106402000D01*
X106365000Y-108482000D02*
X106365000Y-110592000D01*
X106365000Y-104292000D02*
X106365000Y-106402000D01*
X106324000Y-108482000D02*
X106324000Y-110601000D01*
X106324000Y-104283000D02*
X106324000Y-106402000D01*
X106284000Y-108482000D02*
X106284000Y-110609000D01*
X106284000Y-104275000D02*
X106284000Y-106402000D01*
X106244000Y-108482000D02*
X106244000Y-110617000D01*
X106244000Y-104267000D02*
X106244000Y-106402000D01*
X106204000Y-108482000D02*
X106204000Y-110624000D01*
X106204000Y-104260000D02*
X106204000Y-106402000D01*
X106164000Y-108482000D02*
X106164000Y-110631000D01*
X106164000Y-104253000D02*
X106164000Y-106402000D01*
X106124000Y-108482000D02*
X106124000Y-110637000D01*
X106124000Y-104247000D02*
X106124000Y-106402000D01*
X106084000Y-108482000D02*
X106084000Y-110643000D01*
X106084000Y-104241000D02*
X106084000Y-106402000D01*
X106044000Y-108482000D02*
X106044000Y-110648000D01*
X106044000Y-104236000D02*
X106044000Y-106402000D01*
X106004000Y-108482000D02*
X106004000Y-110653000D01*
X106004000Y-104231000D02*
X106004000Y-106402000D01*
X105964000Y-108482000D02*
X105964000Y-110657000D01*
X105964000Y-104227000D02*
X105964000Y-106402000D01*
X105924000Y-108482000D02*
X105924000Y-110660000D01*
X105924000Y-104224000D02*
X105924000Y-106402000D01*
X105884000Y-108482000D02*
X105884000Y-110664000D01*
X105884000Y-104220000D02*
X105884000Y-106402000D01*
X105844000Y-104218000D02*
X105844000Y-110666000D01*
X105804000Y-104215000D02*
X105804000Y-110669000D01*
X105764000Y-104214000D02*
X105764000Y-110670000D01*
X105724000Y-104212000D02*
X105724000Y-110672000D01*
X105684000Y-104212000D02*
X105684000Y-110672000D01*
X105644000Y-104212000D02*
X105644000Y-110672000D01*
X108914000Y-107442000D02*
G75*
G03*
X108914000Y-107442000I-3270000J0D01*
G01*
%TO.C,C4*%
X121742000Y-32043000D02*
X121742000Y-32108000D01*
X121742000Y-29868000D02*
X121742000Y-29933000D01*
X118502000Y-32043000D02*
X118502000Y-32108000D01*
X118502000Y-29868000D02*
X118502000Y-29933000D01*
X118502000Y-32108000D02*
X121742000Y-32108000D01*
X118502000Y-29868000D02*
X121742000Y-29868000D01*
%TO.C,C3*%
X201030000Y-86653000D02*
X201030000Y-86718000D01*
X201030000Y-84478000D02*
X201030000Y-84543000D01*
X197790000Y-86653000D02*
X197790000Y-86718000D01*
X197790000Y-84478000D02*
X197790000Y-84543000D01*
X197790000Y-86718000D02*
X201030000Y-86718000D01*
X197790000Y-84478000D02*
X201030000Y-84478000D01*
%TO.C,C2*%
X113069000Y-103302000D02*
X113134000Y-103302000D01*
X110894000Y-103302000D02*
X110959000Y-103302000D01*
X113069000Y-106542000D02*
X113134000Y-106542000D01*
X110894000Y-106542000D02*
X110959000Y-106542000D01*
X113134000Y-106542000D02*
X113134000Y-103302000D01*
X110894000Y-106542000D02*
X110894000Y-103302000D01*
%TO.C,C1*%
X200228000Y-40679000D02*
X200228000Y-40744000D01*
X200228000Y-38504000D02*
X200228000Y-38569000D01*
X196988000Y-40679000D02*
X196988000Y-40744000D01*
X196988000Y-38504000D02*
X196988000Y-38569000D01*
X196988000Y-40744000D02*
X200228000Y-40744000D01*
X196988000Y-38504000D02*
X200228000Y-38504000D01*
%TO.C,C6*%
X177568000Y-125893000D02*
X177568000Y-126138000D01*
X177568000Y-123798000D02*
X177568000Y-124043000D01*
X173928000Y-125893000D02*
X173928000Y-126138000D01*
X173928000Y-123798000D02*
X173928000Y-124043000D01*
X173928000Y-126138000D02*
X177568000Y-126138000D01*
X173928000Y-123798000D02*
X177568000Y-123798000D01*
%TO.C,C7*%
X168848000Y-123798000D02*
X172488000Y-123798000D01*
X168848000Y-126138000D02*
X172488000Y-126138000D01*
X168848000Y-123798000D02*
X168848000Y-124043000D01*
X168848000Y-125893000D02*
X168848000Y-126138000D01*
X172488000Y-123798000D02*
X172488000Y-124043000D01*
X172488000Y-125893000D02*
X172488000Y-126138000D01*
%TO.C,C8*%
X183410000Y-125893000D02*
X183410000Y-126138000D01*
X183410000Y-123798000D02*
X183410000Y-124043000D01*
X179770000Y-125893000D02*
X179770000Y-126138000D01*
X179770000Y-123798000D02*
X179770000Y-124043000D01*
X179770000Y-126138000D02*
X183410000Y-126138000D01*
X179770000Y-123798000D02*
X183410000Y-123798000D01*
%TO.C,C9*%
X165454000Y-104202000D02*
X165454000Y-100562000D01*
X167794000Y-104202000D02*
X167794000Y-100562000D01*
X165454000Y-104202000D02*
X165699000Y-104202000D01*
X167549000Y-104202000D02*
X167794000Y-104202000D01*
X165454000Y-100562000D02*
X165699000Y-100562000D01*
X167549000Y-100562000D02*
X167794000Y-100562000D01*
%TO.C,C10*%
X181886000Y-110145000D02*
X181886000Y-110390000D01*
X181886000Y-108050000D02*
X181886000Y-108295000D01*
X178246000Y-110145000D02*
X178246000Y-110390000D01*
X178246000Y-108050000D02*
X178246000Y-108295000D01*
X178246000Y-110390000D02*
X181886000Y-110390000D01*
X178246000Y-108050000D02*
X181886000Y-108050000D01*
%TO.C,C11*%
X184596000Y-123798000D02*
X188236000Y-123798000D01*
X184596000Y-126138000D02*
X188236000Y-126138000D01*
X184596000Y-123798000D02*
X184596000Y-124043000D01*
X184596000Y-125893000D02*
X184596000Y-126138000D01*
X188236000Y-123798000D02*
X188236000Y-124043000D01*
X188236000Y-125893000D02*
X188236000Y-126138000D01*
%TO.C,C12*%
X176468000Y-101446000D02*
X180108000Y-101446000D01*
X176468000Y-103786000D02*
X180108000Y-103786000D01*
X176468000Y-101446000D02*
X176468000Y-101691000D01*
X176468000Y-103541000D02*
X176468000Y-103786000D01*
X180108000Y-101446000D02*
X180108000Y-101691000D01*
X180108000Y-103541000D02*
X180108000Y-103786000D01*
%TO.C,C13*%
X165699000Y-118894000D02*
X165454000Y-118894000D01*
X167794000Y-118894000D02*
X167549000Y-118894000D01*
X165699000Y-115254000D02*
X165454000Y-115254000D01*
X167794000Y-115254000D02*
X167549000Y-115254000D01*
X165454000Y-115254000D02*
X165454000Y-118894000D01*
X167794000Y-115254000D02*
X167794000Y-118894000D01*
%TO.C,C14*%
X189330000Y-112076000D02*
X189330000Y-108436000D01*
X191670000Y-112076000D02*
X191670000Y-108436000D01*
X189330000Y-112076000D02*
X189575000Y-112076000D01*
X191425000Y-112076000D02*
X191670000Y-112076000D01*
X189330000Y-108436000D02*
X189575000Y-108436000D01*
X191425000Y-108436000D02*
X191670000Y-108436000D01*
%TO.C,C15*%
X172488000Y-110399000D02*
X172488000Y-110644000D01*
X172488000Y-108304000D02*
X172488000Y-108549000D01*
X168848000Y-110399000D02*
X168848000Y-110644000D01*
X168848000Y-108304000D02*
X168848000Y-108549000D01*
X168848000Y-110644000D02*
X172488000Y-110644000D01*
X168848000Y-108304000D02*
X172488000Y-108304000D01*
%TO.C,D1*%
X96664000Y-40978000D02*
X96664000Y-40498000D01*
X96664000Y-40498000D02*
X104504000Y-40498000D01*
X104504000Y-40498000D02*
X104504000Y-40978000D01*
X96664000Y-43858000D02*
X96664000Y-44338000D01*
X96664000Y-44338000D02*
X104504000Y-44338000D01*
X104504000Y-44338000D02*
X104504000Y-43858000D01*
X97924000Y-40498000D02*
X97924000Y-44338000D01*
X98044000Y-40498000D02*
X98044000Y-44338000D01*
X97804000Y-40498000D02*
X97804000Y-44338000D01*
%TO.C,D2*%
X97804000Y-36434000D02*
X97804000Y-40274000D01*
X98044000Y-36434000D02*
X98044000Y-40274000D01*
X97924000Y-36434000D02*
X97924000Y-40274000D01*
X104504000Y-40274000D02*
X104504000Y-39794000D01*
X96664000Y-40274000D02*
X104504000Y-40274000D01*
X96664000Y-39794000D02*
X96664000Y-40274000D01*
X104504000Y-36434000D02*
X104504000Y-36914000D01*
X96664000Y-36434000D02*
X104504000Y-36434000D01*
X96664000Y-36914000D02*
X96664000Y-36434000D01*
%TO.C,IC1*%
X99508000Y-91170000D02*
X99508000Y-96230000D01*
X99508000Y-96230000D02*
X135188000Y-96230000D01*
X135188000Y-96230000D02*
X135188000Y-84110000D01*
X135188000Y-84110000D02*
X99508000Y-84110000D01*
X99508000Y-84110000D02*
X99508000Y-89170000D01*
X99508000Y-89170000D02*
G75*
G02*
X99508000Y-91170000I0J-1000000D01*
G01*
%TO.C,IC2*%
X152594000Y-52562000D02*
X152594000Y-57622000D01*
X152594000Y-57622000D02*
X203514000Y-57622000D01*
X203514000Y-57622000D02*
X203514000Y-45502000D01*
X203514000Y-45502000D02*
X152594000Y-45502000D01*
X152594000Y-45502000D02*
X152594000Y-50562000D01*
X152594000Y-50562000D02*
G75*
G02*
X152594000Y-52562000I0J-1000000D01*
G01*
%TO.C,R1*%
X97314000Y-44604000D02*
X97314000Y-47344000D01*
X97314000Y-47344000D02*
X103854000Y-47344000D01*
X103854000Y-47344000D02*
X103854000Y-44604000D01*
X103854000Y-44604000D02*
X97314000Y-44604000D01*
X96544000Y-45974000D02*
X97314000Y-45974000D01*
X104624000Y-45974000D02*
X103854000Y-45974000D01*
%TO.C,RN1*%
X97620000Y-62100000D02*
X97620000Y-64900000D01*
X97620000Y-64900000D02*
X118280000Y-64900000D01*
X118280000Y-64900000D02*
X118280000Y-62100000D01*
X118280000Y-62100000D02*
X97620000Y-62100000D01*
X100330000Y-62100000D02*
X100330000Y-64900000D01*
%TO.C,U1*%
X101286000Y-56118000D02*
X101286000Y-57368000D01*
X101286000Y-57368000D02*
X119186000Y-57368000D01*
X119186000Y-57368000D02*
X119186000Y-52868000D01*
X119186000Y-52868000D02*
X101286000Y-52868000D01*
X101286000Y-52868000D02*
X101286000Y-54118000D01*
X101286000Y-54118000D02*
G75*
G02*
X101286000Y-56118000I0J-1000000D01*
G01*
%TO.C,U2*%
X120590000Y-66330000D02*
X120590000Y-67580000D01*
X138490000Y-66330000D02*
X120590000Y-66330000D01*
X138490000Y-70830000D02*
X138490000Y-66330000D01*
X120590000Y-70830000D02*
X138490000Y-70830000D01*
X120590000Y-69580000D02*
X120590000Y-70830000D01*
X120590000Y-67580000D02*
G75*
G02*
X120590000Y-69580000I0J-1000000D01*
G01*
%TO.C,U3*%
X120590000Y-55610000D02*
X120590000Y-56860000D01*
X120590000Y-56860000D02*
X138490000Y-56860000D01*
X138490000Y-56860000D02*
X138490000Y-52360000D01*
X138490000Y-52360000D02*
X120590000Y-52360000D01*
X120590000Y-52360000D02*
X120590000Y-53610000D01*
X120590000Y-53610000D02*
G75*
G02*
X120590000Y-55610000I0J-1000000D01*
G01*
%TO.C,U4*%
X152594000Y-66838000D02*
X152594000Y-71898000D01*
X203514000Y-66838000D02*
X152594000Y-66838000D01*
X203514000Y-78958000D02*
X203514000Y-66838000D01*
X152594000Y-78958000D02*
X203514000Y-78958000D01*
X152594000Y-73898000D02*
X152594000Y-78958000D01*
X152594000Y-71898000D02*
G75*
G02*
X152594000Y-73898000I0J-1000000D01*
G01*
%TO.C,U5*%
X118304000Y-42148000D02*
X118304000Y-43398000D01*
X118304000Y-43398000D02*
X143824000Y-43398000D01*
X143824000Y-43398000D02*
X143824000Y-38898000D01*
X143824000Y-38898000D02*
X118304000Y-38898000D01*
X118304000Y-38898000D02*
X118304000Y-40148000D01*
X118304000Y-40148000D02*
G75*
G02*
X118304000Y-42148000I0J-1000000D01*
G01*
%TO.C,U6*%
X168088000Y-118094000D02*
X168088000Y-119344000D01*
X168088000Y-119344000D02*
X188528000Y-119344000D01*
X188528000Y-119344000D02*
X188528000Y-114844000D01*
X188528000Y-114844000D02*
X168088000Y-114844000D01*
X168088000Y-114844000D02*
X168088000Y-116094000D01*
X168088000Y-116094000D02*
G75*
G02*
X168088000Y-118094000I0J-1000000D01*
G01*
%TO.C,U7*%
X168088000Y-99604000D02*
X168088000Y-100854000D01*
X188528000Y-99604000D02*
X168088000Y-99604000D01*
X188528000Y-104104000D02*
X188528000Y-99604000D01*
X168088000Y-104104000D02*
X188528000Y-104104000D01*
X168088000Y-102854000D02*
X168088000Y-104104000D01*
X168088000Y-100854000D02*
G75*
G02*
X168088000Y-102854000I0J-1000000D01*
G01*
%TO.C,J4*%
D11*
X116204666Y-124784380D02*
X116204666Y-125498666D01*
X116157047Y-125641523D01*
X116061809Y-125736761D01*
X115918952Y-125784380D01*
X115823714Y-125784380D01*
X117109428Y-125117714D02*
X117109428Y-125784380D01*
X116871333Y-124736761D02*
X116633238Y-125451047D01*
X117252285Y-125451047D01*
%TO.C,J3*%
X179800666Y-125292380D02*
X179800666Y-126006666D01*
X179753047Y-126149523D01*
X179657809Y-126244761D01*
X179514952Y-126292380D01*
X179419714Y-126292380D01*
X180181619Y-125292380D02*
X180800666Y-125292380D01*
X180467333Y-125673333D01*
X180610190Y-125673333D01*
X180705428Y-125720952D01*
X180753047Y-125768571D01*
X180800666Y-125863809D01*
X180800666Y-126101904D01*
X180753047Y-126197142D01*
X180705428Y-126244761D01*
X180610190Y-126292380D01*
X180324476Y-126292380D01*
X180229238Y-126244761D01*
X180181619Y-126197142D01*
%TO.C,J2*%
X147497666Y-125112380D02*
X147497666Y-125826666D01*
X147450047Y-125969523D01*
X147354809Y-126064761D01*
X147211952Y-126112380D01*
X147116714Y-126112380D01*
X147926238Y-125207619D02*
X147973857Y-125160000D01*
X148069095Y-125112380D01*
X148307190Y-125112380D01*
X148402428Y-125160000D01*
X148450047Y-125207619D01*
X148497666Y-125302857D01*
X148497666Y-125398095D01*
X148450047Y-125540952D01*
X147878619Y-126112380D01*
X148497666Y-126112380D01*
%TO.C,RN2*%
X113863523Y-115654380D02*
X113530190Y-115178190D01*
X113292095Y-115654380D02*
X113292095Y-114654380D01*
X113673047Y-114654380D01*
X113768285Y-114702000D01*
X113815904Y-114749619D01*
X113863523Y-114844857D01*
X113863523Y-114987714D01*
X113815904Y-115082952D01*
X113768285Y-115130571D01*
X113673047Y-115178190D01*
X113292095Y-115178190D01*
X114292095Y-115654380D02*
X114292095Y-114654380D01*
X114863523Y-115654380D01*
X114863523Y-114654380D01*
X115292095Y-114749619D02*
X115339714Y-114702000D01*
X115434952Y-114654380D01*
X115673047Y-114654380D01*
X115768285Y-114702000D01*
X115815904Y-114749619D01*
X115863523Y-114844857D01*
X115863523Y-114940095D01*
X115815904Y-115082952D01*
X115244476Y-115654380D01*
X115863523Y-115654380D01*
%TO.C,J1*%
X108378666Y-38016380D02*
X108378666Y-38730666D01*
X108331047Y-38873523D01*
X108235809Y-38968761D01*
X108092952Y-39016380D01*
X107997714Y-39016380D01*
X109378666Y-39016380D02*
X108807238Y-39016380D01*
X109092952Y-39016380D02*
X109092952Y-38016380D01*
X108997714Y-38159238D01*
X108902476Y-38254476D01*
X108807238Y-38302095D01*
%TO.C,C5*%
X105477333Y-103399142D02*
X105429714Y-103446761D01*
X105286857Y-103494380D01*
X105191619Y-103494380D01*
X105048761Y-103446761D01*
X104953523Y-103351523D01*
X104905904Y-103256285D01*
X104858285Y-103065809D01*
X104858285Y-102922952D01*
X104905904Y-102732476D01*
X104953523Y-102637238D01*
X105048761Y-102542000D01*
X105191619Y-102494380D01*
X105286857Y-102494380D01*
X105429714Y-102542000D01*
X105477333Y-102589619D01*
X106382095Y-102494380D02*
X105905904Y-102494380D01*
X105858285Y-102970571D01*
X105905904Y-102922952D01*
X106001142Y-102875333D01*
X106239238Y-102875333D01*
X106334476Y-102922952D01*
X106382095Y-102970571D01*
X106429714Y-103065809D01*
X106429714Y-103303904D01*
X106382095Y-103399142D01*
X106334476Y-103446761D01*
X106239238Y-103494380D01*
X106001142Y-103494380D01*
X105905904Y-103446761D01*
X105858285Y-103399142D01*
%TO.C,C4*%
X119955333Y-29095142D02*
X119907714Y-29142761D01*
X119764857Y-29190380D01*
X119669619Y-29190380D01*
X119526761Y-29142761D01*
X119431523Y-29047523D01*
X119383904Y-28952285D01*
X119336285Y-28761809D01*
X119336285Y-28618952D01*
X119383904Y-28428476D01*
X119431523Y-28333238D01*
X119526761Y-28238000D01*
X119669619Y-28190380D01*
X119764857Y-28190380D01*
X119907714Y-28238000D01*
X119955333Y-28285619D01*
X120812476Y-28523714D02*
X120812476Y-29190380D01*
X120574380Y-28142761D02*
X120336285Y-28857047D01*
X120955333Y-28857047D01*
%TO.C,C3*%
X199243333Y-83705142D02*
X199195714Y-83752761D01*
X199052857Y-83800380D01*
X198957619Y-83800380D01*
X198814761Y-83752761D01*
X198719523Y-83657523D01*
X198671904Y-83562285D01*
X198624285Y-83371809D01*
X198624285Y-83228952D01*
X198671904Y-83038476D01*
X198719523Y-82943238D01*
X198814761Y-82848000D01*
X198957619Y-82800380D01*
X199052857Y-82800380D01*
X199195714Y-82848000D01*
X199243333Y-82895619D01*
X199576666Y-82800380D02*
X200195714Y-82800380D01*
X199862380Y-83181333D01*
X200005238Y-83181333D01*
X200100476Y-83228952D01*
X200148095Y-83276571D01*
X200195714Y-83371809D01*
X200195714Y-83609904D01*
X200148095Y-83705142D01*
X200100476Y-83752761D01*
X200005238Y-83800380D01*
X199719523Y-83800380D01*
X199624285Y-83752761D01*
X199576666Y-83705142D01*
%TO.C,C2*%
X110121142Y-105088666D02*
X110168761Y-105136285D01*
X110216380Y-105279142D01*
X110216380Y-105374380D01*
X110168761Y-105517238D01*
X110073523Y-105612476D01*
X109978285Y-105660095D01*
X109787809Y-105707714D01*
X109644952Y-105707714D01*
X109454476Y-105660095D01*
X109359238Y-105612476D01*
X109264000Y-105517238D01*
X109216380Y-105374380D01*
X109216380Y-105279142D01*
X109264000Y-105136285D01*
X109311619Y-105088666D01*
X109311619Y-104707714D02*
X109264000Y-104660095D01*
X109216380Y-104564857D01*
X109216380Y-104326761D01*
X109264000Y-104231523D01*
X109311619Y-104183904D01*
X109406857Y-104136285D01*
X109502095Y-104136285D01*
X109644952Y-104183904D01*
X110216380Y-104755333D01*
X110216380Y-104136285D01*
%TO.C,C1*%
X198441333Y-37731142D02*
X198393714Y-37778761D01*
X198250857Y-37826380D01*
X198155619Y-37826380D01*
X198012761Y-37778761D01*
X197917523Y-37683523D01*
X197869904Y-37588285D01*
X197822285Y-37397809D01*
X197822285Y-37254952D01*
X197869904Y-37064476D01*
X197917523Y-36969238D01*
X198012761Y-36874000D01*
X198155619Y-36826380D01*
X198250857Y-36826380D01*
X198393714Y-36874000D01*
X198441333Y-36921619D01*
X199393714Y-37826380D02*
X198822285Y-37826380D01*
X199108000Y-37826380D02*
X199108000Y-36826380D01*
X199012761Y-36969238D01*
X198917523Y-37064476D01*
X198822285Y-37112095D01*
%TO.C,C6*%
X175581333Y-123025142D02*
X175533714Y-123072761D01*
X175390857Y-123120380D01*
X175295619Y-123120380D01*
X175152761Y-123072761D01*
X175057523Y-122977523D01*
X175009904Y-122882285D01*
X174962285Y-122691809D01*
X174962285Y-122548952D01*
X175009904Y-122358476D01*
X175057523Y-122263238D01*
X175152761Y-122168000D01*
X175295619Y-122120380D01*
X175390857Y-122120380D01*
X175533714Y-122168000D01*
X175581333Y-122215619D01*
X176438476Y-122120380D02*
X176248000Y-122120380D01*
X176152761Y-122168000D01*
X176105142Y-122215619D01*
X176009904Y-122358476D01*
X175962285Y-122548952D01*
X175962285Y-122929904D01*
X176009904Y-123025142D01*
X176057523Y-123072761D01*
X176152761Y-123120380D01*
X176343238Y-123120380D01*
X176438476Y-123072761D01*
X176486095Y-123025142D01*
X176533714Y-122929904D01*
X176533714Y-122691809D01*
X176486095Y-122596571D01*
X176438476Y-122548952D01*
X176343238Y-122501333D01*
X176152761Y-122501333D01*
X176057523Y-122548952D01*
X176009904Y-122596571D01*
X175962285Y-122691809D01*
%TO.C,C7*%
X170501333Y-123025142D02*
X170453714Y-123072761D01*
X170310857Y-123120380D01*
X170215619Y-123120380D01*
X170072761Y-123072761D01*
X169977523Y-122977523D01*
X169929904Y-122882285D01*
X169882285Y-122691809D01*
X169882285Y-122548952D01*
X169929904Y-122358476D01*
X169977523Y-122263238D01*
X170072761Y-122168000D01*
X170215619Y-122120380D01*
X170310857Y-122120380D01*
X170453714Y-122168000D01*
X170501333Y-122215619D01*
X170834666Y-122120380D02*
X171501333Y-122120380D01*
X171072761Y-123120380D01*
%TO.C,C8*%
X181423333Y-123025142D02*
X181375714Y-123072761D01*
X181232857Y-123120380D01*
X181137619Y-123120380D01*
X180994761Y-123072761D01*
X180899523Y-122977523D01*
X180851904Y-122882285D01*
X180804285Y-122691809D01*
X180804285Y-122548952D01*
X180851904Y-122358476D01*
X180899523Y-122263238D01*
X180994761Y-122168000D01*
X181137619Y-122120380D01*
X181232857Y-122120380D01*
X181375714Y-122168000D01*
X181423333Y-122215619D01*
X181994761Y-122548952D02*
X181899523Y-122501333D01*
X181851904Y-122453714D01*
X181804285Y-122358476D01*
X181804285Y-122310857D01*
X181851904Y-122215619D01*
X181899523Y-122168000D01*
X181994761Y-122120380D01*
X182185238Y-122120380D01*
X182280476Y-122168000D01*
X182328095Y-122215619D01*
X182375714Y-122310857D01*
X182375714Y-122358476D01*
X182328095Y-122453714D01*
X182280476Y-122501333D01*
X182185238Y-122548952D01*
X181994761Y-122548952D01*
X181899523Y-122596571D01*
X181851904Y-122644190D01*
X181804285Y-122739428D01*
X181804285Y-122929904D01*
X181851904Y-123025142D01*
X181899523Y-123072761D01*
X181994761Y-123120380D01*
X182185238Y-123120380D01*
X182280476Y-123072761D01*
X182328095Y-123025142D01*
X182375714Y-122929904D01*
X182375714Y-122739428D01*
X182328095Y-122644190D01*
X182280476Y-122596571D01*
X182185238Y-122548952D01*
%TO.C,C9*%
X164681142Y-102548666D02*
X164728761Y-102596285D01*
X164776380Y-102739142D01*
X164776380Y-102834380D01*
X164728761Y-102977238D01*
X164633523Y-103072476D01*
X164538285Y-103120095D01*
X164347809Y-103167714D01*
X164204952Y-103167714D01*
X164014476Y-103120095D01*
X163919238Y-103072476D01*
X163824000Y-102977238D01*
X163776380Y-102834380D01*
X163776380Y-102739142D01*
X163824000Y-102596285D01*
X163871619Y-102548666D01*
X164776380Y-102072476D02*
X164776380Y-101882000D01*
X164728761Y-101786761D01*
X164681142Y-101739142D01*
X164538285Y-101643904D01*
X164347809Y-101596285D01*
X163966857Y-101596285D01*
X163871619Y-101643904D01*
X163824000Y-101691523D01*
X163776380Y-101786761D01*
X163776380Y-101977238D01*
X163824000Y-102072476D01*
X163871619Y-102120095D01*
X163966857Y-102167714D01*
X164204952Y-102167714D01*
X164300190Y-102120095D01*
X164347809Y-102072476D01*
X164395428Y-101977238D01*
X164395428Y-101786761D01*
X164347809Y-101691523D01*
X164300190Y-101643904D01*
X164204952Y-101596285D01*
%TO.C,C10*%
X179423142Y-107277142D02*
X179375523Y-107324761D01*
X179232666Y-107372380D01*
X179137428Y-107372380D01*
X178994571Y-107324761D01*
X178899333Y-107229523D01*
X178851714Y-107134285D01*
X178804095Y-106943809D01*
X178804095Y-106800952D01*
X178851714Y-106610476D01*
X178899333Y-106515238D01*
X178994571Y-106420000D01*
X179137428Y-106372380D01*
X179232666Y-106372380D01*
X179375523Y-106420000D01*
X179423142Y-106467619D01*
X180375523Y-107372380D02*
X179804095Y-107372380D01*
X180089809Y-107372380D02*
X180089809Y-106372380D01*
X179994571Y-106515238D01*
X179899333Y-106610476D01*
X179804095Y-106658095D01*
X180994571Y-106372380D02*
X181089809Y-106372380D01*
X181185047Y-106420000D01*
X181232666Y-106467619D01*
X181280285Y-106562857D01*
X181327904Y-106753333D01*
X181327904Y-106991428D01*
X181280285Y-107181904D01*
X181232666Y-107277142D01*
X181185047Y-107324761D01*
X181089809Y-107372380D01*
X180994571Y-107372380D01*
X180899333Y-107324761D01*
X180851714Y-107277142D01*
X180804095Y-107181904D01*
X180756476Y-106991428D01*
X180756476Y-106753333D01*
X180804095Y-106562857D01*
X180851714Y-106467619D01*
X180899333Y-106420000D01*
X180994571Y-106372380D01*
%TO.C,C11*%
X185773142Y-123025142D02*
X185725523Y-123072761D01*
X185582666Y-123120380D01*
X185487428Y-123120380D01*
X185344571Y-123072761D01*
X185249333Y-122977523D01*
X185201714Y-122882285D01*
X185154095Y-122691809D01*
X185154095Y-122548952D01*
X185201714Y-122358476D01*
X185249333Y-122263238D01*
X185344571Y-122168000D01*
X185487428Y-122120380D01*
X185582666Y-122120380D01*
X185725523Y-122168000D01*
X185773142Y-122215619D01*
X186725523Y-123120380D02*
X186154095Y-123120380D01*
X186439809Y-123120380D02*
X186439809Y-122120380D01*
X186344571Y-122263238D01*
X186249333Y-122358476D01*
X186154095Y-122406095D01*
X187677904Y-123120380D02*
X187106476Y-123120380D01*
X187392190Y-123120380D02*
X187392190Y-122120380D01*
X187296952Y-122263238D01*
X187201714Y-122358476D01*
X187106476Y-122406095D01*
%TO.C,C12*%
X177645142Y-100673142D02*
X177597523Y-100720761D01*
X177454666Y-100768380D01*
X177359428Y-100768380D01*
X177216571Y-100720761D01*
X177121333Y-100625523D01*
X177073714Y-100530285D01*
X177026095Y-100339809D01*
X177026095Y-100196952D01*
X177073714Y-100006476D01*
X177121333Y-99911238D01*
X177216571Y-99816000D01*
X177359428Y-99768380D01*
X177454666Y-99768380D01*
X177597523Y-99816000D01*
X177645142Y-99863619D01*
X178597523Y-100768380D02*
X178026095Y-100768380D01*
X178311809Y-100768380D02*
X178311809Y-99768380D01*
X178216571Y-99911238D01*
X178121333Y-100006476D01*
X178026095Y-100054095D01*
X178978476Y-99863619D02*
X179026095Y-99816000D01*
X179121333Y-99768380D01*
X179359428Y-99768380D01*
X179454666Y-99816000D01*
X179502285Y-99863619D01*
X179549904Y-99958857D01*
X179549904Y-100054095D01*
X179502285Y-100196952D01*
X178930857Y-100768380D01*
X179549904Y-100768380D01*
%TO.C,C13*%
X169281142Y-117716857D02*
X169328761Y-117764476D01*
X169376380Y-117907333D01*
X169376380Y-118002571D01*
X169328761Y-118145428D01*
X169233523Y-118240666D01*
X169138285Y-118288285D01*
X168947809Y-118335904D01*
X168804952Y-118335904D01*
X168614476Y-118288285D01*
X168519238Y-118240666D01*
X168424000Y-118145428D01*
X168376380Y-118002571D01*
X168376380Y-117907333D01*
X168424000Y-117764476D01*
X168471619Y-117716857D01*
X169376380Y-116764476D02*
X169376380Y-117335904D01*
X169376380Y-117050190D02*
X168376380Y-117050190D01*
X168519238Y-117145428D01*
X168614476Y-117240666D01*
X168662095Y-117335904D01*
X168376380Y-116431142D02*
X168376380Y-115812095D01*
X168757333Y-116145428D01*
X168757333Y-116002571D01*
X168804952Y-115907333D01*
X168852571Y-115859714D01*
X168947809Y-115812095D01*
X169185904Y-115812095D01*
X169281142Y-115859714D01*
X169328761Y-115907333D01*
X169376380Y-116002571D01*
X169376380Y-116288285D01*
X169328761Y-116383523D01*
X169281142Y-116431142D01*
%TO.C,C14*%
X188557142Y-110898857D02*
X188604761Y-110946476D01*
X188652380Y-111089333D01*
X188652380Y-111184571D01*
X188604761Y-111327428D01*
X188509523Y-111422666D01*
X188414285Y-111470285D01*
X188223809Y-111517904D01*
X188080952Y-111517904D01*
X187890476Y-111470285D01*
X187795238Y-111422666D01*
X187700000Y-111327428D01*
X187652380Y-111184571D01*
X187652380Y-111089333D01*
X187700000Y-110946476D01*
X187747619Y-110898857D01*
X188652380Y-109946476D02*
X188652380Y-110517904D01*
X188652380Y-110232190D02*
X187652380Y-110232190D01*
X187795238Y-110327428D01*
X187890476Y-110422666D01*
X187938095Y-110517904D01*
X187985714Y-109089333D02*
X188652380Y-109089333D01*
X187604761Y-109327428D02*
X188319047Y-109565523D01*
X188319047Y-108946476D01*
%TO.C,C15*%
X170025142Y-107531142D02*
X169977523Y-107578761D01*
X169834666Y-107626380D01*
X169739428Y-107626380D01*
X169596571Y-107578761D01*
X169501333Y-107483523D01*
X169453714Y-107388285D01*
X169406095Y-107197809D01*
X169406095Y-107054952D01*
X169453714Y-106864476D01*
X169501333Y-106769238D01*
X169596571Y-106674000D01*
X169739428Y-106626380D01*
X169834666Y-106626380D01*
X169977523Y-106674000D01*
X170025142Y-106721619D01*
X170977523Y-107626380D02*
X170406095Y-107626380D01*
X170691809Y-107626380D02*
X170691809Y-106626380D01*
X170596571Y-106769238D01*
X170501333Y-106864476D01*
X170406095Y-106912095D01*
X171882285Y-106626380D02*
X171406095Y-106626380D01*
X171358476Y-107102571D01*
X171406095Y-107054952D01*
X171501333Y-107007333D01*
X171739428Y-107007333D01*
X171834666Y-107054952D01*
X171882285Y-107102571D01*
X171929904Y-107197809D01*
X171929904Y-107435904D01*
X171882285Y-107531142D01*
X171834666Y-107578761D01*
X171739428Y-107626380D01*
X171501333Y-107626380D01*
X171406095Y-107578761D01*
X171358476Y-107531142D01*
%TO.C,D1*%
X99845904Y-39950380D02*
X99845904Y-38950380D01*
X100084000Y-38950380D01*
X100226857Y-38998000D01*
X100322095Y-39093238D01*
X100369714Y-39188476D01*
X100417333Y-39378952D01*
X100417333Y-39521809D01*
X100369714Y-39712285D01*
X100322095Y-39807523D01*
X100226857Y-39902761D01*
X100084000Y-39950380D01*
X99845904Y-39950380D01*
X101369714Y-39950380D02*
X100798285Y-39950380D01*
X101084000Y-39950380D02*
X101084000Y-38950380D01*
X100988761Y-39093238D01*
X100893523Y-39188476D01*
X100798285Y-39236095D01*
X95242095Y-40670380D02*
X95242095Y-39670380D01*
X95813523Y-40670380D02*
X95384952Y-40098952D01*
X95813523Y-39670380D02*
X95242095Y-40241809D01*
%TO.C,D2*%
X99845904Y-35886380D02*
X99845904Y-34886380D01*
X100084000Y-34886380D01*
X100226857Y-34934000D01*
X100322095Y-35029238D01*
X100369714Y-35124476D01*
X100417333Y-35314952D01*
X100417333Y-35457809D01*
X100369714Y-35648285D01*
X100322095Y-35743523D01*
X100226857Y-35838761D01*
X100084000Y-35886380D01*
X99845904Y-35886380D01*
X100798285Y-34981619D02*
X100845904Y-34934000D01*
X100941142Y-34886380D01*
X101179238Y-34886380D01*
X101274476Y-34934000D01*
X101322095Y-34981619D01*
X101369714Y-35076857D01*
X101369714Y-35172095D01*
X101322095Y-35314952D01*
X100750666Y-35886380D01*
X101369714Y-35886380D01*
X95242095Y-36606380D02*
X95242095Y-35606380D01*
X95813523Y-36606380D02*
X95384952Y-36034952D01*
X95813523Y-35606380D02*
X95242095Y-36177809D01*
%TO.C,IC1*%
X98960380Y-91146190D02*
X97960380Y-91146190D01*
X98865142Y-90098571D02*
X98912761Y-90146190D01*
X98960380Y-90289047D01*
X98960380Y-90384285D01*
X98912761Y-90527142D01*
X98817523Y-90622380D01*
X98722285Y-90670000D01*
X98531809Y-90717619D01*
X98388952Y-90717619D01*
X98198476Y-90670000D01*
X98103238Y-90622380D01*
X98008000Y-90527142D01*
X97960380Y-90384285D01*
X97960380Y-90289047D01*
X98008000Y-90146190D01*
X98055619Y-90098571D01*
X98960380Y-89146190D02*
X98960380Y-89717619D01*
X98960380Y-89431904D02*
X97960380Y-89431904D01*
X98103238Y-89527142D01*
X98198476Y-89622380D01*
X98246095Y-89717619D01*
%TO.C,IC2*%
X152046380Y-52538190D02*
X151046380Y-52538190D01*
X151951142Y-51490571D02*
X151998761Y-51538190D01*
X152046380Y-51681047D01*
X152046380Y-51776285D01*
X151998761Y-51919142D01*
X151903523Y-52014380D01*
X151808285Y-52062000D01*
X151617809Y-52109619D01*
X151474952Y-52109619D01*
X151284476Y-52062000D01*
X151189238Y-52014380D01*
X151094000Y-51919142D01*
X151046380Y-51776285D01*
X151046380Y-51681047D01*
X151094000Y-51538190D01*
X151141619Y-51490571D01*
X151141619Y-51109619D02*
X151094000Y-51062000D01*
X151046380Y-50966761D01*
X151046380Y-50728666D01*
X151094000Y-50633428D01*
X151141619Y-50585809D01*
X151236857Y-50538190D01*
X151332095Y-50538190D01*
X151474952Y-50585809D01*
X152046380Y-51157238D01*
X152046380Y-50538190D01*
%TO.C,R1*%
X100417333Y-44056380D02*
X100084000Y-43580190D01*
X99845904Y-44056380D02*
X99845904Y-43056380D01*
X100226857Y-43056380D01*
X100322095Y-43104000D01*
X100369714Y-43151619D01*
X100417333Y-43246857D01*
X100417333Y-43389714D01*
X100369714Y-43484952D01*
X100322095Y-43532571D01*
X100226857Y-43580190D01*
X99845904Y-43580190D01*
X101369714Y-44056380D02*
X100798285Y-44056380D01*
X101084000Y-44056380D02*
X101084000Y-43056380D01*
X100988761Y-43199238D01*
X100893523Y-43294476D01*
X100798285Y-43342095D01*
%TO.C,RN1*%
X108529523Y-61552380D02*
X108196190Y-61076190D01*
X107958095Y-61552380D02*
X107958095Y-60552380D01*
X108339047Y-60552380D01*
X108434285Y-60600000D01*
X108481904Y-60647619D01*
X108529523Y-60742857D01*
X108529523Y-60885714D01*
X108481904Y-60980952D01*
X108434285Y-61028571D01*
X108339047Y-61076190D01*
X107958095Y-61076190D01*
X108958095Y-61552380D02*
X108958095Y-60552380D01*
X109529523Y-61552380D01*
X109529523Y-60552380D01*
X110529523Y-61552380D02*
X109958095Y-61552380D01*
X110243809Y-61552380D02*
X110243809Y-60552380D01*
X110148571Y-60695238D01*
X110053333Y-60790476D01*
X109958095Y-60838095D01*
%TO.C,U1*%
X99738380Y-55879904D02*
X100547904Y-55879904D01*
X100643142Y-55832285D01*
X100690761Y-55784666D01*
X100738380Y-55689428D01*
X100738380Y-55498952D01*
X100690761Y-55403714D01*
X100643142Y-55356095D01*
X100547904Y-55308476D01*
X99738380Y-55308476D01*
X100738380Y-54308476D02*
X100738380Y-54879904D01*
X100738380Y-54594190D02*
X99738380Y-54594190D01*
X99881238Y-54689428D01*
X99976476Y-54784666D01*
X100024095Y-54879904D01*
%TO.C,U2*%
X119042380Y-69341904D02*
X119851904Y-69341904D01*
X119947142Y-69294285D01*
X119994761Y-69246666D01*
X120042380Y-69151428D01*
X120042380Y-68960952D01*
X119994761Y-68865714D01*
X119947142Y-68818095D01*
X119851904Y-68770476D01*
X119042380Y-68770476D01*
X119137619Y-68341904D02*
X119090000Y-68294285D01*
X119042380Y-68199047D01*
X119042380Y-67960952D01*
X119090000Y-67865714D01*
X119137619Y-67818095D01*
X119232857Y-67770476D01*
X119328095Y-67770476D01*
X119470952Y-67818095D01*
X120042380Y-68389523D01*
X120042380Y-67770476D01*
%TO.C,U3*%
X119042380Y-55371904D02*
X119851904Y-55371904D01*
X119947142Y-55324285D01*
X119994761Y-55276666D01*
X120042380Y-55181428D01*
X120042380Y-54990952D01*
X119994761Y-54895714D01*
X119947142Y-54848095D01*
X119851904Y-54800476D01*
X119042380Y-54800476D01*
X119042380Y-54419523D02*
X119042380Y-53800476D01*
X119423333Y-54133809D01*
X119423333Y-53990952D01*
X119470952Y-53895714D01*
X119518571Y-53848095D01*
X119613809Y-53800476D01*
X119851904Y-53800476D01*
X119947142Y-53848095D01*
X119994761Y-53895714D01*
X120042380Y-53990952D01*
X120042380Y-54276666D01*
X119994761Y-54371904D01*
X119947142Y-54419523D01*
%TO.C,U4*%
X151046380Y-73659904D02*
X151855904Y-73659904D01*
X151951142Y-73612285D01*
X151998761Y-73564666D01*
X152046380Y-73469428D01*
X152046380Y-73278952D01*
X151998761Y-73183714D01*
X151951142Y-73136095D01*
X151855904Y-73088476D01*
X151046380Y-73088476D01*
X151379714Y-72183714D02*
X152046380Y-72183714D01*
X150998761Y-72421809D02*
X151713047Y-72659904D01*
X151713047Y-72040857D01*
%TO.C,U5*%
X116756380Y-41909904D02*
X117565904Y-41909904D01*
X117661142Y-41862285D01*
X117708761Y-41814666D01*
X117756380Y-41719428D01*
X117756380Y-41528952D01*
X117708761Y-41433714D01*
X117661142Y-41386095D01*
X117565904Y-41338476D01*
X116756380Y-41338476D01*
X116756380Y-40386095D02*
X116756380Y-40862285D01*
X117232571Y-40909904D01*
X117184952Y-40862285D01*
X117137333Y-40767047D01*
X117137333Y-40528952D01*
X117184952Y-40433714D01*
X117232571Y-40386095D01*
X117327809Y-40338476D01*
X117565904Y-40338476D01*
X117661142Y-40386095D01*
X117708761Y-40433714D01*
X117756380Y-40528952D01*
X117756380Y-40767047D01*
X117708761Y-40862285D01*
X117661142Y-40909904D01*
%TO.C,U6*%
X166540380Y-117855904D02*
X167349904Y-117855904D01*
X167445142Y-117808285D01*
X167492761Y-117760666D01*
X167540380Y-117665428D01*
X167540380Y-117474952D01*
X167492761Y-117379714D01*
X167445142Y-117332095D01*
X167349904Y-117284476D01*
X166540380Y-117284476D01*
X166540380Y-116379714D02*
X166540380Y-116570190D01*
X166588000Y-116665428D01*
X166635619Y-116713047D01*
X166778476Y-116808285D01*
X166968952Y-116855904D01*
X167349904Y-116855904D01*
X167445142Y-116808285D01*
X167492761Y-116760666D01*
X167540380Y-116665428D01*
X167540380Y-116474952D01*
X167492761Y-116379714D01*
X167445142Y-116332095D01*
X167349904Y-116284476D01*
X167111809Y-116284476D01*
X167016571Y-116332095D01*
X166968952Y-116379714D01*
X166921333Y-116474952D01*
X166921333Y-116665428D01*
X166968952Y-116760666D01*
X167016571Y-116808285D01*
X167111809Y-116855904D01*
%TO.C,U7*%
X166540380Y-102615904D02*
X167349904Y-102615904D01*
X167445142Y-102568285D01*
X167492761Y-102520666D01*
X167540380Y-102425428D01*
X167540380Y-102234952D01*
X167492761Y-102139714D01*
X167445142Y-102092095D01*
X167349904Y-102044476D01*
X166540380Y-102044476D01*
X166540380Y-101663523D02*
X166540380Y-100996857D01*
X167540380Y-101425428D01*
%TD*%
M02*
