M48
; DRILL file {KiCad (5.1.10)-1} date 03/27/24 07:56:33
; FORMAT={-:-/ absolute / inch / decimal}
; #@! TF.CreationDate,2024-03-27T07:56:33+01:00
; #@! TF.GenerationSoftware,Kicad,Pcbnew,(5.1.10)-1
; #@! TF.FileFunction,Plated,1,2,PTH
FMAT,2
INCH
T1C0.0157
T2C0.0315
T3C0.0394
T4C0.0472
T5C0.1260
%
G90
G05
T1
X3.765Y-2.155
X3.9Y-2.11
X3.95Y-1.94
X3.95Y-2.41
X3.97Y-3.03
X4.01Y-1.38
X4.04Y-2.12
X4.07Y-3.47
X4.11Y-4.89
X4.1143Y-3.0957
X4.14Y-2.16
X4.15Y-2.41
X4.16Y-4.85
X4.21Y-1.75
X4.21Y-2.19
X4.21Y-4.52
X4.21Y-4.72
X4.22Y-2.94
X4.24Y-2.16
X4.24Y-2.23
X4.26Y-3.37
X4.2843Y-1.8143
X4.3Y-2.74
X4.32Y-3.4
X4.3257Y-3.9557
X4.33Y-4.24
X4.34Y-4.72
X4.35Y-1.13
X4.37Y-2.6
X4.38Y-4.72
X4.39Y-1.36
X4.3957Y-2.4057
X4.4Y-3.75
X4.4Y-4.76
X4.4285Y-3.3715
X4.43Y-2.23
X4.45Y-4.73
X4.47Y-3.73
X4.49Y-1.59
X4.505Y-4.715
X4.505Y-4.965
X4.5389Y-0.9911
X4.5389Y-1.2211
X4.54Y-1.44
X4.54Y-4.89
X4.55Y-1.51
X4.56Y-1.92
X4.56Y-2.68
X4.56Y-4.68
X4.56Y-4.8
X4.57Y-3.65
X4.59Y-4.97
X4.61Y-1.66
X4.64Y-2.16
X4.64Y-4.86
X4.65Y-1.88
X4.65Y-2.21
X4.66Y-4.75
X4.67Y-1.31
X4.67Y-3.48
X4.67Y-3.69
X4.68Y-2.16
X4.68Y-2.41
X4.685Y-3.095
X4.6972Y-4.8028
X4.71Y-2.21
X4.71Y-4.54
X4.72Y-3.0
X4.7415Y-4.7985
X4.7557Y-2.1143
X4.8Y-2.6
X4.8028Y-2.4072
X4.81Y-1.34
X4.81Y-1.66
X4.8557Y-2.4357
X4.87Y-3.54
X4.87Y-3.6
X4.9Y-1.59
X4.9Y-2.65
X4.9Y-2.93
X4.91Y-1.65
X4.9321Y-1.0879
X4.97Y-1.69
X4.9843Y-3.9557
X4.9864Y-4.7864
X4.99Y-3.13
X5.0Y-2.15
X5.0Y-2.44
X5.01Y-1.61
X5.03Y-1.36
X5.05Y-1.88
X5.06Y-1.59
X5.07Y-1.05
X5.07Y-3.0
X5.1Y-2.14
X5.1Y-2.39
X5.1Y-2.68
X5.11Y-1.24
X5.115Y-1.695
X5.15Y-1.56
X5.16Y-1.2
X5.17Y-3.96
X5.2Y-2.1
X5.2Y-2.68
X5.2045Y-4.4155
X5.2045Y-5.3345
X5.21Y-2.19
X5.2397Y-1.57
X5.25Y-3.09
X5.3Y-1.13
X5.3Y-2.21
X5.3Y-2.44
X5.3Y-2.79
X5.31Y-1.36
X5.3136Y-4.4464
X5.3136Y-4.9064
X5.33Y-1.01
X5.33Y-1.27
X5.3443Y-2.4757
X5.3443Y-3.7243
X5.39Y-3.23
X5.39Y-3.54
X5.4043Y-2.4043
X5.41Y-1.58
X5.43Y-3.0
X5.43Y-5.27
X5.46Y-2.1
X5.47Y-3.76
X5.4764Y-4.9064
X5.48Y-5.3
X5.51Y-1.88
X5.51Y-3.6
X5.52Y-1.34
X5.5232Y-1.0468
X5.5317Y-5.2883
X5.5343Y-3.4257
X5.55Y-3.26
X5.55Y-3.38
X5.5543Y-2.9357
X5.57Y-4.79
X5.5743Y-3.5243
X5.58Y-4.44
X5.59Y-1.08
X5.59Y-1.57
X5.59Y-3.69
X5.61Y-1.38
X5.61Y-2.2
X5.61Y-2.24
X5.62Y-3.37
X5.6228Y-2.9272
X5.6228Y-3.1272
X5.64Y-1.6
X5.65Y-1.96
X5.65Y-2.89
X5.6657Y-3.5957
X5.6685Y-4.4115
X5.67Y-1.65
X5.68Y-1.05
X5.69Y-2.68
X5.7Y-2.64
X5.7143Y-3.6957
X5.7143Y-3.9657
X5.7195Y-5.3395
X5.72Y-1.75
X5.72Y-2.45
X5.72Y-1.69
X5.7498Y-4.5402
X5.75Y-3.91
X5.76Y-1.53
X5.76Y-1.2
X5.76Y-1.96
X5.765Y-2.005
X5.7715Y-2.6515
X5.78Y-1.09
X5.78Y-2.14
X5.78Y-3.56
X5.78Y-4.75
X5.7957Y-1.3057
X5.8097Y-5.3197
X5.81Y-3.73
X5.8185Y-2.7885
X5.82Y-4.58
X5.825Y-4.485
X5.8589Y-4.5711
X5.8599Y-2.7599
X5.86Y-1.2
X5.86Y-1.27
X5.86Y-1.77
X5.86Y-2.3
X5.8657Y-3.6243
X5.89Y-2.15
X5.89Y-2.2
X5.8998Y-5.2698
X5.9Y-1.52
X5.9Y-4.72
X5.91Y-1.19
X5.911Y-1.569
X5.92Y-1.33
X5.92Y-2.36
X5.93Y-4.49
X5.94Y-2.45
X5.9447Y-1.4147
X5.9679Y-4.5921
X5.97Y-1.82
X5.97Y-2.85
X5.97Y-4.03
X5.97Y-4.45
X5.99Y-5.29
X6.01Y-4.23
X6.01Y-4.68
X6.0153Y-1.4147
X6.0157Y-3.3257
X6.03Y-2.81
X6.0315Y-3.7815
X6.0394Y-4.6206
X6.06Y-1.49
X6.06Y-1.96
X6.06Y-3.47
X6.077Y-4.633
X6.11Y-3.03
X6.1157Y-4.5357
X6.14Y-1.24
X6.14Y-1.35
X6.1457Y-2.7757
X6.16Y-1.4
X6.16Y-2.17
X6.16Y-3.26
X6.1616Y-3.3416
X6.1616Y-3.7784
X6.21Y-4.57
X6.2157Y-2.4643
X6.22Y-2.68
X6.24Y-1.92
X6.26Y-1.44
X6.26Y-2.13
X6.26Y-3.06
X6.3043Y-2.9557
X6.313Y-3.313
X6.313Y-4.633
X6.36Y-1.48
X6.36Y-2.07
X6.36Y-2.9
X6.37Y-2.46
X6.4Y-1.97
X6.409Y-1.179
X6.409Y-1.569
X6.41Y-2.47
X6.4157Y-4.5943
X6.43Y-2.9
X6.46Y-1.27
X6.46Y-1.88
X6.46Y-2.43
X6.46Y-3.26
X6.5074Y-1.1074
X6.51Y-5.34
X6.5143Y-3.6957
X6.5157Y-2.0243
X6.5157Y-2.4043
X6.5157Y-2.4743
X6.53Y-2.98
X6.56Y-1.3
X6.56Y-1.35
X6.56Y-2.2
X6.59Y-2.94
X6.6043Y-3.5957
X6.6059Y-1.0759
X6.6059Y-1.5359
X6.61Y-4.51
X6.61Y-4.85
X6.62Y-3.79
X6.66Y-3.31
X6.67Y-1.04
X6.67Y-1.47
X6.67Y-3.75
X6.6866Y-2.97
X6.7Y-1.92
X6.7043Y-3.5243
X6.7241Y-5.2959
X6.75Y-2.01
X6.76Y-1.13
X6.76Y-1.39
X6.76Y-1.96
X6.77Y-2.74
X6.77Y-3.7
X6.77Y-4.66
X6.8127Y-5.2673
X6.8157Y-2.1643
X6.8157Y-3.7457
X6.82Y-4.7
X6.83Y-4.02
X6.83Y-4.85
X6.8411Y-1.1411
X6.8411Y-1.4389
X6.86Y-1.54
X6.86Y-2.02
X6.86Y-2.46
X6.86Y-3.02
X6.86Y-3.62
X6.87Y-3.98
X6.88Y-2.17
X6.91Y-4.84
X6.9157Y-3.4257
X6.92Y-2.13
X6.9215Y-1.4785
X6.9283Y-5.0317
X6.95Y-1.22
X6.96Y-1.15
X6.96Y-1.88
X6.96Y-3.56
X6.97Y-3.79
X6.9725Y-2.7225
X6.9823Y-5.3523
X7.01Y-3.37
X7.0185Y-2.4215
X7.02Y-2.07
X7.06Y-2.97
X7.06Y-3.7
X7.07Y-4.57
X7.12Y-4.08
X7.14Y-4.64
X7.16Y-2.76
X7.17Y-3.54
X7.17Y-4.55
X7.1964Y-0.8207
X7.1964Y-1.2164
X7.21Y-5.34
X7.2143Y-4.5743
X7.25Y-5.05
X7.2555Y-5.2655
X7.26Y-2.68
X7.26Y-3.68
X7.27Y-3.76
X7.29Y-4.85
X7.2948Y-0.8207
X7.2948Y-1.2152
X7.31Y-3.65
X7.31Y-5.3
X7.32Y-3.72
X7.36Y-2.24
X7.36Y-2.9
X7.36Y-3.33
X7.37Y-5.03
X7.4157Y-4.5543
X7.4327Y-5.3573
X7.44Y-2.47
X7.46Y-3.03
X7.46Y-3.95
X7.5Y-4.83
X7.51Y-3.53
X7.56Y-1.82
X7.56Y-2.45
X7.56Y-3.08
X7.61Y-1.56
X7.61Y-3.76
X7.66Y-3.48
X7.7043Y-4.4557
X7.76Y-2.43
X7.76Y-2.72
X7.8Y-2.15
X7.8043Y-3.0343
X7.8157Y-2.1943
X7.86Y-1.88
X7.86Y-2.85
X7.9157Y-2.9757
X7.96Y-1.99
X7.96Y-2.45
X7.96Y-2.82
X8.02Y-3.72
X8.03Y-1.82
X8.05Y-2.42
X8.05Y-3.86
T2
X3.76Y-1.81
X3.9Y-2.5
X3.97Y-3.25
X3.97Y-3.85
X4.0Y-2.5
X4.04Y-2.02
X4.04Y-2.32
X4.07Y-3.25
X4.07Y-3.85
X4.1Y-2.5
X4.11Y-4.23
X4.11Y-4.63
X4.14Y-2.02
X4.14Y-2.32
X4.16Y-1.81
X4.17Y-3.25
X4.17Y-3.85
X4.2Y-2.5
X4.2084Y-4.23
X4.21Y-4.63
X4.24Y-2.02
X4.24Y-2.32
X4.27Y-3.25
X4.27Y-3.85
X4.3Y-2.5
X4.31Y-4.63
X4.34Y-2.02
X4.34Y-2.32
X4.37Y-3.25
X4.37Y-3.85
X4.4Y-2.5
X4.41Y-4.0816
X4.41Y-4.18
X4.41Y-4.63
X4.44Y-2.02
X4.44Y-2.32
X4.47Y-3.25
X4.47Y-3.85
X4.5Y-2.5
X4.51Y-4.63
X4.54Y-2.02
X4.54Y-2.32
X4.57Y-3.25
X4.57Y-3.85
X4.6Y-2.5
X4.61Y-4.63
X4.64Y-2.02
X4.64Y-2.32
X4.67Y-3.25
X4.67Y-3.85
X4.68Y-1.22
X4.71Y-1.47
X4.71Y-1.77
X4.71Y-4.63
X4.77Y-3.25
X4.77Y-3.85
X4.7784Y-1.22
X4.8Y-2.0
X4.8Y-2.3
X4.8Y-2.55
X4.8Y-2.85
X4.81Y-1.47
X4.81Y-1.77
X4.81Y-4.63
X4.87Y-3.25
X4.87Y-3.85
X4.9Y-2.0
X4.9Y-2.3
X4.9Y-2.55
X4.9Y-2.85
X4.91Y-1.47
X4.91Y-1.77
X4.97Y-3.25
X4.97Y-3.85
X5.0Y-2.0
X5.0Y-2.3
X5.0Y-2.55
X5.0Y-2.85
X5.01Y-1.47
X5.01Y-1.77
X5.07Y-3.25
X5.07Y-3.85
X5.1Y-2.0
X5.1Y-2.3
X5.1Y-2.55
X5.1Y-2.85
X5.11Y-1.47
X5.11Y-1.77
X5.17Y-3.25
X5.17Y-3.85
X5.2Y-2.0
X5.2Y-2.3
X5.2Y-2.55
X5.2Y-2.85
X5.21Y-1.47
X5.21Y-1.77
X5.27Y-3.25
X5.27Y-3.85
X5.3Y-2.0
X5.3Y-2.3
X5.3Y-2.55
X5.3Y-2.85
X5.31Y-1.47
X5.31Y-1.77
X5.4Y-2.0
X5.4Y-2.3
X5.4Y-2.55
X5.4Y-2.85
X5.41Y-1.47
X5.41Y-1.77
X5.51Y-1.47
X5.51Y-1.77
X5.61Y-1.47
X5.61Y-1.77
X6.06Y-1.73
X6.06Y-2.33
X6.06Y-2.57
X6.06Y-3.17
X6.16Y-1.73
X6.16Y-2.33
X6.16Y-2.57
X6.16Y-3.17
X6.26Y-1.73
X6.26Y-2.33
X6.26Y-2.57
X6.26Y-3.17
X6.36Y-1.73
X6.36Y-2.33
X6.36Y-2.57
X6.36Y-3.17
X6.46Y-1.73
X6.46Y-2.33
X6.46Y-2.57
X6.46Y-3.17
X6.56Y-1.73
X6.56Y-2.33
X6.56Y-2.57
X6.56Y-3.17
X6.56Y-3.9816
X6.56Y-4.08
X6.56Y-4.56
X6.56Y-4.6584
X6.66Y-1.73
X6.66Y-2.33
X6.66Y-2.57
X6.66Y-3.17
X6.67Y-3.86
X6.67Y-4.16
X6.67Y-4.31
X6.67Y-4.46
X6.67Y-4.76
X6.67Y-4.92
X6.76Y-1.73
X6.76Y-2.33
X6.76Y-2.57
X6.76Y-3.17
X6.7684Y-4.31
X6.7684Y-4.92
X6.77Y-3.86
X6.77Y-4.16
X6.77Y-4.46
X6.77Y-4.76
X6.86Y-1.73
X6.86Y-2.33
X6.86Y-2.57
X6.86Y-3.17
X6.87Y-3.86
X6.87Y-4.16
X6.87Y-4.46
X6.87Y-4.76
X6.87Y-4.92
X6.96Y-1.73
X6.96Y-2.33
X6.96Y-2.57
X6.96Y-3.17
X6.9684Y-4.92
X6.97Y-3.86
X6.97Y-4.04
X6.97Y-4.16
X6.97Y-4.46
X6.97Y-4.76
X7.04Y-4.3
X7.06Y-1.73
X7.06Y-2.33
X7.06Y-2.57
X7.06Y-3.17
X7.0684Y-4.04
X7.07Y-3.86
X7.07Y-4.16
X7.07Y-4.46
X7.07Y-4.76
X7.1Y-4.92
X7.1384Y-4.3
X7.16Y-1.73
X7.16Y-2.33
X7.16Y-2.57
X7.16Y-3.17
X7.17Y-3.86
X7.17Y-4.16
X7.17Y-4.46
X7.17Y-4.76
X7.1984Y-4.92
X7.26Y-1.73
X7.26Y-2.33
X7.26Y-2.57
X7.26Y-3.17
X7.27Y-3.86
X7.27Y-4.16
X7.27Y-4.46
X7.27Y-4.76
X7.29Y-4.92
X7.36Y-1.73
X7.36Y-2.33
X7.36Y-2.57
X7.36Y-3.17
X7.37Y-3.86
X7.37Y-4.16
X7.37Y-4.46
X7.37Y-4.76
X7.3884Y-4.92
X7.46Y-1.73
X7.46Y-2.33
X7.46Y-2.57
X7.46Y-3.17
X7.5Y-4.2916
X7.5Y-4.39
X7.56Y-1.73
X7.56Y-2.33
X7.56Y-2.57
X7.56Y-3.17
X7.66Y-1.73
X7.66Y-2.33
X7.66Y-2.57
X7.66Y-3.17
X7.76Y-1.73
X7.76Y-2.33
X7.76Y-2.57
X7.76Y-3.17
X7.77Y-1.56
X7.8016Y-3.37
X7.86Y-1.73
X7.86Y-2.33
X7.86Y-2.57
X7.86Y-3.17
X7.8684Y-1.56
X7.9Y-3.37
X7.96Y-1.73
X7.96Y-2.33
X7.96Y-2.57
X7.96Y-3.17
T3
X4.28Y-1.61
X4.28Y-1.71
X4.37Y-5.08
X4.4245Y-5.1918
X4.4791Y-5.08
X4.5336Y-5.1918
X4.5881Y-5.08
X4.6426Y-5.1918
X4.6972Y-5.08
X4.7517Y-5.1918
X4.8062Y-5.08
X5.6294Y-5.05
X5.6294Y-5.2059
X5.6744Y-5.128
X5.7195Y-5.05
X5.7195Y-5.2059
X5.7646Y-5.128
X5.8097Y-5.05
X5.8097Y-5.2059
X5.8548Y-5.128
X5.8998Y-5.05
X5.8998Y-5.2059
X5.9449Y-5.128
X5.99Y-5.05
X5.99Y-5.2059
X6.0351Y-5.128
X6.8738Y-5.1
X6.9283Y-5.2118
X6.9828Y-5.1
X7.0374Y-5.2118
X7.0919Y-5.1
X7.1464Y-5.2118
X7.2009Y-5.1
X7.2555Y-5.2118
X7.31Y-5.1
T4
X3.76Y-1.51
X3.76Y-1.67
X4.16Y-1.51
X4.16Y-1.67
T5
X4.096Y-5.0918
X5.0802Y-5.0918
X5.328Y-5.1307
X6.3122Y-5.1307
X6.5998Y-5.1118
X7.584Y-5.1118
T0
M30
