%FSLAX45Y45*%
G04 Gerber Fmt 4.5, Leading zero omitted, Abs format (unit mm)*
G04 Created by KiCad (PCBNEW (5.1.10)-1) date 2024-03-27 07:56:34*
%MOMM*%
%LPD*%
G01*
G04 APERTURE LIST*
%ADD10C,0.200000*%
%ADD11C,0.300000*%
G04 APERTURE END LIST*
D10*
X9543100Y-5453700D02*
X9583100Y-5493700D01*
X9583100Y-5453700D02*
X9543100Y-5493700D01*
X9886000Y-5339400D02*
X9926000Y-5379400D01*
X9926000Y-5339400D02*
X9886000Y-5379400D01*
X10013000Y-4907600D02*
X10053000Y-4947600D01*
X10053000Y-4907600D02*
X10013000Y-4947600D01*
X10013000Y-6101400D02*
X10053000Y-6141400D01*
X10053000Y-6101400D02*
X10013000Y-6141400D01*
X10063800Y-7676200D02*
X10103800Y-7716200D01*
X10103800Y-7676200D02*
X10063800Y-7716200D01*
X10165400Y-3485200D02*
X10205400Y-3525200D01*
X10205400Y-3485200D02*
X10165400Y-3525200D01*
X10241600Y-5364800D02*
X10281600Y-5404800D01*
X10281600Y-5364800D02*
X10241600Y-5404800D01*
X10317800Y-8793800D02*
X10357800Y-8833800D01*
X10357800Y-8793800D02*
X10317800Y-8833800D01*
X10419400Y-12400600D02*
X10459400Y-12440600D01*
X10459400Y-12400600D02*
X10419400Y-12440600D01*
X10430301Y-7843099D02*
X10470301Y-7883099D01*
X10470301Y-7843099D02*
X10430301Y-7883099D01*
X10495600Y-5466400D02*
X10535600Y-5506400D01*
X10535600Y-5466400D02*
X10495600Y-5506400D01*
X10521000Y-6101400D02*
X10561000Y-6141400D01*
X10561000Y-6101400D02*
X10521000Y-6141400D01*
X10546400Y-12299000D02*
X10586400Y-12339000D01*
X10586400Y-12299000D02*
X10546400Y-12339000D01*
X10673400Y-4425000D02*
X10713400Y-4465000D01*
X10713400Y-4425000D02*
X10673400Y-4465000D01*
X10673400Y-5542600D02*
X10713400Y-5582600D01*
X10713400Y-5542600D02*
X10673400Y-5582600D01*
X10673400Y-11460800D02*
X10713400Y-11500800D01*
X10713400Y-11460800D02*
X10673400Y-11500800D01*
X10673400Y-11968800D02*
X10713400Y-12008800D01*
X10713400Y-11968800D02*
X10673400Y-12008800D01*
X10698800Y-7447600D02*
X10738800Y-7487600D01*
X10738800Y-7447600D02*
X10698800Y-7487600D01*
X10749600Y-5466400D02*
X10789600Y-5506400D01*
X10789600Y-5466400D02*
X10749600Y-5506400D01*
X10749600Y-5644200D02*
X10789600Y-5684200D01*
X10789600Y-5644200D02*
X10749600Y-5684200D01*
X10800400Y-8539800D02*
X10840400Y-8579800D01*
X10840400Y-8539800D02*
X10800400Y-8579800D01*
X10862101Y-4588301D02*
X10902101Y-4628301D01*
X10902101Y-4588301D02*
X10862101Y-4628301D01*
X10902000Y-6939600D02*
X10942000Y-6979600D01*
X10942000Y-6939600D02*
X10902000Y-6979600D01*
X10952800Y-8616000D02*
X10992800Y-8656000D01*
X10992800Y-8616000D02*
X10952800Y-8656000D01*
X10967299Y-10027499D02*
X11007299Y-10067499D01*
X11007299Y-10027499D02*
X10967299Y-10067499D01*
X10978200Y-10749600D02*
X11018200Y-10789600D01*
X11018200Y-10749600D02*
X10978200Y-10789600D01*
X11003600Y-11968800D02*
X11043600Y-12008800D01*
X11043600Y-11968800D02*
X11003600Y-12008800D01*
X11029000Y-2850200D02*
X11069000Y-2890200D01*
X11069000Y-2850200D02*
X11029000Y-2890200D01*
X11079800Y-6584000D02*
X11119800Y-6624000D01*
X11119800Y-6584000D02*
X11079800Y-6624000D01*
X11105200Y-11968800D02*
X11145200Y-12008800D01*
X11145200Y-11968800D02*
X11105200Y-12008800D01*
X11130600Y-3434400D02*
X11170600Y-3474400D01*
X11170600Y-3434400D02*
X11130600Y-3474400D01*
X11145099Y-6090499D02*
X11185099Y-6130499D01*
X11185099Y-6090499D02*
X11145099Y-6130499D01*
X11156000Y-9505000D02*
X11196000Y-9545000D01*
X11196000Y-9505000D02*
X11156000Y-9545000D01*
X11156000Y-12070400D02*
X11196000Y-12110400D01*
X11196000Y-12070400D02*
X11156000Y-12110400D01*
X11228500Y-8543500D02*
X11268500Y-8583500D01*
X11268500Y-8543500D02*
X11228500Y-8583500D01*
X11232200Y-5644200D02*
X11272200Y-5684200D01*
X11272200Y-5644200D02*
X11232200Y-5684200D01*
X11283000Y-11994200D02*
X11323000Y-12034200D01*
X11323000Y-11994200D02*
X11283000Y-12034200D01*
X11333800Y-9454200D02*
X11373800Y-9494200D01*
X11373800Y-9454200D02*
X11333800Y-9494200D01*
X11384600Y-4018600D02*
X11424600Y-4058600D01*
X11424600Y-4018600D02*
X11384600Y-4058600D01*
X11422700Y-11956100D02*
X11462700Y-11996100D01*
X11462700Y-11956100D02*
X11422700Y-11996100D01*
X11422700Y-12591100D02*
X11462700Y-12631100D01*
X11462700Y-12591100D02*
X11422700Y-12631100D01*
X11508900Y-2497300D02*
X11548900Y-2537300D01*
X11548900Y-2497300D02*
X11508900Y-2537300D01*
X11508900Y-3081500D02*
X11548900Y-3121500D01*
X11548900Y-3081500D02*
X11508900Y-3121500D01*
X11511600Y-3637600D02*
X11551600Y-3677600D01*
X11551600Y-3637600D02*
X11511600Y-3677600D01*
X11511600Y-12400600D02*
X11551600Y-12440600D01*
X11551600Y-12400600D02*
X11511600Y-12440600D01*
X11537000Y-3815400D02*
X11577000Y-3855400D01*
X11577000Y-3815400D02*
X11537000Y-3855400D01*
X11562400Y-4856800D02*
X11602400Y-4896800D01*
X11602400Y-4856800D02*
X11562400Y-4896800D01*
X11562400Y-6787200D02*
X11602400Y-6827200D01*
X11602400Y-6787200D02*
X11562400Y-6827200D01*
X11562400Y-11867200D02*
X11602400Y-11907200D01*
X11602400Y-11867200D02*
X11562400Y-11907200D01*
X11562400Y-12172000D02*
X11602400Y-12212000D01*
X11602400Y-12172000D02*
X11562400Y-12212000D01*
X11587800Y-9251000D02*
X11627800Y-9291000D01*
X11627800Y-9251000D02*
X11587800Y-9291000D01*
X11638600Y-12603800D02*
X11678600Y-12643800D01*
X11678600Y-12603800D02*
X11638600Y-12643800D01*
X11689400Y-4196400D02*
X11729400Y-4236400D01*
X11729400Y-4196400D02*
X11689400Y-4236400D01*
X11765600Y-5466400D02*
X11805600Y-5506400D01*
X11805600Y-5466400D02*
X11765600Y-5506400D01*
X11765600Y-12324400D02*
X11805600Y-12364400D01*
X11805600Y-12324400D02*
X11765600Y-12364400D01*
X11791000Y-4755200D02*
X11831000Y-4795200D01*
X11831000Y-4755200D02*
X11791000Y-4795200D01*
X11791000Y-5593400D02*
X11831000Y-5633400D01*
X11831000Y-5593400D02*
X11791000Y-5633400D01*
X11816400Y-12045000D02*
X11856400Y-12085000D01*
X11856400Y-12045000D02*
X11816400Y-12085000D01*
X11841800Y-3307400D02*
X11881800Y-3347400D01*
X11881800Y-3307400D02*
X11841800Y-3347400D01*
X11841800Y-8819200D02*
X11881800Y-8859200D01*
X11881800Y-8819200D02*
X11841800Y-8859200D01*
X11841800Y-9352600D02*
X11881800Y-9392600D01*
X11881800Y-9352600D02*
X11841800Y-9392600D01*
X11867200Y-5466400D02*
X11907200Y-5506400D01*
X11907200Y-5466400D02*
X11867200Y-5506400D01*
X11867200Y-6101400D02*
X11907200Y-6141400D01*
X11907200Y-6101400D02*
X11867200Y-6141400D01*
X11879900Y-7841300D02*
X11919900Y-7881300D01*
X11919900Y-7841300D02*
X11879900Y-7881300D01*
X11910800Y-12179200D02*
X11950800Y-12219200D01*
X11950800Y-12179200D02*
X11910800Y-12219200D01*
X11943400Y-5593400D02*
X11983400Y-5633400D01*
X11983400Y-5593400D02*
X11943400Y-5633400D01*
X11943400Y-11511600D02*
X11983400Y-11551600D01*
X11983400Y-11511600D02*
X11943400Y-11551600D01*
X11968800Y-7600000D02*
X12008800Y-7640000D01*
X12008800Y-7600000D02*
X11968800Y-7640000D01*
X12023300Y-12168300D02*
X12063300Y-12208300D01*
X12063300Y-12168300D02*
X12023300Y-12208300D01*
X12059500Y-5350300D02*
X12099500Y-5390300D01*
X12099500Y-5350300D02*
X12059500Y-5390300D01*
X12172000Y-6584000D02*
X12212000Y-6624000D01*
X12212000Y-6584000D02*
X12172000Y-6624000D01*
X12179201Y-6094199D02*
X12219201Y-6134199D01*
X12219201Y-6094199D02*
X12179201Y-6134199D01*
X12197400Y-3383600D02*
X12237400Y-3423600D01*
X12237400Y-3383600D02*
X12197400Y-3423600D01*
X12197400Y-4196400D02*
X12237400Y-4236400D01*
X12237400Y-4196400D02*
X12197400Y-4236400D01*
X12313499Y-6166699D02*
X12353499Y-6206699D01*
X12353499Y-6166699D02*
X12313499Y-6206699D01*
X12349800Y-8971600D02*
X12389800Y-9011600D01*
X12389800Y-8971600D02*
X12349800Y-9011600D01*
X12349800Y-9124000D02*
X12389800Y-9164000D01*
X12389800Y-9124000D02*
X12349800Y-9164000D01*
X12426000Y-4018600D02*
X12466000Y-4058600D01*
X12466000Y-4018600D02*
X12426000Y-4058600D01*
X12426000Y-6711000D02*
X12466000Y-6751000D01*
X12466000Y-6711000D02*
X12426000Y-6751000D01*
X12426000Y-7422200D02*
X12466000Y-7462200D01*
X12466000Y-7422200D02*
X12426000Y-7462200D01*
X12451400Y-4171000D02*
X12491400Y-4211000D01*
X12491400Y-4171000D02*
X12451400Y-4211000D01*
X12507600Y-2743200D02*
X12547600Y-2783200D01*
X12547600Y-2743200D02*
X12507600Y-2783200D01*
X12603800Y-4272600D02*
X12643800Y-4312600D01*
X12643800Y-4272600D02*
X12603800Y-4312600D01*
X12640101Y-10027499D02*
X12680101Y-10067499D01*
X12680101Y-10027499D02*
X12640101Y-10067499D01*
X12645500Y-12137500D02*
X12685500Y-12177500D01*
X12685500Y-12137500D02*
X12645500Y-12177500D01*
X12654600Y-7930200D02*
X12694600Y-7970200D01*
X12694600Y-7930200D02*
X12654600Y-7970200D01*
X12680000Y-5441000D02*
X12720000Y-5481000D01*
X12720000Y-5441000D02*
X12680000Y-5481000D01*
X12680000Y-6177600D02*
X12720000Y-6217600D01*
X12720000Y-6177600D02*
X12680000Y-6217600D01*
X12705400Y-4069400D02*
X12745400Y-4109400D01*
X12745400Y-4069400D02*
X12705400Y-4109400D01*
X12756200Y-3434400D02*
X12796200Y-3474400D01*
X12796200Y-3434400D02*
X12756200Y-3474400D01*
X12807000Y-4755200D02*
X12847000Y-4795200D01*
X12847000Y-4755200D02*
X12807000Y-4795200D01*
X12832400Y-4018600D02*
X12872400Y-4058600D01*
X12872400Y-4018600D02*
X12832400Y-4058600D01*
X12857800Y-2647000D02*
X12897800Y-2687000D01*
X12897800Y-2647000D02*
X12857800Y-2687000D01*
X12857800Y-7600000D02*
X12897800Y-7640000D01*
X12897800Y-7600000D02*
X12857800Y-7640000D01*
X12934000Y-5415600D02*
X12974000Y-5455600D01*
X12974000Y-5415600D02*
X12934000Y-5455600D01*
X12934000Y-6050600D02*
X12974000Y-6090600D01*
X12974000Y-6050600D02*
X12934000Y-6090600D01*
X12934000Y-6787200D02*
X12974000Y-6827200D01*
X12974000Y-6787200D02*
X12934000Y-6827200D01*
X12959400Y-3129600D02*
X12999400Y-3169600D01*
X12999400Y-3129600D02*
X12959400Y-3169600D01*
X12972100Y-4285300D02*
X13012100Y-4325300D01*
X13012100Y-4285300D02*
X12972100Y-4325300D01*
X13061000Y-3942400D02*
X13101000Y-3982400D01*
X13101000Y-3942400D02*
X13061000Y-3982400D01*
X13086400Y-3028000D02*
X13126400Y-3068000D01*
X13126400Y-3028000D02*
X13086400Y-3068000D01*
X13111800Y-10038400D02*
X13151800Y-10078400D01*
X13151800Y-10038400D02*
X13111800Y-10078400D01*
X13188000Y-5314000D02*
X13228000Y-5354000D01*
X13228000Y-5314000D02*
X13188000Y-5354000D01*
X13188000Y-6787200D02*
X13228000Y-6827200D01*
X13228000Y-6787200D02*
X13188000Y-6827200D01*
X13199500Y-11195300D02*
X13239500Y-11235300D01*
X13239500Y-11195300D02*
X13199500Y-11235300D01*
X13199500Y-13529700D02*
X13239500Y-13569700D01*
X13239500Y-13529700D02*
X13199500Y-13569700D01*
X13213400Y-5542600D02*
X13253400Y-5582600D01*
X13253400Y-5542600D02*
X13213400Y-5582600D01*
X13288899Y-3967800D02*
X13328899Y-4007800D01*
X13328899Y-3967800D02*
X13288899Y-4007800D01*
X13315000Y-7828600D02*
X13355000Y-7868600D01*
X13355000Y-7828600D02*
X13315000Y-7868600D01*
X13442000Y-2850200D02*
X13482000Y-2890200D01*
X13482000Y-2850200D02*
X13442000Y-2890200D01*
X13442000Y-5593400D02*
X13482000Y-5633400D01*
X13482000Y-5593400D02*
X13442000Y-5633400D01*
X13442000Y-6177600D02*
X13482000Y-6217600D01*
X13482000Y-6177600D02*
X13442000Y-6217600D01*
X13442000Y-7066600D02*
X13482000Y-7106600D01*
X13482000Y-7066600D02*
X13442000Y-7106600D01*
X13467400Y-3434400D02*
X13507400Y-3474400D01*
X13507400Y-3434400D02*
X13467400Y-3474400D01*
X13476500Y-11273900D02*
X13516500Y-11313900D01*
X13516500Y-11273900D02*
X13476500Y-11313900D01*
X13476500Y-12442300D02*
X13516500Y-12482300D01*
X13516500Y-12442300D02*
X13476500Y-12482300D01*
X13518200Y-2545400D02*
X13558200Y-2585400D01*
X13558200Y-2545400D02*
X13518200Y-2585400D01*
X13518200Y-3205800D02*
X13558200Y-3245800D01*
X13558200Y-3205800D02*
X13518200Y-3245800D01*
X13554501Y-6268299D02*
X13594501Y-6308299D01*
X13594501Y-6268299D02*
X13554501Y-6308299D01*
X13554501Y-9439701D02*
X13594501Y-9479701D01*
X13594501Y-9439701D02*
X13554501Y-9479701D01*
X13670600Y-8184200D02*
X13710600Y-8224200D01*
X13710600Y-8184200D02*
X13670600Y-8224200D01*
X13670600Y-8971600D02*
X13710600Y-9011600D01*
X13710600Y-8971600D02*
X13670600Y-9011600D01*
X13706901Y-6086901D02*
X13746901Y-6126901D01*
X13746901Y-6086901D02*
X13706901Y-6126901D01*
X13721400Y-3993200D02*
X13761400Y-4033200D01*
X13761400Y-3993200D02*
X13721400Y-4033200D01*
X13772200Y-7600000D02*
X13812200Y-7640000D01*
X13812200Y-7600000D02*
X13772200Y-7640000D01*
X13772200Y-13365800D02*
X13812200Y-13405800D01*
X13812200Y-13365800D02*
X13772200Y-13405800D01*
X13848400Y-5314000D02*
X13888400Y-5354000D01*
X13888400Y-5314000D02*
X13848400Y-5354000D01*
X13873800Y-9530400D02*
X13913800Y-9570400D01*
X13913800Y-9530400D02*
X13873800Y-9570400D01*
X13890100Y-12442300D02*
X13930100Y-12482300D01*
X13930100Y-12442300D02*
X13890100Y-12482300D01*
X13899200Y-13442000D02*
X13939200Y-13482000D01*
X13939200Y-13442000D02*
X13899200Y-13482000D01*
X13975400Y-4755200D02*
X14015400Y-4795200D01*
X14015400Y-4755200D02*
X13975400Y-4795200D01*
X13975400Y-9124000D02*
X14015400Y-9164000D01*
X14015400Y-9124000D02*
X13975400Y-9164000D01*
X14000800Y-3383600D02*
X14040800Y-3423600D01*
X14040800Y-3383600D02*
X14000800Y-3423600D01*
X14008900Y-2638900D02*
X14048900Y-2678900D01*
X14048900Y-2638900D02*
X14008900Y-2678900D01*
X14030500Y-13412300D02*
X14070500Y-13452300D01*
X14070500Y-13412300D02*
X14030500Y-13452300D01*
X14037101Y-8681299D02*
X14077101Y-8721299D01*
X14077101Y-8681299D02*
X14037101Y-8721299D01*
X14077000Y-8260400D02*
X14117000Y-8300400D01*
X14117000Y-8260400D02*
X14077000Y-8300400D01*
X14077000Y-8565200D02*
X14117000Y-8605200D01*
X14117000Y-8565200D02*
X14077000Y-8605200D01*
X14087901Y-7436699D02*
X14127901Y-7476699D01*
X14127901Y-7436699D02*
X14087901Y-7476699D01*
X14127800Y-12146600D02*
X14167800Y-12186600D01*
X14167800Y-12146600D02*
X14127800Y-12186600D01*
X14138701Y-8931701D02*
X14178701Y-8971701D01*
X14178701Y-8931701D02*
X14138701Y-8971701D01*
X14153200Y-11257600D02*
X14193200Y-11297600D01*
X14193200Y-11257600D02*
X14153200Y-11297600D01*
X14178600Y-2723200D02*
X14218600Y-2763200D01*
X14218600Y-2723200D02*
X14178600Y-2763200D01*
X14178600Y-3967800D02*
X14218600Y-4007800D01*
X14218600Y-3967800D02*
X14178600Y-4007800D01*
X14178600Y-9352600D02*
X14218600Y-9392600D01*
X14218600Y-9352600D02*
X14178600Y-9392600D01*
X14229400Y-3485200D02*
X14269400Y-3525200D01*
X14269400Y-3485200D02*
X14229400Y-3525200D01*
X14229400Y-5568000D02*
X14269400Y-5608000D01*
X14269400Y-5568000D02*
X14229400Y-5608000D01*
X14229400Y-5669600D02*
X14269400Y-5709600D01*
X14269400Y-5669600D02*
X14229400Y-5709600D01*
X14254800Y-8539800D02*
X14294800Y-8579800D01*
X14294800Y-8539800D02*
X14254800Y-8579800D01*
X14262001Y-7414999D02*
X14302001Y-7454999D01*
X14302001Y-7414999D02*
X14262001Y-7454999D01*
X14262001Y-7922999D02*
X14302001Y-7962999D01*
X14302001Y-7922999D02*
X14262001Y-7962999D01*
X14305600Y-4044000D02*
X14345600Y-4084000D01*
X14345600Y-4044000D02*
X14305600Y-4084000D01*
X14331000Y-4958400D02*
X14371000Y-4998400D01*
X14371000Y-4958400D02*
X14331000Y-4998400D01*
X14331000Y-7320600D02*
X14371000Y-7360600D01*
X14371000Y-7320600D02*
X14331000Y-7360600D01*
X14370899Y-9113099D02*
X14410899Y-9153099D01*
X14410899Y-9113099D02*
X14370899Y-9153099D01*
X14378100Y-11185100D02*
X14418100Y-11225100D01*
X14418100Y-11185100D02*
X14378100Y-11225100D01*
X14381800Y-4171000D02*
X14421800Y-4211000D01*
X14421800Y-4171000D02*
X14381800Y-4211000D01*
X14407200Y-2647000D02*
X14447200Y-2687000D01*
X14447200Y-2647000D02*
X14407200Y-2687000D01*
X14432600Y-6787200D02*
X14472600Y-6827200D01*
X14472600Y-6787200D02*
X14432600Y-6827200D01*
X14458000Y-6685600D02*
X14498000Y-6725600D01*
X14498000Y-6685600D02*
X14458000Y-6725600D01*
X14494200Y-9367200D02*
X14534200Y-9407200D01*
X14534200Y-9367200D02*
X14494200Y-9407200D01*
X14494200Y-10053000D02*
X14534200Y-10093000D01*
X14534200Y-10053000D02*
X14494200Y-10093000D01*
X14507600Y-13542400D02*
X14547600Y-13582400D01*
X14547600Y-13542400D02*
X14507600Y-13582400D01*
X14508800Y-4425000D02*
X14548800Y-4465000D01*
X14548800Y-4425000D02*
X14508800Y-4465000D01*
X14508800Y-6203000D02*
X14548800Y-6243000D01*
X14548800Y-6203000D02*
X14508800Y-6243000D01*
X14508900Y-4272500D02*
X14548900Y-4312500D01*
X14548900Y-4272500D02*
X14508900Y-4312500D01*
X14584500Y-11512100D02*
X14624500Y-11552100D01*
X14624500Y-11512100D02*
X14584500Y-11552100D01*
X14584899Y-9911501D02*
X14624899Y-9951501D01*
X14624899Y-9911501D02*
X14584899Y-9951501D01*
X14610299Y-3866301D02*
X14650299Y-3906301D01*
X14650299Y-3866301D02*
X14610299Y-3906301D01*
X14610400Y-3028000D02*
X14650400Y-3068000D01*
X14650400Y-3028000D02*
X14610400Y-3068000D01*
X14610400Y-4958400D02*
X14650400Y-4998400D01*
X14650400Y-4958400D02*
X14610400Y-4998400D01*
X14623100Y-5072700D02*
X14663100Y-5112700D01*
X14663100Y-5072700D02*
X14623100Y-5112700D01*
X14639500Y-6714700D02*
X14679500Y-6754700D01*
X14679500Y-6714700D02*
X14639500Y-6754700D01*
X14661200Y-2748600D02*
X14701200Y-2788600D01*
X14701200Y-2748600D02*
X14661200Y-2788600D01*
X14661200Y-5415600D02*
X14701200Y-5455600D01*
X14701200Y-5415600D02*
X14661200Y-5455600D01*
X14661200Y-9022400D02*
X14701200Y-9062400D01*
X14701200Y-9022400D02*
X14661200Y-9062400D01*
X14661200Y-12045000D02*
X14701200Y-12085000D01*
X14701200Y-12045000D02*
X14661200Y-12085000D01*
X14701200Y-3296600D02*
X14741200Y-3336600D01*
X14741200Y-3296600D02*
X14701200Y-3336600D01*
X14736600Y-13492000D02*
X14776600Y-13532000D01*
X14776600Y-13492000D02*
X14736600Y-13532000D01*
X14737400Y-9454200D02*
X14777400Y-9494200D01*
X14777400Y-9454200D02*
X14737400Y-9494200D01*
X14758900Y-7062700D02*
X14798900Y-7102700D01*
X14798900Y-7062700D02*
X14758900Y-7102700D01*
X14762800Y-11613200D02*
X14802800Y-11653200D01*
X14802800Y-11613200D02*
X14762800Y-11653200D01*
X14775500Y-11371900D02*
X14815500Y-11411900D01*
X14815500Y-11371900D02*
X14775500Y-11411900D01*
X14861500Y-11590700D02*
X14901500Y-11630700D01*
X14901500Y-11590700D02*
X14861500Y-11630700D01*
X14864200Y-6990200D02*
X14904200Y-7030200D01*
X14904200Y-6990200D02*
X14864200Y-7030200D01*
X14864400Y-3028000D02*
X14904400Y-3068000D01*
X14904400Y-3028000D02*
X14864400Y-3068000D01*
X14864400Y-3205800D02*
X14904400Y-3245800D01*
X14904400Y-3205800D02*
X14864400Y-3245800D01*
X14864400Y-4475800D02*
X14904400Y-4515800D01*
X14904400Y-4475800D02*
X14864400Y-4515800D01*
X14864400Y-5822000D02*
X14904400Y-5862000D01*
X14904400Y-5822000D02*
X14864400Y-5862000D01*
X14879001Y-9185599D02*
X14919001Y-9225599D01*
X14919001Y-9185599D02*
X14879001Y-9225599D01*
X14940600Y-5441000D02*
X14980600Y-5481000D01*
X14980600Y-5441000D02*
X14940600Y-5481000D01*
X14940600Y-5568000D02*
X14980600Y-5608000D01*
X14980600Y-5568000D02*
X14940600Y-5608000D01*
X14965600Y-13365400D02*
X15005600Y-13405400D01*
X15005600Y-13365400D02*
X14965600Y-13405400D01*
X14966000Y-3840800D02*
X15006000Y-3880800D01*
X15006000Y-3840800D02*
X14966000Y-3880800D01*
X14966000Y-11968800D02*
X15006000Y-12008800D01*
X15006000Y-11968800D02*
X14966000Y-12008800D01*
X14991400Y-3002600D02*
X15031400Y-3042600D01*
X15031400Y-3002600D02*
X14991400Y-3042600D01*
X14993900Y-3965300D02*
X15033900Y-4005300D01*
X15033900Y-3965300D02*
X14993900Y-4005300D01*
X15016800Y-3358200D02*
X15056800Y-3398200D01*
X15056800Y-3358200D02*
X15016800Y-3398200D01*
X15016800Y-5974400D02*
X15056800Y-6014400D01*
X15056800Y-5974400D02*
X15016800Y-6014400D01*
X15042200Y-11384600D02*
X15082200Y-11424600D01*
X15082200Y-11384600D02*
X15042200Y-11424600D01*
X15067600Y-6203000D02*
X15107600Y-6243000D01*
X15107600Y-6203000D02*
X15067600Y-6243000D01*
X15079500Y-3573300D02*
X15119500Y-3613300D01*
X15119500Y-3573300D02*
X15079500Y-3613300D01*
X15138500Y-11643900D02*
X15178500Y-11683900D01*
X15178500Y-11643900D02*
X15138500Y-11683900D01*
X15143800Y-4602800D02*
X15183800Y-4642800D01*
X15183800Y-4602800D02*
X15143800Y-4642800D01*
X15143800Y-7219000D02*
X15183800Y-7259000D01*
X15183800Y-7219000D02*
X15143800Y-7259000D01*
X15143800Y-10216200D02*
X15183800Y-10256200D01*
X15183800Y-10216200D02*
X15143800Y-10256200D01*
X15143800Y-11283000D02*
X15183800Y-11323000D01*
X15183800Y-11283000D02*
X15143800Y-11323000D01*
X15194600Y-13416600D02*
X15234600Y-13456600D01*
X15234600Y-13416600D02*
X15194600Y-13456600D01*
X15245400Y-10724200D02*
X15285400Y-10764200D01*
X15285400Y-10724200D02*
X15245400Y-10764200D01*
X15245400Y-11867200D02*
X15285400Y-11907200D01*
X15285400Y-11867200D02*
X15245400Y-11907200D01*
X15258900Y-3573300D02*
X15298900Y-3613300D01*
X15298900Y-3573300D02*
X15258900Y-3613300D01*
X15259900Y-8427300D02*
X15299900Y-8467300D01*
X15299900Y-8427300D02*
X15259900Y-8467300D01*
X15296200Y-7117400D02*
X15336200Y-7157400D01*
X15336200Y-7117400D02*
X15296200Y-7157400D01*
X15299900Y-9584900D02*
X15339900Y-9624900D01*
X15339900Y-9584900D02*
X15299900Y-9624900D01*
X15320000Y-11716400D02*
X15360000Y-11756400D01*
X15360000Y-11716400D02*
X15320000Y-11756400D01*
X15372400Y-3764600D02*
X15412400Y-3804600D01*
X15412400Y-3764600D02*
X15372400Y-3804600D01*
X15372400Y-4958400D02*
X15412400Y-4998400D01*
X15412400Y-4958400D02*
X15372400Y-4998400D01*
X15372400Y-8793800D02*
X15412400Y-8833800D01*
X15412400Y-8793800D02*
X15372400Y-8833800D01*
X15415500Y-11747900D02*
X15455500Y-11787900D01*
X15455500Y-11747900D02*
X15415500Y-11787900D01*
X15499400Y-7676200D02*
X15539400Y-7716200D01*
X15539400Y-7676200D02*
X15499400Y-7716200D01*
X15513899Y-11500699D02*
X15553899Y-11540699D01*
X15553899Y-11500699D02*
X15513899Y-11540699D01*
X15575600Y-3129600D02*
X15615600Y-3169600D01*
X15615600Y-3129600D02*
X15575600Y-3169600D01*
X15575600Y-3409000D02*
X15615600Y-3449000D01*
X15615600Y-3409000D02*
X15575600Y-3449000D01*
X15590200Y-7030400D02*
X15630200Y-7070400D01*
X15630200Y-7030400D02*
X15590200Y-7070400D01*
X15626400Y-3536000D02*
X15666400Y-3576000D01*
X15666400Y-3536000D02*
X15626400Y-3576000D01*
X15626400Y-5491800D02*
X15666400Y-5531800D01*
X15666400Y-5491800D02*
X15626400Y-5531800D01*
X15626400Y-8260400D02*
X15666400Y-8300400D01*
X15666400Y-8260400D02*
X15626400Y-8300400D01*
X15630400Y-8467600D02*
X15670400Y-8507600D01*
X15670400Y-8467600D02*
X15630400Y-8507600D01*
X15630400Y-9577200D02*
X15670400Y-9617200D01*
X15670400Y-9577200D02*
X15630400Y-9617200D01*
X15753400Y-11587800D02*
X15793400Y-11627800D01*
X15793400Y-11587800D02*
X15753400Y-11627800D01*
X15767899Y-6239301D02*
X15807899Y-6279301D01*
X15807899Y-6239301D02*
X15767899Y-6279301D01*
X15778800Y-6787200D02*
X15818800Y-6827200D01*
X15818800Y-6787200D02*
X15778800Y-6827200D01*
X15829600Y-4856800D02*
X15869600Y-4896800D01*
X15869600Y-4856800D02*
X15829600Y-4896800D01*
X15880400Y-3637600D02*
X15920400Y-3677600D01*
X15920400Y-3637600D02*
X15880400Y-3677600D01*
X15880400Y-5390200D02*
X15920400Y-5430200D01*
X15920400Y-5390200D02*
X15880400Y-5430200D01*
X15880400Y-7752400D02*
X15920400Y-7792400D01*
X15920400Y-7752400D02*
X15880400Y-7792400D01*
X15992901Y-7487499D02*
X16032901Y-7527499D01*
X16032901Y-7487499D02*
X15992901Y-7527499D01*
X16015100Y-8395100D02*
X16055100Y-8435100D01*
X16055100Y-8395100D02*
X16015100Y-8435100D01*
X16015100Y-11747900D02*
X16055100Y-11787900D01*
X16055100Y-11747900D02*
X16015100Y-11787900D01*
X16134400Y-3739200D02*
X16174400Y-3779200D01*
X16174400Y-3739200D02*
X16134400Y-3779200D01*
X16134400Y-5237800D02*
X16174400Y-5277800D01*
X16174400Y-5237800D02*
X16134400Y-5277800D01*
X16134400Y-7346000D02*
X16174400Y-7386000D01*
X16174400Y-7346000D02*
X16134400Y-7386000D01*
X16159800Y-6228400D02*
X16199800Y-6268400D01*
X16199800Y-6228400D02*
X16159800Y-6268400D01*
X16236000Y-4983800D02*
X16276000Y-5023800D01*
X16276000Y-4983800D02*
X16236000Y-5023800D01*
X16258900Y-2974700D02*
X16298900Y-3014700D01*
X16298900Y-2974700D02*
X16258900Y-3014700D01*
X16258900Y-3965300D02*
X16298900Y-4005300D01*
X16298900Y-3965300D02*
X16258900Y-4005300D01*
X16261400Y-6253800D02*
X16301400Y-6293800D01*
X16301400Y-6253800D02*
X16261400Y-6293800D01*
X16275899Y-11649501D02*
X16315899Y-11689501D01*
X16315899Y-11649501D02*
X16275899Y-11689501D01*
X16312200Y-7346000D02*
X16352200Y-7386000D01*
X16352200Y-7346000D02*
X16312200Y-7386000D01*
X16388400Y-3205800D02*
X16428400Y-3245800D01*
X16428400Y-3205800D02*
X16388400Y-3245800D01*
X16388400Y-4755200D02*
X16428400Y-4795200D01*
X16428400Y-4755200D02*
X16388400Y-4795200D01*
X16388400Y-6152200D02*
X16428400Y-6192200D01*
X16428400Y-6152200D02*
X16388400Y-6192200D01*
X16388400Y-8260400D02*
X16428400Y-8300400D01*
X16428400Y-8260400D02*
X16388400Y-8300400D01*
X16508900Y-2792900D02*
X16548900Y-2832900D01*
X16548900Y-2792900D02*
X16508900Y-2832900D01*
X16515400Y-13543600D02*
X16555400Y-13583600D01*
X16555400Y-13543600D02*
X16515400Y-13583600D01*
X16526200Y-9367200D02*
X16566200Y-9407200D01*
X16566200Y-9367200D02*
X16526200Y-9407200D01*
X16529899Y-5121701D02*
X16569899Y-5161701D01*
X16569899Y-5121701D02*
X16529899Y-5161701D01*
X16529899Y-6086901D02*
X16569899Y-6126901D01*
X16569899Y-6086901D02*
X16529899Y-6126901D01*
X16529899Y-6264701D02*
X16569899Y-6304701D01*
X16569899Y-6264701D02*
X16529899Y-6304701D01*
X16566200Y-7549200D02*
X16606200Y-7589200D01*
X16606200Y-7549200D02*
X16566200Y-7589200D01*
X16642400Y-3282000D02*
X16682400Y-3322000D01*
X16682400Y-3282000D02*
X16642400Y-3322000D01*
X16642400Y-3409000D02*
X16682400Y-3449000D01*
X16682400Y-3409000D02*
X16642400Y-3449000D01*
X16642400Y-5568000D02*
X16682400Y-5608000D01*
X16682400Y-5568000D02*
X16642400Y-5608000D01*
X16718600Y-7447600D02*
X16758600Y-7487600D01*
X16758600Y-7447600D02*
X16718600Y-7487600D01*
X16754901Y-9113099D02*
X16794901Y-9153099D01*
X16794901Y-9113099D02*
X16754901Y-9153099D01*
X16758900Y-2712700D02*
X16798900Y-2752700D01*
X16798900Y-2712700D02*
X16758900Y-2752700D01*
X16758900Y-3881100D02*
X16798900Y-3921100D01*
X16798900Y-3881100D02*
X16758900Y-3921100D01*
X16769400Y-11435400D02*
X16809400Y-11475400D01*
X16809400Y-11435400D02*
X16769400Y-11475400D01*
X16769400Y-12299000D02*
X16809400Y-12339000D01*
X16809400Y-12299000D02*
X16769400Y-12339000D01*
X16794800Y-9606600D02*
X16834800Y-9646600D01*
X16834800Y-9606600D02*
X16794800Y-9646600D01*
X16896400Y-8387400D02*
X16936400Y-8427400D01*
X16936400Y-8387400D02*
X16896400Y-8427400D01*
X16921800Y-2621600D02*
X16961800Y-2661600D01*
X16961800Y-2621600D02*
X16921800Y-2661600D01*
X16921800Y-3713800D02*
X16961800Y-3753800D01*
X16961800Y-3713800D02*
X16921800Y-3753800D01*
X16921800Y-9505000D02*
X16961800Y-9545000D01*
X16961800Y-9505000D02*
X16921800Y-9545000D01*
X16963900Y-7523800D02*
X17003900Y-7563800D01*
X17003900Y-7523800D02*
X16963900Y-7563800D01*
X16998000Y-4856800D02*
X17038000Y-4896800D01*
X17038000Y-4856800D02*
X16998000Y-4896800D01*
X17008901Y-8931701D02*
X17048901Y-8971701D01*
X17048901Y-8931701D02*
X17008901Y-8971701D01*
X17059300Y-13431500D02*
X17099300Y-13471500D01*
X17099300Y-13431500D02*
X17059300Y-13471500D01*
X17125000Y-5085400D02*
X17165000Y-5125400D01*
X17165000Y-5085400D02*
X17125000Y-5125400D01*
X17150400Y-2850200D02*
X17190400Y-2890200D01*
X17190400Y-2850200D02*
X17150400Y-2890200D01*
X17150400Y-3510600D02*
X17190400Y-3550600D01*
X17190400Y-3510600D02*
X17150400Y-3550600D01*
X17150400Y-4958400D02*
X17190400Y-4998400D01*
X17190400Y-4958400D02*
X17150400Y-4998400D01*
X17175800Y-6939600D02*
X17215800Y-6979600D01*
X17215800Y-6939600D02*
X17175800Y-6979600D01*
X17175800Y-9378000D02*
X17215800Y-9418000D01*
X17215800Y-9378000D02*
X17175800Y-9418000D01*
X17175800Y-11816400D02*
X17215800Y-11856400D01*
X17215800Y-11816400D02*
X17175800Y-11856400D01*
X17284300Y-13358900D02*
X17324300Y-13398900D01*
X17324300Y-13358900D02*
X17284300Y-13398900D01*
X17291899Y-5477301D02*
X17331899Y-5517301D01*
X17331899Y-5477301D02*
X17291899Y-5517301D01*
X17291899Y-9494099D02*
X17331899Y-9534099D01*
X17331899Y-9494099D02*
X17291899Y-9534099D01*
X17302800Y-11918000D02*
X17342800Y-11958000D01*
X17342800Y-11918000D02*
X17302800Y-11958000D01*
X17328200Y-10190800D02*
X17368200Y-10230800D01*
X17368200Y-10190800D02*
X17328200Y-10230800D01*
X17328200Y-12299000D02*
X17368200Y-12339000D01*
X17368200Y-12299000D02*
X17328200Y-12339000D01*
X17356450Y-2878450D02*
X17396450Y-2918450D01*
X17396450Y-2878450D02*
X17356450Y-2918450D01*
X17356450Y-3634750D02*
X17396450Y-3674750D01*
X17396450Y-3634750D02*
X17356450Y-3674750D01*
X17404400Y-3891600D02*
X17444400Y-3931600D01*
X17444400Y-3891600D02*
X17404400Y-3931600D01*
X17404400Y-5110800D02*
X17444400Y-5150800D01*
X17444400Y-5110800D02*
X17404400Y-5150800D01*
X17404400Y-6228400D02*
X17444400Y-6268400D01*
X17444400Y-6228400D02*
X17404400Y-6268400D01*
X17404400Y-7650800D02*
X17444400Y-7690800D01*
X17444400Y-7650800D02*
X17404400Y-7690800D01*
X17404400Y-9174800D02*
X17444400Y-9214800D01*
X17444400Y-9174800D02*
X17404400Y-9214800D01*
X17429800Y-10089200D02*
X17469800Y-10129200D01*
X17469800Y-10089200D02*
X17429800Y-10129200D01*
X17455200Y-5491800D02*
X17495200Y-5531800D01*
X17495200Y-5491800D02*
X17455200Y-5531800D01*
X17531400Y-12273600D02*
X17571400Y-12313600D01*
X17571400Y-12273600D02*
X17531400Y-12313600D01*
X17545899Y-8681299D02*
X17585899Y-8721299D01*
X17585899Y-8681299D02*
X17545899Y-8721299D01*
X17556800Y-5390200D02*
X17596800Y-5430200D01*
X17596800Y-5390200D02*
X17556800Y-5430200D01*
X17560500Y-3735500D02*
X17600500Y-3775500D01*
X17600500Y-3735500D02*
X17560500Y-3775500D01*
X17577900Y-12760500D02*
X17617900Y-12800500D01*
X17617900Y-12760500D02*
X17577900Y-12800500D01*
X17633000Y-3078800D02*
X17673000Y-3118800D01*
X17673000Y-3078800D02*
X17633000Y-3118800D01*
X17658400Y-2901000D02*
X17698400Y-2941000D01*
X17698400Y-2901000D02*
X17658400Y-2941000D01*
X17658400Y-4755200D02*
X17698400Y-4795200D01*
X17698400Y-4755200D02*
X17658400Y-4795200D01*
X17658400Y-9022400D02*
X17698400Y-9062400D01*
X17698400Y-9022400D02*
X17658400Y-9062400D01*
X17683800Y-9606600D02*
X17723800Y-9646600D01*
X17723800Y-9606600D02*
X17683800Y-9646600D01*
X17690080Y-6895079D02*
X17730080Y-6935079D01*
X17730080Y-6895079D02*
X17690080Y-6935079D01*
X17714999Y-13574799D02*
X17754999Y-13614799D01*
X17754999Y-13574799D02*
X17714999Y-13614799D01*
X17785400Y-8539800D02*
X17825400Y-8579800D01*
X17825400Y-8539800D02*
X17785400Y-8579800D01*
X17807100Y-6130500D02*
X17847100Y-6170500D01*
X17847100Y-6130500D02*
X17807100Y-6170500D01*
X17810800Y-5237800D02*
X17850800Y-5277800D01*
X17850800Y-5237800D02*
X17810800Y-5277800D01*
X17912400Y-7523800D02*
X17952400Y-7563800D01*
X17952400Y-7523800D02*
X17912400Y-7563800D01*
X17912400Y-9378000D02*
X17952400Y-9418000D01*
X17952400Y-9378000D02*
X17912400Y-9418000D01*
X17937800Y-11587800D02*
X17977800Y-11627800D01*
X17977800Y-11587800D02*
X17937800Y-11627800D01*
X18064800Y-10343200D02*
X18104800Y-10383200D01*
X18104800Y-10343200D02*
X18064800Y-10383200D01*
X18115600Y-11765600D02*
X18155600Y-11805600D01*
X18155600Y-11765600D02*
X18115600Y-11805600D01*
X18166400Y-6990400D02*
X18206400Y-7030400D01*
X18206400Y-6990400D02*
X18166400Y-7030400D01*
X18191800Y-8971600D02*
X18231800Y-9011600D01*
X18231800Y-8971600D02*
X18191800Y-9011600D01*
X18191800Y-11537000D02*
X18231800Y-11577000D01*
X18231800Y-11537000D02*
X18191800Y-11577000D01*
X18258900Y-2064700D02*
X18298900Y-2104700D01*
X18298900Y-2064700D02*
X18258900Y-2104700D01*
X18258900Y-3069700D02*
X18298900Y-3109700D01*
X18298900Y-3069700D02*
X18258900Y-3109700D01*
X18293400Y-13543600D02*
X18333400Y-13583600D01*
X18333400Y-13543600D02*
X18293400Y-13583600D01*
X18304301Y-11598701D02*
X18344301Y-11638701D01*
X18344301Y-11598701D02*
X18304301Y-11638701D01*
X18395000Y-12807000D02*
X18435000Y-12847000D01*
X18435000Y-12807000D02*
X18395000Y-12847000D01*
X18408900Y-13354300D02*
X18448900Y-13394300D01*
X18448900Y-13354300D02*
X18408900Y-13394300D01*
X18420400Y-6787200D02*
X18460400Y-6827200D01*
X18460400Y-6787200D02*
X18420400Y-6827200D01*
X18420400Y-9327200D02*
X18460400Y-9367200D01*
X18460400Y-9327200D02*
X18420400Y-9367200D01*
X18445800Y-9530400D02*
X18485800Y-9570400D01*
X18485800Y-9530400D02*
X18445800Y-9570400D01*
X18496600Y-12299000D02*
X18536600Y-12339000D01*
X18536600Y-12299000D02*
X18496600Y-12339000D01*
X18508900Y-2064700D02*
X18548900Y-2104700D01*
X18548900Y-2064700D02*
X18508900Y-2104700D01*
X18508900Y-3066500D02*
X18548900Y-3106500D01*
X18548900Y-3066500D02*
X18508900Y-3106500D01*
X18547400Y-9251000D02*
X18587400Y-9291000D01*
X18587400Y-9251000D02*
X18547400Y-9291000D01*
X18547400Y-13442000D02*
X18587400Y-13482000D01*
X18587400Y-13442000D02*
X18547400Y-13482000D01*
X18572800Y-9428800D02*
X18612800Y-9468800D01*
X18612800Y-9428800D02*
X18572800Y-9468800D01*
X18674400Y-5669600D02*
X18714400Y-5709600D01*
X18714400Y-5669600D02*
X18674400Y-5709600D01*
X18674400Y-7346000D02*
X18714400Y-7386000D01*
X18714400Y-7346000D02*
X18674400Y-7386000D01*
X18674400Y-8438200D02*
X18714400Y-8478200D01*
X18714400Y-8438200D02*
X18674400Y-8478200D01*
X18699800Y-12756200D02*
X18739800Y-12796200D01*
X18739800Y-12756200D02*
X18699800Y-12796200D01*
X18815899Y-11547901D02*
X18855899Y-11587901D01*
X18855899Y-11547901D02*
X18815899Y-11587901D01*
X18859100Y-13587500D02*
X18899100Y-13627500D01*
X18899100Y-13587500D02*
X18859100Y-13627500D01*
X18877600Y-6253800D02*
X18917600Y-6293800D01*
X18917600Y-6253800D02*
X18877600Y-6293800D01*
X18928400Y-7676200D02*
X18968400Y-7716200D01*
X18968400Y-7676200D02*
X18928400Y-7716200D01*
X18928400Y-10013000D02*
X18968400Y-10053000D01*
X18968400Y-10013000D02*
X18928400Y-10053000D01*
X19030000Y-12248200D02*
X19070000Y-12288200D01*
X19070000Y-12248200D02*
X19030000Y-12288200D01*
X19055400Y-8946200D02*
X19095400Y-8986200D01*
X19095400Y-8946200D02*
X19055400Y-8986200D01*
X19182400Y-4602800D02*
X19222400Y-4642800D01*
X19222400Y-4602800D02*
X19182400Y-4642800D01*
X19182400Y-6203000D02*
X19222400Y-6243000D01*
X19222400Y-6203000D02*
X19182400Y-6243000D01*
X19182400Y-7803200D02*
X19222400Y-7843200D01*
X19222400Y-7803200D02*
X19182400Y-7843200D01*
X19309400Y-3942400D02*
X19349400Y-3982400D01*
X19349400Y-3942400D02*
X19309400Y-3982400D01*
X19309400Y-9530400D02*
X19349400Y-9570400D01*
X19349400Y-9530400D02*
X19309400Y-9570400D01*
X19436400Y-8819200D02*
X19476400Y-8859200D01*
X19476400Y-8819200D02*
X19436400Y-8859200D01*
X19548901Y-11297499D02*
X19588901Y-11337499D01*
X19588901Y-11297499D02*
X19548901Y-11337499D01*
X19690400Y-6152200D02*
X19730400Y-6192200D01*
X19730400Y-6152200D02*
X19690400Y-6192200D01*
X19690400Y-6888800D02*
X19730400Y-6928800D01*
X19730400Y-6888800D02*
X19690400Y-6928800D01*
X19792000Y-5441000D02*
X19832000Y-5481000D01*
X19832000Y-5441000D02*
X19792000Y-5481000D01*
X19802901Y-7687101D02*
X19842901Y-7727101D01*
X19842901Y-7687101D02*
X19802901Y-7727101D01*
X19831899Y-5553501D02*
X19871899Y-5593501D01*
X19871899Y-5553501D02*
X19831899Y-5593501D01*
X19944400Y-4755200D02*
X19984400Y-4795200D01*
X19984400Y-4755200D02*
X19944400Y-4795200D01*
X19944400Y-7219000D02*
X19984400Y-7259000D01*
X19984400Y-7219000D02*
X19944400Y-7259000D01*
X20085899Y-7538299D02*
X20125899Y-7578299D01*
X20125899Y-7538299D02*
X20085899Y-7578299D01*
X20198400Y-5034600D02*
X20238400Y-5074600D01*
X20238400Y-5034600D02*
X20198400Y-5074600D01*
X20198400Y-6203000D02*
X20238400Y-6243000D01*
X20238400Y-6203000D02*
X20198400Y-6243000D01*
X20198400Y-7142800D02*
X20238400Y-7182800D01*
X20238400Y-7142800D02*
X20198400Y-7182800D01*
X20350800Y-9428800D02*
X20390800Y-9468800D01*
X20390800Y-9428800D02*
X20350800Y-9468800D01*
X20376200Y-4602800D02*
X20416200Y-4642800D01*
X20416200Y-4602800D02*
X20376200Y-4642800D01*
X20427000Y-6126800D02*
X20467000Y-6166800D01*
X20467000Y-6126800D02*
X20427000Y-6166800D01*
X20427000Y-9784400D02*
X20467000Y-9824400D01*
X20467000Y-9784400D02*
X20427000Y-9824400D01*
X9590400Y-4597400D02*
G75*
G03*
X9590400Y-4597400I-40000J0D01*
G01*
X9946000Y-6350000D02*
G75*
G03*
X9946000Y-6350000I-40000J0D01*
G01*
X10123800Y-8255000D02*
G75*
G03*
X10123800Y-8255000I-40000J0D01*
G01*
X10123800Y-9779000D02*
G75*
G03*
X10123800Y-9779000I-40000J0D01*
G01*
X10200000Y-6350000D02*
G75*
G03*
X10200000Y-6350000I-40000J0D01*
G01*
X10301600Y-5130800D02*
G75*
G03*
X10301600Y-5130800I-40000J0D01*
G01*
X10301600Y-5892800D02*
G75*
G03*
X10301600Y-5892800I-40000J0D01*
G01*
X10377800Y-8255000D02*
G75*
G03*
X10377800Y-8255000I-40000J0D01*
G01*
X10377800Y-9779000D02*
G75*
G03*
X10377800Y-9779000I-40000J0D01*
G01*
X10454000Y-6350000D02*
G75*
G03*
X10454000Y-6350000I-40000J0D01*
G01*
X10479400Y-10744200D02*
G75*
G03*
X10479400Y-10744200I-40000J0D01*
G01*
X10479400Y-11760200D02*
G75*
G03*
X10479400Y-11760200I-40000J0D01*
G01*
X10555600Y-5130800D02*
G75*
G03*
X10555600Y-5130800I-40000J0D01*
G01*
X10555600Y-5892800D02*
G75*
G03*
X10555600Y-5892800I-40000J0D01*
G01*
X10606400Y-4597400D02*
G75*
G03*
X10606400Y-4597400I-40000J0D01*
G01*
X10631800Y-8255000D02*
G75*
G03*
X10631800Y-8255000I-40000J0D01*
G01*
X10631800Y-9779000D02*
G75*
G03*
X10631800Y-9779000I-40000J0D01*
G01*
X10708000Y-6350000D02*
G75*
G03*
X10708000Y-6350000I-40000J0D01*
G01*
X10729400Y-10744200D02*
G75*
G03*
X10729400Y-10744200I-40000J0D01*
G01*
X10733400Y-11760200D02*
G75*
G03*
X10733400Y-11760200I-40000J0D01*
G01*
X10809600Y-5130800D02*
G75*
G03*
X10809600Y-5130800I-40000J0D01*
G01*
X10809600Y-5892800D02*
G75*
G03*
X10809600Y-5892800I-40000J0D01*
G01*
X10885800Y-8255000D02*
G75*
G03*
X10885800Y-8255000I-40000J0D01*
G01*
X10885800Y-9779000D02*
G75*
G03*
X10885800Y-9779000I-40000J0D01*
G01*
X10962000Y-6350000D02*
G75*
G03*
X10962000Y-6350000I-40000J0D01*
G01*
X10987400Y-11760200D02*
G75*
G03*
X10987400Y-11760200I-40000J0D01*
G01*
X11063600Y-5130800D02*
G75*
G03*
X11063600Y-5130800I-40000J0D01*
G01*
X11063600Y-5892800D02*
G75*
G03*
X11063600Y-5892800I-40000J0D01*
G01*
X11139800Y-8255000D02*
G75*
G03*
X11139800Y-8255000I-40000J0D01*
G01*
X11139800Y-9779000D02*
G75*
G03*
X11139800Y-9779000I-40000J0D01*
G01*
X11216000Y-6350000D02*
G75*
G03*
X11216000Y-6350000I-40000J0D01*
G01*
X11241400Y-10367200D02*
G75*
G03*
X11241400Y-10367200I-40000J0D01*
G01*
X11241400Y-10617200D02*
G75*
G03*
X11241400Y-10617200I-40000J0D01*
G01*
X11241400Y-11760200D02*
G75*
G03*
X11241400Y-11760200I-40000J0D01*
G01*
X11317600Y-5130800D02*
G75*
G03*
X11317600Y-5130800I-40000J0D01*
G01*
X11317600Y-5892800D02*
G75*
G03*
X11317600Y-5892800I-40000J0D01*
G01*
X11393800Y-8255000D02*
G75*
G03*
X11393800Y-8255000I-40000J0D01*
G01*
X11393800Y-9779000D02*
G75*
G03*
X11393800Y-9779000I-40000J0D01*
G01*
X11470000Y-6350000D02*
G75*
G03*
X11470000Y-6350000I-40000J0D01*
G01*
X11495400Y-11760200D02*
G75*
G03*
X11495400Y-11760200I-40000J0D01*
G01*
X11571600Y-5130800D02*
G75*
G03*
X11571600Y-5130800I-40000J0D01*
G01*
X11571600Y-5892800D02*
G75*
G03*
X11571600Y-5892800I-40000J0D01*
G01*
X11647800Y-8255000D02*
G75*
G03*
X11647800Y-8255000I-40000J0D01*
G01*
X11647800Y-9779000D02*
G75*
G03*
X11647800Y-9779000I-40000J0D01*
G01*
X11724000Y-6350000D02*
G75*
G03*
X11724000Y-6350000I-40000J0D01*
G01*
X11749400Y-11760200D02*
G75*
G03*
X11749400Y-11760200I-40000J0D01*
G01*
X11825600Y-5130800D02*
G75*
G03*
X11825600Y-5130800I-40000J0D01*
G01*
X11825600Y-5892800D02*
G75*
G03*
X11825600Y-5892800I-40000J0D01*
G01*
X11901800Y-8255000D02*
G75*
G03*
X11901800Y-8255000I-40000J0D01*
G01*
X11901800Y-9779000D02*
G75*
G03*
X11901800Y-9779000I-40000J0D01*
G01*
X11927200Y-3098800D02*
G75*
G03*
X11927200Y-3098800I-40000J0D01*
G01*
X12003400Y-3733800D02*
G75*
G03*
X12003400Y-3733800I-40000J0D01*
G01*
X12003400Y-4495800D02*
G75*
G03*
X12003400Y-4495800I-40000J0D01*
G01*
X12003400Y-11760200D02*
G75*
G03*
X12003400Y-11760200I-40000J0D01*
G01*
X12155800Y-8255000D02*
G75*
G03*
X12155800Y-8255000I-40000J0D01*
G01*
X12155800Y-9779000D02*
G75*
G03*
X12155800Y-9779000I-40000J0D01*
G01*
X12177200Y-3098800D02*
G75*
G03*
X12177200Y-3098800I-40000J0D01*
G01*
X12232000Y-5080000D02*
G75*
G03*
X12232000Y-5080000I-40000J0D01*
G01*
X12232000Y-5842000D02*
G75*
G03*
X12232000Y-5842000I-40000J0D01*
G01*
X12232000Y-6477000D02*
G75*
G03*
X12232000Y-6477000I-40000J0D01*
G01*
X12232000Y-7239000D02*
G75*
G03*
X12232000Y-7239000I-40000J0D01*
G01*
X12257400Y-3733800D02*
G75*
G03*
X12257400Y-3733800I-40000J0D01*
G01*
X12257400Y-4495800D02*
G75*
G03*
X12257400Y-4495800I-40000J0D01*
G01*
X12257400Y-11760200D02*
G75*
G03*
X12257400Y-11760200I-40000J0D01*
G01*
X12409800Y-8255000D02*
G75*
G03*
X12409800Y-8255000I-40000J0D01*
G01*
X12409800Y-9779000D02*
G75*
G03*
X12409800Y-9779000I-40000J0D01*
G01*
X12486000Y-5080000D02*
G75*
G03*
X12486000Y-5080000I-40000J0D01*
G01*
X12486000Y-5842000D02*
G75*
G03*
X12486000Y-5842000I-40000J0D01*
G01*
X12486000Y-6477000D02*
G75*
G03*
X12486000Y-6477000I-40000J0D01*
G01*
X12486000Y-7239000D02*
G75*
G03*
X12486000Y-7239000I-40000J0D01*
G01*
X12511400Y-3733800D02*
G75*
G03*
X12511400Y-3733800I-40000J0D01*
G01*
X12511400Y-4495800D02*
G75*
G03*
X12511400Y-4495800I-40000J0D01*
G01*
X12663800Y-8255000D02*
G75*
G03*
X12663800Y-8255000I-40000J0D01*
G01*
X12663800Y-9779000D02*
G75*
G03*
X12663800Y-9779000I-40000J0D01*
G01*
X12740000Y-5080000D02*
G75*
G03*
X12740000Y-5080000I-40000J0D01*
G01*
X12740000Y-5842000D02*
G75*
G03*
X12740000Y-5842000I-40000J0D01*
G01*
X12740000Y-6477000D02*
G75*
G03*
X12740000Y-6477000I-40000J0D01*
G01*
X12740000Y-7239000D02*
G75*
G03*
X12740000Y-7239000I-40000J0D01*
G01*
X12765400Y-3733800D02*
G75*
G03*
X12765400Y-3733800I-40000J0D01*
G01*
X12765400Y-4495800D02*
G75*
G03*
X12765400Y-4495800I-40000J0D01*
G01*
X12917800Y-8255000D02*
G75*
G03*
X12917800Y-8255000I-40000J0D01*
G01*
X12917800Y-9779000D02*
G75*
G03*
X12917800Y-9779000I-40000J0D01*
G01*
X12994000Y-5080000D02*
G75*
G03*
X12994000Y-5080000I-40000J0D01*
G01*
X12994000Y-5842000D02*
G75*
G03*
X12994000Y-5842000I-40000J0D01*
G01*
X12994000Y-6477000D02*
G75*
G03*
X12994000Y-6477000I-40000J0D01*
G01*
X12994000Y-7239000D02*
G75*
G03*
X12994000Y-7239000I-40000J0D01*
G01*
X13019400Y-3733800D02*
G75*
G03*
X13019400Y-3733800I-40000J0D01*
G01*
X13019400Y-4495800D02*
G75*
G03*
X13019400Y-4495800I-40000J0D01*
G01*
X13171800Y-8255000D02*
G75*
G03*
X13171800Y-8255000I-40000J0D01*
G01*
X13171800Y-9779000D02*
G75*
G03*
X13171800Y-9779000I-40000J0D01*
G01*
X13248000Y-5080000D02*
G75*
G03*
X13248000Y-5080000I-40000J0D01*
G01*
X13248000Y-5842000D02*
G75*
G03*
X13248000Y-5842000I-40000J0D01*
G01*
X13248000Y-6477000D02*
G75*
G03*
X13248000Y-6477000I-40000J0D01*
G01*
X13248000Y-7239000D02*
G75*
G03*
X13248000Y-7239000I-40000J0D01*
G01*
X13273400Y-3733800D02*
G75*
G03*
X13273400Y-3733800I-40000J0D01*
G01*
X13273400Y-4495800D02*
G75*
G03*
X13273400Y-4495800I-40000J0D01*
G01*
X13425800Y-8255000D02*
G75*
G03*
X13425800Y-8255000I-40000J0D01*
G01*
X13425800Y-9779000D02*
G75*
G03*
X13425800Y-9779000I-40000J0D01*
G01*
X13502000Y-5080000D02*
G75*
G03*
X13502000Y-5080000I-40000J0D01*
G01*
X13502000Y-5842000D02*
G75*
G03*
X13502000Y-5842000I-40000J0D01*
G01*
X13502000Y-6477000D02*
G75*
G03*
X13502000Y-6477000I-40000J0D01*
G01*
X13502000Y-7239000D02*
G75*
G03*
X13502000Y-7239000I-40000J0D01*
G01*
X13527400Y-3733800D02*
G75*
G03*
X13527400Y-3733800I-40000J0D01*
G01*
X13527400Y-4495800D02*
G75*
G03*
X13527400Y-4495800I-40000J0D01*
G01*
X13756000Y-5080000D02*
G75*
G03*
X13756000Y-5080000I-40000J0D01*
G01*
X13756000Y-5842000D02*
G75*
G03*
X13756000Y-5842000I-40000J0D01*
G01*
X13756000Y-6477000D02*
G75*
G03*
X13756000Y-6477000I-40000J0D01*
G01*
X13756000Y-7239000D02*
G75*
G03*
X13756000Y-7239000I-40000J0D01*
G01*
X13781400Y-3733800D02*
G75*
G03*
X13781400Y-3733800I-40000J0D01*
G01*
X13781400Y-4495800D02*
G75*
G03*
X13781400Y-4495800I-40000J0D01*
G01*
X14035400Y-3733800D02*
G75*
G03*
X14035400Y-3733800I-40000J0D01*
G01*
X14035400Y-4495800D02*
G75*
G03*
X14035400Y-4495800I-40000J0D01*
G01*
X14289400Y-3733800D02*
G75*
G03*
X14289400Y-3733800I-40000J0D01*
G01*
X14289400Y-4495800D02*
G75*
G03*
X14289400Y-4495800I-40000J0D01*
G01*
X15432400Y-4394200D02*
G75*
G03*
X15432400Y-4394200I-40000J0D01*
G01*
X15432400Y-5918200D02*
G75*
G03*
X15432400Y-5918200I-40000J0D01*
G01*
X15432400Y-6527800D02*
G75*
G03*
X15432400Y-6527800I-40000J0D01*
G01*
X15432400Y-8051800D02*
G75*
G03*
X15432400Y-8051800I-40000J0D01*
G01*
X15686400Y-4394200D02*
G75*
G03*
X15686400Y-4394200I-40000J0D01*
G01*
X15686400Y-5918200D02*
G75*
G03*
X15686400Y-5918200I-40000J0D01*
G01*
X15686400Y-6527800D02*
G75*
G03*
X15686400Y-6527800I-40000J0D01*
G01*
X15686400Y-8051800D02*
G75*
G03*
X15686400Y-8051800I-40000J0D01*
G01*
X15940400Y-4394200D02*
G75*
G03*
X15940400Y-4394200I-40000J0D01*
G01*
X15940400Y-5918200D02*
G75*
G03*
X15940400Y-5918200I-40000J0D01*
G01*
X15940400Y-6527800D02*
G75*
G03*
X15940400Y-6527800I-40000J0D01*
G01*
X15940400Y-8051800D02*
G75*
G03*
X15940400Y-8051800I-40000J0D01*
G01*
X16194400Y-4394200D02*
G75*
G03*
X16194400Y-4394200I-40000J0D01*
G01*
X16194400Y-5918200D02*
G75*
G03*
X16194400Y-5918200I-40000J0D01*
G01*
X16194400Y-6527800D02*
G75*
G03*
X16194400Y-6527800I-40000J0D01*
G01*
X16194400Y-8051800D02*
G75*
G03*
X16194400Y-8051800I-40000J0D01*
G01*
X16448400Y-4394200D02*
G75*
G03*
X16448400Y-4394200I-40000J0D01*
G01*
X16448400Y-5918200D02*
G75*
G03*
X16448400Y-5918200I-40000J0D01*
G01*
X16448400Y-6527800D02*
G75*
G03*
X16448400Y-6527800I-40000J0D01*
G01*
X16448400Y-8051800D02*
G75*
G03*
X16448400Y-8051800I-40000J0D01*
G01*
X16702400Y-4394200D02*
G75*
G03*
X16702400Y-4394200I-40000J0D01*
G01*
X16702400Y-5918200D02*
G75*
G03*
X16702400Y-5918200I-40000J0D01*
G01*
X16702400Y-6527800D02*
G75*
G03*
X16702400Y-6527800I-40000J0D01*
G01*
X16702400Y-8051800D02*
G75*
G03*
X16702400Y-8051800I-40000J0D01*
G01*
X16702400Y-10113200D02*
G75*
G03*
X16702400Y-10113200I-40000J0D01*
G01*
X16702400Y-10363200D02*
G75*
G03*
X16702400Y-10363200I-40000J0D01*
G01*
X16702400Y-11582400D02*
G75*
G03*
X16702400Y-11582400I-40000J0D01*
G01*
X16702400Y-11832400D02*
G75*
G03*
X16702400Y-11832400I-40000J0D01*
G01*
X16956400Y-4394200D02*
G75*
G03*
X16956400Y-4394200I-40000J0D01*
G01*
X16956400Y-5918200D02*
G75*
G03*
X16956400Y-5918200I-40000J0D01*
G01*
X16956400Y-6527800D02*
G75*
G03*
X16956400Y-6527800I-40000J0D01*
G01*
X16956400Y-8051800D02*
G75*
G03*
X16956400Y-8051800I-40000J0D01*
G01*
X16981800Y-9804400D02*
G75*
G03*
X16981800Y-9804400I-40000J0D01*
G01*
X16981800Y-10566400D02*
G75*
G03*
X16981800Y-10566400I-40000J0D01*
G01*
X16981800Y-10947400D02*
G75*
G03*
X16981800Y-10947400I-40000J0D01*
G01*
X16981800Y-11328400D02*
G75*
G03*
X16981800Y-11328400I-40000J0D01*
G01*
X16981800Y-12090400D02*
G75*
G03*
X16981800Y-12090400I-40000J0D01*
G01*
X16981800Y-12496800D02*
G75*
G03*
X16981800Y-12496800I-40000J0D01*
G01*
X17210400Y-4394200D02*
G75*
G03*
X17210400Y-4394200I-40000J0D01*
G01*
X17210400Y-5918200D02*
G75*
G03*
X17210400Y-5918200I-40000J0D01*
G01*
X17210400Y-6527800D02*
G75*
G03*
X17210400Y-6527800I-40000J0D01*
G01*
X17210400Y-8051800D02*
G75*
G03*
X17210400Y-8051800I-40000J0D01*
G01*
X17231800Y-10947400D02*
G75*
G03*
X17231800Y-10947400I-40000J0D01*
G01*
X17231800Y-12496800D02*
G75*
G03*
X17231800Y-12496800I-40000J0D01*
G01*
X17235800Y-9804400D02*
G75*
G03*
X17235800Y-9804400I-40000J0D01*
G01*
X17235800Y-10566400D02*
G75*
G03*
X17235800Y-10566400I-40000J0D01*
G01*
X17235800Y-11328400D02*
G75*
G03*
X17235800Y-11328400I-40000J0D01*
G01*
X17235800Y-12090400D02*
G75*
G03*
X17235800Y-12090400I-40000J0D01*
G01*
X17464400Y-4394200D02*
G75*
G03*
X17464400Y-4394200I-40000J0D01*
G01*
X17464400Y-5918200D02*
G75*
G03*
X17464400Y-5918200I-40000J0D01*
G01*
X17464400Y-6527800D02*
G75*
G03*
X17464400Y-6527800I-40000J0D01*
G01*
X17464400Y-8051800D02*
G75*
G03*
X17464400Y-8051800I-40000J0D01*
G01*
X17489800Y-9804400D02*
G75*
G03*
X17489800Y-9804400I-40000J0D01*
G01*
X17489800Y-10566400D02*
G75*
G03*
X17489800Y-10566400I-40000J0D01*
G01*
X17489800Y-11328400D02*
G75*
G03*
X17489800Y-11328400I-40000J0D01*
G01*
X17489800Y-12090400D02*
G75*
G03*
X17489800Y-12090400I-40000J0D01*
G01*
X17489800Y-12496800D02*
G75*
G03*
X17489800Y-12496800I-40000J0D01*
G01*
X17718400Y-4394200D02*
G75*
G03*
X17718400Y-4394200I-40000J0D01*
G01*
X17718400Y-5918200D02*
G75*
G03*
X17718400Y-5918200I-40000J0D01*
G01*
X17718400Y-6527800D02*
G75*
G03*
X17718400Y-6527800I-40000J0D01*
G01*
X17718400Y-8051800D02*
G75*
G03*
X17718400Y-8051800I-40000J0D01*
G01*
X17739800Y-12496800D02*
G75*
G03*
X17739800Y-12496800I-40000J0D01*
G01*
X17743800Y-9804400D02*
G75*
G03*
X17743800Y-9804400I-40000J0D01*
G01*
X17743800Y-10261600D02*
G75*
G03*
X17743800Y-10261600I-40000J0D01*
G01*
X17743800Y-10566400D02*
G75*
G03*
X17743800Y-10566400I-40000J0D01*
G01*
X17743800Y-11328400D02*
G75*
G03*
X17743800Y-11328400I-40000J0D01*
G01*
X17743800Y-12090400D02*
G75*
G03*
X17743800Y-12090400I-40000J0D01*
G01*
X17921600Y-10922000D02*
G75*
G03*
X17921600Y-10922000I-40000J0D01*
G01*
X17972400Y-4394200D02*
G75*
G03*
X17972400Y-4394200I-40000J0D01*
G01*
X17972400Y-5918200D02*
G75*
G03*
X17972400Y-5918200I-40000J0D01*
G01*
X17972400Y-6527800D02*
G75*
G03*
X17972400Y-6527800I-40000J0D01*
G01*
X17972400Y-8051800D02*
G75*
G03*
X17972400Y-8051800I-40000J0D01*
G01*
X17993800Y-10261600D02*
G75*
G03*
X17993800Y-10261600I-40000J0D01*
G01*
X17997800Y-9804400D02*
G75*
G03*
X17997800Y-9804400I-40000J0D01*
G01*
X17997800Y-10566400D02*
G75*
G03*
X17997800Y-10566400I-40000J0D01*
G01*
X17997800Y-11328400D02*
G75*
G03*
X17997800Y-11328400I-40000J0D01*
G01*
X17997800Y-12090400D02*
G75*
G03*
X17997800Y-12090400I-40000J0D01*
G01*
X18074000Y-12496800D02*
G75*
G03*
X18074000Y-12496800I-40000J0D01*
G01*
X18171600Y-10922000D02*
G75*
G03*
X18171600Y-10922000I-40000J0D01*
G01*
X18226400Y-4394200D02*
G75*
G03*
X18226400Y-4394200I-40000J0D01*
G01*
X18226400Y-5918200D02*
G75*
G03*
X18226400Y-5918200I-40000J0D01*
G01*
X18226400Y-6527800D02*
G75*
G03*
X18226400Y-6527800I-40000J0D01*
G01*
X18226400Y-8051800D02*
G75*
G03*
X18226400Y-8051800I-40000J0D01*
G01*
X18251800Y-9804400D02*
G75*
G03*
X18251800Y-9804400I-40000J0D01*
G01*
X18251800Y-10566400D02*
G75*
G03*
X18251800Y-10566400I-40000J0D01*
G01*
X18251800Y-11328400D02*
G75*
G03*
X18251800Y-11328400I-40000J0D01*
G01*
X18251800Y-12090400D02*
G75*
G03*
X18251800Y-12090400I-40000J0D01*
G01*
X18324000Y-12496800D02*
G75*
G03*
X18324000Y-12496800I-40000J0D01*
G01*
X18480400Y-4394200D02*
G75*
G03*
X18480400Y-4394200I-40000J0D01*
G01*
X18480400Y-5918200D02*
G75*
G03*
X18480400Y-5918200I-40000J0D01*
G01*
X18480400Y-6527800D02*
G75*
G03*
X18480400Y-6527800I-40000J0D01*
G01*
X18480400Y-8051800D02*
G75*
G03*
X18480400Y-8051800I-40000J0D01*
G01*
X18505800Y-9804400D02*
G75*
G03*
X18505800Y-9804400I-40000J0D01*
G01*
X18505800Y-10566400D02*
G75*
G03*
X18505800Y-10566400I-40000J0D01*
G01*
X18505800Y-11328400D02*
G75*
G03*
X18505800Y-11328400I-40000J0D01*
G01*
X18505800Y-12090400D02*
G75*
G03*
X18505800Y-12090400I-40000J0D01*
G01*
X18556600Y-12496800D02*
G75*
G03*
X18556600Y-12496800I-40000J0D01*
G01*
X18734400Y-4394200D02*
G75*
G03*
X18734400Y-4394200I-40000J0D01*
G01*
X18734400Y-5918200D02*
G75*
G03*
X18734400Y-5918200I-40000J0D01*
G01*
X18734400Y-6527800D02*
G75*
G03*
X18734400Y-6527800I-40000J0D01*
G01*
X18734400Y-8051800D02*
G75*
G03*
X18734400Y-8051800I-40000J0D01*
G01*
X18759800Y-9804400D02*
G75*
G03*
X18759800Y-9804400I-40000J0D01*
G01*
X18759800Y-10566400D02*
G75*
G03*
X18759800Y-10566400I-40000J0D01*
G01*
X18759800Y-11328400D02*
G75*
G03*
X18759800Y-11328400I-40000J0D01*
G01*
X18759800Y-12090400D02*
G75*
G03*
X18759800Y-12090400I-40000J0D01*
G01*
X18806600Y-12496800D02*
G75*
G03*
X18806600Y-12496800I-40000J0D01*
G01*
X18988400Y-4394200D02*
G75*
G03*
X18988400Y-4394200I-40000J0D01*
G01*
X18988400Y-5918200D02*
G75*
G03*
X18988400Y-5918200I-40000J0D01*
G01*
X18988400Y-6527800D02*
G75*
G03*
X18988400Y-6527800I-40000J0D01*
G01*
X18988400Y-8051800D02*
G75*
G03*
X18988400Y-8051800I-40000J0D01*
G01*
X19090000Y-10900600D02*
G75*
G03*
X19090000Y-10900600I-40000J0D01*
G01*
X19090000Y-11150600D02*
G75*
G03*
X19090000Y-11150600I-40000J0D01*
G01*
X19242400Y-4394200D02*
G75*
G03*
X19242400Y-4394200I-40000J0D01*
G01*
X19242400Y-5918200D02*
G75*
G03*
X19242400Y-5918200I-40000J0D01*
G01*
X19242400Y-6527800D02*
G75*
G03*
X19242400Y-6527800I-40000J0D01*
G01*
X19242400Y-8051800D02*
G75*
G03*
X19242400Y-8051800I-40000J0D01*
G01*
X19496400Y-4394200D02*
G75*
G03*
X19496400Y-4394200I-40000J0D01*
G01*
X19496400Y-5918200D02*
G75*
G03*
X19496400Y-5918200I-40000J0D01*
G01*
X19496400Y-6527800D02*
G75*
G03*
X19496400Y-6527800I-40000J0D01*
G01*
X19496400Y-8051800D02*
G75*
G03*
X19496400Y-8051800I-40000J0D01*
G01*
X19750400Y-4394200D02*
G75*
G03*
X19750400Y-4394200I-40000J0D01*
G01*
X19750400Y-5918200D02*
G75*
G03*
X19750400Y-5918200I-40000J0D01*
G01*
X19750400Y-6527800D02*
G75*
G03*
X19750400Y-6527800I-40000J0D01*
G01*
X19750400Y-8051800D02*
G75*
G03*
X19750400Y-8051800I-40000J0D01*
G01*
X19775800Y-3962400D02*
G75*
G03*
X19775800Y-3962400I-40000J0D01*
G01*
X19856000Y-8559800D02*
G75*
G03*
X19856000Y-8559800I-40000J0D01*
G01*
X20004400Y-4394200D02*
G75*
G03*
X20004400Y-4394200I-40000J0D01*
G01*
X20004400Y-5918200D02*
G75*
G03*
X20004400Y-5918200I-40000J0D01*
G01*
X20004400Y-6527800D02*
G75*
G03*
X20004400Y-6527800I-40000J0D01*
G01*
X20004400Y-8051800D02*
G75*
G03*
X20004400Y-8051800I-40000J0D01*
G01*
X20025800Y-3962400D02*
G75*
G03*
X20025800Y-3962400I-40000J0D01*
G01*
X20106000Y-8559800D02*
G75*
G03*
X20106000Y-8559800I-40000J0D01*
G01*
X20258400Y-4394200D02*
G75*
G03*
X20258400Y-4394200I-40000J0D01*
G01*
X20258400Y-5918200D02*
G75*
G03*
X20258400Y-5918200I-40000J0D01*
G01*
X20258400Y-6527800D02*
G75*
G03*
X20258400Y-6527800I-40000J0D01*
G01*
X20258400Y-8051800D02*
G75*
G03*
X20258400Y-8051800I-40000J0D01*
G01*
X10871200Y-4039400D02*
X10871200Y-4139400D01*
X10821200Y-4089400D02*
X10921200Y-4089400D01*
X10871200Y-4293400D02*
X10871200Y-4393400D01*
X10821200Y-4343400D02*
X10921200Y-4343400D01*
X11099800Y-12853200D02*
X11099800Y-12953200D01*
X11049800Y-12903200D02*
X11149800Y-12903200D01*
X11238300Y-13137200D02*
X11238300Y-13237200D01*
X11188300Y-13187200D02*
X11288300Y-13187200D01*
X11376800Y-12853200D02*
X11376800Y-12953200D01*
X11326800Y-12903200D02*
X11426800Y-12903200D01*
X11515300Y-13137200D02*
X11515300Y-13237200D01*
X11465300Y-13187200D02*
X11565300Y-13187200D01*
X11653800Y-12853200D02*
X11653800Y-12953200D01*
X11603800Y-12903200D02*
X11703800Y-12903200D01*
X11792300Y-13137200D02*
X11792300Y-13237200D01*
X11742300Y-13187200D02*
X11842300Y-13187200D01*
X11930800Y-12853200D02*
X11930800Y-12953200D01*
X11880800Y-12903200D02*
X11980800Y-12903200D01*
X12069300Y-13137200D02*
X12069300Y-13237200D01*
X12019300Y-13187200D02*
X12119300Y-13187200D01*
X12207800Y-12853200D02*
X12207800Y-12953200D01*
X12157800Y-12903200D02*
X12257800Y-12903200D01*
X14298600Y-12777000D02*
X14298600Y-12877000D01*
X14248600Y-12827000D02*
X14348600Y-12827000D01*
X14298600Y-13173000D02*
X14298600Y-13273000D01*
X14248600Y-13223000D02*
X14348600Y-13223000D01*
X14413100Y-12975000D02*
X14413100Y-13075000D01*
X14363100Y-13025000D02*
X14463100Y-13025000D01*
X14527600Y-12777000D02*
X14527600Y-12877000D01*
X14477600Y-12827000D02*
X14577600Y-12827000D01*
X14527600Y-13173000D02*
X14527600Y-13273000D01*
X14477600Y-13223000D02*
X14577600Y-13223000D01*
X14642100Y-12975000D02*
X14642100Y-13075000D01*
X14592100Y-13025000D02*
X14692100Y-13025000D01*
X14756600Y-12777000D02*
X14756600Y-12877000D01*
X14706600Y-12827000D02*
X14806600Y-12827000D01*
X14756600Y-13173000D02*
X14756600Y-13273000D01*
X14706600Y-13223000D02*
X14806600Y-13223000D01*
X14871100Y-12975000D02*
X14871100Y-13075000D01*
X14821100Y-13025000D02*
X14921100Y-13025000D01*
X14985600Y-12777000D02*
X14985600Y-12877000D01*
X14935600Y-12827000D02*
X15035600Y-12827000D01*
X14985600Y-13173000D02*
X14985600Y-13273000D01*
X14935600Y-13223000D02*
X15035600Y-13223000D01*
X15100100Y-12975000D02*
X15100100Y-13075000D01*
X15050100Y-13025000D02*
X15150100Y-13025000D01*
X15214600Y-12777000D02*
X15214600Y-12877000D01*
X15164600Y-12827000D02*
X15264600Y-12827000D01*
X15214600Y-13173000D02*
X15214600Y-13273000D01*
X15164600Y-13223000D02*
X15264600Y-13223000D01*
X15329100Y-12975000D02*
X15329100Y-13075000D01*
X15279100Y-13025000D02*
X15379100Y-13025000D01*
X17459400Y-12904000D02*
X17459400Y-13004000D01*
X17409400Y-12954000D02*
X17509400Y-12954000D01*
X17597900Y-13188000D02*
X17597900Y-13288000D01*
X17547900Y-13238000D02*
X17647900Y-13238000D01*
X17736400Y-12904000D02*
X17736400Y-13004000D01*
X17686400Y-12954000D02*
X17786400Y-12954000D01*
X17874900Y-13188000D02*
X17874900Y-13288000D01*
X17824900Y-13238000D02*
X17924900Y-13238000D01*
X18013400Y-12904000D02*
X18013400Y-13004000D01*
X17963400Y-12954000D02*
X18063400Y-12954000D01*
X18151900Y-13188000D02*
X18151900Y-13288000D01*
X18101900Y-13238000D02*
X18201900Y-13238000D01*
X18290400Y-12904000D02*
X18290400Y-13004000D01*
X18240400Y-12954000D02*
X18340400Y-12954000D01*
X18428900Y-13188000D02*
X18428900Y-13288000D01*
X18378900Y-13238000D02*
X18478900Y-13238000D01*
X18567400Y-12904000D02*
X18567400Y-13004000D01*
X18517400Y-12954000D02*
X18617400Y-12954000D01*
X9592827Y-3877827D02*
X9592827Y-3792973D01*
X9507973Y-3792973D01*
X9507973Y-3877827D01*
X9592827Y-3877827D01*
X9592827Y-4284227D02*
X9592827Y-4199373D01*
X9507973Y-4199373D01*
X9507973Y-4284227D01*
X9592827Y-4284227D01*
X10608827Y-3877827D02*
X10608827Y-3792973D01*
X10523973Y-3792973D01*
X10523973Y-3877827D01*
X10608827Y-3877827D01*
X10608827Y-4284227D02*
X10608827Y-4199373D01*
X10523973Y-4199373D01*
X10523973Y-4284227D01*
X10608827Y-4284227D01*
X10403800Y-13093200D02*
X10563800Y-12933200D01*
X10403800Y-12773200D01*
X10243800Y-12933200D01*
X10403800Y-13093200D01*
X12903800Y-13093200D02*
X13063800Y-12933200D01*
X12903800Y-12773200D01*
X12743800Y-12933200D01*
X12903800Y-13093200D01*
X13533100Y-13192000D02*
X13693100Y-13032000D01*
X13533100Y-12872000D01*
X13373100Y-13032000D01*
X13533100Y-13192000D01*
X16033100Y-13192000D02*
X16193100Y-13032000D01*
X16033100Y-12872000D01*
X15873100Y-13032000D01*
X16033100Y-13192000D01*
X16763400Y-13144000D02*
X16923400Y-12984000D01*
X16763400Y-12824000D01*
X16603400Y-12984000D01*
X16763400Y-13144000D01*
X19263400Y-13144000D02*
X19423400Y-12984000D01*
X19263400Y-12824000D01*
X19103400Y-12984000D01*
X19263400Y-13144000D01*
D11*
X9581528Y-14187014D02*
X9581528Y-13887014D01*
X9652957Y-13887014D01*
X9695814Y-13901300D01*
X9724386Y-13929871D01*
X9738671Y-13958443D01*
X9752957Y-14015586D01*
X9752957Y-14058443D01*
X9738671Y-14115586D01*
X9724386Y-14144157D01*
X9695814Y-14172729D01*
X9652957Y-14187014D01*
X9581528Y-14187014D01*
X9881528Y-14187014D02*
X9881528Y-13987014D01*
X9881528Y-14044157D02*
X9895814Y-14015586D01*
X9910100Y-14001300D01*
X9938671Y-13987014D01*
X9967243Y-13987014D01*
X10067243Y-14187014D02*
X10067243Y-13987014D01*
X10067243Y-13887014D02*
X10052957Y-13901300D01*
X10067243Y-13915586D01*
X10081528Y-13901300D01*
X10067243Y-13887014D01*
X10067243Y-13915586D01*
X10252957Y-14187014D02*
X10224386Y-14172729D01*
X10210100Y-14144157D01*
X10210100Y-13887014D01*
X10410100Y-14187014D02*
X10381528Y-14172729D01*
X10367243Y-14144157D01*
X10367243Y-13887014D01*
X10752957Y-14187014D02*
X10752957Y-13887014D01*
X10852957Y-14101300D01*
X10952957Y-13887014D01*
X10952957Y-14187014D01*
X11224386Y-14187014D02*
X11224386Y-14029871D01*
X11210100Y-14001300D01*
X11181528Y-13987014D01*
X11124386Y-13987014D01*
X11095814Y-14001300D01*
X11224386Y-14172729D02*
X11195814Y-14187014D01*
X11124386Y-14187014D01*
X11095814Y-14172729D01*
X11081528Y-14144157D01*
X11081528Y-14115586D01*
X11095814Y-14087014D01*
X11124386Y-14072729D01*
X11195814Y-14072729D01*
X11224386Y-14058443D01*
X11367243Y-13987014D02*
X11367243Y-14287014D01*
X11367243Y-14001300D02*
X11395814Y-13987014D01*
X11452957Y-13987014D01*
X11481528Y-14001300D01*
X11495814Y-14015586D01*
X11510100Y-14044157D01*
X11510100Y-14129871D01*
X11495814Y-14158443D01*
X11481528Y-14172729D01*
X11452957Y-14187014D01*
X11395814Y-14187014D01*
X11367243Y-14172729D01*
X11638671Y-14158443D02*
X11652957Y-14172729D01*
X11638671Y-14187014D01*
X11624386Y-14172729D01*
X11638671Y-14158443D01*
X11638671Y-14187014D01*
X11638671Y-14001300D02*
X11652957Y-14015586D01*
X11638671Y-14029871D01*
X11624386Y-14015586D01*
X11638671Y-14001300D01*
X11638671Y-14029871D01*
X9255100Y-14661300D02*
X9295100Y-14701300D01*
X9295100Y-14661300D02*
X9255100Y-14701300D01*
X9638671Y-14517014D02*
X9667243Y-14517014D01*
X9695814Y-14531300D01*
X9710100Y-14545586D01*
X9724386Y-14574157D01*
X9738671Y-14631300D01*
X9738671Y-14702729D01*
X9724386Y-14759871D01*
X9710100Y-14788443D01*
X9695814Y-14802729D01*
X9667243Y-14817014D01*
X9638671Y-14817014D01*
X9610100Y-14802729D01*
X9595814Y-14788443D01*
X9581528Y-14759871D01*
X9567243Y-14702729D01*
X9567243Y-14631300D01*
X9581528Y-14574157D01*
X9595814Y-14545586D01*
X9610100Y-14531300D01*
X9638671Y-14517014D01*
X9867243Y-14788443D02*
X9881528Y-14802729D01*
X9867243Y-14817014D01*
X9852957Y-14802729D01*
X9867243Y-14788443D01*
X9867243Y-14817014D01*
X10138671Y-14617014D02*
X10138671Y-14817014D01*
X10067243Y-14502729D02*
X9995814Y-14717014D01*
X10181528Y-14717014D01*
X10352957Y-14517014D02*
X10381528Y-14517014D01*
X10410100Y-14531300D01*
X10424386Y-14545586D01*
X10438671Y-14574157D01*
X10452957Y-14631300D01*
X10452957Y-14702729D01*
X10438671Y-14759871D01*
X10424386Y-14788443D01*
X10410100Y-14802729D01*
X10381528Y-14817014D01*
X10352957Y-14817014D01*
X10324386Y-14802729D01*
X10310100Y-14788443D01*
X10295814Y-14759871D01*
X10281528Y-14702729D01*
X10281528Y-14631300D01*
X10295814Y-14574157D01*
X10310100Y-14545586D01*
X10324386Y-14531300D01*
X10352957Y-14517014D01*
X10638671Y-14517014D02*
X10667243Y-14517014D01*
X10695814Y-14531300D01*
X10710100Y-14545586D01*
X10724386Y-14574157D01*
X10738671Y-14631300D01*
X10738671Y-14702729D01*
X10724386Y-14759871D01*
X10710100Y-14788443D01*
X10695814Y-14802729D01*
X10667243Y-14817014D01*
X10638671Y-14817014D01*
X10610100Y-14802729D01*
X10595814Y-14788443D01*
X10581528Y-14759871D01*
X10567243Y-14702729D01*
X10567243Y-14631300D01*
X10581528Y-14574157D01*
X10595814Y-14545586D01*
X10610100Y-14531300D01*
X10638671Y-14517014D01*
X10867243Y-14817014D02*
X10867243Y-14617014D01*
X10867243Y-14645586D02*
X10881528Y-14631300D01*
X10910100Y-14617014D01*
X10952957Y-14617014D01*
X10981528Y-14631300D01*
X10995814Y-14659871D01*
X10995814Y-14817014D01*
X10995814Y-14659871D02*
X11010100Y-14631300D01*
X11038671Y-14617014D01*
X11081528Y-14617014D01*
X11110100Y-14631300D01*
X11124386Y-14659871D01*
X11124386Y-14817014D01*
X11267243Y-14817014D02*
X11267243Y-14617014D01*
X11267243Y-14645586D02*
X11281528Y-14631300D01*
X11310100Y-14617014D01*
X11352957Y-14617014D01*
X11381528Y-14631300D01*
X11395814Y-14659871D01*
X11395814Y-14817014D01*
X11395814Y-14659871D02*
X11410100Y-14631300D01*
X11438671Y-14617014D01*
X11481528Y-14617014D01*
X11510100Y-14631300D01*
X11524386Y-14659871D01*
X11524386Y-14817014D01*
X12110100Y-14502729D02*
X11852957Y-14888443D01*
X12495814Y-14517014D02*
X12524386Y-14517014D01*
X12552957Y-14531300D01*
X12567243Y-14545586D01*
X12581528Y-14574157D01*
X12595814Y-14631300D01*
X12595814Y-14702729D01*
X12581528Y-14759871D01*
X12567243Y-14788443D01*
X12552957Y-14802729D01*
X12524386Y-14817014D01*
X12495814Y-14817014D01*
X12467243Y-14802729D01*
X12452957Y-14788443D01*
X12438671Y-14759871D01*
X12424386Y-14702729D01*
X12424386Y-14631300D01*
X12438671Y-14574157D01*
X12452957Y-14545586D01*
X12467243Y-14531300D01*
X12495814Y-14517014D01*
X12724386Y-14788443D02*
X12738671Y-14802729D01*
X12724386Y-14817014D01*
X12710100Y-14802729D01*
X12724386Y-14788443D01*
X12724386Y-14817014D01*
X12924386Y-14517014D02*
X12952957Y-14517014D01*
X12981528Y-14531300D01*
X12995814Y-14545586D01*
X13010100Y-14574157D01*
X13024386Y-14631300D01*
X13024386Y-14702729D01*
X13010100Y-14759871D01*
X12995814Y-14788443D01*
X12981528Y-14802729D01*
X12952957Y-14817014D01*
X12924386Y-14817014D01*
X12895814Y-14802729D01*
X12881528Y-14788443D01*
X12867243Y-14759871D01*
X12852957Y-14702729D01*
X12852957Y-14631300D01*
X12867243Y-14574157D01*
X12881528Y-14545586D01*
X12895814Y-14531300D01*
X12924386Y-14517014D01*
X13310100Y-14817014D02*
X13138671Y-14817014D01*
X13224386Y-14817014D02*
X13224386Y-14517014D01*
X13195814Y-14559871D01*
X13167243Y-14588443D01*
X13138671Y-14602729D01*
X13581528Y-14517014D02*
X13438671Y-14517014D01*
X13424386Y-14659871D01*
X13438671Y-14645586D01*
X13467243Y-14631300D01*
X13538671Y-14631300D01*
X13567243Y-14645586D01*
X13581528Y-14659871D01*
X13595814Y-14688443D01*
X13595814Y-14759871D01*
X13581528Y-14788443D01*
X13567243Y-14802729D01*
X13538671Y-14817014D01*
X13467243Y-14817014D01*
X13438671Y-14802729D01*
X13424386Y-14788443D01*
X13695814Y-14517014D02*
X13895814Y-14517014D01*
X13767243Y-14817014D01*
X13995814Y-14517014D02*
X13995814Y-14574157D01*
X14110100Y-14517014D02*
X14110100Y-14574157D01*
X14552957Y-14931300D02*
X14538671Y-14917014D01*
X14510100Y-14874157D01*
X14495814Y-14845586D01*
X14481528Y-14802729D01*
X14467243Y-14731300D01*
X14467243Y-14674157D01*
X14481528Y-14602729D01*
X14495814Y-14559871D01*
X14510100Y-14531300D01*
X14538671Y-14488443D01*
X14552957Y-14474157D01*
X14638671Y-14517014D02*
X14824386Y-14517014D01*
X14724386Y-14631300D01*
X14767243Y-14631300D01*
X14795814Y-14645586D01*
X14810100Y-14659871D01*
X14824386Y-14688443D01*
X14824386Y-14759871D01*
X14810100Y-14788443D01*
X14795814Y-14802729D01*
X14767243Y-14817014D01*
X14681528Y-14817014D01*
X14652957Y-14802729D01*
X14638671Y-14788443D01*
X14924386Y-14517014D02*
X15124386Y-14517014D01*
X14995814Y-14817014D01*
X15395814Y-14817014D02*
X15224386Y-14817014D01*
X15310100Y-14817014D02*
X15310100Y-14517014D01*
X15281528Y-14559871D01*
X15252957Y-14588443D01*
X15224386Y-14602729D01*
X15752957Y-14817014D02*
X15752957Y-14517014D01*
X15881528Y-14817014D02*
X15881528Y-14659871D01*
X15867243Y-14631300D01*
X15838671Y-14617014D01*
X15795814Y-14617014D01*
X15767243Y-14631300D01*
X15752957Y-14645586D01*
X16067243Y-14817014D02*
X16038671Y-14802729D01*
X16024386Y-14788443D01*
X16010100Y-14759871D01*
X16010100Y-14674157D01*
X16024386Y-14645586D01*
X16038671Y-14631300D01*
X16067243Y-14617014D01*
X16110100Y-14617014D01*
X16138671Y-14631300D01*
X16152957Y-14645586D01*
X16167243Y-14674157D01*
X16167243Y-14759871D01*
X16152957Y-14788443D01*
X16138671Y-14802729D01*
X16110100Y-14817014D01*
X16067243Y-14817014D01*
X16338671Y-14817014D02*
X16310100Y-14802729D01*
X16295814Y-14774157D01*
X16295814Y-14517014D01*
X16567243Y-14802729D02*
X16538671Y-14817014D01*
X16481528Y-14817014D01*
X16452957Y-14802729D01*
X16438671Y-14774157D01*
X16438671Y-14659871D01*
X16452957Y-14631300D01*
X16481528Y-14617014D01*
X16538671Y-14617014D01*
X16567243Y-14631300D01*
X16581528Y-14659871D01*
X16581528Y-14688443D01*
X16438671Y-14717014D01*
X16695814Y-14802729D02*
X16724386Y-14817014D01*
X16781528Y-14817014D01*
X16810100Y-14802729D01*
X16824386Y-14774157D01*
X16824386Y-14759871D01*
X16810100Y-14731300D01*
X16781528Y-14717014D01*
X16738671Y-14717014D01*
X16710100Y-14702729D01*
X16695814Y-14674157D01*
X16695814Y-14659871D01*
X16710100Y-14631300D01*
X16738671Y-14617014D01*
X16781528Y-14617014D01*
X16810100Y-14631300D01*
X16924386Y-14931300D02*
X16938671Y-14917014D01*
X16967243Y-14874157D01*
X16981528Y-14845586D01*
X16995814Y-14802729D01*
X17010100Y-14731300D01*
X17010100Y-14674157D01*
X16995814Y-14602729D01*
X16981528Y-14559871D01*
X16967243Y-14531300D01*
X16938671Y-14488443D01*
X16924386Y-14474157D01*
X9295100Y-15077300D02*
G75*
G03*
X9295100Y-15077300I-40000J0D01*
G01*
X9638671Y-14913014D02*
X9667243Y-14913014D01*
X9695814Y-14927300D01*
X9710100Y-14941586D01*
X9724386Y-14970157D01*
X9738671Y-15027300D01*
X9738671Y-15098729D01*
X9724386Y-15155871D01*
X9710100Y-15184443D01*
X9695814Y-15198729D01*
X9667243Y-15213014D01*
X9638671Y-15213014D01*
X9610100Y-15198729D01*
X9595814Y-15184443D01*
X9581528Y-15155871D01*
X9567243Y-15098729D01*
X9567243Y-15027300D01*
X9581528Y-14970157D01*
X9595814Y-14941586D01*
X9610100Y-14927300D01*
X9638671Y-14913014D01*
X9867243Y-15184443D02*
X9881528Y-15198729D01*
X9867243Y-15213014D01*
X9852957Y-15198729D01*
X9867243Y-15184443D01*
X9867243Y-15213014D01*
X10052957Y-15041586D02*
X10024386Y-15027300D01*
X10010100Y-15013014D01*
X9995814Y-14984443D01*
X9995814Y-14970157D01*
X10010100Y-14941586D01*
X10024386Y-14927300D01*
X10052957Y-14913014D01*
X10110100Y-14913014D01*
X10138671Y-14927300D01*
X10152957Y-14941586D01*
X10167243Y-14970157D01*
X10167243Y-14984443D01*
X10152957Y-15013014D01*
X10138671Y-15027300D01*
X10110100Y-15041586D01*
X10052957Y-15041586D01*
X10024386Y-15055871D01*
X10010100Y-15070157D01*
X9995814Y-15098729D01*
X9995814Y-15155871D01*
X10010100Y-15184443D01*
X10024386Y-15198729D01*
X10052957Y-15213014D01*
X10110100Y-15213014D01*
X10138671Y-15198729D01*
X10152957Y-15184443D01*
X10167243Y-15155871D01*
X10167243Y-15098729D01*
X10152957Y-15070157D01*
X10138671Y-15055871D01*
X10110100Y-15041586D01*
X10352957Y-14913014D02*
X10381528Y-14913014D01*
X10410100Y-14927300D01*
X10424386Y-14941586D01*
X10438671Y-14970157D01*
X10452957Y-15027300D01*
X10452957Y-15098729D01*
X10438671Y-15155871D01*
X10424386Y-15184443D01*
X10410100Y-15198729D01*
X10381528Y-15213014D01*
X10352957Y-15213014D01*
X10324386Y-15198729D01*
X10310100Y-15184443D01*
X10295814Y-15155871D01*
X10281528Y-15098729D01*
X10281528Y-15027300D01*
X10295814Y-14970157D01*
X10310100Y-14941586D01*
X10324386Y-14927300D01*
X10352957Y-14913014D01*
X10638671Y-14913014D02*
X10667243Y-14913014D01*
X10695814Y-14927300D01*
X10710100Y-14941586D01*
X10724386Y-14970157D01*
X10738671Y-15027300D01*
X10738671Y-15098729D01*
X10724386Y-15155871D01*
X10710100Y-15184443D01*
X10695814Y-15198729D01*
X10667243Y-15213014D01*
X10638671Y-15213014D01*
X10610100Y-15198729D01*
X10595814Y-15184443D01*
X10581528Y-15155871D01*
X10567243Y-15098729D01*
X10567243Y-15027300D01*
X10581528Y-14970157D01*
X10595814Y-14941586D01*
X10610100Y-14927300D01*
X10638671Y-14913014D01*
X10867243Y-15213014D02*
X10867243Y-15013014D01*
X10867243Y-15041586D02*
X10881528Y-15027300D01*
X10910100Y-15013014D01*
X10952957Y-15013014D01*
X10981528Y-15027300D01*
X10995814Y-15055871D01*
X10995814Y-15213014D01*
X10995814Y-15055871D02*
X11010100Y-15027300D01*
X11038671Y-15013014D01*
X11081528Y-15013014D01*
X11110100Y-15027300D01*
X11124386Y-15055871D01*
X11124386Y-15213014D01*
X11267243Y-15213014D02*
X11267243Y-15013014D01*
X11267243Y-15041586D02*
X11281528Y-15027300D01*
X11310100Y-15013014D01*
X11352957Y-15013014D01*
X11381528Y-15027300D01*
X11395814Y-15055871D01*
X11395814Y-15213014D01*
X11395814Y-15055871D02*
X11410100Y-15027300D01*
X11438671Y-15013014D01*
X11481528Y-15013014D01*
X11510100Y-15027300D01*
X11524386Y-15055871D01*
X11524386Y-15213014D01*
X12110100Y-14898729D02*
X11852957Y-15284443D01*
X12495814Y-14913014D02*
X12524386Y-14913014D01*
X12552957Y-14927300D01*
X12567243Y-14941586D01*
X12581528Y-14970157D01*
X12595814Y-15027300D01*
X12595814Y-15098729D01*
X12581528Y-15155871D01*
X12567243Y-15184443D01*
X12552957Y-15198729D01*
X12524386Y-15213014D01*
X12495814Y-15213014D01*
X12467243Y-15198729D01*
X12452957Y-15184443D01*
X12438671Y-15155871D01*
X12424386Y-15098729D01*
X12424386Y-15027300D01*
X12438671Y-14970157D01*
X12452957Y-14941586D01*
X12467243Y-14927300D01*
X12495814Y-14913014D01*
X12724386Y-15184443D02*
X12738671Y-15198729D01*
X12724386Y-15213014D01*
X12710100Y-15198729D01*
X12724386Y-15184443D01*
X12724386Y-15213014D01*
X12924386Y-14913014D02*
X12952957Y-14913014D01*
X12981528Y-14927300D01*
X12995814Y-14941586D01*
X13010100Y-14970157D01*
X13024386Y-15027300D01*
X13024386Y-15098729D01*
X13010100Y-15155871D01*
X12995814Y-15184443D01*
X12981528Y-15198729D01*
X12952957Y-15213014D01*
X12924386Y-15213014D01*
X12895814Y-15198729D01*
X12881528Y-15184443D01*
X12867243Y-15155871D01*
X12852957Y-15098729D01*
X12852957Y-15027300D01*
X12867243Y-14970157D01*
X12881528Y-14941586D01*
X12895814Y-14927300D01*
X12924386Y-14913014D01*
X13124386Y-14913014D02*
X13310100Y-14913014D01*
X13210100Y-15027300D01*
X13252957Y-15027300D01*
X13281528Y-15041586D01*
X13295814Y-15055871D01*
X13310100Y-15084443D01*
X13310100Y-15155871D01*
X13295814Y-15184443D01*
X13281528Y-15198729D01*
X13252957Y-15213014D01*
X13167243Y-15213014D01*
X13138671Y-15198729D01*
X13124386Y-15184443D01*
X13595814Y-15213014D02*
X13424386Y-15213014D01*
X13510100Y-15213014D02*
X13510100Y-14913014D01*
X13481528Y-14955871D01*
X13452957Y-14984443D01*
X13424386Y-14998729D01*
X13867243Y-14913014D02*
X13724386Y-14913014D01*
X13710100Y-15055871D01*
X13724386Y-15041586D01*
X13752957Y-15027300D01*
X13824386Y-15027300D01*
X13852957Y-15041586D01*
X13867243Y-15055871D01*
X13881528Y-15084443D01*
X13881528Y-15155871D01*
X13867243Y-15184443D01*
X13852957Y-15198729D01*
X13824386Y-15213014D01*
X13752957Y-15213014D01*
X13724386Y-15198729D01*
X13710100Y-15184443D01*
X13995814Y-14913014D02*
X13995814Y-14970157D01*
X14110100Y-14913014D02*
X14110100Y-14970157D01*
X14552957Y-15327300D02*
X14538671Y-15313014D01*
X14510100Y-15270157D01*
X14495814Y-15241586D01*
X14481528Y-15198729D01*
X14467243Y-15127300D01*
X14467243Y-15070157D01*
X14481528Y-14998729D01*
X14495814Y-14955871D01*
X14510100Y-14927300D01*
X14538671Y-14884443D01*
X14552957Y-14870157D01*
X14652957Y-14941586D02*
X14667243Y-14927300D01*
X14695814Y-14913014D01*
X14767243Y-14913014D01*
X14795814Y-14927300D01*
X14810100Y-14941586D01*
X14824386Y-14970157D01*
X14824386Y-14998729D01*
X14810100Y-15041586D01*
X14638671Y-15213014D01*
X14824386Y-15213014D01*
X15095814Y-14913014D02*
X14952957Y-14913014D01*
X14938671Y-15055871D01*
X14952957Y-15041586D01*
X14981528Y-15027300D01*
X15052957Y-15027300D01*
X15081528Y-15041586D01*
X15095814Y-15055871D01*
X15110100Y-15084443D01*
X15110100Y-15155871D01*
X15095814Y-15184443D01*
X15081528Y-15198729D01*
X15052957Y-15213014D01*
X14981528Y-15213014D01*
X14952957Y-15198729D01*
X14938671Y-15184443D01*
X15295814Y-14913014D02*
X15324386Y-14913014D01*
X15352957Y-14927300D01*
X15367243Y-14941586D01*
X15381528Y-14970157D01*
X15395814Y-15027300D01*
X15395814Y-15098729D01*
X15381528Y-15155871D01*
X15367243Y-15184443D01*
X15352957Y-15198729D01*
X15324386Y-15213014D01*
X15295814Y-15213014D01*
X15267243Y-15198729D01*
X15252957Y-15184443D01*
X15238671Y-15155871D01*
X15224386Y-15098729D01*
X15224386Y-15027300D01*
X15238671Y-14970157D01*
X15252957Y-14941586D01*
X15267243Y-14927300D01*
X15295814Y-14913014D01*
X15752957Y-15213014D02*
X15752957Y-14913014D01*
X15881528Y-15213014D02*
X15881528Y-15055871D01*
X15867243Y-15027300D01*
X15838671Y-15013014D01*
X15795814Y-15013014D01*
X15767243Y-15027300D01*
X15752957Y-15041586D01*
X16067243Y-15213014D02*
X16038671Y-15198729D01*
X16024386Y-15184443D01*
X16010100Y-15155871D01*
X16010100Y-15070157D01*
X16024386Y-15041586D01*
X16038671Y-15027300D01*
X16067243Y-15013014D01*
X16110100Y-15013014D01*
X16138671Y-15027300D01*
X16152957Y-15041586D01*
X16167243Y-15070157D01*
X16167243Y-15155871D01*
X16152957Y-15184443D01*
X16138671Y-15198729D01*
X16110100Y-15213014D01*
X16067243Y-15213014D01*
X16338671Y-15213014D02*
X16310100Y-15198729D01*
X16295814Y-15170157D01*
X16295814Y-14913014D01*
X16567243Y-15198729D02*
X16538671Y-15213014D01*
X16481528Y-15213014D01*
X16452957Y-15198729D01*
X16438671Y-15170157D01*
X16438671Y-15055871D01*
X16452957Y-15027300D01*
X16481528Y-15013014D01*
X16538671Y-15013014D01*
X16567243Y-15027300D01*
X16581528Y-15055871D01*
X16581528Y-15084443D01*
X16438671Y-15113014D01*
X16695814Y-15198729D02*
X16724386Y-15213014D01*
X16781528Y-15213014D01*
X16810100Y-15198729D01*
X16824386Y-15170157D01*
X16824386Y-15155871D01*
X16810100Y-15127300D01*
X16781528Y-15113014D01*
X16738671Y-15113014D01*
X16710100Y-15098729D01*
X16695814Y-15070157D01*
X16695814Y-15055871D01*
X16710100Y-15027300D01*
X16738671Y-15013014D01*
X16781528Y-15013014D01*
X16810100Y-15027300D01*
X16924386Y-15327300D02*
X16938671Y-15313014D01*
X16967243Y-15270157D01*
X16981528Y-15241586D01*
X16995814Y-15198729D01*
X17010100Y-15127300D01*
X17010100Y-15070157D01*
X16995814Y-14998729D01*
X16981528Y-14955871D01*
X16967243Y-14927300D01*
X16938671Y-14884443D01*
X16924386Y-14870157D01*
X9245100Y-15423300D02*
X9245100Y-15523300D01*
X9195100Y-15473300D02*
X9295100Y-15473300D01*
X9738671Y-15609014D02*
X9567243Y-15609014D01*
X9652957Y-15609014D02*
X9652957Y-15309014D01*
X9624386Y-15351871D01*
X9595814Y-15380443D01*
X9567243Y-15394729D01*
X9867243Y-15580443D02*
X9881528Y-15594729D01*
X9867243Y-15609014D01*
X9852957Y-15594729D01*
X9867243Y-15580443D01*
X9867243Y-15609014D01*
X10067243Y-15309014D02*
X10095814Y-15309014D01*
X10124386Y-15323300D01*
X10138671Y-15337586D01*
X10152957Y-15366157D01*
X10167243Y-15423300D01*
X10167243Y-15494729D01*
X10152957Y-15551871D01*
X10138671Y-15580443D01*
X10124386Y-15594729D01*
X10095814Y-15609014D01*
X10067243Y-15609014D01*
X10038671Y-15594729D01*
X10024386Y-15580443D01*
X10010100Y-15551871D01*
X9995814Y-15494729D01*
X9995814Y-15423300D01*
X10010100Y-15366157D01*
X10024386Y-15337586D01*
X10038671Y-15323300D01*
X10067243Y-15309014D01*
X10352957Y-15309014D02*
X10381528Y-15309014D01*
X10410100Y-15323300D01*
X10424386Y-15337586D01*
X10438671Y-15366157D01*
X10452957Y-15423300D01*
X10452957Y-15494729D01*
X10438671Y-15551871D01*
X10424386Y-15580443D01*
X10410100Y-15594729D01*
X10381528Y-15609014D01*
X10352957Y-15609014D01*
X10324386Y-15594729D01*
X10310100Y-15580443D01*
X10295814Y-15551871D01*
X10281528Y-15494729D01*
X10281528Y-15423300D01*
X10295814Y-15366157D01*
X10310100Y-15337586D01*
X10324386Y-15323300D01*
X10352957Y-15309014D01*
X10638671Y-15309014D02*
X10667243Y-15309014D01*
X10695814Y-15323300D01*
X10710100Y-15337586D01*
X10724386Y-15366157D01*
X10738671Y-15423300D01*
X10738671Y-15494729D01*
X10724386Y-15551871D01*
X10710100Y-15580443D01*
X10695814Y-15594729D01*
X10667243Y-15609014D01*
X10638671Y-15609014D01*
X10610100Y-15594729D01*
X10595814Y-15580443D01*
X10581528Y-15551871D01*
X10567243Y-15494729D01*
X10567243Y-15423300D01*
X10581528Y-15366157D01*
X10595814Y-15337586D01*
X10610100Y-15323300D01*
X10638671Y-15309014D01*
X10867243Y-15609014D02*
X10867243Y-15409014D01*
X10867243Y-15437586D02*
X10881528Y-15423300D01*
X10910100Y-15409014D01*
X10952957Y-15409014D01*
X10981528Y-15423300D01*
X10995814Y-15451871D01*
X10995814Y-15609014D01*
X10995814Y-15451871D02*
X11010100Y-15423300D01*
X11038671Y-15409014D01*
X11081528Y-15409014D01*
X11110100Y-15423300D01*
X11124386Y-15451871D01*
X11124386Y-15609014D01*
X11267243Y-15609014D02*
X11267243Y-15409014D01*
X11267243Y-15437586D02*
X11281528Y-15423300D01*
X11310100Y-15409014D01*
X11352957Y-15409014D01*
X11381528Y-15423300D01*
X11395814Y-15451871D01*
X11395814Y-15609014D01*
X11395814Y-15451871D02*
X11410100Y-15423300D01*
X11438671Y-15409014D01*
X11481528Y-15409014D01*
X11510100Y-15423300D01*
X11524386Y-15451871D01*
X11524386Y-15609014D01*
X12110100Y-15294729D02*
X11852957Y-15680443D01*
X12495814Y-15309014D02*
X12524386Y-15309014D01*
X12552957Y-15323300D01*
X12567243Y-15337586D01*
X12581528Y-15366157D01*
X12595814Y-15423300D01*
X12595814Y-15494729D01*
X12581528Y-15551871D01*
X12567243Y-15580443D01*
X12552957Y-15594729D01*
X12524386Y-15609014D01*
X12495814Y-15609014D01*
X12467243Y-15594729D01*
X12452957Y-15580443D01*
X12438671Y-15551871D01*
X12424386Y-15494729D01*
X12424386Y-15423300D01*
X12438671Y-15366157D01*
X12452957Y-15337586D01*
X12467243Y-15323300D01*
X12495814Y-15309014D01*
X12724386Y-15580443D02*
X12738671Y-15594729D01*
X12724386Y-15609014D01*
X12710100Y-15594729D01*
X12724386Y-15580443D01*
X12724386Y-15609014D01*
X12924386Y-15309014D02*
X12952957Y-15309014D01*
X12981528Y-15323300D01*
X12995814Y-15337586D01*
X13010100Y-15366157D01*
X13024386Y-15423300D01*
X13024386Y-15494729D01*
X13010100Y-15551871D01*
X12995814Y-15580443D01*
X12981528Y-15594729D01*
X12952957Y-15609014D01*
X12924386Y-15609014D01*
X12895814Y-15594729D01*
X12881528Y-15580443D01*
X12867243Y-15551871D01*
X12852957Y-15494729D01*
X12852957Y-15423300D01*
X12867243Y-15366157D01*
X12881528Y-15337586D01*
X12895814Y-15323300D01*
X12924386Y-15309014D01*
X13124386Y-15309014D02*
X13310100Y-15309014D01*
X13210100Y-15423300D01*
X13252957Y-15423300D01*
X13281528Y-15437586D01*
X13295814Y-15451871D01*
X13310100Y-15480443D01*
X13310100Y-15551871D01*
X13295814Y-15580443D01*
X13281528Y-15594729D01*
X13252957Y-15609014D01*
X13167243Y-15609014D01*
X13138671Y-15594729D01*
X13124386Y-15580443D01*
X13452957Y-15609014D02*
X13510100Y-15609014D01*
X13538671Y-15594729D01*
X13552957Y-15580443D01*
X13581528Y-15537586D01*
X13595814Y-15480443D01*
X13595814Y-15366157D01*
X13581528Y-15337586D01*
X13567243Y-15323300D01*
X13538671Y-15309014D01*
X13481528Y-15309014D01*
X13452957Y-15323300D01*
X13438671Y-15337586D01*
X13424386Y-15366157D01*
X13424386Y-15437586D01*
X13438671Y-15466157D01*
X13452957Y-15480443D01*
X13481528Y-15494729D01*
X13538671Y-15494729D01*
X13567243Y-15480443D01*
X13581528Y-15466157D01*
X13595814Y-15437586D01*
X13852957Y-15409014D02*
X13852957Y-15609014D01*
X13781528Y-15294729D02*
X13710100Y-15509014D01*
X13895814Y-15509014D01*
X13995814Y-15309014D02*
X13995814Y-15366157D01*
X14110100Y-15309014D02*
X14110100Y-15366157D01*
X14552957Y-15723300D02*
X14538671Y-15709014D01*
X14510100Y-15666157D01*
X14495814Y-15637586D01*
X14481528Y-15594729D01*
X14467243Y-15523300D01*
X14467243Y-15466157D01*
X14481528Y-15394729D01*
X14495814Y-15351871D01*
X14510100Y-15323300D01*
X14538671Y-15280443D01*
X14552957Y-15266157D01*
X14638671Y-15309014D02*
X14824386Y-15309014D01*
X14724386Y-15423300D01*
X14767243Y-15423300D01*
X14795814Y-15437586D01*
X14810100Y-15451871D01*
X14824386Y-15480443D01*
X14824386Y-15551871D01*
X14810100Y-15580443D01*
X14795814Y-15594729D01*
X14767243Y-15609014D01*
X14681528Y-15609014D01*
X14652957Y-15594729D01*
X14638671Y-15580443D01*
X15095814Y-15309014D02*
X14952957Y-15309014D01*
X14938671Y-15451871D01*
X14952957Y-15437586D01*
X14981528Y-15423300D01*
X15052957Y-15423300D01*
X15081528Y-15437586D01*
X15095814Y-15451871D01*
X15110100Y-15480443D01*
X15110100Y-15551871D01*
X15095814Y-15580443D01*
X15081528Y-15594729D01*
X15052957Y-15609014D01*
X14981528Y-15609014D01*
X14952957Y-15594729D01*
X14938671Y-15580443D01*
X15467243Y-15609014D02*
X15467243Y-15309014D01*
X15595814Y-15609014D02*
X15595814Y-15451871D01*
X15581528Y-15423300D01*
X15552957Y-15409014D01*
X15510100Y-15409014D01*
X15481528Y-15423300D01*
X15467243Y-15437586D01*
X15781528Y-15609014D02*
X15752957Y-15594729D01*
X15738671Y-15580443D01*
X15724386Y-15551871D01*
X15724386Y-15466157D01*
X15738671Y-15437586D01*
X15752957Y-15423300D01*
X15781528Y-15409014D01*
X15824386Y-15409014D01*
X15852957Y-15423300D01*
X15867243Y-15437586D01*
X15881528Y-15466157D01*
X15881528Y-15551871D01*
X15867243Y-15580443D01*
X15852957Y-15594729D01*
X15824386Y-15609014D01*
X15781528Y-15609014D01*
X16052957Y-15609014D02*
X16024386Y-15594729D01*
X16010100Y-15566157D01*
X16010100Y-15309014D01*
X16281528Y-15594729D02*
X16252957Y-15609014D01*
X16195814Y-15609014D01*
X16167243Y-15594729D01*
X16152957Y-15566157D01*
X16152957Y-15451871D01*
X16167243Y-15423300D01*
X16195814Y-15409014D01*
X16252957Y-15409014D01*
X16281528Y-15423300D01*
X16295814Y-15451871D01*
X16295814Y-15480443D01*
X16152957Y-15509014D01*
X16410100Y-15594729D02*
X16438671Y-15609014D01*
X16495814Y-15609014D01*
X16524386Y-15594729D01*
X16538671Y-15566157D01*
X16538671Y-15551871D01*
X16524386Y-15523300D01*
X16495814Y-15509014D01*
X16452957Y-15509014D01*
X16424386Y-15494729D01*
X16410100Y-15466157D01*
X16410100Y-15451871D01*
X16424386Y-15423300D01*
X16452957Y-15409014D01*
X16495814Y-15409014D01*
X16524386Y-15423300D01*
X16638671Y-15723300D02*
X16652957Y-15709014D01*
X16681528Y-15666157D01*
X16695814Y-15637586D01*
X16710100Y-15594729D01*
X16724386Y-15523300D01*
X16724386Y-15466157D01*
X16710100Y-15394729D01*
X16695814Y-15351871D01*
X16681528Y-15323300D01*
X16652957Y-15280443D01*
X16638671Y-15266157D01*
X9277527Y-15911727D02*
X9277527Y-15826873D01*
X9192673Y-15826873D01*
X9192673Y-15911727D01*
X9277527Y-15911727D01*
X9738671Y-16005014D02*
X9567243Y-16005014D01*
X9652957Y-16005014D02*
X9652957Y-15705014D01*
X9624386Y-15747871D01*
X9595814Y-15776443D01*
X9567243Y-15790729D01*
X9867243Y-15976443D02*
X9881528Y-15990729D01*
X9867243Y-16005014D01*
X9852957Y-15990729D01*
X9867243Y-15976443D01*
X9867243Y-16005014D01*
X9995814Y-15733586D02*
X10010100Y-15719300D01*
X10038671Y-15705014D01*
X10110100Y-15705014D01*
X10138671Y-15719300D01*
X10152957Y-15733586D01*
X10167243Y-15762157D01*
X10167243Y-15790729D01*
X10152957Y-15833586D01*
X9981528Y-16005014D01*
X10167243Y-16005014D01*
X10352957Y-15705014D02*
X10381528Y-15705014D01*
X10410100Y-15719300D01*
X10424386Y-15733586D01*
X10438671Y-15762157D01*
X10452957Y-15819300D01*
X10452957Y-15890729D01*
X10438671Y-15947871D01*
X10424386Y-15976443D01*
X10410100Y-15990729D01*
X10381528Y-16005014D01*
X10352957Y-16005014D01*
X10324386Y-15990729D01*
X10310100Y-15976443D01*
X10295814Y-15947871D01*
X10281528Y-15890729D01*
X10281528Y-15819300D01*
X10295814Y-15762157D01*
X10310100Y-15733586D01*
X10324386Y-15719300D01*
X10352957Y-15705014D01*
X10638671Y-15705014D02*
X10667243Y-15705014D01*
X10695814Y-15719300D01*
X10710100Y-15733586D01*
X10724386Y-15762157D01*
X10738671Y-15819300D01*
X10738671Y-15890729D01*
X10724386Y-15947871D01*
X10710100Y-15976443D01*
X10695814Y-15990729D01*
X10667243Y-16005014D01*
X10638671Y-16005014D01*
X10610100Y-15990729D01*
X10595814Y-15976443D01*
X10581528Y-15947871D01*
X10567243Y-15890729D01*
X10567243Y-15819300D01*
X10581528Y-15762157D01*
X10595814Y-15733586D01*
X10610100Y-15719300D01*
X10638671Y-15705014D01*
X10867243Y-16005014D02*
X10867243Y-15805014D01*
X10867243Y-15833586D02*
X10881528Y-15819300D01*
X10910100Y-15805014D01*
X10952957Y-15805014D01*
X10981528Y-15819300D01*
X10995814Y-15847871D01*
X10995814Y-16005014D01*
X10995814Y-15847871D02*
X11010100Y-15819300D01*
X11038671Y-15805014D01*
X11081528Y-15805014D01*
X11110100Y-15819300D01*
X11124386Y-15847871D01*
X11124386Y-16005014D01*
X11267243Y-16005014D02*
X11267243Y-15805014D01*
X11267243Y-15833586D02*
X11281528Y-15819300D01*
X11310100Y-15805014D01*
X11352957Y-15805014D01*
X11381528Y-15819300D01*
X11395814Y-15847871D01*
X11395814Y-16005014D01*
X11395814Y-15847871D02*
X11410100Y-15819300D01*
X11438671Y-15805014D01*
X11481528Y-15805014D01*
X11510100Y-15819300D01*
X11524386Y-15847871D01*
X11524386Y-16005014D01*
X12110100Y-15690729D02*
X11852957Y-16076443D01*
X12495814Y-15705014D02*
X12524386Y-15705014D01*
X12552957Y-15719300D01*
X12567243Y-15733586D01*
X12581528Y-15762157D01*
X12595814Y-15819300D01*
X12595814Y-15890729D01*
X12581528Y-15947871D01*
X12567243Y-15976443D01*
X12552957Y-15990729D01*
X12524386Y-16005014D01*
X12495814Y-16005014D01*
X12467243Y-15990729D01*
X12452957Y-15976443D01*
X12438671Y-15947871D01*
X12424386Y-15890729D01*
X12424386Y-15819300D01*
X12438671Y-15762157D01*
X12452957Y-15733586D01*
X12467243Y-15719300D01*
X12495814Y-15705014D01*
X12724386Y-15976443D02*
X12738671Y-15990729D01*
X12724386Y-16005014D01*
X12710100Y-15990729D01*
X12724386Y-15976443D01*
X12724386Y-16005014D01*
X12924386Y-15705014D02*
X12952957Y-15705014D01*
X12981528Y-15719300D01*
X12995814Y-15733586D01*
X13010100Y-15762157D01*
X13024386Y-15819300D01*
X13024386Y-15890729D01*
X13010100Y-15947871D01*
X12995814Y-15976443D01*
X12981528Y-15990729D01*
X12952957Y-16005014D01*
X12924386Y-16005014D01*
X12895814Y-15990729D01*
X12881528Y-15976443D01*
X12867243Y-15947871D01*
X12852957Y-15890729D01*
X12852957Y-15819300D01*
X12867243Y-15762157D01*
X12881528Y-15733586D01*
X12895814Y-15719300D01*
X12924386Y-15705014D01*
X13281528Y-15805014D02*
X13281528Y-16005014D01*
X13210100Y-15690729D02*
X13138671Y-15905014D01*
X13324386Y-15905014D01*
X13410100Y-15705014D02*
X13610100Y-15705014D01*
X13481528Y-16005014D01*
X13710100Y-15733586D02*
X13724386Y-15719300D01*
X13752957Y-15705014D01*
X13824386Y-15705014D01*
X13852957Y-15719300D01*
X13867243Y-15733586D01*
X13881528Y-15762157D01*
X13881528Y-15790729D01*
X13867243Y-15833586D01*
X13695814Y-16005014D01*
X13881528Y-16005014D01*
X13995814Y-15705014D02*
X13995814Y-15762157D01*
X14110100Y-15705014D02*
X14110100Y-15762157D01*
X14552957Y-16119300D02*
X14538671Y-16105014D01*
X14510100Y-16062157D01*
X14495814Y-16033586D01*
X14481528Y-15990729D01*
X14467243Y-15919300D01*
X14467243Y-15862157D01*
X14481528Y-15790729D01*
X14495814Y-15747871D01*
X14510100Y-15719300D01*
X14538671Y-15676443D01*
X14552957Y-15662157D01*
X14795814Y-15805014D02*
X14795814Y-16005014D01*
X14724386Y-15690729D02*
X14652957Y-15905014D01*
X14838671Y-15905014D01*
X15181528Y-16005014D02*
X15181528Y-15705014D01*
X15310100Y-16005014D02*
X15310100Y-15847871D01*
X15295814Y-15819300D01*
X15267243Y-15805014D01*
X15224386Y-15805014D01*
X15195814Y-15819300D01*
X15181528Y-15833586D01*
X15495814Y-16005014D02*
X15467243Y-15990729D01*
X15452957Y-15976443D01*
X15438671Y-15947871D01*
X15438671Y-15862157D01*
X15452957Y-15833586D01*
X15467243Y-15819300D01*
X15495814Y-15805014D01*
X15538671Y-15805014D01*
X15567243Y-15819300D01*
X15581528Y-15833586D01*
X15595814Y-15862157D01*
X15595814Y-15947871D01*
X15581528Y-15976443D01*
X15567243Y-15990729D01*
X15538671Y-16005014D01*
X15495814Y-16005014D01*
X15767243Y-16005014D02*
X15738671Y-15990729D01*
X15724386Y-15962157D01*
X15724386Y-15705014D01*
X15995814Y-15990729D02*
X15967243Y-16005014D01*
X15910100Y-16005014D01*
X15881528Y-15990729D01*
X15867243Y-15962157D01*
X15867243Y-15847871D01*
X15881528Y-15819300D01*
X15910100Y-15805014D01*
X15967243Y-15805014D01*
X15995814Y-15819300D01*
X16010100Y-15847871D01*
X16010100Y-15876443D01*
X15867243Y-15905014D01*
X16124386Y-15990729D02*
X16152957Y-16005014D01*
X16210100Y-16005014D01*
X16238671Y-15990729D01*
X16252957Y-15962157D01*
X16252957Y-15947871D01*
X16238671Y-15919300D01*
X16210100Y-15905014D01*
X16167243Y-15905014D01*
X16138671Y-15890729D01*
X16124386Y-15862157D01*
X16124386Y-15847871D01*
X16138671Y-15819300D01*
X16167243Y-15805014D01*
X16210100Y-15805014D01*
X16238671Y-15819300D01*
X16352957Y-16119300D02*
X16367243Y-16105014D01*
X16395814Y-16062157D01*
X16410100Y-16033586D01*
X16424386Y-15990729D01*
X16438671Y-15919300D01*
X16438671Y-15862157D01*
X16424386Y-15790729D01*
X16410100Y-15747871D01*
X16395814Y-15719300D01*
X16367243Y-15676443D01*
X16352957Y-15662157D01*
X9135100Y-16425300D02*
X9295100Y-16265300D01*
X9135100Y-16105300D01*
X8975100Y-16265300D01*
X9135100Y-16425300D01*
X9552957Y-16101014D02*
X9738671Y-16101014D01*
X9638671Y-16215300D01*
X9681528Y-16215300D01*
X9710100Y-16229586D01*
X9724386Y-16243871D01*
X9738671Y-16272443D01*
X9738671Y-16343871D01*
X9724386Y-16372443D01*
X9710100Y-16386729D01*
X9681528Y-16401014D01*
X9595814Y-16401014D01*
X9567243Y-16386729D01*
X9552957Y-16372443D01*
X9867243Y-16372443D02*
X9881528Y-16386729D01*
X9867243Y-16401014D01*
X9852957Y-16386729D01*
X9867243Y-16372443D01*
X9867243Y-16401014D01*
X9995814Y-16129586D02*
X10010100Y-16115300D01*
X10038671Y-16101014D01*
X10110100Y-16101014D01*
X10138671Y-16115300D01*
X10152957Y-16129586D01*
X10167243Y-16158157D01*
X10167243Y-16186729D01*
X10152957Y-16229586D01*
X9981528Y-16401014D01*
X10167243Y-16401014D01*
X10352957Y-16101014D02*
X10381528Y-16101014D01*
X10410100Y-16115300D01*
X10424386Y-16129586D01*
X10438671Y-16158157D01*
X10452957Y-16215300D01*
X10452957Y-16286729D01*
X10438671Y-16343871D01*
X10424386Y-16372443D01*
X10410100Y-16386729D01*
X10381528Y-16401014D01*
X10352957Y-16401014D01*
X10324386Y-16386729D01*
X10310100Y-16372443D01*
X10295814Y-16343871D01*
X10281528Y-16286729D01*
X10281528Y-16215300D01*
X10295814Y-16158157D01*
X10310100Y-16129586D01*
X10324386Y-16115300D01*
X10352957Y-16101014D01*
X10638671Y-16101014D02*
X10667243Y-16101014D01*
X10695814Y-16115300D01*
X10710100Y-16129586D01*
X10724386Y-16158157D01*
X10738671Y-16215300D01*
X10738671Y-16286729D01*
X10724386Y-16343871D01*
X10710100Y-16372443D01*
X10695814Y-16386729D01*
X10667243Y-16401014D01*
X10638671Y-16401014D01*
X10610100Y-16386729D01*
X10595814Y-16372443D01*
X10581528Y-16343871D01*
X10567243Y-16286729D01*
X10567243Y-16215300D01*
X10581528Y-16158157D01*
X10595814Y-16129586D01*
X10610100Y-16115300D01*
X10638671Y-16101014D01*
X10867243Y-16401014D02*
X10867243Y-16201014D01*
X10867243Y-16229586D02*
X10881528Y-16215300D01*
X10910100Y-16201014D01*
X10952957Y-16201014D01*
X10981528Y-16215300D01*
X10995814Y-16243871D01*
X10995814Y-16401014D01*
X10995814Y-16243871D02*
X11010100Y-16215300D01*
X11038671Y-16201014D01*
X11081528Y-16201014D01*
X11110100Y-16215300D01*
X11124386Y-16243871D01*
X11124386Y-16401014D01*
X11267243Y-16401014D02*
X11267243Y-16201014D01*
X11267243Y-16229586D02*
X11281528Y-16215300D01*
X11310100Y-16201014D01*
X11352957Y-16201014D01*
X11381528Y-16215300D01*
X11395814Y-16243871D01*
X11395814Y-16401014D01*
X11395814Y-16243871D02*
X11410100Y-16215300D01*
X11438671Y-16201014D01*
X11481528Y-16201014D01*
X11510100Y-16215300D01*
X11524386Y-16243871D01*
X11524386Y-16401014D01*
X12110100Y-16086729D02*
X11852957Y-16472443D01*
X12495814Y-16101014D02*
X12524386Y-16101014D01*
X12552957Y-16115300D01*
X12567243Y-16129586D01*
X12581528Y-16158157D01*
X12595814Y-16215300D01*
X12595814Y-16286729D01*
X12581528Y-16343871D01*
X12567243Y-16372443D01*
X12552957Y-16386729D01*
X12524386Y-16401014D01*
X12495814Y-16401014D01*
X12467243Y-16386729D01*
X12452957Y-16372443D01*
X12438671Y-16343871D01*
X12424386Y-16286729D01*
X12424386Y-16215300D01*
X12438671Y-16158157D01*
X12452957Y-16129586D01*
X12467243Y-16115300D01*
X12495814Y-16101014D01*
X12724386Y-16372443D02*
X12738671Y-16386729D01*
X12724386Y-16401014D01*
X12710100Y-16386729D01*
X12724386Y-16372443D01*
X12724386Y-16401014D01*
X13024386Y-16401014D02*
X12852957Y-16401014D01*
X12938671Y-16401014D02*
X12938671Y-16101014D01*
X12910100Y-16143871D01*
X12881528Y-16172443D01*
X12852957Y-16186729D01*
X13138671Y-16129586D02*
X13152957Y-16115300D01*
X13181528Y-16101014D01*
X13252957Y-16101014D01*
X13281528Y-16115300D01*
X13295814Y-16129586D01*
X13310100Y-16158157D01*
X13310100Y-16186729D01*
X13295814Y-16229586D01*
X13124386Y-16401014D01*
X13310100Y-16401014D01*
X13567243Y-16101014D02*
X13510100Y-16101014D01*
X13481528Y-16115300D01*
X13467243Y-16129586D01*
X13438671Y-16172443D01*
X13424386Y-16229586D01*
X13424386Y-16343871D01*
X13438671Y-16372443D01*
X13452957Y-16386729D01*
X13481528Y-16401014D01*
X13538671Y-16401014D01*
X13567243Y-16386729D01*
X13581528Y-16372443D01*
X13595814Y-16343871D01*
X13595814Y-16272443D01*
X13581528Y-16243871D01*
X13567243Y-16229586D01*
X13538671Y-16215300D01*
X13481528Y-16215300D01*
X13452957Y-16229586D01*
X13438671Y-16243871D01*
X13424386Y-16272443D01*
X13781528Y-16101014D02*
X13810100Y-16101014D01*
X13838671Y-16115300D01*
X13852957Y-16129586D01*
X13867243Y-16158157D01*
X13881528Y-16215300D01*
X13881528Y-16286729D01*
X13867243Y-16343871D01*
X13852957Y-16372443D01*
X13838671Y-16386729D01*
X13810100Y-16401014D01*
X13781528Y-16401014D01*
X13752957Y-16386729D01*
X13738671Y-16372443D01*
X13724386Y-16343871D01*
X13710100Y-16286729D01*
X13710100Y-16215300D01*
X13724386Y-16158157D01*
X13738671Y-16129586D01*
X13752957Y-16115300D01*
X13781528Y-16101014D01*
X13995814Y-16101014D02*
X13995814Y-16158157D01*
X14110100Y-16101014D02*
X14110100Y-16158157D01*
X14552957Y-16515300D02*
X14538671Y-16501014D01*
X14510100Y-16458157D01*
X14495814Y-16429586D01*
X14481528Y-16386729D01*
X14467243Y-16315300D01*
X14467243Y-16258157D01*
X14481528Y-16186729D01*
X14495814Y-16143871D01*
X14510100Y-16115300D01*
X14538671Y-16072443D01*
X14552957Y-16058157D01*
X14795814Y-16101014D02*
X14738671Y-16101014D01*
X14710100Y-16115300D01*
X14695814Y-16129586D01*
X14667243Y-16172443D01*
X14652957Y-16229586D01*
X14652957Y-16343871D01*
X14667243Y-16372443D01*
X14681528Y-16386729D01*
X14710100Y-16401014D01*
X14767243Y-16401014D01*
X14795814Y-16386729D01*
X14810100Y-16372443D01*
X14824386Y-16343871D01*
X14824386Y-16272443D01*
X14810100Y-16243871D01*
X14795814Y-16229586D01*
X14767243Y-16215300D01*
X14710100Y-16215300D01*
X14681528Y-16229586D01*
X14667243Y-16243871D01*
X14652957Y-16272443D01*
X15181528Y-16401014D02*
X15181528Y-16101014D01*
X15310100Y-16401014D02*
X15310100Y-16243871D01*
X15295814Y-16215300D01*
X15267243Y-16201014D01*
X15224386Y-16201014D01*
X15195814Y-16215300D01*
X15181528Y-16229586D01*
X15495814Y-16401014D02*
X15467243Y-16386729D01*
X15452957Y-16372443D01*
X15438671Y-16343871D01*
X15438671Y-16258157D01*
X15452957Y-16229586D01*
X15467243Y-16215300D01*
X15495814Y-16201014D01*
X15538671Y-16201014D01*
X15567243Y-16215300D01*
X15581528Y-16229586D01*
X15595814Y-16258157D01*
X15595814Y-16343871D01*
X15581528Y-16372443D01*
X15567243Y-16386729D01*
X15538671Y-16401014D01*
X15495814Y-16401014D01*
X15767243Y-16401014D02*
X15738671Y-16386729D01*
X15724386Y-16358157D01*
X15724386Y-16101014D01*
X15995814Y-16386729D02*
X15967243Y-16401014D01*
X15910100Y-16401014D01*
X15881528Y-16386729D01*
X15867243Y-16358157D01*
X15867243Y-16243871D01*
X15881528Y-16215300D01*
X15910100Y-16201014D01*
X15967243Y-16201014D01*
X15995814Y-16215300D01*
X16010100Y-16243871D01*
X16010100Y-16272443D01*
X15867243Y-16301014D01*
X16124386Y-16386729D02*
X16152957Y-16401014D01*
X16210100Y-16401014D01*
X16238671Y-16386729D01*
X16252957Y-16358157D01*
X16252957Y-16343871D01*
X16238671Y-16315300D01*
X16210100Y-16301014D01*
X16167243Y-16301014D01*
X16138671Y-16286729D01*
X16124386Y-16258157D01*
X16124386Y-16243871D01*
X16138671Y-16215300D01*
X16167243Y-16201014D01*
X16210100Y-16201014D01*
X16238671Y-16215300D01*
X16352957Y-16515300D02*
X16367243Y-16501014D01*
X16395814Y-16458157D01*
X16410100Y-16429586D01*
X16424386Y-16386729D01*
X16438671Y-16315300D01*
X16438671Y-16258157D01*
X16424386Y-16186729D01*
X16410100Y-16143871D01*
X16395814Y-16115300D01*
X16367243Y-16072443D01*
X16352957Y-16058157D01*
M02*
