%TF.GenerationSoftware,KiCad,Pcbnew,(5.1.10)-1*%
%TF.CreationDate,2024-03-27T07:56:36+01:00*%
%TF.ProjectId,KIM,4b494d2e-6b69-4636-9164-5f7063625858,rev?*%
%TF.SameCoordinates,Original*%
%TF.FileFunction,Copper,L2,Bot*%
%TF.FilePolarity,Positive*%
%FSLAX46Y46*%
G04 Gerber Fmt 4.6, Leading zero omitted, Abs format (unit mm)*
G04 Created by KiCad (PCBNEW (5.1.10)-1) date 2024-03-27 07:56:36*
%MOMM*%
%LPD*%
G01*
G04 APERTURE LIST*
%TA.AperFunction,ComponentPad*%
%ADD10C,4.000000*%
%TD*%
%TA.AperFunction,ComponentPad*%
%ADD11C,1.600000*%
%TD*%
%TA.AperFunction,ComponentPad*%
%ADD12R,1.600000X1.600000*%
%TD*%
%TA.AperFunction,ComponentPad*%
%ADD13O,1.600000X1.600000*%
%TD*%
%TA.AperFunction,ComponentPad*%
%ADD14O,1.700000X1.700000*%
%TD*%
%TA.AperFunction,ComponentPad*%
%ADD15R,1.700000X1.700000*%
%TD*%
%TA.AperFunction,ComponentPad*%
%ADD16R,2.400000X2.400000*%
%TD*%
%TA.AperFunction,ComponentPad*%
%ADD17O,2.400000X2.400000*%
%TD*%
%TA.AperFunction,ComponentPad*%
%ADD18R,1.600000X2.400000*%
%TD*%
%TA.AperFunction,ComponentPad*%
%ADD19O,1.600000X2.400000*%
%TD*%
%TA.AperFunction,ViaPad*%
%ADD20C,0.800000*%
%TD*%
%TA.AperFunction,Conductor*%
%ADD21C,0.250000*%
%TD*%
G04 APERTURE END LIST*
D10*
%TO.P,J4,0*%
%TO.N,N/C*%
X129038000Y-129332000D03*
X104038000Y-129332000D03*
D11*
%TO.P,J4,9*%
%TO.N,Net-(J4-Pad9)*%
X120693000Y-131872000D03*
%TO.P,J4,8*%
%TO.N,GND*%
X117923000Y-131872000D03*
%TO.P,J4,7*%
%TO.N,+5P*%
X115153000Y-131872000D03*
%TO.P,J4,6*%
%TO.N,Net-(J4-Pad6)*%
X112383000Y-131872000D03*
%TO.P,J4,5*%
%TO.N,N/C*%
X122078000Y-129032000D03*
%TO.P,J4,4*%
%TO.N,Net-(J4-Pad4)*%
X119308000Y-129032000D03*
%TO.P,J4,3*%
%TO.N,Net-(J4-Pad3)*%
X116538000Y-129032000D03*
%TO.P,J4,2*%
%TO.N,Net-(J4-Pad2)*%
X113768000Y-129032000D03*
D12*
%TO.P,J4,1*%
%TO.N,Net-(J4-Pad1)*%
X110998000Y-129032000D03*
%TD*%
D10*
%TO.P,J3,0*%
%TO.N,N/C*%
X192634000Y-129840000D03*
X167634000Y-129840000D03*
D11*
%TO.P,J3,9*%
%TO.N,Net-(J3-Pad9)*%
X175979000Y-132380000D03*
%TO.P,J3,8*%
%TO.N,Net-(J3-Pad8)*%
X178749000Y-132380000D03*
%TO.P,J3,7*%
%TO.N,Net-(J3-Pad7)*%
X181519000Y-132380000D03*
%TO.P,J3,6*%
%TO.N,Net-(J3-Pad6)*%
X184289000Y-132380000D03*
%TO.P,J3,5*%
%TO.N,GND*%
X174594000Y-129540000D03*
%TO.P,J3,4*%
%TO.N,Net-(J3-Pad4)*%
X177364000Y-129540000D03*
%TO.P,J3,3*%
%TO.N,Net-(J3-Pad3)*%
X180134000Y-129540000D03*
%TO.P,J3,2*%
%TO.N,Net-(J3-Pad2)*%
X182904000Y-129540000D03*
D12*
%TO.P,J3,1*%
%TO.N,Net-(J3-Pad1)*%
X185674000Y-129540000D03*
%TD*%
D10*
%TO.P,J2,0*%
%TO.N,N/C*%
X160331000Y-130320000D03*
X135331000Y-130320000D03*
D11*
%TO.P,J2,15*%
%TO.N,Net-(J2-Pad15)*%
X142986000Y-132230000D03*
%TO.P,J2,14*%
%TO.N,Net-(J2-Pad14)*%
X145276000Y-132230000D03*
%TO.P,J2,13*%
%TO.N,Net-(J2-Pad13)*%
X147566000Y-132230000D03*
%TO.P,J2,12*%
%TO.N,Net-(J2-Pad12)*%
X149856000Y-132230000D03*
%TO.P,J2,11*%
%TO.N,Net-(J2-Pad11)*%
X152146000Y-132230000D03*
%TO.P,J2,10*%
%TO.N,GND*%
X144131000Y-130250000D03*
%TO.P,J2,9*%
X146421000Y-130250000D03*
%TO.P,J2,8*%
X148711000Y-130250000D03*
%TO.P,J2,7*%
X151001000Y-130250000D03*
%TO.P,J2,6*%
X153291000Y-130250000D03*
%TO.P,J2,5*%
%TO.N,Net-(J2-Pad5)*%
X142986000Y-128270000D03*
%TO.P,J2,4*%
%TO.N,Net-(J2-Pad4)*%
X145276000Y-128270000D03*
%TO.P,J2,3*%
%TO.N,Net-(J2-Pad3)*%
X147566000Y-128270000D03*
%TO.P,J2,2*%
%TO.N,Net-(J2-Pad2)*%
X149856000Y-128270000D03*
D12*
%TO.P,J2,1*%
%TO.N,Net-(J2-Pad1)*%
X152146000Y-128270000D03*
%TD*%
%TO.P,XM1,15A*%
%TO.N,N/C*%
%TA.AperFunction,SMDPad,CuDef*%
G36*
G01*
X149526000Y-21238000D02*
X149526000Y-15038000D01*
G75*
G02*
X149676000Y-14888000I150000J0D01*
G01*
X150876000Y-14888000D01*
G75*
G02*
X151026000Y-15038000I0J-150000D01*
G01*
X151026000Y-21238000D01*
G75*
G02*
X150876000Y-21388000I-150000J0D01*
G01*
X149676000Y-21388000D01*
G75*
G02*
X149526000Y-21238000I0J150000D01*
G01*
G37*
%TD.AperFunction*%
%TO.P,XM1,20A*%
%TO.N,~RESET*%
%TA.AperFunction,SMDPad,CuDef*%
G36*
G01*
X137026000Y-21238000D02*
X137026000Y-15038000D01*
G75*
G02*
X137176000Y-14888000I150000J0D01*
G01*
X138376000Y-14888000D01*
G75*
G02*
X138526000Y-15038000I0J-150000D01*
G01*
X138526000Y-21238000D01*
G75*
G02*
X138376000Y-21388000I-150000J0D01*
G01*
X137176000Y-21388000D01*
G75*
G02*
X137026000Y-21238000I0J150000D01*
G01*
G37*
%TD.AperFunction*%
%TO.P,XM1,22A*%
%TO.N,~M1*%
%TA.AperFunction,SMDPad,CuDef*%
G36*
G01*
X132026000Y-21238000D02*
X132026000Y-15038000D01*
G75*
G02*
X132176000Y-14888000I150000J0D01*
G01*
X133376000Y-14888000D01*
G75*
G02*
X133526000Y-15038000I0J-150000D01*
G01*
X133526000Y-21238000D01*
G75*
G02*
X133376000Y-21388000I-150000J0D01*
G01*
X132176000Y-21388000D01*
G75*
G02*
X132026000Y-21238000I0J150000D01*
G01*
G37*
%TD.AperFunction*%
%TO.P,XM1,23A*%
%TO.N,N/C*%
%TA.AperFunction,SMDPad,CuDef*%
G36*
G01*
X129526000Y-21238000D02*
X129526000Y-15038000D01*
G75*
G02*
X129676000Y-14888000I150000J0D01*
G01*
X130876000Y-14888000D01*
G75*
G02*
X131026000Y-15038000I0J-150000D01*
G01*
X131026000Y-21238000D01*
G75*
G02*
X130876000Y-21388000I-150000J0D01*
G01*
X129676000Y-21388000D01*
G75*
G02*
X129526000Y-21238000I0J150000D01*
G01*
G37*
%TD.AperFunction*%
%TO.P,XM1,25A*%
%TA.AperFunction,SMDPad,CuDef*%
G36*
G01*
X124526000Y-21238000D02*
X124526000Y-15038000D01*
G75*
G02*
X124676000Y-14888000I150000J0D01*
G01*
X125876000Y-14888000D01*
G75*
G02*
X126026000Y-15038000I0J-150000D01*
G01*
X126026000Y-21238000D01*
G75*
G02*
X125876000Y-21388000I-150000J0D01*
G01*
X124676000Y-21388000D01*
G75*
G02*
X124526000Y-21238000I0J150000D01*
G01*
G37*
%TD.AperFunction*%
%TO.P,XM1,27A*%
%TA.AperFunction,SMDPad,CuDef*%
G36*
G01*
X119526000Y-21238000D02*
X119526000Y-15038000D01*
G75*
G02*
X119676000Y-14888000I150000J0D01*
G01*
X120876000Y-14888000D01*
G75*
G02*
X121026000Y-15038000I0J-150000D01*
G01*
X121026000Y-21238000D01*
G75*
G02*
X120876000Y-21388000I-150000J0D01*
G01*
X119676000Y-21388000D01*
G75*
G02*
X119526000Y-21238000I0J150000D01*
G01*
G37*
%TD.AperFunction*%
%TO.P,XM1,28A*%
%TA.AperFunction,SMDPad,CuDef*%
G36*
G01*
X117026000Y-21238000D02*
X117026000Y-15038000D01*
G75*
G02*
X117176000Y-14888000I150000J0D01*
G01*
X118376000Y-14888000D01*
G75*
G02*
X118526000Y-15038000I0J-150000D01*
G01*
X118526000Y-21238000D01*
G75*
G02*
X118376000Y-21388000I-150000J0D01*
G01*
X117176000Y-21388000D01*
G75*
G02*
X117026000Y-21238000I0J150000D01*
G01*
G37*
%TD.AperFunction*%
%TO.P,XM1,10A*%
%TO.N,IEO*%
%TA.AperFunction,SMDPad,CuDef*%
G36*
G01*
X162026000Y-21238000D02*
X162026000Y-15038000D01*
G75*
G02*
X162176000Y-14888000I150000J0D01*
G01*
X163376000Y-14888000D01*
G75*
G02*
X163526000Y-15038000I0J-150000D01*
G01*
X163526000Y-21238000D01*
G75*
G02*
X163376000Y-21388000I-150000J0D01*
G01*
X162176000Y-21388000D01*
G75*
G02*
X162026000Y-21238000I0J150000D01*
G01*
G37*
%TD.AperFunction*%
%TO.P,XM1,11A*%
%TO.N,N/C*%
%TA.AperFunction,SMDPad,CuDef*%
G36*
G01*
X159526000Y-21238000D02*
X159526000Y-15038000D01*
G75*
G02*
X159676000Y-14888000I150000J0D01*
G01*
X160876000Y-14888000D01*
G75*
G02*
X161026000Y-15038000I0J-150000D01*
G01*
X161026000Y-21238000D01*
G75*
G02*
X160876000Y-21388000I-150000J0D01*
G01*
X159676000Y-21388000D01*
G75*
G02*
X159526000Y-21238000I0J150000D01*
G01*
G37*
%TD.AperFunction*%
%TO.P,XM1,12A*%
%TA.AperFunction,SMDPad,CuDef*%
G36*
G01*
X157026000Y-21238000D02*
X157026000Y-15038000D01*
G75*
G02*
X157176000Y-14888000I150000J0D01*
G01*
X158376000Y-14888000D01*
G75*
G02*
X158526000Y-15038000I0J-150000D01*
G01*
X158526000Y-21238000D01*
G75*
G02*
X158376000Y-21388000I-150000J0D01*
G01*
X157176000Y-21388000D01*
G75*
G02*
X157026000Y-21238000I0J150000D01*
G01*
G37*
%TD.AperFunction*%
%TO.P,XM1,13A*%
%TA.AperFunction,SMDPad,CuDef*%
G36*
G01*
X154526000Y-21238000D02*
X154526000Y-15038000D01*
G75*
G02*
X154676000Y-14888000I150000J0D01*
G01*
X155876000Y-14888000D01*
G75*
G02*
X156026000Y-15038000I0J-150000D01*
G01*
X156026000Y-21238000D01*
G75*
G02*
X155876000Y-21388000I-150000J0D01*
G01*
X154676000Y-21388000D01*
G75*
G02*
X154526000Y-21238000I0J150000D01*
G01*
G37*
%TD.AperFunction*%
%TO.P,XM1,14A*%
%TO.N,AB8*%
%TA.AperFunction,SMDPad,CuDef*%
G36*
G01*
X152026000Y-21238000D02*
X152026000Y-15038000D01*
G75*
G02*
X152176000Y-14888000I150000J0D01*
G01*
X153376000Y-14888000D01*
G75*
G02*
X153526000Y-15038000I0J-150000D01*
G01*
X153526000Y-21238000D01*
G75*
G02*
X153376000Y-21388000I-150000J0D01*
G01*
X152176000Y-21388000D01*
G75*
G02*
X152026000Y-21238000I0J150000D01*
G01*
G37*
%TD.AperFunction*%
%TO.P,XM1,16A*%
%TO.N,AB6*%
%TA.AperFunction,SMDPad,CuDef*%
G36*
G01*
X147026000Y-21238000D02*
X147026000Y-15038000D01*
G75*
G02*
X147176000Y-14888000I150000J0D01*
G01*
X148376000Y-14888000D01*
G75*
G02*
X148526000Y-15038000I0J-150000D01*
G01*
X148526000Y-21238000D01*
G75*
G02*
X148376000Y-21388000I-150000J0D01*
G01*
X147176000Y-21388000D01*
G75*
G02*
X147026000Y-21238000I0J150000D01*
G01*
G37*
%TD.AperFunction*%
%TO.P,XM1,17A*%
%TO.N,AB4*%
%TA.AperFunction,SMDPad,CuDef*%
G36*
G01*
X144526000Y-21238000D02*
X144526000Y-15038000D01*
G75*
G02*
X144676000Y-14888000I150000J0D01*
G01*
X145876000Y-14888000D01*
G75*
G02*
X146026000Y-15038000I0J-150000D01*
G01*
X146026000Y-21238000D01*
G75*
G02*
X145876000Y-21388000I-150000J0D01*
G01*
X144676000Y-21388000D01*
G75*
G02*
X144526000Y-21238000I0J150000D01*
G01*
G37*
%TD.AperFunction*%
%TO.P,XM1,18A*%
%TO.N,AB2*%
%TA.AperFunction,SMDPad,CuDef*%
G36*
G01*
X142026000Y-21238000D02*
X142026000Y-15038000D01*
G75*
G02*
X142176000Y-14888000I150000J0D01*
G01*
X143376000Y-14888000D01*
G75*
G02*
X143526000Y-15038000I0J-150000D01*
G01*
X143526000Y-21238000D01*
G75*
G02*
X143376000Y-21388000I-150000J0D01*
G01*
X142176000Y-21388000D01*
G75*
G02*
X142026000Y-21238000I0J150000D01*
G01*
G37*
%TD.AperFunction*%
%TO.P,XM1,19A*%
%TO.N,AB0*%
%TA.AperFunction,SMDPad,CuDef*%
G36*
G01*
X139526000Y-21238000D02*
X139526000Y-15038000D01*
G75*
G02*
X139676000Y-14888000I150000J0D01*
G01*
X140876000Y-14888000D01*
G75*
G02*
X141026000Y-15038000I0J-150000D01*
G01*
X141026000Y-21238000D01*
G75*
G02*
X140876000Y-21388000I-150000J0D01*
G01*
X139676000Y-21388000D01*
G75*
G02*
X139526000Y-21238000I0J150000D01*
G01*
G37*
%TD.AperFunction*%
%TO.P,XM1,1A*%
%TO.N,GND*%
%TA.AperFunction,SMDPad,CuDef*%
G36*
G01*
X184526000Y-21238000D02*
X184526000Y-15038000D01*
G75*
G02*
X184676000Y-14888000I150000J0D01*
G01*
X185876000Y-14888000D01*
G75*
G02*
X186026000Y-15038000I0J-150000D01*
G01*
X186026000Y-21238000D01*
G75*
G02*
X185876000Y-21388000I-150000J0D01*
G01*
X184676000Y-21388000D01*
G75*
G02*
X184526000Y-21238000I0J150000D01*
G01*
G37*
%TD.AperFunction*%
%TO.P,XM1,21A*%
%TO.N,TAKT*%
%TA.AperFunction,SMDPad,CuDef*%
G36*
G01*
X134526000Y-21238000D02*
X134526000Y-15038000D01*
G75*
G02*
X134676000Y-14888000I150000J0D01*
G01*
X135876000Y-14888000D01*
G75*
G02*
X136026000Y-15038000I0J-150000D01*
G01*
X136026000Y-21238000D01*
G75*
G02*
X135876000Y-21388000I-150000J0D01*
G01*
X134676000Y-21388000D01*
G75*
G02*
X134526000Y-21238000I0J150000D01*
G01*
G37*
%TD.AperFunction*%
%TO.P,XM1,24A*%
%TO.N,MEO*%
%TA.AperFunction,SMDPad,CuDef*%
G36*
G01*
X127026000Y-21238000D02*
X127026000Y-15038000D01*
G75*
G02*
X127176000Y-14888000I150000J0D01*
G01*
X128376000Y-14888000D01*
G75*
G02*
X128526000Y-15038000I0J-150000D01*
G01*
X128526000Y-21238000D01*
G75*
G02*
X128376000Y-21388000I-150000J0D01*
G01*
X127176000Y-21388000D01*
G75*
G02*
X127026000Y-21238000I0J150000D01*
G01*
G37*
%TD.AperFunction*%
%TO.P,XM1,26A*%
%TO.N,~MAD*%
%TA.AperFunction,SMDPad,CuDef*%
G36*
G01*
X122026000Y-21238000D02*
X122026000Y-15038000D01*
G75*
G02*
X122176000Y-14888000I150000J0D01*
G01*
X123376000Y-14888000D01*
G75*
G02*
X123526000Y-15038000I0J-150000D01*
G01*
X123526000Y-21238000D01*
G75*
G02*
X123376000Y-21388000I-150000J0D01*
G01*
X122176000Y-21388000D01*
G75*
G02*
X122026000Y-21238000I0J150000D01*
G01*
G37*
%TD.AperFunction*%
%TO.P,XM1,29A*%
%TO.N,+5P*%
%TA.AperFunction,SMDPad,CuDef*%
G36*
G01*
X114526000Y-21238000D02*
X114526000Y-15038000D01*
G75*
G02*
X114676000Y-14888000I150000J0D01*
G01*
X115876000Y-14888000D01*
G75*
G02*
X116026000Y-15038000I0J-150000D01*
G01*
X116026000Y-21238000D01*
G75*
G02*
X115876000Y-21388000I-150000J0D01*
G01*
X114676000Y-21388000D01*
G75*
G02*
X114526000Y-21238000I0J150000D01*
G01*
G37*
%TD.AperFunction*%
%TO.P,XM1,2A*%
%TO.N,GND*%
%TA.AperFunction,SMDPad,CuDef*%
G36*
G01*
X182026000Y-21238000D02*
X182026000Y-15038000D01*
G75*
G02*
X182176000Y-14888000I150000J0D01*
G01*
X183376000Y-14888000D01*
G75*
G02*
X183526000Y-15038000I0J-150000D01*
G01*
X183526000Y-21238000D01*
G75*
G02*
X183376000Y-21388000I-150000J0D01*
G01*
X182176000Y-21388000D01*
G75*
G02*
X182026000Y-21238000I0J150000D01*
G01*
G37*
%TD.AperFunction*%
%TO.P,XM1,4A*%
%TO.N,DB7*%
%TA.AperFunction,SMDPad,CuDef*%
G36*
G01*
X177026000Y-21238000D02*
X177026000Y-15038000D01*
G75*
G02*
X177176000Y-14888000I150000J0D01*
G01*
X178376000Y-14888000D01*
G75*
G02*
X178526000Y-15038000I0J-150000D01*
G01*
X178526000Y-21238000D01*
G75*
G02*
X178376000Y-21388000I-150000J0D01*
G01*
X177176000Y-21388000D01*
G75*
G02*
X177026000Y-21238000I0J150000D01*
G01*
G37*
%TD.AperFunction*%
%TO.P,XM1,5A*%
%TO.N,DB5*%
%TA.AperFunction,SMDPad,CuDef*%
G36*
G01*
X174526000Y-21238000D02*
X174526000Y-15038000D01*
G75*
G02*
X174676000Y-14888000I150000J0D01*
G01*
X175876000Y-14888000D01*
G75*
G02*
X176026000Y-15038000I0J-150000D01*
G01*
X176026000Y-21238000D01*
G75*
G02*
X175876000Y-21388000I-150000J0D01*
G01*
X174676000Y-21388000D01*
G75*
G02*
X174526000Y-21238000I0J150000D01*
G01*
G37*
%TD.AperFunction*%
%TO.P,XM1,6A*%
%TO.N,DB3*%
%TA.AperFunction,SMDPad,CuDef*%
G36*
G01*
X172026000Y-21238000D02*
X172026000Y-15038000D01*
G75*
G02*
X172176000Y-14888000I150000J0D01*
G01*
X173376000Y-14888000D01*
G75*
G02*
X173526000Y-15038000I0J-150000D01*
G01*
X173526000Y-21238000D01*
G75*
G02*
X173376000Y-21388000I-150000J0D01*
G01*
X172176000Y-21388000D01*
G75*
G02*
X172026000Y-21238000I0J150000D01*
G01*
G37*
%TD.AperFunction*%
%TO.P,XM1,7A*%
%TO.N,DB1*%
%TA.AperFunction,SMDPad,CuDef*%
G36*
G01*
X169526000Y-21238000D02*
X169526000Y-15038000D01*
G75*
G02*
X169676000Y-14888000I150000J0D01*
G01*
X170876000Y-14888000D01*
G75*
G02*
X171026000Y-15038000I0J-150000D01*
G01*
X171026000Y-21238000D01*
G75*
G02*
X170876000Y-21388000I-150000J0D01*
G01*
X169676000Y-21388000D01*
G75*
G02*
X169526000Y-21238000I0J150000D01*
G01*
G37*
%TD.AperFunction*%
%TO.P,XM1,8A*%
%TO.N,~WR*%
%TA.AperFunction,SMDPad,CuDef*%
G36*
G01*
X167026000Y-21238000D02*
X167026000Y-15038000D01*
G75*
G02*
X167176000Y-14888000I150000J0D01*
G01*
X168376000Y-14888000D01*
G75*
G02*
X168526000Y-15038000I0J-150000D01*
G01*
X168526000Y-21238000D01*
G75*
G02*
X168376000Y-21388000I-150000J0D01*
G01*
X167176000Y-21388000D01*
G75*
G02*
X167026000Y-21238000I0J150000D01*
G01*
G37*
%TD.AperFunction*%
%TO.P,XM1,9A*%
%TO.N,N/C*%
%TA.AperFunction,SMDPad,CuDef*%
G36*
G01*
X164526000Y-21238000D02*
X164526000Y-15038000D01*
G75*
G02*
X164676000Y-14888000I150000J0D01*
G01*
X165876000Y-14888000D01*
G75*
G02*
X166026000Y-15038000I0J-150000D01*
G01*
X166026000Y-21238000D01*
G75*
G02*
X165876000Y-21388000I-150000J0D01*
G01*
X164676000Y-21388000D01*
G75*
G02*
X164526000Y-21238000I0J150000D01*
G01*
G37*
%TD.AperFunction*%
%TD*%
D13*
%TO.P,RN2,8*%
%TO.N,N/C*%
X122174000Y-117602000D03*
%TO.P,RN2,7*%
%TO.N,Net-(J4-Pad9)*%
X119634000Y-117602000D03*
%TO.P,RN2,6*%
%TO.N,Net-(J4-Pad6)*%
X117094000Y-117602000D03*
%TO.P,RN2,5*%
%TO.N,Net-(J4-Pad4)*%
X114554000Y-117602000D03*
%TO.P,RN2,4*%
%TO.N,Net-(J4-Pad3)*%
X112014000Y-117602000D03*
%TO.P,RN2,3*%
%TO.N,Net-(J4-Pad2)*%
X109474000Y-117602000D03*
%TO.P,RN2,2*%
%TO.N,Net-(J4-Pad1)*%
X106934000Y-117602000D03*
D12*
%TO.P,RN2,1*%
%TO.N,+5P*%
X104394000Y-117602000D03*
%TD*%
D14*
%TO.P,J1,2*%
%TO.N,Net-(IC1-Pad21)*%
X108712000Y-43434000D03*
D15*
%TO.P,J1,1*%
%TO.N,~BI*%
X108712000Y-40894000D03*
%TD*%
D11*
%TO.P,C5,2*%
%TO.N,GND*%
X106894000Y-107442000D03*
D12*
%TO.P,C5,1*%
%TO.N,+5P*%
X104394000Y-107442000D03*
%TD*%
D11*
%TO.P,C4,2*%
%TO.N,GND*%
X121372000Y-30988000D03*
%TO.P,C4,1*%
%TO.N,+5P*%
X118872000Y-30988000D03*
%TD*%
%TO.P,C3,2*%
%TO.N,GND*%
X200660000Y-85598000D03*
%TO.P,C3,1*%
%TO.N,+5P*%
X198160000Y-85598000D03*
%TD*%
%TO.P,C2,2*%
%TO.N,GND*%
X112014000Y-103672000D03*
%TO.P,C2,1*%
%TO.N,+5P*%
X112014000Y-106172000D03*
%TD*%
%TO.P,C1,2*%
%TO.N,GND*%
X199858000Y-39624000D03*
%TO.P,C1,1*%
%TO.N,+5P*%
X197358000Y-39624000D03*
%TD*%
%TO.P,C6,2*%
%TO.N,GND*%
X176998000Y-124968000D03*
%TO.P,C6,1*%
%TO.N,+5P*%
X174498000Y-124968000D03*
%TD*%
%TO.P,C7,1*%
%TO.N,Net-(C7-Pad1)*%
X169418000Y-124968000D03*
%TO.P,C7,2*%
%TO.N,Net-(C7-Pad2)*%
X171918000Y-124968000D03*
%TD*%
%TO.P,C8,2*%
%TO.N,GND*%
X182840000Y-124968000D03*
%TO.P,C8,1*%
%TO.N,+5P*%
X180340000Y-124968000D03*
%TD*%
%TO.P,C9,1*%
%TO.N,Net-(C9-Pad1)*%
X166624000Y-103632000D03*
%TO.P,C9,2*%
%TO.N,Net-(C9-Pad2)*%
X166624000Y-101132000D03*
%TD*%
%TO.P,C10,2*%
%TO.N,Net-(C10-Pad2)*%
X181316000Y-109220000D03*
%TO.P,C10,1*%
%TO.N,Net-(C10-Pad1)*%
X178816000Y-109220000D03*
%TD*%
%TO.P,C11,1*%
%TO.N,GND*%
X185166000Y-124968000D03*
%TO.P,C11,2*%
%TO.N,Net-(C11-Pad2)*%
X187666000Y-124968000D03*
%TD*%
%TO.P,C12,1*%
%TO.N,Net-(C12-Pad1)*%
X177038000Y-102616000D03*
%TO.P,C12,2*%
%TO.N,Net-(C12-Pad2)*%
X179538000Y-102616000D03*
%TD*%
%TO.P,C13,2*%
%TO.N,Net-(C13-Pad2)*%
X166624000Y-118324000D03*
%TO.P,C13,1*%
%TO.N,+5P*%
X166624000Y-115824000D03*
%TD*%
%TO.P,C14,1*%
%TO.N,GND*%
X190500000Y-111506000D03*
%TO.P,C14,2*%
%TO.N,Net-(C14-Pad2)*%
X190500000Y-109006000D03*
%TD*%
%TO.P,C15,2*%
%TO.N,Net-(C15-Pad2)*%
X171918000Y-109474000D03*
%TO.P,C15,1*%
%TO.N,+5P*%
X169418000Y-109474000D03*
%TD*%
D16*
%TO.P,D1,1*%
%TO.N,Net-(D1-Pad1)*%
X95504000Y-42418000D03*
D17*
%TO.P,D1,2*%
%TO.N,DB0*%
X105664000Y-42418000D03*
%TD*%
%TO.P,D2,2*%
%TO.N,DB4*%
X105664000Y-38354000D03*
D16*
%TO.P,D2,1*%
%TO.N,Net-(D1-Pad1)*%
X95504000Y-38354000D03*
%TD*%
D18*
%TO.P,IC1,1*%
%TO.N,DB4*%
X100838000Y-97790000D03*
D19*
%TO.P,IC1,15*%
%TO.N,TAKT*%
X133858000Y-82550000D03*
%TO.P,IC1,2*%
%TO.N,DB5*%
X103378000Y-97790000D03*
%TO.P,IC1,16*%
%TO.N,Net-(IC1-Pad16)*%
X131318000Y-82550000D03*
%TO.P,IC1,3*%
%TO.N,DB6*%
X105918000Y-97790000D03*
%TO.P,IC1,17*%
%TO.N,~RESET*%
X128778000Y-82550000D03*
%TO.P,IC1,4*%
%TO.N,DB7*%
X108458000Y-97790000D03*
%TO.P,IC1,18*%
%TO.N,A0*%
X126238000Y-82550000D03*
%TO.P,IC1,5*%
%TO.N,GND*%
X110998000Y-97790000D03*
%TO.P,IC1,19*%
%TO.N,A1*%
X123698000Y-82550000D03*
%TO.P,IC1,6*%
%TO.N,~RD*%
X113538000Y-97790000D03*
%TO.P,IC1,20*%
%TO.N,Net-(IC1-Pad20)*%
X121158000Y-82550000D03*
%TO.P,IC1,7*%
%TO.N,Net-(IC1-Pad7)*%
X116078000Y-97790000D03*
%TO.P,IC1,21*%
%TO.N,Net-(IC1-Pad21)*%
X118618000Y-82550000D03*
%TO.P,IC1,8*%
%TO.N,Net-(IC1-Pad8)*%
X118618000Y-97790000D03*
%TO.P,IC1,22*%
%TO.N,Net-(IC1-Pad22)*%
X116078000Y-82550000D03*
%TO.P,IC1,9*%
%TO.N,Net-(IC1-Pad20)*%
X121158000Y-97790000D03*
%TO.P,IC1,23*%
%TO.N,Net-(IC1-Pad22)*%
X113538000Y-82550000D03*
%TO.P,IC1,10*%
%TO.N,~IORQ*%
X123698000Y-97790000D03*
%TO.P,IC1,24*%
%TO.N,+5P*%
X110998000Y-82550000D03*
%TO.P,IC1,11*%
%TO.N,Net-(IC1-Pad11)*%
X126238000Y-97790000D03*
%TO.P,IC1,25*%
%TO.N,DB0*%
X108458000Y-82550000D03*
%TO.P,IC1,12*%
%TO.N,~INT*%
X128778000Y-97790000D03*
%TO.P,IC1,26*%
%TO.N,DB1*%
X105918000Y-82550000D03*
%TO.P,IC1,13*%
%TO.N,Net-(IC1-Pad13)*%
X131318000Y-97790000D03*
%TO.P,IC1,27*%
%TO.N,DB2*%
X103378000Y-82550000D03*
%TO.P,IC1,14*%
%TO.N,~M1*%
X133858000Y-97790000D03*
%TO.P,IC1,28*%
%TO.N,DB3*%
X100838000Y-82550000D03*
%TD*%
D18*
%TO.P,IC2,1*%
%TO.N,DB1*%
X153924000Y-59182000D03*
D19*
%TO.P,IC2,21*%
%TO.N,~RESET*%
X202184000Y-43942000D03*
%TO.P,IC2,2*%
%TO.N,DB3*%
X156464000Y-59182000D03*
%TO.P,IC2,22*%
%TO.N,GND*%
X199644000Y-43942000D03*
%TO.P,IC2,3*%
%TO.N,DB5*%
X159004000Y-59182000D03*
%TO.P,IC2,23*%
%TO.N,Net-(IC2-Pad23)*%
X197104000Y-43942000D03*
%TO.P,IC2,4*%
%TO.N,DB7*%
X161544000Y-59182000D03*
%TO.P,IC2,24*%
%TO.N,N/C*%
X194564000Y-43942000D03*
%TO.P,IC2,5*%
%TO.N,~INT*%
X164084000Y-59182000D03*
%TO.P,IC2,25*%
%TO.N,Net-(IC2-Pad25)*%
X192024000Y-43942000D03*
%TO.P,IC2,6*%
%TO.N,Net-(IC2-Pad6)*%
X166624000Y-59182000D03*
%TO.P,IC2,26*%
%TO.N,Net-(IC2-Pad26)*%
X189484000Y-43942000D03*
%TO.P,IC2,7*%
%TO.N,Net-(IC1-Pad13)*%
X169164000Y-59182000D03*
%TO.P,IC2,27*%
%TO.N,Net-(IC1-Pad8)*%
X186944000Y-43942000D03*
%TO.P,IC2,8*%
%TO.N,~M1*%
X171704000Y-59182000D03*
%TO.P,IC2,28*%
%TO.N,Net-(IC2-Pad28)*%
X184404000Y-43942000D03*
%TO.P,IC2,9*%
%TO.N,+5P*%
X174244000Y-59182000D03*
%TO.P,IC2,29*%
%TO.N,N/C*%
X181864000Y-43942000D03*
%TO.P,IC2,10*%
X176784000Y-59182000D03*
%TO.P,IC2,30*%
X179324000Y-43942000D03*
%TO.P,IC2,11*%
X179324000Y-59182000D03*
%TO.P,IC2,31*%
%TO.N,GND*%
X176784000Y-43942000D03*
%TO.P,IC2,12*%
%TO.N,Net-(IC2-Pad12)*%
X181864000Y-59182000D03*
%TO.P,IC2,32*%
%TO.N,~RD*%
X174244000Y-43942000D03*
%TO.P,IC2,13*%
%TO.N,Net-(IC1-Pad7)*%
X184404000Y-59182000D03*
%TO.P,IC2,33*%
%TO.N,A1*%
X171704000Y-43942000D03*
%TO.P,IC2,14*%
%TO.N,Net-(IC1-Pad7)*%
X186944000Y-59182000D03*
%TO.P,IC2,34*%
%TO.N,A0*%
X169164000Y-43942000D03*
%TO.P,IC2,15*%
%TO.N,Net-(IC2-Pad15)*%
X189484000Y-59182000D03*
%TO.P,IC2,35*%
%TO.N,Net-(IC2-Pad35)*%
X166624000Y-43942000D03*
%TO.P,IC2,16*%
%TO.N,Net-(IC2-Pad16)*%
X192024000Y-59182000D03*
%TO.P,IC2,36*%
%TO.N,~IORQ*%
X164084000Y-43942000D03*
%TO.P,IC2,17*%
%TO.N,N/C*%
X194564000Y-59182000D03*
%TO.P,IC2,37*%
%TO.N,DB6*%
X161544000Y-43942000D03*
%TO.P,IC2,18*%
%TO.N,Net-(IC2-Pad18)*%
X197104000Y-59182000D03*
%TO.P,IC2,38*%
%TO.N,DB4*%
X159004000Y-43942000D03*
%TO.P,IC2,19*%
%TO.N,GND*%
X199644000Y-59182000D03*
%TO.P,IC2,39*%
%TO.N,DB2*%
X156464000Y-43942000D03*
%TO.P,IC2,20*%
%TO.N,TAKT*%
X202184000Y-59182000D03*
%TO.P,IC2,40*%
%TO.N,DB0*%
X153924000Y-43942000D03*
%TD*%
D11*
%TO.P,R1,1*%
%TO.N,Net-(R1-Pad1)*%
X95504000Y-45974000D03*
D13*
%TO.P,R1,2*%
%TO.N,DB0*%
X105664000Y-45974000D03*
%TD*%
D12*
%TO.P,RN1,1*%
%TO.N,+5P*%
X99060000Y-63500000D03*
D13*
%TO.P,RN1,2*%
%TO.N,Net-(RN1-Pad2)*%
X101600000Y-63500000D03*
%TO.P,RN1,3*%
%TO.N,Net-(RN1-Pad3)*%
X104140000Y-63500000D03*
%TO.P,RN1,4*%
%TO.N,Net-(RN1-Pad4)*%
X106680000Y-63500000D03*
%TO.P,RN1,5*%
%TO.N,Net-(J2-Pad15)*%
X109220000Y-63500000D03*
%TO.P,RN1,6*%
%TO.N,Net-(RN1-Pad6)*%
X111760000Y-63500000D03*
%TO.P,RN1,7*%
%TO.N,N/C*%
X114300000Y-63500000D03*
%TO.P,RN1,8*%
X116840000Y-63500000D03*
%TD*%
D18*
%TO.P,U1,1*%
%TO.N,Net-(RN1-Pad2)*%
X102616000Y-58928000D03*
D19*
%TO.P,U1,8*%
%TO.N,Net-(U1-Pad12)*%
X117856000Y-51308000D03*
%TO.P,U1,2*%
%TO.N,Net-(R1-Pad1)*%
X105156000Y-58928000D03*
%TO.P,U1,9*%
%TO.N,Net-(IC1-Pad22)*%
X115316000Y-51308000D03*
%TO.P,U1,3*%
%TO.N,Net-(U1-Pad3)*%
X107696000Y-58928000D03*
%TO.P,U1,10*%
%TO.N,Net-(RN1-Pad3)*%
X112776000Y-51308000D03*
%TO.P,U1,4*%
%TO.N,Net-(RN1-Pad6)*%
X110236000Y-58928000D03*
%TO.P,U1,11*%
%TO.N,TAKT*%
X110236000Y-51308000D03*
%TO.P,U1,5*%
%TO.N,Net-(U1-Pad5)*%
X112776000Y-58928000D03*
%TO.P,U1,12*%
%TO.N,Net-(U1-Pad12)*%
X107696000Y-51308000D03*
%TO.P,U1,6*%
%TO.N,N/C*%
X115316000Y-58928000D03*
%TO.P,U1,13*%
%TO.N,Net-(RN1-Pad4)*%
X105156000Y-51308000D03*
%TO.P,U1,7*%
%TO.N,GND*%
X117856000Y-58928000D03*
%TO.P,U1,14*%
%TO.N,+5P*%
X102616000Y-51308000D03*
%TD*%
%TO.P,U2,14*%
%TO.N,+5P*%
X121920000Y-64770000D03*
%TO.P,U2,7*%
%TO.N,GND*%
X137160000Y-72390000D03*
%TO.P,U2,13*%
%TO.N,Net-(U2-Pad13)*%
X124460000Y-64770000D03*
%TO.P,U2,6*%
%TO.N,AB6*%
X134620000Y-72390000D03*
%TO.P,U2,12*%
%TO.N,~MAD*%
X127000000Y-64770000D03*
%TO.P,U2,5*%
%TO.N,AB5*%
X132080000Y-72390000D03*
%TO.P,U2,11*%
%TO.N,~WR*%
X129540000Y-64770000D03*
%TO.P,U2,4*%
%TO.N,Net-(U2-Pad4)*%
X129540000Y-72390000D03*
%TO.P,U2,10*%
%TO.N,Net-(U2-Pad10)*%
X132080000Y-64770000D03*
%TO.P,U2,3*%
%TO.N,AB1*%
X127000000Y-72390000D03*
%TO.P,U2,9*%
%TO.N,~MAD*%
X134620000Y-64770000D03*
%TO.P,U2,2*%
%TO.N,AB0*%
X124460000Y-72390000D03*
%TO.P,U2,8*%
%TO.N,~RD*%
X137160000Y-64770000D03*
D18*
%TO.P,U2,1*%
%TO.N,Net-(U2-Pad1)*%
X121920000Y-72390000D03*
%TD*%
%TO.P,U3,1*%
%TO.N,AB8*%
X121920000Y-58420000D03*
D19*
%TO.P,U3,8*%
%TO.N,Net-(U3-Pad8)*%
X137160000Y-50800000D03*
%TO.P,U3,2*%
%TO.N,AB9*%
X124460000Y-58420000D03*
%TO.P,U3,9*%
%TO.N,~M1*%
X134620000Y-50800000D03*
%TO.P,U3,3*%
%TO.N,Net-(U3-Pad3)*%
X127000000Y-58420000D03*
%TO.P,U3,10*%
%TO.N,~RESET*%
X132080000Y-50800000D03*
%TO.P,U3,4*%
%TO.N,Net-(U3-Pad3)*%
X129540000Y-58420000D03*
%TO.P,U3,11*%
%TO.N,IEO*%
X129540000Y-50800000D03*
%TO.P,U3,5*%
%TO.N,Net-(U2-Pad1)*%
X132080000Y-58420000D03*
%TO.P,U3,12*%
%TO.N,IEI*%
X127000000Y-50800000D03*
%TO.P,U3,6*%
%TO.N,Net-(U3-Pad6)*%
X134620000Y-58420000D03*
%TO.P,U3,13*%
%TO.N,Net-(IC1-Pad11)*%
X124460000Y-50800000D03*
%TO.P,U3,7*%
%TO.N,GND*%
X137160000Y-58420000D03*
%TO.P,U3,14*%
%TO.N,+5P*%
X121920000Y-50800000D03*
%TD*%
%TO.P,U4,40*%
%TO.N,DB3*%
X153924000Y-65278000D03*
%TO.P,U4,20*%
%TO.N,DB1*%
X202184000Y-80518000D03*
%TO.P,U4,39*%
%TO.N,DB4*%
X156464000Y-65278000D03*
%TO.P,U4,19*%
%TO.N,DB0*%
X199644000Y-80518000D03*
%TO.P,U4,38*%
%TO.N,DB5*%
X159004000Y-65278000D03*
%TO.P,U4,18*%
%TO.N,N/C*%
X197104000Y-80518000D03*
%TO.P,U4,37*%
%TO.N,Net-(U3-Pad8)*%
X161544000Y-65278000D03*
%TO.P,U4,17*%
%TO.N,Net-(IC1-Pad21)*%
X194564000Y-80518000D03*
%TO.P,U4,36*%
%TO.N,N/C*%
X164084000Y-65278000D03*
%TO.P,U4,16*%
%TO.N,Net-(IC1-Pad21)*%
X192024000Y-80518000D03*
%TO.P,U4,35*%
%TO.N,~RD*%
X166624000Y-65278000D03*
%TO.P,U4,15*%
%TO.N,Net-(J4-Pad1)*%
X189484000Y-80518000D03*
%TO.P,U4,34*%
%TO.N,Net-(J2-Pad14)*%
X169164000Y-65278000D03*
%TO.P,U4,14*%
%TO.N,Net-(J4-Pad2)*%
X186944000Y-80518000D03*
%TO.P,U4,33*%
%TO.N,Net-(J2-Pad13)*%
X171704000Y-65278000D03*
%TO.P,U4,13*%
%TO.N,Net-(J4-Pad3)*%
X184404000Y-80518000D03*
%TO.P,U4,32*%
%TO.N,Net-(J2-Pad12)*%
X174244000Y-65278000D03*
%TO.P,U4,12*%
%TO.N,Net-(J4-Pad4)*%
X181864000Y-80518000D03*
%TO.P,U4,31*%
%TO.N,Net-(J2-Pad11)*%
X176784000Y-65278000D03*
%TO.P,U4,11*%
%TO.N,GND*%
X179324000Y-80518000D03*
%TO.P,U4,30*%
%TO.N,Net-(J2-Pad5)*%
X179324000Y-65278000D03*
%TO.P,U4,10*%
%TO.N,Net-(J4-Pad6)*%
X176784000Y-80518000D03*
%TO.P,U4,29*%
%TO.N,Net-(J2-Pad4)*%
X181864000Y-65278000D03*
%TO.P,U4,9*%
%TO.N,Net-(J4-Pad9)*%
X174244000Y-80518000D03*
%TO.P,U4,28*%
%TO.N,Net-(J2-Pad3)*%
X184404000Y-65278000D03*
%TO.P,U4,8*%
%TO.N,Net-(J2-Pad15)*%
X171704000Y-80518000D03*
%TO.P,U4,27*%
%TO.N,Net-(J2-Pad2)*%
X186944000Y-65278000D03*
%TO.P,U4,7*%
%TO.N,Net-(J2-Pad1)*%
X169164000Y-80518000D03*
%TO.P,U4,26*%
%TO.N,+5P*%
X189484000Y-65278000D03*
%TO.P,U4,6*%
%TO.N,A0*%
X166624000Y-80518000D03*
%TO.P,U4,25*%
%TO.N,TAKT*%
X192024000Y-65278000D03*
%TO.P,U4,5*%
%TO.N,A1*%
X164084000Y-80518000D03*
%TO.P,U4,24*%
%TO.N,IEI*%
X194564000Y-65278000D03*
%TO.P,U4,4*%
%TO.N,Net-(U4-Pad4)*%
X161544000Y-80518000D03*
%TO.P,U4,23*%
%TO.N,~INT*%
X197104000Y-65278000D03*
%TO.P,U4,3*%
%TO.N,DB6*%
X159004000Y-80518000D03*
%TO.P,U4,22*%
%TO.N,Net-(IC2-Pad6)*%
X199644000Y-65278000D03*
%TO.P,U4,2*%
%TO.N,DB7*%
X156464000Y-80518000D03*
%TO.P,U4,21*%
%TO.N,N/C*%
X202184000Y-65278000D03*
D18*
%TO.P,U4,1*%
%TO.N,DB2*%
X153924000Y-80518000D03*
%TD*%
%TO.P,U5,1*%
%TO.N,Net-(U3-Pad6)*%
X119634000Y-44958000D03*
D19*
%TO.P,U5,11*%
%TO.N,Net-(RN1-Pad2)*%
X142494000Y-37338000D03*
%TO.P,U5,2*%
%TO.N,Net-(U2-Pad4)*%
X122174000Y-44958000D03*
%TO.P,U5,12*%
%TO.N,Net-(D1-Pad1)*%
X139954000Y-37338000D03*
%TO.P,U5,3*%
%TO.N,AB2*%
X124714000Y-44958000D03*
%TO.P,U5,13*%
%TO.N,MEI*%
X137414000Y-37338000D03*
%TO.P,U5,4*%
%TO.N,AB3*%
X127254000Y-44958000D03*
%TO.P,U5,14*%
%TO.N,MEO*%
X134874000Y-37338000D03*
%TO.P,U5,5*%
%TO.N,AB4*%
X129794000Y-44958000D03*
%TO.P,U5,15*%
%TO.N,Net-(IC1-Pad16)*%
X132334000Y-37338000D03*
%TO.P,U5,6*%
%TO.N,AB7*%
X132334000Y-44958000D03*
%TO.P,U5,16*%
%TO.N,Net-(IC2-Pad35)*%
X129794000Y-37338000D03*
%TO.P,U5,7*%
%TO.N,Net-(U2-Pad10)*%
X134874000Y-44958000D03*
%TO.P,U5,17*%
%TO.N,Net-(U4-Pad4)*%
X127254000Y-37338000D03*
%TO.P,U5,8*%
%TO.N,Net-(U2-Pad13)*%
X137414000Y-44958000D03*
%TO.P,U5,18*%
%TO.N,Net-(U1-Pad5)*%
X124714000Y-37338000D03*
%TO.P,U5,9*%
%TO.N,~IORQ*%
X139954000Y-44958000D03*
%TO.P,U5,19*%
%TO.N,Net-(U1-Pad3)*%
X122174000Y-37338000D03*
%TO.P,U5,10*%
%TO.N,GND*%
X142494000Y-44958000D03*
%TO.P,U5,20*%
%TO.N,+5P*%
X119634000Y-37338000D03*
%TD*%
D18*
%TO.P,U6,1*%
%TO.N,Net-(C7-Pad1)*%
X169418000Y-120904000D03*
D19*
%TO.P,U6,9*%
%TO.N,Net-(IC2-Pad23)*%
X187198000Y-113284000D03*
%TO.P,U6,2*%
%TO.N,Net-(C13-Pad2)*%
X171958000Y-120904000D03*
%TO.P,U6,10*%
%TO.N,Net-(IC2-Pad25)*%
X184658000Y-113284000D03*
%TO.P,U6,3*%
%TO.N,Net-(C7-Pad2)*%
X174498000Y-120904000D03*
%TO.P,U6,11*%
%TO.N,Net-(IC2-Pad26)*%
X182118000Y-113284000D03*
%TO.P,U6,4*%
%TO.N,Net-(C10-Pad1)*%
X177038000Y-120904000D03*
%TO.P,U6,12*%
%TO.N,Net-(IC2-Pad28)*%
X179578000Y-113284000D03*
%TO.P,U6,5*%
%TO.N,Net-(C10-Pad2)*%
X179578000Y-120904000D03*
%TO.P,U6,13*%
%TO.N,Net-(J3-Pad7)*%
X177038000Y-113284000D03*
%TO.P,U6,6*%
%TO.N,Net-(C11-Pad2)*%
X182118000Y-120904000D03*
%TO.P,U6,14*%
%TO.N,Net-(J3-Pad6)*%
X174498000Y-113284000D03*
%TO.P,U6,7*%
%TO.N,Net-(J3-Pad8)*%
X184658000Y-120904000D03*
%TO.P,U6,15*%
%TO.N,GND*%
X171958000Y-113284000D03*
%TO.P,U6,8*%
%TO.N,Net-(J3-Pad9)*%
X187198000Y-120904000D03*
%TO.P,U6,16*%
%TO.N,+5P*%
X169418000Y-113284000D03*
%TD*%
%TO.P,U7,16*%
%TO.N,+5P*%
X169418000Y-98044000D03*
%TO.P,U7,8*%
%TO.N,Net-(J3-Pad4)*%
X187198000Y-105664000D03*
%TO.P,U7,15*%
%TO.N,GND*%
X171958000Y-98044000D03*
%TO.P,U7,7*%
%TO.N,Net-(J3-Pad3)*%
X184658000Y-105664000D03*
%TO.P,U7,14*%
%TO.N,Net-(J3-Pad1)*%
X174498000Y-98044000D03*
%TO.P,U7,6*%
%TO.N,Net-(C14-Pad2)*%
X182118000Y-105664000D03*
%TO.P,U7,13*%
%TO.N,Net-(J3-Pad2)*%
X177038000Y-98044000D03*
%TO.P,U7,5*%
%TO.N,Net-(C12-Pad2)*%
X179578000Y-105664000D03*
%TO.P,U7,12*%
%TO.N,Net-(IC2-Pad12)*%
X179578000Y-98044000D03*
%TO.P,U7,4*%
%TO.N,Net-(C12-Pad1)*%
X177038000Y-105664000D03*
%TO.P,U7,11*%
%TO.N,Net-(IC2-Pad15)*%
X182118000Y-98044000D03*
%TO.P,U7,3*%
%TO.N,Net-(C9-Pad2)*%
X174498000Y-105664000D03*
%TO.P,U7,10*%
%TO.N,Net-(IC2-Pad16)*%
X184658000Y-98044000D03*
%TO.P,U7,2*%
%TO.N,Net-(C15-Pad2)*%
X171958000Y-105664000D03*
%TO.P,U7,9*%
%TO.N,Net-(IC2-Pad18)*%
X187198000Y-98044000D03*
D18*
%TO.P,U7,1*%
%TO.N,Net-(C9-Pad1)*%
X169418000Y-105664000D03*
%TD*%
D20*
%TO.N,GND*%
X176784000Y-47752000D03*
X201058990Y-75582990D03*
X179324000Y-75438000D03*
X199644000Y-47752000D03*
X135382000Y-25654000D03*
X185289001Y-30864999D03*
X182789001Y-30897001D03*
X176530000Y-30988000D03*
X135382000Y-32258000D03*
X148844000Y-44958000D03*
X148844000Y-32258000D03*
X173482000Y-102108000D03*
X185166000Y-123190000D03*
X190500000Y-122682000D03*
X175514000Y-122936000D03*
X179324000Y-93980000D03*
X171958000Y-93980000D03*
X148844000Y-30480000D03*
X111760000Y-95250000D03*
X138938000Y-95504000D03*
X148844000Y-58420000D03*
X182789001Y-20847001D03*
X185289001Y-20847001D03*
X109982000Y-107696000D03*
X117856000Y-123444000D03*
X105664000Y-123190000D03*
%TO.N,+5P*%
X102616000Y-53848000D03*
X120794999Y-53703001D03*
X115316000Y-36576000D03*
X167894000Y-114554000D03*
X167894000Y-123190000D03*
X174244000Y-62484000D03*
X188976000Y-62738000D03*
X169418000Y-95250000D03*
X173118990Y-95140990D03*
X121920000Y-66040000D03*
X110998000Y-66040000D03*
X115289001Y-25172999D03*
X115289001Y-31014999D03*
X108204000Y-85598000D03*
X112485001Y-85634999D03*
X198229010Y-77071010D03*
X189484000Y-76962000D03*
X174752000Y-55118000D03*
X198120000Y-54610000D03*
X99060000Y-53594000D03*
X104394000Y-124206000D03*
X115316000Y-124206000D03*
%TO.N,Net-(C9-Pad2)*%
X174498000Y-101092000D03*
%TO.N,Net-(C13-Pad2)*%
X171958000Y-118364000D03*
%TO.N,DB0*%
X199644000Y-72390000D03*
X151638000Y-72390000D03*
X108821010Y-46083010D03*
X169418000Y-26416000D03*
X153924000Y-37846000D03*
X169418000Y-37338000D03*
X151638000Y-46228000D03*
%TO.N,DB4*%
X158496000Y-48768000D03*
X115570000Y-38354000D03*
X115824000Y-48768000D03*
X173764501Y-28984501D03*
X159004000Y-36576000D03*
X173764501Y-36547499D03*
%TO.N,TAKT*%
X202184000Y-62230000D03*
X192024000Y-62230000D03*
X111650990Y-61104990D03*
X134620000Y-28702000D03*
X110490000Y-28702000D03*
X133350000Y-78486000D03*
X118872000Y-61214000D03*
X192024000Y-78232000D03*
X118999000Y-78613000D03*
%TO.N,DB5*%
X175768000Y-54102000D03*
X159004000Y-54102000D03*
X104503010Y-78630990D03*
X159004000Y-77724000D03*
%TO.N,DB6*%
X176784000Y-29210000D03*
X175804999Y-37555001D03*
X161544000Y-37592000D03*
X107188000Y-74676000D03*
X160129010Y-75074990D03*
%TO.N,~RESET*%
X202184000Y-50546000D03*
X132080000Y-53340000D03*
X138684000Y-53340000D03*
X118872000Y-54864000D03*
X119888000Y-76200000D03*
X128778000Y-76200000D03*
%TO.N,DB7*%
X161544000Y-52578000D03*
X178308000Y-52578000D03*
X109728000Y-86360000D03*
X161798000Y-62484000D03*
X157878990Y-62593010D03*
X140970000Y-85852000D03*
X140970000Y-82804000D03*
X156464000Y-82804000D03*
%TO.N,A0*%
X167386000Y-74676000D03*
X142820011Y-74349989D03*
X142820011Y-79429989D03*
X126746000Y-79502000D03*
%TO.N,A1*%
X171704000Y-49784000D03*
X162560000Y-50038000D03*
X164084000Y-82804000D03*
X136906000Y-82042000D03*
X123698000Y-89916000D03*
X136906000Y-89916000D03*
X165498990Y-62847010D03*
X162814000Y-62738000D03*
%TO.N,~RD*%
X174244000Y-51308000D03*
X165498990Y-51417010D03*
X167789001Y-27327001D03*
X167789001Y-39011001D03*
X174244000Y-39116000D03*
X113538000Y-94742000D03*
X135745010Y-94597010D03*
X165498990Y-61069010D03*
X137269010Y-61069010D03*
%TO.N,Net-(IC1-Pad7)*%
X116078000Y-92710000D03*
X185674000Y-92710000D03*
%TO.N,Net-(IC1-Pad21)*%
X118618000Y-88392000D03*
X194564000Y-88392000D03*
X106934000Y-44450000D03*
X106934000Y-55626000D03*
X118110000Y-56134000D03*
%TO.N,Net-(IC1-Pad8)*%
X118618000Y-93726000D03*
X141986000Y-93726000D03*
X186944000Y-56896000D03*
X142494000Y-56896000D03*
%TO.N,~IORQ*%
X165289001Y-28129001D03*
X123698000Y-91440000D03*
X139954000Y-91440000D03*
X164084000Y-47752000D03*
X139954000Y-47752000D03*
%TO.N,~INT*%
X146048990Y-99315010D03*
X164084000Y-61722000D03*
X145288000Y-62230000D03*
X178271001Y-61504999D03*
X177100795Y-69150795D03*
X197104000Y-69088000D03*
%TO.N,DB1*%
X202184000Y-71628000D03*
X153162000Y-71374000D03*
X153924000Y-49784000D03*
X170180000Y-48768000D03*
X152798999Y-84472999D03*
%TO.N,Net-(IC1-Pad13)*%
X169839000Y-75438000D03*
X165862000Y-75692000D03*
X165462001Y-93871999D03*
X145142001Y-93871999D03*
X145142001Y-100729999D03*
X131318000Y-100584000D03*
%TO.N,DB2*%
X171704000Y-28702000D03*
X156464000Y-35560000D03*
X171704000Y-35306000D03*
X153924000Y-88138000D03*
X103378000Y-88138000D03*
%TO.N,~M1*%
X171450000Y-51054000D03*
%TO.N,DB3*%
X156464000Y-55118000D03*
X173118990Y-54973010D03*
X100838000Y-76962000D03*
X155194000Y-76962000D03*
%TO.N,Net-(IC2-Pad23)*%
X195689010Y-113174990D03*
%TO.N,Net-(IC2-Pad25)*%
X185928000Y-94488000D03*
X203708000Y-94488000D03*
X192024000Y-46228000D03*
X203962000Y-46228000D03*
%TO.N,Net-(IC2-Pad6)*%
X166624000Y-55880000D03*
X198518990Y-55735010D03*
%TO.N,Net-(IC2-Pad26)*%
X182118000Y-115570000D03*
X188358990Y-115679010D03*
%TO.N,Net-(IC2-Pad28)*%
X183243010Y-116187010D03*
X179578000Y-116078000D03*
%TO.N,Net-(IC2-Pad15)*%
X182118000Y-89916000D03*
X190754000Y-89662000D03*
%TO.N,Net-(IC2-Pad35)*%
X166624000Y-34290000D03*
X129794000Y-31496000D03*
X155956000Y-31496000D03*
X155956000Y-34290000D03*
%TO.N,Net-(IC2-Pad16)*%
X193294000Y-95504000D03*
X184658000Y-95504000D03*
%TO.N,Net-(IC2-Pad18)*%
X197104000Y-61722000D03*
X204470000Y-61468000D03*
X204470000Y-98044000D03*
%TO.N,Net-(J2-Pad1)*%
X154355000Y-117679000D03*
X160351000Y-117679000D03*
X169164000Y-84074000D03*
X160351000Y-84151000D03*
%TO.N,Net-(J2-Pad2)*%
X186944000Y-73660000D03*
X163322000Y-73660000D03*
X162958990Y-116695010D03*
X151585000Y-116639000D03*
%TO.N,Net-(J2-Pad3)*%
X184404000Y-68072000D03*
X157988000Y-68072000D03*
X157734000Y-116078000D03*
X148815000Y-116107000D03*
%TO.N,Net-(J2-Pad4)*%
X181864000Y-70104000D03*
X156101999Y-70503999D03*
X155338990Y-115206990D03*
X146045000Y-115321000D03*
%TO.N,Net-(J2-Pad5)*%
X178054000Y-85598000D03*
X142748000Y-85598000D03*
%TO.N,Net-(J2-Pad11)*%
X175658990Y-87012990D03*
X140571010Y-87012990D03*
%TO.N,Net-(J2-Pad12)*%
X174244000Y-76708000D03*
X137922000Y-76200000D03*
%TO.N,Net-(J2-Pad13)*%
X170289010Y-89517010D03*
X134965000Y-112939000D03*
X141587010Y-89517010D03*
X141732000Y-112776000D03*
%TO.N,Net-(J2-Pad14)*%
X167749010Y-91330990D03*
X143908990Y-91330990D03*
X132195000Y-112153000D03*
X143981001Y-112050999D03*
%TO.N,Net-(J2-Pad15)*%
X109220000Y-69596000D03*
X171958000Y-69596000D03*
X109872990Y-100474990D03*
X126601010Y-100474990D03*
%TO.N,Net-(J3-Pad2)*%
X177038000Y-96266000D03*
X168148000Y-96266000D03*
%TO.N,Net-(J3-Pad3)*%
X181356000Y-117856000D03*
%TO.N,Net-(J3-Pad6)*%
X173228000Y-119380000D03*
X173482000Y-123190000D03*
%TO.N,Net-(R1-Pad1)*%
X95631000Y-54737000D03*
X105156000Y-54864000D03*
%TO.N,Net-(RN1-Pad2)*%
X142494000Y-35052000D03*
X101854000Y-35052000D03*
%TO.N,Net-(RN1-Pad3)*%
X105410000Y-61214000D03*
X100330000Y-61214000D03*
X100330000Y-49276000D03*
%TO.N,Net-(U1-Pad12)*%
X107696000Y-54864000D03*
X117856000Y-54864000D03*
%TO.N,Net-(U1-Pad3)*%
X122174000Y-34036000D03*
X111506000Y-34544000D03*
X112522000Y-56642000D03*
X107696000Y-56642000D03*
%TO.N,Net-(U1-Pad5)*%
X114046000Y-40386000D03*
X124460000Y-40386000D03*
%TO.N,Net-(U2-Pad13)*%
X145288000Y-44450000D03*
X144780000Y-67056000D03*
X124460000Y-67310000D03*
%TO.N,AB6*%
X134620000Y-70866000D03*
X147789001Y-70827001D03*
%TO.N,~MAD*%
X123334990Y-61866990D03*
X127000000Y-61976000D03*
X134620000Y-61976000D03*
%TO.N,AB5*%
X144272000Y-26670000D03*
X132080000Y-68072000D03*
X144526000Y-68072000D03*
%TO.N,~WR*%
X166624000Y-33020000D03*
X129540000Y-60706000D03*
X150368000Y-59944000D03*
X150368000Y-33782000D03*
%TO.N,Net-(U2-Pad4)*%
X129540000Y-68072000D03*
X115824000Y-68072000D03*
X117094000Y-42164000D03*
X122174000Y-42164000D03*
%TO.N,Net-(U2-Pad10)*%
X135745010Y-62882990D03*
%TO.N,AB1*%
X140289001Y-26588999D03*
X140208000Y-34036000D03*
X118618000Y-33274000D03*
X118110000Y-47752000D03*
X128270000Y-47752000D03*
%TO.N,AB0*%
X124460000Y-74422000D03*
X141079010Y-74566990D03*
%TO.N,Net-(U2-Pad1)*%
X148842000Y-70102000D03*
X132334000Y-55626000D03*
X149606000Y-55880000D03*
%TO.N,AB8*%
X152789001Y-35932999D03*
X150994999Y-35932999D03*
X150876000Y-62230000D03*
X121992011Y-61141989D03*
%TO.N,Net-(U3-Pad8)*%
X146431000Y-50927000D03*
X146594999Y-67346999D03*
%TO.N,AB9*%
X142494000Y-55880000D03*
X141986000Y-39878000D03*
X149860000Y-38608000D03*
X150114000Y-30226000D03*
%TO.N,IEO*%
X164084000Y-32258000D03*
X129540000Y-54356000D03*
X146812000Y-54356000D03*
X147211999Y-33165999D03*
%TO.N,IEI*%
X162789001Y-29947001D03*
X162789001Y-39853001D03*
X193294000Y-39624000D03*
X150138999Y-39853001D03*
X149606000Y-54610000D03*
X127000000Y-54610000D03*
%TO.N,Net-(U3-Pad6)*%
X134620000Y-56134000D03*
X119634000Y-56134000D03*
%TO.N,Net-(U4-Pad4)*%
X161544000Y-73660000D03*
X143510000Y-73406000D03*
X143510000Y-49784000D03*
X146302990Y-38863010D03*
X146304000Y-49784000D03*
%TO.N,AB2*%
X144018000Y-41910000D03*
X124714000Y-41910000D03*
%TO.N,MEI*%
X128524000Y-40386000D03*
X137414000Y-40132000D03*
X128778000Y-26670000D03*
%TO.N,AB3*%
X141986000Y-27432000D03*
X143256000Y-40640000D03*
X127254000Y-40894000D03*
%TO.N,MEO*%
X134874000Y-34544000D03*
X127762000Y-34544000D03*
%TO.N,AB4*%
X129921000Y-43053000D03*
X145289001Y-42924999D03*
%TO.N,AB7*%
X146812000Y-27686000D03*
X133088991Y-39878000D03*
X130810000Y-39624000D03*
X131064000Y-30480000D03*
X146304000Y-30480000D03*
%TO.N,~BI*%
X125276000Y-27632000D03*
X126238000Y-42926000D03*
%TO.N,Net-(J2-Pad15)*%
X126655000Y-121575000D03*
X141478000Y-121666000D03*
%TO.N,Net-(J2-Pad14)*%
X132195000Y-135497000D03*
X145276000Y-135624000D03*
%TO.N,Net-(J2-Pad13)*%
X134965000Y-124623000D03*
X147566000Y-135120000D03*
X139101000Y-124623000D03*
X139192000Y-134620000D03*
%TO.N,Net-(J2-Pad12)*%
X137922000Y-133858000D03*
X149856000Y-133854000D03*
%TO.N,Net-(J2-Pad11)*%
X140505000Y-134323000D03*
X152146000Y-134366000D03*
%TO.N,Net-(J3-Pad9)*%
X187198000Y-127762000D03*
X175979000Y-127805000D03*
%TO.N,Net-(J3-Pad8)*%
X184150000Y-128270000D03*
%TO.N,Net-(J3-Pad6)*%
X184289000Y-133743000D03*
X173043001Y-133788999D03*
%TO.N,Net-(J3-Pad4)*%
X177349990Y-135947990D03*
X188791001Y-136074999D03*
%TO.N,Net-(J3-Pad2)*%
X183134000Y-135636000D03*
X165354000Y-135636000D03*
%TO.N,Net-(J3-Pad1)*%
X170792999Y-134515001D03*
X185674000Y-134620000D03*
%TO.N,Net-(J4-Pad9)*%
X174244000Y-91948000D03*
X148990009Y-92055991D03*
X120433001Y-121882999D03*
X119634000Y-115316000D03*
X147828000Y-116332000D03*
%TO.N,Net-(J4-Pad6)*%
X176784000Y-90424000D03*
X118364000Y-120650000D03*
X146812000Y-90424000D03*
X111760000Y-120904000D03*
X146812000Y-120650000D03*
%TO.N,Net-(J4-Pad4)*%
X180848000Y-103632000D03*
X115824000Y-118872000D03*
X152654000Y-118872000D03*
X152654000Y-107442000D03*
X115824000Y-121920000D03*
X119308000Y-121992000D03*
%TO.N,Net-(J4-Pad3)*%
X184404000Y-93472000D03*
X114427000Y-119761000D03*
X149860000Y-119888000D03*
X147574000Y-94742000D03*
X147955000Y-113919000D03*
X150622000Y-114046000D03*
X114427000Y-126111000D03*
X116586000Y-126238000D03*
%TO.N,Net-(J4-Pad2)*%
X186944000Y-84582000D03*
X156504001Y-84876001D03*
X153399999Y-117364001D03*
X153198999Y-96048999D03*
X156504001Y-95971999D03*
X113030000Y-120142000D03*
X111252000Y-119888000D03*
%TO.N,Net-(J4-Pad1)*%
X189484000Y-100330000D03*
X151638000Y-102362000D03*
X151638000Y-113030000D03*
X106934000Y-114808000D03*
X106934000Y-119888000D03*
X110236000Y-119888000D03*
%TD*%
D21*
%TO.N,GND*%
X199644000Y-43942000D02*
X199644000Y-59182000D01*
X176784000Y-43942000D02*
X176784000Y-47752000D01*
X199644000Y-60960000D02*
X201058990Y-62374990D01*
X199644000Y-59182000D02*
X199644000Y-60960000D01*
X201058990Y-62374990D02*
X201058990Y-75582990D01*
X179324000Y-80518000D02*
X179324000Y-75438000D01*
X176784000Y-47752000D02*
X176784000Y-47752000D01*
X201058990Y-75582990D02*
X201058990Y-75582990D01*
X179324000Y-75438000D02*
X179324000Y-75438000D01*
X138285010Y-59545010D02*
X137160000Y-58420000D01*
X138285010Y-71264990D02*
X138285010Y-59545010D01*
X137160000Y-72390000D02*
X138285010Y-71264990D01*
X182789001Y-20847001D02*
X182789001Y-20847001D01*
X185289001Y-20847001D02*
X185289001Y-20847001D01*
X185289001Y-30864999D02*
X185289001Y-30864999D01*
X182789001Y-30897001D02*
X182789001Y-30897001D01*
X176784000Y-43942000D02*
X176784000Y-32258000D01*
X176784000Y-32258000D02*
X176530000Y-32004000D01*
X176530000Y-32004000D02*
X176530000Y-30988000D01*
X176530000Y-30988000D02*
X176530000Y-30988000D01*
X135382000Y-25654000D02*
X135382000Y-32258000D01*
X135382000Y-32258000D02*
X135382000Y-32258000D01*
X190500000Y-111506000D02*
X190500000Y-122682000D01*
X185166000Y-124968000D02*
X185166000Y-123190000D01*
X185832000Y-125634000D02*
X185166000Y-124968000D01*
X173083010Y-112158990D02*
X171958000Y-113284000D01*
X173083010Y-102979010D02*
X173083010Y-112158990D01*
X173482000Y-102580020D02*
X173083010Y-102979010D01*
X173482000Y-102108000D02*
X173482000Y-102108000D01*
X173482000Y-102108000D02*
X173482000Y-102580020D01*
X185166000Y-123190000D02*
X185166000Y-123190000D01*
X190500000Y-122682000D02*
X190500000Y-122682000D01*
X176998000Y-123404000D02*
X175982000Y-123404000D01*
X176998000Y-124968000D02*
X176998000Y-123404000D01*
X175982000Y-123404000D02*
X175514000Y-122936000D01*
X175514000Y-122936000D02*
X175514000Y-122936000D01*
X179324000Y-80518000D02*
X179324000Y-93980000D01*
X171958000Y-98044000D02*
X171958000Y-93980000D01*
X179324000Y-93980000D02*
X179324000Y-93980000D01*
X171958000Y-93980000D02*
X171958000Y-93980000D01*
X148844000Y-44958000D02*
X148844000Y-32258000D01*
X138647001Y-73877001D02*
X138647001Y-95213001D01*
X137160000Y-72390000D02*
X138647001Y-73877001D01*
X138647001Y-95213001D02*
X138938000Y-95504000D01*
X110998000Y-97790000D02*
X110998000Y-96012000D01*
X110998000Y-96012000D02*
X111760000Y-95250000D01*
X111760000Y-95250000D02*
X111760000Y-95250000D01*
X138938000Y-95504000D02*
X138938000Y-95504000D01*
X148844000Y-58420000D02*
X148844000Y-44958000D01*
X148844000Y-32258000D02*
X148844000Y-30480000D01*
X182776000Y-18138000D02*
X185276000Y-18138000D01*
X182789001Y-20847001D02*
X182789001Y-30897001D01*
X185289001Y-20847001D02*
X185289001Y-30864999D01*
X110998000Y-97790000D02*
X110888999Y-97899001D01*
X110888999Y-102546999D02*
X112014000Y-103672000D01*
X110888999Y-101236999D02*
X110888999Y-102546999D01*
X110888999Y-97899001D02*
X110888999Y-101236999D01*
X110888999Y-106789001D02*
X109982000Y-107696000D01*
X110888999Y-104797001D02*
X110888999Y-106789001D01*
X112014000Y-103672000D02*
X110888999Y-104797001D01*
X200660000Y-81782984D02*
X200660000Y-85598000D01*
X201058990Y-81383994D02*
X200660000Y-81782984D01*
X201058990Y-75582990D02*
X201058990Y-81383994D01*
X199858000Y-43728000D02*
X199644000Y-43942000D01*
X199858000Y-39624000D02*
X199858000Y-43728000D01*
X117923000Y-131872000D02*
X117923000Y-123511000D01*
X117923000Y-123511000D02*
X117856000Y-123444000D01*
X117856000Y-123444000D02*
X117856000Y-123444000D01*
X106894000Y-113774998D02*
X106894000Y-107442000D01*
X105664000Y-115004998D02*
X106894000Y-113774998D01*
X105664000Y-123190000D02*
X105664000Y-115004998D01*
X174594000Y-129540000D02*
X174594000Y-127666000D01*
X176998000Y-125262000D02*
X176998000Y-124968000D01*
X174594000Y-127666000D02*
X176998000Y-125262000D01*
%TO.N,+5P*%
X120794999Y-63644999D02*
X121920000Y-64770000D01*
X120794999Y-51925001D02*
X120794999Y-53703001D01*
X121920000Y-50800000D02*
X120794999Y-51925001D01*
X102616000Y-51308000D02*
X102616000Y-53848000D01*
X102616000Y-53848000D02*
X102616000Y-53848000D01*
X120794999Y-53703001D02*
X120794999Y-63644999D01*
X115289001Y-20847001D02*
X115289001Y-25172999D01*
X115289001Y-36041001D02*
X115316000Y-36068000D01*
X115316000Y-36068000D02*
X115316000Y-36576000D01*
X121048990Y-38752990D02*
X119634000Y-37338000D01*
X121048990Y-49928990D02*
X121048990Y-38752990D01*
X121920000Y-50800000D02*
X121048990Y-49928990D01*
X115316000Y-36576000D02*
X115316000Y-36576000D01*
X169418000Y-109474000D02*
X169418000Y-113284000D01*
X168292999Y-108348999D02*
X169418000Y-109474000D01*
X168292999Y-99169001D02*
X168292999Y-108348999D01*
X169418000Y-98044000D02*
X168292999Y-99169001D01*
X167894000Y-123190000D02*
X167894000Y-114554000D01*
X189484000Y-65278000D02*
X189484000Y-63246000D01*
X189484000Y-63246000D02*
X188976000Y-62738000D01*
X174244000Y-59182000D02*
X174244000Y-62484000D01*
X174244000Y-62484000D02*
X174244000Y-62738000D01*
X188976000Y-62738000D02*
X188976000Y-62738000D01*
X173118990Y-63609010D02*
X173118990Y-95140990D01*
X174244000Y-62484000D02*
X173118990Y-63609010D01*
X169418000Y-98044000D02*
X169418000Y-95250000D01*
X169418000Y-95250000D02*
X169418000Y-95250000D01*
X173118990Y-95140990D02*
X173118990Y-95140990D01*
X110998000Y-82550000D02*
X110998000Y-66040000D01*
X121920000Y-64770000D02*
X121920000Y-66040000D01*
X121920000Y-66040000D02*
X121920000Y-66040000D01*
X110998000Y-66040000D02*
X110998000Y-66040000D01*
X115289001Y-25172999D02*
X115289001Y-31014999D01*
X115289001Y-31014999D02*
X115289001Y-36041001D01*
X113139001Y-99423001D02*
X112412990Y-98696990D01*
X113139001Y-105046999D02*
X113139001Y-99423001D01*
X112014000Y-106172000D02*
X113139001Y-105046999D01*
X112485001Y-84037001D02*
X110998000Y-82550000D01*
X112485001Y-95598001D02*
X112485001Y-85634999D01*
X112412990Y-95670012D02*
X112485001Y-95598001D01*
X112412990Y-98696990D02*
X112412990Y-95670012D01*
X107332990Y-94979420D02*
X108204000Y-94108410D01*
X107332990Y-98407010D02*
X107332990Y-94979420D01*
X104394000Y-101346000D02*
X107332990Y-98407010D01*
X104394000Y-107442000D02*
X104394000Y-101346000D01*
X108204000Y-94108410D02*
X108204000Y-85598000D01*
X108204000Y-85598000D02*
X108204000Y-85598000D01*
X112485001Y-85634999D02*
X112485001Y-84037001D01*
X189484000Y-65278000D02*
X189484000Y-76962000D01*
X198229010Y-81383994D02*
X198229010Y-77071010D01*
X198160000Y-81453004D02*
X198229010Y-81383994D01*
X198160000Y-85598000D02*
X198160000Y-81453004D01*
X198229010Y-77071010D02*
X198229010Y-77071010D01*
X189484000Y-76962000D02*
X189484000Y-76962000D01*
X198229010Y-40495010D02*
X198229010Y-51417010D01*
X197358000Y-39624000D02*
X198229010Y-40495010D01*
X198229010Y-51417010D02*
X198374000Y-51562000D01*
X174244000Y-59182000D02*
X174244000Y-55626000D01*
X174244000Y-55626000D02*
X174752000Y-55118000D01*
X174752000Y-55118000D02*
X174752000Y-54864000D01*
X174752000Y-55118000D02*
X174752000Y-55118000D01*
X198229010Y-51417010D02*
X198229010Y-54500990D01*
X198229010Y-54500990D02*
X198120000Y-54610000D01*
X198120000Y-54610000D02*
X198120000Y-54610000D01*
X99060000Y-63500000D02*
X99060000Y-53594000D01*
X99060000Y-53594000D02*
X99060000Y-53594000D01*
X104394000Y-107442000D02*
X104394000Y-117602000D01*
X115153000Y-131872000D02*
X115153000Y-124369000D01*
X115153000Y-124369000D02*
X115316000Y-124206000D01*
X104394000Y-117602000D02*
X104394000Y-123952000D01*
X104394000Y-123952000D02*
X104394000Y-124206000D01*
X104394000Y-124206000D02*
X104394000Y-124206000D01*
X115316000Y-124206000D02*
X115316000Y-124206000D01*
%TO.N,Net-(C7-Pad1)*%
X169418000Y-124968000D02*
X169418000Y-120904000D01*
%TO.N,Net-(C7-Pad2)*%
X171918000Y-123484000D02*
X174498000Y-120904000D01*
X171918000Y-124968000D02*
X171918000Y-123484000D01*
%TO.N,Net-(C9-Pad2)*%
X174498000Y-105664000D02*
X174498000Y-101092000D01*
%TO.N,Net-(C10-Pad2)*%
X180703010Y-112707986D02*
X180703010Y-116476990D01*
X181316000Y-112094996D02*
X180703010Y-112707986D01*
X181316000Y-109220000D02*
X181316000Y-112094996D01*
X179578000Y-117602000D02*
X179578000Y-120904000D01*
X180703010Y-116476990D02*
X179578000Y-117602000D01*
%TO.N,Net-(C10-Pad1)*%
X178163010Y-109872990D02*
X178816000Y-109220000D01*
X177038000Y-116332000D02*
X178163010Y-115206990D01*
X177038000Y-120904000D02*
X177038000Y-116332000D01*
X178163010Y-115206990D02*
X178163010Y-109872990D01*
%TO.N,Net-(C12-Pad1)*%
X177038000Y-105664000D02*
X177038000Y-102616000D01*
%TO.N,Net-(C12-Pad2)*%
X179578000Y-102656000D02*
X179538000Y-102616000D01*
X179578000Y-105664000D02*
X179578000Y-102656000D01*
%TO.N,Net-(C13-Pad2)*%
X171958000Y-120904000D02*
X171958000Y-118364000D01*
X171958000Y-118364000D02*
X171958000Y-118364000D01*
%TO.N,Net-(C15-Pad2)*%
X171918000Y-105704000D02*
X171958000Y-105664000D01*
X171918000Y-109474000D02*
X171918000Y-105704000D01*
%TO.N,Net-(D1-Pad1)*%
X95504000Y-42418000D02*
X95504000Y-38354000D01*
%TO.N,DB0*%
X153924000Y-43942000D02*
X151638000Y-46228000D01*
X151638000Y-46228000D02*
X151638000Y-72390000D01*
X199644000Y-80518000D02*
X199644000Y-72644000D01*
X199644000Y-72644000D02*
X199644000Y-72390000D01*
X199644000Y-72390000D02*
X199644000Y-72390000D01*
X151638000Y-72390000D02*
X151638000Y-72390000D01*
X105664000Y-42418000D02*
X105664000Y-45974000D01*
X108821010Y-59793994D02*
X108821010Y-46083010D01*
X108094999Y-60520005D02*
X108821010Y-59793994D01*
X108094999Y-82186999D02*
X108094999Y-60520005D01*
X108458000Y-82550000D02*
X108094999Y-82186999D01*
X108821010Y-46083010D02*
X108821010Y-46083010D01*
X108821010Y-46083010D02*
X108712000Y-45974000D01*
X169418000Y-26416000D02*
X169418000Y-37338000D01*
X153924000Y-43942000D02*
X153924000Y-37846000D01*
X153924000Y-37846000D02*
X153924000Y-37846000D01*
X169418000Y-37338000D02*
X169418000Y-37592000D01*
%TO.N,DB4*%
X159004000Y-48260000D02*
X157589010Y-49674990D01*
X159004000Y-43942000D02*
X159004000Y-48260000D01*
X156464000Y-62702020D02*
X157589010Y-61577010D01*
X156464000Y-65278000D02*
X156464000Y-62702020D01*
X157589010Y-49674990D02*
X157589010Y-61577010D01*
X102725001Y-81211995D02*
X101963010Y-81973986D01*
X101963010Y-81973986D02*
X101963010Y-95394990D01*
X102725001Y-63249997D02*
X102725001Y-81211995D01*
X104030990Y-61944008D02*
X102725001Y-63249997D01*
X104030990Y-39987010D02*
X104030990Y-61944008D01*
X105664000Y-38354000D02*
X104030990Y-39987010D01*
X100838000Y-96520000D02*
X100838000Y-97790000D01*
X101963010Y-95394990D02*
X100838000Y-96520000D01*
X157589010Y-49674990D02*
X157589010Y-49674990D01*
X115824000Y-38608000D02*
X115570000Y-38354000D01*
X115824000Y-48768000D02*
X115824000Y-38608000D01*
X159004000Y-43942000D02*
X159004000Y-36576000D01*
X173764501Y-28984501D02*
X173764501Y-36547499D01*
X159004000Y-36576000D02*
X159004000Y-36576000D01*
X173764501Y-36547499D02*
X173764501Y-36547499D01*
%TO.N,TAKT*%
X192024000Y-65278000D02*
X192024000Y-62230000D01*
X202184000Y-59182000D02*
X202184000Y-62230000D01*
X202184000Y-62230000D02*
X202184000Y-62230000D01*
X192024000Y-62230000D02*
X192024000Y-62230000D01*
X111650990Y-61104990D02*
X111650990Y-61104990D01*
X110236000Y-53812020D02*
X111650990Y-55227010D01*
X110236000Y-51308000D02*
X110236000Y-53812020D01*
X111650990Y-55227010D02*
X111650990Y-61104990D01*
X111650990Y-61104990D02*
X111760000Y-61214000D01*
X135289001Y-20847001D02*
X135289001Y-24222999D01*
X135289001Y-24222999D02*
X134620000Y-24892000D01*
X134620000Y-24892000D02*
X134620000Y-28702000D01*
X134620000Y-28702000D02*
X134620000Y-28702000D01*
X110490000Y-51054000D02*
X110236000Y-51308000D01*
X110490000Y-28702000D02*
X110490000Y-51054000D01*
X133858000Y-82550000D02*
X133858000Y-80010000D01*
X133858000Y-80010000D02*
X133350000Y-79502000D01*
X133350000Y-79502000D02*
X133350000Y-78486000D01*
X133350000Y-78486000D02*
X133350000Y-78486000D01*
X192024000Y-65278000D02*
X192024000Y-78232000D01*
X192024000Y-78232000D02*
X192024000Y-78232000D01*
X118872000Y-78486000D02*
X118999000Y-78613000D01*
X118872000Y-77724000D02*
X118872000Y-78486000D01*
X118872000Y-77724000D02*
X118872000Y-61214000D01*
%TO.N,DB5*%
X159004000Y-59182000D02*
X159004000Y-65278000D01*
X103378000Y-94706020D02*
X104503010Y-93581010D01*
X103378000Y-97790000D02*
X103378000Y-94706020D01*
X104503010Y-93581010D02*
X104503010Y-78630990D01*
X159004000Y-59182000D02*
X159004000Y-54102000D01*
X175768000Y-54102000D02*
X175768000Y-54102000D01*
X159004000Y-54102000D02*
X159004000Y-54102000D01*
X175289001Y-34768999D02*
X175289001Y-34573001D01*
X174498000Y-35560000D02*
X175289001Y-34768999D01*
X174498000Y-37592000D02*
X174498000Y-35560000D01*
X175289001Y-38383001D02*
X174498000Y-37592000D01*
X175289001Y-42995997D02*
X175289001Y-38383001D01*
X175658990Y-53992990D02*
X175658990Y-43365986D01*
X175289001Y-34573001D02*
X175289001Y-20847001D01*
X175658990Y-43365986D02*
X175289001Y-42995997D01*
X175768000Y-54102000D02*
X175658990Y-53992990D01*
X104503010Y-78630990D02*
X104503010Y-78630990D01*
X159004000Y-77724000D02*
X159004000Y-65278000D01*
%TO.N,Net-(IC1-Pad16)*%
X131589990Y-41419990D02*
X131572000Y-41402000D01*
X130954990Y-59285994D02*
X130954990Y-42054990D01*
X131318000Y-59649004D02*
X130954990Y-59285994D01*
X131572000Y-40132000D02*
X132334000Y-39370000D01*
X131572000Y-41402000D02*
X131572000Y-40132000D01*
X131318000Y-63540996D02*
X131318000Y-59649004D01*
X132334000Y-39370000D02*
X132334000Y-37338000D01*
X130954990Y-63904006D02*
X131318000Y-63540996D01*
X130954990Y-42054990D02*
X131589990Y-41419990D01*
X130954990Y-82186990D02*
X130954990Y-63904006D01*
X131318000Y-82550000D02*
X130954990Y-82186990D01*
%TO.N,DB6*%
X160129010Y-79392990D02*
X160129010Y-75074990D01*
X159004000Y-80518000D02*
X160129010Y-79392990D01*
X161544000Y-46736000D02*
X161544000Y-43942000D01*
X160129010Y-48150990D02*
X161544000Y-46736000D01*
X105918000Y-95758000D02*
X107188000Y-94488000D01*
X105918000Y-97790000D02*
X105918000Y-95758000D01*
X107188000Y-94488000D02*
X107188000Y-74676000D01*
X175804999Y-30189001D02*
X175804999Y-37555001D01*
X176784000Y-29210000D02*
X175804999Y-30189001D01*
X175841998Y-37592000D02*
X175804999Y-37555001D01*
X175804999Y-37555001D02*
X175804999Y-37555001D01*
X161544000Y-43942000D02*
X161544000Y-37592000D01*
X161544000Y-37592000D02*
X161544000Y-37592000D01*
X107188000Y-74676000D02*
X107188000Y-74676000D01*
X160129010Y-75074990D02*
X160129010Y-48150990D01*
%TO.N,~RESET*%
X202184000Y-43942000D02*
X202184000Y-50546000D01*
X202184000Y-50546000D02*
X202184000Y-50546000D01*
X138788991Y-21846991D02*
X138788991Y-53235009D01*
X137789001Y-20847001D02*
X138788991Y-21846991D01*
X138684000Y-53340000D02*
X138684000Y-53340000D01*
X132080000Y-50800000D02*
X132080000Y-53086000D01*
X132080000Y-53086000D02*
X132080000Y-53340000D01*
X132080000Y-53340000D02*
X132080000Y-53340000D01*
X138684000Y-53340000D02*
X138788991Y-53235009D01*
X128778000Y-82550000D02*
X128778000Y-76200000D01*
X118872000Y-56445002D02*
X119888000Y-57461002D01*
X118872000Y-54864000D02*
X118872000Y-56445002D01*
X119888000Y-57461002D02*
X119888000Y-76200000D01*
X119888000Y-76200000D02*
X119888000Y-76200000D01*
X128778000Y-76200000D02*
X128778000Y-76200000D01*
%TO.N,DB7*%
X108458000Y-97790000D02*
X108458000Y-94996000D01*
X108458000Y-94996000D02*
X109728000Y-93726000D01*
X109728000Y-93726000D02*
X109728000Y-86360000D01*
X178198990Y-43365986D02*
X178198990Y-52468990D01*
X177789001Y-42955997D02*
X178198990Y-43365986D01*
X177789001Y-20847001D02*
X177789001Y-42955997D01*
X178198990Y-52468990D02*
X178308000Y-52578000D01*
X161544000Y-59182000D02*
X161544000Y-52578000D01*
X161544000Y-52578000D02*
X161544000Y-52578000D01*
X178308000Y-52578000D02*
X178308000Y-52578000D01*
X109728000Y-86360000D02*
X109728000Y-86360000D01*
X157878990Y-65854014D02*
X157878990Y-62593010D01*
X156827000Y-66906004D02*
X157878990Y-65854014D01*
X156827000Y-80155000D02*
X156827000Y-66906004D01*
X156464000Y-80518000D02*
X156827000Y-80155000D01*
X161544000Y-59182000D02*
X161544000Y-62230000D01*
X161544000Y-62230000D02*
X161798000Y-62484000D01*
X161798000Y-62484000D02*
X161798000Y-62484000D01*
X157878990Y-62593010D02*
X157878990Y-62593010D01*
X140970000Y-85852000D02*
X140970000Y-82804000D01*
X156464000Y-80518000D02*
X156464000Y-82804000D01*
X140970000Y-82804000D02*
X140970000Y-82804000D01*
X156464000Y-82804000D02*
X156464000Y-82804000D01*
%TO.N,A0*%
X167749010Y-73042990D02*
X167749010Y-48404990D01*
X169164000Y-46990000D02*
X169164000Y-43942000D01*
X167749010Y-48404990D02*
X169164000Y-46990000D01*
X166624000Y-80518000D02*
X166624000Y-78486000D01*
X166624000Y-78486000D02*
X167386000Y-77724000D01*
X167386000Y-73406000D02*
X167749010Y-73042990D01*
X167386000Y-77724000D02*
X167386000Y-74676000D01*
X167386000Y-74676000D02*
X167386000Y-73406000D01*
X142820011Y-74349989D02*
X142820011Y-79429989D01*
X126238000Y-82550000D02*
X126238000Y-80264000D01*
X126238000Y-80264000D02*
X126746000Y-79756000D01*
X126746000Y-79756000D02*
X126746000Y-79502000D01*
X142820011Y-79429989D02*
X142820011Y-79429989D01*
X126746000Y-79502000D02*
X126746000Y-79502000D01*
%TO.N,A1*%
X165498990Y-66143994D02*
X165498990Y-65278000D01*
X164084000Y-75946000D02*
X165498990Y-74531010D01*
X164084000Y-80518000D02*
X164084000Y-75946000D01*
X165498990Y-74531010D02*
X165498990Y-66143994D01*
X165498990Y-66143994D02*
X165498990Y-62847010D01*
X162669010Y-50147010D02*
X162560000Y-50038000D01*
X171704000Y-43942000D02*
X171704000Y-49784000D01*
X171704000Y-49784000D02*
X171704000Y-50038000D01*
X171704000Y-49784000D02*
X171704000Y-49784000D01*
X162560000Y-50038000D02*
X162560000Y-50038000D01*
X164084000Y-80518000D02*
X164084000Y-82804000D01*
X164084000Y-82804000D02*
X164084000Y-82804000D01*
X136906000Y-82042000D02*
X136906000Y-89916000D01*
X123698000Y-82550000D02*
X123698000Y-89916000D01*
X123698000Y-89916000D02*
X123698000Y-89916000D01*
X136906000Y-89916000D02*
X136906000Y-89916000D01*
X162669010Y-59545010D02*
X162669010Y-62339010D01*
X162669010Y-59758014D02*
X162669010Y-59545010D01*
X162669010Y-59545010D02*
X162669010Y-50147010D01*
X162669010Y-62339010D02*
X162814000Y-62484000D01*
X162814000Y-62484000D02*
X162814000Y-62738000D01*
X165498990Y-62847010D02*
X165498990Y-62587994D01*
X162814000Y-62738000D02*
X162814000Y-62738000D01*
%TO.N,~RD*%
X174244000Y-43942000D02*
X174244000Y-51308000D01*
X166624000Y-62738000D02*
X165498990Y-61612990D01*
X166624000Y-65278000D02*
X166624000Y-62738000D01*
X165498990Y-61612990D02*
X165498990Y-61069010D01*
X174244000Y-51308000D02*
X174244000Y-51308000D01*
X165498990Y-51417010D02*
X165498990Y-51417010D01*
X174244000Y-43942000D02*
X174244000Y-39116000D01*
X167789001Y-27327001D02*
X167789001Y-39011001D01*
X167789001Y-39011001D02*
X167789001Y-39011001D01*
X135745010Y-66184990D02*
X135745010Y-94597010D01*
X137160000Y-64770000D02*
X135745010Y-66184990D01*
X113538000Y-97790000D02*
X113538000Y-95504000D01*
X113538000Y-95504000D02*
X113538000Y-94742000D01*
X113538000Y-94742000D02*
X113538000Y-94742000D01*
X135745010Y-94597010D02*
X135745010Y-94597010D01*
X165498990Y-61069010D02*
X165498990Y-51417010D01*
X137160000Y-61178020D02*
X137269010Y-61069010D01*
X137160000Y-64770000D02*
X137160000Y-61178020D01*
%TO.N,Net-(IC1-Pad20)*%
X121158000Y-97790000D02*
X121158000Y-82550000D01*
%TO.N,Net-(IC1-Pad7)*%
X116078000Y-97790000D02*
X116078000Y-92710000D01*
X116078000Y-92710000D02*
X116078000Y-92710000D01*
X186944000Y-63286996D02*
X186944000Y-59182000D01*
X185674000Y-64556996D02*
X186944000Y-63286996D01*
X185674000Y-92710000D02*
X185674000Y-64556996D01*
%TO.N,Net-(IC1-Pad21)*%
X118618000Y-82550000D02*
X118618000Y-88138000D01*
X118618000Y-88138000D02*
X118618000Y-88392000D01*
X118618000Y-88392000D02*
X118618000Y-88392000D01*
X194564000Y-84074000D02*
X194564000Y-84074000D01*
X194564000Y-83058000D02*
X194564000Y-88392000D01*
X194564000Y-80518000D02*
X194564000Y-83058000D01*
X194564000Y-83058000D02*
X194564000Y-84074000D01*
X106934000Y-50078996D02*
X106570990Y-50442006D01*
X106934000Y-44450000D02*
X106934000Y-50078996D01*
X106570990Y-53992990D02*
X106570990Y-55262990D01*
X106570990Y-50442006D02*
X106570990Y-53992990D01*
X106570990Y-53992990D02*
X106570990Y-54118580D01*
X106570990Y-55262990D02*
X106934000Y-55626000D01*
X106934000Y-55626000D02*
X106934000Y-55626000D01*
X118146999Y-82078999D02*
X118618000Y-82550000D01*
X118146999Y-60865999D02*
X118146999Y-82078999D01*
X118981010Y-60031988D02*
X118146999Y-60865999D01*
X118981010Y-58062006D02*
X118981010Y-60031988D01*
X118110000Y-57190996D02*
X118981010Y-58062006D01*
X118110000Y-56134000D02*
X118110000Y-57190996D01*
%TO.N,Net-(IC1-Pad8)*%
X118618000Y-97790000D02*
X118618000Y-93726000D01*
X118618000Y-93726000D02*
X118618000Y-93726000D01*
X142022999Y-85946001D02*
X142022999Y-57621001D01*
X142312011Y-86235013D02*
X142022999Y-85946001D01*
X142312011Y-89865011D02*
X142312011Y-86235013D01*
X141986000Y-90191022D02*
X142312011Y-89865011D01*
X141986000Y-93726000D02*
X141986000Y-90191022D01*
X142022999Y-57621001D02*
X142494000Y-57150000D01*
X142494000Y-57150000D02*
X142494000Y-56896000D01*
X186944000Y-43942000D02*
X186944000Y-56896000D01*
X186944000Y-56896000D02*
X186944000Y-56896000D01*
X142494000Y-56896000D02*
X142494000Y-56896000D01*
%TO.N,Net-(IC1-Pad22)*%
X113174999Y-82186999D02*
X113538000Y-82550000D01*
X113174999Y-62959999D02*
X113174999Y-82186999D01*
X114190990Y-61944008D02*
X113174999Y-62959999D01*
X115316000Y-55153980D02*
X114190990Y-56278990D01*
X115316000Y-51308000D02*
X115316000Y-55153980D01*
X114190990Y-56278990D02*
X114190990Y-61944008D01*
%TO.N,~IORQ*%
X165289001Y-28129001D02*
X165289001Y-39688999D01*
X164084000Y-40894000D02*
X164084000Y-43942000D01*
X165289001Y-39688999D02*
X164084000Y-40894000D01*
X123698000Y-97790000D02*
X123698000Y-91440000D01*
X123698000Y-91440000D02*
X123698000Y-91440000D01*
X139954000Y-91440000D02*
X139554001Y-91040001D01*
X139954000Y-48514000D02*
X139554001Y-48913999D01*
X139954000Y-44958000D02*
X139954000Y-47752000D01*
X139554001Y-91040001D02*
X139554001Y-48913999D01*
X164084000Y-43942000D02*
X164084000Y-47752000D01*
X164084000Y-47752000D02*
X164084000Y-47752000D01*
X139954000Y-47752000D02*
X139954000Y-48514000D01*
%TO.N,Net-(IC1-Pad11)*%
X125112990Y-96664990D02*
X126238000Y-97790000D01*
X125112990Y-81684006D02*
X125112990Y-96664990D01*
X125585010Y-81211986D02*
X125112990Y-81684006D01*
X125585010Y-51925010D02*
X125585010Y-81211986D01*
X124460000Y-50800000D02*
X125585010Y-51925010D01*
%TO.N,~INT*%
X164084000Y-59182000D02*
X164084000Y-61722000D01*
X164084000Y-61722000D02*
X164084000Y-61722000D01*
X177909010Y-68342580D02*
X177100795Y-69150795D01*
X177909010Y-61866990D02*
X177909010Y-68342580D01*
X178271001Y-61504999D02*
X177909010Y-61866990D01*
X177100795Y-69150795D02*
X177038000Y-69213590D01*
X197104000Y-65278000D02*
X197104000Y-69088000D01*
X197104000Y-69088000D02*
X197104000Y-69088000D01*
X146048990Y-93705986D02*
X146048990Y-99315010D01*
X144780000Y-75053000D02*
X144780000Y-92436996D01*
X145288000Y-74545000D02*
X144780000Y-75053000D01*
X145288000Y-70358000D02*
X145288000Y-74545000D01*
X145869998Y-69776002D02*
X145288000Y-70358000D01*
X144780000Y-92436996D02*
X146048990Y-93705986D01*
X145869998Y-67695000D02*
X145869998Y-69776002D01*
X145580991Y-65570991D02*
X145580993Y-67405995D01*
X145288000Y-65278000D02*
X145580991Y-65570991D01*
X145580993Y-67405995D02*
X145869998Y-67695000D01*
X145288000Y-62230000D02*
X145288000Y-65278000D01*
%TO.N,DB1*%
X202184000Y-80518000D02*
X202184000Y-71628000D01*
X152348980Y-59707020D02*
X152348980Y-69290980D01*
X152874000Y-59182000D02*
X152348980Y-59707020D01*
X153924000Y-59182000D02*
X152874000Y-59182000D01*
X152348980Y-69290980D02*
X153162000Y-70104000D01*
X153162000Y-70104000D02*
X153162000Y-71374000D01*
X202184000Y-71628000D02*
X202184000Y-71628000D01*
X153162000Y-71374000D02*
X153162000Y-71374000D01*
X170289001Y-20847001D02*
X170289001Y-48623001D01*
X170289001Y-48623001D02*
X170180000Y-48732002D01*
X170180000Y-48732002D02*
X170180000Y-48768000D01*
X153924000Y-59182000D02*
X153924000Y-49784000D01*
X153924000Y-49784000D02*
X153924000Y-49784000D01*
X170180000Y-48768000D02*
X170180000Y-48768000D01*
X152798999Y-72302686D02*
X152798999Y-84472999D01*
X153162000Y-71939685D02*
X152798999Y-72302686D01*
X153162000Y-71374000D02*
X153162000Y-71939685D01*
X152798999Y-84472999D02*
X152798999Y-84472999D01*
%TO.N,Net-(IC1-Pad13)*%
X170289010Y-60307010D02*
X169164000Y-59182000D01*
X170289010Y-66657010D02*
X170289010Y-60307010D01*
X169839000Y-67107020D02*
X170289010Y-66657010D01*
X169839000Y-75438000D02*
X169839000Y-75438000D01*
X169839000Y-75438000D02*
X169839000Y-67107020D01*
X165462001Y-76091999D02*
X165462001Y-93871999D01*
X165862000Y-75692000D02*
X165462001Y-76091999D01*
X165462001Y-93871999D02*
X165462001Y-93871999D01*
X145142001Y-93871999D02*
X145142001Y-100729999D01*
X131318000Y-97790000D02*
X131318000Y-100584000D01*
X131318000Y-100584000D02*
X131572000Y-100584000D01*
X145142001Y-100729999D02*
X145142001Y-100729999D01*
X131318000Y-100584000D02*
X131318000Y-100584000D01*
%TO.N,DB2*%
X153924000Y-69342000D02*
X153924000Y-80518000D01*
X152798990Y-62892012D02*
X152798990Y-68216990D01*
X155338990Y-60352012D02*
X152798990Y-62892012D01*
X155338990Y-47607010D02*
X155338990Y-60352012D01*
X152798990Y-68216990D02*
X153924000Y-69342000D01*
X156464000Y-46482000D02*
X155338990Y-47607010D01*
X156464000Y-43942000D02*
X156464000Y-46482000D01*
X171704000Y-28702000D02*
X171704000Y-35306000D01*
X156464000Y-43942000D02*
X156464000Y-35560000D01*
X156464000Y-35560000D02*
X156464000Y-35560000D01*
X171704000Y-35306000D02*
X171704000Y-35560000D01*
X153924000Y-80518000D02*
X153924000Y-88138000D01*
X153924000Y-88138000D02*
X153924000Y-88138000D01*
X103378000Y-82550000D02*
X103378000Y-88138000D01*
X103378000Y-88138000D02*
X103378000Y-88138000D01*
%TO.N,~M1*%
X134983010Y-83456990D02*
X134983010Y-77579010D01*
X133858000Y-84582000D02*
X134983010Y-83456990D01*
X133858000Y-97790000D02*
X133858000Y-84582000D01*
X134983010Y-77579010D02*
X134874000Y-77470000D01*
X133494990Y-51925010D02*
X134620000Y-50800000D01*
X133494990Y-76090990D02*
X133494990Y-51925010D01*
X134983010Y-77579010D02*
X133494990Y-76090990D01*
X171704000Y-51308000D02*
X171450000Y-51054000D01*
X171704000Y-59182000D02*
X171704000Y-51308000D01*
X134112000Y-40894000D02*
X133539001Y-41466999D01*
X134112000Y-39116000D02*
X134112000Y-40894000D01*
X133539001Y-49719001D02*
X134620000Y-50800000D01*
X133539001Y-38543001D02*
X134112000Y-39116000D01*
X133539001Y-41466999D02*
X133539001Y-49719001D01*
X133539001Y-26988999D02*
X133539001Y-38543001D01*
X132789001Y-26238999D02*
X133539001Y-26988999D01*
X132789001Y-20847001D02*
X132789001Y-26238999D01*
%TO.N,DB3*%
X153924000Y-65278000D02*
X153924000Y-63754000D01*
X156464000Y-61214000D02*
X156464000Y-59182000D01*
X153924000Y-63754000D02*
X156464000Y-61214000D01*
X100838000Y-82550000D02*
X100838000Y-76962000D01*
X173118990Y-43324990D02*
X173118990Y-54973010D01*
X172789001Y-42995001D02*
X173118990Y-43324990D01*
X172789001Y-20847001D02*
X172789001Y-42995001D01*
X156464000Y-59182000D02*
X156464000Y-55118000D01*
X156464000Y-55118000D02*
X156464000Y-55118000D01*
X173118990Y-54973010D02*
X173118990Y-55008990D01*
X100838000Y-76962000D02*
X100838000Y-76962000D01*
X155194000Y-76962000D02*
X155194000Y-68326000D01*
X153924000Y-67056000D02*
X153924000Y-65278000D01*
X155194000Y-68326000D02*
X153924000Y-67056000D01*
%TO.N,Net-(IC2-Pad23)*%
X195689010Y-45356990D02*
X195689010Y-113174990D01*
X197104000Y-43942000D02*
X195689010Y-45356990D01*
X195689010Y-113174990D02*
X195689010Y-113174990D01*
X195689010Y-113174990D02*
X195580000Y-113284000D01*
%TO.N,Net-(IC2-Pad25)*%
X184658000Y-107655004D02*
X185928000Y-106385004D01*
X184658000Y-113284000D02*
X184658000Y-107655004D01*
X185928000Y-106385004D02*
X185928000Y-94488000D01*
X185928000Y-94488000D02*
X185928000Y-94488000D01*
X203708000Y-61156998D02*
X203962000Y-60902998D01*
X203708000Y-94488000D02*
X203708000Y-61156998D01*
X203962000Y-60902998D02*
X203962000Y-46228000D01*
X192024000Y-43942000D02*
X192024000Y-45720000D01*
X192024000Y-45720000D02*
X192024000Y-46228000D01*
X192024000Y-46228000D02*
X192024000Y-46228000D01*
X203962000Y-46228000D02*
X203962000Y-46228000D01*
%TO.N,Net-(IC2-Pad6)*%
X198518990Y-64152990D02*
X198518990Y-55735010D01*
X199644000Y-65278000D02*
X198518990Y-64152990D01*
X166624000Y-59182000D02*
X166624000Y-55880000D01*
X166624000Y-55880000D02*
X166624000Y-55626000D01*
X198518990Y-55735010D02*
X198518990Y-55735010D01*
%TO.N,Net-(IC2-Pad26)*%
X182118000Y-113284000D02*
X182118000Y-115570000D01*
X182118000Y-115570000D02*
X182118000Y-115570000D01*
X188358990Y-115679010D02*
X188358990Y-115714990D01*
X188358990Y-45067010D02*
X189484000Y-43942000D01*
X188358990Y-61577010D02*
X188358990Y-45067010D01*
X187960000Y-61976000D02*
X188358990Y-61577010D01*
X187960000Y-63754000D02*
X187960000Y-61976000D01*
X188358990Y-64152990D02*
X187960000Y-63754000D01*
X188358990Y-115679010D02*
X188358990Y-64152990D01*
%TO.N,Net-(IC2-Pad28)*%
X183243010Y-45102990D02*
X183243010Y-116187010D01*
X184404000Y-43942000D02*
X183243010Y-45102990D01*
X179578000Y-113284000D02*
X179578000Y-116078000D01*
X183243010Y-116187010D02*
X183243010Y-116187010D01*
X179578000Y-116078000D02*
X179578000Y-116078000D01*
%TO.N,Net-(IC2-Pad12)*%
X179578000Y-96594000D02*
X180738990Y-95433010D01*
X180738990Y-95433010D02*
X180738990Y-62847010D01*
X179578000Y-98044000D02*
X179578000Y-96594000D01*
X181864000Y-61722000D02*
X181864000Y-59182000D01*
X180738990Y-62847010D02*
X181864000Y-61722000D01*
%TO.N,Net-(IC2-Pad15)*%
X182118000Y-98044000D02*
X182118000Y-90424000D01*
X182118000Y-90424000D02*
X182118000Y-89916000D01*
X182118000Y-89916000D02*
X182118000Y-89916000D01*
X190609010Y-89517010D02*
X190754000Y-89662000D01*
X189484000Y-61757980D02*
X190609010Y-62882990D01*
X189484000Y-59182000D02*
X189484000Y-61757980D01*
X190609010Y-62882990D02*
X190609010Y-89517010D01*
%TO.N,Net-(IC2-Pad35)*%
X129794000Y-37338000D02*
X129794000Y-31496000D01*
X166624000Y-43942000D02*
X166624000Y-34290000D01*
X166624000Y-34290000D02*
X166624000Y-34290000D01*
X129794000Y-31496000D02*
X129794000Y-31496000D01*
X155956000Y-34290000D02*
X155956000Y-31496000D01*
%TO.N,Net-(IC2-Pad16)*%
X192843990Y-64106986D02*
X193294000Y-64556996D01*
X193294000Y-64556996D02*
X193294000Y-95504000D01*
X184658000Y-98044000D02*
X184658000Y-95504000D01*
X193294000Y-95504000D02*
X193294000Y-95504000D01*
X184658000Y-95504000D02*
X184658000Y-95504000D01*
X192024000Y-60960000D02*
X192843990Y-61779990D01*
X192024000Y-59182000D02*
X192024000Y-60960000D01*
X192843990Y-61779990D02*
X192843990Y-64106986D01*
%TO.N,Net-(IC2-Pad18)*%
X197104000Y-59182000D02*
X197104000Y-61722000D01*
X197104000Y-61722000D02*
X197104000Y-61722000D01*
X204470000Y-61468000D02*
X204470000Y-98044000D01*
X204470000Y-98044000D02*
X204470000Y-98044000D01*
%TO.N,Net-(J2-Pad1)*%
X154355000Y-117425000D02*
X154432000Y-117348000D01*
X154355000Y-117679000D02*
X154355000Y-117425000D01*
X160351000Y-117679000D02*
X160351000Y-84151000D01*
X169164000Y-80518000D02*
X169164000Y-84074000D01*
X169164000Y-84074000D02*
X169164000Y-84074000D01*
X160351000Y-84151000D02*
X160351000Y-84151000D01*
%TO.N,Net-(J2-Pad2)*%
X186944000Y-65278000D02*
X186944000Y-73660000D01*
X186944000Y-73660000D02*
X186944000Y-73914000D01*
X162958990Y-74023010D02*
X162958990Y-116695010D01*
X163322000Y-73660000D02*
X162958990Y-74023010D01*
X162958990Y-116730990D02*
X163068000Y-116840000D01*
X162958990Y-116695010D02*
X162958990Y-116730990D01*
X151585000Y-116639000D02*
X151585000Y-116639000D01*
%TO.N,Net-(J2-Pad3)*%
X184404000Y-65278000D02*
X184404000Y-68072000D01*
X184404000Y-68072000D02*
X184404000Y-68072000D01*
X157589010Y-79900990D02*
X157589010Y-115714990D01*
X157988000Y-79502000D02*
X157589010Y-79900990D01*
X157988000Y-68072000D02*
X157988000Y-79502000D01*
X157589010Y-115714990D02*
X157734000Y-115859980D01*
X157734000Y-115859980D02*
X157734000Y-116078000D01*
X157734000Y-116078000D02*
X157734000Y-116078000D01*
X148815000Y-116107000D02*
X148815000Y-116107000D01*
%TO.N,Net-(J2-Pad4)*%
X181864000Y-65278000D02*
X181864000Y-69596000D01*
X181864000Y-69596000D02*
X181864000Y-70104000D01*
X181864000Y-70104000D02*
X181864000Y-70104000D01*
X155338990Y-79652006D02*
X155338990Y-115206990D01*
X156101999Y-78888997D02*
X155338990Y-79652006D01*
X156101999Y-70503999D02*
X156101999Y-78888997D01*
X155338990Y-115206990D02*
X155448000Y-115316000D01*
X155338990Y-115206990D02*
X155338990Y-115206990D01*
X146045000Y-115321000D02*
X146045000Y-115321000D01*
%TO.N,Net-(J2-Pad5)*%
X179324000Y-65278000D02*
X179324000Y-67564000D01*
X177909010Y-68978990D02*
X177909010Y-85453010D01*
X179324000Y-67564000D02*
X177909010Y-68978990D01*
X177909010Y-85453010D02*
X178054000Y-85598000D01*
X178054000Y-85598000D02*
X178054000Y-85598000D01*
X142748000Y-115316000D02*
X142748000Y-114808000D01*
X143510000Y-86360000D02*
X142748000Y-85598000D01*
X143510000Y-90424000D02*
X143510000Y-86360000D01*
X142748000Y-91186000D02*
X143510000Y-90424000D01*
X142748000Y-115316000D02*
X142748000Y-91186000D01*
%TO.N,Net-(J2-Pad11)*%
X176784000Y-67818000D02*
X175658990Y-68943010D01*
X176784000Y-65278000D02*
X176784000Y-67818000D01*
X175658990Y-68943010D02*
X175658990Y-87012990D01*
X175658990Y-87012990D02*
X175658990Y-87012990D01*
X140505000Y-92368000D02*
X140679001Y-92193999D01*
X140679001Y-92193999D02*
X140679001Y-87120981D01*
X140505000Y-114511000D02*
X140505000Y-92368000D01*
X140679001Y-87120981D02*
X140571010Y-87012990D01*
%TO.N,Net-(J2-Pad12)*%
X174244000Y-65278000D02*
X174244000Y-76708000D01*
X174244000Y-76708000D02*
X174244000Y-76708000D01*
X137735000Y-113351000D02*
X137735000Y-113351000D01*
X137922000Y-113164000D02*
X137735000Y-113351000D01*
X137922000Y-76200000D02*
X137922000Y-113164000D01*
%TO.N,Net-(J2-Pad13)*%
X170289010Y-89517010D02*
X170289010Y-89517010D01*
X134965000Y-112939000D02*
X134965000Y-112867000D01*
X141187011Y-89917009D02*
X141187011Y-112231011D01*
X141587010Y-89517010D02*
X141187011Y-89917009D01*
X141187011Y-112231011D02*
X141732000Y-112776000D01*
X141732000Y-112776000D02*
X141732000Y-112776000D01*
X171232999Y-65749001D02*
X171232999Y-70321001D01*
X171704000Y-65278000D02*
X171232999Y-65749001D01*
X171232999Y-70321001D02*
X170688000Y-70866000D01*
X170688000Y-77688020D02*
X170289010Y-78087010D01*
X170688000Y-70866000D02*
X170688000Y-77688020D01*
X170289010Y-78087010D02*
X170289010Y-89517010D01*
%TO.N,Net-(J2-Pad14)*%
X167749010Y-79941986D02*
X167749010Y-91330990D01*
X167749010Y-91330990D02*
X167749010Y-91330990D01*
X132195000Y-112153000D02*
X132195000Y-112153000D01*
X143981001Y-91403001D02*
X143908990Y-91330990D01*
X143981001Y-112050999D02*
X143981001Y-91403001D01*
X168295498Y-79395498D02*
X168295498Y-77322502D01*
X168295498Y-79395498D02*
X167749010Y-79941986D01*
X168295498Y-77322502D02*
X168402000Y-77216000D01*
X168402000Y-73406000D02*
X169164000Y-72644000D01*
X168402000Y-77216000D02*
X168402000Y-73406000D01*
X169164000Y-65278000D02*
X169164000Y-72644000D01*
%TO.N,Net-(J2-Pad15)*%
X109220000Y-63500000D02*
X109220000Y-69596000D01*
X109220000Y-69596000D02*
X109220000Y-69596000D01*
X171704000Y-69850000D02*
X171958000Y-69596000D01*
X171704000Y-80518000D02*
X171704000Y-69850000D01*
X110532006Y-96264990D02*
X109872990Y-96924006D01*
X109872990Y-96924006D02*
X109872990Y-100474990D01*
X110532006Y-86091004D02*
X110532006Y-96264990D01*
X109619999Y-85178997D02*
X110532006Y-86091004D01*
X109619999Y-69995999D02*
X109619999Y-85178997D01*
X109220000Y-69596000D02*
X109619999Y-69995999D01*
X109872990Y-100474990D02*
X109982000Y-100584000D01*
X109872990Y-100474990D02*
X109872990Y-100474990D01*
X126655000Y-113447000D02*
X126655000Y-113447000D01*
X126655000Y-100528980D02*
X126601010Y-100474990D01*
X126655000Y-113955000D02*
X126655000Y-113447000D01*
%TO.N,Net-(J3-Pad1)*%
X170792999Y-101749001D02*
X174498000Y-98044000D01*
X170792999Y-126376999D02*
X170792999Y-101749001D01*
%TO.N,Net-(J3-Pad2)*%
X165208001Y-127108001D02*
X165208001Y-100475999D01*
X165208001Y-100475999D02*
X168148000Y-97536000D01*
X168148000Y-97536000D02*
X168148000Y-96266000D01*
X177038000Y-98044000D02*
X177038000Y-96266000D01*
X177038000Y-96266000D02*
X177038000Y-96266000D01*
X168148000Y-96266000D02*
X168148000Y-96266000D01*
%TO.N,Net-(J3-Pad4)*%
X187198000Y-108712000D02*
X186072990Y-109837010D01*
X187198000Y-105664000D02*
X187198000Y-108712000D01*
%TO.N,Net-(J3-Pad6)*%
X174498000Y-113284000D02*
X174498000Y-118110000D01*
X174498000Y-118110000D02*
X173228000Y-119380000D01*
X173228000Y-119380000D02*
X173228000Y-119380000D01*
X173482000Y-123190000D02*
X173482000Y-123190000D01*
%TO.N,Net-(J3-Pad7)*%
X175912990Y-114409010D02*
X177038000Y-113284000D01*
X175912990Y-122059974D02*
X175912990Y-114409010D01*
X176282026Y-122429010D02*
X175912990Y-122059974D01*
X176913420Y-122429010D02*
X176282026Y-122429010D01*
X178907000Y-124422590D02*
X176913420Y-122429010D01*
%TO.N,Net-(J3-Pad9)*%
X186540999Y-121561001D02*
X187198000Y-120904000D01*
X186540999Y-125508001D02*
X186540999Y-121561001D01*
X187125999Y-126093001D02*
X186540999Y-125508001D01*
%TO.N,Net-(R1-Pad1)*%
X105156000Y-58928000D02*
X105156000Y-54864000D01*
X95504000Y-45974000D02*
X95504000Y-54610000D01*
X95504000Y-54610000D02*
X95631000Y-54737000D01*
X95631000Y-54737000D02*
X95758000Y-54864000D01*
X105156000Y-54864000D02*
X105156000Y-54864000D01*
%TO.N,Net-(RN1-Pad2)*%
X101600000Y-59944000D02*
X102616000Y-58928000D01*
X101600000Y-63500000D02*
X101600000Y-59944000D01*
X101600000Y-35306000D02*
X101854000Y-35052000D01*
X101600000Y-48514000D02*
X101600000Y-35306000D01*
X101490990Y-48623010D02*
X101600000Y-48514000D01*
X101490990Y-58056990D02*
X101490990Y-48623010D01*
X102362000Y-58928000D02*
X101490990Y-58056990D01*
X102616000Y-58928000D02*
X102362000Y-58928000D01*
X142494000Y-37338000D02*
X142494000Y-35052000D01*
X142494000Y-35052000D02*
X142494000Y-35052000D01*
X101854000Y-35052000D02*
X101854000Y-35052000D01*
%TO.N,Net-(RN1-Pad3)*%
X104140000Y-63246000D02*
X104140000Y-63500000D01*
X104140000Y-63500000D02*
X105410000Y-62230000D01*
X105410000Y-62230000D02*
X105410000Y-61214000D01*
X105410000Y-61214000D02*
X105410000Y-60960000D01*
X100330000Y-61214000D02*
X100330000Y-49276000D01*
%TO.N,Net-(RN1-Pad4)*%
X105881001Y-54065001D02*
X105156000Y-53340000D01*
X105881001Y-56859001D02*
X105881001Y-54065001D01*
X106570990Y-57548990D02*
X105881001Y-56859001D01*
X106570990Y-63390990D02*
X106570990Y-57548990D01*
X105156000Y-53340000D02*
X105156000Y-51308000D01*
X106680000Y-63500000D02*
X106570990Y-63390990D01*
%TO.N,Net-(U1-Pad12)*%
X107696000Y-51308000D02*
X107696000Y-54864000D01*
X117856000Y-51308000D02*
X117856000Y-54864000D01*
X107696000Y-54864000D02*
X107696000Y-54864000D01*
X117856000Y-54864000D02*
X117856000Y-54864000D01*
%TO.N,Net-(U1-Pad3)*%
X122174000Y-37338000D02*
X122174000Y-37084000D01*
X122174000Y-37084000D02*
X122174000Y-34036000D01*
X122174000Y-34036000D02*
X122174000Y-34036000D01*
X111506000Y-54445610D02*
X112522000Y-55461610D01*
X111506000Y-34544000D02*
X111506000Y-54445610D01*
X112522000Y-55461610D02*
X112522000Y-56642000D01*
X107696000Y-58928000D02*
X107696000Y-56642000D01*
X112522000Y-56642000D02*
X112522000Y-56642000D01*
X107696000Y-56642000D02*
X107696000Y-56642000D01*
%TO.N,Net-(U1-Pad5)*%
X113740980Y-52334024D02*
X114046000Y-52029004D01*
X113740980Y-56513020D02*
X113740980Y-52334024D01*
X112776000Y-57478000D02*
X113740980Y-56513020D01*
X112776000Y-58928000D02*
X112776000Y-57478000D01*
X114046000Y-52029004D02*
X114046000Y-40386000D01*
X124714000Y-37338000D02*
X124714000Y-40132000D01*
X124714000Y-40132000D02*
X124460000Y-40386000D01*
X114046000Y-40386000D02*
X114046000Y-40386000D01*
X124460000Y-40386000D02*
X124460000Y-40386000D01*
%TO.N,Net-(U2-Pad13)*%
X145288000Y-44450000D02*
X145288000Y-60960000D01*
X124460000Y-64770000D02*
X124460000Y-67310000D01*
X144562999Y-61881999D02*
X144562999Y-66838999D01*
X145288000Y-61156998D02*
X144562999Y-61881999D01*
X145288000Y-60960000D02*
X145288000Y-61156998D01*
X144562999Y-66838999D02*
X144780000Y-67056000D01*
%TO.N,AB6*%
X134620000Y-72390000D02*
X134620000Y-70866000D01*
X134620000Y-70866000D02*
X134620000Y-70866000D01*
X147789001Y-70827001D02*
X147789001Y-70827001D01*
X147789001Y-31534999D02*
X147789001Y-20847001D01*
X147937000Y-31682998D02*
X147789001Y-31534999D01*
X147937000Y-36897002D02*
X147937000Y-31682998D01*
X147789001Y-37045001D02*
X147937000Y-36897002D01*
X147789001Y-70827001D02*
X147789001Y-37045001D01*
%TO.N,~MAD*%
X123334990Y-21392990D02*
X123334990Y-61866990D01*
X122789001Y-20847001D02*
X123334990Y-21392990D01*
X127000000Y-64770000D02*
X127000000Y-62230000D01*
X127000000Y-62230000D02*
X127000000Y-61976000D01*
X134620000Y-64770000D02*
X134620000Y-62484000D01*
X134620000Y-62484000D02*
X134620000Y-61976000D01*
X123334990Y-61866990D02*
X123334990Y-61866990D01*
X127000000Y-61976000D02*
X127000000Y-61976000D01*
X134620000Y-61976000D02*
X134620000Y-61976000D01*
%TO.N,AB5*%
X132080000Y-72390000D02*
X132080000Y-68072000D01*
X132080000Y-68072000D02*
X132080000Y-68072000D01*
X144743001Y-42258001D02*
X144526000Y-42475002D01*
X144743001Y-39458591D02*
X144743001Y-42258001D01*
X144671999Y-39387589D02*
X144743001Y-39458591D01*
X144671999Y-27069999D02*
X144671999Y-39387589D01*
X144272000Y-26670000D02*
X144671999Y-27069999D01*
X144526000Y-68072000D02*
X144780000Y-68072000D01*
X144526000Y-68072000D02*
X144526000Y-68072000D01*
X144272000Y-59436000D02*
X143960010Y-59747990D01*
X144526000Y-59436000D02*
X144272000Y-59436000D01*
X144526000Y-42475002D02*
X144526000Y-59436000D01*
X143960010Y-67506010D02*
X144526000Y-68072000D01*
X143960010Y-59747990D02*
X143960010Y-67506010D01*
%TO.N,~WR*%
X167789001Y-24097001D02*
X166624000Y-25262002D01*
X167789001Y-20847001D02*
X167789001Y-24097001D01*
X166624000Y-25262002D02*
X166624000Y-33020000D01*
X166624000Y-33020000D02*
X166624000Y-33020000D01*
X129540000Y-64770000D02*
X129540000Y-60706000D01*
X129540000Y-60706000D02*
X129540000Y-60706000D01*
X150368000Y-59944000D02*
X150368000Y-41656000D01*
X150368000Y-41656000D02*
X150368000Y-41656000D01*
X149968001Y-34181999D02*
X150368000Y-33782000D01*
X149968001Y-35979003D02*
X149968001Y-34181999D01*
X150864000Y-36875002D02*
X149968001Y-35979003D01*
X150864000Y-41160000D02*
X150864000Y-36875002D01*
X150368000Y-41656000D02*
X150864000Y-41160000D01*
%TO.N,Net-(U2-Pad4)*%
X129540000Y-72390000D02*
X129540000Y-68072000D01*
X129540000Y-68072000D02*
X129540000Y-68072000D01*
X115714999Y-60520005D02*
X116586000Y-59649004D01*
X115714999Y-67962999D02*
X115714999Y-60520005D01*
X115824000Y-68072000D02*
X115714999Y-67962999D01*
X122174000Y-44958000D02*
X122174000Y-42164000D01*
X116586000Y-43942000D02*
X117094000Y-43434000D01*
X116586000Y-56134000D02*
X116586000Y-43942000D01*
X116586000Y-59649004D02*
X116586000Y-56134000D01*
X116586000Y-56134000D02*
X116586000Y-55880000D01*
X117094000Y-43434000D02*
X117094000Y-42164000D01*
X117094000Y-42164000D02*
X117094000Y-42164000D01*
X122174000Y-42164000D02*
X122174000Y-42164000D01*
%TO.N,Net-(U2-Pad10)*%
X135745010Y-45829010D02*
X135745010Y-62882990D01*
X134874000Y-44958000D02*
X135745010Y-45829010D01*
X135745010Y-62882990D02*
X135745010Y-62882990D01*
%TO.N,AB1*%
X140289001Y-26588999D02*
X140289001Y-32938999D01*
X140289001Y-32938999D02*
X140289001Y-33954999D01*
X140289001Y-33954999D02*
X140208000Y-34036000D01*
X140208000Y-34036000D02*
X140208000Y-34036000D01*
X118618000Y-33274000D02*
X118110000Y-33782000D01*
X118110000Y-33782000D02*
X118110000Y-47752000D01*
X118110000Y-47752000D02*
X118110000Y-47752000D01*
X128414990Y-47896990D02*
X128270000Y-47752000D01*
X128414990Y-70975010D02*
X128414990Y-47896990D01*
X127000000Y-72390000D02*
X128414990Y-70975010D01*
%TO.N,AB0*%
X141079010Y-21637010D02*
X141079010Y-74566990D01*
X140289001Y-20847001D02*
X141079010Y-21637010D01*
X124460000Y-72390000D02*
X124460000Y-74422000D01*
X124460000Y-74422000D02*
X124460000Y-74422000D01*
X141079010Y-74566990D02*
X141079010Y-74566990D01*
%TO.N,Net-(U2-Pad1)*%
X132080000Y-58420000D02*
X132080000Y-55880000D01*
X132080000Y-55880000D02*
X132334000Y-55626000D01*
X149606000Y-69338000D02*
X148842000Y-70102000D01*
X149606000Y-55880000D02*
X149606000Y-69338000D01*
%TO.N,AB8*%
X152789001Y-20847001D02*
X152789001Y-35932999D01*
X152789001Y-35932999D02*
X152789001Y-35932999D01*
X151314010Y-36252010D02*
X151314010Y-43503990D01*
X150994999Y-35932999D02*
X151314010Y-36252010D01*
X151093001Y-55769003D02*
X151093001Y-62012999D01*
X150912999Y-55589001D02*
X151093001Y-55769003D01*
X150912999Y-43905001D02*
X150912999Y-55589001D01*
X151314010Y-43503990D02*
X150912999Y-43905001D01*
X151093001Y-62012999D02*
X150876000Y-62230000D01*
X150876000Y-62230000D02*
X150876000Y-62230000D01*
X121992011Y-58492011D02*
X121920000Y-58420000D01*
X121992011Y-61141989D02*
X121992011Y-58492011D01*
%TO.N,Net-(U3-Pad8)*%
X146031001Y-66783001D02*
X146594999Y-67346999D01*
X146031001Y-51326999D02*
X146031001Y-66783001D01*
X146431000Y-50927000D02*
X146031001Y-51326999D01*
%TO.N,AB9*%
X143619010Y-42584012D02*
X141986000Y-40951002D01*
X143619010Y-45823994D02*
X143619010Y-42584012D01*
X142494000Y-46949004D02*
X143619010Y-45823994D01*
X142494000Y-55880000D02*
X142494000Y-46949004D01*
X141986000Y-40951002D02*
X141986000Y-39878000D01*
X141986000Y-39878000D02*
X141986000Y-39878000D01*
X150114000Y-32061002D02*
X150114000Y-30226000D01*
X149460001Y-32715001D02*
X150114000Y-32061002D01*
X149460001Y-38208001D02*
X149460001Y-32715001D01*
X149860000Y-38608000D02*
X149460001Y-38208001D01*
%TO.N,IEO*%
X162789001Y-20847001D02*
X162789001Y-24867001D01*
X162789001Y-24867001D02*
X164084000Y-26162000D01*
X164084000Y-26162000D02*
X164084000Y-32258000D01*
X164084000Y-32258000D02*
X164084000Y-32258000D01*
X129540000Y-54356000D02*
X129540000Y-54356000D01*
X129540000Y-50800000D02*
X129540000Y-54102000D01*
X129540000Y-54356000D02*
X129540000Y-54102000D01*
X147211999Y-53956001D02*
X147211999Y-33165999D01*
X146812000Y-54356000D02*
X147211999Y-53956001D01*
X147211999Y-33165999D02*
X147066000Y-33020000D01*
X147211999Y-33165999D02*
X147211999Y-33165999D01*
%TO.N,IEI*%
X194564000Y-63754000D02*
X193294000Y-62484000D01*
X194564000Y-65278000D02*
X194564000Y-63754000D01*
X193294000Y-62484000D02*
X193294000Y-39624000D01*
X162789001Y-29947001D02*
X162789001Y-39853001D01*
X162789001Y-39853001D02*
X162814000Y-39878000D01*
X162789001Y-39853001D02*
X162789001Y-39853001D01*
X149642999Y-40349001D02*
X149642999Y-54573001D01*
X150138999Y-39853001D02*
X149642999Y-40349001D01*
X149642999Y-54573001D02*
X149606000Y-54610000D01*
X127000000Y-50800000D02*
X127000000Y-54610000D01*
X149606000Y-54610000D02*
X149606000Y-54610000D01*
X127000000Y-54610000D02*
X127000000Y-54610000D01*
%TO.N,Net-(U3-Pad6)*%
X119634000Y-44958000D02*
X119634000Y-56134000D01*
X119888000Y-56134000D02*
X119634000Y-56134000D01*
X134620000Y-58420000D02*
X134620000Y-56134000D01*
X134620000Y-56134000D02*
X134620000Y-56134000D01*
X119634000Y-56134000D02*
X119634000Y-56134000D01*
%TO.N,Net-(U4-Pad4)*%
X161544000Y-80518000D02*
X161544000Y-73660000D01*
X161544000Y-73660000D02*
X161544000Y-73660000D01*
X143510000Y-73406000D02*
X143510000Y-49784000D01*
X143510000Y-49784000D02*
X143510000Y-49530000D01*
X146304000Y-38864020D02*
X146302990Y-38863010D01*
X146304000Y-49784000D02*
X146304000Y-38864020D01*
%TO.N,AB2*%
X124714000Y-44958000D02*
X124714000Y-42164000D01*
X124714000Y-42164000D02*
X124714000Y-41910000D01*
X144018000Y-41910000D02*
X144018000Y-41910000D01*
X124714000Y-41910000D02*
X124714000Y-41910000D01*
X144018000Y-31242000D02*
X142789001Y-30013001D01*
X142789001Y-30013001D02*
X142789001Y-20847001D01*
X144018000Y-41910000D02*
X144272000Y-41656000D01*
X144272000Y-39624000D02*
X144069020Y-39421020D01*
X144272000Y-41656000D02*
X144272000Y-39624000D01*
X144069020Y-34595020D02*
X144018000Y-34544000D01*
X144069020Y-39421020D02*
X144069020Y-34595020D01*
X144018000Y-34544000D02*
X144018000Y-31242000D01*
%TO.N,MEI*%
X128524000Y-33274000D02*
X128524000Y-40386000D01*
X137414000Y-37338000D02*
X137414000Y-40132000D01*
X128524000Y-40386000D02*
X128524000Y-40386000D01*
X137414000Y-40132000D02*
X137414000Y-40132000D01*
X128524000Y-26924000D02*
X128778000Y-26670000D01*
X128524000Y-33274000D02*
X128524000Y-26924000D01*
%TO.N,AB3*%
X141986000Y-27432000D02*
X141986000Y-30988000D01*
X141986000Y-30988000D02*
X143256000Y-32258000D01*
X143256000Y-32258000D02*
X143256000Y-34544000D01*
X143619010Y-36472006D02*
X143619010Y-40276990D01*
X143256000Y-36108996D02*
X143619010Y-36472006D01*
X143256000Y-34544000D02*
X143256000Y-36108996D01*
X143619010Y-40276990D02*
X143256000Y-40640000D01*
X143256000Y-40640000D02*
X143256000Y-40640000D01*
X127254000Y-44958000D02*
X127254000Y-40894000D01*
%TO.N,MEO*%
X127789001Y-20847001D02*
X127789001Y-34516999D01*
X127789001Y-34516999D02*
X127762000Y-34544000D01*
X134874000Y-37338000D02*
X134874000Y-34544000D01*
X134874000Y-34544000D02*
X134874000Y-34544000D01*
X127762000Y-34544000D02*
X127762000Y-34544000D01*
%TO.N,AB4*%
X145289001Y-20847001D02*
X145289001Y-42924999D01*
X129794000Y-44958000D02*
X129794000Y-43180000D01*
X129794000Y-43180000D02*
X129921000Y-43053000D01*
X129921000Y-43053000D02*
X130048000Y-42926000D01*
X145289001Y-42924999D02*
X145289001Y-42924999D01*
%TO.N,AB7*%
X132334000Y-44958000D02*
X132842000Y-44450000D01*
X132842000Y-44450000D02*
X132842000Y-39878000D01*
X133088991Y-39878000D02*
X133088991Y-39878000D01*
X133088991Y-39878000D02*
X132842000Y-39878000D01*
X130919010Y-39514990D02*
X130919010Y-30878990D01*
X130810000Y-39624000D02*
X130919010Y-39514990D01*
X130919010Y-30878990D02*
X131064000Y-30734000D01*
X131064000Y-30734000D02*
X131064000Y-30480000D01*
X131064000Y-30480000D02*
X131064000Y-30480000D01*
X146304000Y-28194000D02*
X146812000Y-27686000D01*
X146304000Y-30480000D02*
X146304000Y-28194000D01*
%TO.N,~BI*%
X125839010Y-28195010D02*
X125839010Y-40749010D01*
X125276000Y-27632000D02*
X125839010Y-28195010D01*
X125839010Y-40749010D02*
X126238000Y-41148000D01*
X126238000Y-41148000D02*
X126238000Y-42926000D01*
X126238000Y-42926000D02*
X126238000Y-42926000D01*
%TO.N,Net-(J2-Pad15)*%
X142986000Y-132230000D02*
X141478000Y-130722000D01*
X141478000Y-130722000D02*
X141478000Y-121666000D01*
X126655000Y-113193000D02*
X126655000Y-121575000D01*
X126655000Y-113955000D02*
X126655000Y-113193000D01*
X126655000Y-113193000D02*
X126655000Y-100528980D01*
X126655000Y-121575000D02*
X126655000Y-121575000D01*
X141478000Y-121666000D02*
X141478000Y-121666000D01*
%TO.N,Net-(J2-Pad14)*%
X132195000Y-112153000D02*
X132195000Y-135497000D01*
X145276000Y-132230000D02*
X145276000Y-135624000D01*
X132195000Y-135497000D02*
X132195000Y-135497000D01*
X145276000Y-135624000D02*
X145276000Y-135624000D01*
%TO.N,Net-(J2-Pad13)*%
X134965000Y-112939000D02*
X134965000Y-124623000D01*
X147566000Y-132230000D02*
X147566000Y-135120000D01*
X134965000Y-124623000D02*
X134965000Y-124623000D01*
X147566000Y-135120000D02*
X147566000Y-135120000D01*
X139192000Y-124714000D02*
X139101000Y-124623000D01*
X139192000Y-134620000D02*
X139192000Y-124714000D01*
%TO.N,Net-(J2-Pad12)*%
X137922000Y-113164000D02*
X137922000Y-133858000D01*
X149856000Y-132230000D02*
X149856000Y-133854000D01*
X137922000Y-133858000D02*
X137922000Y-133858000D01*
X149856000Y-133854000D02*
X149856000Y-133854000D01*
%TO.N,Net-(J2-Pad11)*%
X152146000Y-132230000D02*
X152146000Y-134366000D01*
X140505000Y-114343000D02*
X140505000Y-134323000D01*
X140505000Y-114511000D02*
X140505000Y-114343000D01*
X140505000Y-114343000D02*
X140505000Y-114089000D01*
X140505000Y-134323000D02*
X140505000Y-134323000D01*
X152146000Y-134366000D02*
X152146000Y-134366000D01*
%TO.N,Net-(J2-Pad5)*%
X142748000Y-128032000D02*
X142986000Y-128270000D01*
X142748000Y-115316000D02*
X142748000Y-128032000D01*
%TO.N,Net-(J2-Pad4)*%
X146045000Y-127501000D02*
X145276000Y-128270000D01*
X146045000Y-115321000D02*
X146045000Y-127501000D01*
%TO.N,Net-(J2-Pad3)*%
X148815000Y-127021000D02*
X147566000Y-128270000D01*
X148815000Y-116107000D02*
X148815000Y-127021000D01*
%TO.N,Net-(J2-Pad2)*%
X151585000Y-116639000D02*
X151130000Y-117094000D01*
X151130000Y-117094000D02*
X151130000Y-120142000D01*
X149856000Y-121416000D02*
X149856000Y-128270000D01*
X151130000Y-120142000D02*
X149856000Y-121416000D01*
%TO.N,Net-(J2-Pad1)*%
X154355000Y-126061000D02*
X152146000Y-128270000D01*
X154355000Y-117679000D02*
X154355000Y-126061000D01*
%TO.N,Net-(J3-Pad9)*%
X175979000Y-132380000D02*
X175979000Y-127805000D01*
X187125999Y-126093001D02*
X187125999Y-127689999D01*
X187198000Y-127762000D02*
X187198000Y-127762000D01*
X187198000Y-127762000D02*
X187125999Y-127689999D01*
X175979000Y-127805000D02*
X175979000Y-127805000D01*
%TO.N,Net-(J3-Pad8)*%
X183965001Y-121596999D02*
X184658000Y-120904000D01*
X183965001Y-125291001D02*
X183965001Y-121596999D01*
X184150000Y-125476000D02*
X183965001Y-125291001D01*
X184150000Y-128270000D02*
X184150000Y-125476000D01*
%TO.N,Net-(J3-Pad7)*%
X178907000Y-130899370D02*
X178907000Y-124422590D01*
X180387630Y-132380000D02*
X178907000Y-130899370D01*
X181519000Y-132380000D02*
X180387630Y-132380000D01*
%TO.N,Net-(J3-Pad6)*%
X173043001Y-123628999D02*
X173043001Y-133788999D01*
X173482000Y-123190000D02*
X173043001Y-123628999D01*
X173043001Y-133788999D02*
X172974000Y-133858000D01*
X184289000Y-132380000D02*
X184289000Y-133743000D01*
X184289000Y-133743000D02*
X184289000Y-133743000D01*
X173043001Y-133788999D02*
X173043001Y-133788999D01*
%TO.N,Net-(J3-Pad4)*%
X177349990Y-129554010D02*
X177349990Y-135947990D01*
X177364000Y-129540000D02*
X177349990Y-129554010D01*
X188791001Y-120505997D02*
X188791001Y-136074999D01*
X186072990Y-117787986D02*
X188791001Y-120505997D01*
X186072990Y-114155010D02*
X186072990Y-117787986D01*
X186072990Y-114430032D02*
X186072990Y-114155010D01*
X186072990Y-114155010D02*
X186072990Y-109837010D01*
X177349990Y-135947990D02*
X177349990Y-135947990D01*
X188791001Y-136074999D02*
X188791001Y-136074999D01*
%TO.N,Net-(J3-Pad3)*%
X180992990Y-118219010D02*
X181356000Y-117856000D01*
X180992990Y-121810990D02*
X180992990Y-118219010D01*
X181465001Y-122283001D02*
X180992990Y-121810990D01*
X181465001Y-128208999D02*
X181465001Y-122283001D01*
X180134000Y-129540000D02*
X181465001Y-128208999D01*
%TO.N,Net-(J3-Pad2)*%
X165208001Y-127108001D02*
X165208001Y-134982001D01*
X165208001Y-134982001D02*
X165354000Y-135128000D01*
X165354000Y-135128000D02*
X165354000Y-135636000D01*
X182904000Y-129540000D02*
X182904000Y-135406000D01*
X182904000Y-135406000D02*
X183134000Y-135636000D01*
X183134000Y-135636000D02*
X183134000Y-135636000D01*
X165354000Y-135636000D02*
X165354000Y-135636000D01*
%TO.N,Net-(J3-Pad1)*%
X170792999Y-126376999D02*
X170792999Y-134515001D01*
X185674000Y-129540000D02*
X185674000Y-134620000D01*
X170792999Y-134515001D02*
X170792999Y-134515001D01*
X185674000Y-134620000D02*
X185674000Y-134620000D01*
%TO.N,Net-(RN1-Pad6)*%
X110236000Y-61976000D02*
X110236000Y-58928000D01*
X111760000Y-63500000D02*
X110236000Y-61976000D01*
%TO.N,Net-(J4-Pad9)*%
X174244000Y-80518000D02*
X174244000Y-91948000D01*
X174244000Y-91948000D02*
X174244000Y-91948000D01*
X149540001Y-114308997D02*
X147828000Y-116020998D01*
X149540001Y-92605983D02*
X149540001Y-114308997D01*
X148990009Y-92055991D02*
X149540001Y-92605983D01*
X119634000Y-117602000D02*
X119634000Y-118872000D01*
X120433001Y-131612001D02*
X120693000Y-131872000D01*
X120433001Y-119671001D02*
X120433001Y-121882999D01*
X119634000Y-118872000D02*
X120433001Y-119671001D01*
X120433001Y-121882999D02*
X120433001Y-131612001D01*
X119634000Y-117602000D02*
X119634000Y-115316000D01*
X119634000Y-115316000D02*
X119634000Y-115316000D01*
X147828000Y-116020998D02*
X147828000Y-116332000D01*
X147828000Y-116332000D02*
X147828000Y-116332000D01*
%TO.N,Net-(J4-Pad6)*%
X118364000Y-118872000D02*
X117094000Y-117602000D01*
X176784000Y-80518000D02*
X176784000Y-90424000D01*
X176784000Y-90424000D02*
X176784000Y-90424000D01*
X118364000Y-120650000D02*
X118364000Y-118872000D01*
X146812000Y-94430998D02*
X146812000Y-90424000D01*
X146812000Y-120904000D02*
X146812000Y-94430998D01*
X112383000Y-131872000D02*
X112383000Y-122543000D01*
X112383000Y-122543000D02*
X111760000Y-121920000D01*
X111760000Y-121920000D02*
X111760000Y-120904000D01*
X111760000Y-120904000D02*
X111760000Y-120904000D01*
%TO.N,Net-(J4-Pad4)*%
X115824000Y-118872000D02*
X115824000Y-118872000D01*
X181864000Y-80518000D02*
X181864000Y-86106000D01*
X181864000Y-86106000D02*
X181864000Y-86360000D01*
X181392999Y-96777997D02*
X180848000Y-97322996D01*
X181392999Y-86577001D02*
X181392999Y-96777997D01*
X181864000Y-86106000D02*
X181392999Y-86577001D01*
X180848000Y-97322996D02*
X180848000Y-103632000D01*
X180848000Y-103632000D02*
X180848000Y-103632000D01*
X115824000Y-118872000D02*
X114554000Y-117602000D01*
X152654000Y-107442000D02*
X152654000Y-118872000D01*
X119308000Y-129032000D02*
X119308000Y-121992000D01*
X115824000Y-118872000D02*
X115824000Y-121666000D01*
X115824000Y-121666000D02*
X115824000Y-121920000D01*
X115824000Y-121920000D02*
X115824000Y-121920000D01*
X119308000Y-121992000D02*
X119308000Y-121992000D01*
%TO.N,Net-(J4-Pad3)*%
X112268000Y-117602000D02*
X112014000Y-117602000D01*
X184404000Y-80518000D02*
X184404000Y-93472000D01*
X184404000Y-93472000D02*
X184404000Y-93472000D01*
X114427000Y-119761000D02*
X112268000Y-117602000D01*
X147574000Y-94742000D02*
X147574000Y-113538000D01*
X147574000Y-113538000D02*
X147955000Y-113919000D01*
X149860000Y-119888000D02*
X149860000Y-115316000D01*
X149860000Y-115316000D02*
X150622000Y-114554000D01*
X150622000Y-114554000D02*
X150622000Y-114046000D01*
X147955000Y-113919000D02*
X148082000Y-114046000D01*
X150622000Y-114046000D02*
X150622000Y-114046000D01*
X114427000Y-119761000D02*
X114427000Y-126111000D01*
X116538000Y-129032000D02*
X116538000Y-126286000D01*
X116538000Y-126286000D02*
X116586000Y-126238000D01*
X114427000Y-126111000D02*
X114427000Y-126111000D01*
X116586000Y-126238000D02*
X116586000Y-126238000D01*
%TO.N,Net-(J4-Pad2)*%
X186944000Y-80518000D02*
X186944000Y-84582000D01*
X186944000Y-84582000D02*
X186944000Y-84582000D01*
X153198999Y-96048999D02*
X153198999Y-96048999D01*
X156504001Y-84876001D02*
X156504001Y-95971999D01*
X156504001Y-95971999D02*
X156504001Y-95971999D01*
X153198999Y-106208999D02*
X153198999Y-96048999D01*
X153379001Y-106389001D02*
X153198999Y-106208999D01*
X153379001Y-107790001D02*
X153379001Y-106389001D01*
X153198999Y-107970003D02*
X153379001Y-107790001D01*
X153198999Y-117163001D02*
X153198999Y-107970003D01*
X153399999Y-117364001D02*
X153198999Y-117163001D01*
X113768000Y-129032000D02*
X113768000Y-127484000D01*
X113768000Y-127484000D02*
X113030000Y-126746000D01*
X113030000Y-126746000D02*
X113030000Y-122936000D01*
X113030000Y-122936000D02*
X113030000Y-120142000D01*
X113030000Y-120142000D02*
X113030000Y-120142000D01*
X111252000Y-119380000D02*
X109474000Y-117602000D01*
X111252000Y-119888000D02*
X111252000Y-119380000D01*
%TO.N,Net-(J4-Pad1)*%
X189484000Y-80518000D02*
X189484000Y-100330000D01*
X189484000Y-100330000D02*
X189484000Y-100330000D01*
X151638000Y-102362000D02*
X151638000Y-113030000D01*
X151638000Y-113030000D02*
X151638000Y-113030000D01*
X106934000Y-117602000D02*
X106934000Y-114808000D01*
X106934000Y-114808000D02*
X106934000Y-114808000D01*
X110998000Y-129032000D02*
X110998000Y-122936000D01*
X110998000Y-122936000D02*
X110236000Y-122174000D01*
X110236000Y-122174000D02*
X110236000Y-119888000D01*
X106934000Y-117602000D02*
X106934000Y-119888000D01*
X106934000Y-119888000D02*
X106934000Y-119888000D01*
X110236000Y-119888000D02*
X110236000Y-119888000D01*
%TD*%
M02*
