%FSLAX45Y45*%
G04 Gerber Fmt 4.5, Leading zero omitted, Abs format (unit mm)*
G04 Created by KiCad (PCBNEW (5.1.10)-1) date 2025-03-03 19:14:49*
%MOMM*%
%LPD*%
G01*
G04 APERTURE LIST*
%TA.AperFunction,Profile*%
%ADD10C,0.050000*%
%TD*%
%ADD11C,0.200000*%
%ADD12C,0.300000*%
G04 APERTURE END LIST*
D10*
X16247412Y-13665200D02*
G75*
G03*
X16247412Y-13665200I-296212J0D01*
G01*
X16224766Y-5080000D02*
G75*
G03*
X16224766Y-5080000I-273566J0D01*
G01*
X7167830Y-5080000D02*
G75*
G03*
X7167830Y-5080000I-259030J0D01*
G01*
X5524500Y-4635500D02*
X16510000Y-4635500D01*
X7182366Y-13665200D02*
G75*
G03*
X7182366Y-13665200I-273566J0D01*
G01*
X16510000Y-4635500D02*
X16510000Y-14097000D01*
X16510000Y-14097000D02*
X5524500Y-14097000D01*
X5524500Y-14097000D02*
X5524500Y-4635500D01*
D11*
D12*
X5808428Y-14565214D02*
X5808428Y-14265214D01*
X5879857Y-14265214D01*
X5922714Y-14279500D01*
X5951286Y-14308071D01*
X5965571Y-14336643D01*
X5979857Y-14393786D01*
X5979857Y-14436643D01*
X5965571Y-14493786D01*
X5951286Y-14522357D01*
X5922714Y-14550929D01*
X5879857Y-14565214D01*
X5808428Y-14565214D01*
X6108428Y-14565214D02*
X6108428Y-14365214D01*
X6108428Y-14422357D02*
X6122714Y-14393786D01*
X6137000Y-14379500D01*
X6165571Y-14365214D01*
X6194143Y-14365214D01*
X6294143Y-14565214D02*
X6294143Y-14365214D01*
X6294143Y-14265214D02*
X6279857Y-14279500D01*
X6294143Y-14293786D01*
X6308428Y-14279500D01*
X6294143Y-14265214D01*
X6294143Y-14293786D01*
X6479857Y-14565214D02*
X6451286Y-14550929D01*
X6437000Y-14522357D01*
X6437000Y-14265214D01*
X6637000Y-14565214D02*
X6608428Y-14550929D01*
X6594143Y-14522357D01*
X6594143Y-14265214D01*
X6979857Y-14565214D02*
X6979857Y-14265214D01*
X7079857Y-14479500D01*
X7179857Y-14265214D01*
X7179857Y-14565214D01*
X7451286Y-14565214D02*
X7451286Y-14408071D01*
X7437000Y-14379500D01*
X7408428Y-14365214D01*
X7351286Y-14365214D01*
X7322714Y-14379500D01*
X7451286Y-14550929D02*
X7422714Y-14565214D01*
X7351286Y-14565214D01*
X7322714Y-14550929D01*
X7308428Y-14522357D01*
X7308428Y-14493786D01*
X7322714Y-14465214D01*
X7351286Y-14450929D01*
X7422714Y-14450929D01*
X7451286Y-14436643D01*
X7594143Y-14365214D02*
X7594143Y-14665214D01*
X7594143Y-14379500D02*
X7622714Y-14365214D01*
X7679857Y-14365214D01*
X7708428Y-14379500D01*
X7722714Y-14393786D01*
X7737000Y-14422357D01*
X7737000Y-14508071D01*
X7722714Y-14536643D01*
X7708428Y-14550929D01*
X7679857Y-14565214D01*
X7622714Y-14565214D01*
X7594143Y-14550929D01*
X7865571Y-14536643D02*
X7879857Y-14550929D01*
X7865571Y-14565214D01*
X7851286Y-14550929D01*
X7865571Y-14536643D01*
X7865571Y-14565214D01*
X7865571Y-14379500D02*
X7879857Y-14393786D01*
X7865571Y-14408071D01*
X7851286Y-14393786D01*
X7865571Y-14379500D01*
X7865571Y-14408071D01*
M02*
