M48
; DRILL file {KiCad (5.1.10)-1} date 03/03/25 19:14:48
; FORMAT={-:-/ absolute / inch / decimal}
; #@! TF.CreationDate,2025-03-03T19:14:48+01:00
; #@! TF.GenerationSoftware,Kicad,Pcbnew,(5.1.10)-1
; #@! TF.FileFunction,Plated,1,2,PTH
FMAT,2
INCH
T1C0.0157
T2C0.0315
T3C0.0394
T4C0.0630
%
G90
G05
T1
X2.9724Y-3.0512
X2.9724Y-3.9173
X2.99Y-4.51
X2.9921Y-4.1142
X3.01Y-4.33
X3.0118Y-2.9528
X3.0118Y-4.0157
X3.0315Y-2.9134
X3.0315Y-3.2087
X3.0315Y-3.8189
X3.0317Y-2.6283
X3.0512Y-3.1693
X3.0512Y-3.878
X3.0512Y-4.0551
X3.06Y-4.44
X3.07Y-4.23
X3.0874Y-2.6937
X3.0906Y-2.5776
X3.0906Y-2.9724
X3.0906Y-3.9567
X3.1071Y-4.2685
X3.1102Y-3.9961
X3.1152Y-5.1329
X3.1299Y-2.5394
X3.1299Y-2.8937
X3.1299Y-3.248
X3.1299Y-3.7795
X3.1496Y-3.5236
X3.15Y-4.64
X3.1693Y-2.3031
X3.1693Y-2.6969
X3.189Y-3.4252
X3.189Y-3.8189
X3.19Y-4.29
X3.2069Y-4.3669
X3.2283Y-3.3858
X3.2283Y-3.9173
X3.248Y-3.3268
X3.252Y-3.874
X3.2646Y-3.2843
X3.2677Y-2.9331
X3.2677Y-3.1299
X3.2677Y-3.7598
X3.3Y-2.24
X3.3039Y-3.0874
X3.3268Y-3.0315
X3.3268Y-3.6811
X3.363Y-2.989
X3.3661Y-3.5827
X3.3827Y-3.4811
X3.3858Y-3.0315
X3.4252Y-3.4252
X3.4252Y-4.1929
X3.456Y-3.474
X3.47Y-4.56
X3.54Y-3.54
X3.54Y-4.09
X3.7008Y-2.3228
X3.7008Y-4.8992
X3.7992Y-2.4409
X3.7992Y-2.874
X3.82Y-3.17
X3.85Y-4.39
X3.87Y-2.69
X3.87Y-3.67
X4.08Y-2.72
X4.08Y-2.97
X4.08Y-3.02
X4.08Y-3.49
X4.1083Y-3.3717
X4.1083Y-3.6183
X4.1083Y-4.1883
X4.15Y-3.64
X4.15Y-3.92
X4.16Y-3.97
X4.16Y-4.09
X4.17Y-2.76
X4.17Y-2.91
X4.17Y-3.59
X4.17Y-3.82
X4.194Y-3.874
X4.2Y-3.74
X4.26Y-4.01
X4.26Y-4.07
X4.275Y-3.695
X4.28Y-3.49
X4.29Y-2.64
X4.29Y-2.72
X4.33Y-3.42
X4.34Y-2.61
X4.34Y-3.17
X4.37Y-2.69
X4.39Y-3.37
X4.41Y-3.22
X4.42Y-2.68
X4.425Y-3.875
X4.43Y-4.02
X4.45Y-2.61
X4.45Y-2.76
X4.45Y-3.09
X4.46Y-2.82
X4.465Y-4.855
X4.4797Y-3.1297
X4.49Y-3.05
X4.5Y-2.51
X4.51Y-3.18
X4.51Y-4.14
X4.52Y-2.79
X4.535Y-3.945
X4.54Y-3.33
X4.5415Y-3.2185
X4.5594Y-2.5394
X4.5643Y-4.7757
X4.5669Y-2.0131
X4.5691Y-2.4409
X4.57Y-2.72
X4.57Y-3.17
X4.61Y-2.81
X4.61Y-2.91
X4.6185Y-3.2185
X4.62Y-3.31
X4.62Y-3.38
X4.6457Y-4.9843
X4.65Y-2.85
X4.65Y-3.01
X4.65Y-4.92
X4.66Y-2.24
X4.6672Y-2.3228
X4.6785Y-3.4115
X4.6785Y-3.5185
X4.71Y-4.12
X4.71Y-5.08
X4.75Y-5.13
X4.78Y-3.39
X4.78Y-3.62
X4.87Y-2.26
X4.8715Y-3.5215
X4.9Y-3.83
X4.94Y-2.26
X4.97Y-3.35
X4.97Y-3.46
X5.01Y-2.36
X5.01Y-3.49
X5.04Y-2.02
X5.04Y-3.23
X5.06Y-2.52
X5.06Y-2.59
X5.06Y-3.41
X5.06Y-3.55
X5.06Y-4.43
X5.09Y-4.57
X5.1Y-2.91
X5.1343Y-4.4957
X5.14Y-2.74
X5.24Y-2.86
X5.25Y-3.2
X5.27Y-2.26
X5.28Y-4.94
X5.31Y-3.54
X5.3143Y-4.5957
X5.316Y-2.126
X5.316Y-2.494
X5.32Y-3.15
X5.35Y-2.77
X5.35Y-3.84
X5.35Y-5.08
X5.3615Y-3.6885
X5.3685Y-3.3915
X5.3943Y-4.7957
X5.4Y-3.08
X5.42Y-3.2
X5.4263Y-2.9637
X5.4343Y-4.6957
X5.45Y-3.12
X5.46Y-3.72
X5.47Y-4.94
X5.48Y-2.64
X5.49Y-3.35
X5.49Y-3.74
X5.53Y-3.26
X5.53Y-4.14
X5.5671Y-5.1329
X5.62Y-2.59
X5.62Y-3.15
X5.62Y-3.44
X5.62Y-3.64
X5.69Y-3.08
X5.78Y-3.12
T2
X2.6781Y-2.3
X2.6781Y-2.3984
X2.6781Y-2.4969
X2.6781Y-2.5953
X2.6781Y-2.6937
X2.6781Y-2.7921
X2.6781Y-2.8906
X2.6781Y-2.989
X2.6781Y-3.0874
X2.6781Y-3.1858
X2.6781Y-3.2843
X2.6781Y-3.3827
X2.6781Y-3.4811
X2.6781Y-3.5795
X2.6781Y-3.678
X2.6781Y-3.7764
X2.6781Y-3.8748
X2.6781Y-3.9732
X2.6781Y-4.0717
X2.6781Y-4.1701
X2.6781Y-4.2685
X2.6781Y-4.3669
X2.6781Y-4.4654
X2.6781Y-4.5638
X2.6781Y-4.6622
X2.6781Y-4.7606
X2.6781Y-4.8591
X2.6781Y-4.9575
X2.6781Y-5.0559
X2.875Y-2.3
X2.875Y-2.3984
X2.875Y-2.4969
X2.875Y-2.5953
X2.875Y-2.6937
X2.875Y-2.7921
X2.875Y-2.8906
X2.875Y-2.989
X2.875Y-3.0874
X2.875Y-3.1858
X2.875Y-3.2843
X2.875Y-3.3827
X2.875Y-3.4811
X2.875Y-3.5795
X2.875Y-3.678
X2.875Y-3.7764
X2.875Y-3.8748
X2.875Y-3.9732
X2.875Y-4.0717
X2.875Y-4.1701
X2.875Y-4.2685
X2.875Y-4.3669
X2.875Y-4.4654
X2.875Y-4.5638
X2.875Y-4.6622
X2.875Y-4.7606
X2.875Y-4.8591
X2.875Y-4.9575
X2.875Y-5.0559
X3.1102Y-4.9016
X3.2087Y-4.9016
X3.7008Y-2.6969
X3.7008Y-2.874
X3.7008Y-2.974
X3.7008Y-3.074
X3.7008Y-3.174
X3.7008Y-3.274
X3.7008Y-3.374
X3.7008Y-3.474
X3.7008Y-3.574
X3.7008Y-3.674
X3.7008Y-3.774
X3.7008Y-3.874
X3.7008Y-3.974
X3.7992Y-2.6969
X4.0008Y-2.874
X4.0008Y-2.974
X4.0008Y-3.074
X4.0008Y-3.174
X4.0008Y-3.274
X4.0008Y-3.374
X4.0008Y-3.474
X4.0008Y-3.574
X4.0008Y-3.674
X4.0008Y-3.774
X4.0008Y-3.874
X4.0008Y-3.974
X4.37Y-3.62
X4.37Y-3.72
X4.37Y-3.82
X4.37Y-3.92
X4.37Y-4.02
X4.37Y-4.12
X4.37Y-4.22
X4.37Y-4.32
X4.37Y-4.42
X4.37Y-4.52
X4.37Y-4.62
X4.37Y-4.72
X4.37Y-4.82
X4.37Y-4.92
X4.5669Y-2.126
X4.65Y-5.18
X4.6654Y-2.126
X4.7484Y-5.18
X4.9409Y-2.126
X4.97Y-3.62
X4.97Y-3.72
X4.97Y-3.82
X4.97Y-3.92
X4.97Y-4.02
X4.97Y-4.12
X4.97Y-4.22
X4.97Y-4.32
X4.97Y-4.42
X4.97Y-4.52
X4.97Y-4.62
X4.97Y-4.72
X4.97Y-4.82
X4.97Y-4.92
X5.0394Y-2.126
X5.2Y-3.44
X5.2Y-3.54
X5.2Y-3.64
X5.2Y-3.74
X5.2Y-3.84
X5.2Y-3.94
X5.2Y-4.04
X5.2Y-4.14
X5.2Y-4.24
X5.2Y-4.34
X5.2Y-4.44
X5.2Y-4.54
X5.2Y-4.64
X5.2Y-4.74
X5.2Y-4.84
X5.2Y-4.94
X5.42Y-2.49
X5.47Y-5.19
X5.52Y-2.49
X5.5684Y-5.19
X5.62Y-2.49
X5.72Y-2.49
X5.8Y-3.44
X5.8Y-3.54
X5.8Y-3.64
X5.8Y-3.74
X5.8Y-3.84
X5.8Y-3.94
X5.8Y-4.04
X5.8Y-4.14
X5.8Y-4.24
X5.8Y-4.34
X5.8Y-4.44
X5.8Y-4.54
X5.8Y-4.64
X5.8Y-4.74
X5.8Y-4.84
X5.8Y-4.94
X5.82Y-2.49
T3
X2.395Y-2.228
X2.395Y-2.328
X2.395Y-2.428
X2.395Y-2.528
X2.395Y-2.628
X2.395Y-2.728
X2.395Y-2.828
X2.395Y-2.928
X2.395Y-3.028
X2.395Y-3.128
X2.395Y-3.228
X2.395Y-3.328
X2.395Y-3.428
X2.395Y-3.528
X2.395Y-3.628
X2.395Y-3.728
X2.395Y-3.828
X2.395Y-3.928
X2.395Y-4.028
X2.395Y-4.128
X2.395Y-4.228
X2.395Y-4.328
X2.395Y-4.428
X2.395Y-4.528
X2.395Y-4.628
X2.395Y-4.728
X2.395Y-4.828
X2.395Y-4.928
X2.395Y-5.028
X2.595Y-2.228
X2.595Y-2.328
X2.595Y-2.428
X2.595Y-2.528
X2.595Y-2.628
X2.595Y-2.728
X2.595Y-2.828
X2.595Y-2.928
X2.595Y-3.028
X2.595Y-3.128
X2.595Y-3.228
X2.595Y-3.328
X2.595Y-3.428
X2.595Y-3.528
X2.595Y-3.628
X2.595Y-3.728
X2.595Y-3.828
X2.595Y-3.928
X2.595Y-4.028
X2.595Y-4.128
X2.595Y-4.228
X2.595Y-4.328
X2.595Y-4.428
X2.595Y-4.528
X2.595Y-4.628
X2.595Y-4.728
X2.595Y-4.828
X2.595Y-4.928
X2.595Y-5.028
X4.21Y-2.24
X4.31Y-2.24
X4.77Y-2.61
X4.77Y-2.71
X4.77Y-2.81
X4.77Y-2.91
X4.77Y-3.01
X4.77Y-3.11
X4.77Y-3.21
X4.77Y-3.31
X4.87Y-2.61
X4.87Y-2.71
X4.87Y-2.81
X4.87Y-2.91
X4.87Y-3.01
X4.87Y-3.11
X4.87Y-3.21
X4.87Y-3.31
X5.46Y-2.26
X5.46Y-2.36
X5.56Y-2.26
X5.56Y-2.36
X5.76Y-2.26
X5.76Y-2.36
X5.86Y-2.26
X5.86Y-2.36
T4
X2.295Y-1.928
X2.295Y-5.428
X2.3829Y-2.0539
X2.3829Y-5.302
T0
M30
