M48
;DRILL file {KiCad 4.0.1-stable} date 18.02.2016 11:12:12
;FORMAT={3:3/ absolute / metric / suppress leading zeros}
FMAT,2
METRIC,TZ
T1C0.800
T2C1.000
%
G90
G05
M71
T1
X95250Y-91440
X95250Y-93980
X95250Y-96520
X95250Y-101600
X95250Y-104140
X95250Y-106680
X102870Y-93980
X102870Y-104140
X106680Y-90170
X106680Y-93980
X106680Y-104140
X106680Y-106680
X106680Y-109220
X109220Y-90170
X110490Y-93980
X110490Y-104140
X111760Y-106680
X111760Y-109220
X113030Y-90170
X114300Y-93980
X114300Y-104140
X115570Y-90170
X116840Y-106680
X116840Y-109220
X118110Y-90170
X118110Y-93980
X118110Y-104140
X121920Y-88900
X121920Y-109220
X124460Y-88900
X124460Y-109220
X125730Y-99060
X127000Y-88900
X127000Y-109220
X128270Y-99060
X129540Y-88900
X129540Y-109220
X134620Y-88900
X134620Y-95250
X134620Y-103505
X134620Y-109220
X137160Y-88900
X137160Y-95250
X137160Y-103505
X137160Y-109220
T2
X144780Y-88900
X144780Y-104140
X147320Y-88900
X147320Y-93980
X147320Y-104140
X147320Y-109220
X149860Y-88900
X149860Y-93980
X149860Y-104140
X149860Y-109220
X152400Y-88900
X152400Y-93980
X152400Y-104140
X152400Y-109220
X154940Y-88900
X154940Y-93980
X154940Y-104140
X154940Y-109220
X157480Y-88900
X157480Y-93980
X157480Y-104140
X157480Y-109220
X160020Y-88900
X160020Y-93980
X160020Y-104140
X160020Y-109220
X162560Y-88900
X162560Y-93980
X162560Y-104140
X162560Y-109220
X165100Y-88900
X165100Y-93980
X165100Y-104140
X165100Y-109220
X167640Y-88900
X167640Y-93980
X167640Y-104140
X167640Y-109220
X170180Y-88900
X170180Y-93980
X170180Y-104140
X170180Y-109220
X172720Y-88900
X172720Y-93980
X172720Y-104140
X172720Y-109220
X175260Y-88900
X175260Y-93980
X175260Y-104140
X175260Y-109220
X177800Y-88900
X177800Y-104140
T0
M30
