%TF.GenerationSoftware,KiCad,Pcbnew,(5.1.10)-1*%
%TF.CreationDate,2025-03-09T14:01:04+01:00*%
%TF.ProjectId,EA-Modul,45412d4d-6f64-4756-9c2e-6b696361645f,rev?*%
%TF.SameCoordinates,Original*%
%TF.FileFunction,OtherDrawing,Comment*%
%FSLAX46Y46*%
G04 Gerber Fmt 4.6, Leading zero omitted, Abs format (unit mm)*
G04 Created by KiCad (PCBNEW (5.1.10)-1) date 2025-03-09 14:01:04*
%MOMM*%
%LPD*%
G01*
G04 APERTURE LIST*
%ADD10C,0.002000*%
%ADD11C,0.150000*%
G04 APERTURE END LIST*
D10*
X55283524Y-123447659D02*
G75*
G02*
X55286469Y-123407204I4676J19994D01*
G01*
X55576501Y-123484706D02*
G75*
G02*
X55283523Y-123447660I30980J1422070D01*
G01*
X55777441Y-123377174D02*
X55286469Y-123407204D01*
X56372042Y-78976168D02*
G75*
G02*
X56317355Y-78960564I48345J273076D01*
G01*
X56476327Y-78971993D02*
G75*
G02*
X56427797Y-78979910I-56944J196366D01*
G01*
X56509021Y-78952669D02*
G75*
G02*
X56476328Y-78971993I-53939J53939D01*
G01*
X56513642Y-78930784D02*
G75*
G02*
X56509021Y-78952669I-19111J-7395D01*
G01*
X56273963Y-78920184D02*
G75*
G02*
X56303139Y-78906052I34929J-34930D01*
G01*
X56495388Y-78912319D02*
G75*
G02*
X56513642Y-78930783I-12086J-30204D01*
G01*
X56447389Y-78901247D02*
G75*
G02*
X56495388Y-78912319I-11676J-160199D01*
G01*
X56427797Y-78979910D02*
G75*
G02*
X56372041Y-78976167I-10649J258530D01*
G01*
X56377771Y-78900147D02*
G75*
G02*
X56447389Y-78901247I25166J-610975D01*
G01*
X56377771Y-78900147D02*
X56303139Y-78906052D01*
X56275687Y-78938408D02*
G75*
G02*
X56273963Y-78920184I6675J9825D01*
G01*
X56317355Y-78960564D02*
G75*
G02*
X56275687Y-78938409I81297J203160D01*
G01*
X55683565Y-110617831D02*
X55344266Y-110644477D01*
X55342757Y-110653363D02*
G75*
G02*
X55344266Y-110644477I1880J4252D01*
G01*
X55378346Y-110661445D02*
G75*
G02*
X55342757Y-110653363I2875J95067D01*
G01*
X55334525Y-112838058D02*
G75*
G02*
X55307391Y-112826734I6633J54064D01*
G01*
X55267490Y-119140469D02*
G75*
G02*
X55402908Y-119116090I268417J-1102694D01*
G01*
X55236105Y-119180411D02*
G75*
G02*
X55267490Y-119140469I41108J0D01*
G01*
X55266882Y-119220332D02*
G75*
G02*
X55236105Y-119180411I10503J39921D01*
G01*
X55617679Y-112806332D02*
X55310633Y-112816832D01*
X55408187Y-119249674D02*
G75*
G02*
X55266882Y-119220333I208337J1358276D01*
G01*
X55307390Y-112826733D02*
G75*
G02*
X55310633Y-112816832I3441J4355D01*
G01*
X55334525Y-112838058D02*
X55716799Y-112884645D01*
X55844771Y-69572401D02*
X55686105Y-69592489D01*
X55686105Y-69592489D02*
X55286105Y-69651693D01*
X55286105Y-69651693D02*
X55761105Y-69697693D01*
X55990636Y-69561071D02*
X55844771Y-69572401D01*
X56111742Y-69557738D02*
G75*
G02*
X56161105Y-69568671I563J-114367D01*
G01*
X56111742Y-69557739D02*
X55990636Y-69561071D01*
X56200034Y-69687277D02*
G75*
G02*
X56033140Y-69712490I-160546J497733D01*
G01*
X56224209Y-69633547D02*
G75*
G02*
X56200034Y-69687277I-36364J-15942D01*
G01*
X56161105Y-69568671D02*
G75*
G02*
X56224210Y-69633547I-55047J-116673D01*
G01*
X55761105Y-69697693D02*
X56033140Y-69712490D01*
X55344111Y-121530442D02*
X55336105Y-121298895D01*
X55292589Y-121031716D02*
G75*
G02*
X55325525Y-120911868I276580J-11557D01*
G01*
X55379313Y-121632255D02*
G75*
G02*
X55344111Y-121530442I170909J116085D01*
G01*
X55292590Y-121031715D02*
X55286105Y-121342253D01*
X55286105Y-121842253D02*
X55761105Y-121872732D01*
X55344937Y-121078925D02*
G75*
G02*
X55379857Y-120966408I268261J-21578D01*
G01*
X55325526Y-120911868D02*
G75*
G02*
X55400881Y-120853422I103736J-55948D01*
G01*
X55286105Y-121342253D02*
X55286105Y-121842253D01*
X55336105Y-121298895D02*
X55344937Y-121078925D01*
X55965479Y-83744400D02*
G75*
G02*
X55998140Y-83731458I32639J-34686D01*
G01*
X56036105Y-83992252D02*
G75*
G02*
X55997967Y-83980251I-1J66595D01*
G01*
X56074278Y-83985091D02*
G75*
G02*
X56036105Y-83992253I-38174J98154D01*
G01*
X54778250Y-76633156D02*
G75*
G02*
X54859746Y-76577731I85222J-37681D01*
G01*
X55943559Y-83895962D02*
G75*
G02*
X55936105Y-83836351I234621J59611D01*
G01*
X56110824Y-76588093D02*
X55943118Y-76568896D01*
X56019932Y-70807193D02*
X55949386Y-70829491D01*
X55943432Y-83781187D02*
G75*
G02*
X55965480Y-83744400I76002J-20551D01*
G01*
X55478819Y-76557953D02*
X54859746Y-76577731D01*
X55419438Y-76692253D02*
X55694222Y-76686856D01*
X55943118Y-76568896D02*
X55730889Y-76557330D01*
X56106730Y-83964611D02*
G75*
G02*
X56074278Y-83985091I-68889J73210D01*
G01*
X56128449Y-83934057D02*
G75*
G02*
X56106730Y-83964611I-87078J38903D01*
G01*
X56128775Y-83857596D02*
G75*
G02*
X56136105Y-83898154I-108536J-40558D01*
G01*
X55694583Y-70979511D02*
X55861105Y-70985224D01*
X56136104Y-70892253D02*
G75*
G02*
X56116320Y-70930089I-46071J0D01*
G01*
X56130465Y-70854572D02*
G75*
G02*
X56136105Y-70892253I-123049J-37681D01*
G01*
X56061104Y-70799281D02*
G75*
G02*
X56089682Y-70804387I5073J-54132D01*
G01*
X55936104Y-83836351D02*
G75*
G02*
X55943431Y-83781187I211333J0D01*
G01*
X55868175Y-70858836D02*
X55786105Y-70892253D01*
X54812722Y-76687088D02*
X55419438Y-76692253D01*
X55965479Y-83946456D02*
G75*
G02*
X55943559Y-83895962I144737J92837D01*
G01*
X55997967Y-83980250D02*
G75*
G02*
X55965480Y-83946456I69149J98986D01*
G01*
X56110825Y-76588093D02*
G75*
G02*
X56136186Y-76617253I-4046J-29127D01*
G01*
X55925608Y-76670221D02*
X56110348Y-76647098D01*
X56136105Y-83898155D02*
G75*
G02*
X56128449Y-83934058I-88018J1D01*
G01*
X56074357Y-83772873D02*
G75*
G02*
X56106730Y-83813543I-182532J-178516D01*
G01*
X56055324Y-70960813D02*
G75*
G02*
X55966442Y-70980630I-137000J405229D01*
G01*
X55694222Y-76686856D02*
X55925608Y-76670221D01*
X55998140Y-83731458D02*
G75*
G02*
X56036105Y-83742253I-33J-72276D01*
G01*
X56106729Y-83813543D02*
G75*
G02*
X56128774Y-83857597I-195300J-125271D01*
G01*
X56019933Y-70807193D02*
G75*
G02*
X56061105Y-70799281I61491J-208911D01*
G01*
X55949386Y-70829491D02*
X55868175Y-70858836D01*
X54812722Y-76687087D02*
G75*
G02*
X54778250Y-76633156I654J38400D01*
G01*
X56116320Y-70930089D02*
G75*
G02*
X56055323Y-70960813I-139045J200136D01*
G01*
X55966442Y-70980630D02*
G75*
G02*
X55861105Y-70985224I-85841J758273D01*
G01*
X55665764Y-70964960D02*
G75*
G02*
X55670461Y-70944439I10427J8411D01*
G01*
X56114073Y-70823692D02*
G75*
G02*
X56130464Y-70854571I-71730J-57865D01*
G01*
X56089682Y-70804387D02*
G75*
G02*
X56114073Y-70823692I-30476J-63566D01*
G01*
X55786105Y-70892253D02*
X55670461Y-70944439D01*
X55694583Y-70979511D02*
G75*
G02*
X55665763Y-70964961I1687J39159D01*
G01*
X56136186Y-76617253D02*
G75*
G02*
X56110348Y-76647098I-30194J33D01*
G01*
X55730889Y-76557330D02*
X55478819Y-76557953D01*
X55950641Y-85260966D02*
G75*
G02*
X55947936Y-85117253I1424257J98693D01*
G01*
X55968955Y-85382096D02*
G75*
G02*
X55950641Y-85260965I738154J173551D01*
G01*
X56106974Y-85329681D02*
X56036105Y-85042253D01*
X55998249Y-85467891D02*
G75*
G02*
X55968955Y-85382096I421172J191706D01*
G01*
X55766819Y-68699658D02*
G75*
G02*
X55847908Y-68692253I81089J-440275D01*
G01*
X56036105Y-85042253D02*
X55981847Y-84832201D01*
X56036105Y-83742253D02*
G75*
G02*
X56074356Y-83772873I-106294J-171986D01*
G01*
X55624085Y-68753887D02*
G75*
G02*
X55688503Y-68721628I193937J-306825D01*
G01*
X55956883Y-84850685D02*
G75*
G02*
X55967945Y-84827828I31457J-1119D01*
G01*
X56036104Y-85492252D02*
G75*
G02*
X55998249Y-85467891I0J41592D01*
G01*
X56106974Y-85329681D02*
G75*
G02*
X56118737Y-85429623I-418691J-99942D01*
G01*
X56118737Y-85429623D02*
G75*
G02*
X56094995Y-85474258I-53829J0D01*
G01*
X55967946Y-84827829D02*
G75*
G02*
X55981847Y-84832201I5576J-6555D01*
G01*
X55196485Y-104792636D02*
X55127762Y-105042253D01*
X55688503Y-68721628D02*
G75*
G02*
X55766818Y-68699658I159057J-416418D01*
G01*
X55586105Y-68792253D02*
G75*
G02*
X55624085Y-68753887I102125J-63116D01*
G01*
X55579681Y-68830076D02*
G75*
G02*
X55586105Y-68792253I49837J10993D01*
G01*
X56094996Y-85474258D02*
G75*
G02*
X56036105Y-85492253I-58891J87367D01*
G01*
X55283016Y-104592311D02*
G75*
G02*
X55418390Y-104433148I567277J-345338D01*
G01*
X55956883Y-84850685D02*
X55947936Y-85117253D01*
X55273111Y-104792252D02*
G75*
G02*
X55361674Y-104676642I496742J-288804D01*
G01*
X55127762Y-105042253D02*
X55273111Y-104792253D01*
X55196485Y-104792636D02*
G75*
G02*
X55283017Y-104592311I758746J-208895D01*
G01*
X55361674Y-104676643D02*
G75*
G02*
X55475944Y-104587857I398064J-394392D01*
G01*
X55348872Y-106291117D02*
G75*
G02*
X55386736Y-106233407I236600J-113957D01*
G01*
X55327636Y-106124084D02*
G75*
G02*
X55492987Y-106019314I250589J-212622D01*
G01*
X55970181Y-73679158D02*
G75*
G02*
X55954309Y-73714048I-54502J3739D01*
G01*
X55805391Y-68884848D02*
G75*
G02*
X55724301Y-68892253I-81090J440276D01*
G01*
X55336104Y-106347050D02*
G75*
G02*
X55348872Y-106291118I128897J0D01*
G01*
X55954309Y-73714049D02*
G75*
G02*
X55903672Y-73748337I-114382J114383D01*
G01*
X55887484Y-73654521D02*
X55768687Y-73674703D01*
X55920185Y-68699420D02*
G75*
G02*
X55971003Y-68721628I-25594J-127807D01*
G01*
X55595006Y-73749872D02*
G75*
G02*
X55590165Y-73728257I4431J12342D01*
G01*
X55671726Y-73771663D02*
G75*
G02*
X55595007Y-73749872I121917J575171D01*
G01*
X55903672Y-73748337D02*
G75*
G02*
X55831304Y-73770969I-146777J342319D01*
G01*
X55244575Y-106537017D02*
G75*
G02*
X55215738Y-106534058I-12496J20217D01*
G01*
X55215738Y-106534058D02*
G75*
G02*
X55199418Y-106500093I36318J38354D01*
G01*
X55601206Y-68862877D02*
G75*
G02*
X55579680Y-68830076I32331J44680D01*
G01*
X55948124Y-68830619D02*
G75*
G02*
X55883706Y-68862878I-193937J306826D01*
G01*
X55887485Y-73654521D02*
G75*
G02*
X55953409Y-73656943I25996J-190792D01*
G01*
X55309217Y-106457880D02*
G75*
G02*
X55279617Y-106505578I-238046J114695D01*
G01*
X55329316Y-106402273D02*
G75*
G02*
X55309218Y-106457880I-281214J70203D01*
G01*
X55768687Y-73674703D02*
X55631344Y-73705192D01*
X55199418Y-106500093D02*
G75*
G02*
X55202787Y-106424961I293566J24477D01*
G01*
X55279618Y-106505578D02*
G75*
G02*
X55244575Y-106537018I-105058J81846D01*
G01*
X55724301Y-68892253D02*
G75*
G02*
X55652024Y-68885087I0J368089D01*
G01*
X55883706Y-68862877D02*
G75*
G02*
X55805391Y-68884847I-159057J416418D01*
G01*
X55953409Y-73656942D02*
G75*
G02*
X55970182Y-73679158I-4401J-20763D01*
G01*
X55590165Y-73728257D02*
G75*
G02*
X55631344Y-73705192I61493J-61493D01*
G01*
X55847908Y-68692252D02*
G75*
G02*
X55920185Y-68699418I0J-368089D01*
G01*
X55749921Y-73779526D02*
G75*
G02*
X55671727Y-73771663I-3050J362374D01*
G01*
X55992529Y-68754429D02*
G75*
G02*
X55986105Y-68792253I-49838J-10993D01*
G01*
X55831305Y-73770969D02*
G75*
G02*
X55749921Y-73779527I-84963J416714D01*
G01*
X55986104Y-68792252D02*
G75*
G02*
X55948124Y-68830618I-102125J63116D01*
G01*
X55971003Y-68721628D02*
G75*
G02*
X55992529Y-68754429I-32331J-44680D01*
G01*
X55652024Y-68885087D02*
G75*
G02*
X55601206Y-68862878I25594J127809D01*
G01*
X55226306Y-106317919D02*
G75*
G02*
X55327636Y-106124083I480177J-127613D01*
G01*
X55226306Y-106317920D02*
X55202787Y-106424961D01*
X55336105Y-106347050D02*
G75*
G02*
X55329316Y-106402273I-227998J0D01*
G01*
X55777771Y-82000147D02*
X55703139Y-82006052D01*
X55673963Y-82020184D02*
G75*
G02*
X55703139Y-82006052I34929J-34930D01*
G01*
X55675687Y-82038408D02*
G75*
G02*
X55673963Y-82020184I6675J9825D01*
G01*
X55827797Y-82079910D02*
G75*
G02*
X55772041Y-82076167I-10649J258530D01*
G01*
X55876327Y-82071993D02*
G75*
G02*
X55827797Y-82079910I-56944J196366D01*
G01*
X55909021Y-82052669D02*
G75*
G02*
X55876328Y-82071993I-53939J53939D01*
G01*
X55772042Y-82076168D02*
G75*
G02*
X55717355Y-82060564I48345J273076D01*
G01*
X55847389Y-82001247D02*
G75*
G02*
X55895388Y-82012319I-11676J-160199D01*
G01*
X55777771Y-82000147D02*
G75*
G02*
X55847389Y-82001247I25166J-610975D01*
G01*
X55368061Y-99546594D02*
G75*
G02*
X55370041Y-99531671I4039J7057D01*
G01*
X55895389Y-82012319D02*
G75*
G02*
X55913643Y-82030783I-12087J-30204D01*
G01*
X55412271Y-99562979D02*
G75*
G02*
X55368061Y-99546594I27109J140981D01*
G01*
X55913642Y-82030784D02*
G75*
G02*
X55909021Y-82052669I-19111J-7395D01*
G01*
X55370041Y-99531672D02*
G75*
G02*
X55443215Y-99520736I87159J-332936D01*
G01*
X55717355Y-82060564D02*
G75*
G02*
X55675687Y-82038409I81297J203160D01*
G01*
X55440832Y-83975406D02*
G75*
G02*
X55361105Y-83961185I49837J510015D01*
G01*
X55737019Y-83944354D02*
G75*
G02*
X55711105Y-83961185I-38317J30629D01*
G01*
X55631378Y-83975406D02*
G75*
G02*
X55536105Y-83980050I-95274J974983D01*
G01*
X55661303Y-83918224D02*
G75*
G02*
X55731886Y-83928887I-14971J-338048D01*
G01*
X55251822Y-107846681D02*
G75*
G02*
X55353138Y-107648340I1097584J-435614D01*
G01*
X55296796Y-108091913D02*
G75*
G02*
X55400723Y-107817253I747860J-125987D01*
G01*
X55536105Y-83915453D02*
X55410906Y-83918224D01*
X55340323Y-122428887D02*
G75*
G02*
X55410906Y-122418224I85554J-327385D01*
G01*
X55335191Y-122444354D02*
G75*
G02*
X55340323Y-122428887I7589J6067D01*
G01*
X55361105Y-122461185D02*
G75*
G02*
X55335191Y-122444354I12402J47460D01*
G01*
X55661303Y-83918224D02*
X55536105Y-83915453D01*
X55203304Y-108605624D02*
G75*
G02*
X55150404Y-108360497I536853J244128D01*
G01*
X55440832Y-122475406D02*
G75*
G02*
X55361105Y-122461185I49837J510015D01*
G01*
X55340323Y-83928887D02*
G75*
G02*
X55410906Y-83918224I85554J-327385D01*
G01*
X55731886Y-83928886D02*
G75*
G02*
X55737019Y-83944354I-2457J-9401D01*
G01*
X55573621Y-109122897D02*
G75*
G02*
X55368053Y-108889668I1082746J1161545D01*
G01*
X55393674Y-108698799D02*
G75*
G02*
X55295443Y-108404488I840667J444136D01*
G01*
X55295442Y-108404487D02*
G75*
G02*
X55296795Y-108091913I953552J152163D01*
G01*
X55353138Y-107648340D02*
G75*
G02*
X55455308Y-107592253I102170J-65014D01*
G01*
X55150404Y-108360497D02*
G75*
G02*
X55176188Y-108102360I1327590J-2248D01*
G01*
X55711105Y-83961185D02*
G75*
G02*
X55631378Y-83975406I-129565J495794D01*
G01*
X55335191Y-83944354D02*
G75*
G02*
X55340323Y-83928887I7589J6067D01*
G01*
X55536104Y-83980050D02*
G75*
G02*
X55440831Y-83975406I1J979627D01*
G01*
X55361105Y-83961185D02*
G75*
G02*
X55335191Y-83944354I12402J47460D01*
G01*
X55176188Y-108102360D02*
G75*
G02*
X55251822Y-107846681I1451246J-290277D01*
G01*
X55368053Y-108889668D02*
G75*
G02*
X55203304Y-108605623I1350337J973011D01*
G01*
X55682044Y-80528258D02*
G75*
G02*
X55677202Y-80549872I-9272J-9272D01*
G01*
X55317900Y-80514048D02*
G75*
G02*
X55302028Y-80479158I38630J38629D01*
G01*
X55326195Y-109627906D02*
G75*
G02*
X55379284Y-109615808I63929J-158009D01*
G01*
X55324440Y-109643918D02*
G75*
G02*
X55326195Y-109627906I5185J7534D01*
G01*
X55363008Y-109661552D02*
G75*
G02*
X55324440Y-109643919I30900J118581D01*
G01*
X55573564Y-71421628D02*
G75*
G02*
X55594708Y-71400081I39138J-17258D01*
G01*
X55727999Y-71454097D02*
G75*
G02*
X55736105Y-71492253I-85746J-38156D01*
G01*
X55670629Y-71399865D02*
G75*
G02*
X55704996Y-71421628I-38719J-99162D01*
G01*
X55570454Y-71454042D02*
G75*
G02*
X55573565Y-71421628I50521J11507D01*
G01*
X55613005Y-71530530D02*
G75*
G02*
X55586105Y-71492253I310597J246863D01*
G01*
X55440905Y-80570969D02*
G75*
G02*
X55368537Y-80548337I74409J364951D01*
G01*
X55630202Y-71392253D02*
G75*
G02*
X55670628Y-71399865I1J-111147D01*
G01*
X55439768Y-109675542D02*
G75*
G02*
X55363008Y-109661552I55168J520261D01*
G01*
X55368536Y-80548337D02*
G75*
G02*
X55317900Y-80514048I63746J148671D01*
G01*
X55708870Y-71584807D02*
G75*
G02*
X55692006Y-71592253I-16864J15373D01*
G01*
X55374006Y-124288149D02*
G75*
G02*
X55327926Y-124292253I-46080J256621D01*
G01*
X55292894Y-124299917D02*
G75*
G02*
X55327926Y-124292253I35032J-76236D01*
G01*
X55670934Y-71585699D02*
G75*
G02*
X55642707Y-71562878I134091J194720D01*
G01*
X55704996Y-71421628D02*
G75*
G02*
X55727998Y-71454097I-69549J-73653D01*
G01*
X55594709Y-71400082D02*
G75*
G02*
X55630203Y-71392253I35494J-76548D01*
G01*
X55732870Y-71530538D02*
G75*
G02*
X55723151Y-71562878I-135252J23018D01*
G01*
X55503522Y-80474703D02*
X55384725Y-80454521D01*
X55642707Y-71562878D02*
G75*
G02*
X55613004Y-71530530I211778J224276D01*
G01*
X55586104Y-71492253D02*
G75*
G02*
X55570453Y-71454043I107045J66157D01*
G01*
X55318801Y-80456943D02*
G75*
G02*
X55384725Y-80454521I39927J-188370D01*
G01*
X55723150Y-71562878D02*
G75*
G02*
X55708869Y-71584807I-74261J32749D01*
G01*
X55302028Y-80479158D02*
G75*
G02*
X55318800Y-80456943I21173J1453D01*
G01*
X55692007Y-71592252D02*
G75*
G02*
X55670934Y-71585699I-1J37154D01*
G01*
X55600483Y-80571663D02*
G75*
G02*
X55522289Y-80579527I-75145J354511D01*
G01*
X55677202Y-80549871D02*
G75*
G02*
X55600483Y-80571663I-198636J553379D01*
G01*
X55640865Y-80505192D02*
G75*
G02*
X55682044Y-80528257I-20314J-84558D01*
G01*
X55640865Y-80505192D02*
X55503522Y-80474703D01*
X55736104Y-71492252D02*
G75*
G02*
X55732870Y-71530537I-228197J0D01*
G01*
X55522289Y-80579527D02*
G75*
G02*
X55440905Y-80570969I3578J425272D01*
G01*
X55280668Y-125444364D02*
G75*
G02*
X55299942Y-125342253I290452J-1950D01*
G01*
X55427797Y-98679910D02*
G75*
G02*
X55372041Y-98676167I-10649J258530D01*
G01*
X55329681Y-116055529D02*
G75*
G02*
X55386105Y-115992253I237748J-155206D01*
G01*
X55299942Y-125342253D02*
G75*
G02*
X55337444Y-125284884I151656J-58195D01*
G01*
X55284168Y-116142670D02*
G75*
G02*
X55329681Y-116055529I470380J-190221D01*
G01*
X55263077Y-124321628D02*
G75*
G02*
X55292894Y-124299916I68839J-63209D01*
G01*
X55269484Y-100379345D02*
X55411105Y-100305106D01*
X55255585Y-116238894D02*
G75*
G02*
X55284167Y-116142670I516207J-100972D01*
G01*
X55276637Y-116471337D02*
X55306678Y-116317253D01*
X55306678Y-116317253D02*
G75*
G02*
X55330102Y-116231121I582916J-112275D01*
G01*
X55337443Y-125284884D02*
G75*
G02*
X55401815Y-125236315I213866J-216508D01*
G01*
X55330101Y-116231121D02*
G75*
G02*
X55364616Y-116158346I372515J-132100D01*
G01*
X55275687Y-98638408D02*
G75*
G02*
X55273963Y-98620184I6675J9825D01*
G01*
X55269483Y-100379345D02*
G75*
G02*
X55244050Y-100379205I-12582J24402D01*
G01*
X55323349Y-100258625D02*
X55240332Y-100361611D01*
X55249723Y-116329497D02*
G75*
G02*
X55255586Y-116238894I353411J22621D01*
G01*
X55267526Y-116480604D02*
G75*
G02*
X55259416Y-116474505I-1411J6565D01*
G01*
X55317355Y-98660564D02*
G75*
G02*
X55275687Y-98638409I81297J203160D01*
G01*
X55372042Y-98676168D02*
G75*
G02*
X55317355Y-98660564I48345J273076D01*
G01*
X55431286Y-124488697D02*
G75*
G02*
X55291699Y-124472884I-38923J280421D01*
G01*
X55236105Y-124392252D02*
G75*
G02*
X55243084Y-124354075I107902J0D01*
G01*
X55249723Y-116329497D02*
X55259416Y-116474505D01*
X55243084Y-124354076D02*
G75*
G02*
X55263077Y-124321628I94096J-35594D01*
G01*
X55377771Y-98600147D02*
X55303139Y-98606052D01*
X55273963Y-98620184D02*
G75*
G02*
X55303139Y-98606052I34929J-34930D01*
G01*
X55276637Y-116471337D02*
G75*
G02*
X55267526Y-116480604I-11595J2288D01*
G01*
X55364617Y-116158346D02*
G75*
G02*
X55404274Y-116108157I221512J-134268D01*
G01*
X55244052Y-100379204D02*
G75*
G02*
X55240332Y-100361611I5480J10348D01*
G01*
X55291699Y-124472884D02*
G75*
G02*
X55236105Y-124392253I30674J80631D01*
G01*
X55318854Y-125482373D02*
G75*
G02*
X55280668Y-125444364I-429J37756D01*
G01*
X55414167Y-125454147D02*
G75*
G02*
X55318853Y-125482373I-97379J153788D01*
G01*
X55323348Y-100258625D02*
G75*
G02*
X55382338Y-100194948I583076J-480993D01*
G01*
X55245676Y-105125012D02*
G75*
G02*
X55265373Y-105116168I14828J-6669D01*
G01*
X55297941Y-71399887D02*
G75*
G02*
X55336105Y-71392253I38163J-91574D01*
G01*
X55428492Y-79826776D02*
G75*
G02*
X55406730Y-79861144I-99162J38718D01*
G01*
X55236105Y-71492253D02*
G75*
G02*
X55243739Y-71454089I99208J1D01*
G01*
X55295850Y-105136842D02*
G75*
G02*
X55336105Y-105192253I-487389J-396400D01*
G01*
X55244453Y-105211490D02*
G75*
G02*
X55237636Y-105161351I164752J47933D01*
G01*
X55336105Y-106792253D02*
X55279760Y-106709211D01*
X55336105Y-105342252D02*
G75*
G02*
X55297959Y-105309796I87282J141226D01*
G01*
X55240831Y-106719361D02*
X55237636Y-106817253D01*
X55244461Y-106884197D02*
G75*
G02*
X55237636Y-106817253I298667J64271D01*
G01*
X55265929Y-106940846D02*
G75*
G02*
X55244461Y-106884197I176321J99212D01*
G01*
X55298073Y-106978828D02*
G75*
G02*
X55265929Y-106940846I82776J102645D01*
G01*
X55374269Y-71584619D02*
G75*
G02*
X55336105Y-71592253I-38164J91575D01*
G01*
X55408188Y-106986057D02*
G75*
G02*
X55336105Y-106992253I-72084J416241D01*
G01*
X55236105Y-79848155D02*
G75*
G02*
X55242658Y-79827082I37154J1D01*
G01*
X55265480Y-79879298D02*
G75*
G02*
X55243551Y-79865017I32748J74261D01*
G01*
X55415984Y-105320367D02*
X55336105Y-105192253D01*
X55243739Y-71530417D02*
G75*
G02*
X55236105Y-71492253I91574J38164D01*
G01*
X55406729Y-71562877D02*
G75*
G02*
X55374268Y-71584618I-71190J71190D01*
G01*
X55436104Y-71492252D02*
G75*
G02*
X55428470Y-71530416I-99208J-1D01*
G01*
X55428276Y-79750856D02*
G75*
G02*
X55436105Y-79786351I-76549J-35495D01*
G01*
X55409516Y-105380908D02*
G75*
G02*
X55336105Y-105342253I243365J551211D01*
G01*
X55297819Y-79889018D02*
G75*
G02*
X55265479Y-79879299I23018J135252D01*
G01*
X55256294Y-106700598D02*
G75*
G02*
X55279760Y-106709211I5444J-21441D01*
G01*
X55240830Y-106719361D02*
G75*
G02*
X55256295Y-106700598I20523J-1161D01*
G01*
X55436104Y-79786350D02*
G75*
G02*
X55428492Y-79826776I-111147J-1D01*
G01*
X55265930Y-105263619D02*
G75*
G02*
X55244453Y-105211490I230393J125408D01*
G01*
X55336104Y-106992252D02*
G75*
G02*
X55298073Y-106978828I0J60584D01*
G01*
X55297959Y-105309796D02*
G75*
G02*
X55265929Y-105263619I197021J170855D01*
G01*
X55237636Y-105161351D02*
G75*
G02*
X55245675Y-105125012I91458J-1176D01*
G01*
X55415148Y-106918535D02*
X55336105Y-106792253D01*
X55336105Y-116792253D02*
X55279760Y-116709211D01*
X55240830Y-116719361D02*
G75*
G02*
X55256295Y-116700598I20523J-1161D01*
G01*
X55265480Y-71562877D02*
G75*
G02*
X55243739Y-71530416I71190J71190D01*
G01*
X55336104Y-71392253D02*
G75*
G02*
X55374268Y-71399887I1J-99208D01*
G01*
X55256294Y-116700598D02*
G75*
G02*
X55279760Y-116709211I5444J-21441D01*
G01*
X55240831Y-116719361D02*
X55237636Y-116817253D01*
X55244461Y-116884197D02*
G75*
G02*
X55237636Y-116817253I298667J64271D01*
G01*
X55265480Y-71421628D02*
G75*
G02*
X55297941Y-71399887I71190J-71190D01*
G01*
X55406729Y-71421628D02*
G75*
G02*
X55428470Y-71454089I-71190J-71190D01*
G01*
X55243551Y-79865017D02*
G75*
G02*
X55236105Y-79848154I15372J16863D01*
G01*
X55336105Y-71592252D02*
G75*
G02*
X55297941Y-71584618I-1J99208D01*
G01*
X55297941Y-71584619D02*
G75*
G02*
X55265479Y-71562878I38729J92932D01*
G01*
X55265479Y-79798855D02*
G75*
G02*
X55297827Y-79769152I224276J-211778D01*
G01*
X55336105Y-79892252D02*
G75*
G02*
X55297820Y-79889018I0J228197D01*
G01*
X55428471Y-71454089D02*
G75*
G02*
X55436105Y-71492253I-91575J-38163D01*
G01*
X55428471Y-71530416D02*
G75*
G02*
X55406730Y-71562878I-92932J38729D01*
G01*
X55374261Y-79884146D02*
G75*
G02*
X55336105Y-79892253I-38157J85745D01*
G01*
X55297827Y-79769152D02*
G75*
G02*
X55336105Y-79742253I246863J-310598D01*
G01*
X55406729Y-79861144D02*
G75*
G02*
X55374260Y-79884146I-73653J69549D01*
G01*
X55374269Y-71399887D02*
G75*
G02*
X55406730Y-71421628I-38730J-92931D01*
G01*
X55374315Y-79726601D02*
G75*
G02*
X55406730Y-79729713I11507J-50522D01*
G01*
X55336105Y-79742252D02*
G75*
G02*
X55374315Y-79726601I66156J-107045D01*
G01*
X55243738Y-71454089D02*
G75*
G02*
X55265479Y-71421628I92932J-38729D01*
G01*
X55242658Y-79827082D02*
G75*
G02*
X55265479Y-79798855I194720J-134091D01*
G01*
X55265373Y-105116167D02*
G75*
G02*
X55295850Y-105136841I-19156J-61041D01*
G01*
X55406729Y-79729712D02*
G75*
G02*
X55428276Y-79750856I-17258J-39138D01*
G01*
X55248032Y-102179212D02*
X55253006Y-102285674D01*
X55283727Y-102383873D02*
G75*
G02*
X55267397Y-102368418I4248J20842D01*
G01*
X55327999Y-77654097D02*
G75*
G02*
X55336105Y-77692253I-85746J-38156D01*
G01*
X55241340Y-118269829D02*
G75*
G02*
X55207124Y-118152157I689905J264420D01*
G01*
X55270629Y-77599865D02*
G75*
G02*
X55304996Y-77621628I-38719J-99162D01*
G01*
X55298482Y-117607532D02*
G75*
G02*
X55333716Y-117645719I-1863J-37067D01*
G01*
X55288392Y-100930853D02*
G75*
G02*
X55270511Y-100919156I-519J18722D01*
G01*
X55242707Y-77762878D02*
G75*
G02*
X55213004Y-77730530I211778J224276D01*
G01*
X55408188Y-116986057D02*
G75*
G02*
X55336105Y-116992253I-72084J416241D01*
G01*
X55365904Y-118355385D02*
G75*
G02*
X55340008Y-118306874I66854J66854D01*
G01*
X55254278Y-117641321D02*
G75*
G02*
X55298482Y-117607532I42043J-9194D01*
G01*
X55332870Y-77730538D02*
G75*
G02*
X55323151Y-77762878I-135252J23018D01*
G01*
X55252044Y-102067726D02*
X55248032Y-102179212D01*
X55298943Y-102373688D02*
G75*
G02*
X55283727Y-102383875I-12645J2431D01*
G01*
X55291008Y-118359194D02*
X55344548Y-118425481D01*
X55308798Y-102286095D02*
G75*
G02*
X55298944Y-102373689I-565687J19287D01*
G01*
X55389924Y-118471344D02*
G75*
G02*
X55344548Y-118425481I305662J347794D01*
G01*
X55308798Y-102286095D02*
X55310886Y-102142253D01*
X55310886Y-102142253D02*
X55307621Y-101999363D01*
X55314834Y-100850264D02*
X55316610Y-100742253D01*
X55336104Y-116992252D02*
G75*
G02*
X55298073Y-116978828I0J60584D01*
G01*
X55194709Y-77600082D02*
G75*
G02*
X55230203Y-77592253I35494J-76548D01*
G01*
X55248878Y-100780253D02*
G75*
G02*
X55252815Y-100695916I715901J8841D01*
G01*
X55365904Y-118355385D02*
G75*
G02*
X55392531Y-118386555I-184985J-184985D01*
G01*
X55323150Y-77762878D02*
G75*
G02*
X55308869Y-77784807I-74261J32749D01*
G01*
X55336104Y-77692252D02*
G75*
G02*
X55332870Y-77730537I-228197J0D01*
G01*
X55314835Y-100850264D02*
G75*
G02*
X55304597Y-100917968I-326810J14790D01*
G01*
X55415148Y-116918535D02*
X55336105Y-116792253D01*
X55292007Y-77792252D02*
G75*
G02*
X55270934Y-77785699I-1J37154D01*
G01*
X55284439Y-100580588D02*
G75*
G02*
X55300451Y-100582343I7534J-5185D01*
G01*
X55267396Y-102368418D02*
G75*
G02*
X55253006Y-102285674I485037J126977D01*
G01*
X55254664Y-100859361D02*
G75*
G02*
X55248878Y-100780253I648372J87187D01*
G01*
X55270511Y-100919156D02*
G75*
G02*
X55254664Y-100859361I229250J92753D01*
G01*
X55320466Y-117917490D02*
X55333716Y-117645719D01*
X55323599Y-118197795D02*
G75*
G02*
X55316124Y-118063421I1400109J145281D01*
G01*
X55170454Y-77654042D02*
G75*
G02*
X55173565Y-77621628I50521J11507D01*
G01*
X55186104Y-77692253D02*
G75*
G02*
X55170453Y-77654043I107045J66157D01*
G01*
X55266806Y-100619155D02*
G75*
G02*
X55284439Y-100580588I118580J-30901D01*
G01*
X55252043Y-102067726D02*
G75*
G02*
X55265378Y-101968418I884674J-68243D01*
G01*
X55340008Y-118306874D02*
G75*
G02*
X55323599Y-118197796I1178508J233068D01*
G01*
X55192107Y-118026228D02*
G75*
G02*
X55200268Y-117911447I531412J19897D01*
G01*
X55173564Y-77621628D02*
G75*
G02*
X55194708Y-77600081I39138J-17258D01*
G01*
X55304996Y-77621628D02*
G75*
G02*
X55327998Y-77654097I-69549J-73653D01*
G01*
X55230202Y-77592253D02*
G75*
G02*
X55270628Y-77599865I1J-111147D01*
G01*
X55265929Y-116940846D02*
G75*
G02*
X55244461Y-116884197I176321J99212D01*
G01*
X55252815Y-100695916D02*
G75*
G02*
X55266805Y-100619156I520261J-55168D01*
G01*
X55316610Y-100742253D02*
X55312549Y-100635432D01*
X55298073Y-116978828D02*
G75*
G02*
X55265929Y-116940846I82776J102645D01*
G01*
X55207125Y-118152156D02*
G75*
G02*
X55192108Y-118026228I765622J155158D01*
G01*
X55308870Y-77784807D02*
G75*
G02*
X55292006Y-77792253I-16864J15373D01*
G01*
X55316124Y-118063421D02*
X55320466Y-117917490D01*
X55300451Y-100582343D02*
G75*
G02*
X55312549Y-100635432I-158009J-63929D01*
G01*
X55213005Y-77730530D02*
G75*
G02*
X55186105Y-77692253I310597J246863D01*
G01*
X55291008Y-118359195D02*
G75*
G02*
X55241341Y-118269829I289374J219312D01*
G01*
X55270934Y-77785699D02*
G75*
G02*
X55242707Y-77762878I134091J194720D01*
G01*
X55254277Y-117641321D02*
X55200268Y-117911447D01*
X55304596Y-100917968D02*
G75*
G02*
X55288391Y-100930853I-16682J4347D01*
G01*
X55288605Y-120038191D02*
G75*
G02*
X55269876Y-120017253I19656J36427D01*
G01*
X55304310Y-111295218D02*
G75*
G02*
X55319379Y-111391595I-343850J-103130D01*
G01*
X55267793Y-114973503D02*
G75*
G02*
X55289948Y-114931835I203160J-81297D01*
G01*
X55252189Y-114628190D02*
G75*
G02*
X55267793Y-114573503I273076J-48345D01*
G01*
X55305499Y-120032096D02*
G75*
G02*
X55288605Y-120038191I-11173J4508D01*
G01*
X55317195Y-119981396D02*
G75*
G02*
X55305499Y-120032096I-166206J11646D01*
G01*
X55317196Y-119981397D02*
X55320315Y-119892253D01*
X55305500Y-119752409D02*
G75*
G02*
X55317196Y-119803109I-154511J-62346D01*
G01*
X55296685Y-101926189D02*
G75*
G02*
X55307621Y-101999363I-332936J-87159D01*
G01*
X55233881Y-111858739D02*
G75*
G02*
X55207386Y-111733465I740008J221948D01*
G01*
X55281763Y-101924209D02*
G75*
G02*
X55296686Y-101926189I7057J-4039D01*
G01*
X55318223Y-111935721D02*
G75*
G02*
X55304347Y-112004374I-191541J2984D01*
G01*
X55316038Y-114751537D02*
G75*
G02*
X55297574Y-114769791I-30204J12087D01*
G01*
X55297573Y-115169790D02*
G75*
G02*
X55275688Y-115165169I-7395J19111D01*
G01*
X55304348Y-112004375D02*
G75*
G02*
X55282094Y-112003999I-11055J4458D01*
G01*
X55327110Y-115103537D02*
G75*
G02*
X55316038Y-115151536I-160199J11676D01*
G01*
X55248447Y-114683945D02*
G75*
G02*
X55252190Y-114628189I258530J10649D01*
G01*
X55327110Y-114703537D02*
G75*
G02*
X55316038Y-114751536I-160199J11676D01*
G01*
X55328210Y-114633919D02*
X55322305Y-114559287D01*
X55249070Y-119892252D02*
G75*
G02*
X55254243Y-119824253I449552J0D01*
G01*
X55321171Y-111642253D02*
X55319379Y-111391595D01*
X55328210Y-115033919D02*
G75*
G02*
X55327110Y-115103537I-610975J-25166D01*
G01*
X55254243Y-119824254D02*
G75*
G02*
X55269876Y-119767253I252743J-38674D01*
G01*
X55288605Y-119746314D02*
G75*
G02*
X55305499Y-119752409I5721J-10603D01*
G01*
X55265379Y-101968419D02*
G75*
G02*
X55281764Y-101924209I140980J-27109D01*
G01*
X55207385Y-111733465D02*
G75*
G02*
X55198985Y-111594728I1061719J133907D01*
G01*
X55320315Y-119892253D02*
X55317196Y-119803109D01*
X55198985Y-111594728D02*
G75*
G02*
X55208410Y-111462699I992204J-4478D01*
G01*
X55269876Y-119767252D02*
G75*
G02*
X55288605Y-119746314I38385J-15489D01*
G01*
X55256364Y-114732475D02*
G75*
G02*
X55248447Y-114683945I196366J56944D01*
G01*
X55252189Y-115028190D02*
G75*
G02*
X55267793Y-114973503I273076J-48345D01*
G01*
X55276643Y-111289788D02*
G75*
G02*
X55304310Y-111295219I12402J-10009D01*
G01*
X55208411Y-111462699D02*
G75*
G02*
X55236138Y-111358739I435618J-60507D01*
G01*
X55289949Y-114531835D02*
G75*
G02*
X55308173Y-114530111I9825J-6675D01*
G01*
X55297573Y-114769790D02*
G75*
G02*
X55275688Y-114765169I-7395J19111D01*
G01*
X55275688Y-114765169D02*
G75*
G02*
X55256364Y-114732476I53939J53939D01*
G01*
X55256364Y-115132475D02*
G75*
G02*
X55248447Y-115083945I196366J56944D01*
G01*
X55316038Y-115151537D02*
G75*
G02*
X55297574Y-115169791I-30204J12087D01*
G01*
X55308173Y-114530111D02*
G75*
G02*
X55322305Y-114559287I-34930J-34929D01*
G01*
X55328210Y-114633919D02*
G75*
G02*
X55327110Y-114703537I-610975J-25166D01*
G01*
X55328210Y-115033919D02*
X55322305Y-114959287D01*
X55248447Y-115083945D02*
G75*
G02*
X55252190Y-115028189I258530J10649D01*
G01*
X55308173Y-114930111D02*
G75*
G02*
X55322305Y-114959287I-34930J-34929D01*
G01*
X55267793Y-114573503D02*
G75*
G02*
X55289948Y-114531835I203160J-81297D01*
G01*
X55289949Y-114931835D02*
G75*
G02*
X55308173Y-114930111I9825J-6675D01*
G01*
X55269876Y-120017253D02*
G75*
G02*
X55254243Y-119960252I237110J95676D01*
G01*
X55236137Y-111358739D02*
G75*
G02*
X55276644Y-111289788I251684J-101482D01*
G01*
X55318223Y-111935721D02*
X55321171Y-111642253D01*
X55233881Y-111858739D02*
X55282094Y-112003999D01*
X55275688Y-115165169D02*
G75*
G02*
X55256364Y-115132476I53939J53939D01*
G01*
X55254244Y-119960252D02*
G75*
G02*
X55249071Y-119892253I444378J67999D01*
G01*
%TO.C,X1*%
D11*
X52446428Y-102950833D02*
X52498809Y-102793690D01*
X52551190Y-102741309D01*
X52655952Y-102688928D01*
X52813095Y-102688928D01*
X52917857Y-102741309D01*
X52970238Y-102793690D01*
X53022619Y-102898452D01*
X53022619Y-103317500D01*
X51922619Y-103317500D01*
X51922619Y-102950833D01*
X51975000Y-102846071D01*
X52027380Y-102793690D01*
X52132142Y-102741309D01*
X52236904Y-102741309D01*
X52341666Y-102793690D01*
X52394047Y-102846071D01*
X52446428Y-102950833D01*
X52446428Y-103317500D01*
X53022619Y-102060357D02*
X52970238Y-102165119D01*
X52917857Y-102217500D01*
X52813095Y-102269880D01*
X52498809Y-102269880D01*
X52394047Y-102217500D01*
X52341666Y-102165119D01*
X52289285Y-102060357D01*
X52289285Y-101903214D01*
X52341666Y-101798452D01*
X52394047Y-101746071D01*
X52498809Y-101693690D01*
X52813095Y-101693690D01*
X52917857Y-101746071D01*
X52970238Y-101798452D01*
X53022619Y-101903214D01*
X53022619Y-102060357D01*
X53022619Y-101222261D02*
X51922619Y-101222261D01*
X53022619Y-100750833D02*
X52446428Y-100750833D01*
X52341666Y-100803214D01*
X52289285Y-100907976D01*
X52289285Y-101065119D01*
X52341666Y-101169880D01*
X52394047Y-101222261D01*
X53022619Y-100227023D02*
X52289285Y-100227023D01*
X52498809Y-100227023D02*
X52394047Y-100174642D01*
X52341666Y-100122261D01*
X52289285Y-100017500D01*
X52289285Y-99912738D01*
X52289285Y-99074642D02*
X53022619Y-99074642D01*
X52289285Y-99546071D02*
X52865476Y-99546071D01*
X52970238Y-99493690D01*
X53022619Y-99388928D01*
X53022619Y-99231785D01*
X52970238Y-99127023D01*
X52917857Y-99074642D01*
X52289285Y-98550833D02*
X53022619Y-98550833D01*
X52394047Y-98550833D02*
X52341666Y-98498452D01*
X52289285Y-98393690D01*
X52289285Y-98236547D01*
X52341666Y-98131785D01*
X52446428Y-98079404D01*
X53022619Y-98079404D01*
X52289285Y-97084166D02*
X53179761Y-97084166D01*
X53284523Y-97136547D01*
X53336904Y-97188928D01*
X53389285Y-97293690D01*
X53389285Y-97450833D01*
X53336904Y-97555595D01*
X52970238Y-97084166D02*
X53022619Y-97188928D01*
X53022619Y-97398452D01*
X52970238Y-97503214D01*
X52917857Y-97555595D01*
X52813095Y-97607976D01*
X52498809Y-97607976D01*
X52394047Y-97555595D01*
X52341666Y-97503214D01*
X52289285Y-97398452D01*
X52289285Y-97188928D01*
X52341666Y-97084166D01*
X52970238Y-96141309D02*
X53022619Y-96246071D01*
X53022619Y-96455595D01*
X52970238Y-96560357D01*
X52865476Y-96612738D01*
X52446428Y-96612738D01*
X52341666Y-96560357D01*
X52289285Y-96455595D01*
X52289285Y-96246071D01*
X52341666Y-96141309D01*
X52446428Y-96088928D01*
X52551190Y-96088928D01*
X52655952Y-96612738D01*
X52289285Y-95617500D02*
X53022619Y-95617500D01*
X52394047Y-95617500D02*
X52341666Y-95565119D01*
X52289285Y-95460357D01*
X52289285Y-95303214D01*
X52341666Y-95198452D01*
X52446428Y-95146071D01*
X53022619Y-95146071D01*
X52289285Y-93784166D02*
X53022619Y-93784166D01*
X52394047Y-93784166D02*
X52341666Y-93731785D01*
X52289285Y-93627023D01*
X52289285Y-93469880D01*
X52341666Y-93365119D01*
X52446428Y-93312738D01*
X53022619Y-93312738D01*
X53022619Y-92317500D02*
X52446428Y-92317500D01*
X52341666Y-92369880D01*
X52289285Y-92474642D01*
X52289285Y-92684166D01*
X52341666Y-92788928D01*
X52970238Y-92317500D02*
X53022619Y-92422261D01*
X53022619Y-92684166D01*
X52970238Y-92788928D01*
X52865476Y-92841309D01*
X52760714Y-92841309D01*
X52655952Y-92788928D01*
X52603571Y-92684166D01*
X52603571Y-92422261D01*
X52551190Y-92317500D01*
X52970238Y-91322261D02*
X53022619Y-91427023D01*
X53022619Y-91636547D01*
X52970238Y-91741309D01*
X52917857Y-91793690D01*
X52813095Y-91846071D01*
X52498809Y-91846071D01*
X52394047Y-91793690D01*
X52341666Y-91741309D01*
X52289285Y-91636547D01*
X52289285Y-91427023D01*
X52341666Y-91322261D01*
X53022619Y-90850833D02*
X51922619Y-90850833D01*
X53022619Y-90379404D02*
X52446428Y-90379404D01*
X52341666Y-90431785D01*
X52289285Y-90536547D01*
X52289285Y-90693690D01*
X52341666Y-90798452D01*
X52394047Y-90850833D01*
X52446428Y-88650833D02*
X52498809Y-88493690D01*
X52551190Y-88441309D01*
X52655952Y-88388928D01*
X52813095Y-88388928D01*
X52917857Y-88441309D01*
X52970238Y-88493690D01*
X53022619Y-88598452D01*
X53022619Y-89017500D01*
X51922619Y-89017500D01*
X51922619Y-88650833D01*
X51975000Y-88546071D01*
X52027380Y-88493690D01*
X52132142Y-88441309D01*
X52236904Y-88441309D01*
X52341666Y-88493690D01*
X52394047Y-88546071D01*
X52446428Y-88650833D01*
X52446428Y-89017500D01*
X52970238Y-87498452D02*
X53022619Y-87603214D01*
X53022619Y-87812738D01*
X52970238Y-87917500D01*
X52865476Y-87969880D01*
X52446428Y-87969880D01*
X52341666Y-87917500D01*
X52289285Y-87812738D01*
X52289285Y-87603214D01*
X52341666Y-87498452D01*
X52446428Y-87446071D01*
X52551190Y-87446071D01*
X52655952Y-87969880D01*
X53022619Y-86503214D02*
X51922619Y-86503214D01*
X52970238Y-86503214D02*
X53022619Y-86607976D01*
X53022619Y-86817500D01*
X52970238Y-86922261D01*
X52917857Y-86974642D01*
X52813095Y-87027023D01*
X52498809Y-87027023D01*
X52394047Y-86974642D01*
X52341666Y-86922261D01*
X52289285Y-86817500D01*
X52289285Y-86607976D01*
X52341666Y-86503214D01*
X53022619Y-85507976D02*
X52446428Y-85507976D01*
X52341666Y-85560357D01*
X52289285Y-85665119D01*
X52289285Y-85874642D01*
X52341666Y-85979404D01*
X52970238Y-85507976D02*
X53022619Y-85612738D01*
X53022619Y-85874642D01*
X52970238Y-85979404D01*
X52865476Y-86031785D01*
X52760714Y-86031785D01*
X52655952Y-85979404D01*
X52603571Y-85874642D01*
X52603571Y-85612738D01*
X52551190Y-85507976D01*
X53022619Y-84984166D02*
X52289285Y-84984166D01*
X52498809Y-84984166D02*
X52394047Y-84931785D01*
X52341666Y-84879404D01*
X52289285Y-84774642D01*
X52289285Y-84669880D01*
X52289285Y-84460357D02*
X52289285Y-84041309D01*
X53022619Y-84303214D02*
X52079761Y-84303214D01*
X51975000Y-84250833D01*
X51922619Y-84146071D01*
X51922619Y-84041309D01*
X52970238Y-82417500D02*
X53022619Y-82522261D01*
X53022619Y-82731785D01*
X52970238Y-82836547D01*
X52865476Y-82888928D01*
X52446428Y-82888928D01*
X52341666Y-82836547D01*
X52289285Y-82731785D01*
X52289285Y-82522261D01*
X52341666Y-82417500D01*
X52446428Y-82365119D01*
X52551190Y-82365119D01*
X52655952Y-82888928D01*
X53022619Y-81893690D02*
X52289285Y-81893690D01*
X52498809Y-81893690D02*
X52394047Y-81841309D01*
X52341666Y-81788928D01*
X52289285Y-81684166D01*
X52289285Y-81579404D01*
X52289285Y-81317500D02*
X53022619Y-81107976D01*
X52498809Y-80898452D01*
X53022619Y-80688928D01*
X52289285Y-80479404D01*
X52970238Y-79641309D02*
X53022619Y-79746071D01*
X53022619Y-79955595D01*
X52970238Y-80060357D01*
X52865476Y-80112738D01*
X52446428Y-80112738D01*
X52341666Y-80060357D01*
X52289285Y-79955595D01*
X52289285Y-79746071D01*
X52341666Y-79641309D01*
X52446428Y-79588928D01*
X52551190Y-79588928D01*
X52655952Y-80112738D01*
X53022619Y-79117500D02*
X52289285Y-79117500D01*
X51922619Y-79117500D02*
X51975000Y-79169880D01*
X52027380Y-79117500D01*
X51975000Y-79065119D01*
X51922619Y-79117500D01*
X52027380Y-79117500D01*
X52289285Y-78750833D02*
X52289285Y-78331785D01*
X51922619Y-78593690D02*
X52865476Y-78593690D01*
X52970238Y-78541309D01*
X53022619Y-78436547D01*
X53022619Y-78331785D01*
X52970238Y-77546071D02*
X53022619Y-77650833D01*
X53022619Y-77860357D01*
X52970238Y-77965119D01*
X52865476Y-78017500D01*
X52446428Y-78017500D01*
X52341666Y-77965119D01*
X52289285Y-77860357D01*
X52289285Y-77650833D01*
X52341666Y-77546071D01*
X52446428Y-77493690D01*
X52551190Y-77493690D01*
X52655952Y-78017500D01*
X53022619Y-77022261D02*
X52289285Y-77022261D01*
X52498809Y-77022261D02*
X52394047Y-76969880D01*
X52341666Y-76917500D01*
X52289285Y-76812738D01*
X52289285Y-76707976D01*
X52289285Y-76341309D02*
X53022619Y-76341309D01*
X52394047Y-76341309D02*
X52341666Y-76288928D01*
X52289285Y-76184166D01*
X52289285Y-76027023D01*
X52341666Y-75922261D01*
X52446428Y-75869880D01*
X53022619Y-75869880D01*
X52917857Y-75346071D02*
X52970238Y-75293690D01*
X53022619Y-75346071D01*
X52970238Y-75398452D01*
X52917857Y-75346071D01*
X53022619Y-75346071D01*
X52341666Y-75346071D02*
X52394047Y-75293690D01*
X52446428Y-75346071D01*
X52394047Y-75398452D01*
X52341666Y-75346071D01*
X52446428Y-75346071D01*
X53022619Y-73984166D02*
X51922619Y-73984166D01*
X52708333Y-73617500D01*
X51922619Y-73250833D01*
X53022619Y-73250833D01*
X52027380Y-72779404D02*
X51975000Y-72727023D01*
X51922619Y-72622261D01*
X51922619Y-72360357D01*
X51975000Y-72255595D01*
X52027380Y-72203214D01*
X52132142Y-72150833D01*
X52236904Y-72150833D01*
X52394047Y-72203214D01*
X53022619Y-72831785D01*
X53022619Y-72150833D01*
X52970238Y-71627023D02*
X53022619Y-71627023D01*
X53127380Y-71679404D01*
X53179761Y-71731785D01*
X52027380Y-70369880D02*
X51975000Y-70317500D01*
X51922619Y-70212738D01*
X51922619Y-69950833D01*
X51975000Y-69846071D01*
X52027380Y-69793690D01*
X52132142Y-69741309D01*
X52236904Y-69741309D01*
X52394047Y-69793690D01*
X53022619Y-70422261D01*
X53022619Y-69741309D01*
X52917857Y-69269880D02*
X52970238Y-69217500D01*
X53022619Y-69269880D01*
X52970238Y-69322261D01*
X52917857Y-69269880D01*
X53022619Y-69269880D01*
X51922619Y-68222261D02*
X51922619Y-68746071D01*
X52446428Y-68798452D01*
X52394047Y-68746071D01*
X52341666Y-68641309D01*
X52341666Y-68379404D01*
X52394047Y-68274642D01*
X52446428Y-68222261D01*
X52551190Y-68169880D01*
X52813095Y-68169880D01*
X52917857Y-68222261D01*
X52970238Y-68274642D01*
X53022619Y-68379404D01*
X53022619Y-68641309D01*
X52970238Y-68746071D01*
X52917857Y-68798452D01*
X53022619Y-67698452D02*
X52289285Y-67698452D01*
X52394047Y-67698452D02*
X52341666Y-67646071D01*
X52289285Y-67541309D01*
X52289285Y-67384166D01*
X52341666Y-67279404D01*
X52446428Y-67227023D01*
X53022619Y-67227023D01*
X52446428Y-67227023D02*
X52341666Y-67174642D01*
X52289285Y-67069880D01*
X52289285Y-66912738D01*
X52341666Y-66807976D01*
X52446428Y-66755595D01*
X53022619Y-66755595D01*
X53022619Y-66231785D02*
X52289285Y-66231785D01*
X52394047Y-66231785D02*
X52341666Y-66179404D01*
X52289285Y-66074642D01*
X52289285Y-65917500D01*
X52341666Y-65812738D01*
X52446428Y-65760357D01*
X53022619Y-65760357D01*
X52446428Y-65760357D02*
X52341666Y-65707976D01*
X52289285Y-65603214D01*
X52289285Y-65446071D01*
X52341666Y-65341309D01*
X52446428Y-65288928D01*
X53022619Y-65288928D01*
X52970238Y-64712738D02*
X53022619Y-64712738D01*
X53127380Y-64765119D01*
X53179761Y-64817500D01*
X53022619Y-63403214D02*
X51922619Y-63403214D01*
X52708333Y-63036547D01*
X51922619Y-62669880D01*
X53022619Y-62669880D01*
X51922619Y-62250833D02*
X51922619Y-61569880D01*
X52341666Y-61936547D01*
X52341666Y-61779404D01*
X52394047Y-61674642D01*
X52446428Y-61622261D01*
X52551190Y-61569880D01*
X52813095Y-61569880D01*
X52917857Y-61622261D01*
X52970238Y-61674642D01*
X53022619Y-61779404D01*
X53022619Y-62093690D01*
X52970238Y-62198452D01*
X52917857Y-62250833D01*
X52970238Y-61046071D02*
X53022619Y-61046071D01*
X53127380Y-61098452D01*
X53179761Y-61150833D01*
X51922619Y-59841309D02*
X51922619Y-59160357D01*
X52341666Y-59527023D01*
X52341666Y-59369880D01*
X52394047Y-59265119D01*
X52446428Y-59212738D01*
X52551190Y-59160357D01*
X52813095Y-59160357D01*
X52917857Y-59212738D01*
X52970238Y-59265119D01*
X53022619Y-59369880D01*
X53022619Y-59684166D01*
X52970238Y-59788928D01*
X52917857Y-59841309D01*
X53022619Y-58688928D02*
X52289285Y-58688928D01*
X52394047Y-58688928D02*
X52341666Y-58636547D01*
X52289285Y-58531785D01*
X52289285Y-58374642D01*
X52341666Y-58269880D01*
X52446428Y-58217500D01*
X53022619Y-58217500D01*
X52446428Y-58217500D02*
X52341666Y-58165119D01*
X52289285Y-58060357D01*
X52289285Y-57903214D01*
X52341666Y-57798452D01*
X52446428Y-57746071D01*
X53022619Y-57746071D01*
X53022619Y-57222261D02*
X52289285Y-57222261D01*
X52394047Y-57222261D02*
X52341666Y-57169880D01*
X52289285Y-57065119D01*
X52289285Y-56907976D01*
X52341666Y-56803214D01*
X52446428Y-56750833D01*
X53022619Y-56750833D01*
X52446428Y-56750833D02*
X52341666Y-56698452D01*
X52289285Y-56593690D01*
X52289285Y-56436547D01*
X52341666Y-56331785D01*
X52446428Y-56279404D01*
X53022619Y-56279404D01*
%TD*%
M02*
