%TF.GenerationSoftware,KiCad,Pcbnew,(5.1.10)-1*%
%TF.CreationDate,2025-03-09T14:01:04+01:00*%
%TF.ProjectId,EA-Modul,45412d4d-6f64-4756-9c2e-6b696361645f,rev?*%
%TF.SameCoordinates,Original*%
%TF.FileFunction,Legend,Top*%
%TF.FilePolarity,Positive*%
%FSLAX46Y46*%
G04 Gerber Fmt 4.6, Leading zero omitted, Abs format (unit mm)*
G04 Created by KiCad (PCBNEW (5.1.10)-1) date 2025-03-09 14:01:04*
%MOMM*%
%LPD*%
G01*
G04 APERTURE LIST*
%ADD10C,0.120000*%
%ADD11C,0.250000*%
%ADD12C,0.100000*%
%ADD13C,0.200000*%
%ADD14C,0.150000*%
G04 APERTURE END LIST*
D10*
%TO.C,U3*%
X90364000Y-122952000D02*
G75*
G02*
X90364000Y-124952000I0J-1000000D01*
G01*
X90364000Y-124952000D02*
X90364000Y-130412000D01*
X90364000Y-130412000D02*
X141284000Y-130412000D01*
X141284000Y-130412000D02*
X141284000Y-117492000D01*
X141284000Y-117492000D02*
X90364000Y-117492000D01*
X90364000Y-117492000D02*
X90364000Y-122952000D01*
%TO.C,R1*%
X69374000Y-130532000D02*
X69374000Y-130202000D01*
X69374000Y-130202000D02*
X75914000Y-130202000D01*
X75914000Y-130202000D02*
X75914000Y-130532000D01*
X69374000Y-132612000D02*
X69374000Y-132942000D01*
X69374000Y-132942000D02*
X75914000Y-132942000D01*
X75914000Y-132942000D02*
X75914000Y-132612000D01*
%TO.C,C18*%
X118468000Y-61352000D02*
X118468000Y-64592000D01*
X116228000Y-61352000D02*
X116228000Y-64592000D01*
X118468000Y-61352000D02*
X118403000Y-61352000D01*
X116293000Y-61352000D02*
X116228000Y-61352000D01*
X118468000Y-64592000D02*
X118403000Y-64592000D01*
X116293000Y-64592000D02*
X116228000Y-64592000D01*
%TO.C,C17*%
X135740000Y-61098000D02*
X135740000Y-64338000D01*
X133500000Y-61098000D02*
X133500000Y-64338000D01*
X135740000Y-61098000D02*
X135675000Y-61098000D01*
X133565000Y-61098000D02*
X133500000Y-61098000D01*
X135740000Y-64338000D02*
X135675000Y-64338000D01*
X133565000Y-64338000D02*
X133500000Y-64338000D01*
%TO.C,C16*%
X116228000Y-79110000D02*
X116228000Y-75870000D01*
X118468000Y-79110000D02*
X118468000Y-75870000D01*
X116228000Y-79110000D02*
X116293000Y-79110000D01*
X118403000Y-79110000D02*
X118468000Y-79110000D01*
X116228000Y-75870000D02*
X116293000Y-75870000D01*
X118403000Y-75870000D02*
X118468000Y-75870000D01*
%TO.C,C15*%
X133500000Y-78856000D02*
X133500000Y-75616000D01*
X135740000Y-78856000D02*
X135740000Y-75616000D01*
X133500000Y-78856000D02*
X133565000Y-78856000D01*
X135675000Y-78856000D02*
X135740000Y-78856000D01*
X133500000Y-75616000D02*
X133565000Y-75616000D01*
X135675000Y-75616000D02*
X135740000Y-75616000D01*
%TO.C,C14*%
X118468000Y-71004000D02*
X118468000Y-74244000D01*
X116228000Y-71004000D02*
X116228000Y-74244000D01*
X118468000Y-71004000D02*
X118403000Y-71004000D01*
X116293000Y-71004000D02*
X116228000Y-71004000D01*
X118468000Y-74244000D02*
X118403000Y-74244000D01*
X116293000Y-74244000D02*
X116228000Y-74244000D01*
%TO.C,C13*%
X135740000Y-70750000D02*
X135740000Y-73990000D01*
X133500000Y-70750000D02*
X133500000Y-73990000D01*
X135740000Y-70750000D02*
X135675000Y-70750000D01*
X133565000Y-70750000D02*
X133500000Y-70750000D01*
X135740000Y-73990000D02*
X135675000Y-73990000D01*
X133565000Y-73990000D02*
X133500000Y-73990000D01*
%TO.C,C12*%
X118468000Y-66178000D02*
X118468000Y-69418000D01*
X116228000Y-66178000D02*
X116228000Y-69418000D01*
X118468000Y-66178000D02*
X118403000Y-66178000D01*
X116293000Y-66178000D02*
X116228000Y-66178000D01*
X118468000Y-69418000D02*
X118403000Y-69418000D01*
X116293000Y-69418000D02*
X116228000Y-69418000D01*
%TO.C,C11*%
X135740000Y-65924000D02*
X135740000Y-69164000D01*
X133500000Y-65924000D02*
X133500000Y-69164000D01*
X135740000Y-65924000D02*
X135675000Y-65924000D01*
X133565000Y-65924000D02*
X133500000Y-65924000D01*
X135740000Y-69164000D02*
X135675000Y-69164000D01*
X133565000Y-69164000D02*
X133500000Y-69164000D01*
%TO.C,U9*%
X125206000Y-62424000D02*
G75*
G02*
X123206000Y-62424000I-1000000J0D01*
G01*
X123206000Y-62424000D02*
X121956000Y-62424000D01*
X121956000Y-62424000D02*
X121956000Y-82864000D01*
X121956000Y-82864000D02*
X126456000Y-82864000D01*
X126456000Y-82864000D02*
X126456000Y-62424000D01*
X126456000Y-62424000D02*
X125206000Y-62424000D01*
%TO.C,U8*%
X142478000Y-62170000D02*
G75*
G02*
X140478000Y-62170000I-1000000J0D01*
G01*
X140478000Y-62170000D02*
X139228000Y-62170000D01*
X139228000Y-62170000D02*
X139228000Y-82610000D01*
X139228000Y-82610000D02*
X143728000Y-82610000D01*
X143728000Y-82610000D02*
X143728000Y-62170000D01*
X143728000Y-62170000D02*
X142478000Y-62170000D01*
%TO.C,U7*%
X84312000Y-74870000D02*
G75*
G02*
X82312000Y-74870000I-1000000J0D01*
G01*
X82312000Y-74870000D02*
X81062000Y-74870000D01*
X81062000Y-74870000D02*
X81062000Y-92770000D01*
X81062000Y-92770000D02*
X85562000Y-92770000D01*
X85562000Y-92770000D02*
X85562000Y-74870000D01*
X85562000Y-74870000D02*
X84312000Y-74870000D01*
%TO.C,U6*%
X91380000Y-78248000D02*
G75*
G02*
X91380000Y-80248000I0J-1000000D01*
G01*
X91380000Y-80248000D02*
X91380000Y-81498000D01*
X91380000Y-81498000D02*
X111820000Y-81498000D01*
X111820000Y-81498000D02*
X111820000Y-76998000D01*
X111820000Y-76998000D02*
X91380000Y-76998000D01*
X91380000Y-76998000D02*
X91380000Y-78248000D01*
%TO.C,U5*%
X84312000Y-119320000D02*
G75*
G02*
X82312000Y-119320000I-1000000J0D01*
G01*
X82312000Y-119320000D02*
X81062000Y-119320000D01*
X81062000Y-119320000D02*
X81062000Y-137220000D01*
X81062000Y-137220000D02*
X85562000Y-137220000D01*
X85562000Y-137220000D02*
X85562000Y-119320000D01*
X85562000Y-119320000D02*
X84312000Y-119320000D01*
%TO.C,U4*%
X84312000Y-96460000D02*
G75*
G02*
X82312000Y-96460000I-1000000J0D01*
G01*
X82312000Y-96460000D02*
X81062000Y-96460000D01*
X81062000Y-96460000D02*
X81062000Y-114360000D01*
X81062000Y-114360000D02*
X85562000Y-114360000D01*
X85562000Y-114360000D02*
X85562000Y-96460000D01*
X85562000Y-96460000D02*
X84312000Y-96460000D01*
%TO.C,U2*%
X90364000Y-98568000D02*
G75*
G02*
X90364000Y-100568000I0J-1000000D01*
G01*
X90364000Y-100568000D02*
X90364000Y-106028000D01*
X90364000Y-106028000D02*
X141284000Y-106028000D01*
X141284000Y-106028000D02*
X141284000Y-93108000D01*
X141284000Y-93108000D02*
X90364000Y-93108000D01*
X90364000Y-93108000D02*
X90364000Y-98568000D01*
%TO.C,U1*%
X104962000Y-63738000D02*
G75*
G02*
X104962000Y-61738000I0J1000000D01*
G01*
X104962000Y-61738000D02*
X104962000Y-60488000D01*
X104962000Y-60488000D02*
X79442000Y-60488000D01*
X79442000Y-60488000D02*
X79442000Y-64988000D01*
X79442000Y-64988000D02*
X104962000Y-64988000D01*
X104962000Y-64988000D02*
X104962000Y-63738000D01*
%TO.C,J4*%
X156249000Y-46636000D02*
X156249000Y-57116000D01*
X156249000Y-57116000D02*
X125279000Y-57116000D01*
X125279000Y-57116000D02*
X125279000Y-46636000D01*
X146554000Y-58010338D02*
X146054000Y-58010338D01*
X146054000Y-58010338D02*
X146304000Y-57577325D01*
X146304000Y-57577325D02*
X146554000Y-58010338D01*
%TO.C,J3*%
X118304000Y-55686000D02*
X123504000Y-55686000D01*
X118304000Y-50546000D02*
X118304000Y-55686000D01*
X123504000Y-47946000D02*
X123504000Y-55686000D01*
X118304000Y-50546000D02*
X120904000Y-50546000D01*
X120904000Y-50546000D02*
X120904000Y-47946000D01*
X120904000Y-47946000D02*
X123504000Y-47946000D01*
X118304000Y-49276000D02*
X118304000Y-47946000D01*
X118304000Y-47946000D02*
X119634000Y-47946000D01*
%TO.C,J2*%
X86928000Y-72450000D02*
X86928000Y-69790000D01*
X81788000Y-72450000D02*
X86928000Y-72450000D01*
X81788000Y-69790000D02*
X86928000Y-69790000D01*
X81788000Y-72450000D02*
X81788000Y-69790000D01*
X80518000Y-72450000D02*
X79188000Y-72450000D01*
X79188000Y-72450000D02*
X79188000Y-71120000D01*
%TO.C,J1*%
X164946000Y-130048000D02*
X154466000Y-130048000D01*
X154466000Y-130048000D02*
X154466000Y-60528000D01*
X154466000Y-60528000D02*
X164946000Y-60528000D01*
X153571662Y-70608000D02*
X153571662Y-70108000D01*
X153571662Y-70108000D02*
X154004675Y-70358000D01*
X154004675Y-70358000D02*
X153571662Y-70608000D01*
%TO.C,C10*%
X119812000Y-98702000D02*
X123052000Y-98702000D01*
X119812000Y-100942000D02*
X123052000Y-100942000D01*
X119812000Y-98702000D02*
X119812000Y-98767000D01*
X119812000Y-100877000D02*
X119812000Y-100942000D01*
X123052000Y-98702000D02*
X123052000Y-98767000D01*
X123052000Y-100877000D02*
X123052000Y-100942000D01*
%TO.C,C9*%
X107800000Y-64146000D02*
X107800000Y-67386000D01*
X105560000Y-64146000D02*
X105560000Y-67386000D01*
X107800000Y-64146000D02*
X107735000Y-64146000D01*
X105625000Y-64146000D02*
X105560000Y-64146000D01*
X107800000Y-67386000D02*
X107735000Y-67386000D01*
X105625000Y-67386000D02*
X105560000Y-67386000D01*
%TO.C,C8*%
X146662000Y-127900000D02*
X146662000Y-131140000D01*
X144422000Y-127900000D02*
X144422000Y-131140000D01*
X146662000Y-127900000D02*
X146597000Y-127900000D01*
X144487000Y-127900000D02*
X144422000Y-127900000D01*
X146662000Y-131140000D02*
X146597000Y-131140000D01*
X144487000Y-131140000D02*
X144422000Y-131140000D01*
%TO.C,C7*%
X147470000Y-65902000D02*
X147470000Y-62662000D01*
X149710000Y-65902000D02*
X149710000Y-62662000D01*
X147470000Y-65902000D02*
X147535000Y-65902000D01*
X149645000Y-65902000D02*
X149710000Y-65902000D01*
X147470000Y-62662000D02*
X147535000Y-62662000D01*
X149645000Y-62662000D02*
X149710000Y-62662000D01*
%TO.C,C6*%
X152734000Y-129560000D02*
G75*
G03*
X152734000Y-129560000I-2620000J0D01*
G01*
X147534000Y-129560000D02*
X152694000Y-129560000D01*
X147534000Y-129520000D02*
X152694000Y-129520000D01*
X147535000Y-129480000D02*
X152693000Y-129480000D01*
X147536000Y-129440000D02*
X152692000Y-129440000D01*
X147538000Y-129400000D02*
X152690000Y-129400000D01*
X147541000Y-129360000D02*
X152687000Y-129360000D01*
X147545000Y-129320000D02*
X149074000Y-129320000D01*
X151154000Y-129320000D02*
X152683000Y-129320000D01*
X147549000Y-129280000D02*
X149074000Y-129280000D01*
X151154000Y-129280000D02*
X152679000Y-129280000D01*
X147553000Y-129240000D02*
X149074000Y-129240000D01*
X151154000Y-129240000D02*
X152675000Y-129240000D01*
X147558000Y-129200000D02*
X149074000Y-129200000D01*
X151154000Y-129200000D02*
X152670000Y-129200000D01*
X147564000Y-129160000D02*
X149074000Y-129160000D01*
X151154000Y-129160000D02*
X152664000Y-129160000D01*
X147571000Y-129120000D02*
X149074000Y-129120000D01*
X151154000Y-129120000D02*
X152657000Y-129120000D01*
X147578000Y-129080000D02*
X149074000Y-129080000D01*
X151154000Y-129080000D02*
X152650000Y-129080000D01*
X147586000Y-129040000D02*
X149074000Y-129040000D01*
X151154000Y-129040000D02*
X152642000Y-129040000D01*
X147594000Y-129000000D02*
X149074000Y-129000000D01*
X151154000Y-129000000D02*
X152634000Y-129000000D01*
X147603000Y-128960000D02*
X149074000Y-128960000D01*
X151154000Y-128960000D02*
X152625000Y-128960000D01*
X147613000Y-128920000D02*
X149074000Y-128920000D01*
X151154000Y-128920000D02*
X152615000Y-128920000D01*
X147623000Y-128880000D02*
X149074000Y-128880000D01*
X151154000Y-128880000D02*
X152605000Y-128880000D01*
X147634000Y-128839000D02*
X149074000Y-128839000D01*
X151154000Y-128839000D02*
X152594000Y-128839000D01*
X147646000Y-128799000D02*
X149074000Y-128799000D01*
X151154000Y-128799000D02*
X152582000Y-128799000D01*
X147659000Y-128759000D02*
X149074000Y-128759000D01*
X151154000Y-128759000D02*
X152569000Y-128759000D01*
X147672000Y-128719000D02*
X149074000Y-128719000D01*
X151154000Y-128719000D02*
X152556000Y-128719000D01*
X147686000Y-128679000D02*
X149074000Y-128679000D01*
X151154000Y-128679000D02*
X152542000Y-128679000D01*
X147700000Y-128639000D02*
X149074000Y-128639000D01*
X151154000Y-128639000D02*
X152528000Y-128639000D01*
X147716000Y-128599000D02*
X149074000Y-128599000D01*
X151154000Y-128599000D02*
X152512000Y-128599000D01*
X147732000Y-128559000D02*
X149074000Y-128559000D01*
X151154000Y-128559000D02*
X152496000Y-128559000D01*
X147749000Y-128519000D02*
X149074000Y-128519000D01*
X151154000Y-128519000D02*
X152479000Y-128519000D01*
X147766000Y-128479000D02*
X149074000Y-128479000D01*
X151154000Y-128479000D02*
X152462000Y-128479000D01*
X147785000Y-128439000D02*
X149074000Y-128439000D01*
X151154000Y-128439000D02*
X152443000Y-128439000D01*
X147804000Y-128399000D02*
X149074000Y-128399000D01*
X151154000Y-128399000D02*
X152424000Y-128399000D01*
X147824000Y-128359000D02*
X149074000Y-128359000D01*
X151154000Y-128359000D02*
X152404000Y-128359000D01*
X147846000Y-128319000D02*
X149074000Y-128319000D01*
X151154000Y-128319000D02*
X152382000Y-128319000D01*
X147867000Y-128279000D02*
X149074000Y-128279000D01*
X151154000Y-128279000D02*
X152361000Y-128279000D01*
X147890000Y-128239000D02*
X149074000Y-128239000D01*
X151154000Y-128239000D02*
X152338000Y-128239000D01*
X147914000Y-128199000D02*
X149074000Y-128199000D01*
X151154000Y-128199000D02*
X152314000Y-128199000D01*
X147939000Y-128159000D02*
X149074000Y-128159000D01*
X151154000Y-128159000D02*
X152289000Y-128159000D01*
X147965000Y-128119000D02*
X149074000Y-128119000D01*
X151154000Y-128119000D02*
X152263000Y-128119000D01*
X147992000Y-128079000D02*
X149074000Y-128079000D01*
X151154000Y-128079000D02*
X152236000Y-128079000D01*
X148019000Y-128039000D02*
X149074000Y-128039000D01*
X151154000Y-128039000D02*
X152209000Y-128039000D01*
X148049000Y-127999000D02*
X149074000Y-127999000D01*
X151154000Y-127999000D02*
X152179000Y-127999000D01*
X148079000Y-127959000D02*
X149074000Y-127959000D01*
X151154000Y-127959000D02*
X152149000Y-127959000D01*
X148110000Y-127919000D02*
X149074000Y-127919000D01*
X151154000Y-127919000D02*
X152118000Y-127919000D01*
X148143000Y-127879000D02*
X149074000Y-127879000D01*
X151154000Y-127879000D02*
X152085000Y-127879000D01*
X148177000Y-127839000D02*
X149074000Y-127839000D01*
X151154000Y-127839000D02*
X152051000Y-127839000D01*
X148213000Y-127799000D02*
X149074000Y-127799000D01*
X151154000Y-127799000D02*
X152015000Y-127799000D01*
X148250000Y-127759000D02*
X149074000Y-127759000D01*
X151154000Y-127759000D02*
X151978000Y-127759000D01*
X148288000Y-127719000D02*
X149074000Y-127719000D01*
X151154000Y-127719000D02*
X151940000Y-127719000D01*
X148329000Y-127679000D02*
X149074000Y-127679000D01*
X151154000Y-127679000D02*
X151899000Y-127679000D01*
X148371000Y-127639000D02*
X149074000Y-127639000D01*
X151154000Y-127639000D02*
X151857000Y-127639000D01*
X148415000Y-127599000D02*
X149074000Y-127599000D01*
X151154000Y-127599000D02*
X151813000Y-127599000D01*
X148461000Y-127559000D02*
X149074000Y-127559000D01*
X151154000Y-127559000D02*
X151767000Y-127559000D01*
X148509000Y-127519000D02*
X149074000Y-127519000D01*
X151154000Y-127519000D02*
X151719000Y-127519000D01*
X148560000Y-127479000D02*
X149074000Y-127479000D01*
X151154000Y-127479000D02*
X151668000Y-127479000D01*
X148614000Y-127439000D02*
X149074000Y-127439000D01*
X151154000Y-127439000D02*
X151614000Y-127439000D01*
X148671000Y-127399000D02*
X149074000Y-127399000D01*
X151154000Y-127399000D02*
X151557000Y-127399000D01*
X148731000Y-127359000D02*
X149074000Y-127359000D01*
X151154000Y-127359000D02*
X151497000Y-127359000D01*
X148795000Y-127319000D02*
X149074000Y-127319000D01*
X151154000Y-127319000D02*
X151433000Y-127319000D01*
X148863000Y-127279000D02*
X149074000Y-127279000D01*
X151154000Y-127279000D02*
X151365000Y-127279000D01*
X148936000Y-127239000D02*
X151292000Y-127239000D01*
X149016000Y-127199000D02*
X151212000Y-127199000D01*
X149103000Y-127159000D02*
X151125000Y-127159000D01*
X149199000Y-127119000D02*
X151029000Y-127119000D01*
X149309000Y-127079000D02*
X150919000Y-127079000D01*
X149437000Y-127039000D02*
X150791000Y-127039000D01*
X149596000Y-126999000D02*
X150632000Y-126999000D01*
X149830000Y-126959000D02*
X150398000Y-126959000D01*
X148639000Y-132364775D02*
X148639000Y-131864775D01*
X148389000Y-132114775D02*
X148889000Y-132114775D01*
%TO.C,C5*%
X119772000Y-122578000D02*
X123012000Y-122578000D01*
X119772000Y-124818000D02*
X123012000Y-124818000D01*
X119772000Y-122578000D02*
X119772000Y-122643000D01*
X119772000Y-124753000D02*
X119772000Y-124818000D01*
X123012000Y-122578000D02*
X123012000Y-122643000D01*
X123012000Y-124753000D02*
X123012000Y-124818000D01*
%TO.C,C4*%
X76824000Y-137010000D02*
X73584000Y-137010000D01*
X76824000Y-134770000D02*
X73584000Y-134770000D01*
X76824000Y-137010000D02*
X76824000Y-136945000D01*
X76824000Y-134835000D02*
X76824000Y-134770000D01*
X73584000Y-137010000D02*
X73584000Y-136945000D01*
X73584000Y-134835000D02*
X73584000Y-134770000D01*
%TO.C,C3*%
X84466000Y-116228000D02*
X87706000Y-116228000D01*
X84466000Y-118468000D02*
X87706000Y-118468000D01*
X84466000Y-116228000D02*
X84466000Y-116293000D01*
X84466000Y-118403000D02*
X84466000Y-118468000D01*
X87706000Y-116228000D02*
X87706000Y-116293000D01*
X87706000Y-118403000D02*
X87706000Y-118468000D01*
%TO.C,C2*%
X130198000Y-66410000D02*
X130198000Y-63170000D01*
X132438000Y-66410000D02*
X132438000Y-63170000D01*
X130198000Y-66410000D02*
X130263000Y-66410000D01*
X132373000Y-66410000D02*
X132438000Y-66410000D01*
X130198000Y-63170000D02*
X130263000Y-63170000D01*
X132373000Y-63170000D02*
X132438000Y-63170000D01*
%TO.C,C1*%
X81204000Y-52578000D02*
G75*
G03*
X81204000Y-52578000I-4120000J0D01*
G01*
X77084000Y-48498000D02*
X77084000Y-56658000D01*
X77124000Y-48498000D02*
X77124000Y-56658000D01*
X77164000Y-48498000D02*
X77164000Y-56658000D01*
X77204000Y-48499000D02*
X77204000Y-56657000D01*
X77244000Y-48501000D02*
X77244000Y-56655000D01*
X77284000Y-48502000D02*
X77284000Y-56654000D01*
X77324000Y-48504000D02*
X77324000Y-56652000D01*
X77364000Y-48507000D02*
X77364000Y-56649000D01*
X77404000Y-48510000D02*
X77404000Y-56646000D01*
X77444000Y-48513000D02*
X77444000Y-56643000D01*
X77484000Y-48517000D02*
X77484000Y-56639000D01*
X77524000Y-48521000D02*
X77524000Y-56635000D01*
X77564000Y-48526000D02*
X77564000Y-56630000D01*
X77604000Y-48530000D02*
X77604000Y-56626000D01*
X77644000Y-48536000D02*
X77644000Y-56620000D01*
X77684000Y-48541000D02*
X77684000Y-56615000D01*
X77724000Y-48548000D02*
X77724000Y-56608000D01*
X77764000Y-48554000D02*
X77764000Y-56602000D01*
X77805000Y-48561000D02*
X77805000Y-56595000D01*
X77845000Y-48568000D02*
X77845000Y-56588000D01*
X77885000Y-48576000D02*
X77885000Y-56580000D01*
X77925000Y-48584000D02*
X77925000Y-56572000D01*
X77965000Y-48593000D02*
X77965000Y-51538000D01*
X77965000Y-53618000D02*
X77965000Y-56563000D01*
X78005000Y-48602000D02*
X78005000Y-51538000D01*
X78005000Y-53618000D02*
X78005000Y-56554000D01*
X78045000Y-48611000D02*
X78045000Y-51538000D01*
X78045000Y-53618000D02*
X78045000Y-56545000D01*
X78085000Y-48621000D02*
X78085000Y-51538000D01*
X78085000Y-53618000D02*
X78085000Y-56535000D01*
X78125000Y-48631000D02*
X78125000Y-51538000D01*
X78125000Y-53618000D02*
X78125000Y-56525000D01*
X78165000Y-48642000D02*
X78165000Y-51538000D01*
X78165000Y-53618000D02*
X78165000Y-56514000D01*
X78205000Y-48653000D02*
X78205000Y-51538000D01*
X78205000Y-53618000D02*
X78205000Y-56503000D01*
X78245000Y-48664000D02*
X78245000Y-51538000D01*
X78245000Y-53618000D02*
X78245000Y-56492000D01*
X78285000Y-48676000D02*
X78285000Y-51538000D01*
X78285000Y-53618000D02*
X78285000Y-56480000D01*
X78325000Y-48689000D02*
X78325000Y-51538000D01*
X78325000Y-53618000D02*
X78325000Y-56467000D01*
X78365000Y-48701000D02*
X78365000Y-51538000D01*
X78365000Y-53618000D02*
X78365000Y-56455000D01*
X78405000Y-48715000D02*
X78405000Y-51538000D01*
X78405000Y-53618000D02*
X78405000Y-56441000D01*
X78445000Y-48728000D02*
X78445000Y-51538000D01*
X78445000Y-53618000D02*
X78445000Y-56428000D01*
X78485000Y-48743000D02*
X78485000Y-51538000D01*
X78485000Y-53618000D02*
X78485000Y-56413000D01*
X78525000Y-48757000D02*
X78525000Y-51538000D01*
X78525000Y-53618000D02*
X78525000Y-56399000D01*
X78565000Y-48773000D02*
X78565000Y-51538000D01*
X78565000Y-53618000D02*
X78565000Y-56383000D01*
X78605000Y-48788000D02*
X78605000Y-51538000D01*
X78605000Y-53618000D02*
X78605000Y-56368000D01*
X78645000Y-48804000D02*
X78645000Y-51538000D01*
X78645000Y-53618000D02*
X78645000Y-56352000D01*
X78685000Y-48821000D02*
X78685000Y-51538000D01*
X78685000Y-53618000D02*
X78685000Y-56335000D01*
X78725000Y-48838000D02*
X78725000Y-51538000D01*
X78725000Y-53618000D02*
X78725000Y-56318000D01*
X78765000Y-48856000D02*
X78765000Y-51538000D01*
X78765000Y-53618000D02*
X78765000Y-56300000D01*
X78805000Y-48874000D02*
X78805000Y-51538000D01*
X78805000Y-53618000D02*
X78805000Y-56282000D01*
X78845000Y-48892000D02*
X78845000Y-51538000D01*
X78845000Y-53618000D02*
X78845000Y-56264000D01*
X78885000Y-48912000D02*
X78885000Y-51538000D01*
X78885000Y-53618000D02*
X78885000Y-56244000D01*
X78925000Y-48931000D02*
X78925000Y-51538000D01*
X78925000Y-53618000D02*
X78925000Y-56225000D01*
X78965000Y-48951000D02*
X78965000Y-51538000D01*
X78965000Y-53618000D02*
X78965000Y-56205000D01*
X79005000Y-48972000D02*
X79005000Y-51538000D01*
X79005000Y-53618000D02*
X79005000Y-56184000D01*
X79045000Y-48994000D02*
X79045000Y-51538000D01*
X79045000Y-53618000D02*
X79045000Y-56162000D01*
X79085000Y-49016000D02*
X79085000Y-51538000D01*
X79085000Y-53618000D02*
X79085000Y-56140000D01*
X79125000Y-49038000D02*
X79125000Y-51538000D01*
X79125000Y-53618000D02*
X79125000Y-56118000D01*
X79165000Y-49061000D02*
X79165000Y-51538000D01*
X79165000Y-53618000D02*
X79165000Y-56095000D01*
X79205000Y-49085000D02*
X79205000Y-51538000D01*
X79205000Y-53618000D02*
X79205000Y-56071000D01*
X79245000Y-49109000D02*
X79245000Y-51538000D01*
X79245000Y-53618000D02*
X79245000Y-56047000D01*
X79285000Y-49134000D02*
X79285000Y-51538000D01*
X79285000Y-53618000D02*
X79285000Y-56022000D01*
X79325000Y-49160000D02*
X79325000Y-51538000D01*
X79325000Y-53618000D02*
X79325000Y-55996000D01*
X79365000Y-49186000D02*
X79365000Y-51538000D01*
X79365000Y-53618000D02*
X79365000Y-55970000D01*
X79405000Y-49213000D02*
X79405000Y-51538000D01*
X79405000Y-53618000D02*
X79405000Y-55943000D01*
X79445000Y-49240000D02*
X79445000Y-51538000D01*
X79445000Y-53618000D02*
X79445000Y-55916000D01*
X79485000Y-49269000D02*
X79485000Y-51538000D01*
X79485000Y-53618000D02*
X79485000Y-55887000D01*
X79525000Y-49298000D02*
X79525000Y-51538000D01*
X79525000Y-53618000D02*
X79525000Y-55858000D01*
X79565000Y-49328000D02*
X79565000Y-51538000D01*
X79565000Y-53618000D02*
X79565000Y-55828000D01*
X79605000Y-49358000D02*
X79605000Y-51538000D01*
X79605000Y-53618000D02*
X79605000Y-55798000D01*
X79645000Y-49389000D02*
X79645000Y-51538000D01*
X79645000Y-53618000D02*
X79645000Y-55767000D01*
X79685000Y-49422000D02*
X79685000Y-51538000D01*
X79685000Y-53618000D02*
X79685000Y-55734000D01*
X79725000Y-49454000D02*
X79725000Y-51538000D01*
X79725000Y-53618000D02*
X79725000Y-55702000D01*
X79765000Y-49488000D02*
X79765000Y-51538000D01*
X79765000Y-53618000D02*
X79765000Y-55668000D01*
X79805000Y-49523000D02*
X79805000Y-51538000D01*
X79805000Y-53618000D02*
X79805000Y-55633000D01*
X79845000Y-49559000D02*
X79845000Y-51538000D01*
X79845000Y-53618000D02*
X79845000Y-55597000D01*
X79885000Y-49595000D02*
X79885000Y-51538000D01*
X79885000Y-53618000D02*
X79885000Y-55561000D01*
X79925000Y-49633000D02*
X79925000Y-51538000D01*
X79925000Y-53618000D02*
X79925000Y-55523000D01*
X79965000Y-49671000D02*
X79965000Y-51538000D01*
X79965000Y-53618000D02*
X79965000Y-55485000D01*
X80005000Y-49711000D02*
X80005000Y-51538000D01*
X80005000Y-53618000D02*
X80005000Y-55445000D01*
X80045000Y-49752000D02*
X80045000Y-55404000D01*
X80085000Y-49794000D02*
X80085000Y-55362000D01*
X80125000Y-49837000D02*
X80125000Y-55319000D01*
X80165000Y-49881000D02*
X80165000Y-55275000D01*
X80205000Y-49927000D02*
X80205000Y-55229000D01*
X80245000Y-49974000D02*
X80245000Y-55182000D01*
X80285000Y-50022000D02*
X80285000Y-55134000D01*
X80325000Y-50073000D02*
X80325000Y-55083000D01*
X80365000Y-50124000D02*
X80365000Y-55032000D01*
X80405000Y-50178000D02*
X80405000Y-54978000D01*
X80445000Y-50233000D02*
X80445000Y-54923000D01*
X80485000Y-50291000D02*
X80485000Y-54865000D01*
X80525000Y-50350000D02*
X80525000Y-54806000D01*
X80565000Y-50412000D02*
X80565000Y-54744000D01*
X80605000Y-50476000D02*
X80605000Y-54680000D01*
X80645000Y-50544000D02*
X80645000Y-54612000D01*
X80685000Y-50614000D02*
X80685000Y-54542000D01*
X80725000Y-50688000D02*
X80725000Y-54468000D01*
X80765000Y-50765000D02*
X80765000Y-54391000D01*
X80805000Y-50847000D02*
X80805000Y-54309000D01*
X80845000Y-50933000D02*
X80845000Y-54223000D01*
X80885000Y-51026000D02*
X80885000Y-54130000D01*
X80925000Y-51125000D02*
X80925000Y-54031000D01*
X80965000Y-51232000D02*
X80965000Y-53924000D01*
X81005000Y-51349000D02*
X81005000Y-53807000D01*
X81045000Y-51480000D02*
X81045000Y-53676000D01*
X81085000Y-51630000D02*
X81085000Y-53526000D01*
X81125000Y-51810000D02*
X81125000Y-53346000D01*
X81165000Y-52045000D02*
X81165000Y-53111000D01*
X72674302Y-50263000D02*
X73474302Y-50263000D01*
X73074302Y-49863000D02*
X73074302Y-50663000D01*
D11*
%TO.C,X1*%
X55525000Y-91920000D02*
X55525000Y-94920000D01*
X57025000Y-93420000D02*
X54025000Y-93420000D01*
D12*
X60525000Y-132670000D02*
X60525000Y-136670000D01*
X62525000Y-134670000D02*
X58525000Y-134670000D01*
X62025000Y-134670000D02*
G75*
G03*
X62025000Y-134670000I-1500000J0D01*
G01*
X60525000Y-50170000D02*
X60525000Y-54170000D01*
X62525000Y-52170000D02*
X58525000Y-52170000D01*
X62025000Y-52170000D02*
G75*
G03*
X62025000Y-52170000I-1500000J0D01*
G01*
D13*
X51025000Y-54420000D02*
X58025000Y-54420000D01*
X51025000Y-132420000D02*
X51025000Y-54420000D01*
X58025000Y-132420000D02*
X51025000Y-132420000D01*
X66025000Y-137420000D02*
X58025000Y-137420000D01*
X66025000Y-49420000D02*
X66025000Y-137420000D01*
X58025000Y-49420000D02*
X66025000Y-49420000D01*
X58025000Y-49420000D02*
X58025000Y-137420000D01*
D12*
X66413600Y-132790000D02*
G75*
G03*
X66413600Y-132790000I-500000J0D01*
G01*
X66413600Y-130250000D02*
G75*
G03*
X66413600Y-130250000I-500000J0D01*
G01*
X66413600Y-54050000D02*
G75*
G03*
X66413600Y-54050000I-500000J0D01*
G01*
X61333600Y-132790000D02*
G75*
G03*
X61333600Y-132790000I-500000J0D01*
G01*
X61333600Y-130250000D02*
G75*
G03*
X61333600Y-130250000I-500000J0D01*
G01*
X61333600Y-54050000D02*
G75*
G03*
X61333600Y-54050000I-500000J0D01*
G01*
X59793600Y-137870000D02*
G75*
G03*
X59793600Y-137870000I-1500000J0D01*
G01*
X60198600Y-137870000D02*
X56388600Y-137870000D01*
X58293600Y-135965000D02*
X58293600Y-139775000D01*
X60185900Y-48982700D02*
X56375900Y-48982700D01*
X58280900Y-47077700D02*
X58280900Y-50887700D01*
X59780900Y-48982700D02*
G75*
G03*
X59780900Y-48982700I-1500000J0D01*
G01*
D13*
X60605000Y-46430000D02*
X55525000Y-46430000D01*
X55525000Y-51510000D02*
X47905000Y-51510000D01*
X55525000Y-46430000D02*
X55525000Y-51510000D01*
X55525000Y-140410000D02*
X60605000Y-140410000D01*
X55525000Y-135330000D02*
X55525000Y-140410000D01*
X47905000Y-135330000D02*
X55525000Y-135330000D01*
X47905000Y-51510000D02*
X47905000Y-135330000D01*
X60605000Y-140410000D02*
X60605000Y-46430000D01*
%TO.C,U3*%
D14*
X88816380Y-124713904D02*
X89625904Y-124713904D01*
X89721142Y-124666285D01*
X89768761Y-124618666D01*
X89816380Y-124523428D01*
X89816380Y-124332952D01*
X89768761Y-124237714D01*
X89721142Y-124190095D01*
X89625904Y-124142476D01*
X88816380Y-124142476D01*
X88816380Y-123761523D02*
X88816380Y-123142476D01*
X89197333Y-123475809D01*
X89197333Y-123332952D01*
X89244952Y-123237714D01*
X89292571Y-123190095D01*
X89387809Y-123142476D01*
X89625904Y-123142476D01*
X89721142Y-123190095D01*
X89768761Y-123237714D01*
X89816380Y-123332952D01*
X89816380Y-123618666D01*
X89768761Y-123713904D01*
X89721142Y-123761523D01*
%TO.C,R1*%
X73747333Y-129654380D02*
X73414000Y-129178190D01*
X73175904Y-129654380D02*
X73175904Y-128654380D01*
X73556857Y-128654380D01*
X73652095Y-128702000D01*
X73699714Y-128749619D01*
X73747333Y-128844857D01*
X73747333Y-128987714D01*
X73699714Y-129082952D01*
X73652095Y-129130571D01*
X73556857Y-129178190D01*
X73175904Y-129178190D01*
X74699714Y-129654380D02*
X74128285Y-129654380D01*
X74414000Y-129654380D02*
X74414000Y-128654380D01*
X74318761Y-128797238D01*
X74223523Y-128892476D01*
X74128285Y-128940095D01*
%TO.C,C18*%
X119955142Y-63614857D02*
X120002761Y-63662476D01*
X120050380Y-63805333D01*
X120050380Y-63900571D01*
X120002761Y-64043428D01*
X119907523Y-64138666D01*
X119812285Y-64186285D01*
X119621809Y-64233904D01*
X119478952Y-64233904D01*
X119288476Y-64186285D01*
X119193238Y-64138666D01*
X119098000Y-64043428D01*
X119050380Y-63900571D01*
X119050380Y-63805333D01*
X119098000Y-63662476D01*
X119145619Y-63614857D01*
X120050380Y-62662476D02*
X120050380Y-63233904D01*
X120050380Y-62948190D02*
X119050380Y-62948190D01*
X119193238Y-63043428D01*
X119288476Y-63138666D01*
X119336095Y-63233904D01*
X119478952Y-62091047D02*
X119431333Y-62186285D01*
X119383714Y-62233904D01*
X119288476Y-62281523D01*
X119240857Y-62281523D01*
X119145619Y-62233904D01*
X119098000Y-62186285D01*
X119050380Y-62091047D01*
X119050380Y-61900571D01*
X119098000Y-61805333D01*
X119145619Y-61757714D01*
X119240857Y-61710095D01*
X119288476Y-61710095D01*
X119383714Y-61757714D01*
X119431333Y-61805333D01*
X119478952Y-61900571D01*
X119478952Y-62091047D01*
X119526571Y-62186285D01*
X119574190Y-62233904D01*
X119669428Y-62281523D01*
X119859904Y-62281523D01*
X119955142Y-62233904D01*
X120002761Y-62186285D01*
X120050380Y-62091047D01*
X120050380Y-61900571D01*
X120002761Y-61805333D01*
X119955142Y-61757714D01*
X119859904Y-61710095D01*
X119669428Y-61710095D01*
X119574190Y-61757714D01*
X119526571Y-61805333D01*
X119478952Y-61900571D01*
%TO.C,C17*%
X137227142Y-63360857D02*
X137274761Y-63408476D01*
X137322380Y-63551333D01*
X137322380Y-63646571D01*
X137274761Y-63789428D01*
X137179523Y-63884666D01*
X137084285Y-63932285D01*
X136893809Y-63979904D01*
X136750952Y-63979904D01*
X136560476Y-63932285D01*
X136465238Y-63884666D01*
X136370000Y-63789428D01*
X136322380Y-63646571D01*
X136322380Y-63551333D01*
X136370000Y-63408476D01*
X136417619Y-63360857D01*
X137322380Y-62408476D02*
X137322380Y-62979904D01*
X137322380Y-62694190D02*
X136322380Y-62694190D01*
X136465238Y-62789428D01*
X136560476Y-62884666D01*
X136608095Y-62979904D01*
X136322380Y-62075142D02*
X136322380Y-61408476D01*
X137322380Y-61837047D01*
%TO.C,C16*%
X115455142Y-78132857D02*
X115502761Y-78180476D01*
X115550380Y-78323333D01*
X115550380Y-78418571D01*
X115502761Y-78561428D01*
X115407523Y-78656666D01*
X115312285Y-78704285D01*
X115121809Y-78751904D01*
X114978952Y-78751904D01*
X114788476Y-78704285D01*
X114693238Y-78656666D01*
X114598000Y-78561428D01*
X114550380Y-78418571D01*
X114550380Y-78323333D01*
X114598000Y-78180476D01*
X114645619Y-78132857D01*
X115550380Y-77180476D02*
X115550380Y-77751904D01*
X115550380Y-77466190D02*
X114550380Y-77466190D01*
X114693238Y-77561428D01*
X114788476Y-77656666D01*
X114836095Y-77751904D01*
X114550380Y-76323333D02*
X114550380Y-76513809D01*
X114598000Y-76609047D01*
X114645619Y-76656666D01*
X114788476Y-76751904D01*
X114978952Y-76799523D01*
X115359904Y-76799523D01*
X115455142Y-76751904D01*
X115502761Y-76704285D01*
X115550380Y-76609047D01*
X115550380Y-76418571D01*
X115502761Y-76323333D01*
X115455142Y-76275714D01*
X115359904Y-76228095D01*
X115121809Y-76228095D01*
X115026571Y-76275714D01*
X114978952Y-76323333D01*
X114931333Y-76418571D01*
X114931333Y-76609047D01*
X114978952Y-76704285D01*
X115026571Y-76751904D01*
X115121809Y-76799523D01*
%TO.C,C15*%
X132727142Y-77878857D02*
X132774761Y-77926476D01*
X132822380Y-78069333D01*
X132822380Y-78164571D01*
X132774761Y-78307428D01*
X132679523Y-78402666D01*
X132584285Y-78450285D01*
X132393809Y-78497904D01*
X132250952Y-78497904D01*
X132060476Y-78450285D01*
X131965238Y-78402666D01*
X131870000Y-78307428D01*
X131822380Y-78164571D01*
X131822380Y-78069333D01*
X131870000Y-77926476D01*
X131917619Y-77878857D01*
X132822380Y-76926476D02*
X132822380Y-77497904D01*
X132822380Y-77212190D02*
X131822380Y-77212190D01*
X131965238Y-77307428D01*
X132060476Y-77402666D01*
X132108095Y-77497904D01*
X131822380Y-76021714D02*
X131822380Y-76497904D01*
X132298571Y-76545523D01*
X132250952Y-76497904D01*
X132203333Y-76402666D01*
X132203333Y-76164571D01*
X132250952Y-76069333D01*
X132298571Y-76021714D01*
X132393809Y-75974095D01*
X132631904Y-75974095D01*
X132727142Y-76021714D01*
X132774761Y-76069333D01*
X132822380Y-76164571D01*
X132822380Y-76402666D01*
X132774761Y-76497904D01*
X132727142Y-76545523D01*
%TO.C,C14*%
X119955142Y-73266857D02*
X120002761Y-73314476D01*
X120050380Y-73457333D01*
X120050380Y-73552571D01*
X120002761Y-73695428D01*
X119907523Y-73790666D01*
X119812285Y-73838285D01*
X119621809Y-73885904D01*
X119478952Y-73885904D01*
X119288476Y-73838285D01*
X119193238Y-73790666D01*
X119098000Y-73695428D01*
X119050380Y-73552571D01*
X119050380Y-73457333D01*
X119098000Y-73314476D01*
X119145619Y-73266857D01*
X120050380Y-72314476D02*
X120050380Y-72885904D01*
X120050380Y-72600190D02*
X119050380Y-72600190D01*
X119193238Y-72695428D01*
X119288476Y-72790666D01*
X119336095Y-72885904D01*
X119383714Y-71457333D02*
X120050380Y-71457333D01*
X119002761Y-71695428D02*
X119717047Y-71933523D01*
X119717047Y-71314476D01*
%TO.C,C13*%
X137227142Y-73012857D02*
X137274761Y-73060476D01*
X137322380Y-73203333D01*
X137322380Y-73298571D01*
X137274761Y-73441428D01*
X137179523Y-73536666D01*
X137084285Y-73584285D01*
X136893809Y-73631904D01*
X136750952Y-73631904D01*
X136560476Y-73584285D01*
X136465238Y-73536666D01*
X136370000Y-73441428D01*
X136322380Y-73298571D01*
X136322380Y-73203333D01*
X136370000Y-73060476D01*
X136417619Y-73012857D01*
X137322380Y-72060476D02*
X137322380Y-72631904D01*
X137322380Y-72346190D02*
X136322380Y-72346190D01*
X136465238Y-72441428D01*
X136560476Y-72536666D01*
X136608095Y-72631904D01*
X136322380Y-71727142D02*
X136322380Y-71108095D01*
X136703333Y-71441428D01*
X136703333Y-71298571D01*
X136750952Y-71203333D01*
X136798571Y-71155714D01*
X136893809Y-71108095D01*
X137131904Y-71108095D01*
X137227142Y-71155714D01*
X137274761Y-71203333D01*
X137322380Y-71298571D01*
X137322380Y-71584285D01*
X137274761Y-71679523D01*
X137227142Y-71727142D01*
%TO.C,C12*%
X119955142Y-68440857D02*
X120002761Y-68488476D01*
X120050380Y-68631333D01*
X120050380Y-68726571D01*
X120002761Y-68869428D01*
X119907523Y-68964666D01*
X119812285Y-69012285D01*
X119621809Y-69059904D01*
X119478952Y-69059904D01*
X119288476Y-69012285D01*
X119193238Y-68964666D01*
X119098000Y-68869428D01*
X119050380Y-68726571D01*
X119050380Y-68631333D01*
X119098000Y-68488476D01*
X119145619Y-68440857D01*
X120050380Y-67488476D02*
X120050380Y-68059904D01*
X120050380Y-67774190D02*
X119050380Y-67774190D01*
X119193238Y-67869428D01*
X119288476Y-67964666D01*
X119336095Y-68059904D01*
X119145619Y-67107523D02*
X119098000Y-67059904D01*
X119050380Y-66964666D01*
X119050380Y-66726571D01*
X119098000Y-66631333D01*
X119145619Y-66583714D01*
X119240857Y-66536095D01*
X119336095Y-66536095D01*
X119478952Y-66583714D01*
X120050380Y-67155142D01*
X120050380Y-66536095D01*
%TO.C,C11*%
X137227142Y-68186857D02*
X137274761Y-68234476D01*
X137322380Y-68377333D01*
X137322380Y-68472571D01*
X137274761Y-68615428D01*
X137179523Y-68710666D01*
X137084285Y-68758285D01*
X136893809Y-68805904D01*
X136750952Y-68805904D01*
X136560476Y-68758285D01*
X136465238Y-68710666D01*
X136370000Y-68615428D01*
X136322380Y-68472571D01*
X136322380Y-68377333D01*
X136370000Y-68234476D01*
X136417619Y-68186857D01*
X137322380Y-67234476D02*
X137322380Y-67805904D01*
X137322380Y-67520190D02*
X136322380Y-67520190D01*
X136465238Y-67615428D01*
X136560476Y-67710666D01*
X136608095Y-67805904D01*
X137322380Y-66282095D02*
X137322380Y-66853523D01*
X137322380Y-66567809D02*
X136322380Y-66567809D01*
X136465238Y-66663047D01*
X136560476Y-66758285D01*
X136608095Y-66853523D01*
%TO.C,U9*%
X123444095Y-60876380D02*
X123444095Y-61685904D01*
X123491714Y-61781142D01*
X123539333Y-61828761D01*
X123634571Y-61876380D01*
X123825047Y-61876380D01*
X123920285Y-61828761D01*
X123967904Y-61781142D01*
X124015523Y-61685904D01*
X124015523Y-60876380D01*
X124539333Y-61876380D02*
X124729809Y-61876380D01*
X124825047Y-61828761D01*
X124872666Y-61781142D01*
X124967904Y-61638285D01*
X125015523Y-61447809D01*
X125015523Y-61066857D01*
X124967904Y-60971619D01*
X124920285Y-60924000D01*
X124825047Y-60876380D01*
X124634571Y-60876380D01*
X124539333Y-60924000D01*
X124491714Y-60971619D01*
X124444095Y-61066857D01*
X124444095Y-61304952D01*
X124491714Y-61400190D01*
X124539333Y-61447809D01*
X124634571Y-61495428D01*
X124825047Y-61495428D01*
X124920285Y-61447809D01*
X124967904Y-61400190D01*
X125015523Y-61304952D01*
%TO.C,U8*%
X140716095Y-60622380D02*
X140716095Y-61431904D01*
X140763714Y-61527142D01*
X140811333Y-61574761D01*
X140906571Y-61622380D01*
X141097047Y-61622380D01*
X141192285Y-61574761D01*
X141239904Y-61527142D01*
X141287523Y-61431904D01*
X141287523Y-60622380D01*
X141906571Y-61050952D02*
X141811333Y-61003333D01*
X141763714Y-60955714D01*
X141716095Y-60860476D01*
X141716095Y-60812857D01*
X141763714Y-60717619D01*
X141811333Y-60670000D01*
X141906571Y-60622380D01*
X142097047Y-60622380D01*
X142192285Y-60670000D01*
X142239904Y-60717619D01*
X142287523Y-60812857D01*
X142287523Y-60860476D01*
X142239904Y-60955714D01*
X142192285Y-61003333D01*
X142097047Y-61050952D01*
X141906571Y-61050952D01*
X141811333Y-61098571D01*
X141763714Y-61146190D01*
X141716095Y-61241428D01*
X141716095Y-61431904D01*
X141763714Y-61527142D01*
X141811333Y-61574761D01*
X141906571Y-61622380D01*
X142097047Y-61622380D01*
X142192285Y-61574761D01*
X142239904Y-61527142D01*
X142287523Y-61431904D01*
X142287523Y-61241428D01*
X142239904Y-61146190D01*
X142192285Y-61098571D01*
X142097047Y-61050952D01*
%TO.C,U7*%
X82550095Y-73322380D02*
X82550095Y-74131904D01*
X82597714Y-74227142D01*
X82645333Y-74274761D01*
X82740571Y-74322380D01*
X82931047Y-74322380D01*
X83026285Y-74274761D01*
X83073904Y-74227142D01*
X83121523Y-74131904D01*
X83121523Y-73322380D01*
X83502476Y-73322380D02*
X84169142Y-73322380D01*
X83740571Y-74322380D01*
%TO.C,U6*%
X89832380Y-80009904D02*
X90641904Y-80009904D01*
X90737142Y-79962285D01*
X90784761Y-79914666D01*
X90832380Y-79819428D01*
X90832380Y-79628952D01*
X90784761Y-79533714D01*
X90737142Y-79486095D01*
X90641904Y-79438476D01*
X89832380Y-79438476D01*
X89832380Y-78533714D02*
X89832380Y-78724190D01*
X89880000Y-78819428D01*
X89927619Y-78867047D01*
X90070476Y-78962285D01*
X90260952Y-79009904D01*
X90641904Y-79009904D01*
X90737142Y-78962285D01*
X90784761Y-78914666D01*
X90832380Y-78819428D01*
X90832380Y-78628952D01*
X90784761Y-78533714D01*
X90737142Y-78486095D01*
X90641904Y-78438476D01*
X90403809Y-78438476D01*
X90308571Y-78486095D01*
X90260952Y-78533714D01*
X90213333Y-78628952D01*
X90213333Y-78819428D01*
X90260952Y-78914666D01*
X90308571Y-78962285D01*
X90403809Y-79009904D01*
%TO.C,U5*%
X82550095Y-117772380D02*
X82550095Y-118581904D01*
X82597714Y-118677142D01*
X82645333Y-118724761D01*
X82740571Y-118772380D01*
X82931047Y-118772380D01*
X83026285Y-118724761D01*
X83073904Y-118677142D01*
X83121523Y-118581904D01*
X83121523Y-117772380D01*
X84073904Y-117772380D02*
X83597714Y-117772380D01*
X83550095Y-118248571D01*
X83597714Y-118200952D01*
X83692952Y-118153333D01*
X83931047Y-118153333D01*
X84026285Y-118200952D01*
X84073904Y-118248571D01*
X84121523Y-118343809D01*
X84121523Y-118581904D01*
X84073904Y-118677142D01*
X84026285Y-118724761D01*
X83931047Y-118772380D01*
X83692952Y-118772380D01*
X83597714Y-118724761D01*
X83550095Y-118677142D01*
%TO.C,U4*%
X82550095Y-94912380D02*
X82550095Y-95721904D01*
X82597714Y-95817142D01*
X82645333Y-95864761D01*
X82740571Y-95912380D01*
X82931047Y-95912380D01*
X83026285Y-95864761D01*
X83073904Y-95817142D01*
X83121523Y-95721904D01*
X83121523Y-94912380D01*
X84026285Y-95245714D02*
X84026285Y-95912380D01*
X83788190Y-94864761D02*
X83550095Y-95579047D01*
X84169142Y-95579047D01*
%TO.C,U2*%
X88816380Y-100329904D02*
X89625904Y-100329904D01*
X89721142Y-100282285D01*
X89768761Y-100234666D01*
X89816380Y-100139428D01*
X89816380Y-99948952D01*
X89768761Y-99853714D01*
X89721142Y-99806095D01*
X89625904Y-99758476D01*
X88816380Y-99758476D01*
X88911619Y-99329904D02*
X88864000Y-99282285D01*
X88816380Y-99187047D01*
X88816380Y-98948952D01*
X88864000Y-98853714D01*
X88911619Y-98806095D01*
X89006857Y-98758476D01*
X89102095Y-98758476D01*
X89244952Y-98806095D01*
X89816380Y-99377523D01*
X89816380Y-98758476D01*
%TO.C,U1*%
X105414380Y-63499904D02*
X106223904Y-63499904D01*
X106319142Y-63452285D01*
X106366761Y-63404666D01*
X106414380Y-63309428D01*
X106414380Y-63118952D01*
X106366761Y-63023714D01*
X106319142Y-62976095D01*
X106223904Y-62928476D01*
X105414380Y-62928476D01*
X106414380Y-61928476D02*
X106414380Y-62499904D01*
X106414380Y-62214190D02*
X105414380Y-62214190D01*
X105557238Y-62309428D01*
X105652476Y-62404666D01*
X105700095Y-62499904D01*
%TO.C,J4*%
X140430666Y-57508380D02*
X140430666Y-58222666D01*
X140383047Y-58365523D01*
X140287809Y-58460761D01*
X140144952Y-58508380D01*
X140049714Y-58508380D01*
X141335428Y-57841714D02*
X141335428Y-58508380D01*
X141097333Y-57460761D02*
X140859238Y-58175047D01*
X141478285Y-58175047D01*
%TO.C,J3*%
X120570666Y-46398380D02*
X120570666Y-47112666D01*
X120523047Y-47255523D01*
X120427809Y-47350761D01*
X120284952Y-47398380D01*
X120189714Y-47398380D01*
X120951619Y-46398380D02*
X121570666Y-46398380D01*
X121237333Y-46779333D01*
X121380190Y-46779333D01*
X121475428Y-46826952D01*
X121523047Y-46874571D01*
X121570666Y-46969809D01*
X121570666Y-47207904D01*
X121523047Y-47303142D01*
X121475428Y-47350761D01*
X121380190Y-47398380D01*
X121094476Y-47398380D01*
X120999238Y-47350761D01*
X120951619Y-47303142D01*
%TO.C,J2*%
X77640380Y-71453333D02*
X78354666Y-71453333D01*
X78497523Y-71500952D01*
X78592761Y-71596190D01*
X78640380Y-71739047D01*
X78640380Y-71834285D01*
X77735619Y-71024761D02*
X77688000Y-70977142D01*
X77640380Y-70881904D01*
X77640380Y-70643809D01*
X77688000Y-70548571D01*
X77735619Y-70500952D01*
X77830857Y-70453333D01*
X77926095Y-70453333D01*
X78068952Y-70500952D01*
X78640380Y-71072380D01*
X78640380Y-70453333D01*
%TO.C,J1*%
X152978380Y-95621333D02*
X153692666Y-95621333D01*
X153835523Y-95668952D01*
X153930761Y-95764190D01*
X153978380Y-95907047D01*
X153978380Y-96002285D01*
X153978380Y-94621333D02*
X153978380Y-95192761D01*
X153978380Y-94907047D02*
X152978380Y-94907047D01*
X153121238Y-95002285D01*
X153216476Y-95097523D01*
X153264095Y-95192761D01*
%TO.C,C10*%
X120789142Y-97929142D02*
X120741523Y-97976761D01*
X120598666Y-98024380D01*
X120503428Y-98024380D01*
X120360571Y-97976761D01*
X120265333Y-97881523D01*
X120217714Y-97786285D01*
X120170095Y-97595809D01*
X120170095Y-97452952D01*
X120217714Y-97262476D01*
X120265333Y-97167238D01*
X120360571Y-97072000D01*
X120503428Y-97024380D01*
X120598666Y-97024380D01*
X120741523Y-97072000D01*
X120789142Y-97119619D01*
X121741523Y-98024380D02*
X121170095Y-98024380D01*
X121455809Y-98024380D02*
X121455809Y-97024380D01*
X121360571Y-97167238D01*
X121265333Y-97262476D01*
X121170095Y-97310095D01*
X122360571Y-97024380D02*
X122455809Y-97024380D01*
X122551047Y-97072000D01*
X122598666Y-97119619D01*
X122646285Y-97214857D01*
X122693904Y-97405333D01*
X122693904Y-97643428D01*
X122646285Y-97833904D01*
X122598666Y-97929142D01*
X122551047Y-97976761D01*
X122455809Y-98024380D01*
X122360571Y-98024380D01*
X122265333Y-97976761D01*
X122217714Y-97929142D01*
X122170095Y-97833904D01*
X122122476Y-97643428D01*
X122122476Y-97405333D01*
X122170095Y-97214857D01*
X122217714Y-97119619D01*
X122265333Y-97072000D01*
X122360571Y-97024380D01*
%TO.C,C9*%
X109287142Y-65932666D02*
X109334761Y-65980285D01*
X109382380Y-66123142D01*
X109382380Y-66218380D01*
X109334761Y-66361238D01*
X109239523Y-66456476D01*
X109144285Y-66504095D01*
X108953809Y-66551714D01*
X108810952Y-66551714D01*
X108620476Y-66504095D01*
X108525238Y-66456476D01*
X108430000Y-66361238D01*
X108382380Y-66218380D01*
X108382380Y-66123142D01*
X108430000Y-65980285D01*
X108477619Y-65932666D01*
X109382380Y-65456476D02*
X109382380Y-65266000D01*
X109334761Y-65170761D01*
X109287142Y-65123142D01*
X109144285Y-65027904D01*
X108953809Y-64980285D01*
X108572857Y-64980285D01*
X108477619Y-65027904D01*
X108430000Y-65075523D01*
X108382380Y-65170761D01*
X108382380Y-65361238D01*
X108430000Y-65456476D01*
X108477619Y-65504095D01*
X108572857Y-65551714D01*
X108810952Y-65551714D01*
X108906190Y-65504095D01*
X108953809Y-65456476D01*
X109001428Y-65361238D01*
X109001428Y-65170761D01*
X108953809Y-65075523D01*
X108906190Y-65027904D01*
X108810952Y-64980285D01*
%TO.C,C8*%
X148149142Y-129686666D02*
X148196761Y-129734285D01*
X148244380Y-129877142D01*
X148244380Y-129972380D01*
X148196761Y-130115238D01*
X148101523Y-130210476D01*
X148006285Y-130258095D01*
X147815809Y-130305714D01*
X147672952Y-130305714D01*
X147482476Y-130258095D01*
X147387238Y-130210476D01*
X147292000Y-130115238D01*
X147244380Y-129972380D01*
X147244380Y-129877142D01*
X147292000Y-129734285D01*
X147339619Y-129686666D01*
X147672952Y-129115238D02*
X147625333Y-129210476D01*
X147577714Y-129258095D01*
X147482476Y-129305714D01*
X147434857Y-129305714D01*
X147339619Y-129258095D01*
X147292000Y-129210476D01*
X147244380Y-129115238D01*
X147244380Y-128924761D01*
X147292000Y-128829523D01*
X147339619Y-128781904D01*
X147434857Y-128734285D01*
X147482476Y-128734285D01*
X147577714Y-128781904D01*
X147625333Y-128829523D01*
X147672952Y-128924761D01*
X147672952Y-129115238D01*
X147720571Y-129210476D01*
X147768190Y-129258095D01*
X147863428Y-129305714D01*
X148053904Y-129305714D01*
X148149142Y-129258095D01*
X148196761Y-129210476D01*
X148244380Y-129115238D01*
X148244380Y-128924761D01*
X148196761Y-128829523D01*
X148149142Y-128781904D01*
X148053904Y-128734285D01*
X147863428Y-128734285D01*
X147768190Y-128781904D01*
X147720571Y-128829523D01*
X147672952Y-128924761D01*
%TO.C,C7*%
X146697142Y-64448666D02*
X146744761Y-64496285D01*
X146792380Y-64639142D01*
X146792380Y-64734380D01*
X146744761Y-64877238D01*
X146649523Y-64972476D01*
X146554285Y-65020095D01*
X146363809Y-65067714D01*
X146220952Y-65067714D01*
X146030476Y-65020095D01*
X145935238Y-64972476D01*
X145840000Y-64877238D01*
X145792380Y-64734380D01*
X145792380Y-64639142D01*
X145840000Y-64496285D01*
X145887619Y-64448666D01*
X145792380Y-64115333D02*
X145792380Y-63448666D01*
X146792380Y-63877238D01*
%TO.C,C6*%
X146721142Y-129726666D02*
X146768761Y-129774285D01*
X146816380Y-129917142D01*
X146816380Y-130012380D01*
X146768761Y-130155238D01*
X146673523Y-130250476D01*
X146578285Y-130298095D01*
X146387809Y-130345714D01*
X146244952Y-130345714D01*
X146054476Y-130298095D01*
X145959238Y-130250476D01*
X145864000Y-130155238D01*
X145816380Y-130012380D01*
X145816380Y-129917142D01*
X145864000Y-129774285D01*
X145911619Y-129726666D01*
X145816380Y-128869523D02*
X145816380Y-129060000D01*
X145864000Y-129155238D01*
X145911619Y-129202857D01*
X146054476Y-129298095D01*
X146244952Y-129345714D01*
X146625904Y-129345714D01*
X146721142Y-129298095D01*
X146768761Y-129250476D01*
X146816380Y-129155238D01*
X146816380Y-128964761D01*
X146768761Y-128869523D01*
X146721142Y-128821904D01*
X146625904Y-128774285D01*
X146387809Y-128774285D01*
X146292571Y-128821904D01*
X146244952Y-128869523D01*
X146197333Y-128964761D01*
X146197333Y-129155238D01*
X146244952Y-129250476D01*
X146292571Y-129298095D01*
X146387809Y-129345714D01*
%TO.C,C5*%
X121225333Y-121805142D02*
X121177714Y-121852761D01*
X121034857Y-121900380D01*
X120939619Y-121900380D01*
X120796761Y-121852761D01*
X120701523Y-121757523D01*
X120653904Y-121662285D01*
X120606285Y-121471809D01*
X120606285Y-121328952D01*
X120653904Y-121138476D01*
X120701523Y-121043238D01*
X120796761Y-120948000D01*
X120939619Y-120900380D01*
X121034857Y-120900380D01*
X121177714Y-120948000D01*
X121225333Y-120995619D01*
X122130095Y-120900380D02*
X121653904Y-120900380D01*
X121606285Y-121376571D01*
X121653904Y-121328952D01*
X121749142Y-121281333D01*
X121987238Y-121281333D01*
X122082476Y-121328952D01*
X122130095Y-121376571D01*
X122177714Y-121471809D01*
X122177714Y-121709904D01*
X122130095Y-121805142D01*
X122082476Y-121852761D01*
X121987238Y-121900380D01*
X121749142Y-121900380D01*
X121653904Y-121852761D01*
X121606285Y-121805142D01*
%TO.C,C4*%
X75037333Y-138497142D02*
X74989714Y-138544761D01*
X74846857Y-138592380D01*
X74751619Y-138592380D01*
X74608761Y-138544761D01*
X74513523Y-138449523D01*
X74465904Y-138354285D01*
X74418285Y-138163809D01*
X74418285Y-138020952D01*
X74465904Y-137830476D01*
X74513523Y-137735238D01*
X74608761Y-137640000D01*
X74751619Y-137592380D01*
X74846857Y-137592380D01*
X74989714Y-137640000D01*
X75037333Y-137687619D01*
X75894476Y-137925714D02*
X75894476Y-138592380D01*
X75656380Y-137544761D02*
X75418285Y-138259047D01*
X76037333Y-138259047D01*
%TO.C,C3*%
X85919333Y-115455142D02*
X85871714Y-115502761D01*
X85728857Y-115550380D01*
X85633619Y-115550380D01*
X85490761Y-115502761D01*
X85395523Y-115407523D01*
X85347904Y-115312285D01*
X85300285Y-115121809D01*
X85300285Y-114978952D01*
X85347904Y-114788476D01*
X85395523Y-114693238D01*
X85490761Y-114598000D01*
X85633619Y-114550380D01*
X85728857Y-114550380D01*
X85871714Y-114598000D01*
X85919333Y-114645619D01*
X86252666Y-114550380D02*
X86871714Y-114550380D01*
X86538380Y-114931333D01*
X86681238Y-114931333D01*
X86776476Y-114978952D01*
X86824095Y-115026571D01*
X86871714Y-115121809D01*
X86871714Y-115359904D01*
X86824095Y-115455142D01*
X86776476Y-115502761D01*
X86681238Y-115550380D01*
X86395523Y-115550380D01*
X86300285Y-115502761D01*
X86252666Y-115455142D01*
%TO.C,C2*%
X129425142Y-64956666D02*
X129472761Y-65004285D01*
X129520380Y-65147142D01*
X129520380Y-65242380D01*
X129472761Y-65385238D01*
X129377523Y-65480476D01*
X129282285Y-65528095D01*
X129091809Y-65575714D01*
X128948952Y-65575714D01*
X128758476Y-65528095D01*
X128663238Y-65480476D01*
X128568000Y-65385238D01*
X128520380Y-65242380D01*
X128520380Y-65147142D01*
X128568000Y-65004285D01*
X128615619Y-64956666D01*
X128615619Y-64575714D02*
X128568000Y-64528095D01*
X128520380Y-64432857D01*
X128520380Y-64194761D01*
X128568000Y-64099523D01*
X128615619Y-64051904D01*
X128710857Y-64004285D01*
X128806095Y-64004285D01*
X128948952Y-64051904D01*
X129520380Y-64623333D01*
X129520380Y-64004285D01*
%TO.C,C1*%
X76917333Y-47685142D02*
X76869714Y-47732761D01*
X76726857Y-47780380D01*
X76631619Y-47780380D01*
X76488761Y-47732761D01*
X76393523Y-47637523D01*
X76345904Y-47542285D01*
X76298285Y-47351809D01*
X76298285Y-47208952D01*
X76345904Y-47018476D01*
X76393523Y-46923238D01*
X76488761Y-46828000D01*
X76631619Y-46780380D01*
X76726857Y-46780380D01*
X76869714Y-46828000D01*
X76917333Y-46875619D01*
X77869714Y-47780380D02*
X77298285Y-47780380D01*
X77584000Y-47780380D02*
X77584000Y-46780380D01*
X77488761Y-46923238D01*
X77393523Y-47018476D01*
X77298285Y-47066095D01*
%TO.C,X1*%
X55977380Y-96679404D02*
X56977380Y-96012738D01*
X55977380Y-96012738D02*
X56977380Y-96679404D01*
X56977380Y-95107976D02*
X56977380Y-95679404D01*
X56977380Y-95393690D02*
X55977380Y-95393690D01*
X56120238Y-95488928D01*
X56215476Y-95584166D01*
X56263095Y-95679404D01*
%TD*%
M02*
