%FSLAX45Y45*%
G04 Gerber Fmt 4.5, Leading zero omitted, Abs format (unit mm)*
G04 Created by KiCad (PCBNEW (5.1.10)-1) date 2025-03-09 14:00:57*
%MOMM*%
%LPD*%
G01*
G04 APERTURE LIST*
%TA.AperFunction,Profile*%
%ADD10C,0.050000*%
%TD*%
%ADD11C,0.200000*%
%ADD12C,0.300000*%
G04 APERTURE END LIST*
D10*
X16247412Y-13665200D02*
G75*
G03*
X16247412Y-13665200I-296212J0D01*
G01*
X16224766Y-5080000D02*
G75*
G03*
X16224766Y-5080000I-273566J0D01*
G01*
X7167830Y-5080000D02*
G75*
G03*
X7167830Y-5080000I-259030J0D01*
G01*
X5524500Y-4635500D02*
X16510000Y-4635500D01*
X7182366Y-13665200D02*
G75*
G03*
X7182366Y-13665200I-273566J0D01*
G01*
X16510000Y-4635500D02*
X16510000Y-14097000D01*
X16510000Y-14097000D02*
X5524500Y-14097000D01*
X5524500Y-14097000D02*
X5524500Y-4635500D01*
D11*
X6965000Y-12832400D02*
X7005000Y-12872400D01*
X7005000Y-12832400D02*
X6965000Y-12872400D01*
X7066600Y-9149400D02*
X7106600Y-9189400D01*
X7106600Y-9149400D02*
X7066600Y-9189400D01*
X7375400Y-13158600D02*
X7415400Y-13198600D01*
X7415400Y-13158600D02*
X7375400Y-13198600D01*
X7396800Y-5415600D02*
X7436800Y-5455600D01*
X7436800Y-5415600D02*
X7396800Y-5455600D01*
X7396800Y-9454200D02*
X7436800Y-9494200D01*
X7436800Y-9454200D02*
X7396800Y-9494200D01*
X7422200Y-7447600D02*
X7462200Y-7487600D01*
X7462200Y-7447600D02*
X7422200Y-7487600D01*
X7422200Y-7701600D02*
X7462200Y-7741600D01*
X7462200Y-7701600D02*
X7422200Y-7741600D01*
X7445100Y-12174500D02*
X7485100Y-12214500D01*
X7485100Y-12174500D02*
X7445100Y-12214500D01*
X7447600Y-9301800D02*
X7487600Y-9341800D01*
X7487600Y-9301800D02*
X7447600Y-9341800D01*
X7447600Y-10292400D02*
X7487600Y-10332400D01*
X7487600Y-10292400D02*
X7447600Y-10332400D01*
X7471600Y-7322000D02*
X7511600Y-7362000D01*
X7511600Y-7322000D02*
X7471600Y-7362000D01*
X7473000Y-6050600D02*
X7513000Y-6090600D01*
X7513000Y-6050600D02*
X7473000Y-6090600D01*
X7473000Y-10825800D02*
X7513000Y-10865800D01*
X7513000Y-10825800D02*
X7473000Y-10865800D01*
X7473000Y-13013800D02*
X7513000Y-13053800D01*
X7513000Y-13013800D02*
X7473000Y-13053800D01*
X7498400Y-10089200D02*
X7538400Y-10129200D01*
X7538400Y-10089200D02*
X7498400Y-10129200D01*
X7519100Y-10719500D02*
X7559100Y-10759500D01*
X7559100Y-10719500D02*
X7519100Y-10759500D01*
X7523800Y-8184200D02*
X7563800Y-8224200D01*
X7563800Y-8184200D02*
X7523800Y-8224200D01*
X7523800Y-9911400D02*
X7563800Y-9951400D01*
X7563800Y-9911400D02*
X7523800Y-9951400D01*
X7523800Y-10546400D02*
X7563800Y-10586400D01*
X7563800Y-10546400D02*
X7523800Y-10586400D01*
X7523800Y-12045000D02*
X7563800Y-12085000D01*
X7563800Y-12045000D02*
X7523800Y-12085000D01*
X7542900Y-7174500D02*
X7582900Y-7214500D01*
X7582900Y-7174500D02*
X7542900Y-7214500D01*
X7545500Y-5470100D02*
X7585500Y-5510100D01*
X7585500Y-5470100D02*
X7545500Y-5510100D01*
X7574600Y-9733600D02*
X7614600Y-9773600D01*
X7614600Y-9733600D02*
X7574600Y-9773600D01*
X7600000Y-8870000D02*
X7640000Y-8910000D01*
X7640000Y-8870000D02*
X7600000Y-8910000D01*
X7600000Y-9378000D02*
X7640000Y-9418000D01*
X7640000Y-9378000D02*
X7600000Y-9418000D01*
X7600000Y-10267000D02*
X7640000Y-10307000D01*
X7640000Y-10267000D02*
X7600000Y-10307000D01*
X7612000Y-6114800D02*
X7652000Y-6154800D01*
X7652000Y-6114800D02*
X7612000Y-6154800D01*
X7612000Y-6572000D02*
X7652000Y-6612000D01*
X7652000Y-6572000D02*
X7612000Y-6612000D01*
X7625400Y-9505000D02*
X7665400Y-9545000D01*
X7665400Y-9505000D02*
X7625400Y-9545000D01*
X7625400Y-10495600D02*
X7665400Y-10535600D01*
X7665400Y-10495600D02*
X7625400Y-10535600D01*
X7625400Y-11130600D02*
X7665400Y-11170600D01*
X7665400Y-11130600D02*
X7625400Y-11170600D01*
X7625400Y-11638600D02*
X7665400Y-11678600D01*
X7665400Y-11638600D02*
X7625400Y-11678600D01*
X7636300Y-11500700D02*
X7676300Y-11540700D01*
X7676300Y-11500700D02*
X7636300Y-11540700D01*
X7676200Y-6253800D02*
X7716200Y-6293800D01*
X7716200Y-6253800D02*
X7676200Y-6293800D01*
X7676200Y-9809800D02*
X7716200Y-9849800D01*
X7716200Y-9809800D02*
X7676200Y-9849800D01*
X7701600Y-10038400D02*
X7741600Y-10078400D01*
X7741600Y-10038400D02*
X7701600Y-10078400D01*
X7717600Y-6822000D02*
X7757600Y-6862000D01*
X7757600Y-6822000D02*
X7717600Y-6862000D01*
X7752400Y-6177600D02*
X7792400Y-6217600D01*
X7792400Y-6177600D02*
X7752400Y-6217600D01*
X7752400Y-9505000D02*
X7792400Y-9545000D01*
X7792400Y-9505000D02*
X7752400Y-9545000D01*
X7767500Y-6924500D02*
X7807500Y-6964500D01*
X7807500Y-6924500D02*
X7767500Y-6964500D01*
X7823200Y-7072000D02*
X7863200Y-7112000D01*
X7863200Y-7072000D02*
X7823200Y-7112000D01*
X7828600Y-5669600D02*
X7868600Y-5709600D01*
X7868600Y-5669600D02*
X7828600Y-5709600D01*
X7904800Y-5568000D02*
X7944800Y-5608000D01*
X7944800Y-5568000D02*
X7904800Y-5608000D01*
X7904800Y-6685600D02*
X7944800Y-6725600D01*
X7944800Y-6685600D02*
X7904800Y-6725600D01*
X8082600Y-10978200D02*
X8122600Y-11018200D01*
X8122600Y-10978200D02*
X8082600Y-11018200D01*
X8158800Y-8082600D02*
X8198800Y-8122600D01*
X8198800Y-8082600D02*
X8158800Y-8122600D01*
X8158800Y-10775000D02*
X8198800Y-10815000D01*
X8198800Y-10775000D02*
X8158800Y-10815000D01*
X8184200Y-11029000D02*
X8224200Y-11069000D01*
X8224200Y-11029000D02*
X8184200Y-11069000D01*
X8184200Y-12553000D02*
X8224200Y-12593000D01*
X8224200Y-12553000D02*
X8184200Y-12593000D01*
X8253199Y-13296801D02*
X8293199Y-13336801D01*
X8293199Y-13296801D02*
X8253199Y-13336801D01*
X8271301Y-8220501D02*
X8311301Y-8260501D01*
X8311301Y-8220501D02*
X8271301Y-8260501D01*
X8285800Y-7295200D02*
X8325800Y-7335200D01*
X8325800Y-7295200D02*
X8285800Y-7335200D01*
X8285800Y-8870000D02*
X8325800Y-8910000D01*
X8325800Y-8870000D02*
X8285800Y-8910000D01*
X8311200Y-5237800D02*
X8351200Y-5277800D01*
X8351200Y-5237800D02*
X8311200Y-5277800D01*
X8311200Y-6431600D02*
X8351200Y-6471600D01*
X8351200Y-6431600D02*
X8311200Y-6471600D01*
X8311200Y-10521000D02*
X8351200Y-10561000D01*
X8351200Y-10521000D02*
X8311200Y-10561000D01*
X8311200Y-11638600D02*
X8351200Y-11678600D01*
X8351200Y-11638600D02*
X8311200Y-11678600D01*
X8325699Y-12919501D02*
X8365699Y-12959501D01*
X8365699Y-12919501D02*
X8325699Y-12959501D01*
X8336600Y-12045000D02*
X8376600Y-12085000D01*
X8376600Y-12045000D02*
X8336600Y-12085000D01*
X8362000Y-7854000D02*
X8402000Y-7894000D01*
X8402000Y-7854000D02*
X8362000Y-7894000D01*
X8362000Y-8362000D02*
X8402000Y-8402000D01*
X8402000Y-8362000D02*
X8362000Y-8402000D01*
X8362000Y-9987600D02*
X8402000Y-10027600D01*
X8402000Y-9987600D02*
X8362000Y-10027600D01*
X8387400Y-10114600D02*
X8427400Y-10154600D01*
X8427400Y-10114600D02*
X8387400Y-10154600D01*
X8412800Y-9784400D02*
X8452800Y-9824400D01*
X8452800Y-9784400D02*
X8412800Y-9824400D01*
X8463600Y-11308400D02*
X8503600Y-11348400D01*
X8503600Y-11308400D02*
X8463600Y-11348400D01*
X8463600Y-13569000D02*
X8503600Y-13609000D01*
X8503600Y-13569000D02*
X8463600Y-13609000D01*
X8489000Y-8235000D02*
X8529000Y-8275000D01*
X8529000Y-8235000D02*
X8489000Y-8275000D01*
X8539800Y-7244400D02*
X8579800Y-7284400D01*
X8579800Y-7244400D02*
X8539800Y-7284400D01*
X8565200Y-5568000D02*
X8605200Y-5608000D01*
X8605200Y-5568000D02*
X8565200Y-5608000D01*
X8565200Y-6838000D02*
X8605200Y-6878000D01*
X8605200Y-6838000D02*
X8565200Y-6878000D01*
X8819200Y-6101400D02*
X8859200Y-6141400D01*
X8859200Y-6101400D02*
X8819200Y-6141400D01*
X8819200Y-6939600D02*
X8859200Y-6979600D01*
X8859200Y-6939600D02*
X8819200Y-6979600D01*
X8906301Y-12694499D02*
X8946301Y-12734499D01*
X8946301Y-12694499D02*
X8906301Y-12734499D01*
X8946200Y-6838000D02*
X8986200Y-6878000D01*
X8986200Y-6838000D02*
X8946200Y-6878000D01*
X8946200Y-8565200D02*
X8986200Y-8605200D01*
X8986200Y-8565200D02*
X8946200Y-8605200D01*
X8946200Y-9301800D02*
X8986200Y-9341800D01*
X8986200Y-9301800D02*
X8946200Y-9341800D01*
X8946200Y-9886000D02*
X8986200Y-9926000D01*
X8986200Y-9886000D02*
X8946200Y-9926000D01*
X8946200Y-10013000D02*
X8986200Y-10053000D01*
X8986200Y-10013000D02*
X8946200Y-10053000D01*
X8946200Y-10800400D02*
X8986200Y-10840400D01*
X8986200Y-10800400D02*
X8946200Y-10840400D01*
X8997000Y-7422200D02*
X9037000Y-7462200D01*
X9037000Y-7422200D02*
X8997000Y-7462200D01*
X9047800Y-8997000D02*
X9087800Y-9037000D01*
X9087800Y-8997000D02*
X9047800Y-9037000D01*
X9073200Y-6177600D02*
X9113200Y-6217600D01*
X9113200Y-6177600D02*
X9073200Y-6217600D01*
X9073200Y-7092000D02*
X9113200Y-7132000D01*
X9113200Y-7092000D02*
X9073200Y-7132000D01*
X9251000Y-7752400D02*
X9291000Y-7792400D01*
X9291000Y-7752400D02*
X9251000Y-7792400D01*
X9327200Y-6253800D02*
X9367200Y-6293800D01*
X9367200Y-6253800D02*
X9327200Y-6293800D01*
X9403400Y-9784400D02*
X9443400Y-9824400D01*
X9443400Y-9784400D02*
X9403400Y-9824400D01*
X9505000Y-8565200D02*
X9545000Y-8605200D01*
X9545000Y-8565200D02*
X9505000Y-8605200D01*
X9530400Y-9454200D02*
X9570400Y-9494200D01*
X9570400Y-9454200D02*
X9530400Y-9494200D01*
X9581200Y-5466400D02*
X9621200Y-5506400D01*
X9621200Y-5466400D02*
X9581200Y-5506400D01*
X9646499Y-7077501D02*
X9686499Y-7117501D01*
X9686499Y-7077501D02*
X9646499Y-7117501D01*
X9657400Y-9886000D02*
X9697400Y-9926000D01*
X9697400Y-9886000D02*
X9657400Y-9926000D01*
X9717400Y-9572000D02*
X9757400Y-9612000D01*
X9757400Y-9572000D02*
X9717400Y-9612000D01*
X9769900Y-8652300D02*
X9809900Y-8692300D01*
X9809900Y-8652300D02*
X9769900Y-8692300D01*
X9809800Y-7092000D02*
X9849800Y-7132000D01*
X9849800Y-7092000D02*
X9809800Y-7132000D01*
X9835200Y-5669600D02*
X9875200Y-5709600D01*
X9875200Y-5669600D02*
X9835200Y-5709600D01*
X9835200Y-12553000D02*
X9875200Y-12593000D01*
X9875200Y-12553000D02*
X9835200Y-12593000D01*
X9900499Y-6950501D02*
X9940499Y-6990501D01*
X9940499Y-6950501D02*
X9900499Y-6990501D01*
X9911400Y-11283000D02*
X9951400Y-11323000D01*
X9951400Y-11283000D02*
X9911400Y-11323000D01*
X9911400Y-12299000D02*
X9951400Y-12339000D01*
X9951400Y-12299000D02*
X9911400Y-12339000D01*
X10013000Y-8666800D02*
X10053000Y-8706800D01*
X10053000Y-8666800D02*
X10013000Y-8706800D01*
X10013000Y-11105200D02*
X10053000Y-11145200D01*
X10053000Y-11105200D02*
X10013000Y-11145200D01*
X10013000Y-11283000D02*
X10053000Y-11323000D01*
X10053000Y-11283000D02*
X10013000Y-11323000D01*
X10052900Y-8808300D02*
X10092900Y-8848300D01*
X10092900Y-8808300D02*
X10052900Y-8848300D01*
X10089200Y-5415600D02*
X10129200Y-5455600D01*
X10129200Y-5415600D02*
X10089200Y-5455600D01*
X10089200Y-6888800D02*
X10129200Y-6928800D01*
X10129200Y-6888800D02*
X10089200Y-6928800D01*
X10267000Y-9632000D02*
X10307000Y-9672000D01*
X10307000Y-9632000D02*
X10267000Y-9672000D01*
X10292400Y-11206800D02*
X10332400Y-11246800D01*
X10332400Y-11206800D02*
X10292400Y-11246800D01*
X10306900Y-10125500D02*
X10346900Y-10165500D01*
X10346900Y-10125500D02*
X10306900Y-10165500D01*
X10343200Y-6050600D02*
X10383200Y-6090600D01*
X10383200Y-6050600D02*
X10343200Y-6090600D01*
X10379501Y-7763301D02*
X10419501Y-7803301D01*
X10419501Y-7763301D02*
X10379501Y-7803301D01*
X10404901Y-10379501D02*
X10444901Y-10419501D01*
X10444901Y-10379501D02*
X10404901Y-10419501D01*
X10408499Y-8782899D02*
X10448499Y-8822899D01*
X10448499Y-8782899D02*
X10408499Y-8822899D01*
X10419400Y-8997000D02*
X10459400Y-9037000D01*
X10459400Y-8997000D02*
X10419400Y-9037000D01*
X10521000Y-7244400D02*
X10561000Y-7284400D01*
X10561000Y-7244400D02*
X10521000Y-7284400D01*
X10521000Y-8692200D02*
X10561000Y-8732200D01*
X10561000Y-8692200D02*
X10521000Y-8732200D01*
X10571800Y-11105200D02*
X10611800Y-11145200D01*
X10611800Y-11105200D02*
X10571800Y-11145200D01*
X10673400Y-8971600D02*
X10713400Y-9011600D01*
X10713400Y-8971600D02*
X10673400Y-9011600D01*
X10673400Y-11003600D02*
X10713400Y-11043600D01*
X10713400Y-11003600D02*
X10673400Y-11043600D01*
X10673400Y-11867200D02*
X10713400Y-11907200D01*
X10713400Y-11867200D02*
X10673400Y-11907200D01*
X10690700Y-10478300D02*
X10730700Y-10518300D01*
X10730700Y-10478300D02*
X10690700Y-10518300D01*
X10775000Y-7295200D02*
X10815000Y-7335200D01*
X10815000Y-7295200D02*
X10775000Y-7335200D01*
X10800400Y-8692200D02*
X10840400Y-8732200D01*
X10840400Y-8692200D02*
X10800400Y-8732200D01*
X10800400Y-9378000D02*
X10840400Y-9418000D01*
X10840400Y-9378000D02*
X10800400Y-9418000D01*
X10800400Y-11308400D02*
X10840400Y-11348400D01*
X10840400Y-11308400D02*
X10800400Y-11348400D01*
X10800400Y-12553000D02*
X10840400Y-12593000D01*
X10840400Y-12553000D02*
X10800400Y-12593000D01*
X10898000Y-6681600D02*
X10938000Y-6721600D01*
X10938000Y-6681600D02*
X10898000Y-6721600D01*
X10902000Y-6152200D02*
X10942000Y-6192200D01*
X10942000Y-6152200D02*
X10902000Y-6192200D01*
X10927400Y-10190800D02*
X10967400Y-10230800D01*
X10967400Y-10190800D02*
X10927400Y-10230800D01*
X10927400Y-11079800D02*
X10967400Y-11119800D01*
X10967400Y-11079800D02*
X10927400Y-11119800D01*
X10927400Y-12222800D02*
X10967400Y-12262800D01*
X10967400Y-12222800D02*
X10927400Y-12262800D01*
X10941800Y-8677800D02*
X10981800Y-8717800D01*
X10981800Y-8677800D02*
X10941800Y-8717800D01*
X11054400Y-8768400D02*
X11094400Y-8808400D01*
X11094400Y-8768400D02*
X11054400Y-8808400D01*
X11054400Y-12807000D02*
X11094400Y-12847000D01*
X11094400Y-12807000D02*
X11054400Y-12847000D01*
X11181400Y-10063800D02*
X11221400Y-10103800D01*
X11221400Y-10063800D02*
X11181400Y-10103800D01*
X11181400Y-11156000D02*
X11221400Y-11196000D01*
X11221400Y-11156000D02*
X11181400Y-11196000D01*
X11181400Y-12095800D02*
X11221400Y-12135800D01*
X11221400Y-12095800D02*
X11181400Y-12135800D01*
X11206800Y-8387400D02*
X11246800Y-8427400D01*
X11246800Y-8387400D02*
X11206800Y-8427400D01*
X11272099Y-7763301D02*
X11312099Y-7803301D01*
X11312099Y-7763301D02*
X11272099Y-7803301D01*
X11283000Y-7092000D02*
X11323000Y-7132000D01*
X11323000Y-7092000D02*
X11283000Y-7132000D01*
X11283000Y-8108000D02*
X11323000Y-8148000D01*
X11323000Y-8108000D02*
X11283000Y-8148000D01*
X11308400Y-9733600D02*
X11348400Y-9773600D01*
X11348400Y-9733600D02*
X11308400Y-9773600D01*
X11410000Y-11257600D02*
X11450000Y-11297600D01*
X11450000Y-11257600D02*
X11410000Y-11297600D01*
X11435400Y-6431600D02*
X11475400Y-6471600D01*
X11475400Y-6431600D02*
X11435400Y-6471600D01*
X11435400Y-8285800D02*
X11475400Y-8325800D01*
X11475400Y-8285800D02*
X11435400Y-8325800D01*
X11435400Y-8489000D02*
X11475400Y-8529000D01*
X11475400Y-8489000D02*
X11435400Y-8529000D01*
X11435400Y-9860600D02*
X11475400Y-9900600D01*
X11475400Y-9860600D02*
X11435400Y-9900600D01*
X11435400Y-12502200D02*
X11475400Y-12542200D01*
X11475400Y-12502200D02*
X11435400Y-12542200D01*
X11537000Y-6888800D02*
X11577000Y-6928800D01*
X11577000Y-6888800D02*
X11537000Y-6928800D01*
X11537000Y-7752400D02*
X11577000Y-7792400D01*
X11577000Y-7752400D02*
X11537000Y-7792400D01*
X11562400Y-8590600D02*
X11602400Y-8630600D01*
X11602400Y-8590600D02*
X11562400Y-8630600D01*
X11562400Y-11283000D02*
X11602400Y-11323000D01*
X11602400Y-11283000D02*
X11562400Y-11323000D01*
X11587800Y-10343200D02*
X11627800Y-10383200D01*
X11627800Y-10343200D02*
X11587800Y-10383200D01*
X11689400Y-8768400D02*
X11729400Y-8808400D01*
X11729400Y-8768400D02*
X11689400Y-8808400D01*
X11689400Y-9962200D02*
X11729400Y-10002200D01*
X11729400Y-9962200D02*
X11689400Y-10002200D01*
X11689400Y-12349800D02*
X11729400Y-12389800D01*
X11729400Y-12349800D02*
X11689400Y-12389800D01*
X11714800Y-8285800D02*
X11754800Y-8325800D01*
X11754800Y-8285800D02*
X11714800Y-8325800D01*
X11943400Y-8793800D02*
X11983400Y-8833800D01*
X11983400Y-8793800D02*
X11943400Y-8833800D01*
X11943400Y-9530400D02*
X11983400Y-9570400D01*
X11983400Y-9530400D02*
X11943400Y-9570400D01*
X11943400Y-10317800D02*
X11983400Y-10357800D01*
X11983400Y-10317800D02*
X11943400Y-10357800D01*
X11943400Y-12705400D02*
X11983400Y-12745400D01*
X11983400Y-12705400D02*
X11943400Y-12745400D01*
X12083100Y-12819700D02*
X12123100Y-12859700D01*
X12123100Y-12819700D02*
X12083100Y-12859700D01*
X12135700Y-9617500D02*
X12175700Y-9657500D01*
X12175700Y-9617500D02*
X12135700Y-9657500D01*
X12197400Y-9327200D02*
X12237400Y-9367200D01*
X12237400Y-9327200D02*
X12197400Y-9367200D01*
X12197400Y-10368600D02*
X12237400Y-10408600D01*
X12237400Y-10368600D02*
X12197400Y-10408600D01*
X12197400Y-12603800D02*
X12237400Y-12643800D01*
X12237400Y-12603800D02*
X12197400Y-12643800D01*
X12299000Y-9708200D02*
X12339000Y-9748200D01*
X12339000Y-9708200D02*
X12299000Y-9748200D01*
X12415099Y-7991901D02*
X12455099Y-8031901D01*
X12455099Y-7991901D02*
X12415099Y-8031901D01*
X12426000Y-6609400D02*
X12466000Y-6649400D01*
X12466000Y-6609400D02*
X12426000Y-6649400D01*
X12426000Y-10317800D02*
X12466000Y-10357800D01*
X12466000Y-10317800D02*
X12426000Y-10357800D01*
X12451400Y-11994200D02*
X12491400Y-12034200D01*
X12491400Y-11994200D02*
X12451400Y-12034200D01*
X12464100Y-9390700D02*
X12504100Y-9430700D01*
X12504100Y-9390700D02*
X12464100Y-9430700D01*
X12553000Y-7371400D02*
X12593000Y-7411400D01*
X12593000Y-7371400D02*
X12553000Y-7411400D01*
X12563900Y-9976700D02*
X12603900Y-10016700D01*
X12603900Y-9976700D02*
X12563900Y-10016700D01*
X12578400Y-9682800D02*
X12618400Y-9722800D01*
X12618400Y-9682800D02*
X12578400Y-9722800D01*
X12680000Y-12629200D02*
X12720000Y-12669200D01*
X12720000Y-12629200D02*
X12680000Y-12669200D01*
X12705400Y-9606600D02*
X12745400Y-9646600D01*
X12745400Y-9606600D02*
X12705400Y-9646600D01*
X12705400Y-10343200D02*
X12745400Y-10383200D01*
X12745400Y-10343200D02*
X12705400Y-10383200D01*
X12705400Y-12349800D02*
X12745400Y-12389800D01*
X12745400Y-12349800D02*
X12705400Y-12389800D01*
X12756200Y-10089200D02*
X12796200Y-10129200D01*
X12796200Y-10089200D02*
X12756200Y-10129200D01*
X12959400Y-10902000D02*
X12999400Y-10942000D01*
X12999400Y-10902000D02*
X12959400Y-10942000D01*
X12959400Y-12807000D02*
X12999400Y-12847000D01*
X12999400Y-12807000D02*
X12959400Y-12847000D01*
X13086400Y-10343200D02*
X13126400Y-10383200D01*
X13126400Y-10343200D02*
X13086400Y-10383200D01*
X13097200Y-9976800D02*
X13137200Y-10016800D01*
X13137200Y-9976800D02*
X13097200Y-10016800D01*
X13099100Y-7739700D02*
X13139100Y-7779700D01*
X13139100Y-7739700D02*
X13099100Y-7779700D01*
X13099100Y-7993700D02*
X13139100Y-8033700D01*
X13139100Y-7993700D02*
X13099100Y-8033700D01*
X13202600Y-8880800D02*
X13242600Y-8920800D01*
X13242600Y-8880800D02*
X13202600Y-8920800D01*
X13213400Y-6482400D02*
X13253400Y-6522400D01*
X13253400Y-6482400D02*
X13213400Y-6522400D01*
X13213400Y-10089200D02*
X13253400Y-10129200D01*
X13253400Y-10089200D02*
X13213400Y-10129200D01*
X13213400Y-12603800D02*
X13253400Y-12643800D01*
X13253400Y-12603800D02*
X13213400Y-12643800D01*
X13238800Y-5415600D02*
X13278800Y-5455600D01*
X13278800Y-5415600D02*
X13238800Y-5455600D01*
X13325900Y-10383100D02*
X13365900Y-10423100D01*
X13365900Y-10383100D02*
X13325900Y-10423100D01*
X13452901Y-11395501D02*
X13492901Y-11435501D01*
X13492901Y-11395501D02*
X13452901Y-11435501D01*
X13475000Y-12001800D02*
X13515000Y-12041800D01*
X13515000Y-12001800D02*
X13475000Y-12041800D01*
X13530900Y-7993700D02*
X13570900Y-8033700D01*
X13570900Y-7993700D02*
X13530900Y-8033700D01*
X13721400Y-10368600D02*
X13761400Y-10408600D01*
X13761400Y-10368600D02*
X13721400Y-10408600D01*
X13823000Y-10851200D02*
X13863000Y-10891200D01*
X13863000Y-10851200D02*
X13823000Y-10891200D01*
X13873800Y-8285800D02*
X13913800Y-8325800D01*
X13913800Y-8285800D02*
X13873800Y-8325800D01*
X14000800Y-7092000D02*
X14040800Y-7132000D01*
X14040800Y-7092000D02*
X14000800Y-7132000D01*
X14026200Y-9682800D02*
X14066200Y-9722800D01*
X14066200Y-9682800D02*
X14026200Y-9722800D01*
X14051600Y-7600000D02*
X14091600Y-7640000D01*
X14091600Y-7600000D02*
X14051600Y-7640000D01*
X14077000Y-7219000D02*
X14117000Y-7259000D01*
X14117000Y-7219000D02*
X14077000Y-7259000D01*
X14102400Y-7854000D02*
X14142400Y-7894000D01*
X14142400Y-7854000D02*
X14102400Y-7894000D01*
X14113200Y-9976800D02*
X14153200Y-10016800D01*
X14153200Y-9976800D02*
X14113200Y-10016800D01*
X14153200Y-6838000D02*
X14193200Y-6878000D01*
X14193200Y-6838000D02*
X14153200Y-6878000D01*
X14153200Y-8260400D02*
X14193200Y-8300400D01*
X14193200Y-8260400D02*
X14153200Y-8300400D01*
X14204000Y-11079800D02*
X14244000Y-11119800D01*
X14244000Y-11079800D02*
X14204000Y-11119800D01*
X14211600Y-11722400D02*
X14251600Y-11762400D01*
X14251600Y-11722400D02*
X14211600Y-11762400D01*
X14229400Y-9098600D02*
X14269400Y-9138600D01*
X14269400Y-9098600D02*
X14229400Y-9138600D01*
X14249001Y-9891799D02*
X14289001Y-9931799D01*
X14289001Y-9891799D02*
X14249001Y-9931799D01*
X14254800Y-7346000D02*
X14294800Y-7386000D01*
X14294800Y-7346000D02*
X14254800Y-7386000D01*
X14254800Y-8108000D02*
X14294800Y-8148000D01*
X14294800Y-8108000D02*
X14254800Y-8148000D01*
X14254800Y-12654600D02*
X14294800Y-12694600D01*
X14294800Y-12654600D02*
X14254800Y-12694600D01*
X14294300Y-11929300D02*
X14334300Y-11969300D01*
X14334300Y-11929300D02*
X14294300Y-11969300D01*
X14331000Y-10063800D02*
X14371000Y-10103800D01*
X14371000Y-10063800D02*
X14331000Y-10103800D01*
X14381800Y-11435400D02*
X14421800Y-11475400D01*
X14421800Y-11435400D02*
X14381800Y-11475400D01*
X14381800Y-12222800D02*
X14421800Y-12262800D01*
X14421800Y-12222800D02*
X14381800Y-12262800D01*
X14381800Y-12781600D02*
X14421800Y-12821600D01*
X14421800Y-12781600D02*
X14381800Y-12821600D01*
X14454300Y-8314900D02*
X14494300Y-8354900D01*
X14494300Y-8314900D02*
X14454300Y-8354900D01*
X14508800Y-6101400D02*
X14548800Y-6141400D01*
X14548800Y-6101400D02*
X14508800Y-6141400D01*
X14534200Y-11181400D02*
X14574200Y-11221400D01*
X14574200Y-11181400D02*
X14534200Y-11221400D01*
X14534200Y-12095800D02*
X14574200Y-12135800D01*
X14574200Y-12095800D02*
X14534200Y-12135800D01*
X14559600Y-4907600D02*
X14599600Y-4947600D01*
X14599600Y-4907600D02*
X14559600Y-4947600D01*
X14559600Y-11003600D02*
X14599600Y-11043600D01*
X14599600Y-11003600D02*
X14559600Y-11043600D01*
X14585000Y-9759000D02*
X14625000Y-9799000D01*
X14625000Y-9759000D02*
X14585000Y-9799000D01*
X14694800Y-10893800D02*
X14734800Y-10933800D01*
X14734800Y-10893800D02*
X14694800Y-10933800D01*
X14712000Y-7498400D02*
X14752000Y-7538400D01*
X14752000Y-7498400D02*
X14712000Y-7538400D01*
X14712000Y-12400600D02*
X14752000Y-12440600D01*
X14752000Y-12400600D02*
X14712000Y-12440600D01*
X14737400Y-7854000D02*
X14777400Y-7894000D01*
X14777400Y-7854000D02*
X14737400Y-7894000D01*
X14737400Y-10317800D02*
X14777400Y-10357800D01*
X14777400Y-10317800D02*
X14737400Y-10357800D01*
X14813600Y-9530400D02*
X14853600Y-9570400D01*
X14853600Y-9530400D02*
X14813600Y-9570400D01*
X14813600Y-12705400D02*
X14853600Y-12745400D01*
X14853600Y-12705400D02*
X14813600Y-12745400D01*
X14839000Y-9784400D02*
X14879000Y-9824400D01*
X14879000Y-9784400D02*
X14839000Y-9824400D01*
X14839000Y-11714800D02*
X14879000Y-11754800D01*
X14879000Y-11714800D02*
X14839000Y-11754800D01*
X14845700Y-7708300D02*
X14885700Y-7748300D01*
X14885700Y-7708300D02*
X14845700Y-7748300D01*
X14864400Y-8489000D02*
X14904400Y-8529000D01*
X14904400Y-8489000D02*
X14864400Y-8529000D01*
X14880200Y-8123800D02*
X14920200Y-8163800D01*
X14920200Y-8123800D02*
X14880200Y-8163800D01*
X14915200Y-9479600D02*
X14955200Y-9519600D01*
X14955200Y-9479600D02*
X14915200Y-9519600D01*
X14915200Y-10622600D02*
X14955200Y-10662600D01*
X14955200Y-10622600D02*
X14915200Y-10662600D01*
X14961700Y-7985300D02*
X15001700Y-8025300D01*
X15001700Y-7985300D02*
X14961700Y-8025300D01*
X15016800Y-7854000D02*
X15056800Y-7894000D01*
X15056800Y-7854000D02*
X15016800Y-7894000D01*
X15016800Y-8768400D02*
X15056800Y-8808400D01*
X15056800Y-8768400D02*
X15016800Y-8808400D01*
X15016800Y-10089200D02*
X15056800Y-10129200D01*
X15056800Y-10089200D02*
X15016800Y-10129200D01*
X15016800Y-11257600D02*
X15056800Y-11297600D01*
X15056800Y-11257600D02*
X15016800Y-11297600D01*
X15016800Y-11867200D02*
X15056800Y-11907200D01*
X15056800Y-11867200D02*
X15016800Y-11907200D01*
X15016800Y-12324400D02*
X15056800Y-12364400D01*
X15056800Y-12324400D02*
X15016800Y-12364400D01*
X15020600Y-9508800D02*
X15060600Y-9548800D01*
X15060600Y-9508800D02*
X15020600Y-9548800D01*
X15080300Y-8857300D02*
X15120300Y-8897300D01*
X15120300Y-8857300D02*
X15080300Y-8897300D01*
X15093000Y-10343200D02*
X15133000Y-10383200D01*
X15133000Y-10343200D02*
X15093000Y-10383200D01*
X15093000Y-12527600D02*
X15133000Y-12567600D01*
X15133000Y-12527600D02*
X15093000Y-12567600D01*
X15123200Y-7569800D02*
X15163200Y-7609800D01*
X15163200Y-7569800D02*
X15123200Y-7609800D01*
X15143800Y-9403400D02*
X15183800Y-9443400D01*
X15183800Y-9403400D02*
X15143800Y-9443400D01*
X15220000Y-7015800D02*
X15260000Y-7055800D01*
X15260000Y-7015800D02*
X15220000Y-7055800D01*
X15220000Y-11613200D02*
X15260000Y-11653200D01*
X15260000Y-11613200D02*
X15220000Y-11653200D01*
X15230100Y-9647300D02*
X15270100Y-9687300D01*
X15270100Y-9647300D02*
X15230100Y-9687300D01*
X15258600Y-9314000D02*
X15298600Y-9354000D01*
X15298600Y-9314000D02*
X15258600Y-9354000D01*
X15298600Y-7292800D02*
X15338600Y-7332800D01*
X15338600Y-7292800D02*
X15298600Y-7332800D01*
X15334500Y-9924300D02*
X15374500Y-9964300D01*
X15374500Y-9924300D02*
X15334500Y-9964300D01*
X15334500Y-12616700D02*
X15374500Y-12656700D01*
X15374500Y-12616700D02*
X15334500Y-12656700D01*
X15343300Y-8314900D02*
X15383300Y-8354900D01*
X15383300Y-8314900D02*
X15343300Y-8354900D01*
X15358500Y-7154300D02*
X15398500Y-7194300D01*
X15398500Y-7154300D02*
X15358500Y-7194300D01*
X15419200Y-12811000D02*
X15459200Y-12851000D01*
X15459200Y-12811000D02*
X15419200Y-12851000D01*
X15474000Y-11587800D02*
X15514000Y-11627800D01*
X15514000Y-11587800D02*
X15474000Y-11627800D01*
X15524800Y-10749600D02*
X15564800Y-10789600D01*
X15564800Y-10749600D02*
X15524800Y-10789600D01*
X15524800Y-10978200D02*
X15564800Y-11018200D01*
X15564800Y-10978200D02*
X15524800Y-11018200D01*
X15829600Y-10749600D02*
X15869600Y-10789600D01*
X15869600Y-10749600D02*
X15829600Y-10789600D01*
X15982000Y-13061000D02*
X16022000Y-13101000D01*
X16022000Y-13061000D02*
X15982000Y-13101000D01*
X16210600Y-8793800D02*
X16250600Y-8833800D01*
X16250600Y-8793800D02*
X16210600Y-8833800D01*
X16236000Y-11130600D02*
X16276000Y-11170600D01*
X16276000Y-11130600D02*
X16236000Y-11170600D01*
X16335700Y-8262300D02*
X16375700Y-8302300D01*
X16375700Y-8262300D02*
X16335700Y-8302300D01*
X16337600Y-11486200D02*
X16377600Y-11526200D01*
X16377600Y-11486200D02*
X16337600Y-11526200D01*
X16388400Y-8539800D02*
X16428400Y-8579800D01*
X16428400Y-8539800D02*
X16388400Y-8579800D01*
X16388400Y-11740200D02*
X16428400Y-11780200D01*
X16428400Y-11740200D02*
X16388400Y-11780200D01*
X6842500Y-5842000D02*
G75*
G03*
X6842500Y-5842000I-40000J0D01*
G01*
X6842500Y-6092000D02*
G75*
G03*
X6842500Y-6092000I-40000J0D01*
G01*
X6842500Y-6342000D02*
G75*
G03*
X6842500Y-6342000I-40000J0D01*
G01*
X6842500Y-6592000D02*
G75*
G03*
X6842500Y-6592000I-40000J0D01*
G01*
X6842500Y-6842000D02*
G75*
G03*
X6842500Y-6842000I-40000J0D01*
G01*
X6842500Y-7092000D02*
G75*
G03*
X6842500Y-7092000I-40000J0D01*
G01*
X6842500Y-7342000D02*
G75*
G03*
X6842500Y-7342000I-40000J0D01*
G01*
X6842500Y-7592000D02*
G75*
G03*
X6842500Y-7592000I-40000J0D01*
G01*
X6842500Y-7842000D02*
G75*
G03*
X6842500Y-7842000I-40000J0D01*
G01*
X6842500Y-8092000D02*
G75*
G03*
X6842500Y-8092000I-40000J0D01*
G01*
X6842500Y-8342000D02*
G75*
G03*
X6842500Y-8342000I-40000J0D01*
G01*
X6842500Y-8592000D02*
G75*
G03*
X6842500Y-8592000I-40000J0D01*
G01*
X6842500Y-8842000D02*
G75*
G03*
X6842500Y-8842000I-40000J0D01*
G01*
X6842500Y-9092000D02*
G75*
G03*
X6842500Y-9092000I-40000J0D01*
G01*
X6842500Y-9342000D02*
G75*
G03*
X6842500Y-9342000I-40000J0D01*
G01*
X6842500Y-9592000D02*
G75*
G03*
X6842500Y-9592000I-40000J0D01*
G01*
X6842500Y-9842000D02*
G75*
G03*
X6842500Y-9842000I-40000J0D01*
G01*
X6842500Y-10092000D02*
G75*
G03*
X6842500Y-10092000I-40000J0D01*
G01*
X6842500Y-10342000D02*
G75*
G03*
X6842500Y-10342000I-40000J0D01*
G01*
X6842500Y-10592000D02*
G75*
G03*
X6842500Y-10592000I-40000J0D01*
G01*
X6842500Y-10842000D02*
G75*
G03*
X6842500Y-10842000I-40000J0D01*
G01*
X6842500Y-11092000D02*
G75*
G03*
X6842500Y-11092000I-40000J0D01*
G01*
X6842500Y-11342000D02*
G75*
G03*
X6842500Y-11342000I-40000J0D01*
G01*
X6842500Y-11592000D02*
G75*
G03*
X6842500Y-11592000I-40000J0D01*
G01*
X6842500Y-11842000D02*
G75*
G03*
X6842500Y-11842000I-40000J0D01*
G01*
X6842500Y-12092000D02*
G75*
G03*
X6842500Y-12092000I-40000J0D01*
G01*
X6842500Y-12342000D02*
G75*
G03*
X6842500Y-12342000I-40000J0D01*
G01*
X6842500Y-12592000D02*
G75*
G03*
X6842500Y-12592000I-40000J0D01*
G01*
X6842500Y-12842000D02*
G75*
G03*
X6842500Y-12842000I-40000J0D01*
G01*
X6923400Y-13157200D02*
G75*
G03*
X6923400Y-13157200I-40000J0D01*
G01*
X7342500Y-5842000D02*
G75*
G03*
X7342500Y-5842000I-40000J0D01*
G01*
X7342500Y-6092000D02*
G75*
G03*
X7342500Y-6092000I-40000J0D01*
G01*
X7342500Y-6342000D02*
G75*
G03*
X7342500Y-6342000I-40000J0D01*
G01*
X7342500Y-6592000D02*
G75*
G03*
X7342500Y-6592000I-40000J0D01*
G01*
X7342500Y-6842000D02*
G75*
G03*
X7342500Y-6842000I-40000J0D01*
G01*
X7342500Y-7092000D02*
G75*
G03*
X7342500Y-7092000I-40000J0D01*
G01*
X7342500Y-7342000D02*
G75*
G03*
X7342500Y-7342000I-40000J0D01*
G01*
X7342500Y-7592000D02*
G75*
G03*
X7342500Y-7592000I-40000J0D01*
G01*
X7342500Y-7842000D02*
G75*
G03*
X7342500Y-7842000I-40000J0D01*
G01*
X7342500Y-8092000D02*
G75*
G03*
X7342500Y-8092000I-40000J0D01*
G01*
X7342500Y-8342000D02*
G75*
G03*
X7342500Y-8342000I-40000J0D01*
G01*
X7342500Y-8592000D02*
G75*
G03*
X7342500Y-8592000I-40000J0D01*
G01*
X7342500Y-8842000D02*
G75*
G03*
X7342500Y-8842000I-40000J0D01*
G01*
X7342500Y-9092000D02*
G75*
G03*
X7342500Y-9092000I-40000J0D01*
G01*
X7342500Y-9342000D02*
G75*
G03*
X7342500Y-9342000I-40000J0D01*
G01*
X7342500Y-9592000D02*
G75*
G03*
X7342500Y-9592000I-40000J0D01*
G01*
X7342500Y-9842000D02*
G75*
G03*
X7342500Y-9842000I-40000J0D01*
G01*
X7342500Y-10092000D02*
G75*
G03*
X7342500Y-10092000I-40000J0D01*
G01*
X7342500Y-10342000D02*
G75*
G03*
X7342500Y-10342000I-40000J0D01*
G01*
X7342500Y-10592000D02*
G75*
G03*
X7342500Y-10592000I-40000J0D01*
G01*
X7342500Y-10842000D02*
G75*
G03*
X7342500Y-10842000I-40000J0D01*
G01*
X7342500Y-11092000D02*
G75*
G03*
X7342500Y-11092000I-40000J0D01*
G01*
X7342500Y-11342000D02*
G75*
G03*
X7342500Y-11342000I-40000J0D01*
G01*
X7342500Y-11592000D02*
G75*
G03*
X7342500Y-11592000I-40000J0D01*
G01*
X7342500Y-11842000D02*
G75*
G03*
X7342500Y-11842000I-40000J0D01*
G01*
X7342500Y-12092000D02*
G75*
G03*
X7342500Y-12092000I-40000J0D01*
G01*
X7342500Y-12342000D02*
G75*
G03*
X7342500Y-12342000I-40000J0D01*
G01*
X7342500Y-12592000D02*
G75*
G03*
X7342500Y-12592000I-40000J0D01*
G01*
X7342500Y-12842000D02*
G75*
G03*
X7342500Y-12842000I-40000J0D01*
G01*
X7435400Y-13589000D02*
G75*
G03*
X7435400Y-13589000I-40000J0D01*
G01*
X7558400Y-5257800D02*
G75*
G03*
X7558400Y-5257800I-40000J0D01*
G01*
X7685400Y-13157200D02*
G75*
G03*
X7685400Y-13157200I-40000J0D01*
G01*
X7685400Y-13589000D02*
G75*
G03*
X7685400Y-13589000I-40000J0D01*
G01*
X7938400Y-5257800D02*
G75*
G03*
X7938400Y-5257800I-40000J0D01*
G01*
X7990200Y-7620000D02*
G75*
G03*
X7990200Y-7620000I-40000J0D01*
G01*
X7990200Y-7874000D02*
G75*
G03*
X7990200Y-7874000I-40000J0D01*
G01*
X7990200Y-8128000D02*
G75*
G03*
X7990200Y-8128000I-40000J0D01*
G01*
X7990200Y-8382000D02*
G75*
G03*
X7990200Y-8382000I-40000J0D01*
G01*
X7990200Y-8636000D02*
G75*
G03*
X7990200Y-8636000I-40000J0D01*
G01*
X7990200Y-8890000D02*
G75*
G03*
X7990200Y-8890000I-40000J0D01*
G01*
X7990200Y-9144000D02*
G75*
G03*
X7990200Y-9144000I-40000J0D01*
G01*
X7990200Y-9779000D02*
G75*
G03*
X7990200Y-9779000I-40000J0D01*
G01*
X7990200Y-10033000D02*
G75*
G03*
X7990200Y-10033000I-40000J0D01*
G01*
X7990200Y-10287000D02*
G75*
G03*
X7990200Y-10287000I-40000J0D01*
G01*
X7990200Y-10541000D02*
G75*
G03*
X7990200Y-10541000I-40000J0D01*
G01*
X7990200Y-10795000D02*
G75*
G03*
X7990200Y-10795000I-40000J0D01*
G01*
X7990200Y-11049000D02*
G75*
G03*
X7990200Y-11049000I-40000J0D01*
G01*
X7990200Y-11303000D02*
G75*
G03*
X7990200Y-11303000I-40000J0D01*
G01*
X7990200Y-12065000D02*
G75*
G03*
X7990200Y-12065000I-40000J0D01*
G01*
X7990200Y-12319000D02*
G75*
G03*
X7990200Y-12319000I-40000J0D01*
G01*
X7990200Y-12573000D02*
G75*
G03*
X7990200Y-12573000I-40000J0D01*
G01*
X7990200Y-12827000D02*
G75*
G03*
X7990200Y-12827000I-40000J0D01*
G01*
X7990200Y-13081000D02*
G75*
G03*
X7990200Y-13081000I-40000J0D01*
G01*
X7990200Y-13335000D02*
G75*
G03*
X7990200Y-13335000I-40000J0D01*
G01*
X7990200Y-13589000D02*
G75*
G03*
X7990200Y-13589000I-40000J0D01*
G01*
X8117200Y-5892800D02*
G75*
G03*
X8117200Y-5892800I-40000J0D01*
G01*
X8117200Y-6654800D02*
G75*
G03*
X8117200Y-6654800I-40000J0D01*
G01*
X8371200Y-5892800D02*
G75*
G03*
X8371200Y-5892800I-40000J0D01*
G01*
X8371200Y-6654800D02*
G75*
G03*
X8371200Y-6654800I-40000J0D01*
G01*
X8523600Y-11734800D02*
G75*
G03*
X8523600Y-11734800I-40000J0D01*
G01*
X8625200Y-5892800D02*
G75*
G03*
X8625200Y-5892800I-40000J0D01*
G01*
X8625200Y-6654800D02*
G75*
G03*
X8625200Y-6654800I-40000J0D01*
G01*
X8752200Y-7620000D02*
G75*
G03*
X8752200Y-7620000I-40000J0D01*
G01*
X8752200Y-7874000D02*
G75*
G03*
X8752200Y-7874000I-40000J0D01*
G01*
X8752200Y-8128000D02*
G75*
G03*
X8752200Y-8128000I-40000J0D01*
G01*
X8752200Y-8382000D02*
G75*
G03*
X8752200Y-8382000I-40000J0D01*
G01*
X8752200Y-8636000D02*
G75*
G03*
X8752200Y-8636000I-40000J0D01*
G01*
X8752200Y-8890000D02*
G75*
G03*
X8752200Y-8890000I-40000J0D01*
G01*
X8752200Y-9144000D02*
G75*
G03*
X8752200Y-9144000I-40000J0D01*
G01*
X8752200Y-9779000D02*
G75*
G03*
X8752200Y-9779000I-40000J0D01*
G01*
X8752200Y-10033000D02*
G75*
G03*
X8752200Y-10033000I-40000J0D01*
G01*
X8752200Y-10287000D02*
G75*
G03*
X8752200Y-10287000I-40000J0D01*
G01*
X8752200Y-10541000D02*
G75*
G03*
X8752200Y-10541000I-40000J0D01*
G01*
X8752200Y-10795000D02*
G75*
G03*
X8752200Y-10795000I-40000J0D01*
G01*
X8752200Y-11049000D02*
G75*
G03*
X8752200Y-11049000I-40000J0D01*
G01*
X8752200Y-11303000D02*
G75*
G03*
X8752200Y-11303000I-40000J0D01*
G01*
X8752200Y-12065000D02*
G75*
G03*
X8752200Y-12065000I-40000J0D01*
G01*
X8752200Y-12319000D02*
G75*
G03*
X8752200Y-12319000I-40000J0D01*
G01*
X8752200Y-12573000D02*
G75*
G03*
X8752200Y-12573000I-40000J0D01*
G01*
X8752200Y-12827000D02*
G75*
G03*
X8752200Y-12827000I-40000J0D01*
G01*
X8752200Y-13081000D02*
G75*
G03*
X8752200Y-13081000I-40000J0D01*
G01*
X8752200Y-13335000D02*
G75*
G03*
X8752200Y-13335000I-40000J0D01*
G01*
X8752200Y-13589000D02*
G75*
G03*
X8752200Y-13589000I-40000J0D01*
G01*
X8773600Y-11734800D02*
G75*
G03*
X8773600Y-11734800I-40000J0D01*
G01*
X8879200Y-5892800D02*
G75*
G03*
X8879200Y-5892800I-40000J0D01*
G01*
X8879200Y-6654800D02*
G75*
G03*
X8879200Y-6654800I-40000J0D01*
G01*
X9133200Y-5892800D02*
G75*
G03*
X9133200Y-5892800I-40000J0D01*
G01*
X9133200Y-6654800D02*
G75*
G03*
X9133200Y-6654800I-40000J0D01*
G01*
X9209400Y-9194800D02*
G75*
G03*
X9209400Y-9194800I-40000J0D01*
G01*
X9209400Y-10718800D02*
G75*
G03*
X9209400Y-10718800I-40000J0D01*
G01*
X9209400Y-11633200D02*
G75*
G03*
X9209400Y-11633200I-40000J0D01*
G01*
X9209400Y-13157200D02*
G75*
G03*
X9209400Y-13157200I-40000J0D01*
G01*
X9311000Y-7543800D02*
G75*
G03*
X9311000Y-7543800I-40000J0D01*
G01*
X9311000Y-8305800D02*
G75*
G03*
X9311000Y-8305800I-40000J0D01*
G01*
X9387200Y-5892800D02*
G75*
G03*
X9387200Y-5892800I-40000J0D01*
G01*
X9387200Y-6654800D02*
G75*
G03*
X9387200Y-6654800I-40000J0D01*
G01*
X9463400Y-9194800D02*
G75*
G03*
X9463400Y-9194800I-40000J0D01*
G01*
X9463400Y-10718800D02*
G75*
G03*
X9463400Y-10718800I-40000J0D01*
G01*
X9463400Y-11633200D02*
G75*
G03*
X9463400Y-11633200I-40000J0D01*
G01*
X9463400Y-13157200D02*
G75*
G03*
X9463400Y-13157200I-40000J0D01*
G01*
X9565000Y-7543800D02*
G75*
G03*
X9565000Y-7543800I-40000J0D01*
G01*
X9565000Y-8305800D02*
G75*
G03*
X9565000Y-8305800I-40000J0D01*
G01*
X9641200Y-5892800D02*
G75*
G03*
X9641200Y-5892800I-40000J0D01*
G01*
X9641200Y-6654800D02*
G75*
G03*
X9641200Y-6654800I-40000J0D01*
G01*
X9717400Y-9194800D02*
G75*
G03*
X9717400Y-9194800I-40000J0D01*
G01*
X9717400Y-10718800D02*
G75*
G03*
X9717400Y-10718800I-40000J0D01*
G01*
X9717400Y-11633200D02*
G75*
G03*
X9717400Y-11633200I-40000J0D01*
G01*
X9717400Y-13157200D02*
G75*
G03*
X9717400Y-13157200I-40000J0D01*
G01*
X9819000Y-7543800D02*
G75*
G03*
X9819000Y-7543800I-40000J0D01*
G01*
X9819000Y-8305800D02*
G75*
G03*
X9819000Y-8305800I-40000J0D01*
G01*
X9895200Y-5892800D02*
G75*
G03*
X9895200Y-5892800I-40000J0D01*
G01*
X9895200Y-6654800D02*
G75*
G03*
X9895200Y-6654800I-40000J0D01*
G01*
X9971400Y-9194800D02*
G75*
G03*
X9971400Y-9194800I-40000J0D01*
G01*
X9971400Y-10718800D02*
G75*
G03*
X9971400Y-10718800I-40000J0D01*
G01*
X9971400Y-11633200D02*
G75*
G03*
X9971400Y-11633200I-40000J0D01*
G01*
X9971400Y-13157200D02*
G75*
G03*
X9971400Y-13157200I-40000J0D01*
G01*
X10073000Y-7543800D02*
G75*
G03*
X10073000Y-7543800I-40000J0D01*
G01*
X10073000Y-8305800D02*
G75*
G03*
X10073000Y-8305800I-40000J0D01*
G01*
X10149200Y-5892800D02*
G75*
G03*
X10149200Y-5892800I-40000J0D01*
G01*
X10149200Y-6654800D02*
G75*
G03*
X10149200Y-6654800I-40000J0D01*
G01*
X10225400Y-9194800D02*
G75*
G03*
X10225400Y-9194800I-40000J0D01*
G01*
X10225400Y-10718800D02*
G75*
G03*
X10225400Y-10718800I-40000J0D01*
G01*
X10225400Y-11633200D02*
G75*
G03*
X10225400Y-11633200I-40000J0D01*
G01*
X10225400Y-13157200D02*
G75*
G03*
X10225400Y-13157200I-40000J0D01*
G01*
X10327000Y-7543800D02*
G75*
G03*
X10327000Y-7543800I-40000J0D01*
G01*
X10327000Y-8305800D02*
G75*
G03*
X10327000Y-8305800I-40000J0D01*
G01*
X10403200Y-5892800D02*
G75*
G03*
X10403200Y-5892800I-40000J0D01*
G01*
X10403200Y-6654800D02*
G75*
G03*
X10403200Y-6654800I-40000J0D01*
G01*
X10479400Y-9194800D02*
G75*
G03*
X10479400Y-9194800I-40000J0D01*
G01*
X10479400Y-10718800D02*
G75*
G03*
X10479400Y-10718800I-40000J0D01*
G01*
X10479400Y-11633200D02*
G75*
G03*
X10479400Y-11633200I-40000J0D01*
G01*
X10479400Y-13157200D02*
G75*
G03*
X10479400Y-13157200I-40000J0D01*
G01*
X10581000Y-7543800D02*
G75*
G03*
X10581000Y-7543800I-40000J0D01*
G01*
X10581000Y-8305800D02*
G75*
G03*
X10581000Y-8305800I-40000J0D01*
G01*
X10708000Y-6451600D02*
G75*
G03*
X10708000Y-6451600I-40000J0D01*
G01*
X10708000Y-6701600D02*
G75*
G03*
X10708000Y-6701600I-40000J0D01*
G01*
X10733400Y-9194800D02*
G75*
G03*
X10733400Y-9194800I-40000J0D01*
G01*
X10733400Y-10718800D02*
G75*
G03*
X10733400Y-10718800I-40000J0D01*
G01*
X10733400Y-11633200D02*
G75*
G03*
X10733400Y-11633200I-40000J0D01*
G01*
X10733400Y-13157200D02*
G75*
G03*
X10733400Y-13157200I-40000J0D01*
G01*
X10835000Y-7543800D02*
G75*
G03*
X10835000Y-7543800I-40000J0D01*
G01*
X10835000Y-8305800D02*
G75*
G03*
X10835000Y-8305800I-40000J0D01*
G01*
X10987400Y-9194800D02*
G75*
G03*
X10987400Y-9194800I-40000J0D01*
G01*
X10987400Y-10718800D02*
G75*
G03*
X10987400Y-10718800I-40000J0D01*
G01*
X10987400Y-11633200D02*
G75*
G03*
X10987400Y-11633200I-40000J0D01*
G01*
X10987400Y-13157200D02*
G75*
G03*
X10987400Y-13157200I-40000J0D01*
G01*
X11089000Y-7543800D02*
G75*
G03*
X11089000Y-7543800I-40000J0D01*
G01*
X11089000Y-8305800D02*
G75*
G03*
X11089000Y-8305800I-40000J0D01*
G01*
X11241400Y-9194800D02*
G75*
G03*
X11241400Y-9194800I-40000J0D01*
G01*
X11241400Y-10718800D02*
G75*
G03*
X11241400Y-10718800I-40000J0D01*
G01*
X11241400Y-11633200D02*
G75*
G03*
X11241400Y-11633200I-40000J0D01*
G01*
X11241400Y-13157200D02*
G75*
G03*
X11241400Y-13157200I-40000J0D01*
G01*
X11495400Y-9194800D02*
G75*
G03*
X11495400Y-9194800I-40000J0D01*
G01*
X11495400Y-10718800D02*
G75*
G03*
X11495400Y-10718800I-40000J0D01*
G01*
X11495400Y-11633200D02*
G75*
G03*
X11495400Y-11633200I-40000J0D01*
G01*
X11495400Y-13157200D02*
G75*
G03*
X11495400Y-13157200I-40000J0D01*
G01*
X11749400Y-9194800D02*
G75*
G03*
X11749400Y-9194800I-40000J0D01*
G01*
X11749400Y-10718800D02*
G75*
G03*
X11749400Y-10718800I-40000J0D01*
G01*
X11749400Y-11633200D02*
G75*
G03*
X11749400Y-11633200I-40000J0D01*
G01*
X11749400Y-13157200D02*
G75*
G03*
X11749400Y-13157200I-40000J0D01*
G01*
X11774800Y-6172200D02*
G75*
G03*
X11774800Y-6172200I-40000J0D01*
G01*
X11774800Y-6422200D02*
G75*
G03*
X11774800Y-6422200I-40000J0D01*
G01*
X11774800Y-6654800D02*
G75*
G03*
X11774800Y-6654800I-40000J0D01*
G01*
X11774800Y-6904800D02*
G75*
G03*
X11774800Y-6904800I-40000J0D01*
G01*
X11774800Y-7137400D02*
G75*
G03*
X11774800Y-7137400I-40000J0D01*
G01*
X11774800Y-7387400D02*
G75*
G03*
X11774800Y-7387400I-40000J0D01*
G01*
X11774800Y-7624000D02*
G75*
G03*
X11774800Y-7624000I-40000J0D01*
G01*
X11774800Y-7874000D02*
G75*
G03*
X11774800Y-7874000I-40000J0D01*
G01*
X12003400Y-9194800D02*
G75*
G03*
X12003400Y-9194800I-40000J0D01*
G01*
X12003400Y-10718800D02*
G75*
G03*
X12003400Y-10718800I-40000J0D01*
G01*
X12003400Y-11633200D02*
G75*
G03*
X12003400Y-11633200I-40000J0D01*
G01*
X12003400Y-13157200D02*
G75*
G03*
X12003400Y-13157200I-40000J0D01*
G01*
X12054200Y-12369800D02*
G75*
G03*
X12054200Y-12369800I-40000J0D01*
G01*
X12058200Y-9982200D02*
G75*
G03*
X12058200Y-9982200I-40000J0D01*
G01*
X12079600Y-6375400D02*
G75*
G03*
X12079600Y-6375400I-40000J0D01*
G01*
X12079600Y-6629400D02*
G75*
G03*
X12079600Y-6629400I-40000J0D01*
G01*
X12079600Y-6883400D02*
G75*
G03*
X12079600Y-6883400I-40000J0D01*
G01*
X12079600Y-7137400D02*
G75*
G03*
X12079600Y-7137400I-40000J0D01*
G01*
X12079600Y-7391400D02*
G75*
G03*
X12079600Y-7391400I-40000J0D01*
G01*
X12079600Y-7645400D02*
G75*
G03*
X12079600Y-7645400I-40000J0D01*
G01*
X12079600Y-7899400D02*
G75*
G03*
X12079600Y-7899400I-40000J0D01*
G01*
X12079600Y-8153400D02*
G75*
G03*
X12079600Y-8153400I-40000J0D01*
G01*
X12257400Y-9194800D02*
G75*
G03*
X12257400Y-9194800I-40000J0D01*
G01*
X12257400Y-10718800D02*
G75*
G03*
X12257400Y-10718800I-40000J0D01*
G01*
X12257400Y-11633200D02*
G75*
G03*
X12257400Y-11633200I-40000J0D01*
G01*
X12257400Y-13157200D02*
G75*
G03*
X12257400Y-13157200I-40000J0D01*
G01*
X12304200Y-12369800D02*
G75*
G03*
X12304200Y-12369800I-40000J0D01*
G01*
X12308200Y-9982200D02*
G75*
G03*
X12308200Y-9982200I-40000J0D01*
G01*
X12511400Y-9194800D02*
G75*
G03*
X12511400Y-9194800I-40000J0D01*
G01*
X12511400Y-10718800D02*
G75*
G03*
X12511400Y-10718800I-40000J0D01*
G01*
X12511400Y-11633200D02*
G75*
G03*
X12511400Y-11633200I-40000J0D01*
G01*
X12511400Y-13157200D02*
G75*
G03*
X12511400Y-13157200I-40000J0D01*
G01*
X12765400Y-9194800D02*
G75*
G03*
X12765400Y-9194800I-40000J0D01*
G01*
X12765400Y-10718800D02*
G75*
G03*
X12765400Y-10718800I-40000J0D01*
G01*
X12765400Y-11633200D02*
G75*
G03*
X12765400Y-11633200I-40000J0D01*
G01*
X12765400Y-13157200D02*
G75*
G03*
X12765400Y-13157200I-40000J0D01*
G01*
X12841600Y-6375400D02*
G75*
G03*
X12841600Y-6375400I-40000J0D01*
G01*
X12841600Y-6629400D02*
G75*
G03*
X12841600Y-6629400I-40000J0D01*
G01*
X12841600Y-6883400D02*
G75*
G03*
X12841600Y-6883400I-40000J0D01*
G01*
X12841600Y-7137400D02*
G75*
G03*
X12841600Y-7137400I-40000J0D01*
G01*
X12841600Y-7391400D02*
G75*
G03*
X12841600Y-7391400I-40000J0D01*
G01*
X12841600Y-7645400D02*
G75*
G03*
X12841600Y-7645400I-40000J0D01*
G01*
X12841600Y-7899400D02*
G75*
G03*
X12841600Y-7899400I-40000J0D01*
G01*
X12841600Y-8153400D02*
G75*
G03*
X12841600Y-8153400I-40000J0D01*
G01*
X13019400Y-9194800D02*
G75*
G03*
X13019400Y-9194800I-40000J0D01*
G01*
X13019400Y-10718800D02*
G75*
G03*
X13019400Y-10718800I-40000J0D01*
G01*
X13019400Y-11633200D02*
G75*
G03*
X13019400Y-11633200I-40000J0D01*
G01*
X13019400Y-13157200D02*
G75*
G03*
X13019400Y-13157200I-40000J0D01*
G01*
X13171800Y-6354000D02*
G75*
G03*
X13171800Y-6354000I-40000J0D01*
G01*
X13171800Y-6604000D02*
G75*
G03*
X13171800Y-6604000I-40000J0D01*
G01*
X13273400Y-9194800D02*
G75*
G03*
X13273400Y-9194800I-40000J0D01*
G01*
X13273400Y-10718800D02*
G75*
G03*
X13273400Y-10718800I-40000J0D01*
G01*
X13273400Y-11633200D02*
G75*
G03*
X13273400Y-11633200I-40000J0D01*
G01*
X13273400Y-13157200D02*
G75*
G03*
X13273400Y-13157200I-40000J0D01*
G01*
X13502000Y-6146800D02*
G75*
G03*
X13502000Y-6146800I-40000J0D01*
G01*
X13502000Y-6396800D02*
G75*
G03*
X13502000Y-6396800I-40000J0D01*
G01*
X13502000Y-6629400D02*
G75*
G03*
X13502000Y-6629400I-40000J0D01*
G01*
X13502000Y-6879400D02*
G75*
G03*
X13502000Y-6879400I-40000J0D01*
G01*
X13502000Y-7112000D02*
G75*
G03*
X13502000Y-7112000I-40000J0D01*
G01*
X13502000Y-7362000D02*
G75*
G03*
X13502000Y-7362000I-40000J0D01*
G01*
X13502000Y-7598600D02*
G75*
G03*
X13502000Y-7598600I-40000J0D01*
G01*
X13502000Y-7848600D02*
G75*
G03*
X13502000Y-7848600I-40000J0D01*
G01*
X13527400Y-9194800D02*
G75*
G03*
X13527400Y-9194800I-40000J0D01*
G01*
X13527400Y-10718800D02*
G75*
G03*
X13527400Y-10718800I-40000J0D01*
G01*
X13527400Y-11633200D02*
G75*
G03*
X13527400Y-11633200I-40000J0D01*
G01*
X13527400Y-13157200D02*
G75*
G03*
X13527400Y-13157200I-40000J0D01*
G01*
X13781400Y-9194800D02*
G75*
G03*
X13781400Y-9194800I-40000J0D01*
G01*
X13781400Y-10718800D02*
G75*
G03*
X13781400Y-10718800I-40000J0D01*
G01*
X13781400Y-11633200D02*
G75*
G03*
X13781400Y-11633200I-40000J0D01*
G01*
X13781400Y-13157200D02*
G75*
G03*
X13781400Y-13157200I-40000J0D01*
G01*
X13806800Y-6350000D02*
G75*
G03*
X13806800Y-6350000I-40000J0D01*
G01*
X13806800Y-6604000D02*
G75*
G03*
X13806800Y-6604000I-40000J0D01*
G01*
X13806800Y-6858000D02*
G75*
G03*
X13806800Y-6858000I-40000J0D01*
G01*
X13806800Y-7112000D02*
G75*
G03*
X13806800Y-7112000I-40000J0D01*
G01*
X13806800Y-7366000D02*
G75*
G03*
X13806800Y-7366000I-40000J0D01*
G01*
X13806800Y-7620000D02*
G75*
G03*
X13806800Y-7620000I-40000J0D01*
G01*
X13806800Y-7874000D02*
G75*
G03*
X13806800Y-7874000I-40000J0D01*
G01*
X13806800Y-8128000D02*
G75*
G03*
X13806800Y-8128000I-40000J0D01*
G01*
X14035400Y-9194800D02*
G75*
G03*
X14035400Y-9194800I-40000J0D01*
G01*
X14035400Y-10718800D02*
G75*
G03*
X14035400Y-10718800I-40000J0D01*
G01*
X14035400Y-11633200D02*
G75*
G03*
X14035400Y-11633200I-40000J0D01*
G01*
X14035400Y-13157200D02*
G75*
G03*
X14035400Y-13157200I-40000J0D01*
G01*
X14568800Y-6350000D02*
G75*
G03*
X14568800Y-6350000I-40000J0D01*
G01*
X14568800Y-6604000D02*
G75*
G03*
X14568800Y-6604000I-40000J0D01*
G01*
X14568800Y-6858000D02*
G75*
G03*
X14568800Y-6858000I-40000J0D01*
G01*
X14568800Y-7112000D02*
G75*
G03*
X14568800Y-7112000I-40000J0D01*
G01*
X14568800Y-7366000D02*
G75*
G03*
X14568800Y-7366000I-40000J0D01*
G01*
X14568800Y-7620000D02*
G75*
G03*
X14568800Y-7620000I-40000J0D01*
G01*
X14568800Y-7874000D02*
G75*
G03*
X14568800Y-7874000I-40000J0D01*
G01*
X14568800Y-8128000D02*
G75*
G03*
X14568800Y-8128000I-40000J0D01*
G01*
X14594200Y-12827000D02*
G75*
G03*
X14594200Y-12827000I-40000J0D01*
G01*
X14594200Y-13077000D02*
G75*
G03*
X14594200Y-13077000I-40000J0D01*
G01*
X14899000Y-6303200D02*
G75*
G03*
X14899000Y-6303200I-40000J0D01*
G01*
X14899000Y-6553200D02*
G75*
G03*
X14899000Y-6553200I-40000J0D01*
G01*
X15051400Y-12831000D02*
G75*
G03*
X15051400Y-12831000I-40000J0D01*
G01*
X15051400Y-13081000D02*
G75*
G03*
X15051400Y-13081000I-40000J0D01*
G01*
X6083360Y-5609000D02*
X6083360Y-5709000D01*
X6033360Y-5659000D02*
X6133360Y-5659000D01*
X6083360Y-5863000D02*
X6083360Y-5963000D01*
X6033360Y-5913000D02*
X6133360Y-5913000D01*
X6083360Y-6117000D02*
X6083360Y-6217000D01*
X6033360Y-6167000D02*
X6133360Y-6167000D01*
X6083360Y-6371000D02*
X6083360Y-6471000D01*
X6033360Y-6421000D02*
X6133360Y-6421000D01*
X6083360Y-6625000D02*
X6083360Y-6725000D01*
X6033360Y-6675000D02*
X6133360Y-6675000D01*
X6083360Y-6879000D02*
X6083360Y-6979000D01*
X6033360Y-6929000D02*
X6133360Y-6929000D01*
X6083360Y-7133000D02*
X6083360Y-7233000D01*
X6033360Y-7183000D02*
X6133360Y-7183000D01*
X6083360Y-7387000D02*
X6083360Y-7487000D01*
X6033360Y-7437000D02*
X6133360Y-7437000D01*
X6083360Y-7641000D02*
X6083360Y-7741000D01*
X6033360Y-7691000D02*
X6133360Y-7691000D01*
X6083360Y-7895000D02*
X6083360Y-7995000D01*
X6033360Y-7945000D02*
X6133360Y-7945000D01*
X6083360Y-8149000D02*
X6083360Y-8249000D01*
X6033360Y-8199000D02*
X6133360Y-8199000D01*
X6083360Y-8403000D02*
X6083360Y-8503000D01*
X6033360Y-8453000D02*
X6133360Y-8453000D01*
X6083360Y-8657000D02*
X6083360Y-8757000D01*
X6033360Y-8707000D02*
X6133360Y-8707000D01*
X6083360Y-8911000D02*
X6083360Y-9011000D01*
X6033360Y-8961000D02*
X6133360Y-8961000D01*
X6083360Y-9165000D02*
X6083360Y-9265000D01*
X6033360Y-9215000D02*
X6133360Y-9215000D01*
X6083360Y-9419000D02*
X6083360Y-9519000D01*
X6033360Y-9469000D02*
X6133360Y-9469000D01*
X6083360Y-9673000D02*
X6083360Y-9773000D01*
X6033360Y-9723000D02*
X6133360Y-9723000D01*
X6083360Y-9927000D02*
X6083360Y-10027000D01*
X6033360Y-9977000D02*
X6133360Y-9977000D01*
X6083360Y-10181000D02*
X6083360Y-10281000D01*
X6033360Y-10231000D02*
X6133360Y-10231000D01*
X6083360Y-10435000D02*
X6083360Y-10535000D01*
X6033360Y-10485000D02*
X6133360Y-10485000D01*
X6083360Y-10689000D02*
X6083360Y-10789000D01*
X6033360Y-10739000D02*
X6133360Y-10739000D01*
X6083360Y-10943000D02*
X6083360Y-11043000D01*
X6033360Y-10993000D02*
X6133360Y-10993000D01*
X6083360Y-11197000D02*
X6083360Y-11297000D01*
X6033360Y-11247000D02*
X6133360Y-11247000D01*
X6083360Y-11451000D02*
X6083360Y-11551000D01*
X6033360Y-11501000D02*
X6133360Y-11501000D01*
X6083360Y-11705000D02*
X6083360Y-11805000D01*
X6033360Y-11755000D02*
X6133360Y-11755000D01*
X6083360Y-11959000D02*
X6083360Y-12059000D01*
X6033360Y-12009000D02*
X6133360Y-12009000D01*
X6083360Y-12213000D02*
X6083360Y-12313000D01*
X6033360Y-12263000D02*
X6133360Y-12263000D01*
X6083360Y-12467000D02*
X6083360Y-12567000D01*
X6033360Y-12517000D02*
X6133360Y-12517000D01*
X6083360Y-12721000D02*
X6083360Y-12821000D01*
X6033360Y-12771000D02*
X6133360Y-12771000D01*
X6591360Y-5609000D02*
X6591360Y-5709000D01*
X6541360Y-5659000D02*
X6641360Y-5659000D01*
X6591360Y-5863000D02*
X6591360Y-5963000D01*
X6541360Y-5913000D02*
X6641360Y-5913000D01*
X6591360Y-6117000D02*
X6591360Y-6217000D01*
X6541360Y-6167000D02*
X6641360Y-6167000D01*
X6591360Y-6371000D02*
X6591360Y-6471000D01*
X6541360Y-6421000D02*
X6641360Y-6421000D01*
X6591360Y-6625000D02*
X6591360Y-6725000D01*
X6541360Y-6675000D02*
X6641360Y-6675000D01*
X6591360Y-6879000D02*
X6591360Y-6979000D01*
X6541360Y-6929000D02*
X6641360Y-6929000D01*
X6591360Y-7133000D02*
X6591360Y-7233000D01*
X6541360Y-7183000D02*
X6641360Y-7183000D01*
X6591360Y-7387000D02*
X6591360Y-7487000D01*
X6541360Y-7437000D02*
X6641360Y-7437000D01*
X6591360Y-7641000D02*
X6591360Y-7741000D01*
X6541360Y-7691000D02*
X6641360Y-7691000D01*
X6591360Y-7895000D02*
X6591360Y-7995000D01*
X6541360Y-7945000D02*
X6641360Y-7945000D01*
X6591360Y-8149000D02*
X6591360Y-8249000D01*
X6541360Y-8199000D02*
X6641360Y-8199000D01*
X6591360Y-8403000D02*
X6591360Y-8503000D01*
X6541360Y-8453000D02*
X6641360Y-8453000D01*
X6591360Y-8657000D02*
X6591360Y-8757000D01*
X6541360Y-8707000D02*
X6641360Y-8707000D01*
X6591360Y-8911000D02*
X6591360Y-9011000D01*
X6541360Y-8961000D02*
X6641360Y-8961000D01*
X6591360Y-9165000D02*
X6591360Y-9265000D01*
X6541360Y-9215000D02*
X6641360Y-9215000D01*
X6591360Y-9419000D02*
X6591360Y-9519000D01*
X6541360Y-9469000D02*
X6641360Y-9469000D01*
X6591360Y-9673000D02*
X6591360Y-9773000D01*
X6541360Y-9723000D02*
X6641360Y-9723000D01*
X6591360Y-9927000D02*
X6591360Y-10027000D01*
X6541360Y-9977000D02*
X6641360Y-9977000D01*
X6591360Y-10181000D02*
X6591360Y-10281000D01*
X6541360Y-10231000D02*
X6641360Y-10231000D01*
X6591360Y-10435000D02*
X6591360Y-10535000D01*
X6541360Y-10485000D02*
X6641360Y-10485000D01*
X6591360Y-10689000D02*
X6591360Y-10789000D01*
X6541360Y-10739000D02*
X6641360Y-10739000D01*
X6591360Y-10943000D02*
X6591360Y-11043000D01*
X6541360Y-10993000D02*
X6641360Y-10993000D01*
X6591360Y-11197000D02*
X6591360Y-11297000D01*
X6541360Y-11247000D02*
X6641360Y-11247000D01*
X6591360Y-11451000D02*
X6591360Y-11551000D01*
X6541360Y-11501000D02*
X6641360Y-11501000D01*
X6591360Y-11705000D02*
X6591360Y-11805000D01*
X6541360Y-11755000D02*
X6641360Y-11755000D01*
X6591360Y-11959000D02*
X6591360Y-12059000D01*
X6541360Y-12009000D02*
X6641360Y-12009000D01*
X6591360Y-12213000D02*
X6591360Y-12313000D01*
X6541360Y-12263000D02*
X6641360Y-12263000D01*
X6591360Y-12467000D02*
X6591360Y-12567000D01*
X6541360Y-12517000D02*
X6641360Y-12517000D01*
X6591360Y-12721000D02*
X6591360Y-12821000D01*
X6541360Y-12771000D02*
X6641360Y-12771000D01*
X8051800Y-7062000D02*
X8051800Y-7162000D01*
X8001800Y-7112000D02*
X8101800Y-7112000D01*
X8305800Y-7062000D02*
X8305800Y-7162000D01*
X8255800Y-7112000D02*
X8355800Y-7112000D01*
X8559800Y-7062000D02*
X8559800Y-7162000D01*
X8509800Y-7112000D02*
X8609800Y-7112000D01*
X11963400Y-4877600D02*
X11963400Y-4977600D01*
X11913400Y-4927600D02*
X12013400Y-4927600D01*
X11963400Y-5131600D02*
X11963400Y-5231600D01*
X11913400Y-5181600D02*
X12013400Y-5181600D01*
X11963400Y-5385600D02*
X11963400Y-5485600D01*
X11913400Y-5435600D02*
X12013400Y-5435600D01*
X12217400Y-4877600D02*
X12217400Y-4977600D01*
X12167400Y-4927600D02*
X12267400Y-4927600D01*
X12217400Y-5131600D02*
X12217400Y-5231600D01*
X12167400Y-5181600D02*
X12267400Y-5181600D01*
X12217400Y-5385600D02*
X12217400Y-5485600D01*
X12167400Y-5435600D02*
X12267400Y-5435600D01*
X13522400Y-5385600D02*
X13522400Y-5485600D01*
X13472400Y-5435600D02*
X13572400Y-5435600D01*
X13660900Y-5101600D02*
X13660900Y-5201600D01*
X13610900Y-5151600D02*
X13710900Y-5151600D01*
X13799400Y-5385600D02*
X13799400Y-5485600D01*
X13749400Y-5435600D02*
X13849400Y-5435600D01*
X13937900Y-5101600D02*
X13937900Y-5201600D01*
X13887900Y-5151600D02*
X13987900Y-5151600D01*
X14076400Y-5385600D02*
X14076400Y-5485600D01*
X14026400Y-5435600D02*
X14126400Y-5435600D01*
X14214900Y-5101600D02*
X14214900Y-5201600D01*
X14164900Y-5151600D02*
X14264900Y-5151600D01*
X14353400Y-5385600D02*
X14353400Y-5485600D01*
X14303400Y-5435600D02*
X14403400Y-5435600D01*
X14491900Y-5101600D02*
X14491900Y-5201600D01*
X14441900Y-5151600D02*
X14541900Y-5151600D01*
X14630400Y-5385600D02*
X14630400Y-5485600D01*
X14580400Y-5435600D02*
X14680400Y-5435600D01*
X15722600Y-6985800D02*
X15722600Y-7085800D01*
X15672600Y-7035800D02*
X15772600Y-7035800D01*
X15722600Y-7262800D02*
X15722600Y-7362800D01*
X15672600Y-7312800D02*
X15772600Y-7312800D01*
X15722600Y-7539800D02*
X15722600Y-7639800D01*
X15672600Y-7589800D02*
X15772600Y-7589800D01*
X15722600Y-7816800D02*
X15722600Y-7916800D01*
X15672600Y-7866800D02*
X15772600Y-7866800D01*
X15722600Y-8093800D02*
X15722600Y-8193800D01*
X15672600Y-8143800D02*
X15772600Y-8143800D01*
X15722600Y-8370800D02*
X15722600Y-8470800D01*
X15672600Y-8420800D02*
X15772600Y-8420800D01*
X15722600Y-8647800D02*
X15722600Y-8747800D01*
X15672600Y-8697800D02*
X15772600Y-8697800D01*
X15722600Y-8924800D02*
X15722600Y-9024800D01*
X15672600Y-8974800D02*
X15772600Y-8974800D01*
X15722600Y-9201800D02*
X15722600Y-9301800D01*
X15672600Y-9251800D02*
X15772600Y-9251800D01*
X15722600Y-9478800D02*
X15722600Y-9578800D01*
X15672600Y-9528800D02*
X15772600Y-9528800D01*
X15722600Y-9755800D02*
X15722600Y-9855800D01*
X15672600Y-9805800D02*
X15772600Y-9805800D01*
X15722600Y-10032800D02*
X15722600Y-10132800D01*
X15672600Y-10082800D02*
X15772600Y-10082800D01*
X15722600Y-10309800D02*
X15722600Y-10409800D01*
X15672600Y-10359800D02*
X15772600Y-10359800D01*
X15722600Y-10586800D02*
X15722600Y-10686800D01*
X15672600Y-10636800D02*
X15772600Y-10636800D01*
X15722600Y-10863800D02*
X15722600Y-10963800D01*
X15672600Y-10913800D02*
X15772600Y-10913800D01*
X15722600Y-11140800D02*
X15722600Y-11240800D01*
X15672600Y-11190800D02*
X15772600Y-11190800D01*
X15722600Y-11417800D02*
X15722600Y-11517800D01*
X15672600Y-11467800D02*
X15772600Y-11467800D01*
X15722600Y-11694800D02*
X15722600Y-11794800D01*
X15672600Y-11744800D02*
X15772600Y-11744800D01*
X15722600Y-11971800D02*
X15722600Y-12071800D01*
X15672600Y-12021800D02*
X15772600Y-12021800D01*
X16006600Y-7124300D02*
X16006600Y-7224300D01*
X15956600Y-7174300D02*
X16056600Y-7174300D01*
X16006600Y-7401300D02*
X16006600Y-7501300D01*
X15956600Y-7451300D02*
X16056600Y-7451300D01*
X16006600Y-7678300D02*
X16006600Y-7778300D01*
X15956600Y-7728300D02*
X16056600Y-7728300D01*
X16006600Y-7955300D02*
X16006600Y-8055300D01*
X15956600Y-8005300D02*
X16056600Y-8005300D01*
X16006600Y-8232300D02*
X16006600Y-8332300D01*
X15956600Y-8282300D02*
X16056600Y-8282300D01*
X16006600Y-8509300D02*
X16006600Y-8609300D01*
X15956600Y-8559300D02*
X16056600Y-8559300D01*
X16006600Y-8786300D02*
X16006600Y-8886300D01*
X15956600Y-8836300D02*
X16056600Y-8836300D01*
X16006600Y-9063300D02*
X16006600Y-9163300D01*
X15956600Y-9113300D02*
X16056600Y-9113300D01*
X16006600Y-9340300D02*
X16006600Y-9440300D01*
X15956600Y-9390300D02*
X16056600Y-9390300D01*
X16006600Y-9617300D02*
X16006600Y-9717300D01*
X15956600Y-9667300D02*
X16056600Y-9667300D01*
X16006600Y-9894300D02*
X16006600Y-9994300D01*
X15956600Y-9944300D02*
X16056600Y-9944300D01*
X16006600Y-10171300D02*
X16006600Y-10271300D01*
X15956600Y-10221300D02*
X16056600Y-10221300D01*
X16006600Y-10448300D02*
X16006600Y-10548300D01*
X15956600Y-10498300D02*
X16056600Y-10498300D01*
X16006600Y-10725300D02*
X16006600Y-10825300D01*
X15956600Y-10775300D02*
X16056600Y-10775300D01*
X16006600Y-11002300D02*
X16006600Y-11102300D01*
X15956600Y-11052300D02*
X16056600Y-11052300D01*
X16006600Y-11279300D02*
X16006600Y-11379300D01*
X15956600Y-11329300D02*
X16056600Y-11329300D01*
X16006600Y-11556300D02*
X16006600Y-11656300D01*
X15956600Y-11606300D02*
X16056600Y-11606300D01*
X16006600Y-11833300D02*
X16006600Y-11933300D01*
X15956600Y-11883300D02*
X16056600Y-11883300D01*
X5885929Y-4953569D02*
X5885929Y-4840431D01*
X5772791Y-4840431D01*
X5772791Y-4953569D01*
X5885929Y-4953569D01*
X5885929Y-13843569D02*
X5885929Y-13730431D01*
X5772791Y-13730431D01*
X5772791Y-13843569D01*
X5885929Y-13843569D01*
X6109069Y-5273569D02*
X6109069Y-5160431D01*
X5995931Y-5160431D01*
X5995931Y-5273569D01*
X6109069Y-5273569D01*
X6109069Y-13523569D02*
X6109069Y-13410431D01*
X5995931Y-13410431D01*
X5995931Y-13523569D01*
X6109069Y-13523569D01*
X12826400Y-5565600D02*
X12986400Y-5405600D01*
X12826400Y-5245600D01*
X12666400Y-5405600D01*
X12826400Y-5565600D01*
X15326400Y-5565600D02*
X15486400Y-5405600D01*
X15326400Y-5245600D01*
X15166400Y-5405600D01*
X15326400Y-5565600D01*
X15752600Y-6513800D02*
X15912600Y-6353800D01*
X15752600Y-6193800D01*
X15592600Y-6353800D01*
X15752600Y-6513800D01*
X15752600Y-12863800D02*
X15912600Y-12703800D01*
X15752600Y-12543800D01*
X15592600Y-12703800D01*
X15752600Y-12863800D01*
D12*
X5808428Y-14565214D02*
X5808428Y-14265214D01*
X5879857Y-14265214D01*
X5922714Y-14279500D01*
X5951286Y-14308071D01*
X5965571Y-14336643D01*
X5979857Y-14393786D01*
X5979857Y-14436643D01*
X5965571Y-14493786D01*
X5951286Y-14522357D01*
X5922714Y-14550929D01*
X5879857Y-14565214D01*
X5808428Y-14565214D01*
X6108428Y-14565214D02*
X6108428Y-14365214D01*
X6108428Y-14422357D02*
X6122714Y-14393786D01*
X6137000Y-14379500D01*
X6165571Y-14365214D01*
X6194143Y-14365214D01*
X6294143Y-14565214D02*
X6294143Y-14365214D01*
X6294143Y-14265214D02*
X6279857Y-14279500D01*
X6294143Y-14293786D01*
X6308428Y-14279500D01*
X6294143Y-14265214D01*
X6294143Y-14293786D01*
X6479857Y-14565214D02*
X6451286Y-14550929D01*
X6437000Y-14522357D01*
X6437000Y-14265214D01*
X6637000Y-14565214D02*
X6608428Y-14550929D01*
X6594143Y-14522357D01*
X6594143Y-14265214D01*
X6979857Y-14565214D02*
X6979857Y-14265214D01*
X7079857Y-14479500D01*
X7179857Y-14265214D01*
X7179857Y-14565214D01*
X7451286Y-14565214D02*
X7451286Y-14408071D01*
X7437000Y-14379500D01*
X7408428Y-14365214D01*
X7351286Y-14365214D01*
X7322714Y-14379500D01*
X7451286Y-14550929D02*
X7422714Y-14565214D01*
X7351286Y-14565214D01*
X7322714Y-14550929D01*
X7308428Y-14522357D01*
X7308428Y-14493786D01*
X7322714Y-14465214D01*
X7351286Y-14450929D01*
X7422714Y-14450929D01*
X7451286Y-14436643D01*
X7594143Y-14365214D02*
X7594143Y-14665214D01*
X7594143Y-14379500D02*
X7622714Y-14365214D01*
X7679857Y-14365214D01*
X7708428Y-14379500D01*
X7722714Y-14393786D01*
X7737000Y-14422357D01*
X7737000Y-14508071D01*
X7722714Y-14536643D01*
X7708428Y-14550929D01*
X7679857Y-14565214D01*
X7622714Y-14565214D01*
X7594143Y-14550929D01*
X7865571Y-14536643D02*
X7879857Y-14550929D01*
X7865571Y-14565214D01*
X7851286Y-14550929D01*
X7865571Y-14536643D01*
X7865571Y-14565214D01*
X7865571Y-14379500D02*
X7879857Y-14393786D01*
X7865571Y-14408071D01*
X7851286Y-14393786D01*
X7865571Y-14379500D01*
X7865571Y-14408071D01*
X5482000Y-15039500D02*
X5522000Y-15079500D01*
X5522000Y-15039500D02*
X5482000Y-15079500D01*
X5865571Y-14895214D02*
X5894143Y-14895214D01*
X5922714Y-14909500D01*
X5937000Y-14923786D01*
X5951286Y-14952357D01*
X5965571Y-15009500D01*
X5965571Y-15080929D01*
X5951286Y-15138071D01*
X5937000Y-15166643D01*
X5922714Y-15180929D01*
X5894143Y-15195214D01*
X5865571Y-15195214D01*
X5837000Y-15180929D01*
X5822714Y-15166643D01*
X5808428Y-15138071D01*
X5794143Y-15080929D01*
X5794143Y-15009500D01*
X5808428Y-14952357D01*
X5822714Y-14923786D01*
X5837000Y-14909500D01*
X5865571Y-14895214D01*
X6094143Y-15166643D02*
X6108428Y-15180929D01*
X6094143Y-15195214D01*
X6079857Y-15180929D01*
X6094143Y-15166643D01*
X6094143Y-15195214D01*
X6365571Y-14995214D02*
X6365571Y-15195214D01*
X6294143Y-14880929D02*
X6222714Y-15095214D01*
X6408428Y-15095214D01*
X6579857Y-14895214D02*
X6608428Y-14895214D01*
X6637000Y-14909500D01*
X6651286Y-14923786D01*
X6665571Y-14952357D01*
X6679857Y-15009500D01*
X6679857Y-15080929D01*
X6665571Y-15138071D01*
X6651286Y-15166643D01*
X6637000Y-15180929D01*
X6608428Y-15195214D01*
X6579857Y-15195214D01*
X6551286Y-15180929D01*
X6537000Y-15166643D01*
X6522714Y-15138071D01*
X6508428Y-15080929D01*
X6508428Y-15009500D01*
X6522714Y-14952357D01*
X6537000Y-14923786D01*
X6551286Y-14909500D01*
X6579857Y-14895214D01*
X6865571Y-14895214D02*
X6894143Y-14895214D01*
X6922714Y-14909500D01*
X6937000Y-14923786D01*
X6951286Y-14952357D01*
X6965571Y-15009500D01*
X6965571Y-15080929D01*
X6951286Y-15138071D01*
X6937000Y-15166643D01*
X6922714Y-15180929D01*
X6894143Y-15195214D01*
X6865571Y-15195214D01*
X6837000Y-15180929D01*
X6822714Y-15166643D01*
X6808428Y-15138071D01*
X6794143Y-15080929D01*
X6794143Y-15009500D01*
X6808428Y-14952357D01*
X6822714Y-14923786D01*
X6837000Y-14909500D01*
X6865571Y-14895214D01*
X7094143Y-15195214D02*
X7094143Y-14995214D01*
X7094143Y-15023786D02*
X7108428Y-15009500D01*
X7137000Y-14995214D01*
X7179857Y-14995214D01*
X7208428Y-15009500D01*
X7222714Y-15038071D01*
X7222714Y-15195214D01*
X7222714Y-15038071D02*
X7237000Y-15009500D01*
X7265571Y-14995214D01*
X7308428Y-14995214D01*
X7337000Y-15009500D01*
X7351286Y-15038071D01*
X7351286Y-15195214D01*
X7494143Y-15195214D02*
X7494143Y-14995214D01*
X7494143Y-15023786D02*
X7508428Y-15009500D01*
X7537000Y-14995214D01*
X7579857Y-14995214D01*
X7608428Y-15009500D01*
X7622714Y-15038071D01*
X7622714Y-15195214D01*
X7622714Y-15038071D02*
X7637000Y-15009500D01*
X7665571Y-14995214D01*
X7708428Y-14995214D01*
X7737000Y-15009500D01*
X7751286Y-15038071D01*
X7751286Y-15195214D01*
X8337000Y-14880929D02*
X8079857Y-15266643D01*
X8722714Y-14895214D02*
X8751286Y-14895214D01*
X8779857Y-14909500D01*
X8794143Y-14923786D01*
X8808428Y-14952357D01*
X8822714Y-15009500D01*
X8822714Y-15080929D01*
X8808428Y-15138071D01*
X8794143Y-15166643D01*
X8779857Y-15180929D01*
X8751286Y-15195214D01*
X8722714Y-15195214D01*
X8694143Y-15180929D01*
X8679857Y-15166643D01*
X8665571Y-15138071D01*
X8651286Y-15080929D01*
X8651286Y-15009500D01*
X8665571Y-14952357D01*
X8679857Y-14923786D01*
X8694143Y-14909500D01*
X8722714Y-14895214D01*
X8951286Y-15166643D02*
X8965571Y-15180929D01*
X8951286Y-15195214D01*
X8937000Y-15180929D01*
X8951286Y-15166643D01*
X8951286Y-15195214D01*
X9151286Y-14895214D02*
X9179857Y-14895214D01*
X9208428Y-14909500D01*
X9222714Y-14923786D01*
X9237000Y-14952357D01*
X9251286Y-15009500D01*
X9251286Y-15080929D01*
X9237000Y-15138071D01*
X9222714Y-15166643D01*
X9208428Y-15180929D01*
X9179857Y-15195214D01*
X9151286Y-15195214D01*
X9122714Y-15180929D01*
X9108428Y-15166643D01*
X9094143Y-15138071D01*
X9079857Y-15080929D01*
X9079857Y-15009500D01*
X9094143Y-14952357D01*
X9108428Y-14923786D01*
X9122714Y-14909500D01*
X9151286Y-14895214D01*
X9537000Y-15195214D02*
X9365571Y-15195214D01*
X9451286Y-15195214D02*
X9451286Y-14895214D01*
X9422714Y-14938071D01*
X9394143Y-14966643D01*
X9365571Y-14980929D01*
X9808428Y-14895214D02*
X9665571Y-14895214D01*
X9651286Y-15038071D01*
X9665571Y-15023786D01*
X9694143Y-15009500D01*
X9765571Y-15009500D01*
X9794143Y-15023786D01*
X9808428Y-15038071D01*
X9822714Y-15066643D01*
X9822714Y-15138071D01*
X9808428Y-15166643D01*
X9794143Y-15180929D01*
X9765571Y-15195214D01*
X9694143Y-15195214D01*
X9665571Y-15180929D01*
X9651286Y-15166643D01*
X9922714Y-14895214D02*
X10122714Y-14895214D01*
X9994143Y-15195214D01*
X10222714Y-14895214D02*
X10222714Y-14952357D01*
X10337000Y-14895214D02*
X10337000Y-14952357D01*
X10779857Y-15309500D02*
X10765571Y-15295214D01*
X10737000Y-15252357D01*
X10722714Y-15223786D01*
X10708428Y-15180929D01*
X10694143Y-15109500D01*
X10694143Y-15052357D01*
X10708428Y-14980929D01*
X10722714Y-14938071D01*
X10737000Y-14909500D01*
X10765571Y-14866643D01*
X10779857Y-14852357D01*
X10879857Y-14923786D02*
X10894143Y-14909500D01*
X10922714Y-14895214D01*
X10994143Y-14895214D01*
X11022714Y-14909500D01*
X11037000Y-14923786D01*
X11051286Y-14952357D01*
X11051286Y-14980929D01*
X11037000Y-15023786D01*
X10865571Y-15195214D01*
X11051286Y-15195214D01*
X11151286Y-14895214D02*
X11351286Y-14895214D01*
X11222714Y-15195214D01*
X11451286Y-14923786D02*
X11465571Y-14909500D01*
X11494143Y-14895214D01*
X11565571Y-14895214D01*
X11594143Y-14909500D01*
X11608428Y-14923786D01*
X11622714Y-14952357D01*
X11622714Y-14980929D01*
X11608428Y-15023786D01*
X11437000Y-15195214D01*
X11622714Y-15195214D01*
X11979857Y-15195214D02*
X11979857Y-14895214D01*
X12108428Y-15195214D02*
X12108428Y-15038071D01*
X12094143Y-15009500D01*
X12065571Y-14995214D01*
X12022714Y-14995214D01*
X11994143Y-15009500D01*
X11979857Y-15023786D01*
X12294143Y-15195214D02*
X12265571Y-15180929D01*
X12251286Y-15166643D01*
X12237000Y-15138071D01*
X12237000Y-15052357D01*
X12251286Y-15023786D01*
X12265571Y-15009500D01*
X12294143Y-14995214D01*
X12337000Y-14995214D01*
X12365571Y-15009500D01*
X12379857Y-15023786D01*
X12394143Y-15052357D01*
X12394143Y-15138071D01*
X12379857Y-15166643D01*
X12365571Y-15180929D01*
X12337000Y-15195214D01*
X12294143Y-15195214D01*
X12565571Y-15195214D02*
X12537000Y-15180929D01*
X12522714Y-15152357D01*
X12522714Y-14895214D01*
X12794143Y-15180929D02*
X12765571Y-15195214D01*
X12708428Y-15195214D01*
X12679857Y-15180929D01*
X12665571Y-15152357D01*
X12665571Y-15038071D01*
X12679857Y-15009500D01*
X12708428Y-14995214D01*
X12765571Y-14995214D01*
X12794143Y-15009500D01*
X12808428Y-15038071D01*
X12808428Y-15066643D01*
X12665571Y-15095214D01*
X12922714Y-15180929D02*
X12951286Y-15195214D01*
X13008428Y-15195214D01*
X13037000Y-15180929D01*
X13051286Y-15152357D01*
X13051286Y-15138071D01*
X13037000Y-15109500D01*
X13008428Y-15095214D01*
X12965571Y-15095214D01*
X12937000Y-15080929D01*
X12922714Y-15052357D01*
X12922714Y-15038071D01*
X12937000Y-15009500D01*
X12965571Y-14995214D01*
X13008428Y-14995214D01*
X13037000Y-15009500D01*
X13151286Y-15309500D02*
X13165571Y-15295214D01*
X13194143Y-15252357D01*
X13208428Y-15223786D01*
X13222714Y-15180929D01*
X13237000Y-15109500D01*
X13237000Y-15052357D01*
X13222714Y-14980929D01*
X13208428Y-14938071D01*
X13194143Y-14909500D01*
X13165571Y-14866643D01*
X13151286Y-14852357D01*
X5522000Y-15455500D02*
G75*
G03*
X5522000Y-15455500I-40000J0D01*
G01*
X5865571Y-15291214D02*
X5894143Y-15291214D01*
X5922714Y-15305500D01*
X5937000Y-15319786D01*
X5951286Y-15348357D01*
X5965571Y-15405500D01*
X5965571Y-15476929D01*
X5951286Y-15534071D01*
X5937000Y-15562643D01*
X5922714Y-15576929D01*
X5894143Y-15591214D01*
X5865571Y-15591214D01*
X5837000Y-15576929D01*
X5822714Y-15562643D01*
X5808428Y-15534071D01*
X5794143Y-15476929D01*
X5794143Y-15405500D01*
X5808428Y-15348357D01*
X5822714Y-15319786D01*
X5837000Y-15305500D01*
X5865571Y-15291214D01*
X6094143Y-15562643D02*
X6108428Y-15576929D01*
X6094143Y-15591214D01*
X6079857Y-15576929D01*
X6094143Y-15562643D01*
X6094143Y-15591214D01*
X6279857Y-15419786D02*
X6251286Y-15405500D01*
X6237000Y-15391214D01*
X6222714Y-15362643D01*
X6222714Y-15348357D01*
X6237000Y-15319786D01*
X6251286Y-15305500D01*
X6279857Y-15291214D01*
X6337000Y-15291214D01*
X6365571Y-15305500D01*
X6379857Y-15319786D01*
X6394143Y-15348357D01*
X6394143Y-15362643D01*
X6379857Y-15391214D01*
X6365571Y-15405500D01*
X6337000Y-15419786D01*
X6279857Y-15419786D01*
X6251286Y-15434071D01*
X6237000Y-15448357D01*
X6222714Y-15476929D01*
X6222714Y-15534071D01*
X6237000Y-15562643D01*
X6251286Y-15576929D01*
X6279857Y-15591214D01*
X6337000Y-15591214D01*
X6365571Y-15576929D01*
X6379857Y-15562643D01*
X6394143Y-15534071D01*
X6394143Y-15476929D01*
X6379857Y-15448357D01*
X6365571Y-15434071D01*
X6337000Y-15419786D01*
X6579857Y-15291214D02*
X6608428Y-15291214D01*
X6637000Y-15305500D01*
X6651286Y-15319786D01*
X6665571Y-15348357D01*
X6679857Y-15405500D01*
X6679857Y-15476929D01*
X6665571Y-15534071D01*
X6651286Y-15562643D01*
X6637000Y-15576929D01*
X6608428Y-15591214D01*
X6579857Y-15591214D01*
X6551286Y-15576929D01*
X6537000Y-15562643D01*
X6522714Y-15534071D01*
X6508428Y-15476929D01*
X6508428Y-15405500D01*
X6522714Y-15348357D01*
X6537000Y-15319786D01*
X6551286Y-15305500D01*
X6579857Y-15291214D01*
X6865571Y-15291214D02*
X6894143Y-15291214D01*
X6922714Y-15305500D01*
X6937000Y-15319786D01*
X6951286Y-15348357D01*
X6965571Y-15405500D01*
X6965571Y-15476929D01*
X6951286Y-15534071D01*
X6937000Y-15562643D01*
X6922714Y-15576929D01*
X6894143Y-15591214D01*
X6865571Y-15591214D01*
X6837000Y-15576929D01*
X6822714Y-15562643D01*
X6808428Y-15534071D01*
X6794143Y-15476929D01*
X6794143Y-15405500D01*
X6808428Y-15348357D01*
X6822714Y-15319786D01*
X6837000Y-15305500D01*
X6865571Y-15291214D01*
X7094143Y-15591214D02*
X7094143Y-15391214D01*
X7094143Y-15419786D02*
X7108428Y-15405500D01*
X7137000Y-15391214D01*
X7179857Y-15391214D01*
X7208428Y-15405500D01*
X7222714Y-15434071D01*
X7222714Y-15591214D01*
X7222714Y-15434071D02*
X7237000Y-15405500D01*
X7265571Y-15391214D01*
X7308428Y-15391214D01*
X7337000Y-15405500D01*
X7351286Y-15434071D01*
X7351286Y-15591214D01*
X7494143Y-15591214D02*
X7494143Y-15391214D01*
X7494143Y-15419786D02*
X7508428Y-15405500D01*
X7537000Y-15391214D01*
X7579857Y-15391214D01*
X7608428Y-15405500D01*
X7622714Y-15434071D01*
X7622714Y-15591214D01*
X7622714Y-15434071D02*
X7637000Y-15405500D01*
X7665571Y-15391214D01*
X7708428Y-15391214D01*
X7737000Y-15405500D01*
X7751286Y-15434071D01*
X7751286Y-15591214D01*
X8337000Y-15276929D02*
X8079857Y-15662643D01*
X8722714Y-15291214D02*
X8751286Y-15291214D01*
X8779857Y-15305500D01*
X8794143Y-15319786D01*
X8808428Y-15348357D01*
X8822714Y-15405500D01*
X8822714Y-15476929D01*
X8808428Y-15534071D01*
X8794143Y-15562643D01*
X8779857Y-15576929D01*
X8751286Y-15591214D01*
X8722714Y-15591214D01*
X8694143Y-15576929D01*
X8679857Y-15562643D01*
X8665571Y-15534071D01*
X8651286Y-15476929D01*
X8651286Y-15405500D01*
X8665571Y-15348357D01*
X8679857Y-15319786D01*
X8694143Y-15305500D01*
X8722714Y-15291214D01*
X8951286Y-15562643D02*
X8965571Y-15576929D01*
X8951286Y-15591214D01*
X8937000Y-15576929D01*
X8951286Y-15562643D01*
X8951286Y-15591214D01*
X9151286Y-15291214D02*
X9179857Y-15291214D01*
X9208428Y-15305500D01*
X9222714Y-15319786D01*
X9237000Y-15348357D01*
X9251286Y-15405500D01*
X9251286Y-15476929D01*
X9237000Y-15534071D01*
X9222714Y-15562643D01*
X9208428Y-15576929D01*
X9179857Y-15591214D01*
X9151286Y-15591214D01*
X9122714Y-15576929D01*
X9108428Y-15562643D01*
X9094143Y-15534071D01*
X9079857Y-15476929D01*
X9079857Y-15405500D01*
X9094143Y-15348357D01*
X9108428Y-15319786D01*
X9122714Y-15305500D01*
X9151286Y-15291214D01*
X9351286Y-15291214D02*
X9537000Y-15291214D01*
X9437000Y-15405500D01*
X9479857Y-15405500D01*
X9508428Y-15419786D01*
X9522714Y-15434071D01*
X9537000Y-15462643D01*
X9537000Y-15534071D01*
X9522714Y-15562643D01*
X9508428Y-15576929D01*
X9479857Y-15591214D01*
X9394143Y-15591214D01*
X9365571Y-15576929D01*
X9351286Y-15562643D01*
X9822714Y-15591214D02*
X9651286Y-15591214D01*
X9737000Y-15591214D02*
X9737000Y-15291214D01*
X9708428Y-15334071D01*
X9679857Y-15362643D01*
X9651286Y-15376929D01*
X10094143Y-15291214D02*
X9951286Y-15291214D01*
X9937000Y-15434071D01*
X9951286Y-15419786D01*
X9979857Y-15405500D01*
X10051286Y-15405500D01*
X10079857Y-15419786D01*
X10094143Y-15434071D01*
X10108428Y-15462643D01*
X10108428Y-15534071D01*
X10094143Y-15562643D01*
X10079857Y-15576929D01*
X10051286Y-15591214D01*
X9979857Y-15591214D01*
X9951286Y-15576929D01*
X9937000Y-15562643D01*
X10222714Y-15291214D02*
X10222714Y-15348357D01*
X10337000Y-15291214D02*
X10337000Y-15348357D01*
X10779857Y-15705500D02*
X10765571Y-15691214D01*
X10737000Y-15648357D01*
X10722714Y-15619786D01*
X10708428Y-15576929D01*
X10694143Y-15505500D01*
X10694143Y-15448357D01*
X10708428Y-15376929D01*
X10722714Y-15334071D01*
X10737000Y-15305500D01*
X10765571Y-15262643D01*
X10779857Y-15248357D01*
X10879857Y-15319786D02*
X10894143Y-15305500D01*
X10922714Y-15291214D01*
X10994143Y-15291214D01*
X11022714Y-15305500D01*
X11037000Y-15319786D01*
X11051286Y-15348357D01*
X11051286Y-15376929D01*
X11037000Y-15419786D01*
X10865571Y-15591214D01*
X11051286Y-15591214D01*
X11222714Y-15419786D02*
X11194143Y-15405500D01*
X11179857Y-15391214D01*
X11165571Y-15362643D01*
X11165571Y-15348357D01*
X11179857Y-15319786D01*
X11194143Y-15305500D01*
X11222714Y-15291214D01*
X11279857Y-15291214D01*
X11308428Y-15305500D01*
X11322714Y-15319786D01*
X11337000Y-15348357D01*
X11337000Y-15362643D01*
X11322714Y-15391214D01*
X11308428Y-15405500D01*
X11279857Y-15419786D01*
X11222714Y-15419786D01*
X11194143Y-15434071D01*
X11179857Y-15448357D01*
X11165571Y-15476929D01*
X11165571Y-15534071D01*
X11179857Y-15562643D01*
X11194143Y-15576929D01*
X11222714Y-15591214D01*
X11279857Y-15591214D01*
X11308428Y-15576929D01*
X11322714Y-15562643D01*
X11337000Y-15534071D01*
X11337000Y-15476929D01*
X11322714Y-15448357D01*
X11308428Y-15434071D01*
X11279857Y-15419786D01*
X11594143Y-15291214D02*
X11537000Y-15291214D01*
X11508428Y-15305500D01*
X11494143Y-15319786D01*
X11465571Y-15362643D01*
X11451286Y-15419786D01*
X11451286Y-15534071D01*
X11465571Y-15562643D01*
X11479857Y-15576929D01*
X11508428Y-15591214D01*
X11565571Y-15591214D01*
X11594143Y-15576929D01*
X11608428Y-15562643D01*
X11622714Y-15534071D01*
X11622714Y-15462643D01*
X11608428Y-15434071D01*
X11594143Y-15419786D01*
X11565571Y-15405500D01*
X11508428Y-15405500D01*
X11479857Y-15419786D01*
X11465571Y-15434071D01*
X11451286Y-15462643D01*
X11979857Y-15591214D02*
X11979857Y-15291214D01*
X12108428Y-15591214D02*
X12108428Y-15434071D01*
X12094143Y-15405500D01*
X12065571Y-15391214D01*
X12022714Y-15391214D01*
X11994143Y-15405500D01*
X11979857Y-15419786D01*
X12294143Y-15591214D02*
X12265571Y-15576929D01*
X12251286Y-15562643D01*
X12237000Y-15534071D01*
X12237000Y-15448357D01*
X12251286Y-15419786D01*
X12265571Y-15405500D01*
X12294143Y-15391214D01*
X12337000Y-15391214D01*
X12365571Y-15405500D01*
X12379857Y-15419786D01*
X12394143Y-15448357D01*
X12394143Y-15534071D01*
X12379857Y-15562643D01*
X12365571Y-15576929D01*
X12337000Y-15591214D01*
X12294143Y-15591214D01*
X12565571Y-15591214D02*
X12537000Y-15576929D01*
X12522714Y-15548357D01*
X12522714Y-15291214D01*
X12794143Y-15576929D02*
X12765571Y-15591214D01*
X12708428Y-15591214D01*
X12679857Y-15576929D01*
X12665571Y-15548357D01*
X12665571Y-15434071D01*
X12679857Y-15405500D01*
X12708428Y-15391214D01*
X12765571Y-15391214D01*
X12794143Y-15405500D01*
X12808428Y-15434071D01*
X12808428Y-15462643D01*
X12665571Y-15491214D01*
X12922714Y-15576929D02*
X12951286Y-15591214D01*
X13008428Y-15591214D01*
X13037000Y-15576929D01*
X13051286Y-15548357D01*
X13051286Y-15534071D01*
X13037000Y-15505500D01*
X13008428Y-15491214D01*
X12965571Y-15491214D01*
X12937000Y-15476929D01*
X12922714Y-15448357D01*
X12922714Y-15434071D01*
X12937000Y-15405500D01*
X12965571Y-15391214D01*
X13008428Y-15391214D01*
X13037000Y-15405500D01*
X13151286Y-15705500D02*
X13165571Y-15691214D01*
X13194143Y-15648357D01*
X13208428Y-15619786D01*
X13222714Y-15576929D01*
X13237000Y-15505500D01*
X13237000Y-15448357D01*
X13222714Y-15376929D01*
X13208428Y-15334071D01*
X13194143Y-15305500D01*
X13165571Y-15262643D01*
X13151286Y-15248357D01*
X5472000Y-15801500D02*
X5472000Y-15901500D01*
X5422000Y-15851500D02*
X5522000Y-15851500D01*
X5965571Y-15987214D02*
X5794143Y-15987214D01*
X5879857Y-15987214D02*
X5879857Y-15687214D01*
X5851286Y-15730071D01*
X5822714Y-15758643D01*
X5794143Y-15772929D01*
X6094143Y-15958643D02*
X6108428Y-15972929D01*
X6094143Y-15987214D01*
X6079857Y-15972929D01*
X6094143Y-15958643D01*
X6094143Y-15987214D01*
X6294143Y-15687214D02*
X6322714Y-15687214D01*
X6351286Y-15701500D01*
X6365571Y-15715786D01*
X6379857Y-15744357D01*
X6394143Y-15801500D01*
X6394143Y-15872929D01*
X6379857Y-15930071D01*
X6365571Y-15958643D01*
X6351286Y-15972929D01*
X6322714Y-15987214D01*
X6294143Y-15987214D01*
X6265571Y-15972929D01*
X6251286Y-15958643D01*
X6237000Y-15930071D01*
X6222714Y-15872929D01*
X6222714Y-15801500D01*
X6237000Y-15744357D01*
X6251286Y-15715786D01*
X6265571Y-15701500D01*
X6294143Y-15687214D01*
X6579857Y-15687214D02*
X6608428Y-15687214D01*
X6637000Y-15701500D01*
X6651286Y-15715786D01*
X6665571Y-15744357D01*
X6679857Y-15801500D01*
X6679857Y-15872929D01*
X6665571Y-15930071D01*
X6651286Y-15958643D01*
X6637000Y-15972929D01*
X6608428Y-15987214D01*
X6579857Y-15987214D01*
X6551286Y-15972929D01*
X6537000Y-15958643D01*
X6522714Y-15930071D01*
X6508428Y-15872929D01*
X6508428Y-15801500D01*
X6522714Y-15744357D01*
X6537000Y-15715786D01*
X6551286Y-15701500D01*
X6579857Y-15687214D01*
X6865571Y-15687214D02*
X6894143Y-15687214D01*
X6922714Y-15701500D01*
X6937000Y-15715786D01*
X6951286Y-15744357D01*
X6965571Y-15801500D01*
X6965571Y-15872929D01*
X6951286Y-15930071D01*
X6937000Y-15958643D01*
X6922714Y-15972929D01*
X6894143Y-15987214D01*
X6865571Y-15987214D01*
X6837000Y-15972929D01*
X6822714Y-15958643D01*
X6808428Y-15930071D01*
X6794143Y-15872929D01*
X6794143Y-15801500D01*
X6808428Y-15744357D01*
X6822714Y-15715786D01*
X6837000Y-15701500D01*
X6865571Y-15687214D01*
X7094143Y-15987214D02*
X7094143Y-15787214D01*
X7094143Y-15815786D02*
X7108428Y-15801500D01*
X7137000Y-15787214D01*
X7179857Y-15787214D01*
X7208428Y-15801500D01*
X7222714Y-15830071D01*
X7222714Y-15987214D01*
X7222714Y-15830071D02*
X7237000Y-15801500D01*
X7265571Y-15787214D01*
X7308428Y-15787214D01*
X7337000Y-15801500D01*
X7351286Y-15830071D01*
X7351286Y-15987214D01*
X7494143Y-15987214D02*
X7494143Y-15787214D01*
X7494143Y-15815786D02*
X7508428Y-15801500D01*
X7537000Y-15787214D01*
X7579857Y-15787214D01*
X7608428Y-15801500D01*
X7622714Y-15830071D01*
X7622714Y-15987214D01*
X7622714Y-15830071D02*
X7637000Y-15801500D01*
X7665571Y-15787214D01*
X7708428Y-15787214D01*
X7737000Y-15801500D01*
X7751286Y-15830071D01*
X7751286Y-15987214D01*
X8337000Y-15672929D02*
X8079857Y-16058643D01*
X8722714Y-15687214D02*
X8751286Y-15687214D01*
X8779857Y-15701500D01*
X8794143Y-15715786D01*
X8808428Y-15744357D01*
X8822714Y-15801500D01*
X8822714Y-15872929D01*
X8808428Y-15930071D01*
X8794143Y-15958643D01*
X8779857Y-15972929D01*
X8751286Y-15987214D01*
X8722714Y-15987214D01*
X8694143Y-15972929D01*
X8679857Y-15958643D01*
X8665571Y-15930071D01*
X8651286Y-15872929D01*
X8651286Y-15801500D01*
X8665571Y-15744357D01*
X8679857Y-15715786D01*
X8694143Y-15701500D01*
X8722714Y-15687214D01*
X8951286Y-15958643D02*
X8965571Y-15972929D01*
X8951286Y-15987214D01*
X8937000Y-15972929D01*
X8951286Y-15958643D01*
X8951286Y-15987214D01*
X9151286Y-15687214D02*
X9179857Y-15687214D01*
X9208428Y-15701500D01*
X9222714Y-15715786D01*
X9237000Y-15744357D01*
X9251286Y-15801500D01*
X9251286Y-15872929D01*
X9237000Y-15930071D01*
X9222714Y-15958643D01*
X9208428Y-15972929D01*
X9179857Y-15987214D01*
X9151286Y-15987214D01*
X9122714Y-15972929D01*
X9108428Y-15958643D01*
X9094143Y-15930071D01*
X9079857Y-15872929D01*
X9079857Y-15801500D01*
X9094143Y-15744357D01*
X9108428Y-15715786D01*
X9122714Y-15701500D01*
X9151286Y-15687214D01*
X9351286Y-15687214D02*
X9537000Y-15687214D01*
X9437000Y-15801500D01*
X9479857Y-15801500D01*
X9508428Y-15815786D01*
X9522714Y-15830071D01*
X9537000Y-15858643D01*
X9537000Y-15930071D01*
X9522714Y-15958643D01*
X9508428Y-15972929D01*
X9479857Y-15987214D01*
X9394143Y-15987214D01*
X9365571Y-15972929D01*
X9351286Y-15958643D01*
X9679857Y-15987214D02*
X9737000Y-15987214D01*
X9765571Y-15972929D01*
X9779857Y-15958643D01*
X9808428Y-15915786D01*
X9822714Y-15858643D01*
X9822714Y-15744357D01*
X9808428Y-15715786D01*
X9794143Y-15701500D01*
X9765571Y-15687214D01*
X9708428Y-15687214D01*
X9679857Y-15701500D01*
X9665571Y-15715786D01*
X9651286Y-15744357D01*
X9651286Y-15815786D01*
X9665571Y-15844357D01*
X9679857Y-15858643D01*
X9708428Y-15872929D01*
X9765571Y-15872929D01*
X9794143Y-15858643D01*
X9808428Y-15844357D01*
X9822714Y-15815786D01*
X10079857Y-15787214D02*
X10079857Y-15987214D01*
X10008428Y-15672929D02*
X9937000Y-15887214D01*
X10122714Y-15887214D01*
X10222714Y-15687214D02*
X10222714Y-15744357D01*
X10337000Y-15687214D02*
X10337000Y-15744357D01*
X10779857Y-16101500D02*
X10765571Y-16087214D01*
X10737000Y-16044357D01*
X10722714Y-16015786D01*
X10708428Y-15972929D01*
X10694143Y-15901500D01*
X10694143Y-15844357D01*
X10708428Y-15772929D01*
X10722714Y-15730071D01*
X10737000Y-15701500D01*
X10765571Y-15658643D01*
X10779857Y-15644357D01*
X11051286Y-15987214D02*
X10879857Y-15987214D01*
X10965571Y-15987214D02*
X10965571Y-15687214D01*
X10937000Y-15730071D01*
X10908428Y-15758643D01*
X10879857Y-15772929D01*
X11337000Y-15987214D02*
X11165571Y-15987214D01*
X11251286Y-15987214D02*
X11251286Y-15687214D01*
X11222714Y-15730071D01*
X11194143Y-15758643D01*
X11165571Y-15772929D01*
X11437000Y-15687214D02*
X11622714Y-15687214D01*
X11522714Y-15801500D01*
X11565571Y-15801500D01*
X11594143Y-15815786D01*
X11608428Y-15830071D01*
X11622714Y-15858643D01*
X11622714Y-15930071D01*
X11608428Y-15958643D01*
X11594143Y-15972929D01*
X11565571Y-15987214D01*
X11479857Y-15987214D01*
X11451286Y-15972929D01*
X11437000Y-15958643D01*
X11979857Y-15987214D02*
X11979857Y-15687214D01*
X12108428Y-15987214D02*
X12108428Y-15830071D01*
X12094143Y-15801500D01*
X12065571Y-15787214D01*
X12022714Y-15787214D01*
X11994143Y-15801500D01*
X11979857Y-15815786D01*
X12294143Y-15987214D02*
X12265571Y-15972929D01*
X12251286Y-15958643D01*
X12237000Y-15930071D01*
X12237000Y-15844357D01*
X12251286Y-15815786D01*
X12265571Y-15801500D01*
X12294143Y-15787214D01*
X12337000Y-15787214D01*
X12365571Y-15801500D01*
X12379857Y-15815786D01*
X12394143Y-15844357D01*
X12394143Y-15930071D01*
X12379857Y-15958643D01*
X12365571Y-15972929D01*
X12337000Y-15987214D01*
X12294143Y-15987214D01*
X12565571Y-15987214D02*
X12537000Y-15972929D01*
X12522714Y-15944357D01*
X12522714Y-15687214D01*
X12794143Y-15972929D02*
X12765571Y-15987214D01*
X12708428Y-15987214D01*
X12679857Y-15972929D01*
X12665571Y-15944357D01*
X12665571Y-15830071D01*
X12679857Y-15801500D01*
X12708428Y-15787214D01*
X12765571Y-15787214D01*
X12794143Y-15801500D01*
X12808428Y-15830071D01*
X12808428Y-15858643D01*
X12665571Y-15887214D01*
X12922714Y-15972929D02*
X12951286Y-15987214D01*
X13008428Y-15987214D01*
X13037000Y-15972929D01*
X13051286Y-15944357D01*
X13051286Y-15930071D01*
X13037000Y-15901500D01*
X13008428Y-15887214D01*
X12965571Y-15887214D01*
X12937000Y-15872929D01*
X12922714Y-15844357D01*
X12922714Y-15830071D01*
X12937000Y-15801500D01*
X12965571Y-15787214D01*
X13008428Y-15787214D01*
X13037000Y-15801500D01*
X13151286Y-16101500D02*
X13165571Y-16087214D01*
X13194143Y-16044357D01*
X13208428Y-16015786D01*
X13222714Y-15972929D01*
X13237000Y-15901500D01*
X13237000Y-15844357D01*
X13222714Y-15772929D01*
X13208428Y-15730071D01*
X13194143Y-15701500D01*
X13165571Y-15658643D01*
X13151286Y-15644357D01*
X5498569Y-16304069D02*
X5498569Y-16190931D01*
X5385431Y-16190931D01*
X5385431Y-16304069D01*
X5498569Y-16304069D01*
X5965571Y-16383214D02*
X5794143Y-16383214D01*
X5879857Y-16383214D02*
X5879857Y-16083214D01*
X5851286Y-16126071D01*
X5822714Y-16154643D01*
X5794143Y-16168929D01*
X6094143Y-16354643D02*
X6108428Y-16368929D01*
X6094143Y-16383214D01*
X6079857Y-16368929D01*
X6094143Y-16354643D01*
X6094143Y-16383214D01*
X6365571Y-16083214D02*
X6308428Y-16083214D01*
X6279857Y-16097500D01*
X6265571Y-16111786D01*
X6237000Y-16154643D01*
X6222714Y-16211786D01*
X6222714Y-16326071D01*
X6237000Y-16354643D01*
X6251286Y-16368929D01*
X6279857Y-16383214D01*
X6337000Y-16383214D01*
X6365571Y-16368929D01*
X6379857Y-16354643D01*
X6394143Y-16326071D01*
X6394143Y-16254643D01*
X6379857Y-16226071D01*
X6365571Y-16211786D01*
X6337000Y-16197500D01*
X6279857Y-16197500D01*
X6251286Y-16211786D01*
X6237000Y-16226071D01*
X6222714Y-16254643D01*
X6579857Y-16083214D02*
X6608428Y-16083214D01*
X6637000Y-16097500D01*
X6651286Y-16111786D01*
X6665571Y-16140357D01*
X6679857Y-16197500D01*
X6679857Y-16268929D01*
X6665571Y-16326071D01*
X6651286Y-16354643D01*
X6637000Y-16368929D01*
X6608428Y-16383214D01*
X6579857Y-16383214D01*
X6551286Y-16368929D01*
X6537000Y-16354643D01*
X6522714Y-16326071D01*
X6508428Y-16268929D01*
X6508428Y-16197500D01*
X6522714Y-16140357D01*
X6537000Y-16111786D01*
X6551286Y-16097500D01*
X6579857Y-16083214D01*
X6865571Y-16083214D02*
X6894143Y-16083214D01*
X6922714Y-16097500D01*
X6937000Y-16111786D01*
X6951286Y-16140357D01*
X6965571Y-16197500D01*
X6965571Y-16268929D01*
X6951286Y-16326071D01*
X6937000Y-16354643D01*
X6922714Y-16368929D01*
X6894143Y-16383214D01*
X6865571Y-16383214D01*
X6837000Y-16368929D01*
X6822714Y-16354643D01*
X6808428Y-16326071D01*
X6794143Y-16268929D01*
X6794143Y-16197500D01*
X6808428Y-16140357D01*
X6822714Y-16111786D01*
X6837000Y-16097500D01*
X6865571Y-16083214D01*
X7094143Y-16383214D02*
X7094143Y-16183214D01*
X7094143Y-16211786D02*
X7108428Y-16197500D01*
X7137000Y-16183214D01*
X7179857Y-16183214D01*
X7208428Y-16197500D01*
X7222714Y-16226071D01*
X7222714Y-16383214D01*
X7222714Y-16226071D02*
X7237000Y-16197500D01*
X7265571Y-16183214D01*
X7308428Y-16183214D01*
X7337000Y-16197500D01*
X7351286Y-16226071D01*
X7351286Y-16383214D01*
X7494143Y-16383214D02*
X7494143Y-16183214D01*
X7494143Y-16211786D02*
X7508428Y-16197500D01*
X7537000Y-16183214D01*
X7579857Y-16183214D01*
X7608428Y-16197500D01*
X7622714Y-16226071D01*
X7622714Y-16383214D01*
X7622714Y-16226071D02*
X7637000Y-16197500D01*
X7665571Y-16183214D01*
X7708428Y-16183214D01*
X7737000Y-16197500D01*
X7751286Y-16226071D01*
X7751286Y-16383214D01*
X8337000Y-16068929D02*
X8079857Y-16454643D01*
X8722714Y-16083214D02*
X8751286Y-16083214D01*
X8779857Y-16097500D01*
X8794143Y-16111786D01*
X8808428Y-16140357D01*
X8822714Y-16197500D01*
X8822714Y-16268929D01*
X8808428Y-16326071D01*
X8794143Y-16354643D01*
X8779857Y-16368929D01*
X8751286Y-16383214D01*
X8722714Y-16383214D01*
X8694143Y-16368929D01*
X8679857Y-16354643D01*
X8665571Y-16326071D01*
X8651286Y-16268929D01*
X8651286Y-16197500D01*
X8665571Y-16140357D01*
X8679857Y-16111786D01*
X8694143Y-16097500D01*
X8722714Y-16083214D01*
X8951286Y-16354643D02*
X8965571Y-16368929D01*
X8951286Y-16383214D01*
X8937000Y-16368929D01*
X8951286Y-16354643D01*
X8951286Y-16383214D01*
X9151286Y-16083214D02*
X9179857Y-16083214D01*
X9208428Y-16097500D01*
X9222714Y-16111786D01*
X9237000Y-16140357D01*
X9251286Y-16197500D01*
X9251286Y-16268929D01*
X9237000Y-16326071D01*
X9222714Y-16354643D01*
X9208428Y-16368929D01*
X9179857Y-16383214D01*
X9151286Y-16383214D01*
X9122714Y-16368929D01*
X9108428Y-16354643D01*
X9094143Y-16326071D01*
X9079857Y-16268929D01*
X9079857Y-16197500D01*
X9094143Y-16140357D01*
X9108428Y-16111786D01*
X9122714Y-16097500D01*
X9151286Y-16083214D01*
X9508428Y-16083214D02*
X9451286Y-16083214D01*
X9422714Y-16097500D01*
X9408428Y-16111786D01*
X9379857Y-16154643D01*
X9365571Y-16211786D01*
X9365571Y-16326071D01*
X9379857Y-16354643D01*
X9394143Y-16368929D01*
X9422714Y-16383214D01*
X9479857Y-16383214D01*
X9508428Y-16368929D01*
X9522714Y-16354643D01*
X9537000Y-16326071D01*
X9537000Y-16254643D01*
X9522714Y-16226071D01*
X9508428Y-16211786D01*
X9479857Y-16197500D01*
X9422714Y-16197500D01*
X9394143Y-16211786D01*
X9379857Y-16226071D01*
X9365571Y-16254643D01*
X9637000Y-16083214D02*
X9822714Y-16083214D01*
X9722714Y-16197500D01*
X9765571Y-16197500D01*
X9794143Y-16211786D01*
X9808428Y-16226071D01*
X9822714Y-16254643D01*
X9822714Y-16326071D01*
X9808428Y-16354643D01*
X9794143Y-16368929D01*
X9765571Y-16383214D01*
X9679857Y-16383214D01*
X9651286Y-16368929D01*
X9637000Y-16354643D01*
X10008428Y-16083214D02*
X10037000Y-16083214D01*
X10065571Y-16097500D01*
X10079857Y-16111786D01*
X10094143Y-16140357D01*
X10108428Y-16197500D01*
X10108428Y-16268929D01*
X10094143Y-16326071D01*
X10079857Y-16354643D01*
X10065571Y-16368929D01*
X10037000Y-16383214D01*
X10008428Y-16383214D01*
X9979857Y-16368929D01*
X9965571Y-16354643D01*
X9951286Y-16326071D01*
X9937000Y-16268929D01*
X9937000Y-16197500D01*
X9951286Y-16140357D01*
X9965571Y-16111786D01*
X9979857Y-16097500D01*
X10008428Y-16083214D01*
X10222714Y-16083214D02*
X10222714Y-16140357D01*
X10337000Y-16083214D02*
X10337000Y-16140357D01*
X10779857Y-16497500D02*
X10765571Y-16483214D01*
X10737000Y-16440357D01*
X10722714Y-16411786D01*
X10708428Y-16368929D01*
X10694143Y-16297500D01*
X10694143Y-16240357D01*
X10708428Y-16168929D01*
X10722714Y-16126071D01*
X10737000Y-16097500D01*
X10765571Y-16054643D01*
X10779857Y-16040357D01*
X11022714Y-16183214D02*
X11022714Y-16383214D01*
X10951286Y-16068929D02*
X10879857Y-16283214D01*
X11065571Y-16283214D01*
X11408428Y-16383214D02*
X11408428Y-16083214D01*
X11537000Y-16383214D02*
X11537000Y-16226071D01*
X11522714Y-16197500D01*
X11494143Y-16183214D01*
X11451286Y-16183214D01*
X11422714Y-16197500D01*
X11408428Y-16211786D01*
X11722714Y-16383214D02*
X11694143Y-16368929D01*
X11679857Y-16354643D01*
X11665571Y-16326071D01*
X11665571Y-16240357D01*
X11679857Y-16211786D01*
X11694143Y-16197500D01*
X11722714Y-16183214D01*
X11765571Y-16183214D01*
X11794143Y-16197500D01*
X11808428Y-16211786D01*
X11822714Y-16240357D01*
X11822714Y-16326071D01*
X11808428Y-16354643D01*
X11794143Y-16368929D01*
X11765571Y-16383214D01*
X11722714Y-16383214D01*
X11994143Y-16383214D02*
X11965571Y-16368929D01*
X11951286Y-16340357D01*
X11951286Y-16083214D01*
X12222714Y-16368929D02*
X12194143Y-16383214D01*
X12137000Y-16383214D01*
X12108428Y-16368929D01*
X12094143Y-16340357D01*
X12094143Y-16226071D01*
X12108428Y-16197500D01*
X12137000Y-16183214D01*
X12194143Y-16183214D01*
X12222714Y-16197500D01*
X12237000Y-16226071D01*
X12237000Y-16254643D01*
X12094143Y-16283214D01*
X12351286Y-16368929D02*
X12379857Y-16383214D01*
X12437000Y-16383214D01*
X12465571Y-16368929D01*
X12479857Y-16340357D01*
X12479857Y-16326071D01*
X12465571Y-16297500D01*
X12437000Y-16283214D01*
X12394143Y-16283214D01*
X12365571Y-16268929D01*
X12351286Y-16240357D01*
X12351286Y-16226071D01*
X12365571Y-16197500D01*
X12394143Y-16183214D01*
X12437000Y-16183214D01*
X12465571Y-16197500D01*
X12579857Y-16497500D02*
X12594143Y-16483214D01*
X12622714Y-16440357D01*
X12637000Y-16411786D01*
X12651286Y-16368929D01*
X12665571Y-16297500D01*
X12665571Y-16240357D01*
X12651286Y-16168929D01*
X12637000Y-16126071D01*
X12622714Y-16097500D01*
X12594143Y-16054643D01*
X12579857Y-16040357D01*
X5362000Y-16803500D02*
X5522000Y-16643500D01*
X5362000Y-16483500D01*
X5202000Y-16643500D01*
X5362000Y-16803500D01*
X5779857Y-16479214D02*
X5965571Y-16479214D01*
X5865571Y-16593500D01*
X5908428Y-16593500D01*
X5937000Y-16607786D01*
X5951286Y-16622071D01*
X5965571Y-16650643D01*
X5965571Y-16722071D01*
X5951286Y-16750643D01*
X5937000Y-16764929D01*
X5908428Y-16779214D01*
X5822714Y-16779214D01*
X5794143Y-16764929D01*
X5779857Y-16750643D01*
X6094143Y-16750643D02*
X6108428Y-16764929D01*
X6094143Y-16779214D01*
X6079857Y-16764929D01*
X6094143Y-16750643D01*
X6094143Y-16779214D01*
X6222714Y-16507786D02*
X6237000Y-16493500D01*
X6265571Y-16479214D01*
X6337000Y-16479214D01*
X6365571Y-16493500D01*
X6379857Y-16507786D01*
X6394143Y-16536357D01*
X6394143Y-16564929D01*
X6379857Y-16607786D01*
X6208428Y-16779214D01*
X6394143Y-16779214D01*
X6579857Y-16479214D02*
X6608428Y-16479214D01*
X6637000Y-16493500D01*
X6651286Y-16507786D01*
X6665571Y-16536357D01*
X6679857Y-16593500D01*
X6679857Y-16664929D01*
X6665571Y-16722071D01*
X6651286Y-16750643D01*
X6637000Y-16764929D01*
X6608428Y-16779214D01*
X6579857Y-16779214D01*
X6551286Y-16764929D01*
X6537000Y-16750643D01*
X6522714Y-16722071D01*
X6508428Y-16664929D01*
X6508428Y-16593500D01*
X6522714Y-16536357D01*
X6537000Y-16507786D01*
X6551286Y-16493500D01*
X6579857Y-16479214D01*
X6865571Y-16479214D02*
X6894143Y-16479214D01*
X6922714Y-16493500D01*
X6937000Y-16507786D01*
X6951286Y-16536357D01*
X6965571Y-16593500D01*
X6965571Y-16664929D01*
X6951286Y-16722071D01*
X6937000Y-16750643D01*
X6922714Y-16764929D01*
X6894143Y-16779214D01*
X6865571Y-16779214D01*
X6837000Y-16764929D01*
X6822714Y-16750643D01*
X6808428Y-16722071D01*
X6794143Y-16664929D01*
X6794143Y-16593500D01*
X6808428Y-16536357D01*
X6822714Y-16507786D01*
X6837000Y-16493500D01*
X6865571Y-16479214D01*
X7094143Y-16779214D02*
X7094143Y-16579214D01*
X7094143Y-16607786D02*
X7108428Y-16593500D01*
X7137000Y-16579214D01*
X7179857Y-16579214D01*
X7208428Y-16593500D01*
X7222714Y-16622071D01*
X7222714Y-16779214D01*
X7222714Y-16622071D02*
X7237000Y-16593500D01*
X7265571Y-16579214D01*
X7308428Y-16579214D01*
X7337000Y-16593500D01*
X7351286Y-16622071D01*
X7351286Y-16779214D01*
X7494143Y-16779214D02*
X7494143Y-16579214D01*
X7494143Y-16607786D02*
X7508428Y-16593500D01*
X7537000Y-16579214D01*
X7579857Y-16579214D01*
X7608428Y-16593500D01*
X7622714Y-16622071D01*
X7622714Y-16779214D01*
X7622714Y-16622071D02*
X7637000Y-16593500D01*
X7665571Y-16579214D01*
X7708428Y-16579214D01*
X7737000Y-16593500D01*
X7751286Y-16622071D01*
X7751286Y-16779214D01*
X8337000Y-16464929D02*
X8079857Y-16850643D01*
X8722714Y-16479214D02*
X8751286Y-16479214D01*
X8779857Y-16493500D01*
X8794143Y-16507786D01*
X8808428Y-16536357D01*
X8822714Y-16593500D01*
X8822714Y-16664929D01*
X8808428Y-16722071D01*
X8794143Y-16750643D01*
X8779857Y-16764929D01*
X8751286Y-16779214D01*
X8722714Y-16779214D01*
X8694143Y-16764929D01*
X8679857Y-16750643D01*
X8665571Y-16722071D01*
X8651286Y-16664929D01*
X8651286Y-16593500D01*
X8665571Y-16536357D01*
X8679857Y-16507786D01*
X8694143Y-16493500D01*
X8722714Y-16479214D01*
X8951286Y-16750643D02*
X8965571Y-16764929D01*
X8951286Y-16779214D01*
X8937000Y-16764929D01*
X8951286Y-16750643D01*
X8951286Y-16779214D01*
X9251286Y-16779214D02*
X9079857Y-16779214D01*
X9165571Y-16779214D02*
X9165571Y-16479214D01*
X9137000Y-16522071D01*
X9108428Y-16550643D01*
X9079857Y-16564929D01*
X9365571Y-16507786D02*
X9379857Y-16493500D01*
X9408428Y-16479214D01*
X9479857Y-16479214D01*
X9508428Y-16493500D01*
X9522714Y-16507786D01*
X9537000Y-16536357D01*
X9537000Y-16564929D01*
X9522714Y-16607786D01*
X9351286Y-16779214D01*
X9537000Y-16779214D01*
X9794143Y-16479214D02*
X9737000Y-16479214D01*
X9708428Y-16493500D01*
X9694143Y-16507786D01*
X9665571Y-16550643D01*
X9651286Y-16607786D01*
X9651286Y-16722071D01*
X9665571Y-16750643D01*
X9679857Y-16764929D01*
X9708428Y-16779214D01*
X9765571Y-16779214D01*
X9794143Y-16764929D01*
X9808428Y-16750643D01*
X9822714Y-16722071D01*
X9822714Y-16650643D01*
X9808428Y-16622071D01*
X9794143Y-16607786D01*
X9765571Y-16593500D01*
X9708428Y-16593500D01*
X9679857Y-16607786D01*
X9665571Y-16622071D01*
X9651286Y-16650643D01*
X10008428Y-16479214D02*
X10037000Y-16479214D01*
X10065571Y-16493500D01*
X10079857Y-16507786D01*
X10094143Y-16536357D01*
X10108428Y-16593500D01*
X10108428Y-16664929D01*
X10094143Y-16722071D01*
X10079857Y-16750643D01*
X10065571Y-16764929D01*
X10037000Y-16779214D01*
X10008428Y-16779214D01*
X9979857Y-16764929D01*
X9965571Y-16750643D01*
X9951286Y-16722071D01*
X9937000Y-16664929D01*
X9937000Y-16593500D01*
X9951286Y-16536357D01*
X9965571Y-16507786D01*
X9979857Y-16493500D01*
X10008428Y-16479214D01*
X10222714Y-16479214D02*
X10222714Y-16536357D01*
X10337000Y-16479214D02*
X10337000Y-16536357D01*
X10779857Y-16893500D02*
X10765571Y-16879214D01*
X10737000Y-16836357D01*
X10722714Y-16807786D01*
X10708428Y-16764929D01*
X10694143Y-16693500D01*
X10694143Y-16636357D01*
X10708428Y-16564929D01*
X10722714Y-16522071D01*
X10737000Y-16493500D01*
X10765571Y-16450643D01*
X10779857Y-16436357D01*
X11022714Y-16579214D02*
X11022714Y-16779214D01*
X10951286Y-16464929D02*
X10879857Y-16679214D01*
X11065571Y-16679214D01*
X11408428Y-16779214D02*
X11408428Y-16479214D01*
X11537000Y-16779214D02*
X11537000Y-16622071D01*
X11522714Y-16593500D01*
X11494143Y-16579214D01*
X11451286Y-16579214D01*
X11422714Y-16593500D01*
X11408428Y-16607786D01*
X11722714Y-16779214D02*
X11694143Y-16764929D01*
X11679857Y-16750643D01*
X11665571Y-16722071D01*
X11665571Y-16636357D01*
X11679857Y-16607786D01*
X11694143Y-16593500D01*
X11722714Y-16579214D01*
X11765571Y-16579214D01*
X11794143Y-16593500D01*
X11808428Y-16607786D01*
X11822714Y-16636357D01*
X11822714Y-16722071D01*
X11808428Y-16750643D01*
X11794143Y-16764929D01*
X11765571Y-16779214D01*
X11722714Y-16779214D01*
X11994143Y-16779214D02*
X11965571Y-16764929D01*
X11951286Y-16736357D01*
X11951286Y-16479214D01*
X12222714Y-16764929D02*
X12194143Y-16779214D01*
X12137000Y-16779214D01*
X12108428Y-16764929D01*
X12094143Y-16736357D01*
X12094143Y-16622071D01*
X12108428Y-16593500D01*
X12137000Y-16579214D01*
X12194143Y-16579214D01*
X12222714Y-16593500D01*
X12237000Y-16622071D01*
X12237000Y-16650643D01*
X12094143Y-16679214D01*
X12351286Y-16764929D02*
X12379857Y-16779214D01*
X12437000Y-16779214D01*
X12465571Y-16764929D01*
X12479857Y-16736357D01*
X12479857Y-16722071D01*
X12465571Y-16693500D01*
X12437000Y-16679214D01*
X12394143Y-16679214D01*
X12365571Y-16664929D01*
X12351286Y-16636357D01*
X12351286Y-16622071D01*
X12365571Y-16593500D01*
X12394143Y-16579214D01*
X12437000Y-16579214D01*
X12465571Y-16593500D01*
X12579857Y-16893500D02*
X12594143Y-16879214D01*
X12622714Y-16836357D01*
X12637000Y-16807786D01*
X12651286Y-16764929D01*
X12665571Y-16693500D01*
X12665571Y-16636357D01*
X12651286Y-16564929D01*
X12637000Y-16522071D01*
X12622714Y-16493500D01*
X12594143Y-16450643D01*
X12579857Y-16436357D01*
M02*
