M48
; DRILL file {KiCad (5.1.10)-1} date 03/09/25 14:00:58
; FORMAT={-:-/ absolute / inch / decimal}
; #@! TF.CreationDate,2025-03-09T14:00:58+01:00
; #@! TF.GenerationSoftware,Kicad,Pcbnew,(5.1.10)-1
; #@! TF.FileFunction,Plated,1,2,PTH
FMAT,2
INCH
T1C0.0157
T2C0.0315
T3C0.0394
T4C0.0630
T5C0.1260
%
G90
G05
T1
X2.75Y-5.06
X2.79Y-3.61
X2.9116Y-5.1884
X2.92Y-2.14
X2.92Y-3.73
X2.93Y-2.94
X2.93Y-3.04
X2.939Y-4.801
X2.94Y-3.67
X2.94Y-4.06
X2.9494Y-2.8906
X2.95Y-2.39
X2.95Y-4.27
X2.95Y-5.1314
X2.96Y-3.98
X2.9681Y-4.2281
X2.97Y-3.23
X2.97Y-3.91
X2.97Y-4.16
X2.97Y-4.75
X2.9775Y-2.8325
X2.9785Y-2.1615
X2.99Y-3.84
X3.0Y-3.5
X3.0Y-3.7
X3.0Y-4.05
X3.0047Y-2.4153
X3.0047Y-2.5953
X3.01Y-3.75
X3.01Y-4.14
X3.01Y-4.39
X3.01Y-4.59
X3.0143Y-4.5357
X3.03Y-2.47
X3.03Y-3.87
X3.04Y-3.96
X3.0463Y-2.6937
X3.06Y-2.44
X3.06Y-3.75
X3.0659Y-2.7341
X3.0879Y-2.7921
X3.09Y-2.24
X3.12Y-2.2
X3.12Y-2.64
X3.19Y-4.33
X3.22Y-3.19
X3.22Y-4.25
X3.23Y-4.35
X3.23Y-4.95
X3.2572Y-5.2428
X3.2643Y-3.2443
X3.27Y-2.88
X3.27Y-3.5
X3.28Y-2.07
X3.28Y-2.54
X3.28Y-4.15
X3.28Y-4.59
X3.2857Y-5.0943
X3.29Y-4.75
X3.3Y-3.1
X3.3Y-3.3
X3.3Y-3.94
X3.31Y-3.99
X3.32Y-3.86
X3.34Y-4.46
X3.34Y-5.35
X3.35Y-3.25
X3.37Y-2.86
X3.38Y-2.2
X3.38Y-2.7
X3.48Y-2.41
X3.48Y-2.74
X3.5143Y-5.0057
X3.53Y-2.7
X3.53Y-3.38
X3.53Y-3.67
X3.53Y-3.9
X3.53Y-3.95
X3.53Y-4.26
X3.55Y-2.93
X3.57Y-3.55
X3.58Y-2.44
X3.58Y-2.8
X3.65Y-3.06
X3.68Y-2.47
X3.71Y-3.86
X3.75Y-3.38
X3.76Y-3.73
X3.78Y-2.16
X3.8057Y-2.7943
X3.81Y-3.9
X3.8336Y-3.7764
X3.8543Y-3.4143
X3.87Y-2.8
X3.88Y-2.24
X3.88Y-4.95
X3.9057Y-2.7443
X3.91Y-4.45
X3.91Y-4.85
X3.95Y-3.42
X3.95Y-4.38
X3.95Y-4.45
X3.9657Y-3.4757
X3.98Y-2.14
X3.98Y-2.72
X4.05Y-3.8
X4.06Y-4.42
X4.0657Y-3.9943
X4.08Y-2.39
X4.0943Y-3.0643
X4.1043Y-4.0943
X4.1057Y-3.4657
X4.11Y-3.55
X4.15Y-2.86
X4.15Y-3.43
X4.17Y-4.38
X4.21Y-3.54
X4.21Y-4.34
X4.21Y-4.68
X4.2168Y-4.1332
X4.25Y-2.88
X4.26Y-3.43
X4.26Y-3.7
X4.26Y-4.46
X4.26Y-4.95
X4.2984Y-2.6384
X4.3Y-2.43
X4.31Y-4.02
X4.31Y-4.37
X4.31Y-4.82
X4.3157Y-3.4243
X4.36Y-3.46
X4.36Y-5.05
X4.41Y-3.97
X4.41Y-4.4
X4.41Y-4.77
X4.42Y-3.31
X4.4457Y-3.0643
X4.45Y-2.8
X4.45Y-3.2
X4.46Y-3.84
X4.5Y-4.44
X4.51Y-2.54
X4.51Y-3.27
X4.51Y-3.35
X4.51Y-3.89
X4.51Y-4.93
X4.55Y-2.72
X4.55Y-3.06
X4.56Y-3.39
X4.56Y-4.45
X4.57Y-4.08
X4.61Y-3.46
X4.61Y-3.93
X4.61Y-4.87
X4.62Y-3.27
X4.71Y-3.47
X4.71Y-3.76
X4.71Y-4.07
X4.71Y-5.01
X4.765Y-5.055
X4.7857Y-3.7943
X4.81Y-3.68
X4.81Y-4.09
X4.81Y-4.97
X4.85Y-3.83
X4.8957Y-3.1543
X4.9Y-2.61
X4.9Y-4.07
X4.91Y-4.73
X4.915Y-3.705
X4.95Y-2.91
X4.9543Y-3.9357
X4.96Y-3.82
X5.0Y-4.98
X5.01Y-3.79
X5.01Y-4.08
X5.01Y-4.87
X5.03Y-3.98
X5.11Y-4.3
X5.11Y-5.05
X5.16Y-4.08
X5.1643Y-3.9357
X5.165Y-3.055
X5.165Y-3.155
X5.2057Y-3.5043
X5.21Y-2.56
X5.21Y-3.98
X5.21Y-4.97
X5.22Y-2.14
X5.2543Y-4.0957
X5.3043Y-4.4943
X5.313Y-4.733
X5.335Y-3.155
X5.41Y-4.09
X5.45Y-4.28
X5.47Y-3.27
X5.52Y-2.8
X5.53Y-3.82
X5.54Y-3.0
X5.55Y-2.85
X5.56Y-3.1
X5.5643Y-3.9357
X5.58Y-2.7
X5.58Y-3.26
X5.6Y-4.37
X5.603Y-4.623
X5.61Y-3.59
X5.6177Y-3.9023
X5.62Y-2.9
X5.62Y-3.2
X5.62Y-4.99
X5.6356Y-4.7044
X5.65Y-3.97
X5.67Y-4.51
X5.67Y-4.82
X5.67Y-5.04
X5.6985Y-3.2815
X5.72Y-2.41
X5.73Y-4.41
X5.73Y-4.77
X5.74Y-1.94
X5.74Y-4.34
X5.75Y-3.85
X5.7932Y-4.2968
X5.8Y-2.96
X5.8Y-4.89
X5.81Y-3.1
X5.81Y-4.07
X5.84Y-3.76
X5.84Y-5.01
X5.85Y-3.86
X5.85Y-4.62
X5.8526Y-3.0426
X5.86Y-3.35
X5.8662Y-3.2062
X5.88Y-3.74
X5.88Y-4.19
X5.8983Y-3.1517
X5.92Y-3.1
X5.92Y-3.46
X5.92Y-3.98
X5.92Y-4.44
X5.92Y-4.68
X5.92Y-4.86
X5.9215Y-3.7515
X5.945Y-3.495
X5.95Y-4.08
X5.95Y-4.94
X5.9619Y-2.9881
X5.97Y-3.71
X6.0Y-2.77
X6.0Y-4.58
X6.004Y-3.806
X6.0152Y-3.6748
X6.0309Y-2.8791
X6.0451Y-3.9151
X6.0451Y-4.9751
X6.0485Y-3.2815
X6.0545Y-2.8245
X6.0784Y-5.0516
X6.1Y-4.57
X6.12Y-4.24
X6.12Y-4.33
X6.24Y-4.24
X6.3Y-5.15
X6.39Y-3.47
X6.4Y-4.39
X6.4393Y-3.2607
X6.44Y-4.53
X6.46Y-3.37
X6.46Y-4.63
T2
X2.6781Y-2.3
X2.6781Y-2.3984
X2.6781Y-2.4969
X2.6781Y-2.5953
X2.6781Y-2.6937
X2.6781Y-2.7921
X2.6781Y-2.8906
X2.6781Y-2.989
X2.6781Y-3.0874
X2.6781Y-3.1858
X2.6781Y-3.2843
X2.6781Y-3.3827
X2.6781Y-3.4811
X2.6781Y-3.5795
X2.6781Y-3.678
X2.6781Y-3.7764
X2.6781Y-3.8748
X2.6781Y-3.9732
X2.6781Y-4.0717
X2.6781Y-4.1701
X2.6781Y-4.2685
X2.6781Y-4.3669
X2.6781Y-4.4654
X2.6781Y-4.5638
X2.6781Y-4.6622
X2.6781Y-4.7606
X2.6781Y-4.8591
X2.6781Y-4.9575
X2.6781Y-5.0559
X2.71Y-5.18
X2.875Y-2.3
X2.875Y-2.3984
X2.875Y-2.4969
X2.875Y-2.5953
X2.875Y-2.6937
X2.875Y-2.7921
X2.875Y-2.8906
X2.875Y-2.989
X2.875Y-3.0874
X2.875Y-3.1858
X2.875Y-3.2843
X2.875Y-3.3827
X2.875Y-3.4811
X2.875Y-3.5795
X2.875Y-3.678
X2.875Y-3.7764
X2.875Y-3.8748
X2.875Y-3.9732
X2.875Y-4.0717
X2.875Y-4.1701
X2.875Y-4.2685
X2.875Y-4.3669
X2.875Y-4.4654
X2.875Y-4.5638
X2.875Y-4.6622
X2.875Y-4.7606
X2.875Y-4.8591
X2.875Y-4.9575
X2.875Y-5.0559
X2.9116Y-5.35
X2.96Y-2.07
X3.01Y-5.18
X3.01Y-5.35
X3.1096Y-2.07
X3.13Y-3.0
X3.13Y-3.1
X3.13Y-3.2
X3.13Y-3.3
X3.13Y-3.4
X3.13Y-3.5
X3.13Y-3.6
X3.13Y-3.85
X3.13Y-3.95
X3.13Y-4.05
X3.13Y-4.15
X3.13Y-4.25
X3.13Y-4.35
X3.13Y-4.45
X3.13Y-4.75
X3.13Y-4.85
X3.13Y-4.95
X3.13Y-5.05
X3.13Y-5.15
X3.13Y-5.25
X3.13Y-5.35
X3.18Y-2.32
X3.18Y-2.62
X3.28Y-2.32
X3.28Y-2.62
X3.34Y-4.62
X3.38Y-2.32
X3.38Y-2.62
X3.43Y-3.0
X3.43Y-3.1
X3.43Y-3.2
X3.43Y-3.3
X3.43Y-3.4
X3.43Y-3.5
X3.43Y-3.6
X3.43Y-3.85
X3.43Y-3.95
X3.43Y-4.05
X3.43Y-4.15
X3.43Y-4.25
X3.43Y-4.35
X3.43Y-4.45
X3.43Y-4.75
X3.43Y-4.85
X3.43Y-4.95
X3.43Y-5.05
X3.43Y-5.15
X3.43Y-5.25
X3.43Y-5.35
X3.4384Y-4.62
X3.48Y-2.32
X3.48Y-2.62
X3.58Y-2.32
X3.58Y-2.62
X3.61Y-3.62
X3.61Y-4.22
X3.61Y-4.58
X3.61Y-5.18
X3.65Y-2.97
X3.65Y-3.27
X3.68Y-2.32
X3.68Y-2.62
X3.71Y-3.62
X3.71Y-4.22
X3.71Y-4.58
X3.71Y-5.18
X3.75Y-2.97
X3.75Y-3.27
X3.78Y-2.32
X3.78Y-2.62
X3.81Y-3.62
X3.81Y-4.22
X3.81Y-4.58
X3.81Y-5.18
X3.85Y-2.97
X3.85Y-3.27
X3.88Y-2.32
X3.88Y-2.62
X3.91Y-3.62
X3.91Y-4.22
X3.91Y-4.58
X3.91Y-5.18
X3.95Y-2.97
X3.95Y-3.27
X3.98Y-2.32
X3.98Y-2.62
X4.01Y-3.62
X4.01Y-4.22
X4.01Y-4.58
X4.01Y-5.18
X4.05Y-2.97
X4.05Y-3.27
X4.08Y-2.32
X4.08Y-2.62
X4.11Y-3.62
X4.11Y-4.22
X4.11Y-4.58
X4.11Y-5.18
X4.15Y-2.97
X4.15Y-3.27
X4.2Y-2.54
X4.2Y-2.6384
X4.21Y-3.62
X4.21Y-4.22
X4.21Y-4.58
X4.21Y-5.18
X4.25Y-2.97
X4.25Y-3.27
X4.31Y-3.62
X4.31Y-4.22
X4.31Y-4.58
X4.31Y-5.18
X4.35Y-2.97
X4.35Y-3.27
X4.41Y-3.62
X4.41Y-4.22
X4.41Y-4.58
X4.41Y-5.18
X4.51Y-3.62
X4.51Y-4.22
X4.51Y-4.58
X4.51Y-5.18
X4.61Y-3.62
X4.61Y-4.22
X4.61Y-4.58
X4.61Y-5.18
X4.62Y-2.43
X4.62Y-2.5284
X4.62Y-2.62
X4.62Y-2.7184
X4.62Y-2.81
X4.62Y-2.9084
X4.62Y-3.0016
X4.62Y-3.1
X4.71Y-3.62
X4.71Y-4.22
X4.71Y-4.58
X4.71Y-5.18
X4.73Y-4.87
X4.7316Y-3.93
X4.74Y-2.51
X4.74Y-2.61
X4.74Y-2.71
X4.74Y-2.81
X4.74Y-2.91
X4.74Y-3.01
X4.74Y-3.11
X4.74Y-3.21
X4.81Y-3.62
X4.81Y-4.22
X4.81Y-4.58
X4.81Y-5.18
X4.8284Y-4.87
X4.83Y-3.93
X4.91Y-3.62
X4.91Y-4.22
X4.91Y-4.58
X4.91Y-5.18
X5.01Y-3.62
X5.01Y-4.22
X5.01Y-4.58
X5.01Y-5.18
X5.04Y-2.51
X5.04Y-2.61
X5.04Y-2.71
X5.04Y-2.81
X5.04Y-2.91
X5.04Y-3.01
X5.04Y-3.11
X5.04Y-3.21
X5.11Y-3.62
X5.11Y-4.22
X5.11Y-4.58
X5.11Y-5.18
X5.17Y-2.5016
X5.17Y-2.6
X5.21Y-3.62
X5.21Y-4.22
X5.21Y-4.58
X5.21Y-5.18
X5.3Y-2.42
X5.3Y-2.5184
X5.3Y-2.61
X5.3Y-2.7084
X5.3Y-2.8
X5.3Y-2.8984
X5.3Y-2.9916
X5.3Y-3.09
X5.31Y-3.62
X5.31Y-4.22
X5.31Y-4.58
X5.31Y-5.18
X5.41Y-3.62
X5.41Y-4.22
X5.41Y-4.58
X5.41Y-5.18
X5.42Y-2.5
X5.42Y-2.6
X5.42Y-2.7
X5.42Y-2.8
X5.42Y-2.9
X5.42Y-3.0
X5.42Y-3.1
X5.42Y-3.2
X5.51Y-3.62
X5.51Y-4.22
X5.51Y-4.58
X5.51Y-5.18
X5.72Y-2.5
X5.72Y-2.6
X5.72Y-2.7
X5.72Y-2.8
X5.72Y-2.9
X5.72Y-3.0
X5.72Y-3.1
X5.72Y-3.2
X5.73Y-5.05
X5.73Y-5.1484
X5.85Y-2.4816
X5.85Y-2.58
X5.91Y-5.0516
X5.91Y-5.15
T3
X2.395Y-2.228
X2.395Y-2.328
X2.395Y-2.428
X2.395Y-2.528
X2.395Y-2.628
X2.395Y-2.728
X2.395Y-2.828
X2.395Y-2.928
X2.395Y-3.028
X2.395Y-3.128
X2.395Y-3.228
X2.395Y-3.328
X2.395Y-3.428
X2.395Y-3.528
X2.395Y-3.628
X2.395Y-3.728
X2.395Y-3.828
X2.395Y-3.928
X2.395Y-4.028
X2.395Y-4.128
X2.395Y-4.228
X2.395Y-4.328
X2.395Y-4.428
X2.395Y-4.528
X2.395Y-4.628
X2.395Y-4.728
X2.395Y-4.828
X2.395Y-4.928
X2.395Y-5.028
X2.595Y-2.228
X2.595Y-2.328
X2.595Y-2.428
X2.595Y-2.528
X2.595Y-2.628
X2.595Y-2.728
X2.595Y-2.828
X2.595Y-2.928
X2.595Y-3.028
X2.595Y-3.128
X2.595Y-3.228
X2.595Y-3.328
X2.595Y-3.428
X2.595Y-3.528
X2.595Y-3.628
X2.595Y-3.728
X2.595Y-3.828
X2.595Y-3.928
X2.595Y-4.028
X2.595Y-4.128
X2.595Y-4.228
X2.595Y-4.328
X2.595Y-4.428
X2.595Y-4.528
X2.595Y-4.628
X2.595Y-4.728
X2.595Y-4.828
X2.595Y-4.928
X2.595Y-5.028
X3.17Y-2.8
X3.27Y-2.8
X3.37Y-2.8
X4.71Y-1.94
X4.71Y-2.04
X4.71Y-2.14
X4.81Y-1.94
X4.81Y-2.04
X4.81Y-2.14
X5.3238Y-2.14
X5.3783Y-2.0282
X5.4328Y-2.14
X5.4874Y-2.0282
X5.5419Y-2.14
X5.5964Y-2.0282
X5.6509Y-2.14
X5.7055Y-2.0282
X5.76Y-2.14
X6.19Y-2.77
X6.19Y-2.8791
X6.19Y-2.9881
X6.19Y-3.0972
X6.19Y-3.2062
X6.19Y-3.3153
X6.19Y-3.4243
X6.19Y-3.5334
X6.19Y-3.6424
X6.19Y-3.7515
X6.19Y-3.8606
X6.19Y-3.9696
X6.19Y-4.0787
X6.19Y-4.1877
X6.19Y-4.2968
X6.19Y-4.4058
X6.19Y-4.5149
X6.19Y-4.6239
X6.19Y-4.733
X6.3018Y-2.8245
X6.3018Y-2.9336
X6.3018Y-3.0426
X6.3018Y-3.1517
X6.3018Y-3.2607
X6.3018Y-3.3698
X6.3018Y-3.4789
X6.3018Y-3.5879
X6.3018Y-3.697
X6.3018Y-3.806
X6.3018Y-3.9151
X6.3018Y-4.0241
X6.3018Y-4.1332
X6.3018Y-4.2422
X6.3018Y-4.3513
X6.3018Y-4.4604
X6.3018Y-4.5694
X6.3018Y-4.6785
T4
X2.295Y-1.928
X2.295Y-5.428
X2.3829Y-2.0539
X2.3829Y-5.302
T5
X5.0498Y-2.1282
X6.034Y-2.1282
X6.2018Y-2.5015
X6.2018Y-5.0015
T0
M30
